<?xml version="1.0" standalone="no"?>
<!DOCTYPE svg PUBLIC "-//W3C//DTD SVG 1.1//EN" "http://www.w3.org/Graphics/SVG/1.1/DTD/svg11.dtd" >
<svg xmlns="http://www.w3.org/2000/svg" xmlns:xlink="http://www.w3.org/1999/xlink" version="1.1">
<metadata>
Created by FontForge 20170731 at Fri Jan  1 02:30:17 1904
 By Aleksey,,,
Copyright 1988-1991 Adobe Systems Inc.
</metadata>
<defs>
<font id="ACaslon-RegularSC" horiz-adv-x="1024" >
  <font-face 
    font-family="ACaslon RegularSC"
    font-weight="400"
    font-stretch="normal"
    units-per-em="2048"
    panose-1="2 2 5 0 0 0 0 0 0 0"
    ascent="1638"
    descent="-410"
    x-height="928"
    cap-height="1456"
    bbox="-158 -557 2326 1896"
    underline-thickness="102"
    underline-position="-358"
    unicode-range="U+0020-F002"
  />
<missing-glyph horiz-adv-x="0" 
 />
    <glyph glyph-name=".notdef" horiz-adv-x="0" 
 />
    <glyph glyph-name="glyph1" horiz-adv-x="0" 
 />
    <glyph glyph-name="nonmarkingreturn" horiz-adv-x="682" 
 />
    <glyph glyph-name="equal" unicode=" " horiz-adv-x="520" 
 />
    <glyph glyph-name="greater" unicode="!" horiz-adv-x="520" 
d="M268 -25q47 2 82 33q33 29 33 80q-2 59 -35 92q-35 31 -80 31q-73 -2 -100 -43q-29 -41 -29 -72q2 -69 49 -96q43 -25 80 -25v0zM264 1399q-41 -2 -67 -35q-31 -35 -31 -86q2 -88 31 -375q24 -287 30 -461q-2 -20 15 -20h37q14 0 14 14q8 178 39 477q16 140 24 244
q11 102 11 121q4 67 -27 94t-76 27v0z" />
    <glyph glyph-name="question" unicode="&#x22;" horiz-adv-x="758" 
d="M252 944q8 92 33 244q24 151 26 209q0 84 -94 84t-96 -86q2 -56 31 -207q24 -152 30 -244h70zM577 944q9 92 33 244q13 71 23 129q6 57 6 80q0 84 -96 84q-92 0 -95 -86q3 -56 31 -207q25 -152 31 -244h67z" />
    <glyph glyph-name="at" unicode="#" 
d="M592 539h-223l67 317h221zM477 -8q-8 -23 8 -23h92q17 0 21 25l90 436h227q23 0 25 10l20 82q2 17 -22 17h-227l67 317h215q31 0 31 14l18 80q2 15 -18 15h-223l86 411q4 23 -11 23h-90q-18 -2 -20 -19l-86 -415h-221l86 413q6 21 -8 21h-91q-16 -2 -16 -19l-92 -415
h-221q-21 0 -27 -15l-16 -80q-6 -14 28 -14h213l-65 -317h-223q-19 0 -23 -15l-20 -76q-4 -18 12 -18h231l-94 -432q-8 -29 8 -29h92q17 0 21 33l92 428h223z" />
    <glyph glyph-name="A" unicode="$" horiz-adv-x="768" 
d="M336 -76q0 -14 12 -14h55q11 2 13 14l2 76q143 8 217 86q74 76 74 158q0 112 -62 176q-61 63 -211 88l17 274q77 -18 112 -57q31 -37 41 -86q2 -12 14 -10l25 4q8 0 8 12q-4 78 -4 184q0 21 -14 21q-17 0 -27 -10l-14 -13q-8 -12 -31 -2q-12 11 -106 25l4 92q0 12 -15 12
h-49q-12 0 -12 -12l-6 -90q-123 2 -205 -64q-84 -67 -86 -157q-2 -101 61 -162q64 -59 207 -90l-14 -311v0q-57 16 -92 41q-35 22 -53 47q-17 28 -23 55q-8 25 -14 49q-4 12 -15 12l-28 2q-13 0 -15 -12q-4 -29 -10 -100q-6 -74 -16 -107q0 -16 16 -18q21 -4 31 14
q8 21 24 21q7 0 35 -17q23 -12 58 -26q32 -15 98 -25zM360 522q-84 19 -112 55q-33 37 -31 87q-2 38 37 81q37 43 121 45zM432 360q76 -8 113 -53q35 -45 35 -100q-3 -58 -48 -96q-45 -41 -112 -45z" />
    <glyph glyph-name="B" unicode="%" horiz-adv-x="1536" 
d="M348 602q-26 0 -63 27q-39 24 -64 73q-37 88 -37 248q0 72 8 162q9 90 35 154q21 38 49 57q29 14 56 14q55 0 88 -35q31 -34 49 -92q29 -118 27 -250q0 -188 -29 -274q-21 -53 -53 -70q-35 -16 -66 -14v0zM338 1399q-152 -4 -225 -138q-72 -133 -72 -309q0 -45 12 -110
q10 -68 43 -138q33 -69 94 -114q62 -49 158 -49q279 4 297 430q-2 69 -16 143q-15 74 -49 139q-33 66 -93 107q-61 39 -149 39v0zM1225 1339q8 13 8 19q4 6 -35 28q-27 13 -33 13q-10 -2 -16 -17l-832 -1347q-10 -15 -10 -25q-2 -8 29 -24q33 -17 37 -17q8 0 20 27zM1198 43
q-27 0 -63 27q-39 24 -64 73q-37 88 -37 248q0 72 8 162q9 90 35 154q21 38 49 57q29 14 56 14q55 0 88 -35q30 -34 49 -92q28 -119 26 -250q0 -188 -28 -274q-21 -53 -53 -70q-35 -16 -66 -14v0zM1188 840q-152 -4 -226 -138q-71 -133 -71 -309q0 -45 12 -110
q10 -68 43 -138q33 -69 94 -114q62 -47 158 -49q279 6 297 430q-2 69 -16 143q-15 74 -50 139q-32 66 -92 107q-61 39 -149 39v0z" />
    <glyph glyph-name="C" unicode="&#x26;" horiz-adv-x="1282" 
d="M389 -25q131 5 217 70q43 29 74 59q31 29 53 52v0q37 -43 107 -109q34 -29 79 -49q46 -23 101 -23q61 2 106 21q43 18 74 47t51 55q19 25 25 41q6 10 -2 13l-25 18q-4 6 -16 -10q-6 -11 -45 -49q-41 -43 -107 -45q-45 0 -86 34q-43 31 -71 58q-48 47 -97 104
q29 43 101 139q69 95 86 111q12 10 32 16q19 4 52 4h20q12 0 12 13v41q0 14 -12 14q-41 -4 -139 -4q-98 2 -135 4q-13 0 -13 -10v-45q0 -13 11 -13h20q39 -2 35 -36q-6 -19 -43 -80q-37 -64 -68 -101v0q-110 146 -264 242q53 27 103 76q47 47 53 112q0 86 -62 144
q-63 55 -163 57q-86 -2 -162 -70q-35 -30 -58 -67q-22 -37 -22 -78q2 -121 151 -201q-83 -39 -155 -104q-41 -37 -74 -94q-37 -56 -37 -127q0 -56 29 -96q24 -43 67 -74q89 -60 197 -60v0zM440 74q-73 0 -139 49q-65 45 -72 125q0 82 52 143q51 62 131 103v0
q84 -48 159 -129q76 -84 123 -156q-28 -35 -90 -82q-31 -21 -72 -37q-43 -16 -92 -16v0zM453 885q47 -2 77 -39q29 -39 29 -82q0 -82 -25 -119q-24 -37 -63 -65v0q-45 28 -86 67q-45 39 -47 82q0 78 37 117q33 39 78 39v0z" />
    <glyph glyph-name="D" unicode="'" horiz-adv-x="422" 
d="M248 944q8 92 33 244q24 151 26 209q0 84 -94 84t-96 -86q2 -56 30 -207q25 -152 31 -244h70z" />
    <glyph glyph-name="E" unicode="(" horiz-adv-x="676" 
d="M123 588q0 -324 119 -557q67 -131 145 -219q80 -93 143 -150q23 -16 39 -16q17 2 29 12t12 18q0 17 -16 37q-150 150 -238 365q-94 213 -94 510q0 301 94 514q88 213 236 362q18 23 18 37q0 10 -12 21q-12 8 -29 8q-16 0 -39 -15q-63 -59 -137 -151q-76 -92 -133 -217
q-133 -246 -137 -559v0z" />
    <glyph glyph-name="F" unicode=")" horiz-adv-x="676" 
d="M553 588q-2 325 -119 557q-67 135 -143 225q-78 88 -146 145q-22 15 -39 15q-12 0 -26 -8q-14 -11 -14 -21q0 -18 16 -39q149 -149 242 -362q88 -213 90 -512q-2 -299 -90 -512q-91 -213 -240 -365q-18 -20 -18 -35q0 -8 14 -18t26 -12q17 0 39 16q66 60 142 154
q71 92 129 213q63 131 100 264t37 295v0z" />
    <glyph glyph-name="G" unicode="*" horiz-adv-x="672" 
d="M336 817q41 0 55 25q10 24 10 47q-2 33 -26 131q-25 98 -33 115l4 4q12 -15 84 -84q33 -33 61 -56q27 -24 33 -32q27 -15 56 -13q28 0 45 27q16 24 18 43q2 16 -4 25q-14 20 -39 28q-27 12 -129 41q-45 12 -80 23q-35 8 -41 8v4q21 2 119 31q45 12 80 22t45 15
q26 16 37 36q10 23 -11 56q-16 26 -40 32q-25 2 -50 -10q-24 -18 -96 -88q-74 -69 -88 -86l-4 4q8 19 33 117q12 45 20 84q6 37 6 47q2 66 -65 68q-68 -4 -66 -68q2 -29 31 -127q12 -45 23 -78q6 -35 6 -41l-4 -4l2 -2q0 8 -27 33q-25 22 -59 51q-33 33 -62 57
q-28 23 -39 27q-22 14 -49 14q-29 -2 -49 -34q-16 -31 -2 -54q12 -24 33 -34q30 -11 131 -35q45 -13 80 -21q34 -8 39 -12v-4q-21 -2 -117 -31q-45 -12 -80 -22q-35 -13 -47 -21q-14 -6 -31 -31q-18 -24 0 -63q19 -27 47 -29q27 -2 51 13q23 18 91 84q65 63 88 86h4
q-4 -19 -29 -117q-12 -45 -20 -80q-11 -39 -11 -49q0 -29 17 -47q16 -25 49 -25v0z" />
    <glyph glyph-name="H" unicode="+" 
d="M575 82v352h334v115h-334v352h-122v-352h-338v-115h338v-352h122z" />
    <glyph glyph-name="I" unicode="," horiz-adv-x="520" 
d="M236 236q-56 0 -84 -27q-31 -29 -31 -70q2 -73 51 -102q23 -14 41 -21q16 -8 25 -12q32 -14 34 -61q-2 -84 -53 -154t-92 -104q-21 -17 -18 -31q0 -19 24 -19q12 3 23 9q10 6 18 10q16 10 57 43q39 31 80 80q43 49 72 117q29 65 31 145q-2 98 -62 147q-57 50 -116 50v0z
" />
    <glyph glyph-name="J" unicode="-" horiz-adv-x="827" 
d="M106 498q-2 -15 19 -11h571q25 -2 25 15v78q0 22 -23 22h-573q-21 0 -19 -14v-90z" />
    <glyph glyph-name="K" unicode="." horiz-adv-x="520" 
d="M266 -25q51 2 82 33q33 29 33 80q0 59 -33 92q-35 31 -82 31q-74 -2 -100 -43q-29 -41 -27 -72q2 -69 47 -96q43 -25 80 -25v0z" />
    <glyph glyph-name="L" unicode="/" horiz-adv-x="717" 
d="M4 33q-10 -23 2 -27l70 -35q14 -8 26 17l613 1441q8 21 -8 29l-66 27q-18 6 -27 -13z" />
    <glyph glyph-name="M" unicode="0" horiz-adv-x="1089" 
d="M543 -25q207 5 329 140q123 129 125 309q-2 211 -129 334q-129 118 -315 121q-219 -5 -338 -140q-123 -135 -123 -317q4 -211 141 -326q134 -119 310 -121v0zM553 86q-117 0 -215 90q-107 90 -109 264q-2 107 74 217q72 113 240 117q118 -2 217 -92q96 -92 100 -246
q0 -147 -78 -246q-80 -102 -229 -104v0z" />
    <glyph glyph-name="N" unicode="1" horiz-adv-x="664" 
d="M260 451v-175q-2 -94 -8 -129q-10 -45 -39 -61q-29 -18 -70 -18h-55q-16 0 -16 -13v-49q0 -12 14 -12q104 4 256 6q141 -2 244 -6q14 0 14 16v45q0 11 -12 13h-76q-102 -2 -109 88q-2 88 -2 247v91q0 157 9 208q4 52 24 68q21 16 60 16h90q16 0 16 15v49q0 10 -18 10
q-99 -4 -240 -6q-139 4 -254 6q-16 0 -16 -14v-51q0 -9 10 -9h80q98 0 96 -79q2 -50 2 -168v-88z" />
    <glyph glyph-name="O" unicode="2" horiz-adv-x="872" 
d="M301 131v4q43 29 109 78q63 49 131 117q69 67 114 151t47 176q-2 70 -73 144q-74 75 -176 78q-43 0 -113 -27q-72 -29 -125 -82q-43 -45 -68 -92q-24 -47 -32 -86q-6 -37 22 -35q23 0 31 6t12 23q17 41 41 71q25 31 53 52q62 43 109 43q63 -2 113 -52q49 -49 51 -102
q2 -129 -86 -229q-92 -101 -340 -295q-31 -23 -31 -45q0 -29 33 -29h483q31 2 33 -27q2 -18 6 -24q2 -8 14 -8q23 -2 31 26q25 78 72 164q22 41 37 72q16 28 18 35q4 6 0 12l-24 18q-7 4 -11 -2q-37 -49 -78 -88q-12 -12 -36 -29q-25 -18 -64 -18h-303z" />
    <glyph glyph-name="P" unicode="3" horiz-adv-x="801" 
d="M211 -455q188 2 332 129q143 123 147 334q2 164 -233 301q30 31 65 68t64 78q63 84 65 211q-2 79 -61 145q-62 65 -174 68q-123 -3 -203 -70q-80 -70 -117 -148q-10 -16 -10 -34q0 -21 27 -21q20 -2 34 19q31 43 78 86q47 41 123 43q84 -2 129 -62q43 -57 43 -110
q0 -54 -22 -103q-25 -49 -64 -92q-84 -88 -170 -111q-26 -6 -26 -26q0 -21 22 -25q131 -22 199 -98q65 -80 65 -186q0 -86 -26 -148q-25 -61 -70 -100q-41 -37 -88 -55q-49 -19 -94 -19q-74 2 -111 39q-18 16 -39 31q-24 12 -49 12q-59 -2 -61 -53q0 -31 22 -49
q23 -19 55 -31q72 -23 148 -23v0z" />
    <glyph glyph-name="Q" unicode="4" horiz-adv-x="952" 
d="M911 0q27 0 27 27v61q0 25 -21 25h-235v329q0 113 6 234q4 121 10 164q6 26 -2 39q-6 8 -16 8q-21 0 -37 -29q-309 -416 -604 -807q-21 -18 -19 -33q-2 -18 31 -18h486v-352q0 -23 6 -31q4 -8 16 -8h100q21 0 23 29v362h229zM543 113h-367l363 483h4v-483z" />
    <glyph glyph-name="R" unicode="5" horiz-adv-x="741" 
d="M236 -457q149 2 274 127q127 121 131 320q-4 219 -129 332q-127 108 -291 131l49 256h291q41 0 55 41l54 182q2 8 -4 10l-23 6q-6 2 -8 -4q-10 -27 -37 -57q-29 -33 -92 -33h-258q-27 0 -31 -25l-94 -522q72 -10 139 -31q66 -20 119 -61q53 -39 86 -104q31 -68 31 -172
q-2 -148 -66 -230q-63 -80 -164 -82q-90 0 -127 31q-6 8 -28 23q-25 14 -54 14q-26 0 -43 -16q-18 -17 -18 -41q2 -52 76 -72q69 -23 162 -23v0z" />
    <glyph glyph-name="S" unicode="6" horiz-adv-x="1003" 
d="M487 -25q217 7 318 146q96 133 96 278q-2 150 -92 262q-94 113 -256 115q-82 0 -141 -26q-58 -25 -88 -64h-7q113 463 449 621q14 4 16 24q-2 27 -26 29q-27 -2 -52 -15q-167 -65 -370 -290q-94 -111 -156 -254q-65 -146 -65 -318q2 -241 108 -372q105 -134 266 -136v0z
M500 45q-88 -2 -154 80q-65 82 -67 305q-3 109 51 184q51 78 180 80q102 -2 162 -80q59 -77 59 -192q-8 -383 -231 -377v0z" />
    <glyph glyph-name="T" unicode="7" horiz-adv-x="819" 
d="M158 -549q28 0 49 31q20 33 49 119q43 121 152 356q104 238 129 287q116 241 299 575q18 33 -19 35h-514q-76 -4 -67 37q8 20 10 37q-6 14 -37 14q-12 0 -21 -25q-10 -22 -65 -133q-57 -108 -88 -164q-8 -14 -2 -24q2 -14 20 -14q25 -2 41 24q23 37 70 72q45 33 131 35
h391q-88 -166 -281 -543q-194 -377 -253 -504q-15 -28 -31 -71q-21 -46 -21 -84q0 -25 15 -41q12 -17 43 -19v0z" />
    <glyph glyph-name="U" unicode="8" horiz-adv-x="883" 
d="M432 -25q143 5 242 103q102 96 104 229q-4 133 -61 215q-58 80 -178 146q65 59 139 151q35 47 57 90q23 45 23 82q0 76 -29 131q-33 53 -80 86q-47 35 -100 49q-55 15 -105 15q-141 -4 -241 -111q-105 -104 -107 -229q0 -115 53 -182q54 -68 185 -138q-84 -59 -150 -135
q-30 -39 -49 -86q-20 -49 -20 -108q0 -146 90 -226q84 -80 227 -82v0zM436 1204q88 0 141 -65q52 -66 54 -179q0 -61 -45 -127q-45 -67 -117 -131v0q-55 31 -96 58q-43 24 -72 51q-59 53 -59 154q2 124 61 182q29 31 64 45q34 12 69 12v0zM432 47q-82 2 -141 86
q-64 80 -64 156q0 55 21 102q16 45 43 82q55 76 100 104v0q51 -22 94 -47q43 -22 78 -53q35 -29 53 -72q21 -43 21 -106q0 -131 -57 -193q-58 -59 -148 -59v0z" />
    <glyph glyph-name="V" unicode="9" horiz-adv-x="999" 
d="M246 -461q8 0 33 6q196 41 397 260q203 220 211 598q0 162 -88 314q-45 71 -117 116q-74 46 -174 46q-176 -5 -287 -132q-117 -124 -119 -296q4 -195 119 -287q53 -45 113 -68q59 -22 112 -22q78 2 150 37q35 16 59 32q27 17 33 29l4 -4q-100 -451 -438 -576
q-29 -6 -29 -26q0 -25 21 -27v0zM477 143q-57 -2 -129 60q-35 33 -57 88q-23 53 -27 133q0 65 10 135q13 70 39 125q27 57 76 92t119 35q102 -2 156 -78q51 -76 51 -201q2 -225 -45 -294q-25 -33 -70 -62q-49 -33 -123 -33v0z" />
    <glyph glyph-name="W" unicode=":" horiz-adv-x="520" 
d="M266 -25q51 2 82 33q33 29 33 80q0 59 -33 92q-35 31 -82 31q-74 -2 -100 -43q-29 -41 -27 -72q2 -69 47 -96q43 -25 80 -25v0zM266 643q51 0 82 33q33 28 33 80q0 59 -33 92q-35 31 -82 31q-74 -3 -100 -43q-29 -41 -27 -72q2 -70 47 -96q43 -27 80 -25v0z" />
    <glyph glyph-name="X" unicode=";" horiz-adv-x="520" 
d="M236 236q-56 0 -84 -27q-31 -29 -31 -70q2 -73 51 -102q23 -14 41 -21q16 -8 25 -12q32 -14 34 -61q-2 -84 -53 -154t-92 -104q-21 -17 -18 -31q0 -19 24 -19q12 3 23 9q10 6 18 10q16 10 57 43q39 31 80 80q43 49 72 117q29 65 31 145q-2 98 -62 147q-57 50 -116 50v0z
M236 643q51 0 81 33q33 28 33 80q0 59 -33 92q-34 31 -81 31q-72 -3 -99 -43q-28 -41 -28 -72q2 -70 47 -96q43 -27 80 -25v0z" />
    <glyph glyph-name="Y" unicode="&#x3c;" 
d="M809 82v0v139l-453 273v10l453 262v135v0l-637 -375v-65z" />
    <glyph glyph-name="Z" unicode="=" 
d="M115 711v-115h794v115h-794zM115 401v-114h794v114h-794z" />
    <glyph glyph-name="bracketleft" unicode="&#x3e;" 
d="M215 901v0v-139l453 -273v-10l-453 -262v-135v0l637 375v65z" />
    <glyph glyph-name="backslash" unicode="?" horiz-adv-x="758" 
d="M295 594q-2 16 16 16q47 2 111 8q63 7 123 27q61 21 102 74q39 51 39 145q-2 96 -49 191q-51 94 -127 172q-76 77 -158 125q-82 47 -147 47q-31 0 -49 -11q-19 -10 -31 -22q-21 -31 -19 -47q0 -41 43 -70q39 -31 103 -31q61 0 115 -16q49 -18 122 -82q45 -33 78 -78
t33 -106q-4 -94 -82 -129q-35 -19 -70 -25q-36 -8 -63 -8q-61 -2 -135 6q-23 10 -23 -18v-387q0 -15 15 -15h39q14 0 14 15v219zM279 -25q55 2 86 35q30 33 30 74q0 47 -33 80q-34 28 -79 31q-54 -3 -82 -31q-33 -31 -33 -82q0 -47 35 -76q33 -29 76 -31v0z" />
    <glyph glyph-name="bracketright" unicode="@" horiz-adv-x="1610" 
d="M545 518q0 70 43 166q39 94 100 186q64 95 135 156q70 61 133 63q41 -2 64 -30q22 -33 22 -78q0 -51 -55 -160q-33 -65 -160 -209q-59 -63 -120 -108q-62 -51 -113 -51q-49 0 -49 65v0zM1120 133v0q-86 -53 -186 -67q-103 -17 -203 -17q-223 2 -366 137
q-148 136 -150 385q4 314 217 568q207 260 528 268q435 0 443 -451q-6 -260 -125 -387q-117 -129 -211 -129q-59 0 -59 41q0 25 12 66q10 39 22 80q31 88 52 137q14 37 69 168q53 127 80 178q10 18 -10 20h-78q-10 0 -20 -14l-27 -39q-8 25 -35 47q-29 23 -90 25
q-90 -2 -190 -66q-101 -63 -189 -166q-88 -100 -143 -217q-60 -114 -60 -221q0 -57 35 -88q31 -31 70 -31q59 0 123 35q61 33 121 82q118 105 184 199l8 -4q-39 -105 -55 -162q-17 -62 -17 -82q0 -25 25 -45q22 -23 51 -23q277 7 428 189q152 174 154 385q-2 534 -545 547
q-358 -7 -631 -285q-280 -274 -289 -653q0 -256 170 -412q166 -160 467 -162q150 2 273 37q125 33 174 76z" />
    <glyph glyph-name="asciicircum" unicode="A" horiz-adv-x="1522" 
d="M952 569q13 -30 31 -88q20 -57 39 -123q43 -139 59 -206q23 -80 -61 -78h-51q-19 0 -19 -15v-47q0 -18 17 -18q53 4 288 6q123 0 174 -2q50 -4 72 -4q21 0 21 14v51q0 15 -17 15h-67q-82 -2 -140 92q-26 63 -96 264q-33 94 -61 184q-31 93 -52 152q-118 360 -237 719
q-6 35 -23 35q-12 -3 -26 -19q-19 -24 -72 -57q-51 -33 -98 -45q-21 -9 -19 -19q0 -12 15 -26q12 -17 8 -35q-4 -19 -10 -35q-103 -279 -199 -537q-145 -391 -223 -579q-21 -49 -47 -70q-27 -24 -72 -24h-72q-14 0 -16 -15v-49q0 -16 14 -16q21 4 224 6q92 0 153 -2
q59 -4 80 -4q16 0 16 18v47q0 15 -20 15h-96q-70 0 -70 45q0 20 6 45q14 49 70 201q24 69 47 126q20 58 26 78h504zM475 643q25 70 113 311q88 242 106 291q10 29 23 31q8 -2 16 -29q92 -278 195 -604h-453z" />
    <glyph glyph-name="underscore" unicode="B" horiz-adv-x="1352" 
d="M283 649q0 -135 -2 -287q-2 -151 -9 -198q-2 -25 -6 -39q-2 -19 -12 -31q-16 -20 -64 -20h-98q-20 0 -18 -15v-53q-2 -12 28 -12q84 4 263 6q112 -2 307 -6q272 0 391 74q72 49 117 139q41 88 41 168q-3 162 -91 260t-241 145l-6 4q61 33 108 64q47 26 78 63t49 88
q14 50 14 123q5 182 -157 279q-115 57 -363 55q-135 -4 -260 -6q-221 4 -272 6q-17 0 -17 -14v-52q0 -14 17 -14h63q70 2 101 -16q30 -21 32 -107q5 -151 7 -362v-242zM463 741h65q72 0 144 -4q69 -6 131 -30q198 -72 205 -322q-3 -178 -99 -254q-96 -74 -231 -72
q-123 0 -170 68q-47 63 -45 205v282v127zM463 962q0 291 4 390q0 28 29 36q24 2 67 2q164 3 281 -69q57 -41 80 -98q20 -58 20 -117q0 -68 -25 -131q-26 -66 -90 -115q-77 -53 -258 -53q-51 0 -108 4v151z" />
    <glyph glyph-name="grave" unicode="C" horiz-adv-x="1528" 
d="M836 -31q219 4 368 107q150 100 242 237q8 15 -4 19l-27 20q-8 10 -16 -6q-72 -102 -201 -178q-129 -80 -305 -82q-100 -2 -195 29q-94 30 -198 143q-117 137 -158 287q-41 145 -39 239q-2 236 119 426q121 193 393 199q121 0 209 -45q84 -43 147 -113q64 -65 103 -133
q37 -67 57 -121q8 -22 21 -16l30 8q13 4 8 21q-8 59 -28 206q-23 148 -23 191q0 20 -2 29q-6 4 -20 4q-25 2 -27 -13l-16 -59q-4 -23 -41 0q-55 37 -162 74q-109 37 -252 39q-168 -2 -299 -60q-133 -61 -213 -147q-213 -246 -209 -543q0 -151 56 -307q55 -158 163 -266
q91 -84 215 -135q125 -52 304 -54v0z" />
    <glyph glyph-name="a" unicode="D" horiz-adv-x="1665" 
d="M293 786q0 -141 -4 -372q0 -109 -4 -189q-2 -82 -6 -102q-3 -25 -19 -37t-47 -12h-137q-17 0 -17 -13v-53q0 -14 15 -14q32 4 288 6q162 -2 377 -6q62 0 142 4q77 4 163 25q179 32 332 188q203 203 203 539q-8 354 -227 522q-136 114 -301 151q-166 35 -365 33
q-147 -4 -305 -6q-137 0 -209 4q-72 2 -92 2q-14 0 -14 -10v-56q0 -16 16 -14h113q43 0 63 -10q23 -10 25 -47q4 -41 8 -182q2 -142 2 -197v-154zM481 887q0 153 2 387q0 67 39 96q31 16 80 18t84 2q348 -6 514 -196q162 -189 168 -453q-6 -290 -150 -460
q-159 -215 -481 -222q-78 0 -133 19q-59 16 -84 47q-37 57 -35 115q-4 325 -4 501v146z" />
    <glyph glyph-name="b" unicode="E" horiz-adv-x="1413" 
d="M487 1384l365 -8q88 -8 156 -55q20 -10 55 -45q31 -35 65 -78q74 -94 84 -111q6 -8 17 -6l30 17q11 6 7 18q-52 160 -105 330q-2 10 -16 10q-25 -4 -82 -4q-303 -2 -608 -2h-90q-193 4 -252 6q-15 0 -15 -10v-56q0 -16 17 -14h73q58 0 80 -14q13 -8 19 -25q4 -16 6 -41
q4 -24 6 -166v-280v-201v-485q0 -53 -14 -72q-19 -20 -88 -18h-82q-21 0 -21 -11v-55q0 -14 19 -14q43 4 262 6q469 0 643 -2q172 -4 176 -4q37 2 45 31l108 301q11 22 -4 28l-32 19q-17 6 -25 -13q-27 -41 -84 -116q-59 -76 -84 -99q-43 -32 -94 -49q-53 -18 -84 -22
q-96 -6 -180 -6t-152 14q-47 8 -80 45q-32 37 -37 115q-4 123 -4 350v127q88 0 271 -10q41 -2 61 -25q19 -20 27 -55q12 -45 22 -97q2 -20 17 -18l45 6q12 2 12 17q-10 86 -12 213q0 32 2 116q0 21 4 39v33v45q4 14 -12 16l-52 2q-14 0 -14 -14q-4 -63 -16 -100
q-17 -84 -95 -90q-30 -2 -131 -7q-104 -6 -129 -6v600z" />
    <glyph glyph-name="c" unicode="F" horiz-adv-x="1225" 
d="M287 770q0 -559 -8 -651q2 -47 -72 -45h-92q-15 0 -15 -11v-55q0 -14 13 -14q36 4 268 6q131 0 199 -2q65 -4 79 -4q17 0 17 16v51q0 13 -19 13h-100q-49 0 -63 14q-17 12 -17 51q-2 195 -2 436v76q92 2 279 -12q65 -8 84 -80q14 -55 22 -100q2 -17 14 -15l39 9
q15 2 15 16q-11 82 -11 213q0 31 2 117q0 84 3 116q0 15 -13 15l-41 2q-12 0 -14 -15q-10 -61 -21 -100q-12 -45 -32 -63q-25 -21 -58 -27q-30 -2 -131 -6q-104 -4 -137 -4v102q0 356 2 563q64 0 225 -2q74 -2 134 -6q59 -4 79 -10q90 -23 144 -96q96 -129 131 -189
q8 -18 16 -14l37 14q6 2 4 15q-47 196 -82 364q-16 -2 -129 -2q-114 -4 -262 -4q-326 -2 -395 -2q-146 0 -215 4q-68 0 -84 2q-14 0 -14 -12v-56q0 -12 14 -12h119q84 0 84 -59q2 -152 4 -404v-143z" />
    <glyph glyph-name="d" unicode="G" horiz-adv-x="1675" 
d="M1255 301q0 -78 -8 -119q-10 -41 -47 -61q-51 -31 -131 -49q-82 -21 -205 -21q-203 0 -360 146q-195 196 -195 573q4 287 180 471q93 98 191 133q96 33 201 33q139 -2 233 -53q92 -54 139 -115q56 -66 84 -131q27 -66 39 -111q4 -16 17 -16l36 4q11 0 11 18l-7 392
q0 22 -18 24q-16 -2 -29 -18l-30 -37q-17 -27 -47 -2q-54 43 -160 80q-109 37 -244 39q-362 -2 -575 -195q-232 -221 -232 -520q0 -361 189 -563q112 -121 272 -176q160 -58 301 -58q328 2 559 131q33 11 33 33q-6 25 -8 66v270q0 49 20 65q17 13 43 13h80q14 0 14 16v49
q0 15 -16 15q-31 -4 -242 -7q-213 5 -260 7q-14 0 -12 -17v-51q0 -12 14 -12h86q86 4 84 -94v-152z" />
    <glyph glyph-name="e" unicode="H" horiz-adv-x="1747" 
d="M274 719q-2 -242 -6 -547q0 -39 -8 -68q-10 -30 -49 -30h-121q-14 0 -14 -13v-53q0 -14 14 -14q45 4 285 6q108 0 172 -2q59 -4 86 -4q16 0 16 14v51q0 15 -16 15h-101q-63 -2 -65 69q-4 324 -4 514v43q-2 21 28 21h750q29 0 37 -2q8 -4 8 -23v-28q-2 -234 -6 -500
q0 -41 -8 -66q-11 -28 -47 -28h-129q-17 0 -17 -15v-51q0 -12 13 -14q65 4 305 6q112 0 172 -2q59 -4 86 -4q16 0 16 16v49q0 15 -18 15h-90q-84 -2 -82 102q-7 324 -7 571v70q3 260 5 451q-2 55 12 84q12 24 53 24h92q17 -2 17 14v50q0 16 -17 16q-55 -4 -262 -6
q-207 4 -270 6q-15 0 -12 -12v-54q0 -14 14 -14h106q45 0 58 -26q10 -29 10 -78q4 -144 6 -426v-21q0 -32 -41 -30h-758q-26 0 -24 16v35q2 272 4 413q0 62 16 91q15 26 64 26h104q17 0 17 17v53q0 10 -21 10q-45 -4 -272 -6q-133 0 -195 4q-63 2 -92 2q-16 0 -16 -14v-49
q-2 -17 12 -17h96q58 0 76 -26q14 -29 14 -107q2 -147 4 -436v-88z" />
    <glyph glyph-name="f" unicode="I" horiz-adv-x="760" 
d="M287 715q0 -103 -2 -318q-4 -217 -9 -264q-6 -39 -32 -49q-27 -10 -60 -10h-114q-17 0 -17 -13v-55q0 -12 17 -12q24 4 305 6q135 0 200 -2q68 -4 84 -4q19 0 19 12v53q0 15 -17 15h-84q-47 0 -71 14q-25 14 -25 59q-4 261 -6 517v157q4 252 6 498q0 31 23 45
q18 12 49 12h96q17 0 17 14v52q0 14 -15 14q-22 -4 -276 -6q-142 0 -221 4q-80 2 -99 2q-14 0 -14 -12v-56q0 -12 16 -12h119q57 0 80 -14q20 -19 23 -55q6 -211 8 -449v-143z" />
    <glyph glyph-name="g" unicode="J" horiz-adv-x="680" 
d="M258 680q2 -139 6 -444q0 -142 -6 -265q-8 -123 -29 -182q-39 -104 -112 -129q-17 49 -62 80q-45 29 -98 29q-49 0 -82 -25q-31 -27 -33 -74q4 -65 58 -92q49 -26 82 -26q118 2 219 86q100 81 161 192q80 147 76 342q4 94 8 508v94q0 432 7 543q-2 59 75 59h103
q16 0 16 17v51q0 12 -16 12q-31 -4 -277 -6q-143 0 -209 4q-67 2 -84 2q-16 0 -14 -14v-56q0 -10 14 -10h91q59 0 81 -16q21 -19 19 -53q6 -283 6 -484v-143z" />
    <glyph glyph-name="h" unicode="K" horiz-adv-x="1458" 
d="M274 756v-410v-160q-2 -65 -6 -75q-2 -35 -55 -37h-84q-14 0 -14 -13v-53q0 -14 14 -14q16 4 246 6q108 0 162 -2q53 -4 69 -4q12 2 12 14v53q0 13 -16 13h-90q-41 0 -47 45q-6 162 -6 432v147h39q43 2 90 -30q14 -9 76 -86q59 -78 133 -177q75 -98 133 -178
q57 -80 65 -100q10 -16 4 -33q-8 -22 -37 -22h-30q-13 0 -13 -13v-53q0 -12 13 -12q33 4 278 6q117 0 176 -2q62 -4 76 -4q17 0 17 14v51q0 15 -15 15h-71q-37 0 -76 10q-39 12 -68 41q-274 340 -549 680q82 104 246 291q76 86 139 153q64 68 93 88q28 23 61 31q29 8 51 8
h43q17 0 17 14v56q0 10 -15 10q-51 -4 -155 -6q-154 4 -203 6q-12 0 -12 -14v-47q0 -15 10 -15h28q43 -2 19 -49q-33 -47 -209 -268q-80 -98 -145 -178q-31 -37 -54 -64q-24 -24 -34 -33q-39 -28 -84 -28h-37v102q4 279 6 451q0 37 14 51q12 12 43 12h86q15 0 15 14v54
q0 12 -17 12q-33 -4 -231 -6q-113 0 -166 4q-57 2 -74 2q-16 0 -16 -12v-54q0 -14 16 -14h72q39 0 51 -14q10 -17 10 -35q4 -211 6 -453v-118z" />
    <glyph glyph-name="i" unicode="L" horiz-adv-x="1356" 
d="M287 803q-4 -402 -6 -674q0 -20 -15 -37q-16 -18 -74 -18h-98q-16 0 -14 -15v-51q-2 -14 16 -14q31 4 262 6h496q299 -2 367 -6l22 88q6 31 16 65q9 35 15 68q39 158 47 186q4 17 -4 19l-33 12q-10 6 -16 -8q-25 -72 -101 -195q-37 -57 -80 -98q-45 -41 -92 -51
q-67 -4 -262 -4q-196 0 -252 4q-8 317 -6 561v176q4 328 6 479q-2 45 13 64q14 16 59 16h123q20 0 20 17v47q2 16 -18 16q-17 -4 -303 -6q-125 0 -187 4q-63 2 -79 2q-17 0 -15 -14v-45q-2 -21 15 -21h96q45 0 61 -16q15 -19 15 -58q4 -120 6 -385v-114z" />
    <glyph glyph-name="j" unicode="M" horiz-adv-x="2009" 
d="M543 1421q-11 35 -54 35q-32 -4 -174 -6q-239 4 -249 6q-17 -2 -15 -12v-54q-2 -14 15 -14h124q33 0 52 -2q16 -6 22 -16q12 -21 10 -58q2 -221 2 -397q0 -53 -4 -311q-8 -258 -26 -395q-6 -54 -29 -86q-22 -37 -80 -37h-108q-15 -2 -13 -13v-49q-2 -18 19 -18
q16 4 264 6q235 -2 248 -6q20 2 18 14v51q0 15 -14 15h-103q-47 -2 -65 32q-21 33 -29 117q-2 80 -2 285q-2 203 -2 244q0 49 4 286q4 105 6 189q0 84 2 96q15 -12 50 -86q34 -74 75 -176q93 -219 129 -316q144 -350 279 -686q6 -14 16 -24q6 -12 15 -12q12 0 24 18
q10 16 17 31q120 278 247 565q27 55 158 346q61 131 109 231q47 101 55 115h4q4 -8 6 -68v-147v-303v-131v-313v-146q0 -61 -4 -74q-2 -45 -14 -59q-15 -14 -43 -14h-140q-18 0 -16 -15v-47q-2 -18 16 -18q27 4 295 6q295 -2 287 -6q21 0 18 18v47q0 15 -14 15h-121
q-71 -2 -69 110q-4 193 -6 475v144q4 303 6 489q-2 37 12 62q10 22 55 22h90q17 0 17 19v47q0 14 -13 14q7 -4 -364 -6q-16 0 -29 -2q-14 -4 -18 -23q-2 -18 -37 -96q-35 -80 -80 -182q-45 -98 -80 -176q-39 -80 -47 -97q-6 -12 -39 -90q-35 -77 -80 -180q-45 -98 -79 -180
q-37 -80 -52 -96z" />
    <glyph glyph-name="k" unicode="N" horiz-adv-x="1628" 
d="M276 836q0 -564 -8 -637q-6 -72 -26 -99q-21 -28 -66 -26h-70q-14 -2 -12 -13v-53q0 -14 10 -14q86 4 205 6q49 0 115 -2q63 -4 84 -4q16 0 16 16v45q0 19 -16 19h-62q-73 0 -75 118q-17 170 -21 566v454h12q33 -39 203 -252q78 -96 139 -170q62 -73 70 -88
q14 -14 105 -125q90 -112 200 -253q101 -125 174 -215q72 -93 76 -101q6 -8 18 -18q13 -13 31 -15q10 2 10 50v765q-2 234 9 474q2 112 80 112h55q12 0 12 14v52q0 14 -16 14q-27 -4 -199 -6q-98 0 -149 4q-56 2 -76 2q-12 0 -12 -12v-54q0 -14 12 -14h65q88 -2 113 -80
q10 -35 18 -139q7 -106 7 -176q6 -133 6 -385v-244h-9q-229 287 -417 518q-223 291 -430 557q-23 27 -60 27q-35 -4 -137 -4t-145 4q-43 0 -58 2q-14 0 -12 -12v-54q-2 -14 12 -14l84 -2q58 0 97 -49q38 -49 38 -141v-348z" />
    <glyph glyph-name="l" unicode="O" horiz-adv-x="1681" 
d="M840 -31q211 2 356 84q143 80 233 205q156 219 154 449q-2 210 -84 364q-80 154 -197 248q-120 98 -239 133q-121 29 -219 29q-129 2 -273 -48q-145 -51 -282 -212q-113 -144 -154 -279q-39 -133 -37 -231q2 -226 97 -381q92 -158 204 -228q127 -71 246 -102
q117 -31 195 -31v0zM856 47q-66 0 -158 39t-180 125t-147 227q-64 139 -64 338q0 129 53 268q50 136 152 238q59 55 113 82q53 26 96 35q45 8 76 8q28 -4 39 -4q184 -2 360 -187q180 -186 186 -526q0 -70 -16 -174q-21 -106 -76 -213q-53 -106 -160 -178q-106 -76 -274 -78
v0z" />
    <glyph glyph-name="m" unicode="P" horiz-adv-x="1243" 
d="M461 649q104 -10 223 -10q512 8 520 418q-4 186 -155 297q-82 61 -183 84q-102 18 -274 18q-135 -4 -225 -6q-275 4 -291 6q-15 0 -13 -14v-49q-2 -17 13 -17h116q44 0 60 -6q18 -8 20 -39q4 -22 4 -145v-234v-235q0 -191 -2 -369v-141q-2 -58 -6 -68q-2 -39 -18 -51
q-21 -14 -72 -14h-88q-14 0 -12 -15v-51q-2 -12 16 -14q23 4 283 6q143 0 205 -2q61 -4 79 -4q21 0 19 16v49q0 15 -16 15h-132q-63 0 -67 65q-4 152 -4 404v106zM461 1376q35 12 84 14h75q48 0 111 -14q31 -6 62 -18q30 -15 59 -35q59 -37 100 -105q39 -67 39 -167
q0 -54 -8 -107q-12 -53 -45 -100q-41 -56 -117 -94q-76 -46 -172 -46q-123 0 -188 19v653z" />
    <glyph glyph-name="n" unicode="Q" horiz-adv-x="1669" 
d="M823 1481q-86 4 -223 -41q-141 -50 -266 -156q-234 -223 -236 -534q8 -371 199 -541q145 -146 264 -191q55 -24 96 -36q37 -13 54 -19q452 -207 786 -293q264 -65 385 -82q121 -14 162 -14q90 4 172 74q41 33 67 57l35 35q12 10 6 20l-14 21q-8 10 -18 -2
q-19 -12 -50 -27q-34 -16 -77 -18q-15 -2 -138 6q-122 8 -499 88q-209 39 -525 149v9q185 53 357 221q200 196 211 538q10 287 -197 516q-190 213 -551 220v0zM842 35q-41 -2 -121 26q-39 19 -88 52q-49 30 -109 84q-78 73 -145 219q-72 145 -74 350q0 133 41 268
q39 135 137 240q45 43 88 71q43 27 84 39q84 23 156 23q209 0 379 -174q172 -168 176 -551q0 -68 -23 -172q-22 -107 -84 -215q-57 -109 -159 -182q-103 -76 -258 -78v0z" />
    <glyph glyph-name="o" unicode="R" horiz-adv-x="1427" 
d="M285 733q0 -289 -4 -590q-5 -73 -80 -69h-84q-13 0 -11 -17v-47q-2 -16 17 -16q6 4 256 6q264 -2 268 -6q14 0 21 6q2 4 2 12v45q0 17 -17 17h-129q-22 0 -35 24q-6 13 -8 27q-6 12 -8 29q-4 122 -4 380v115q41 6 68 6q88 0 137 -32q47 -35 84 -86q24 -29 71 -99
q50 -71 60 -92q16 -22 67 -113q52 -94 70 -122q16 -23 43 -60q27 -39 43 -57q61 6 166 6q67 0 108 -2q39 -4 52 -4q16 0 16 18v45q0 15 -16 17q-84 -4 -148 35q-35 32 -100 122q-64 88 -80 113q-18 33 -88 133q-31 45 -60 84q-28 35 -38 45q-13 19 -33 41q-25 23 -62 37v4
q197 39 289 131q90 92 90 279q-2 125 -106 233q-123 121 -383 125q-113 -4 -342 -6q-242 4 -254 6q-14 0 -12 -14v-52q-2 -14 12 -14h82q76 0 78 -102q2 -103 2 -342v-199zM469 1309q0 49 25 65q30 16 69 16q127 0 205 -20q78 -25 135 -74q98 -82 102 -233q0 -33 -14 -86
q-16 -58 -65 -115q-47 -57 -136 -98q-88 -43 -229 -43q-51 0 -92 8v580z" />
    <glyph glyph-name="p" unicode="S" horiz-adv-x="1122" 
d="M598 -31q203 4 311 135q107 127 107 314q0 100 -25 168q-24 65 -65 110q-56 66 -140 105q-82 35 -190 65q-47 17 -115 47q-69 33 -119 76q-36 41 -49 88q-14 47 -14 90q-2 84 57 160q58 78 191 80q143 0 223 -88q63 -64 90 -123q27 -57 37 -104q4 -9 12 -7l25 7
q10 2 10 16q-2 43 -12 153q-17 111 -17 172q0 33 -16 35q-12 0 -27 -12l-26 -25q-13 -16 -39 -2q-25 15 -88 33q-64 17 -154 19q-170 2 -286 -99q-48 -43 -87 -112q-40 -72 -40 -150q0 -201 102 -299q72 -67 160 -106q88 -41 139 -60q61 -20 121 -47q57 -26 100 -67
q45 -39 70 -95q24 -57 24 -137q0 -67 -24 -117q-27 -49 -68 -79q-88 -64 -186 -64q-84 0 -160 41q-78 41 -127 111q-47 78 -59 135q-13 55 -15 102q0 17 -12 17l-31 2q-12 2 -14 -13q-4 -55 -14 -186q-13 -131 -21 -184q-2 -33 19 -33q20 -2 36 25q17 32 33 34q13 0 47 -24
q62 -47 142 -76q77 -29 184 -31v0z" />
    <glyph glyph-name="q" unicode="T" horiz-adv-x="1438" 
d="M608 850v-354v-238q-2 -106 -6 -135q-4 -47 -68 -49h-139q-16 0 -14 -21v-39q-2 -18 18 -20q31 4 312 6q278 -2 286 -6q23 0 21 16v43q2 21 -21 21h-129q-67 0 -69 82v321q-2 260 -2 316v583h57q84 0 192 -4q54 -4 97 -10q43 -8 65 -21q27 -12 51 -41q25 -30 43 -69
q21 -37 33 -70t19 -49q6 -18 16 -14l33 8q16 2 12 16q-39 234 -59 369q-4 35 -19 33q-10 0 -24 -9l-39 -24q-45 -29 -107 -29q-112 -10 -411 -12h-99q-256 2 -387 12q-75 0 -116 35l-27 18q-10 9 -25 9q-12 2 -20 -33q-6 -29 -41 -160t-55 -201q-4 -16 8 -16l37 -10
q14 -4 20 10q23 55 68 133q24 37 53 66q29 28 61 39q68 18 170 22q99 2 154 2h51v-526z" />
    <glyph glyph-name="r" unicode="U" horiz-adv-x="1528" 
d="M758 -31q264 2 385 123q164 146 172 395q10 273 10 467q0 39 2 174q0 62 2 109v57q4 21 21 51q14 29 67 31h84q12 0 12 21v45q2 12 -20 14q-21 -4 -225 -6q-103 0 -168 4q-68 2 -84 2q-17 0 -15 -14v-49q-2 -17 15 -17h90q82 -2 92 -90q10 -84 10 -326v-438
q2 -229 -106 -360q-53 -56 -135 -82q-82 -31 -172 -31q-91 0 -179 33t-147 115q-33 53 -49 122q-15 66 -17 138q-8 184 -10 434v135q0 199 4 266q8 80 99 84h102q16 0 16 14v54q2 12 -18 12q-37 -4 -281 -6q-118 0 -190 4q-74 2 -90 2q-21 0 -19 -16v-45q-2 -21 15 -19h96
q82 0 78 -104v-488q-2 -381 33 -497q43 -193 243 -275q109 -43 277 -43v0z" />
    <glyph glyph-name="s" unicode="V" horiz-adv-x="1446" 
d="M57 1390q0 -14 11 -14h53q59 0 84 -67q24 -58 80 -220q53 -161 92 -284l20 -70q101 -278 258 -729q9 -18 17 -33q6 -12 18 -14q17 2 29 27q8 14 49 116q43 101 96 236q121 299 154 387q35 86 121 295q41 94 75 174q35 76 56 102q30 37 63 60q33 20 82 20h55q15 0 15 14
v52q0 14 -15 14q-10 -4 -219 -6q-96 0 -159 4q-66 2 -82 2q-15 0 -13 -14v-47q0 -19 11 -19h53q39 0 53 -12q12 -17 12 -35q-2 -41 -28 -117q-25 -77 -68 -200q-43 -127 -61 -181q-90 -245 -219 -565h-5q-112 314 -190 555q-31 96 -70 234q-18 65 -32 118q-17 52 -23 80
q-8 45 -8 70q0 53 86 53h98q17 0 17 19v47q2 14 -21 14q-27 -4 -283 -6q-116 0 -174 4q-59 2 -73 2q-17 0 -15 -14v-52z" />
    <glyph glyph-name="t" unicode="W" horiz-adv-x="2140" 
d="M358 1302q-18 72 60 74h35q16 0 16 17v51q0 10 -16 12q-31 -4 -252 -6q-103 0 -154 4q-53 2 -65 2q-17 0 -17 -14v-49q0 -17 12 -17h70q31 0 51 -14q23 -17 37 -60l457 -1310q12 -33 37 -33q26 2 41 39q10 18 67 180q58 162 133 375q168 473 203 575h4l379 -1124
q12 -43 45 -45q19 2 29 21q8 16 14 32q57 146 254 682q88 242 156 426q67 184 75 201q29 53 82 55h49q17 0 15 14v52q0 14 -15 14q-20 -4 -190 -6q-94 0 -147 4q-56 2 -72 2q-19 0 -16 -14v-47q-3 -19 14 -19h55q43 0 57 -18q15 -19 15 -45q-2 -49 -45 -203
q-45 -154 -105 -338q-59 -184 -108 -330q-49 -145 -62 -176h-4l-319 1028q-8 29 6 56q14 26 51 26h82q14 0 14 14v52q0 14 -14 14q-20 -4 -270 -6q-119 0 -176 4q-60 2 -74 2q-16 0 -14 -14v-49q-2 -17 12 -17h51q55 0 82 -39q16 -18 25 -39q10 -22 6 -37q-6 -36 -52 -184
q-47 -149 -108 -332q-61 -180 -107 -319q-20 -66 -36 -107q-15 -43 -19 -53h-4z" />
    <glyph glyph-name="u" unicode="X" horiz-adv-x="1427" 
d="M469 61q0 11 -16 13h-80q-74 2 -39 92q24 45 145 221t191 277v0q49 -68 182 -285q59 -98 104 -174t52 -92q16 -39 -50 -39h-79q-15 0 -13 -15v-51q-2 -12 17 -14q32 4 288 6q248 -2 260 -6q17 2 17 16v49q0 15 -17 15h-67q-62 -2 -135 55q-11 14 -72 111q-63 94 -145 219
q-80 125 -146 225q-63 100 -80 117q76 102 238 305q76 94 133 164q57 67 72 80q14 10 35 20q18 6 51 6h86q12 -2 12 19v47q0 12 -16 14q-35 -4 -207 -6q-182 4 -223 6q-17 0 -15 -14v-47q-2 -19 13 -19h43q38 -2 51 -24q8 -27 -10 -60q-27 -43 -140 -198
q-114 -158 -170 -230v0q-47 70 -139 223q-41 74 -74 127q-32 56 -43 66q-8 18 -12 37q-6 16 0 28q6 29 72 31h71q21 0 19 19v47q0 12 -17 14q-14 -4 -309 -6q-131 0 -203 4q-73 2 -88 2q-10 0 -10 -16v-47q0 -17 10 -17h90q62 -2 93 -31q20 -18 80 -98q57 -82 126 -186
q154 -228 222 -332q-82 -104 -222 -301q-139 -197 -243 -295q-31 -24 -60 -41q-30 -18 -57 -18h-80q-12 0 -12 -15v-47q0 -16 12 -18q35 4 221 6q125 0 189 -2q63 -4 78 -4q16 0 16 18v49z" />
    <glyph glyph-name="v" unicode="Y" horiz-adv-x="1362" 
d="M756 649q77 115 258 371q84 117 147 207q64 90 80 104q53 45 100 45h52q16 0 16 19v49q0 12 -16 12q-15 -4 -185 -6q-102 0 -164 4q-61 2 -77 2q-17 0 -15 -12v-49q-2 -19 15 -19h55q61 -2 72 -24q6 -27 -5 -56q-4 -14 -49 -88q-47 -71 -110 -170q-137 -213 -211 -323v0
q-60 112 -178 329q-56 101 -95 177q-41 73 -47 88q-8 36 6 53q11 14 56 14h67q15 0 15 19v51q0 10 -15 10q-10 -4 -305 -6q-198 4 -239 6q-15 0 -15 -12v-54q0 -14 15 -14h51q57 -2 106 -49q27 -29 90 -129q64 -102 138 -227q161 -275 198 -346v-119q-2 -311 -6 -381
q0 -23 -14 -35q-19 -16 -58 -16h-100q-16 0 -14 -15v-49q0 -16 12 -16q14 4 270 6q129 0 195 -2q65 -4 82 -4q16 0 14 18v47q2 15 -14 15h-80q-39 -2 -61 12q-11 8 -17 23q-8 12 -12 36q-8 76 -8 236v268z" />
    <glyph glyph-name="w" unicode="Z" horiz-adv-x="1438" 
d="M559 0q379 0 633 -23q39 -6 51 -8q18 0 27 23q18 55 69 180t76 174q6 12 -4 19l-29 16q-10 6 -18 -4q-27 -35 -123 -146q-43 -51 -88 -92q-43 -45 -76 -65h-721q84 123 492 678q405 555 487 661q35 47 -14 49q-107 0 -217 -6q-111 -6 -221 -6q-136 0 -303 2
q-168 2 -252 10q-27 4 -41 4q-15 0 -25 -22l-129 -369q-6 -14 4 -18l27 -13q10 -8 18 2q39 60 125 166q41 52 76 88q33 39 49 52q41 32 82 32h555q-10 -18 -139 -198q-131 -183 -310 -428q-391 -539 -520 -703q-14 -18 -12 -39q0 -12 14 -14q13 -2 25 -2h432z" />
    <glyph glyph-name="x" unicode="[" horiz-adv-x="725" 
d="M207 1530q-21 0 -21 -19v-1843q0 -22 23 -22h432q18 0 18 16v43q0 19 -16 19h-303q-16 0 -14 28v1677q0 23 20 23h277q16 0 16 16v49q0 11 -12 13h-420z" />
    <glyph glyph-name="y" unicode="\" horiz-adv-x="717" 
d="M709 0q12 2 4 25l-607 1449q-6 15 -20 11l-78 -33q-10 -4 -4 -21l604 -1437q15 -33 25 -25z" />
    <glyph glyph-name="z" unicode="]" horiz-adv-x="725" 
d="M516 -354q23 0 23 22v1843q0 19 -21 19h-420q-12 -2 -12 -13v-49q0 -16 16 -16h279q18 0 18 -23v-1681q0 -24 -12 -24h-305q-19 0 -16 -19v-43q0 -16 18 -16h432z" />
    <glyph glyph-name="braceleft" unicode="^" 
d="M47 532h127l326 672h10l336 -672h133l-434 867h-66z" />
    <glyph glyph-name="bar" unicode="_" 
d="M0 -256h1024v102h-1024v-102z" />
    <glyph glyph-name="braceright" unicode="`" horiz-adv-x="661" 
d="M430 1059q6 4 2 10l-196 244q-13 18 -33 34q-21 17 -51 17q-48 -2 -64 -45q-18 -43 35 -90l270 -193q6 -6 12 0z" />
    <glyph glyph-name="asciitilde" unicode="a" horiz-adv-x="1104" 
d="M670 354q14 -41 45 -127q26 -86 35 -125q0 -32 -33 -34h-33q-10 -2 -10 -13v-43q-2 -16 16 -18q84 4 186 6q41 0 101 -2q57 -4 80 -4q14 2 14 18v43q0 11 -10 13h-39q-53 0 -96 55q-13 26 -58 151q-47 125 -75 213q-78 230 -160 457q-4 23 -21 23q-18 0 -24 -15
q-15 -12 -47 -33q-35 -18 -68 -26q-25 -6 -20 -14q0 -13 8 -21q12 -16 -2 -41q-72 -176 -148 -342q-41 -88 -94 -213q-25 -59 -45 -100q-23 -43 -29 -51q-28 -41 -84 -43h-28q-11 0 -8 -13v-43q-3 -16 8 -18q65 4 159 6q93 -2 158 -6q12 2 12 14v45q0 15 -14 15h-51
q-59 2 -37 67q41 111 82 219h330zM371 420q6 12 28 63q21 51 45 115q25 63 47 115q21 49 21 57q8 23 16 23q9 0 13 -21q10 -29 55 -170q43 -143 53 -182h-278z" />
    <glyph glyph-name="Adieresis" unicode="b" horiz-adv-x="1022" 
d="M111 868q-2 -16 10 -14h39q32 0 55 -8q23 -13 27 -64q4 -86 6 -217v-151v-176q0 -93 -6 -119q-4 -19 -17 -35q-14 -16 -39 -16h-55q-16 0 -14 -11v-43q-2 -20 16 -20q68 4 164 6q104 -2 207 -6q209 2 291 49q53 27 79 84q27 57 27 113q-4 198 -248 262v4q99 33 146 76
q45 41 45 133q0 59 -23 104q-26 43 -84 74q-73 35 -248 35q-90 -4 -174 -6q-108 4 -192 6q-14 0 -12 -15v-45zM399 463h99q45 -4 96 -23q59 -18 98 -65q35 -49 35 -129q-2 -101 -61 -146q-62 -45 -136 -45q-75 0 -102 41q-29 41 -29 115v252zM399 614q0 158 2 226
q2 22 19 26q18 2 45 2q33 0 80 -8q45 -12 78 -37q38 -28 51 -63q10 -35 10 -70q2 -70 -76 -135q-63 -39 -209 -29v88z" />
    <glyph glyph-name="Aring" unicode="c" horiz-adv-x="1020" 
d="M559 -25q143 2 246 66q102 59 153 154q13 20 2 26l-34 23q-9 8 -21 -13q-37 -65 -117 -106q-79 -47 -192 -47q-62 0 -113 22q-53 21 -102 72q-76 90 -102 184q-29 95 -27 156q0 131 74 246q73 114 221 118q63 0 123 -28q57 -29 92 -68q41 -43 61 -82q21 -41 29 -78
q4 -18 14 -16l49 8q11 0 7 21q-3 47 -11 143q-2 45 -6 80q-6 33 -6 41q2 25 -31 22q-24 0 -26 -10l-6 -22q-5 -15 -35 0q-29 20 -94 39q-66 20 -158 20q-115 -2 -199 -41q-84 -41 -129 -92q-137 -156 -137 -348q0 -49 10 -98q8 -52 27 -101q35 -100 108 -174q52 -47 129 -80
q80 -35 201 -37v0z" />
    <glyph glyph-name="Ccedilla" unicode="d" horiz-adv-x="1208" 
d="M248 502q0 -90 -2 -232v-112q-2 -47 -6 -58q0 -8 -13 -18q-12 -14 -32 -14h-91q-10 0 -10 -11v-45q0 -18 10 -18q84 4 191 6q131 -2 272 -4q53 -2 193 20q65 13 131 39q63 27 110 76q127 129 123 346q0 113 -35 193q-36 80 -106 137q-90 80 -199 102q-110 21 -254 19
q-114 -4 -215 -6q-120 4 -206 6q-11 0 -11 -13v-47q0 -14 8 -14h76q56 -2 58 -35q4 -31 6 -108q2 -78 2 -113v-96zM405 563q0 96 3 240q0 35 28 49q17 12 45 14h47q215 -4 326 -129q45 -47 74 -123q26 -75 22 -161q-2 -150 -78 -252q-47 -58 -131 -99q-84 -43 -184 -43
q-35 0 -70 13q-34 10 -53 30q-26 35 -24 74q-5 184 -5 295v92z" />
    <glyph glyph-name="Eacute" unicode="e" horiz-adv-x="1001" 
d="M405 858l218 -4q36 0 77 -31q33 -30 82 -86q47 -55 56 -67q10 -13 18 -9l33 15q6 2 2 14q-6 23 -31 105q-29 81 -35 104q-6 31 -12 29q-18 -4 -55 -4l-459 -2q-86 4 -174 6q-10 -2 -10 -11v-49q0 -14 8 -14h20q60 0 80 -8q21 -10 21 -43q4 -66 4 -262v-127v-310
q2 -20 -12 -28q-19 -8 -91 -8h-18q-14 0 -14 -13v-47q-2 -12 12 -14q78 4 174 6q315 0 434 -2q117 -4 119 -4q14 2 22 20l74 217q2 11 -6 15l-33 18q-10 8 -26 -12q-19 -29 -56 -76t-53 -61q-49 -39 -100 -47q-51 -11 -117 -11q-66 -2 -104 17q-43 18 -43 86q-5 76 -5 217
v69h64q43 -2 90 -14q39 -8 55 -33q15 -24 21 -63q4 -10 12 -8l43 4q10 0 10 10q-8 53 -8 135q0 21 2 76q0 27 2 45v25q2 12 -12 12l-45 2q-10 0 -10 -10q2 -90 -74 -107q-18 -2 -74 -6q-59 -4 -76 -4v348z" />
    <glyph glyph-name="Ntilde" unicode="f" horiz-adv-x="940" 
d="M408 403q47 2 157 -14q39 -6 55 -33q15 -28 17 -59q0 -12 12 -12l39 4q10 0 10 12q-6 49 -6 131q0 76 2 150q0 10 -8 10l-41 4q-10 0 -12 -19q-6 -34 -23 -63q-18 -29 -49 -37q-76 -8 -153 -8v387h126q97 -4 132 -10q45 -6 77 -45q37 -49 60 -82q22 -37 30 -58
q11 -18 17 -12l33 15q6 4 2 16q-4 31 -23 119q-20 90 -29 129q-43 -4 -260 -4q-215 -2 -262 -2q-123 4 -198 6q-13 0 -13 -15v-45q0 -14 11 -14h79q31 0 41 -21q13 -20 15 -36q2 -19 2 -93v-122v-93q0 -344 -4 -389q0 -30 -49 -32h-58q-12 -2 -12 -13v-45q-2 -16 12 -16
q45 4 174 6q66 0 127 -2q62 -4 74 -4q10 2 10 16v45q0 13 -10 13h-49q-25 0 -39 8q-16 8 -16 33v294z" />
    <glyph glyph-name="Odieresis" unicode="g" horiz-adv-x="1085" 
d="M940 279q0 26 22 34q21 9 37 9h35q10 0 10 12v49q0 10 -12 10q-37 -4 -176 -4q-84 0 -147 4h-76q-10 0 -10 -10v-49q0 -10 10 -10h49q43 0 72 -11q28 -14 28 -51v-76q2 -59 -30 -88q-56 -45 -170 -45q-99 0 -197 92q-125 125 -125 359q0 73 31 145q28 72 76 123
q59 61 116 84q56 20 103 20q69 0 118 -26q50 -29 89 -72q38 -37 63 -78t35 -67q8 -23 16 -17l39 13q8 2 8 16q-4 39 -14 131q-16 90 -16 107q0 22 -23 22q-22 0 -27 -14l-10 -19q-4 -10 -28 9q-29 22 -93 45q-65 20 -141 20q-219 0 -366 -125q-152 -139 -152 -336
q0 -231 123 -360q78 -80 180 -113q102 -37 186 -37q193 2 351 82q22 9 22 23q-4 14 -6 41v158z" />
    <glyph glyph-name="Udieresis" unicode="h" horiz-adv-x="1319" 
d="M1071 520q0 156 2 285q-2 47 45 49h53q21 0 19 14v39q2 21 -19 21q-73 -4 -174 -6q-114 4 -194 6q-15 0 -15 -15v-47q0 -12 15 -12h59q45 0 47 -66q2 -86 4 -231v-18q0 -23 -28 -21h-463q-17 0 -17 16v17q0 158 3 250q0 51 55 53h57q17 0 17 14v43q0 17 -17 17
q-76 -4 -184 -6q-125 4 -207 6q-18 0 -16 -17v-43q0 -14 16 -14h55q29 0 45 -14q15 -19 15 -64q2 -84 4 -262v-57q-4 -162 -4 -314q2 -30 -6 -53q-11 -22 -46 -22h-63q-14 0 -14 -13v-47q0 -14 14 -14q92 4 201 6q39 0 100 -2q61 -4 84 -4q12 2 12 14v45q0 15 -12 15h-61
q-21 0 -31 16q-12 14 -14 59q-3 142 -3 275v18q-2 12 21 12h457q30 0 30 -16v-18q-4 -144 -4 -275q2 -71 -37 -71h-79q-15 0 -15 -13v-47q-2 -12 19 -14q92 4 198 6q54 0 113 -2q59 -4 76 -4q16 0 16 14v45q0 15 -10 15h-60q-30 0 -43 22q-12 21 -14 78q-2 135 -2 307v45z
" />
    <glyph glyph-name="aacute" unicode="i" horiz-adv-x="653" 
d="M405 524q0 135 3 279q-3 53 75 51h35q12 0 12 14v49q0 11 -12 11q-57 -4 -180 -6q-76 0 -148 4q-73 2 -88 2q-12 0 -12 -13v-47q-2 -14 12 -14h37q64 0 86 -12q19 -13 19 -31q2 -129 4 -266v-90v-193v-100q0 -45 -4 -56q-2 -26 -25 -30q-24 -8 -63 -8h-45q-13 -2 -13 -13
v-45q0 -16 13 -16q57 4 200 6q74 0 137 -2q62 -4 78 -4q13 2 13 14v49q0 11 -13 11h-30q-86 0 -88 75v148q-3 108 -3 131v102z" />
    <glyph glyph-name="agrave" unicode="j" horiz-adv-x="567" 
d="M367 491q0 259 4 324q-2 39 51 39h61q17 0 17 14v45q0 15 -15 15q-59 -4 -188 -6q-145 4 -211 6q-12 0 -12 -13v-51q0 -10 12 -10h57q66 2 66 -61v-269v-92q0 -117 4 -317q0 -95 -4 -174q-6 -78 -19 -117q-6 -27 -24 -49q-19 -23 -45 -25q-15 2 -27 15q-14 10 -31 26
q-14 17 -30 27q-17 10 -35 10q-31 0 -51 -23q-23 -22 -23 -55q2 -41 41 -59q35 -19 64 -19q102 2 172 56q67 51 110 123q51 94 49 217q5 61 7 323v100z" />
    <glyph glyph-name="acircumflex" unicode="k" horiz-adv-x="1083" 
d="M403 547q2 155 5 272q-3 35 45 35h41q12 0 12 12v45q0 17 -12 17q-50 -4 -152 -6q-131 4 -176 6q-17 -2 -14 -13v-49q0 -12 10 -12h37q28 0 37 -8q6 -10 6 -23q4 -112 6 -280v-62q0 -119 2 -237q0 -121 -4 -144q-8 -32 -39 -32h-45q-13 0 -13 -15v-43q0 -16 11 -16
q57 4 162 6q47 0 104 -2q53 -4 65 -4q13 2 13 16v43q0 15 -13 15h-43q-12 0 -26 10q-14 6 -14 18q-5 101 -5 269v67h15q20 0 49 -16q10 -6 51 -51q39 -46 86 -107q47 -57 86 -106q37 -48 41 -60q6 -6 2 -16q-6 -10 -22 -10h-11q-12 -3 -12 -13v-43q0 -16 14 -16q74 4 170 6
q43 0 101 -2q57 -4 71 -4q13 2 13 16v43q0 15 -13 15h-32q-29 -2 -74 26q-29 33 -182 209q-66 80 -121 143q-53 62 -66 72q54 64 158 176q49 51 90 90q39 39 51 45q35 19 60 23q26 2 39 2h28q13 0 13 14v47q0 13 -11 13q-37 -4 -118 -6q-121 4 -164 6q-13 0 -13 -11v-47
q0 -12 11 -12h8q18 0 24 -12q7 -13 -4 -29q-22 -31 -127 -153q-47 -56 -88 -101t-55 -53q-33 -16 -57 -16h-11v53z" />
    <glyph glyph-name="adieresis" unicode="l" horiz-adv-x="954" 
d="M248 510q-4 -236 -4 -406q-2 -34 -58 -36h-63q-14 0 -14 -13v-43q0 -18 12 -18q18 0 80 4q61 2 114 2q295 0 553 -4q37 145 64 254q4 16 -2 20l-33 15q-10 2 -18 -11q-27 -43 -80 -112q-25 -33 -47 -56q-23 -24 -37 -30q-49 -2 -162 -2q-113 -2 -143 -2q-2 51 -2 178
q-3 129 -3 158v112q3 201 5 289q-2 24 14 37q14 8 67 8h31q12 0 12 12v49q0 13 -10 13q-59 -4 -200 -6q-144 4 -195 6q-10 0 -10 -11v-49q0 -14 10 -14h31q53 0 69 -8q15 -13 15 -39q4 -60 4 -223v-74z" />
    <glyph glyph-name="atilde" unicode="m" horiz-adv-x="1520" 
d="M113 864q0 -10 10 -10h37q63 0 76 -10q10 -13 10 -37q0 -115 2 -232q0 -34 -2 -198q-2 -76 -6 -144q-7 -69 -15 -108q-8 -55 -98 -57h-27q-10 0 -10 -13v-41q-2 -20 12 -20q64 4 174 6q54 0 107 -2q53 -4 65 -4q13 2 13 12v45q0 17 -10 17h-31q-88 -5 -98 94
q-3 35 -3 164v153q0 31 5 178q0 68 2 119v62h4q26 -50 80 -168q51 -123 75 -181q23 -47 105 -231q82 -186 94 -221q8 -23 25 -23q12 0 22 13q6 10 10 18q72 150 174 358q123 254 209 437h-6l10 -2v-402q0 -155 -4 -327q2 -39 -55 -41h-66q-12 0 -12 -13v-41q0 -20 12 -20
q70 4 193 6q59 0 123 -2q63 -4 80 -4q14 2 14 14v49q0 11 -10 11h-68q-24 0 -33 22q-12 21 -12 49q-4 152 -4 316q2 186 4 356q2 16 10 31q9 12 29 12h49q15 0 15 14v43q0 17 -11 17q15 -4 -272 -6q-31 0 -33 -21q0 -8 -20 -51q-21 -45 -49 -103q-29 -57 -54 -110
q-28 -53 -41 -80q-92 -190 -153 -321v0l-295 669q-10 23 -35 23q-39 -4 -123 -6q-125 4 -184 6q-10 0 -10 -11v-53z" />
    <glyph glyph-name="aring" unicode="n" horiz-adv-x="1216" 
d="M1012 504q-2 145 6 307q2 22 16 35q15 8 49 8h21q12 0 12 14v43q0 17 -14 17q-43 -4 -129 -6q-123 4 -168 6q-15 0 -15 -11v-49q0 -14 15 -14h35q57 0 75 -37q9 -22 15 -86q2 -63 2 -106q6 -84 6 -246v-135h-8q-29 35 -121 151q-92 115 -131 158q-45 57 -154 197
q-49 63 -88 110q-39 45 -43 49q-8 17 -49 17q-43 -4 -100 -4q-37 0 -82 4q-43 0 -53 2q-13 -2 -13 -13v-49q0 -12 13 -12h18q102 0 109 -109v-215q-3 -356 -7 -401q0 -14 -6 -27q-6 -12 -16 -20q-21 -14 -37 -14h-47q-8 0 -8 -7v-53q0 -14 6 -14q59 4 137 6q49 0 96 -2
q47 -4 60 -4q10 0 10 12v49q0 13 -10 13h-43q-35 0 -49 69q-3 23 -7 135q-6 111 -6 211v281h4q33 -37 119 -150q84 -112 129 -166q49 -57 205 -243q65 -76 113 -129q45 -56 55 -70q16 -16 47 -20q18 2 27 14q4 10 4 25v479z" />
    <glyph glyph-name="ccedilla" unicode="o" horiz-adv-x="1137" 
d="M563 -25q158 2 254 54q96 51 154 135q84 133 82 284q-2 138 -50 236q-47 96 -116 154q-78 67 -156 90q-80 18 -151 18q-101 2 -197 -31q-94 -32 -186 -141q-70 -88 -93 -172q-22 -86 -20 -151q2 -146 63 -246q60 -101 119 -139q82 -52 164 -70q80 -21 133 -21v0zM575 45
q-84 -2 -194 98q-51 52 -86 138q-37 86 -37 204q0 82 29 168q28 86 86 146q37 37 71 55q31 14 60 20q55 2 69 0q101 0 199 -112q100 -113 104 -318q0 -43 -6 -106q-8 -66 -37 -133q-28 -66 -90 -111q-61 -49 -168 -49v0z" />
    <glyph glyph-name="eacute" unicode="p" horiz-adv-x="973" 
d="M248 457q-2 -273 -6 -348q2 -46 -54 -41h-53q-12 0 -12 -13v-43q0 -18 12 -18q66 4 187 6q57 0 122 -2q64 -4 80 -4q15 2 15 12v49q0 11 -13 13h-59q-59 0 -62 41q-2 86 -2 237v53q45 -8 138 -8q354 4 358 281q-2 118 -104 190q-52 37 -123 51q-72 15 -201 15
q-88 -4 -149 -6q-121 4 -197 6q-12 0 -12 -11v-51q0 -12 12 -12h29q53 0 73 -4q19 -6 17 -23q4 -75 4 -221v-149zM403 858q17 6 45 8h43q60 0 142 -43q39 -22 63 -59q27 -39 27 -94q0 -64 -23 -109q-24 -47 -75 -76q-52 -32 -115 -32q-80 0 -107 12v393z" />
    <glyph glyph-name="egrave" unicode="q" horiz-adv-x="1135" 
d="M561 946q-67 0 -162 -27q-96 -30 -176 -100q-137 -137 -139 -344q0 -123 37 -209q33 -86 80 -139q47 -49 92 -76q43 -31 80 -45q41 -14 71 -18q31 -6 54 -8q307 -134 421 -172q60 -21 99 -31q35 -8 61 -8q41 2 78 18t68 39q30 22 53 43q18 18 24 25q11 8 2 18l-14 18
q-6 4 -14 0q-33 -36 -115 -39q-37 0 -131 13q-94 12 -313 80v4q49 18 100 47q53 31 109 90q118 119 125 346q6 193 -115 334q-119 139 -375 141v0zM553 876q78 0 129 -26q51 -29 100 -82q43 -43 72 -129q25 -88 25 -195q0 -45 -13 -110q-14 -68 -51 -137q-33 -68 -92 -113
q-62 -49 -150 -49q-30 -2 -75 18q-50 17 -115 80q-43 45 -82 135q-41 88 -43 205q0 88 25 176q24 86 77 146q54 51 99 67q45 14 94 14v0z" />
    <glyph glyph-name="ecircumflex" unicode="r" horiz-adv-x="1069" 
d="M248 467q0 -191 -2 -346q0 -58 -74 -53h-25q-12 0 -12 -11v-47q0 -16 12 -16q58 4 170 6q58 0 119 -2q60 -4 74 -4q16 0 16 14v49q0 11 -12 11h-53q-56 2 -58 51v221v49q23 4 54 4q61 0 102 -37q37 -41 88 -135q19 -31 68 -112q22 -39 45 -68q22 -31 35 -45q57 4 131 4
q32 0 63 -2q33 -4 41 -4q12 2 12 14v41q0 19 -10 19q-51 -2 -92 22q-29 23 -59 62q-33 38 -56 69q-59 90 -98 139q-39 48 -74 54v4q242 78 242 280q-2 78 -72 150q-80 76 -266 80q-117 -4 -229 -6q-107 4 -174 6q-13 0 -13 -11v-49q0 -14 8 -14h21q80 0 78 -64v-196v-127z
M403 817q0 29 21 37q18 8 41 8q117 0 194 -53q29 -19 50 -55q18 -39 18 -86q0 -21 -8 -56t-37 -69q-27 -35 -78 -62q-53 -26 -139 -26q-39 0 -62 4v358z" />
    <glyph glyph-name="edieresis" unicode="s" horiz-adv-x="838" 
d="M438 -25q142 2 213 86q72 82 72 199q0 76 -16 123q-19 45 -50 74q-37 39 -92 63q-57 25 -129 47q-31 13 -74 35q-43 23 -69 49q-33 47 -33 101q-2 32 31 77t114 47q91 -2 136 -55q32 -39 49 -80q14 -45 22 -65q4 -10 13 -8l36 8q9 4 9 12q-17 86 -21 229q2 17 -18 19
q-23 0 -27 -6l-8 -15q-4 -14 -35 4q-18 11 -51 21q-37 6 -94 6q-111 0 -193 -61q-35 -29 -59 -72q-29 -47 -29 -100q0 -148 72 -211q49 -39 108 -68q60 -26 93 -39q83 -28 137 -73q51 -48 51 -136q-2 -65 -57 -100q-54 -39 -107 -39q-55 0 -102 29q-47 28 -72 73
q-12 29 -18 50q-9 22 -13 37q-8 32 -6 53q-2 12 -16 14l-37 4q-12 0 -14 -14q-9 -109 -23 -254q-2 -16 16 -23q25 -6 31 11l6 16q8 23 31 4q37 -29 92 -47q55 -23 131 -25v0z" />
    <glyph glyph-name="iacute" unicode="t" horiz-adv-x="1110" 
d="M471 410q0 -189 -6 -310q-2 -30 -47 -32h-82q-12 0 -12 -15v-41q0 -18 16 -18q74 4 207 6q57 0 127 -2q67 -4 82 -4q14 2 14 12v43q0 19 -14 19h-78q-25 0 -33 16q-12 12 -14 37q-2 43 -2 385v344q37 0 127 -2q88 -2 133 -19q35 -28 59 -71q25 -45 43 -86q6 -15 23 -8
l35 10q12 6 10 16q-8 49 -25 127q-20 78 -24 105q-9 47 -19 45q-6 0 -16 -7l-25 -16q-28 -18 -74 -18q-145 -9 -288 -9h-82q-170 0 -268 9q-50 0 -80 22l-17 12q-8 7 -16 7q-12 0 -19 -21q-30 -117 -71 -248q-4 -12 8 -20l37 -14q12 -5 18 10q23 41 54 86q30 43 67 71
q64 17 141 19h111v-440z" />
    <glyph glyph-name="igrave" unicode="u" horiz-adv-x="1145" 
d="M190 500q0 -129 7 -205q6 -74 14 -119q29 -121 162 -174q71 -27 190 -27q195 2 273 78q106 92 112 252q4 174 6 297q0 27 2 102q0 35 2 62v33q4 20 21 37q14 16 63 18h19q12 0 12 14v45q0 15 -14 15q-58 -4 -150 -6q-121 4 -178 6q-12 -2 -12 -13v-45q0 -16 12 -16h23
q47 0 67 -12q19 -15 21 -43q8 -37 8 -187v-282q0 -62 -10 -117q-15 -55 -58 -96q-30 -31 -82 -47q-51 -21 -104 -21q-41 0 -96 21q-56 22 -95 67q-24 35 -32 78q-13 43 -15 86q-4 100 -4 260v84v107q0 45 2 65q-2 33 90 37h29q12 0 12 12v49q0 13 -14 13q-63 -4 -182 -6
q-142 4 -207 6q-12 0 -12 -11v-51q0 -12 12 -12h37q45 0 59 -18q10 -19 10 -48v-288z" />
    <glyph glyph-name="icircumflex" unicode="v" horiz-adv-x="1008" 
d="M448 913q0 15 -16 15q-65 -4 -186 -6q-121 4 -176 6q-13 0 -13 -11v-51q0 -12 11 -12h20q37 -2 59 -39q15 -22 50 -121q34 -100 61 -180l14 -45q64 -174 170 -463q6 -12 15 -20q6 -11 18 -11q25 0 33 17q22 43 102 231q37 86 66 154q28 67 35 86q20 55 79 188
q29 60 54 111q22 47 37 61q28 29 86 31h32q13 0 13 16v43q0 15 -13 15q-51 -4 -141 -6q-108 4 -166 6q-12 -2 -12 -13v-47q0 -14 12 -14h23q26 0 35 -4q8 -6 8 -17q2 5 -105 -303q-10 -34 -59 -157t-64 -170h-6q-49 147 -104 321q-41 127 -64 199q-26 70 -26 100q0 21 20 27
q17 4 37 4h47q14 0 14 12v47z" />
    <glyph glyph-name="idieresis" unicode="w" horiz-adv-x="1534" 
d="M911 813q-4 14 2 27q6 14 29 14h41q10 0 10 12v45q0 17 -10 17q-70 -4 -180 -6q-123 4 -180 6q-11 0 -11 -11v-51q0 -12 8 -12h29q35 0 55 -23q19 -26 17 -57q-2 -16 -31 -96q-31 -80 -70 -182q-36 -103 -69 -183q-31 -80 -39 -102h-6l-195 602q-6 18 4 31q7 10 19 10h22
q13 0 13 12v47q0 15 -13 15q-69 -4 -168 -6l-159 6q-11 0 -11 -11v-53q0 -10 9 -10h34q17 0 37 -6q21 -8 31 -39l303 -803q12 -31 35 -31q24 2 35 31q30 74 139 344q104 270 133 340h4l238 -680q6 -12 14 -22q10 -11 23 -13q14 2 26 15q8 10 15 24q41 97 178 430
q61 154 108 267q45 112 51 125q15 16 50 18h24q10 0 10 12v45q0 17 -8 17q-41 -4 -127 -6q-90 4 -145 6q-14 0 -12 -11v-49q0 -14 10 -14h31q43 -2 45 -41q0 -10 -7 -35q-6 -28 -20 -69q-29 -86 -66 -191q-81 -233 -108 -307h-8z" />
    <glyph glyph-name="ntilde" unicode="x" horiz-adv-x="1077" 
d="M1053 55q0 11 -13 13h-20q-53 -2 -101 38q-30 37 -155 201q-125 166 -156 209q47 59 154 184q51 58 88 99q39 39 47 43q20 12 78 12h35q14 0 14 14v43q0 17 -14 17q-48 -4 -136 -6q-94 4 -153 6q-12 0 -12 -15v-45q0 -14 12 -14h16q19 0 25 -12q6 -15 -6 -31
q-15 -21 -88 -115q-33 -41 -62 -78q-29 -36 -39 -51l-86 129q-65 94 -82 119q-6 16 4 29q11 10 31 10h37q14 0 14 14v43q0 17 -12 17q-68 -4 -205 -6q-143 4 -205 6q-12 -2 -12 -13v-49q0 -12 12 -12h46q43 0 63 -14q14 -9 51 -54q39 -49 86 -112q105 -142 146 -207
q-52 -68 -150 -193q-47 -57 -90 -104q-47 -49 -84 -76q-14 -10 -35 -16q-20 -10 -49 -10h-31q-12 -2 -12 -13v-41q0 -18 10 -20q58 4 146 6q43 0 104 -2q62 -4 76 -4q14 2 14 16v47q0 9 -14 11h-39q-18 0 -25 14q-8 14 -2 27q19 26 101 137q80 106 125 164q24 -33 108 -152
q39 -53 70 -96q29 -45 33 -56q20 -38 -23 -38h-24q-15 -2 -15 -13v-43q0 -18 12 -18q72 4 191 6q51 0 115 -2q59 -4 73 -4q13 2 13 14v47z" />
    <glyph glyph-name="oacute" unicode="y" horiz-adv-x="979" 
d="M569 416q49 73 166 233q55 74 96 127q43 53 54 62q26 16 73 16h21q12 0 12 14v43q0 17 -14 17q-41 -4 -121 -6q-125 4 -176 6q-14 0 -14 -15v-45q0 -14 14 -14h33q59 -2 26 -59q-14 -25 -94 -144t-115 -172v0q-122 193 -215 340q-6 10 0 25q4 10 31 10h31q14 0 14 14v45
q0 15 -14 15q-76 -4 -199 -6q-110 4 -168 6q-16 -2 -16 -13v-45q0 -16 14 -16h29q14 0 37 -4q20 -6 37 -21q38 -41 157 -213q56 -77 97 -139q38 -63 47 -82v-73q0 -183 -2 -213q0 -21 -15 -31q-16 -10 -65 -10h-31q-12 -2 -12 -13v-45q0 -16 14 -16q64 4 176 6q57 0 119 -2
q63 -4 76 -4q16 2 16 14v49q0 11 -14 11h-27q-29 0 -47 8q-23 8 -27 37q-4 45 -4 131v172z" />
    <glyph glyph-name="ograve" unicode="z" horiz-adv-x="999" 
d="M379 0q252 0 409 -14q35 -6 45 -6q13 0 17 14q51 143 96 242q6 12 -4 18l-25 16q-8 4 -18 -6q-16 -24 -80 -88q-63 -67 -110 -106h-428q47 63 307 411q260 350 307 416q18 31 -6 33q-15 0 -92 -4q-74 -4 -205 -4q-90 0 -201 2q-53 0 -96 4q-47 0 -72 2q-14 2 -24 2
q-11 0 -17 -15l-88 -253q-2 -11 4 -15l31 -16q8 -2 14 8q27 39 80 102q53 60 76 86q27 29 53 29h324q-264 -362 -602 -823q-11 -12 -11 -25q3 -10 29 -10h287z" />
    <glyph glyph-name="ocircumflex" unicode="{" horiz-adv-x="725" 
d="M86 608q0 -28 27 -35q39 0 73 -22q39 -25 54 -72q12 -47 12 -98q-2 -90 -35 -195q-35 -102 -37 -209q0 -94 47 -155q41 -64 105 -100q35 -19 67 -31q35 -12 68 -23q35 -8 67 -12q31 -6 56 -8q45 -2 67 -2q15 0 15 28q0 37 -15 37q-20 0 -73 8q-74 17 -156 74
q-37 31 -61 80q-27 49 -27 119q0 98 16 200q15 103 17 173q0 55 -17 96q-16 41 -37 59q-14 21 -26 35q-14 12 -25 22q-20 17 -20 31q2 23 67 80q54 43 58 158q-2 82 -17 174q-16 94 -16 205q0 104 72 165q67 60 170 72q36 2 65 2q25 0 25 37q0 29 -35 29q-29 0 -96 -4
q-133 -9 -242 -86q-53 -37 -84 -93q-35 -57 -35 -135q0 -55 15 -106q10 -55 22 -107q14 -51 25 -100q10 -51 10 -102q0 -47 -16 -86q-19 -37 -52 -52q-35 -12 -71 -12q-27 0 -27 -39v0z" />
    <glyph glyph-name="odieresis" unicode="|" horiz-adv-x="717" 
d="M403 -532q11 2 11 20v2048q0 24 -15 24h-82q-14 0 -12 -18v-2054q-2 -18 12 -20h86z" />
    <glyph glyph-name="otilde" unicode="}" horiz-adv-x="725" 
d="M639 608q-2 31 -29 35q-35 0 -71 23q-37 26 -52 73q-14 47 -14 97q2 75 37 174q14 49 24 100q11 51 11 100q-2 88 -43 150q-41 59 -107 96q-141 72 -260 72q-43 2 -65 2q-17 0 -17 -33q0 -35 19 -33q20 0 69 -6q78 -8 158 -74q82 -63 86 -188q-2 -96 -16 -193
q-17 -96 -17 -151t19 -94q16 -39 32 -62q35 -39 56 -55q18 -16 18 -33q-2 -20 -69 -80q-52 -41 -56 -157q0 -66 17 -160q14 -90 16 -219q-2 -121 -68 -193q-67 -71 -174 -86q-37 -2 -65 -2q-27 0 -25 -35q0 -28 35 -30q31 0 94 4q135 12 246 102q113 90 117 252
q0 66 -11 123q-10 55 -24 104q-12 52 -23 101q-14 45 -14 88q0 51 18 88q19 39 50 49q34 12 69 12q27 0 29 39v0z" />
    <glyph glyph-name="uacute" unicode="~" 
d="M799 633q-2 -88 -31 -125q-29 -39 -70 -39q-32 0 -67 25q-33 20 -62 36l-86 58q-82 51 -164 49q-81 0 -139 -76q-63 -74 -63 -211h108q0 90 35 129q31 35 59 35q66 0 136 -45l79 -55q43 -29 84 -47q41 -21 86 -21q82 0 144 76q57 76 59 211h-108z" />
    <glyph glyph-name="uni00A0" unicode="&#xa0;" horiz-adv-x="520" 
 />
    <glyph glyph-name="fl" unicode="&#xa1;" horiz-adv-x="520" 
d="M268 643q47 0 82 33q33 28 33 80q-2 59 -35 92q-35 31 -80 31q-73 -3 -100 -43q-29 -41 -29 -72q2 -70 49 -96q43 -27 80 -25v0zM268 -557q43 2 72 37q27 37 27 84q-2 90 -29 377q-25 286 -33 458q0 21 -14 21h-37q-16 0 -14 -15q-9 -174 -37 -475q-13 -139 -23 -241
q-2 -25 -2 -43q-2 -21 -6 -37q-6 -35 -6 -45q-2 -64 31 -92q30 -29 71 -29v0z" />
    <glyph glyph-name="questiondown" unicode="&#xa2;" horiz-adv-x="778" 
d="M371 164q-37 16 -84 67q-35 43 -62 103q-26 59 -26 164q2 108 67 178q64 69 152 78zM512 934q0 12 -12 14h-56q-10 0 -10 -16l-10 -113q-186 -24 -279 -139q-94 -115 -94 -264q0 -58 19 -113q18 -57 65 -119q57 -63 119 -90q31 -14 61 -22q27 -9 52 -13l-13 -118
q-2 -17 11 -17h51q14 2 16 15l10 116q109 0 191 41q82 39 119 84q12 10 2 23l-19 16q-12 10 -20 0q-80 -76 -207 -74q-27 0 -60 4l48 601q34 -5 71 -56q43 -76 107 -74q63 0 67 64q0 16 -10 37q-12 22 -39 45q-26 22 -74 41q-45 16 -116 16z" />
    <glyph glyph-name="exclamdown" unicode="&#xa3;" 
d="M57 537q-16 0 -14 -13v-47q0 -16 18 -14h150q-19 -49 -51 -117q-33 -70 -58 -96q-57 -31 -114 -96q-27 -31 -43 -62q-19 -31 -21 -59q0 -31 37 -33q35 0 66 27q30 24 55 59q24 35 43 70q18 34 29 53q67 6 125 -14q55 -23 106 -86q117 -140 285 -140q75 0 131 23
q51 20 82 49q30 33 45 63q10 31 10 54q-2 59 -43 96q-43 35 -100 35q-58 -2 -78 -29q-21 -29 -21 -53q0 -62 109 -66q31 0 37 -6q6 -8 -6 -33q-7 -16 -31 -36q-25 -25 -62 -25q-94 2 -145 68q-88 102 -176 137q-90 33 -238 14l-2 4q31 37 74 94q41 56 68 105h319q21 0 21 14
v47q0 13 -19 13h-287q25 38 97 192q67 154 102 276q45 185 100 259q29 36 60 53q30 14 63 14q29 0 43 -8q15 -10 23 -23q12 -26 16 -43q41 -77 123 -75q31 4 53 24q23 19 25 53q0 41 -55 88q-29 23 -72 39q-43 13 -100 13q-138 -2 -252 -103q-115 -98 -170 -247
q-39 -113 -92 -281q-56 -170 -84 -231h-181z" />
    <glyph glyph-name="breve" unicode="&#xa4;" 
d="M942 1161q-8 8 -18 -2l-199 -184v0q-33 28 -86 47q-53 16 -107 16q-61 0 -118 -14q-60 -19 -103 -55v0l-205 192q-8 8 -20 -2l-39 -41q-10 -12 -2 -20l201 -191q-37 -37 -60 -100q-24 -64 -24 -129q0 -117 69 -199l-188 -184q-12 -12 -4 -25l45 -47q8 -10 22 4l187 187v0
q86 -72 213 -74q121 0 215 65v0l203 -184q8 -8 18 0l43 49q8 11 -4 23l-191 178q76 96 82 231q0 62 -22 121q-25 58 -62 92l193 183q10 12 0 22zM516 424q-123 2 -180 84q-57 78 -57 182q0 100 57 182q55 80 180 82q109 -2 174 -71q64 -74 64 -193q-2 -123 -68 -192
q-66 -74 -170 -74v0z" />
    <glyph glyph-name="quotedblleft" unicode="&#xa5;" 
d="M426 125q0 -51 -45 -51h-96q-17 0 -15 -15v-49q-2 -16 17 -16q16 4 221 6q199 -2 213 -6q16 0 16 18v47q0 15 -16 15h-80q-33 0 -47 10q-17 10 -17 49v244h295q19 -2 21 12v47q0 15 -23 15h-295v145h293q25 -2 25 12v47q0 15 -23 15h-284q90 145 207 344q116 194 147 241
q12 17 31 29q16 10 41 10h43q16 0 16 19v49q0 12 -16 12q-27 -4 -154 -6q-88 0 -141 4q-56 2 -68 2q-16 0 -16 -14v-47q-2 -19 14 -19h53q84 0 62 -84q-23 -53 -123 -229q-100 -178 -141 -248v0q-35 62 -125 238q-92 176 -123 237q-17 35 0 62q16 22 82 24h43q14 0 14 19v51
q0 10 -14 10q-31 -4 -254 -6q-78 0 -129 4q-53 2 -70 2q-14 0 -14 -14v-51q0 -15 14 -15h43q25 0 47 -14q21 -14 31 -31q49 -69 170 -274q119 -207 170 -305h-307q-23 0 -21 -15v-43q0 -18 19 -16h311v-145h-309q-23 0 -21 -15v-47q-2 -14 21 -12h307v-252z" />
    <glyph glyph-name="glyph171" unicode="&#xa6;" horiz-adv-x="717" 
d="M324 358q-21 -2 -19 -20v-676q-2 -18 12 -20h78q19 2 19 20v676q0 20 -13 20h-77zM395 666q19 0 19 20v672q0 24 -15 24h-82q-14 0 -12 -18v-678q-2 -20 12 -20h78z" />
    <glyph glyph-name="logicalnot" unicode="&#xa7;" horiz-adv-x="1106" 
d="M657 1481q-94 0 -166 -19q-71 -22 -133 -90q-30 -37 -53 -84q-24 -49 -24 -104q0 -111 34 -181q-51 -28 -100 -94q-51 -65 -53 -184q-2 -174 180 -326q68 -51 133 -94q66 -43 117 -88q53 -41 84 -96q31 -58 31 -135q0 -60 -17 -97q-18 -38 -47 -59q-59 -35 -117 -33
q-67 2 -106 62q-41 63 -107 63q-75 -2 -77 -82q2 -53 73 -84q72 -30 172 -32q66 0 135 20q70 21 123 72q94 96 97 235q0 125 -64 201q64 27 119 92q24 33 41 82q16 47 14 108q4 187 -233 340q-70 45 -129 84q-60 37 -103 74q-90 72 -90 199q0 82 57 133q56 51 132 51
q57 0 94 -55q26 -41 51 -60q25 -22 65 -22q27 0 52 18q22 19 24 56q-2 57 -59 92t-150 37v0zM684 702q51 -36 82 -69q31 -37 43 -68q14 -31 16 -55q2 -27 2 -49q-2 -45 -30 -92q-29 -47 -68 -66q-25 33 -113 92q-88 58 -221 164q-63 55 -92 111q-29 53 -29 110q2 125 74 168
q43 -59 336 -246v0z" />
    <glyph glyph-name="nonbreakingspace" unicode="&#xa8;" horiz-adv-x="661" 
d="M164 1266q-60 -2 -82 -35q-23 -33 -23 -58q2 -57 41 -77q33 -21 64 -21q88 2 92 90q0 49 -27 76q-28 25 -65 25v0zM512 1266q-59 -2 -84 -35q-23 -33 -23 -58q3 -57 41 -77q35 -21 66 -21q39 0 63 27q27 22 27 63q0 49 -27 76q-28 25 -63 25v0z" />
    <glyph glyph-name="guillemotleft" unicode="&#xa9;" horiz-adv-x="1689" 
d="M860 274q135 0 229 64q95 61 152 143q8 15 2 21l-16 12q-11 10 -17 6q-43 -61 -123 -110q-79 -52 -192 -52q-123 -4 -238 109q-65 74 -88 156q-22 81 -24 139q0 127 73 239q37 54 95 84q55 33 133 33q131 -4 219 -94q39 -37 61 -74q21 -37 33 -65q6 -9 16 -4l25 6
q6 0 6 12q-4 35 -16 125q-17 86 -17 111q2 22 -20 20q-27 0 -31 -8l-8 -33q-6 -12 -27 0q-20 12 -84 39q-65 25 -153 27q-105 -2 -186 -37q-84 -35 -136 -86q-133 -148 -131 -326q0 -213 137 -344q121 -113 326 -113v0zM846 1481q-318 -4 -529 -215q-217 -211 -221 -541
q2 -324 205 -535q197 -217 545 -221q346 4 547 221q200 211 202 535q-4 342 -211 547q-206 207 -538 209v0zM846 43q-101 0 -211 39q-113 37 -209 117q-96 82 -158 213q-63 129 -63 313q2 307 188 493q182 187 453 189q211 2 420 -160q49 -39 90 -92q39 -55 69 -119
q60 -129 62 -311q2 -236 -144 -451q-149 -223 -497 -231v0z" />
    <glyph glyph-name="Ydieresis" unicode="&#xaa;" horiz-adv-x="676" 
d="M530 971q0 37 -4 82q-8 45 -41 71q-10 15 -41 27q-30 14 -106 14q-90 0 -186 -45q-64 -35 -84 -65q-23 -31 -23 -54q0 -22 16 -39q13 -18 41 -18q50 0 70 21q16 16 16 36q-2 19 -4 35q-4 17 13 31q41 31 90 33q61 -2 84 -27q28 -45 28 -84v-76q-88 -30 -180 -69
q-94 -41 -129 -84q-35 -45 -33 -92q0 -48 41 -86q37 -41 78 -41q37 0 76 4q41 8 82 30q39 23 69 50h2q15 -35 46 -58q30 -26 77 -26q68 2 101 36q30 31 37 54q6 12 -5 12l-26 10q-12 4 -15 -8q-4 -12 -16 -22q-12 -13 -31 -13q-16 -2 -28 31q-15 29 -15 119v49v162zM399 682
q-14 -23 -57 -43q-45 -23 -82 -23q-20 0 -37 21q-20 18 -20 53q0 41 24 68q21 28 52 47q30 20 65 35q33 12 55 18v-176z" />
    <glyph glyph-name="Acircumflex" unicode="&#xab;" horiz-adv-x="844" 
d="M63 448q-10 -8 -10 -14t8 -12l318 -320q8 -8 14 -8q4 0 8 4l31 29q6 6 6 10q0 6 -6 15l-188 282l186 281q8 8 8 14t-6 10l-29 29q-4 6 -10 6t-12 -8zM387 448q-10 -8 -10 -14t8 -12l319 -320q9 -8 15 -8l6 4l31 29q6 6 6 10q0 6 -6 15l-189 282l187 281q8 8 8 14t-6 10
l-29 29q-6 6 -8 6q-6 0 -12 -8z" />
    <glyph glyph-name="daggerdbl" unicode="&#xac;" 
d="M115 596h671v-346h123v461h-794v-115z" />
    <glyph glyph-name="uni00AD" unicode="&#xad;" horiz-adv-x="827" 
d="M106 498q-2 -15 19 -11h571q25 -2 25 15v78q0 22 -23 22h-573q-21 0 -19 -14v-90z" />
    <glyph glyph-name="Delta" unicode="&#xae;" horiz-adv-x="1159" 
d="M405 823q0 -26 -10 -35q-12 -8 -33 -8h-18q-6 0 -6 -8v-18q0 -9 10 -9q33 0 103 2q71 -2 110 -2q6 0 6 7v22q0 6 -6 6h-33q-26 2 -26 31q-2 43 -2 135v39h32q37 -2 54 -31q30 -37 53 -78q31 -49 57 -88q6 -6 19 -20q10 -16 16 -23q45 0 84 2q45 -2 64 -2q8 0 8 7v22
q0 6 -8 6q-33 -2 -62 15q-14 10 -35 36q-22 27 -35 45q-32 56 -67 99q-8 16 -33 24v4q49 9 94 46q45 36 47 108q0 47 -41 88q-45 45 -159 47q-70 -4 -140 -4q-55 2 -100 4q-6 0 -6 -6v-25q0 -6 6 -6h12q45 0 45 -37v-122v-273zM500 1251q22 2 41 2q63 0 106 -30
q39 -27 41 -80q0 -27 -22 -72q-29 -49 -113 -51q-41 0 -53 2v229zM580 1481q-213 -2 -347 -134q-139 -131 -141 -337q0 -201 129 -332q127 -133 359 -137q229 2 358 137q127 131 129 332q-2 213 -133 342q-133 127 -354 129v0zM580 606q-62 2 -132 23q-69 20 -129 65
q-59 45 -98 125q-41 78 -41 191q2 190 119 297q111 106 281 108q63 0 133 -20q69 -21 129 -70q59 -45 98 -123q39 -80 39 -192q0 -68 -21 -138q-20 -71 -69 -131q-92 -131 -309 -135v0z" />
    <glyph glyph-name="Gbreve" unicode="&#xaf;" horiz-adv-x="661" 
d="M88 1104q-2 -15 16 -15h447q20 0 22 15v65q0 15 -18 15h-451q-16 0 -16 -15v-65z" />
    <glyph glyph-name="oslash" unicode="&#xb0;" horiz-adv-x="614" 
d="M307 1481q-102 -2 -164 -60q-63 -59 -63 -147q0 -92 59 -150q60 -61 168 -61q107 0 168 63q59 60 62 148q0 94 -60 149q-59 58 -170 58v0zM307 1415q55 0 96 -39q41 -37 43 -102q-2 -66 -43 -105q-41 -43 -96 -43q-51 0 -92 43q-45 39 -45 105q0 65 45 102q41 39 92 39v0
z" />
    <glyph glyph-name="oe" unicode="&#xb1;" 
d="M575 301v291h334v115h-334v280h-122v-280h-338v-115h338v-291h122zM115 133v-115h794v115h-794z" />
    <glyph glyph-name="uni00B2" unicode="&#xb2;" horiz-adv-x="686" 
d="M416 559q32 0 47 -2q14 -2 18 -14q10 -15 29 -13q20 -2 27 13l83 182q11 20 -16 27q-22 12 -35 -7q-20 -32 -53 -55q-33 -24 -92 -24h-227v4q63 43 217 200q163 176 161 314q-2 110 -71 163q-68 52 -158 52q-65 0 -115 -21q-49 -18 -84 -51q-32 -29 -51 -59
q-20 -31 -30 -54q-5 -12 4 -14l26 -14q13 -6 23 10q20 31 65 63q43 33 117 35q45 0 88 -33q43 -36 45 -118q-4 -148 -149 -295q-179 -184 -281 -260q-6 -8 -4 -19q0 -14 10 -14q35 2 117 4h289z" />
    <glyph glyph-name="uni00B3" unicode="&#xb3;" horiz-adv-x="686" 
d="M47 637q-2 -29 45 -60q43 -34 170 -36q146 0 238 73q94 72 96 197q-2 84 -62 141q-59 58 -129 70q56 31 101 84q43 51 45 131q0 51 -43 104q-47 56 -160 58q-63 0 -110 -19q-48 -18 -78 -49q-60 -61 -70 -131q-4 -16 8 -20l27 -7q14 -4 20 15q43 116 162 119
q58 -3 88 -37q33 -39 33 -86q-2 -72 -49 -113q-47 -43 -103 -51q-20 -4 -22 -23q-2 -22 29 -28q75 -15 122 -68q48 -53 50 -135q0 -57 -47 -107q-50 -53 -134 -55q-57 0 -79 19q-27 14 -31 22q-4 16 -17 41q-10 25 -47 27q-51 -2 -53 -76v0z" />
    <glyph glyph-name="ellipsis" unicode="&#xb4;" horiz-adv-x="661" 
d="M266 1036q6 -6 13 0l270 193q31 22 39 47q6 24 0 43q-19 43 -68 45q-31 0 -49 -17q-20 -16 -35 -34l-196 -244q-4 -6 2 -10z" />
    <glyph glyph-name="quotedblright" unicode="&#xb5;" horiz-adv-x="1065" 
d="M719 233q-2 -30 -21 -53q-30 -41 -84 -74q-53 -36 -112 -36q-66 0 -105 34q-39 31 -57 70q-21 53 -23 131q-4 76 -4 158v127q0 98 4 157v68q0 39 -28 39h-105q-26 0 -26 -39q4 -53 6 -242l2 -1118q-2 -12 18 -12l109 27q20 4 20 20q0 31 -10 189q-12 157 -12 380h4
q35 -47 76 -65q41 -19 73 -19q76 2 152 45t121 109h4q8 -49 37 -100q26 -52 90 -54q55 0 94 23q39 18 76 55q16 13 10 25l-12 22q-6 17 -23 4q-28 -22 -69 -24q-45 -2 -56 94q-2 80 -2 242v151q0 109 4 178q4 70 4 82q0 27 -38 27h-103q-24 -2 -22 -37q4 -53 8 -143v-441z
" />
    <glyph glyph-name="florin" unicode="&#xb6;" horiz-adv-x="1178" 
d="M733 1370q80 8 152 10v-1626q-2 -32 14 -30h51q15 0 15 16v1644h120q27 0 25 17v35q0 14 -23 14h-194q-182 0 -328 -19q-145 -20 -250 -75q-211 -103 -213 -398q0 -151 60 -243q57 -95 145 -142t182 -65q93 -21 164 -25v-727q-2 -32 15 -32h51q14 0 14 28v1618z" />
    <glyph glyph-name="scedilla" unicode="&#xb8;" horiz-adv-x="661" 
d="M254 10l-160 -205q135 -26 135 -104q-2 -57 -57 -86t-109 -29q-24 2 -45 -4q-18 -6 -20 -24q-2 -39 41 -41q108 2 207 55q47 29 78 66q28 36 28 84q-2 51 -37 88q-39 38 -90 51l119 149h-90z" />
    <glyph glyph-name="uni00B9" unicode="&#xb9;" horiz-adv-x="686" 
d="M428 1020q2 284 4 360q0 17 -16 19q-13 0 -37 -15l-283 -153q-12 -6 -8 -13l23 -40q2 -7 20 2l80 32q35 13 53 13q31 -2 31 -50q4 -100 4 -172v-61q-2 -164 -2 -250q2 -41 -14 -53q-15 -14 -80 -14h-60q-18 0 -18 -9v-53q0 -10 14 -10q72 4 215 6q54 0 127 -2
q74 -4 86 -4q15 0 15 10v49q0 13 -13 13h-47q-61 0 -78 14q-18 14 -16 57v324z" />
    <glyph glyph-name="fraction" unicode="&#xba;" horiz-adv-x="758" 
d="M365 541q157 0 251 90q97 86 99 231q0 135 -95 225q-73 74 -235 78q-49 0 -109 -12q-30 -6 -61 -23q-33 -18 -68 -45q-57 -51 -79 -114q-25 -64 -25 -115q0 -139 76 -215q51 -49 117 -74q65 -26 129 -26v0zM375 602q-25 0 -64 18q-39 19 -71 60q-23 35 -35 86
q-15 51 -15 133q0 94 78 168q33 25 64 33q30 4 49 4q70 0 125 -68q53 -67 55 -209q0 -94 -45 -157q-45 -66 -141 -68v0z" />
    <glyph glyph-name="Ecircumflex" unicode="&#xbb;" horiz-adv-x="844" 
d="M457 420q10 8 10 14t-8 12l-320 318q-8 10 -14 10q-4 0 -8 -4l-29 -31q-6 -4 -6 -10t6 -14l188 -281l-186 -282q-8 -7 -8 -15q0 -4 6 -10l27 -27q6 -6 10 -6q6 0 12 8zM780 420q10 8 10 14t-8 12l-317 318q-8 10 -14 10q-5 0 -9 -4l-30 -31q-7 -4 -7 -10t7 -14l188 -281
l-186 -282q-9 -7 -9 -15q0 -4 7 -10l28 -27q6 -6 11 -6q6 0 12 8z" />
    <glyph glyph-name="glyph160" unicode="&#xbc;" horiz-adv-x="1520" 
d="M1290 0q21 0 21 23v192h127q20 0 20 16v62q0 18 -14 18h-133v482q-2 47 -31 47q-12 0 -21 -9l-16 -16l-457 -547q-14 -14 -14 -30q0 -23 18 -23h396v-195q0 -22 16 -20h88zM1186 311h-252q-31 0 -8 33l231 270q12 15 23 11q6 -7 6 -23v-291zM1235 1339q8 13 8 19
q4 6 -35 28q-26 13 -33 13q-10 -2 -16 -17l-831 -1347q-11 -15 -11 -25q-2 -8 29 -24q33 -17 37 -17q8 0 20 27zM389 1020q2 284 4 360q0 17 -16 19q-12 0 -37 -15l-283 -153q-12 -6 -8 -13l23 -40q2 -7 20 2l80 32q35 13 53 13q31 -2 31 -50q4 -100 4 -172v-61
q-2 -164 -2 -250q2 -41 -14 -53q-15 -14 -80 -14h-60q-18 0 -18 -9v-53q0 -10 14 -10q72 4 215 6q54 0 127 -2q74 -4 86 -4q15 0 15 10v49q0 13 -13 13h-47q-61 0 -78 14q-18 14 -16 57v324z" />
    <glyph glyph-name="glyph163" unicode="&#xbd;" horiz-adv-x="1520" 
d="M1190 1339q8 13 8 19q4 6 -35 28q-26 13 -33 13q-10 -2 -16 -17l-831 -1347q-11 -15 -11 -25q-2 -8 29 -24q33 -17 37 -17q8 0 20 27zM1233 0q33 0 47 -2t18 -14q11 -13 29 -13q20 0 27 13l84 182q10 20 -17 26q-22 13 -35 -6q-20 -32 -53 -55q-33 -25 -92 -25h-227v5
q63 43 217 200q164 176 162 314q-3 110 -72 163q-68 52 -158 52q-65 0 -114 -21q-50 -18 -84 -51q-33 -29 -52 -59q-20 -31 -30 -54q-4 -12 4 -14l26 -14q13 -7 23 10q20 31 65 63q43 33 117 35q45 0 88 -33q43 -36 45 -118q-4 -148 -149 -295q-82 -90 -158 -156
q-78 -67 -123 -108q-8 -7 -8 -17q0 -12 14 -12q35 4 117 4h289zM375 1020q2 284 4 360q0 17 -17 19q-12 0 -36 -15l-283 -153q-12 -6 -8 -13l22 -40q2 -7 21 2l80 32q34 13 53 13q31 -2 31 -50q4 -100 4 -172v-61q-2 -164 -2 -250q2 -41 -15 -53q-14 -14 -80 -14h-59
q-18 0 -18 -9v-53q0 -10 14 -10q72 4 215 6q53 0 127 -2q74 -4 86 -4q14 0 14 10v49q0 13 -12 13h-47q-61 0 -78 14q-18 14 -16 57v324z" />
    <glyph glyph-name="glyph209" unicode="&#xbe;" horiz-adv-x="1520" 
d="M1231 1339q8 13 8 19q4 6 -35 28q-26 13 -33 13q-10 -2 -16 -17l-831 -1347q-11 -15 -11 -25q-2 -8 29 -24q33 -17 37 -17q8 0 20 27zM53 637q-2 -29 45 -60q43 -34 170 -36q146 0 238 73q94 72 96 197q-2 84 -61 141q-60 58 -129 70q55 31 100 84q43 51 45 131
q0 51 -43 104q-47 56 -160 58q-63 0 -110 -19q-47 -18 -78 -49q-60 -61 -70 -131q-4 -16 8 -20l27 -7q14 -4 21 15q43 116 161 119q58 -3 88 -37q33 -39 33 -86q-2 -72 -49 -113q-47 -43 -102 -51q-21 -4 -23 -23q-2 -22 29 -28q76 -15 123 -68t49 -135q0 -57 -47 -107
q-49 -53 -133 -55q-58 0 -80 19q-27 14 -31 22q-4 16 -16 41q-11 25 -48 27q-51 -2 -53 -76v0zM1270 0q20 0 20 23v192h127q21 0 21 16v62q0 18 -15 18h-133v482q-2 47 -31 47q-12 0 -20 -9l-16 -16l-457 -547q-14 -14 -14 -30q0 -23 18 -23h395v-195q0 -22 17 -20h88z
M1165 311h-252q-30 0 -8 33l232 270q12 15 22 11q6 -7 6 -23v-291z" />
    <glyph glyph-name="fi" unicode="&#xbf;" horiz-adv-x="758" 
d="M541 -557q32 0 53 12q18 11 29 23q16 33 16 45q0 43 -39 72q-41 28 -106 28q-62 0 -111 19q-53 20 -127 80q-43 34 -76 79q-35 43 -35 105q0 49 27 82q23 30 57 49q35 18 72 24q35 7 59 7q62 2 136 -7q22 -8 22 19v387q0 14 -14 14h-39q-17 0 -14 -14v-219q0 -17 -17 -17
q-43 0 -106 -2q-64 -4 -123 -28q-60 -21 -103 -72q-43 -53 -43 -152q0 -92 54 -186q51 -96 127 -174q75 -78 157 -125q80 -47 144 -49v0zM477 659q55 0 86 35q31 33 31 74q0 47 -33 80q-35 28 -80 31q-53 -3 -82 -31q-32 -31 -32 -82q0 -47 34 -76q33 -31 76 -31v0z" />
    <glyph glyph-name="Egrave" unicode="&#xc0;" horiz-adv-x="1522" 
d="M952 569q13 -30 31 -88q20 -57 39 -123q43 -139 59 -206q23 -80 -61 -78h-51q-19 0 -19 -15v-47q0 -18 17 -18q53 4 288 6q123 0 174 -2q50 -4 72 -4q21 0 21 14v51q0 15 -17 15h-67q-82 -2 -140 92q-26 63 -96 264q-33 94 -61 184q-31 93 -52 152q-118 360 -237 719
q-6 35 -23 35q-12 -3 -26 -19q-19 -24 -72 -57q-51 -33 -98 -45q-21 -9 -19 -19q0 -12 15 -26q12 -17 8 -35q-4 -19 -10 -35q-103 -279 -199 -537q-145 -391 -223 -579q-21 -49 -47 -70q-27 -24 -72 -24h-72q-14 0 -16 -15v-49q0 -16 14 -16q21 4 224 6q92 0 153 -2
q59 -4 80 -4q16 0 16 18v47q0 15 -20 15h-96q-70 0 -70 45q0 20 6 45q14 49 70 201q24 69 47 126q20 58 26 78h504zM475 643q25 70 113 311q88 242 106 291q10 29 23 31q8 -2 16 -29q92 -278 195 -604h-453zM838 1603q10 11 0 19l-285 233q-45 41 -84 41q-31 0 -51 -20
q-23 -23 -23 -51q0 -50 60 -82l342 -168q12 -4 16 0z" />
    <glyph glyph-name="zcaron" unicode="&#xc1;" horiz-adv-x="1522" 
d="M952 569q13 -30 31 -88q20 -57 39 -123q43 -139 59 -206q23 -80 -61 -78h-51q-19 0 -19 -15v-47q0 -18 17 -18q53 4 288 6q123 0 174 -2q50 -4 72 -4q21 0 21 14v51q0 15 -17 15h-67q-82 -2 -140 92q-26 63 -96 264q-33 94 -61 184q-31 93 -52 152q-118 360 -237 719
q-6 35 -23 35q-12 -3 -26 -19q-19 -24 -72 -57q-51 -33 -98 -45q-21 -9 -19 -19q0 -12 15 -26q12 -17 8 -35q-4 -19 -10 -35q-103 -279 -199 -537q-145 -391 -223 -579q-21 -49 -47 -70q-27 -24 -72 -24h-72q-14 0 -16 -15v-49q0 -16 14 -16q21 4 224 6q92 0 153 -2
q59 -4 80 -4q16 0 16 18v47q0 15 -20 15h-96q-70 0 -70 45q0 20 6 45q14 49 70 201q24 69 47 126q20 58 26 78h504zM475 643q25 70 113 311q88 242 106 291q10 29 23 31q8 -2 16 -29q92 -278 195 -604h-453zM678 1575q4 -4 14 0l344 168q60 32 60 82q0 28 -19 51
q-20 20 -55 20q-39 0 -84 -41l-281 -231q-10 -8 -4 -16z" />
    <glyph glyph-name="scaron" unicode="&#xc2;" horiz-adv-x="1522" 
d="M952 569q13 -30 31 -88q20 -57 39 -123q43 -139 59 -206q23 -80 -61 -78h-51q-19 0 -19 -15v-47q0 -18 17 -18q53 4 288 6q123 0 174 -2q50 -4 72 -4q21 0 21 14v51q0 15 -17 15h-67q-82 -2 -140 92q-26 63 -96 264q-33 94 -61 184q-31 93 -52 152q-118 360 -237 719
q-6 35 -23 35q-12 -3 -26 -19q-19 -24 -72 -57q-51 -33 -98 -45q-21 -9 -19 -19q0 -12 15 -26q12 -17 8 -35q-4 -19 -10 -35q-103 -279 -199 -537q-145 -391 -223 -579q-21 -49 -47 -70q-27 -24 -72 -24h-72q-14 0 -16 -15v-49q0 -16 14 -16q21 4 224 6q92 0 153 -2
q59 -4 80 -4q16 0 16 18v47q0 15 -20 15h-96q-70 0 -70 45q0 20 6 45q14 49 70 201q24 69 47 126q20 58 26 78h504zM475 643q25 70 113 311q88 242 106 291q10 29 23 31q8 -2 16 -29q92 -278 195 -604h-453zM774 1694l262 -117q13 -6 19 2l14 18q6 9 -2 17l-260 229
q-17 16 -29 18q-10 -2 -26 -18l-252 -227q-13 -10 -6 -19l16 -20q8 -8 20 0l244 117v0z" />
    <glyph glyph-name="Iacute" unicode="&#xc3;" horiz-adv-x="1522" 
d="M952 569q13 -30 31 -88q20 -57 39 -123q43 -139 59 -206q23 -80 -61 -78h-51q-19 0 -19 -15v-47q0 -18 17 -18q53 4 288 6q123 0 174 -2q50 -4 72 -4q21 0 21 14v51q0 15 -17 15h-67q-82 -2 -140 92q-26 63 -96 264q-33 94 -61 184q-31 93 -52 152q-118 360 -237 719
q-6 35 -23 35q-12 -3 -26 -19q-19 -24 -72 -57q-51 -33 -98 -45q-21 -9 -19 -19q0 -12 15 -26q12 -17 8 -35q-4 -19 -10 -35q-103 -279 -199 -537q-145 -391 -223 -579q-21 -49 -47 -70q-27 -24 -72 -24h-72q-14 0 -16 -15v-49q0 -16 14 -16q21 4 224 6q92 0 153 -2
q59 -4 80 -4q16 0 16 18v47q0 15 -20 15h-96q-70 0 -70 45q0 20 6 45q14 49 70 201q24 69 47 126q20 58 26 78h504zM475 643q25 70 113 311q88 242 106 291q10 29 23 31q8 -2 16 -29q92 -278 195 -604h-453zM528 1601q11 0 15 11q10 41 32 61q23 21 48 21q61 0 127 -21
q49 -12 88 -22q38 -15 81 -15q68 0 109 51q37 50 49 109q8 39 -6 37h-35q-12 0 -14 -12q-4 -23 -19 -46q-14 -24 -49 -24q-67 0 -139 27q-43 12 -80 22q-39 10 -84 10q-131 -4 -166 -174q-8 -37 6 -35h37z" />
    <glyph glyph-name="ucircumflex" unicode="&#xc4;" horiz-adv-x="1522" 
d="M952 569q13 -30 31 -88q20 -57 39 -123q43 -139 59 -206q23 -80 -61 -78h-51q-19 0 -19 -15v-47q0 -18 17 -18q53 4 288 6q123 0 174 -2q50 -4 72 -4q21 0 21 14v51q0 15 -17 15h-67q-82 -2 -140 92q-26 63 -96 264q-33 94 -61 184q-31 93 -52 152q-118 360 -237 719
q-6 35 -23 35q-12 -3 -26 -19q-19 -24 -72 -57q-51 -33 -98 -45q-21 -9 -19 -19q0 -12 15 -26q12 -17 8 -35q-4 -19 -10 -35q-103 -279 -199 -537q-145 -391 -223 -579q-21 -49 -47 -70q-27 -24 -72 -24h-72q-14 0 -16 -15v-49q0 -16 14 -16q21 4 224 6q92 0 153 -2
q59 -4 80 -4q16 0 16 18v47q0 15 -20 15h-96q-70 0 -70 45q0 20 6 45q14 49 70 201q24 69 47 126q20 58 26 78h504zM475 643q25 70 113 311q88 242 106 291q10 29 23 31q8 -2 16 -29q92 -278 195 -604h-453zM575 1802q-59 -2 -84 -35q-22 -32 -22 -55q2 -57 41 -78
q16 -10 35 -16q18 -6 30 -6q39 0 64 26q27 25 27 66q0 47 -27 74q-29 24 -64 24v0zM983 1802q-59 -2 -84 -35q-23 -32 -23 -55q3 -57 41 -78q17 -10 35 -16q19 -6 31 -6q88 2 92 92q0 47 -26 74q-29 24 -66 24v0z" />
    <glyph glyph-name="udieresis" unicode="&#xc5;" horiz-adv-x="1522" 
d="M952 569q13 -30 31 -88q20 -57 39 -123q43 -139 59 -206q23 -80 -61 -78h-51q-19 0 -19 -15v-47q0 -18 17 -18q53 4 288 6q123 0 174 -2q50 -4 72 -4q21 0 21 14v51q0 15 -17 15h-67q-82 -2 -140 92q-26 63 -96 264q-33 94 -61 184q-31 93 -52 152q-122 383 -210 639
q-3 16 -9 31q-6 14 -18 14q-21 -2 -66 -23q-61 -16 -153 -30q-21 -4 -19 -17q0 -12 15 -26q12 -17 8 -35q-4 -19 -10 -35q-103 -279 -199 -537q-145 -391 -223 -579q-21 -49 -47 -70q-27 -24 -72 -24h-72q-14 0 -16 -15v-49q0 -16 14 -16q21 4 224 6q92 0 153 -2
q59 -4 80 -4q16 0 16 18v47q0 15 -20 15h-96q-70 0 -70 45q0 20 6 45q14 49 70 201q24 69 47 126q20 58 26 78h504zM475 643q25 70 113 311q88 242 106 291q8 29 23 31q12 -2 16 -29q92 -278 195 -604h-453zM756 1546q67 0 137 35q35 18 55 51q21 31 21 80q0 61 -47 102
q-50 39 -148 39q-86 -2 -147 -43q-64 -43 -64 -118q0 -68 60 -105q55 -41 133 -41v0zM766 1597q-47 0 -72 31q-24 29 -24 74q0 35 26 67q25 31 74 33q37 0 66 -24q26 -27 26 -76q-2 -103 -96 -105v0z" />
    <glyph glyph-name="Atilde" unicode="&#xc6;" horiz-adv-x="1892" 
d="M1003 1384l355 -6q30 0 71 -12q39 -14 66 -47l194 -232q9 -10 21 -4l25 15q14 4 6 18q-49 158 -103 332q-4 10 -16 10q-23 -4 -84 -6q-254 -2 -510 -2h-139q-178 4 -266 8q-23 2 -23 -18v-43q-2 -19 18 -19h37q68 2 29 -96q-29 -55 -133 -238q-109 -184 -174 -299
q-78 -147 -182 -337q-50 -91 -86 -156q-37 -66 -52 -84q-24 -35 -51 -64q-29 -30 -59 -30h-70q-14 0 -14 -19v-35q0 -24 14 -26q35 4 223 6q115 0 164 -2q49 -4 66 -4q20 0 18 26v37q0 15 -20 17h-99q-20 0 -37 12q-20 12 -20 35q0 33 23 88q61 129 223 442h407v-487
q0 -53 -10 -72q-10 -20 -49 -18h-117q-18 0 -18 -19v-43q-2 -18 20 -18q47 4 252 6q463 0 619 -2q155 -4 161 -4q25 0 33 31l113 309q4 14 -13 20l-24 15q-17 12 -31 -9l-160 -215q-30 -39 -75 -53q-47 -16 -90 -18q-89 -6 -158 -6q-90 0 -170 12q-49 10 -74 45
q-26 33 -26 117q-5 123 -5 350v59q95 0 283 -6q74 -10 84 -78l27 -100q2 -16 16 -12l41 6q18 0 16 16q-10 82 -12 213q0 31 2 117q0 39 4 69v46q2 14 -16 14l-45 4q-19 6 -19 -14l-18 -101q-8 -47 -27 -63q-20 -21 -63 -25q-31 -2 -137 -6q-109 -6 -136 -6v659zM461 725
l313 565q16 27 33 25q18 -2 18 -33v-557h-364z" />
    <glyph glyph-name="dagger" unicode="&#xc7;" horiz-adv-x="1528" 
d="M620 -195q132 -28 132 -104q-2 -57 -56 -86q-53 -29 -106 -29q-25 2 -45 -4q-21 -6 -21 -24q-2 -39 41 -41q111 2 213 55q51 29 82 66q29 36 29 84q0 51 -39 88q-41 34 -98 51l86 108q215 4 366 107q150 100 242 237q8 15 -4 19l-27 20q-8 10 -16 -6q-72 -102 -201 -178
q-129 -80 -305 -82q-100 -2 -195 29q-94 30 -198 143q-117 137 -158 287q-41 145 -39 239q-2 236 119 426q121 193 393 199q121 0 209 -45q84 -43 147 -113q62 -61 103 -131q39 -69 57 -121q8 -26 21 -18l30 8q13 4 8 21q-8 59 -28 206q-23 148 -23 191q0 20 -2 29
q-6 4 -20 4q-25 2 -27 -13l-16 -59q-4 -23 -41 0q-55 37 -162 74q-109 37 -252 39q-168 -2 -299 -60q-133 -61 -213 -147q-213 -246 -209 -543q0 -151 56 -307q55 -158 163 -266q82 -74 187 -121q102 -49 248 -64z" />
    <glyph glyph-name="Eth" unicode="&#xc8;" horiz-adv-x="1413" 
d="M487 1384l365 -8q88 -8 156 -55q20 -10 55 -45q31 -35 65 -78q74 -94 84 -111q6 -8 17 -6l30 17q11 6 7 18q-52 160 -105 330q-2 10 -16 10q-25 -4 -82 -4q-303 -2 -608 -2h-90q-193 4 -252 6q-15 0 -15 -10v-56q0 -16 17 -14h73q58 0 80 -14q13 -8 19 -25q4 -16 6 -41
q4 -24 6 -166v-280v-201v-485q0 -53 -14 -72q-19 -20 -88 -18h-82q-21 0 -21 -11v-55q0 -14 19 -14q43 4 262 6q469 0 643 -2q172 -4 176 -4q37 2 45 31l108 301q11 22 -4 28l-32 19q-17 6 -25 -13q-27 -41 -84 -116q-59 -76 -84 -99q-43 -32 -94 -49q-53 -18 -84 -22
q-96 -6 -180 -6t-152 14q-47 8 -80 45q-32 37 -37 115q-4 123 -4 350v127q88 0 271 -10q41 -2 61 -25q19 -20 27 -55q12 -45 22 -97q2 -20 17 -18l45 6q12 2 12 17q-10 86 -12 213q0 32 2 116q0 21 4 39v33v45q4 14 -12 16l-52 2q-14 0 -14 -14q-4 -63 -16 -100
q-17 -84 -95 -90q-30 -2 -131 -7q-104 -6 -129 -6v600zM844 1603q10 11 0 19l-285 233q-45 41 -84 41q-31 0 -51 -20q-23 -23 -23 -51q0 -50 60 -82l342 -168q12 -4 16 0z" />
    <glyph glyph-name="degree" unicode="&#xc9;" horiz-adv-x="1413" 
d="M487 1384l365 -8q88 -8 156 -55q20 -10 55 -45q31 -35 65 -78q74 -94 84 -111q6 -8 17 -6l30 17q11 6 7 18q-52 160 -105 330q-2 10 -16 10q-25 -4 -82 -4q-303 -2 -608 -2h-90q-193 4 -252 6q-15 0 -15 -10v-56q0 -16 17 -14h73q58 0 80 -14q13 -8 19 -25q4 -16 6 -41
q4 -24 6 -166v-280v-201v-485q0 -53 -14 -72q-19 -20 -88 -18h-82q-21 0 -21 -11v-55q0 -14 19 -14q43 4 262 6q469 0 643 -2q172 -4 176 -4q37 2 45 31l108 301q11 22 -4 28l-32 19q-17 6 -25 -13q-27 -41 -84 -116q-59 -76 -84 -99q-43 -32 -94 -49q-53 -18 -84 -22
q-96 -6 -180 -6t-152 14q-47 8 -80 45q-32 37 -37 115q-4 123 -4 350v127q88 0 271 -10q41 -2 61 -25q19 -20 27 -55q12 -45 22 -97q2 -20 17 -18l45 6q12 2 12 17q-10 86 -12 213q0 32 2 116q0 21 4 39v33v45q4 14 -12 16l-52 2q-14 0 -14 -14q-4 -63 -16 -100
q-17 -84 -95 -90q-30 -2 -131 -7q-104 -6 -129 -6v600zM614 1575q4 -4 15 0l344 168q59 32 59 82q0 28 -18 51q-21 20 -56 20q-39 0 -84 -41l-280 -231q-10 -8 -4 -16z" />
    <glyph glyph-name="Zcaron" unicode="&#xca;" horiz-adv-x="1413" 
d="M487 1384l365 -8q88 -8 156 -55q20 -10 55 -45q31 -35 65 -78q74 -94 84 -111q6 -8 17 -6l30 17q11 6 7 18q-52 160 -105 330q-2 10 -16 10q-25 -4 -82 -4q-303 -2 -608 -2h-90q-193 4 -252 6q-15 0 -15 -10v-56q0 -16 17 -14h73q58 0 80 -14q13 -8 19 -25q4 -16 6 -41
q4 -24 6 -166v-280v-201v-485q0 -53 -14 -72q-19 -20 -88 -18h-82q-21 0 -21 -11v-55q0 -14 19 -14q43 4 262 6q469 0 643 -2q172 -4 176 -4q37 2 45 31l108 301q11 22 -4 28l-32 19q-17 6 -25 -13q-27 -41 -84 -116q-59 -76 -84 -99q-43 -32 -94 -49q-53 -18 -84 -22
q-96 -6 -180 -6t-152 14q-47 8 -80 45q-32 37 -37 115q-4 123 -4 350v127q88 0 271 -10q41 -2 61 -25q19 -20 27 -55q12 -45 22 -97q2 -20 17 -18l45 6q12 2 12 17q-10 86 -12 213q0 32 2 116q0 21 4 39v33v45q4 14 -12 16l-52 2q-14 0 -14 -14q-4 -63 -16 -100
q-17 -84 -95 -90q-30 -2 -131 -7q-104 -6 -129 -6v600zM731 1694l262 -117q12 -6 19 2l14 18q6 9 -2 17l-260 229q-17 16 -29 18q-10 -2 -26 -18l-252 -227q-13 -10 -6 -19l16 -20q8 -8 20 0l244 117v0z" />
    <glyph glyph-name="brokenbar" unicode="&#xcb;" horiz-adv-x="1413" 
d="M487 1384l365 -8q88 -8 156 -55q20 -10 55 -45q31 -35 65 -78q74 -94 84 -111q6 -8 17 -6l30 17q11 6 7 18q-52 160 -105 330q-2 10 -16 10q-25 -4 -82 -4q-303 -2 -608 -2h-90q-193 4 -252 6q-15 0 -15 -10v-56q0 -16 17 -14h73q58 0 80 -14q13 -8 19 -25q4 -16 6 -41
q4 -24 6 -166v-280v-201v-485q0 -53 -14 -72q-19 -20 -88 -18h-82q-21 0 -21 -11v-55q0 -14 19 -14q43 4 262 6q469 0 643 -2q172 -4 176 -4q37 2 45 31l108 301q11 22 -4 28l-32 19q-17 6 -25 -13q-27 -41 -84 -116q-59 -76 -84 -99q-43 -32 -94 -49q-53 -18 -84 -22
q-96 -6 -180 -6t-152 14q-47 8 -80 45q-32 37 -37 115q-4 123 -4 350v127q88 0 271 -10q41 -2 61 -25q19 -20 27 -55q12 -45 22 -97q2 -20 17 -18l45 6q12 2 12 17q-10 86 -12 213q0 32 2 116q0 21 4 39v33v45q4 14 -12 16l-52 2q-14 0 -14 -14q-4 -63 -16 -100
q-17 -84 -95 -90q-30 -2 -131 -7q-104 -6 -129 -6v600zM530 1802q-59 -2 -84 -35q-22 -32 -22 -55q2 -57 41 -78q16 -10 35 -16q18 -6 30 -6q39 0 64 26q26 25 26 66q0 47 -26 74q-29 24 -64 24v0zM938 1802q-59 -2 -84 -35q-23 -32 -23 -55q2 -57 41 -78q17 -10 35 -16
q19 -6 31 -6q88 2 92 92q0 47 -27 74q-28 24 -65 24v0z" />
    <glyph glyph-name="Thorn" unicode="&#xcc;" horiz-adv-x="760" 
d="M287 715q0 -103 -2 -318q-4 -217 -9 -264q-6 -39 -32 -49q-27 -10 -60 -10h-114q-17 0 -17 -13v-55q0 -12 17 -12q24 4 305 6q135 0 200 -2q68 -4 84 -4q19 0 19 12v53q0 15 -17 15h-84q-47 0 -71 14q-25 14 -25 59q-4 261 -6 517v157q4 252 6 498q0 31 23 45
q18 12 49 12h96q17 0 17 14v52q0 14 -15 14q-22 -4 -276 -6q-142 0 -221 4q-80 2 -99 2q-14 0 -14 -12v-56q0 -12 16 -12h119q57 0 80 -14q20 -19 23 -55q6 -211 8 -449v-143zM477 1603q10 11 0 19l-285 233q-45 41 -83 41q-31 0 -52 -20q-22 -23 -22 -51q0 -50 59 -82
l342 -168q12 -4 17 0z" />
    <glyph glyph-name="eth" unicode="&#xcd;" horiz-adv-x="760" 
d="M287 715q0 -103 -2 -318q-4 -217 -9 -264q-6 -39 -32 -49q-27 -10 -60 -10h-114q-17 0 -17 -13v-55q0 -12 17 -12q24 4 305 6q135 0 200 -2q68 -4 84 -4q19 0 19 12v53q0 15 -17 15h-84q-47 0 -71 14q-25 14 -25 59q-4 261 -6 517v157q4 252 6 498q0 31 23 45
q18 12 49 12h96q17 0 17 14v52q0 14 -15 14q-22 -4 -276 -6q-142 0 -221 4q-80 2 -99 2q-14 0 -14 -12v-56q0 -12 16 -12h119q57 0 80 -14q20 -19 23 -55q6 -211 8 -449v-143zM307 1575q4 -4 15 0l344 168q59 32 59 82q0 28 -18 51q-21 20 -56 20q-39 0 -84 -41l-280 -231
q-11 -8 -4 -16z" />
    <glyph glyph-name="Yacute" unicode="&#xce;" horiz-adv-x="760" 
d="M287 715q0 -103 -2 -318q-4 -217 -9 -264q-6 -39 -32 -49q-27 -10 -60 -10h-114q-17 0 -17 -13v-55q0 -12 17 -12q24 4 305 6q135 0 200 -2q68 -4 84 -4q19 0 19 12v53q0 15 -17 15h-84q-47 0 -71 14q-25 14 -25 59q-4 261 -6 517v157q4 252 6 498q0 31 23 45
q18 12 49 12h96q17 0 17 14v52q0 14 -15 14q-22 -4 -276 -6q-142 0 -221 4q-80 2 -99 2q-14 0 -14 -12v-56q0 -12 16 -12h119q57 0 80 -14q20 -19 23 -55q6 -211 8 -449v-143zM373 1694l262 -117q12 -6 18 2l15 18q6 9 -2 17l-261 229q-16 16 -28 18q-10 -2 -27 -18
l-252 -227q-12 -10 -6 -19l17 -20q8 -8 20 0l244 117v0z" />
    <glyph glyph-name="yacute" unicode="&#xcf;" horiz-adv-x="760" 
d="M287 715q0 -103 -2 -318q-4 -217 -9 -264q-6 -39 -32 -49q-27 -10 -60 -10h-114q-17 0 -17 -13v-55q0 -12 17 -12q24 4 305 6q135 0 200 -2q68 -4 84 -4q19 0 19 12v53q0 15 -17 15h-84q-47 0 -71 14q-25 14 -25 59q-4 261 -6 517v157q4 252 6 498q0 31 23 45
q18 12 49 12h96q17 0 17 14v52q0 14 -15 14q-22 -4 -276 -6q-142 0 -221 4q-80 2 -99 2q-14 0 -14 -12v-56q0 -12 16 -12h119q57 0 80 -14q20 -19 23 -55q6 -211 8 -449v-143zM184 1802q-59 -2 -84 -35q-22 -32 -22 -55q2 -57 41 -78q16 -10 35 -16q18 -6 30 -6q39 0 64 26
q26 25 26 66q0 47 -26 74q-29 24 -64 24v0zM592 1802q-60 -2 -84 -35q-23 -32 -23 -55q2 -57 41 -78q17 -10 35 -16q19 -6 31 -6q88 2 92 92q0 47 -27 74q-28 24 -65 24v0z" />
    <glyph glyph-name="glyph210" unicode="&#xd0;" horiz-adv-x="1665" 
d="M481 887q0 153 2 387q0 69 39 96q31 16 80 18t84 2q348 -6 514 -196q162 -189 168 -453q-6 -290 -150 -460q-161 -215 -479 -222q-78 0 -135 19q-59 16 -84 47q-37 57 -35 115q-4 280 -4 452h348q19 -2 19 19v41q2 18 -19 18h-348v117zM59 10q-2 -16 17 -16q28 4 286 6
q230 -2 377 -6q60 0 140 4q77 4 165 25q179 32 332 188q203 203 203 539q-8 354 -227 522q-136 114 -301 151q-166 35 -365 33q-123 -4 -305 -6q-285 4 -299 6q-19 0 -16 -16v-45q-3 -21 12 -19h117q81 0 88 -57q4 -41 8 -182q2 -142 2 -197v-170h-199q-20 0 -18 -18v-41
q-2 -19 18 -19h199v-55q0 -156 -4 -313q-4 -158 -8 -189q-11 -63 -68 -61h-139q-17 0 -15 -15v-49z" />
    <glyph glyph-name="cent" unicode="&#xd1;" horiz-adv-x="1628" 
d="M276 836q0 -564 -8 -637q-6 -72 -26 -99q-21 -28 -66 -26h-70q-14 -2 -12 -13v-53q0 -14 10 -14q86 4 205 6q49 0 115 -2q63 -4 84 -4q16 0 16 16v45q0 19 -16 19h-62q-73 0 -75 118q-17 170 -21 566v454h12q33 -39 203 -252q78 -96 139 -170q62 -73 70 -88
q14 -14 105 -125q90 -112 200 -253q101 -125 174 -215q72 -93 76 -101q6 -8 18 -18q13 -13 31 -15q10 2 10 50v765q-2 234 9 474q2 112 80 112h55q12 0 12 14v52q0 14 -16 14q-27 -4 -199 -6q-98 0 -149 4q-56 2 -76 2q-12 0 -12 -12v-54q0 -14 12 -14h65q88 -2 113 -80
q10 -35 18 -139q7 -106 7 -176q6 -133 6 -385v-244h-9q-229 287 -417 518q-223 291 -430 557q-23 27 -60 27q-35 -4 -137 -4t-145 4q-43 0 -58 2q-14 0 -12 -12v-54q-2 -14 12 -14l84 -2q58 0 97 -49q38 -49 38 -141v-348zM602 1601q10 0 14 11q11 41 33 61q23 21 47 21
q62 0 127 -21q49 -12 88 -22q39 -15 82 -15q68 0 109 51q37 50 49 109q8 39 -6 37h-35q-12 0 -14 -12q-4 -23 -19 -46q-14 -24 -49 -24q-68 0 -139 27q-43 12 -80 22q-39 10 -84 10q-131 -4 -166 -174q-8 -37 6 -35h37z" />
    <glyph glyph-name="onesuperior" unicode="&#xd2;" horiz-adv-x="1681" 
d="M840 -31q211 2 356 84q143 80 233 205q156 219 154 449q-2 210 -84 364q-80 154 -197 248q-120 98 -239 133q-121 29 -219 29q-129 2 -273 -48q-145 -51 -282 -212q-113 -144 -154 -279q-39 -133 -37 -231q2 -226 97 -381q92 -158 204 -228q127 -71 246 -102
q117 -31 195 -31v0zM856 47q-66 0 -158 39t-180 125t-147 227q-64 139 -64 338q0 129 53 268q50 136 152 238q59 55 113 82q53 26 96 35q45 8 76 8q28 -4 39 -4q184 -2 360 -187q180 -186 186 -526q0 -70 -16 -174q-21 -106 -76 -213q-53 -106 -160 -178q-106 -76 -274 -78
v0zM958 1603q11 11 0 19l-284 233q-45 41 -84 41q-31 0 -51 -20q-23 -23 -23 -51q0 -50 59 -82l342 -168q13 -4 17 0z" />
    <glyph glyph-name="thorn" unicode="&#xd3;" horiz-adv-x="1681" 
d="M840 -31q211 2 356 84q143 80 233 205q156 219 154 449q-2 210 -84 364q-80 154 -197 248q-120 98 -239 133q-121 29 -219 29q-129 2 -273 -48q-145 -51 -282 -212q-113 -144 -154 -279q-39 -133 -37 -231q2 -226 97 -381q92 -158 204 -228q127 -71 246 -102
q117 -31 195 -31v0zM856 47q-66 0 -158 39t-180 125t-147 227q-64 139 -64 338q0 129 53 268q50 136 152 238q59 55 113 82q53 26 96 35q45 8 76 8q28 -4 39 -4q184 -2 360 -187q180 -186 186 -526q0 -70 -16 -174q-21 -106 -76 -213q-53 -106 -160 -178q-106 -76 -274 -78
v0zM727 1575q4 -4 14 0l344 168q60 32 60 82q0 28 -19 51q-20 20 -55 20q-39 0 -84 -41l-280 -231q-11 -8 -5 -16z" />
    <glyph glyph-name="minus" unicode="&#xd4;" horiz-adv-x="1681" 
d="M840 -31q211 2 356 84q143 80 233 205q156 219 154 449q-2 210 -84 364q-80 154 -197 248q-120 98 -239 133q-121 29 -219 29q-129 2 -273 -48q-145 -51 -282 -212q-113 -144 -154 -279q-39 -133 -37 -231q2 -226 97 -381q92 -158 204 -228q127 -71 246 -102
q117 -31 195 -31v0zM856 47q-66 0 -158 39t-180 125t-147 227q-64 139 -64 338q0 129 53 268q50 136 152 238q59 55 113 82q53 26 96 35q45 8 76 8q28 -4 39 -4q184 -2 360 -187q180 -186 186 -526q0 -70 -16 -174q-21 -106 -76 -213q-53 -106 -160 -178q-106 -76 -274 -78
v0zM833 1694l263 -117q12 -6 18 2l14 18q7 9 -2 17l-260 229q-16 16 -28 18q-11 -2 -27 -18l-252 -227q-12 -10 -6 -19l16 -20q8 -8 21 0l243 117v0z" />
    <glyph glyph-name="Icircumflex" unicode="&#xd5;" horiz-adv-x="1681" 
d="M840 -31q211 2 356 84q143 80 233 205q156 219 154 449q-2 210 -84 364q-80 154 -197 248q-120 98 -239 133q-121 29 -219 29q-129 2 -273 -48q-145 -51 -282 -212q-113 -144 -154 -279q-39 -133 -37 -231q2 -226 97 -381q92 -158 204 -228q127 -71 246 -102
q117 -31 195 -31v0zM856 47q-66 0 -158 39t-180 125t-147 227q-64 139 -64 338q0 129 53 268q50 136 152 238q59 55 113 82q53 26 96 35q45 8 76 8q28 -4 39 -4q184 -2 360 -187q180 -186 186 -526q0 -70 -16 -174q-21 -106 -76 -213q-53 -106 -160 -178q-106 -76 -274 -78
v0zM588 1601q10 0 14 11q10 41 33 61q22 21 47 21q61 0 127 -21q49 -12 88 -22q39 -15 82 -15q67 0 108 51q37 50 50 109q8 39 -7 37h-34q-13 0 -15 -12q-4 -23 -18 -46q-14 -24 -49 -24q-68 0 -140 27q-43 12 -79 22q-39 10 -84 10q-131 -4 -166 -174q-8 -37 6 -35h37z" />
    <glyph glyph-name="sterling" unicode="&#xd6;" horiz-adv-x="1681" 
d="M840 -31q211 2 356 84q143 80 233 205q156 219 154 449q-2 210 -84 364q-80 154 -197 248q-120 98 -239 133q-121 29 -219 29q-129 2 -273 -48q-145 -51 -282 -212q-113 -144 -154 -279q-39 -133 -37 -231q2 -226 97 -381q92 -158 204 -228q127 -71 246 -102
q117 -31 195 -31v0zM856 47q-66 0 -158 39t-180 125t-147 227q-64 139 -64 338q0 129 53 268q50 136 152 238q59 55 113 82q53 26 96 35q45 8 76 8q28 -4 39 -4q184 -2 360 -187q180 -186 186 -526q0 -70 -16 -174q-21 -106 -76 -213q-53 -106 -160 -178q-106 -76 -274 -78
v0zM645 1802q-59 -2 -84 -35q-22 -32 -22 -55q2 -57 41 -78q16 -10 34 -16q19 -6 31 -6q39 0 64 26q26 25 26 66q0 47 -26 74q-29 24 -64 24v0zM1053 1802q-60 -2 -84 -35q-23 -32 -23 -55q2 -57 41 -78q16 -10 35 -16q18 -6 31 -6q88 2 92 92q0 47 -27 74q-29 24 -65 24v0z
" />
    <glyph glyph-name="multiply" unicode="&#xd7;" 
d="M803 121l84 86l-297 293l295 290l-78 76v0l-293 -295v0l-293 295v0l-82 -84l291 -286l-293 -289l72 -86v0l297 299v0l297 -299v0z" />
    <glyph glyph-name="Otilde" unicode="&#xd8;" horiz-adv-x="1681" 
d="M147 -20q11 -11 17 -11t16 13l162 163q31 -26 57 -43q127 -71 246 -102q117 -31 195 -31q211 2 356 84q143 80 233 205q156 219 154 449q-6 327 -182 511l186 191q4 6 6 10q-2 6 -10 12l-51 41q-6 9 -10 9q-7 0 -13 -9l-178 -180q-14 15 -29 27q-120 98 -239 133
q-121 29 -219 29q-129 2 -273 -48q-145 -51 -282 -212q-113 -144 -154 -279q-39 -133 -37 -231q6 -318 172 -494l-164 -166q-8 -12 -8 -18t8 -15zM1280 1096v0q100 -164 102 -406q0 -70 -16 -174q-21 -106 -76 -213q-53 -106 -160 -178q-106 -76 -274 -78q-78 0 -186 53
q-111 52 -207 168zM408 356v0q-99 162 -101 420q0 129 53 268q50 138 154 236q59 55 111 82q53 26 96 35q45 8 76 8q28 -2 39 -2q94 0 198 -56q101 -55 189 -165z" />
    <glyph glyph-name="onehalf" unicode="&#xd9;" horiz-adv-x="1528" 
d="M758 -31q264 2 385 123q164 146 172 395q10 273 10 467q0 39 2 174q0 62 2 109v57q4 21 21 51q14 29 67 31h84q12 0 12 21v45q2 12 -20 14q-21 -4 -225 -6q-103 0 -168 4q-68 2 -84 2q-17 0 -15 -14v-49q-2 -17 15 -17h90q82 -2 92 -90q10 -84 10 -326v-438
q2 -229 -106 -360q-53 -56 -135 -82q-82 -31 -172 -31q-91 0 -179 33t-147 115q-33 53 -49 122q-15 66 -17 138q-8 184 -10 434v135q0 199 4 266q8 80 99 84h102q16 0 16 14v54q2 12 -18 12q-37 -4 -281 -6q-118 0 -190 4q-74 2 -90 2q-21 0 -19 -16v-45q-2 -21 15 -19h96
q82 0 78 -104v-488q-2 -381 33 -497q43 -193 243 -275q109 -43 277 -43v0zM901 1603q10 11 0 19l-285 233q-45 41 -84 41q-30 0 -51 -20q-22 -23 -22 -51q0 -50 59 -82l342 -168q12 -4 16 0z" />
    <glyph glyph-name="twosuperior" unicode="&#xda;" horiz-adv-x="1528" 
d="M758 -31q264 2 385 123q164 146 172 395q10 273 10 467q0 39 2 174q0 62 2 109v57q4 21 21 51q14 29 67 31h84q12 0 12 21v45q2 12 -20 14q-21 -4 -225 -6q-103 0 -168 4q-68 2 -84 2q-17 0 -15 -14v-49q-2 -17 15 -17h90q82 -2 92 -90q10 -84 10 -326v-438
q2 -229 -106 -360q-53 -56 -135 -82q-82 -31 -172 -31q-91 0 -179 33t-147 115q-33 53 -49 122q-15 66 -17 138q-8 184 -10 434v135q0 199 4 266q8 80 99 84h102q16 0 16 14v54q2 12 -18 12q-37 -4 -281 -6q-118 0 -190 4q-74 2 -90 2q-21 0 -19 -16v-45q-2 -21 15 -19h96
q82 0 78 -104v-488q-2 -381 33 -497q43 -193 243 -275q109 -43 277 -43v0zM754 1575q4 -4 14 0l344 168q59 32 59 82q0 28 -18 51q-21 20 -55 20q-39 0 -84 -41l-281 -231q-10 -8 -4 -16z" />
    <glyph glyph-name="threesuperior" unicode="&#xdb;" horiz-adv-x="1528" 
d="M758 -31q264 2 385 123q164 146 172 395q10 273 10 467q0 39 2 174q0 62 2 109v57q4 21 21 51q14 29 67 31h84q12 0 12 21v45q2 12 -20 14q-21 -4 -225 -6q-103 0 -168 4q-68 2 -84 2q-17 0 -15 -14v-49q-2 -17 15 -17h90q82 -2 92 -90q10 -84 10 -326v-438
q2 -229 -106 -360q-53 -56 -135 -82q-82 -31 -172 -31q-91 0 -179 33t-147 115q-33 53 -49 122q-15 66 -17 138q-8 184 -10 434v135q0 199 4 266q8 80 99 84h102q16 0 16 14v54q2 12 -18 12q-37 -4 -281 -6q-118 0 -190 4q-74 2 -90 2q-21 0 -19 -16v-45q-2 -21 15 -19h96
q82 0 78 -104v-488q-2 -381 33 -497q43 -193 243 -275q109 -43 277 -43v0zM799 1694l262 -117q12 -6 18 2l15 18q6 9 -2 17l-261 229q-16 16 -28 18q-10 -2 -27 -18l-252 -227q-12 -10 -6 -19l16 -20q9 -8 21 0l244 117v0z" />
    <glyph glyph-name="section" unicode="&#xdc;" horiz-adv-x="1528" 
d="M758 -31q264 2 385 123q164 146 172 395q10 273 10 467q0 39 2 174q0 62 2 109v57q4 21 21 51q14 29 67 31h84q12 0 12 21v45q2 12 -20 14q-21 -4 -225 -6q-103 0 -168 4q-68 2 -84 2q-17 0 -15 -14v-49q-2 -17 15 -17h90q82 -2 92 -90q10 -84 10 -326v-438
q2 -229 -106 -360q-53 -56 -135 -82q-82 -31 -172 -31q-91 0 -179 33t-147 115q-33 53 -49 122q-15 66 -17 138q-8 184 -10 434v135q0 199 4 266q8 80 99 84h102q16 0 16 14v54q2 12 -18 12q-37 -4 -281 -6q-118 0 -190 4q-74 2 -90 2q-21 0 -19 -16v-45q-2 -21 15 -19h96
q82 0 78 -104v-488q-2 -381 33 -497q43 -193 243 -275q109 -43 277 -43v0zM588 1802q-60 -2 -84 -35q-23 -32 -23 -55q2 -57 41 -78q17 -10 35 -16t31 -6q39 0 63 26q27 25 27 66q0 47 -27 74q-28 24 -63 24v0zM995 1802q-59 -2 -84 -35q-22 -32 -22 -55q2 -57 41 -78
q16 -10 35 -16q18 -6 30 -6q88 2 92 92q0 47 -26 74q-29 24 -66 24v0z" />
    <glyph glyph-name="glyph203" unicode="&#xdd;" horiz-adv-x="1362" 
d="M756 649q77 115 258 371q84 117 147 207q64 90 80 104q53 45 100 45h52q16 0 16 19v49q0 12 -16 12q-15 -4 -185 -6q-102 0 -164 4q-61 2 -77 2q-17 0 -15 -12v-49q-2 -19 15 -19h55q61 -2 72 -24q6 -27 -5 -56q-4 -14 -49 -88q-47 -71 -110 -170q-137 -213 -211 -323v0
q-60 112 -178 329q-56 101 -95 177q-41 73 -47 88q-8 36 6 53q11 14 56 14h67q15 0 15 19v51q0 10 -15 10q-10 -4 -305 -6q-198 4 -239 6q-15 0 -15 -12v-54q0 -14 15 -14h51q57 -2 106 -49q27 -29 90 -129q64 -102 138 -227q161 -275 198 -346v-119q-2 -311 -6 -381
q0 -23 -14 -35q-19 -16 -58 -16h-100q-16 0 -14 -15v-49q0 -16 12 -16q14 4 270 6q129 0 195 -2q65 -4 82 -4q16 0 14 18v47q2 15 -14 15h-80q-39 -2 -61 12q-11 8 -17 23q-8 12 -12 36q-8 76 -8 236v268zM721 1575q4 -4 14 0l344 168q60 32 60 82q0 28 -19 51
q-20 20 -55 20q-39 0 -84 -41l-281 -231q-10 -8 -4 -16z" />
    <glyph glyph-name="glyph225" unicode="&#xde;" horiz-adv-x="1243" 
d="M461 377q104 -10 223 -10q233 0 367 112q131 107 133 293q0 174 -146 289q-82 59 -182 82q-100 18 -264 18q-49 0 -131 -4q0 137 6 188q0 33 70 31h122q21 -2 21 23v41q0 16 -16 16q-33 -4 -289 -6q-291 4 -299 6q-15 0 -13 -14v-49q-2 -17 15 -17h106q49 0 70 -8
q18 -12 18 -37q4 -22 4 -145v-234v-235q0 -191 -2 -369v-141q-2 -58 -6 -68q-2 -39 -18 -51q-17 -14 -66 -14h-94q-14 0 -12 -15v-51q-2 -12 16 -14q10 4 283 6q143 0 205 -2q61 -4 79 -4q21 0 19 16v49q0 15 -16 15h-127q-68 0 -72 65q-4 74 -4 170v68zM461 1083
q76 13 159 13q91 2 216 -68q57 -37 96 -100q39 -68 39 -166q-2 -148 -92 -236q-91 -94 -230 -94q-123 0 -188 21v630z" />
    <glyph glyph-name="approxequal" unicode="&#xdf;" horiz-adv-x="1675" 
d="M438 -25q142 2 213 86q72 82 72 199q0 76 -16 123q-19 45 -50 74q-37 39 -92 63q-57 25 -129 47q-31 13 -74 35q-43 23 -69 49q-33 47 -33 101q-2 32 31 77t114 47q91 -2 136 -55q32 -39 49 -80q14 -45 22 -65q4 -10 13 -8l36 8q9 4 9 12q-17 86 -21 229q2 17 -18 19
q-23 0 -27 -6l-8 -15q-4 -14 -35 4q-18 11 -51 21q-37 6 -94 6q-111 0 -193 -61q-35 -29 -59 -72q-29 -47 -29 -100q0 -148 72 -211q49 -39 108 -68q60 -26 93 -39q83 -28 137 -73q51 -48 51 -136q-2 -65 -57 -100q-54 -39 -107 -39q-55 0 -102 29q-47 28 -72 73
q-12 29 -18 50q-9 22 -13 37q-8 32 -6 53q-2 12 -16 14l-37 4q-12 0 -14 -14q-9 -109 -23 -254q-2 -16 16 -23q25 -6 31 11l6 16q8 23 31 4q37 -29 92 -47q55 -23 131 -25v0zM1276 -25q141 2 213 86q71 82 71 199q0 76 -16 123q-18 45 -49 74q-37 39 -92 63q-58 25 -129 47
q-31 13 -74 35q-43 23 -70 49q-32 47 -32 101q-2 32 30 77q33 45 115 47q90 -2 135 -55q33 -39 49 -80q15 -45 23 -65q4 -10 12 -8l37 8q8 4 8 12q-16 86 -20 229q2 17 -19 19q-22 0 -26 -6l-9 -15q-4 -14 -34 4q-19 11 -52 21q-36 6 -94 6q-110 0 -192 -61q-35 -29 -60 -72
q-28 -47 -28 -100q0 -148 71 -211q50 -39 109 -68q59 -26 92 -39q84 -28 137 -73q51 -48 51 -136q-2 -65 -57 -100q-53 -39 -106 -39q-56 0 -103 29q-47 28 -71 73q-13 29 -19 50q-8 22 -12 37q-8 32 -6 53q-2 12 -17 14l-37 4q-12 0 -14 -14q-8 -109 -22 -254
q-2 -16 16 -23q25 -6 31 11l6 16q8 23 31 4q36 -29 92 -47q55 -23 131 -25v0z" />
    <glyph glyph-name="paragraph" unicode="&#xe0;" horiz-adv-x="1104" 
d="M670 354q14 -41 45 -127q26 -86 35 -125q0 -32 -33 -34h-33q-10 -2 -10 -13v-43q-2 -16 16 -18q84 4 186 6q41 0 101 -2q57 -4 80 -4q14 2 14 18v43q0 11 -10 13h-39q-53 0 -96 55q-13 26 -58 151q-47 125 -75 213q-78 230 -160 457q-4 23 -21 23q-18 0 -24 -15
q-15 -12 -47 -33q-35 -18 -68 -26q-25 -6 -20 -14q0 -13 8 -21q12 -16 -2 -41q-72 -176 -148 -342q-41 -88 -94 -213q-25 -59 -45 -100q-23 -43 -29 -51q-28 -41 -84 -43h-28q-11 0 -8 -13v-43q-3 -16 8 -18q65 4 159 6q93 -2 158 -6q12 2 12 14v45q0 15 -14 15h-51
q-59 2 -37 67q41 111 82 219h330zM371 420q6 12 28 63q21 51 45 115q25 63 47 115q21 49 21 57q8 23 16 23q9 0 13 -21q10 -29 55 -170q43 -143 53 -182h-278zM651 1059q6 4 2 10l-196 244q-13 18 -33 34q-21 17 -51 17q-47 -2 -64 -45q-18 -43 35 -90l270 -193q6 -6 13 0z
" />
    <glyph glyph-name="bullet" unicode="&#xe1;" horiz-adv-x="1104" 
d="M670 354q14 -41 45 -127q26 -86 35 -125q0 -32 -33 -34h-33q-10 -2 -10 -13v-43q-2 -16 16 -18q84 4 186 6q41 0 101 -2q57 -4 80 -4q14 2 14 18v43q0 11 -10 13h-39q-53 0 -96 55q-13 26 -58 151q-47 125 -75 213q-78 230 -160 457q-4 23 -21 23q-18 0 -24 -15
q-15 -12 -47 -33q-35 -18 -68 -26q-25 -6 -20 -14q0 -13 8 -21q12 -16 -2 -41q-72 -176 -148 -342q-41 -88 -94 -213q-25 -59 -45 -100q-23 -43 -29 -51q-28 -41 -84 -43h-28q-11 0 -8 -13v-43q-3 -16 8 -18q65 4 159 6q93 -2 158 -6q12 2 12 14v45q0 15 -14 15h-51
q-59 2 -37 67q41 111 82 219h330zM371 420q6 12 28 63q21 51 45 115q25 63 47 115q21 49 21 57q8 23 16 23q9 0 13 -21q10 -29 55 -170q43 -143 53 -182h-278zM487 1036q7 -6 13 0l270 193q31 22 39 47q6 24 0 43q-19 43 -68 45q-30 0 -49 -17q-20 -16 -35 -34l-196 -244
q-4 -6 2 -10z" />
    <glyph glyph-name="germandbls" unicode="&#xe2;" horiz-adv-x="1104" 
d="M670 354q14 -41 45 -127q26 -86 35 -125q0 -32 -33 -34h-33q-10 -2 -10 -13v-43q-2 -16 16 -18q84 4 186 6q41 0 101 -2q57 -4 80 -4q14 2 14 18v43q0 11 -10 13h-39q-53 0 -96 55q-13 26 -58 151q-47 125 -75 213q-78 230 -160 457q-4 23 -21 23q-18 0 -24 -15
q-15 -12 -47 -33q-35 -18 -68 -26q-25 -6 -20 -14q0 -13 8 -21q12 -16 -2 -41q-72 -176 -148 -342q-41 -88 -94 -213q-25 -59 -45 -100q-23 -43 -29 -51q-28 -41 -84 -43h-28q-11 0 -8 -13v-43q-3 -16 8 -18q65 4 159 6q93 -2 158 -6q12 2 12 14v45q0 15 -14 15h-51
q-59 2 -37 67q41 111 82 219h330zM371 420q6 12 28 63q21 51 45 115q25 63 47 115q21 49 21 57q8 23 16 23q9 0 13 -21q10 -29 55 -170q43 -143 53 -182h-278zM565 1198l223 -158q13 -8 19 2l16 19q6 6 -4 16l-225 268q-12 19 -27 21q-12 -2 -24 -19l-215 -268
q-13 -12 -6 -20l18 -19q10 -6 18 2l207 156v0z" />
    <glyph glyph-name="copyright" unicode="&#xe3;" horiz-adv-x="1104" 
d="M670 354q14 -41 45 -127q26 -86 35 -125q0 -32 -33 -34h-33q-10 -2 -10 -13v-43q-2 -16 16 -18q84 4 186 6q41 0 101 -2q57 -4 80 -4q14 2 14 18v43q0 11 -10 13h-39q-53 0 -96 55q-13 26 -58 151q-47 125 -75 213q-78 230 -160 457q-4 23 -21 23q-18 0 -24 -15
q-15 -12 -47 -33q-35 -18 -68 -26q-25 -6 -20 -14q0 -13 8 -21q12 -16 -2 -41q-72 -176 -148 -342q-41 -88 -94 -213q-25 -59 -45 -100q-23 -43 -29 -51q-28 -41 -84 -43h-28q-11 0 -8 -13v-43q-3 -16 8 -18q65 4 159 6q93 -2 158 -6q12 2 12 14v45q0 15 -14 15h-51
q-59 2 -37 67q41 111 82 219h330zM371 420q6 12 28 63q21 51 45 115q25 63 47 115q21 49 21 57q8 23 16 23q9 0 13 -21q10 -29 55 -170q43 -143 53 -182h-278zM827 1284q-12 0 -14 -12q-4 -29 -18 -49q-15 -25 -50 -25q-67 0 -139 29q-59 26 -151 30q-121 -2 -158 -170
q-8 -36 6 -34h37q10 0 14 10q11 43 33 65q23 21 47 21q62 0 127 -23q33 -10 70 -20q37 -14 80 -14q67 2 108 49q37 45 49 106q8 39 -6 37h-35z" />
    <glyph glyph-name="registered" unicode="&#xe4;" horiz-adv-x="1104" 
d="M670 354q14 -41 45 -127q26 -86 35 -125q0 -32 -33 -34h-33q-10 -2 -10 -13v-43q-2 -16 16 -18q84 4 186 6q41 0 101 -2q57 -4 80 -4q14 2 14 18v43q0 11 -10 13h-39q-53 0 -96 55q-13 26 -58 151q-47 125 -75 213q-78 230 -160 457q-4 23 -21 23q-18 0 -24 -15
q-15 -12 -47 -33q-35 -18 -68 -26q-25 -6 -20 -14q0 -13 8 -21q12 -16 -2 -41q-72 -176 -148 -342q-41 -88 -94 -213q-25 -59 -45 -100q-23 -43 -29 -51q-28 -41 -84 -43h-28q-11 0 -8 -13v-43q-3 -16 8 -18q65 4 159 6q93 -2 158 -6q12 2 12 14v45q0 15 -14 15h-51
q-59 2 -37 67q41 111 82 219h330zM371 420q6 12 28 63q21 51 45 115q25 63 47 115q21 49 21 57q8 23 16 23q9 0 13 -21q10 -29 55 -170q43 -143 53 -182h-278zM405 1266q-59 -2 -81 -35q-23 -33 -23 -58q2 -57 41 -77q33 -21 63 -21q89 2 93 90q0 49 -27 76q-29 25 -66 25v0
zM754 1266q-60 -2 -84 -35q-23 -33 -23 -58q2 -57 41 -77q35 -21 66 -21q39 0 63 27q27 22 27 63q0 49 -27 76q-29 25 -63 25v0z" />
    <glyph glyph-name="trademark" unicode="&#xe5;" horiz-adv-x="1104" 
d="M670 354q14 -41 45 -127q26 -86 35 -125q0 -32 -33 -34h-33q-10 -2 -10 -13v-43q-2 -16 16 -18q84 4 186 6q41 0 101 -2q57 -4 80 -4q14 2 14 18v43q0 11 -10 13h-39q-53 0 -96 55q-13 26 -58 151q-47 125 -75 213q-80 236 -152 432q-8 27 -25 27q-18 -2 -34 -16
q-35 -21 -109 -37q-25 -6 -20 -14q0 -13 8 -21q12 -16 -2 -41q-72 -176 -148 -342q-41 -88 -94 -213q-25 -59 -45 -100q-23 -43 -29 -51q-28 -41 -84 -43h-28q-11 0 -8 -13v-43q-3 -16 8 -18q65 4 159 6q93 -2 158 -6q12 2 12 14v45q0 15 -14 15h-51q-59 2 -37 67
q41 111 82 219h330zM371 420q6 12 28 63q21 51 45 115q25 63 47 115q21 49 21 57q8 23 16 23q9 0 13 -21q10 -29 55 -170q43 -143 53 -182h-278zM582 1327q-93 0 -150 -45q-61 -45 -61 -117q0 -59 49 -98q49 -43 143 -43q209 2 211 162q0 59 -47 100q-49 39 -145 41v0z
M580 1272q79 -2 84 -92q-3 -103 -93 -103q-88 2 -90 96q2 95 99 99v0z" />
    <glyph glyph-name="guilsinglleft" unicode="&#xe6;" horiz-adv-x="1382" 
d="M629 408v-297q0 -19 -6 -31q-11 -12 -48 -12h-53q-16 0 -16 -15v-39q0 -20 16 -20q64 4 174 6q303 0 420 -2q115 -4 117 -4q14 2 22 20l74 217q2 11 -6 15l-33 18q-10 8 -24 -14q-15 -27 -50 -74q-34 -47 -51 -61q-51 -43 -104 -52q-56 -8 -123 -6q-66 -2 -105 17
q-43 18 -43 86q-2 26 -2 94q0 65 -2 123v69q50 0 156 -8q25 -4 39 -10q12 -10 18 -23q13 -28 17 -69q4 -10 12 -8l43 4q10 0 10 10q-8 53 -8 135q0 21 2 76q0 27 2 45v25q2 12 -12 12l-45 2q-10 0 -10 -10q-2 -54 -17 -78q-18 -27 -57 -31q-74 -8 -150 -8v348l217 -4
q37 0 78 -31q33 -30 82 -86q47 -55 55 -67q11 -13 19 -9l33 15q6 2 2 14q-6 23 -31 105q-29 81 -35 104q-6 31 -12 29q-19 -4 -55 -4l-459 -2q-90 4 -180 6q-15 0 -15 -13v-47q0 -12 13 -12h12q41 0 14 -53q-69 -117 -192 -328q-53 -96 -119 -213q-31 -55 -57 -96
q-25 -43 -37 -57q-13 -13 -33 -27q-23 -14 -53 -14h-25q-12 0 -12 -13v-45q0 -16 12 -16q66 4 146 6q86 -2 151 -6q14 2 14 14v49q0 11 -14 11h-41q-26 0 -28 22q-5 21 6 49q28 74 137 269h250zM412 473l184 338q10 16 22 16q11 0 11 -26v-328h-217z" />
    <glyph glyph-name="acute" unicode="&#xe7;" horiz-adv-x="1020" 
d="M926 244q-9 8 -21 -13q-37 -61 -117 -106q-79 -47 -192 -47q-62 0 -113 22q-53 21 -102 72q-76 90 -102 184q-29 95 -27 156q0 131 74 246q73 114 221 118q63 0 123 -28q57 -29 92 -68q41 -43 61 -82q21 -41 29 -78q4 -18 14 -16l49 8q11 0 7 21q-3 47 -11 143
q-2 45 -6 80q-6 33 -6 41q2 25 -31 22q-24 0 -26 -10l-6 -22q-5 -15 -35 0q-29 20 -94 39q-66 20 -158 20q-115 -2 -199 -41q-84 -41 -129 -92q-137 -156 -137 -348q0 -49 10 -98q8 -52 27 -101q35 -100 108 -174q43 -39 101 -67q57 -31 141 -45l-139 -175q135 -26 135 -104
q-2 -57 -57 -86q-56 -29 -109 -29q-25 2 -45 -4t-20 -24q-3 -39 40 -41q109 2 207 55q47 29 78 66q29 36 29 84q-2 51 -37 88q-39 38 -90 51l92 114h4q143 2 246 66q102 59 153 154q13 20 2 26z" />
    <glyph glyph-name="notequal" unicode="&#xe8;" horiz-adv-x="1001" 
d="M405 858l218 -4q36 0 77 -31q33 -30 82 -86q47 -55 56 -67q10 -13 18 -9l33 15q6 2 2 14q-6 23 -31 105q-29 81 -35 104q-6 31 -12 29q-18 -4 -55 -4l-459 -2q-86 4 -174 6q-10 -2 -10 -11v-49q0 -14 8 -14h20q60 0 80 -8q21 -10 21 -43q4 -66 4 -262v-127v-310
q2 -20 -12 -28q-19 -8 -91 -8h-18q-14 0 -14 -13v-47q-2 -12 12 -14q78 4 174 6q315 0 434 -2q117 -4 119 -4q14 2 22 20l74 217q2 11 -6 15l-33 18q-10 8 -26 -12q-19 -29 -56 -76t-53 -61q-49 -39 -100 -47q-51 -11 -117 -11q-66 -2 -104 17q-43 18 -43 86q-5 76 -5 217
v69h64q43 -2 90 -14q39 -8 55 -33q15 -24 21 -63q4 -10 12 -8l43 4q10 0 10 10q-8 53 -8 135q0 21 2 76q0 27 2 45v25q2 12 -12 12l-45 2q-10 0 -10 -10q2 -90 -74 -107q-18 -2 -74 -6q-59 -4 -76 -4v348zM610 1059q6 4 2 10l-196 244q-13 18 -33 34q-21 17 -51 17
q-47 -2 -64 -45q-18 -43 35 -90l270 -193q7 -6 13 0z" />
    <glyph glyph-name="dieresis" unicode="&#xe9;" horiz-adv-x="1001" 
d="M405 858l218 -4q36 0 77 -31q33 -30 82 -86q47 -55 56 -67q10 -13 18 -9l33 15q6 2 2 14q-6 23 -31 105q-29 81 -35 104q-6 31 -12 29q-18 -4 -55 -4l-459 -2q-86 4 -174 6q-10 -2 -10 -11v-49q0 -14 8 -14h20q60 0 80 -8q21 -10 21 -43q4 -66 4 -262v-127v-310
q2 -20 -12 -28q-19 -8 -91 -8h-18q-14 0 -14 -13v-47q-2 -12 12 -14q78 4 174 6q315 0 434 -2q117 -4 119 -4q14 2 22 20l74 217q2 11 -6 15l-33 18q-10 8 -26 -12q-19 -29 -56 -76t-53 -61q-49 -39 -100 -47q-51 -11 -117 -11q-66 -2 -104 17q-43 18 -43 86q-5 76 -5 217
v69h64q43 -2 90 -14q39 -8 55 -33q15 -24 21 -63q4 -10 12 -8l43 4q10 0 10 10q-8 53 -8 135q0 21 2 76q0 27 2 45v25q2 12 -12 12l-45 2q-10 0 -10 -10q2 -90 -74 -107q-18 -2 -74 -6q-59 -4 -76 -4v348zM467 1036q6 -6 12 0l271 193q30 22 38 47q7 24 0 43q-18 43 -67 45
q-31 0 -49 -17q-21 -16 -35 -34l-197 -244q-4 -6 2 -10z" />
    <glyph glyph-name="AE" unicode="&#xea;" horiz-adv-x="1001" 
d="M405 858l218 -4q36 0 77 -31q33 -30 82 -86q47 -55 56 -67q10 -13 18 -9l33 15q6 2 2 14q-6 23 -31 105q-29 81 -35 104q-6 31 -12 29q-18 -4 -55 -4l-459 -2q-86 4 -174 6q-10 -2 -10 -11v-49q0 -14 8 -14h20q60 0 80 -8q21 -10 21 -43q4 -66 4 -262v-127v-310
q2 -20 -12 -28q-19 -8 -91 -8h-18q-14 0 -14 -13v-47q-2 -12 12 -14q78 4 174 6q315 0 434 -2q117 -4 119 -4q14 2 22 20l74 217q2 11 -6 15l-33 18q-10 8 -26 -12q-19 -29 -56 -76t-53 -61q-49 -39 -100 -47q-51 -11 -117 -11q-66 -2 -104 17q-43 18 -43 86q-5 76 -5 217
v69h64q43 -2 90 -14q39 -8 55 -33q15 -24 21 -63q4 -10 12 -8l43 4q10 0 10 10q-8 53 -8 135q0 21 2 76q0 27 2 45v25q2 12 -12 12l-45 2q-10 0 -10 -10q2 -90 -74 -107q-18 -2 -74 -6q-59 -4 -76 -4v348zM494 1198l223 -158q12 -8 18 2l17 19q6 6 -5 16l-225 268
q-12 19 -26 21q-13 -2 -25 -19l-215 -268q-12 -12 -6 -20l18 -19q11 -6 19 2l207 156v0z" />
    <glyph glyph-name="Oslash" unicode="&#xeb;" horiz-adv-x="1001" 
d="M405 858l218 -4q36 0 77 -31q33 -30 82 -86q47 -55 56 -67q10 -13 18 -9l33 15q6 2 2 14q-6 23 -31 105q-29 81 -35 104q-6 31 -12 29q-18 -4 -55 -4l-459 -2q-86 4 -174 6q-10 -2 -10 -11v-49q0 -14 8 -14h20q60 0 80 -8q21 -10 21 -43q4 -66 4 -262v-127v-310
q2 -20 -12 -28q-19 -8 -91 -8h-18q-14 0 -14 -13v-47q-2 -12 12 -14q78 4 174 6q315 0 434 -2q117 -4 119 -4q14 2 22 20l74 217q2 11 -6 15l-33 18q-10 8 -26 -12q-19 -29 -56 -76t-53 -61q-49 -39 -100 -47q-51 -11 -117 -11q-66 -2 -104 17q-43 18 -43 86q-5 76 -5 217
v69h64q43 -2 90 -14q39 -8 55 -33q15 -24 21 -63q4 -10 12 -8l43 4q10 0 10 10q-8 53 -8 135q0 21 2 76q0 27 2 45v25q2 12 -12 12l-45 2q-10 0 -10 -10q2 -90 -74 -107q-18 -2 -74 -6q-59 -4 -76 -4v348zM354 1266q-59 -2 -82 -35q-22 -33 -22 -58q2 -57 41 -77
q33 -21 63 -21q88 2 92 90q0 49 -26 76q-29 25 -66 25v0zM702 1266q-59 -2 -84 -35q-22 -33 -22 -58q2 -57 41 -77q35 -21 65 -21q39 0 64 27q27 22 27 63q0 49 -27 76q-29 25 -64 25v0z" />
    <glyph glyph-name="plusminus" unicode="&#xec;" horiz-adv-x="653" 
d="M405 524q0 135 3 279q-3 53 75 51h35q12 0 12 14v49q0 11 -12 11q-57 -4 -180 -6q-76 0 -148 4q-73 2 -88 2q-12 0 -12 -13v-47q-2 -14 12 -14h37q64 0 86 -12q19 -13 19 -31q2 -129 4 -266v-90v-193v-100q0 -45 -4 -56q-2 -26 -25 -30q-24 -8 -63 -8h-45q-13 -2 -13 -13
v-45q0 -16 13 -16q57 4 200 6q74 0 137 -2q62 -4 78 -4q13 2 13 14v49q0 11 -13 11h-30q-86 0 -88 75v148q-3 108 -3 131v102zM426 1059q6 4 2 10l-197 244q-12 18 -32 34q-21 17 -52 17q-47 -2 -63 -45q-18 -43 35 -90l270 -193q6 -6 12 0z" />
    <glyph glyph-name="infinity" unicode="&#xed;" horiz-adv-x="653" 
d="M405 524q0 135 3 279q-3 53 75 51h35q12 0 12 14v49q0 11 -12 11q-57 -4 -180 -6q-76 0 -148 4q-73 2 -88 2q-12 0 -12 -13v-47q-2 -14 12 -14h37q64 0 86 -12q19 -13 19 -31q2 -129 4 -266v-90v-193v-100q0 -45 -4 -56q-2 -26 -25 -30q-24 -8 -63 -8h-45q-13 -2 -13 -13
v-45q0 -16 13 -16q57 4 200 6q74 0 137 -2q62 -4 78 -4q13 2 13 14v49q0 11 -13 11h-30q-86 0 -88 75v148q-3 108 -3 131v102zM262 1036q6 -6 12 0l271 193q30 22 39 47q6 24 0 43q-19 43 -68 45q-31 0 -49 -17q-21 -16 -35 -34l-196 -244q-5 -6 2 -10z" />
    <glyph glyph-name="lessequal" unicode="&#xee;" horiz-adv-x="653" 
d="M405 524q0 135 3 279q-3 53 75 51h35q12 0 12 14v49q0 11 -12 11q-57 -4 -180 -6q-76 0 -148 4q-73 2 -88 2q-12 0 -12 -13v-47q-2 -14 12 -14h37q64 0 86 -12q19 -13 19 -31q2 -129 4 -266v-90v-193v-100q0 -45 -4 -56q-2 -26 -25 -30q-24 -8 -63 -8h-45q-13 -2 -13 -13
v-45q0 -16 13 -16q57 4 200 6q74 0 137 -2q62 -4 78 -4q13 2 13 14v49q0 11 -13 11h-30q-86 0 -88 75v148q-3 108 -3 131v102zM319 1198l224 -158q12 -8 18 2l16 19q7 6 -4 16l-225 268q-12 19 -26 21q-13 -2 -25 -19l-215 -268q-12 -12 -6 -20l18 -19q10 -6 19 2l206 156v0
z" />
    <glyph glyph-name="greaterequal" unicode="&#xef;" horiz-adv-x="653" 
d="M405 524q0 135 3 279q-3 53 75 51h35q12 0 12 14v49q0 11 -12 11q-57 -4 -180 -6q-76 0 -148 4q-73 2 -88 2q-12 0 -12 -13v-47q-2 -14 12 -14h37q64 0 86 -12q19 -13 19 -31q2 -129 4 -266v-90v-193v-100q0 -45 -4 -56q-2 -26 -25 -30q-24 -8 -63 -8h-45q-13 -2 -13 -13
v-45q0 -16 13 -16q57 4 200 6q74 0 137 -2q62 -4 78 -4q13 2 13 14v49q0 11 -13 11h-30q-86 0 -88 75v148q-3 108 -3 131v102zM160 1266q-60 -2 -82 -35q-23 -33 -23 -58q2 -57 41 -77q33 -21 64 -21q88 2 92 90q0 49 -27 76q-28 25 -65 25v0zM508 1266q-60 -2 -84 -35
q-23 -33 -23 -58q2 -57 41 -77q35 -21 66 -21q39 0 63 27q27 22 27 63q0 49 -27 76q-28 25 -63 25v0z" />
    <glyph glyph-name="glyph188" unicode="&#xf0;" horiz-adv-x="1208" 
d="M405 563q0 96 3 240q0 35 28 49q17 12 45 14h47q217 -2 328 -129q43 -47 72 -123q26 -75 22 -161q-2 -150 -78 -252q-47 -58 -129 -99q-84 -43 -182 -43q-39 0 -74 13q-34 10 -53 30q-26 35 -24 74q-5 96 -5 234v26h224q16 0 16 15v47q0 10 -18 12h-222v53zM248 375
q0 -92 -2 -174q-2 -84 -6 -101q0 -8 -13 -18q-12 -14 -32 -14h-91q-10 0 -10 -11v-45q0 -18 10 -18q84 4 191 6q131 -2 272 -4q53 -2 193 20q65 13 129 39q63 27 110 76q129 131 125 346q0 113 -37 193q-36 80 -106 137q-88 80 -197 102q-110 21 -254 19q-114 -4 -215 -6
q-120 4 -206 6q-11 0 -11 -13v-47q0 -14 8 -14h76q56 -2 58 -35q4 -31 6 -108q2 -78 2 -113v-88h-131q-21 0 -21 -14v-48q-2 -12 19 -12h133v-61z" />
    <glyph glyph-name="yen" unicode="&#xf1;" horiz-adv-x="1216" 
d="M1012 504q-2 145 6 307q2 22 16 35q15 8 49 8h21q12 0 12 14v43q0 17 -14 17q-43 -4 -129 -6q-123 4 -168 6q-15 0 -15 -11v-49q0 -14 15 -14h35q57 0 75 -37q9 -22 15 -86q2 -63 2 -106q6 -84 6 -246v-135h-8q-29 35 -121 151q-92 115 -131 158q-45 57 -154 197
q-49 63 -88 110q-39 45 -43 49q-8 17 -49 17q-43 -4 -100 -4q-37 0 -82 4q-43 0 -53 2q-13 -2 -13 -13v-49q0 -12 13 -12h18q102 0 109 -109v-215q-3 -356 -7 -401q0 -14 -6 -27q-6 -12 -16 -20q-21 -14 -37 -14h-47q-8 0 -8 -7v-53q0 -14 6 -14q59 4 137 6q49 0 96 -2
q47 -4 60 -4q10 0 10 12v49q0 13 -10 13h-43q-35 0 -49 69q-3 23 -7 135q-6 111 -6 211v281h4q33 -37 119 -150q84 -112 129 -166q49 -57 205 -243q65 -76 113 -129q45 -56 55 -70q16 -16 47 -20q18 2 27 14q4 10 4 25v479zM864 1284q-12 0 -14 -12q-4 -29 -19 -49
q-14 -25 -49 -25q-67 0 -139 29q-59 26 -152 30q-120 -2 -157 -170q-8 -36 6 -34h37q10 0 14 10q10 43 33 65q22 21 47 21q61 0 127 -23q33 -10 70 -20q36 -14 79 -14q68 2 109 49q37 45 49 106q8 39 -6 37h-35z" />
    <glyph glyph-name="partialdiff" unicode="&#xf2;" horiz-adv-x="1137" 
d="M563 -25q158 2 254 54q96 51 154 135q84 133 82 284q-2 138 -50 236q-47 96 -116 154q-78 67 -156 90q-80 18 -151 18q-101 2 -197 -31q-94 -32 -186 -141q-70 -88 -93 -172q-22 -86 -20 -151q2 -146 63 -246q60 -101 119 -139q82 -52 164 -70q80 -21 133 -21v0zM575 45
q-84 -2 -194 98q-51 52 -86 138q-37 86 -37 204q0 82 29 168q28 86 86 146q37 37 71 55q31 14 60 20q55 2 69 0q101 0 199 -112q100 -113 104 -318q0 -43 -6 -106q-8 -66 -37 -133q-28 -66 -90 -111q-61 -49 -168 -49v0zM668 1059q6 4 2 10l-197 244q-12 18 -33 34
q-20 17 -51 17q-47 -2 -63 -45q-19 -43 34 -90l271 -193q6 -6 12 0z" />
    <glyph glyph-name="mu" unicode="&#xf3;" horiz-adv-x="1137" 
d="M563 -25q158 2 254 54q96 51 154 135q84 133 82 284q-2 138 -50 236q-47 96 -116 154q-78 67 -156 90q-80 18 -151 18q-101 2 -197 -31q-94 -32 -186 -141q-70 -88 -93 -172q-22 -86 -20 -151q2 -146 63 -246q60 -101 119 -139q82 -52 164 -70q80 -21 133 -21v0zM575 45
q-84 -2 -194 98q-51 52 -86 138q-37 86 -37 204q0 82 29 168q28 86 86 146q37 37 71 55q31 14 60 20q55 2 69 0q101 0 199 -112q100 -113 104 -318q0 -43 -6 -106q-8 -66 -37 -133q-28 -66 -90 -111q-61 -49 -168 -49v0zM504 1036q6 -6 12 0l270 193q31 22 39 47q6 24 0 43
q-18 43 -67 45q-31 0 -49 -17q-21 -16 -35 -34l-197 -244q-4 -6 2 -10z" />
    <glyph glyph-name="summation" unicode="&#xf4;" horiz-adv-x="1137" 
d="M563 -25q158 2 254 54q96 51 154 135q84 133 82 284q-2 138 -50 236q-47 96 -116 154q-78 67 -156 90q-80 18 -151 18q-101 2 -197 -31q-94 -32 -186 -141q-70 -88 -93 -172q-22 -86 -20 -151q2 -146 63 -246q60 -101 119 -139q82 -52 164 -70q80 -21 133 -21v0zM575 45
q-84 -2 -194 98q-51 52 -86 138q-37 86 -37 204q0 82 29 168q28 86 86 146q37 37 71 55q31 14 60 20q55 2 69 0q101 0 199 -112q100 -113 104 -318q0 -43 -6 -106q-8 -66 -37 -133q-28 -66 -90 -111q-61 -49 -168 -49v0zM561 1198l223 -158q13 -8 19 2l16 19q6 6 -4 16
l-225 268q-13 19 -27 21q-12 -2 -24 -19l-215 -268q-13 -12 -7 -20l19 -19q10 -6 18 2l207 156v0z" />
    <glyph glyph-name="pi" unicode="&#xf5;" horiz-adv-x="1137" 
d="M563 -25q158 2 254 54q96 51 154 135q84 133 82 284q-2 138 -50 236q-47 96 -116 154q-78 67 -156 90q-80 18 -151 18q-101 2 -197 -31q-94 -32 -186 -141q-70 -88 -93 -172q-22 -86 -20 -151q2 -146 63 -246q60 -101 119 -139q82 -52 164 -70q80 -21 133 -21v0zM575 45
q-84 -2 -194 98q-51 52 -86 138q-37 86 -37 204q0 82 29 168q28 86 86 146q37 37 71 55q31 14 60 20q55 2 69 0q101 0 199 -112q100 -113 104 -318q0 -43 -6 -106q-8 -66 -37 -133q-28 -66 -90 -111q-61 -49 -168 -49v0zM813 1284q-12 0 -14 -12q-4 -29 -19 -49
q-14 -25 -49 -25q-67 0 -139 29q-60 26 -152 30q-121 -2 -157 -170q-9 -36 6 -34h37q10 0 14 10q10 43 33 65q22 21 47 21q61 0 127 -23q33 -10 69 -20q37 -14 80 -14q68 2 109 49q37 45 49 106q8 39 -6 37h-35z" />
    <glyph glyph-name="product" unicode="&#xf6;" horiz-adv-x="1137" 
d="M563 -25q158 2 254 54q96 51 154 135q84 133 82 284q-2 138 -50 236q-47 96 -116 154q-78 67 -156 90q-80 18 -151 18q-101 2 -197 -31q-94 -32 -186 -141q-70 -88 -93 -172q-22 -86 -20 -151q2 -146 63 -246q60 -101 119 -139q82 -52 164 -70q80 -21 133 -21v0zM575 45
q-84 -2 -194 98q-51 52 -86 138q-37 86 -37 204q0 82 29 168q28 86 86 146q37 37 71 55q31 14 60 20q55 2 69 0q101 0 199 -112q100 -113 104 -318q0 -43 -6 -106q-8 -66 -37 -133q-28 -66 -90 -111q-61 -49 -168 -49v0zM401 1266q-59 -2 -82 -35q-22 -33 -22 -58
q2 -57 41 -77q33 -21 63 -21q88 2 93 90q0 49 -27 76q-29 25 -66 25v0zM750 1266q-60 -2 -84 -35q-23 -33 -23 -58q2 -57 41 -77q35 -21 66 -21q38 0 63 27q27 22 27 63q0 49 -27 76q-29 25 -63 25v0z" />
    <glyph glyph-name="Ugrave" unicode="&#xf7;" 
d="M115 549v-115h794v115h-794zM514 704q51 0 82 33q29 29 31 74q-2 47 -31 76q-31 28 -82 28q-49 0 -82 -28q-33 -29 -33 -76q0 -45 33 -74q33 -33 82 -33v0zM514 68q51 0 82 32q29 29 31 74q-2 47 -31 76q-31 29 -82 29q-49 0 -82 -29t-33 -76q0 -45 33 -74q33 -32 82 -32
v0z" />
    <glyph glyph-name="guilsinglright" unicode="&#xf8;" horiz-adv-x="1137" 
d="M111 41q-9 -8 0 -18l36 -39q7 -9 17 -2l88 94v0q137 -99 311 -101q158 2 254 54q96 51 154 135q84 133 82 284q0 115 -33 201q-35 84 -86 139l90 95q6 8 0 16l-37 37q-12 10 -20 0l-88 -92v0q-74 63 -152 84q-76 18 -147 18q-101 2 -197 -31q-94 -34 -184 -139
q-72 -90 -95 -174q-22 -86 -20 -151q0 -105 37 -185q33 -82 76 -135zM827 678v0q49 -94 49 -234q0 -43 -6 -106q-8 -66 -37 -133q-28 -66 -90 -111q-61 -49 -168 -49q-45 0 -104 33q-63 31 -121 100zM307 246v0q-47 86 -49 239q0 82 29 168q28 86 86 146q37 37 71 55
q31 14 60 20q55 2 69 0q111 -2 211 -129z" />
    <glyph glyph-name="ordfeminine" unicode="&#xf9;" horiz-adv-x="1145" 
d="M190 500q0 -129 7 -205q6 -74 14 -119q29 -121 162 -174q71 -27 190 -27q195 2 273 78q106 92 112 252q4 174 6 297q0 27 2 102q0 35 2 62v33q4 20 21 37q14 16 63 18h19q12 0 12 14v45q0 15 -14 15q-58 -4 -150 -6q-121 4 -178 6q-12 -2 -12 -13v-45q0 -16 12 -16h23
q47 0 67 -12q19 -15 21 -43q8 -37 8 -187v-282q0 -62 -10 -117q-15 -55 -58 -96q-30 -31 -82 -47q-51 -21 -104 -21q-41 0 -96 21q-56 22 -95 67q-24 35 -32 78q-13 43 -15 86q-4 100 -4 260v84v107q0 45 2 65q-2 33 90 37h29q12 0 12 12v49q0 13 -14 13q-63 -4 -182 -6
q-142 4 -207 6q-12 0 -12 -11v-51q0 -12 12 -12h37q45 0 59 -18q10 -19 10 -48v-288zM692 1059q6 4 2 10l-196 244q-13 18 -33 34q-21 17 -51 17q-47 -2 -64 -45q-18 -43 35 -90l270 -193q6 -6 13 0z" />
    <glyph glyph-name="integral" unicode="&#xfa;" horiz-adv-x="1145" 
d="M190 500q0 -129 7 -205q6 -74 14 -119q29 -121 162 -174q71 -27 190 -27q195 2 273 78q106 92 112 252q4 174 6 297q0 27 2 102q0 35 2 62v33q4 20 21 37q14 16 63 18h19q12 0 12 14v45q0 15 -14 15q-58 -4 -150 -6q-121 4 -178 6q-12 -2 -12 -13v-45q0 -16 12 -16h23
q47 0 67 -12q19 -15 21 -43q8 -37 8 -187v-282q0 -62 -10 -117q-15 -55 -58 -96q-30 -31 -82 -47q-51 -21 -104 -21q-41 0 -96 21q-56 22 -95 67q-24 35 -32 78q-13 43 -15 86q-4 100 -4 260v84v107q0 45 2 65q-2 33 90 37h29q12 0 12 12v49q0 13 -14 13q-63 -4 -182 -6
q-142 4 -207 6q-12 0 -12 -11v-51q0 -12 12 -12h37q45 0 59 -18q10 -19 10 -48v-288zM549 1036q6 -6 12 0l270 193q31 22 39 47q6 24 0 43q-18 43 -67 45q-31 0 -49 -17q-21 -16 -35 -34l-197 -244q-4 -6 2 -10z" />
    <glyph glyph-name="ordmasculine" unicode="&#xfb;" horiz-adv-x="1145" 
d="M190 500q0 -129 7 -205q6 -74 14 -119q29 -121 162 -174q71 -27 190 -27q195 2 273 78q106 92 112 252q4 174 6 297q0 27 2 102q0 35 2 62v33q4 20 21 37q14 16 63 18h19q12 0 12 14v45q0 15 -14 15q-58 -4 -150 -6q-121 4 -178 6q-12 -2 -12 -13v-45q0 -16 12 -16h23
q47 0 67 -12q19 -15 21 -43q8 -37 8 -187v-282q0 -62 -10 -117q-15 -55 -58 -96q-30 -31 -82 -47q-51 -21 -104 -21q-41 0 -96 21q-56 22 -95 67q-24 35 -32 78q-13 43 -15 86q-4 100 -4 260v84v107q0 45 2 65q-2 33 90 37h29q12 0 12 12v49q0 13 -14 13q-63 -4 -182 -6
q-142 4 -207 6q-12 0 -12 -11v-51q0 -12 12 -12h37q45 0 59 -18q10 -19 10 -48v-288zM606 1198l223 -158q13 -8 19 2l16 19q6 6 -4 16l-225 268q-12 19 -27 21q-12 -2 -24 -19l-215 -268q-13 -12 -7 -20l19 -19q10 -6 18 2l207 156v0z" />
    <glyph glyph-name="Omega" unicode="&#xfc;" horiz-adv-x="1145" 
d="M190 500q0 -129 7 -205q6 -74 14 -119q29 -121 162 -174q71 -27 190 -27q195 2 273 78q106 92 112 252q4 174 6 297q0 27 2 102q0 35 2 62v33q4 20 21 37q14 16 63 18h19q12 0 12 14v45q0 15 -14 15q-58 -4 -150 -6q-121 4 -178 6q-12 -2 -12 -13v-45q0 -16 12 -16h23
q47 0 67 -12q19 -15 21 -43q8 -37 8 -187v-282q0 -62 -10 -117q-15 -55 -58 -96q-30 -31 -82 -47q-51 -21 -104 -21q-41 0 -96 21q-56 22 -95 67q-24 35 -32 78q-13 43 -15 86q-4 100 -4 260v84v107q0 45 2 65q-2 33 90 37h29q12 0 12 12v49q0 13 -14 13q-63 -4 -182 -6
q-142 4 -207 6q-12 0 -12 -11v-51q0 -12 12 -12h37q45 0 59 -18q10 -19 10 -48v-288zM426 1266q-59 -2 -82 -35q-22 -33 -22 -58q2 -57 40 -77q33 -21 64 -21q88 2 92 90q0 49 -27 76q-28 25 -65 25v0zM774 1266q-59 -2 -84 -35q-22 -33 -22 -58q2 -57 41 -77q34 -21 65 -21
q39 0 64 27q26 22 26 63q0 49 -26 76q-29 25 -64 25v0z" />
    <glyph glyph-name="glyph174" unicode="&#xfd;" horiz-adv-x="979" 
d="M569 416q49 73 166 233q55 74 96 127q43 53 54 62q26 16 73 16h21q12 0 12 14v43q0 17 -14 17q-41 -4 -121 -6q-125 4 -176 6q-14 0 -14 -15v-45q0 -14 14 -14h33q59 -2 26 -59q-14 -25 -94 -144t-115 -172v0q-122 193 -215 340q-6 10 0 25q4 10 31 10h31q14 0 14 14v45
q0 15 -14 15q-76 -4 -199 -6q-110 4 -168 6q-16 -2 -16 -13v-45q0 -16 14 -16h29q14 0 37 -4q20 -6 37 -21q38 -41 157 -213q56 -77 97 -139q38 -63 47 -82v-73q0 -183 -2 -213q0 -21 -15 -31q-16 -10 -65 -10h-31q-12 -2 -12 -13v-45q0 -16 14 -16q64 4 176 6q57 0 119 -2
q63 -4 76 -4q16 2 16 14v49q0 11 -14 11h-27q-29 0 -47 8q-23 8 -27 37q-4 45 -4 131v172zM487 1036q7 -6 13 0l270 193q31 22 39 47q6 24 0 43q-19 43 -68 45q-30 0 -49 -17q-20 -16 -35 -34l-196 -244q-4 -6 2 -10z" />
    <glyph glyph-name="glyph172" unicode="&#xfe;" horiz-adv-x="981" 
d="M248 457q-2 -273 -6 -348q2 -41 -54 -41h-53q-12 0 -12 -13v-43q0 -18 12 -18q66 4 187 6q57 0 122 -2q64 -4 80 -4q15 2 15 12v49q0 11 -13 13h-59q-41 0 -51 28q-15 25 -13 68v55q50 -8 138 -8q354 4 358 280q0 78 -29 121q-28 41 -75 70q-48 33 -109 51q-31 10 -74 12
t-100 2q-82 0 -109 -6v64q0 26 21 39q18 10 47 10h51q12 0 12 12v51q0 11 -12 11q-76 -4 -190 -6q-133 4 -207 6q-12 0 -12 -11v-51q0 -12 12 -12h63q48 2 56 -37q4 -63 4 -211v-149zM403 676q17 8 45 10h43q62 0 144 -43q39 -23 63 -59q25 -39 25 -95q0 -63 -23 -108
q-24 -47 -75 -76q-52 -33 -115 -33q-80 0 -107 13v391z" />
    <glyph glyph-name="circumflex" unicode="&#xff;" horiz-adv-x="979" 
d="M569 416q49 73 166 233q55 74 96 127q43 53 54 62q26 16 73 16h21q12 0 12 14v43q0 17 -14 17q-41 -4 -121 -6q-125 4 -176 6q-14 0 -14 -15v-45q0 -14 14 -14h33q59 -2 26 -59q-14 -25 -94 -144t-115 -172v0q-122 193 -215 340q-6 10 0 25q4 10 31 10h31q14 0 14 14v45
q0 15 -14 15q-76 -4 -199 -6q-110 4 -168 6q-16 -2 -16 -13v-45q0 -16 14 -16h29q14 0 37 -4q20 -6 37 -21q38 -41 157 -213q56 -77 97 -139q38 -63 47 -82v-73q0 -183 -2 -213q0 -21 -15 -31q-16 -10 -65 -10h-31q-12 -2 -12 -13v-45q0 -16 14 -16q64 4 176 6q57 0 119 -2
q63 -4 76 -4q16 2 16 14v49q0 11 -14 11h-27q-29 0 -47 8q-23 8 -27 37q-4 45 -4 131v172zM365 1266q-60 -2 -82 -35q-23 -33 -23 -58q2 -57 41 -77q33 -21 64 -21q88 2 92 90q0 49 -27 76q-29 25 -65 25v0zM713 1266q-60 -2 -84 -35q-23 -33 -23 -58q2 -57 41 -77
q35 -21 66 -21q39 0 63 27q27 22 27 63q0 49 -27 76q-29 25 -63 25v0z" />
    <glyph glyph-name="onequarter" unicode="&#x131;" horiz-adv-x="653" 
d="M405 524q0 135 3 279q-3 53 75 51h35q12 0 12 14v49q0 11 -12 11q-57 -4 -180 -6q-76 0 -148 4q-73 2 -88 2q-12 0 -12 -13v-47q-2 -14 12 -14h37q64 0 86 -12q19 -13 19 -31q2 -129 4 -266v-90v-193v-100q0 -45 -4 -56q-2 -26 -25 -30q-24 -8 -63 -8h-45q-13 -2 -13 -13
v-45q0 -16 13 -16q57 4 200 6q74 0 137 -2q62 -4 78 -4q13 2 13 14v49q0 11 -13 11h-30q-86 0 -88 75v148q-3 108 -3 131v102z" />
    <glyph glyph-name="glyph142" unicode="&#x141;" horiz-adv-x="1356" 
d="M287 729l-275 -100q-16 -6 -12 -23l20 -53q5 -14 19 -8l248 92v0q-6 -363 -6 -508q0 -20 -13 -37q-14 -18 -55 -18h-119q-16 0 -14 -15v-51q-2 -14 16 -14q25 4 262 6h492q303 -2 371 -6l22 88q6 31 16 65q9 35 15 68q39 158 47 186q4 17 -4 19l-33 12q-10 6 -16 -8
q-25 -72 -101 -195q-37 -57 -80 -98q-45 -41 -92 -51q-67 -4 -262 -4q-196 0 -252 4q-8 317 -6 561v59l367 133q14 3 8 23l-19 51q-6 15 -24 8l-332 -122v24q4 328 6 479q-2 45 15 64q14 16 61 16h119q20 0 20 17v47q2 16 -18 16q0 -4 -303 -6q-125 0 -187 4q-63 2 -79 2
q-17 0 -15 -14v-45q-2 -21 15 -21h96q45 0 61 -16q15 -19 15 -58q4 -120 6 -385v-114v-74z" />
    <glyph glyph-name="glyph148" unicode="&#x142;" horiz-adv-x="954" 
d="M405 510v0v51q3 160 5 248q-2 20 14 33q14 12 67 12h31q12 0 12 12v49q0 13 -10 13q-59 -4 -200 -6q-144 4 -195 6q-10 0 -10 -11v-49q0 -14 10 -14h31q53 0 69 -10q15 -13 15 -37q4 -70 4 -223v-115l-164 -45q-12 -4 -10 -16l10 -52q4 -12 16 -10l148 39v0v-68
q0 -157 -4 -213q-2 -34 -58 -36h-63q-14 0 -14 -13v-43q0 -18 12 -18q18 0 80 4q61 2 114 2q295 0 553 -4q37 145 64 254q4 16 -2 20l-33 15q-10 2 -18 -11q-27 -43 -80 -112q-25 -33 -47 -56q-23 -24 -33 -30q-45 -2 -160 -2q-117 -2 -149 -2q-2 45 -2 139q-3 96 -3 135v82
l232 63q14 5 12 17l-14 53q-4 10 -17 6z" />
    <glyph glyph-name="Idieresis" unicode="&#x152;" horiz-adv-x="2292" 
d="M1362 1382l395 -6q51 0 131 -51q41 -35 117 -127q74 -94 84 -111q6 -10 20 -4l25 15q14 4 6 18q-49 158 -102 332q-4 10 -17 10q-6 0 -33 -4q-26 -4 -67 -4h-664q-63 0 -165 16q-101 13 -248 15q-355 -7 -584 -277q-100 -133 -131 -260q-33 -127 -31 -201q2 -247 97 -399
q88 -154 202 -242q115 -77 240 -106q123 -27 223 -27q117 2 209 17q94 14 192 14q469 0 641 -2q175 -4 179 -4q24 2 34 31l113 309q4 14 -12 20l-25 15q-16 12 -31 -9q-24 -41 -81 -114q-60 -78 -84 -103q-76 -67 -160 -69q-109 -6 -199 -6q-88 0 -170 12q-49 10 -73 45
q-27 33 -27 117q-4 123 -4 350v127q94 0 282 -10q76 -13 86 -80q13 -43 25 -103q2 -16 16 -12l41 6q19 0 17 17q-11 86 -13 213q0 32 2 116q0 21 5 39v33v45q2 14 -17 14l-45 4q-18 7 -18 -14q-4 -63 -17 -100q-14 -84 -92 -90q-31 -2 -137 -7q-109 -6 -135 -6v598z
M1184 203q-27 -72 -99 -113q-71 -45 -209 -45q-81 0 -176 39q-47 18 -94 49q-49 31 -92 72q-88 86 -145 225q-62 141 -62 346q0 338 199 520q53 45 112 70q56 20 109 29q53 8 92 8q39 -2 49 -2q72 0 166 -37q94 -39 150 -137v-1024z" />
    <glyph glyph-name="Igrave" unicode="&#x153;" horiz-adv-x="1565" 
d="M969 858l217 -4q37 0 78 -31q32 -30 81 -86q48 -55 56 -67q10 -13 18 -9l33 15q6 2 2 14q-6 23 -31 105q-28 81 -35 104q-6 31 -12 29q-18 -4 -55 -4l-459 -2q-45 0 -112 12q-66 10 -164 12q-246 0 -398 -174q-63 -86 -84 -168q-22 -82 -20 -131q0 -162 59 -264
q58 -103 144 -158q73 -41 157 -59q82 -17 152 -17q80 2 139 13q62 12 127 12q316 0 432 -2q119 -4 121 -4q14 2 23 20l73 217q2 11 -6 15l-33 18q-10 8 -24 -14q-15 -27 -49 -74q-35 -47 -52 -61q-51 -43 -104 -52q-55 -8 -123 -6q-63 -2 -104 17q-43 18 -43 86
q-4 76 -4 217l4 69q41 0 151 -8q25 -4 39 -10q12 -10 19 -23q12 -28 16 -69q4 -10 12 -8l43 4q11 0 11 10q-9 53 -9 135q0 21 2 76q0 27 2 45v25q2 12 -12 12l-45 2q-10 0 -10 -10q-2 -54 -17 -78q-18 -27 -57 -31q-74 -8 -149 -8v348zM811 125q-16 -29 -66 -53
q-47 -27 -139 -27q-45 0 -102 25q-60 22 -113 73q-53 54 -90 142q-39 86 -39 213q2 194 117 309q33 31 69 45q35 14 66 20q33 7 57 4q23 -2 29 -2q49 0 111 -20q61 -21 100 -68v-661z" />
    <glyph glyph-name="glyph180" unicode="&#x160;" horiz-adv-x="1122" 
d="M598 -31q203 4 311 135q107 127 107 314q0 100 -25 168q-24 65 -65 110q-56 66 -140 105q-82 35 -190 65q-47 17 -115 47q-69 33 -119 76q-36 41 -49 88q-14 47 -14 90q-2 84 57 160q58 78 191 80q143 0 223 -88q63 -64 90 -123q27 -57 37 -104q4 -9 12 -7l25 7
q10 2 10 16q-2 43 -12 153q-17 111 -17 172q0 33 -16 35q-12 0 -27 -12l-26 -25q-13 -16 -39 -2q-25 15 -88 33q-64 17 -154 19q-170 2 -286 -99q-48 -43 -87 -112q-40 -72 -40 -150q0 -201 102 -299q72 -67 160 -106q88 -41 139 -60q61 -20 121 -47q57 -26 100 -67
q45 -39 70 -95q24 -57 24 -137q0 -67 -24 -117q-27 -49 -68 -79q-88 -64 -186 -64q-84 0 -160 41q-78 41 -127 111q-47 78 -59 135q-13 55 -15 102q0 17 -12 17l-31 2q-12 2 -14 -13q-4 -55 -14 -186q-13 -131 -21 -184q-2 -33 19 -33q20 -2 36 25q17 32 33 34q13 0 47 -24
q62 -47 142 -76q77 -29 184 -31v0zM614 1747l-268 114q-12 7 -18 -2l-15 -18q-6 -8 2 -16l258 -230q19 -18 29 -18q10 2 27 18l258 228q12 10 4 18l-17 20q-6 9 -20 -2l-240 -112v0z" />
    <glyph glyph-name="glyph222" unicode="&#x161;" horiz-adv-x="838" 
d="M438 -25q142 2 213 86q72 82 72 199q0 76 -16 123q-19 45 -50 74q-37 39 -92 63q-57 25 -129 47q-31 13 -74 35q-43 23 -69 49q-33 47 -33 101q-2 32 31 77t114 47q91 -2 136 -55q32 -39 49 -80q14 -45 22 -65q4 -10 13 -8l36 8q9 4 9 12q-17 86 -21 229q2 17 -18 19
q-23 0 -27 -6l-8 -15q-4 -14 -35 4q-18 11 -51 21q-37 6 -94 6q-111 0 -193 -61q-35 -29 -59 -72q-29 -47 -29 -100q0 -148 72 -211q49 -39 108 -68q60 -26 93 -39q83 -28 137 -73q51 -48 51 -136q-2 -65 -57 -100q-54 -39 -107 -39q-55 0 -102 29q-47 28 -72 73
q-12 29 -18 50q-9 22 -13 37q-8 32 -6 53q-2 12 -16 14l-37 4q-12 0 -14 -14q-9 -109 -23 -254q-2 -16 16 -23q25 -6 31 11l6 16q8 23 31 4q37 -29 92 -47q55 -23 131 -25v0zM428 1208l-225 156q-13 8 -19 -2l-16 -19q-6 -6 4 -16l225 -268q15 -21 27 -21q12 2 24 19
l216 268q12 14 6 20l-19 19q-8 6 -18 -2l-205 -154v0z" />
    <glyph glyph-name="tilde" unicode="&#x178;" horiz-adv-x="1362" 
d="M756 649q77 115 258 371q84 117 147 207q64 90 80 104q53 45 100 45h52q16 0 16 19v49q0 12 -16 12q-15 -4 -185 -6q-102 0 -164 4q-61 2 -77 2q-17 0 -15 -12v-49q-2 -19 15 -19h55q61 -2 72 -24q6 -27 -5 -56q-4 -14 -49 -88q-47 -71 -110 -170q-137 -213 -211 -323v0
q-60 112 -178 329q-56 101 -95 177q-41 73 -47 88q-8 36 6 53q11 14 56 14h67q15 0 15 19v51q0 10 -15 10q-10 -4 -305 -6q-198 4 -239 6q-15 0 -15 -12v-54q0 -14 15 -14h51q57 -2 106 -49q27 -29 90 -129q64 -102 138 -227q161 -275 198 -346v-119q-2 -311 -6 -381
q0 -23 -14 -35q-19 -16 -58 -16h-100q-16 0 -14 -15v-49q0 -16 12 -16q14 4 270 6q129 0 195 -2q65 -4 82 -4q16 0 14 18v47q2 15 -14 15h-80q-39 -2 -61 12q-11 8 -17 23q-8 12 -12 36q-8 76 -8 236v268zM547 1802q-60 -2 -84 -35q-23 -32 -23 -55q2 -57 41 -78
q17 -10 35 -16t31 -6q39 0 63 26q27 25 27 66q0 47 -27 74q-28 24 -63 24v0zM954 1802q-59 -2 -84 -35q-22 -32 -22 -55q2 -57 41 -78q16 -10 35 -16q18 -6 30 -6q88 2 92 92q0 47 -26 74q-29 24 -66 24v0z" />
    <glyph glyph-name="quotesinglbase" unicode="&#x192;" 
d="M571 809q27 276 84 397q58 119 150 117q45 -2 65 -19q19 -16 19 -30q6 -29 22 -53q19 -29 58 -29q96 2 100 80q0 49 -51 88q-51 37 -148 39q-94 0 -161 -41q-68 -41 -119 -107q-78 -94 -113 -205q-35 -110 -51 -237h-147q-17 0 -19 -12l-14 -43q-4 -21 12 -19h158
l-49 -465q-23 -243 -64 -352q-43 -106 -127 -106q-47 2 -63 34q-13 37 -37 66q-25 29 -68 29q-33 0 -51 -23q-18 -22 -18 -57q2 -51 51 -86q51 -37 131 -39q143 0 250 133q106 131 143 438l47 428h205q18 -2 24 12l15 50q2 12 -19 12h-215z" />
    <glyph glyph-name="threequarters" unicode="&#x2c6;" horiz-adv-x="661" 
d="M324 1198l223 -158q12 -8 18 2l17 19q6 6 -5 16l-225 268q-12 19 -26 21q-13 -2 -25 -19l-215 -268q-12 -12 -6 -20l18 -19q11 -6 19 2l207 156v0z" />
    <glyph glyph-name="Ccaron" unicode="&#x2c7;" horiz-adv-x="661" 
d="M340 1208l-225 156q-13 8 -19 -2l-16 -19q-6 -6 4 -16l225 -268q15 -21 27 -21q12 2 24 19l215 268q13 14 7 20l-19 19q-8 6 -18 -2l-205 -154v0z" />
    <glyph glyph-name="gbreve" unicode="&#x2d8;" horiz-adv-x="661" 
d="M326 1034q49 0 96 27q43 22 80 61q78 80 98 160q6 12 -4 16l-23 15q-10 4 -16 -11q-25 -45 -88 -92q-61 -49 -143 -51q-64 0 -123 41q-62 37 -101 102q-10 19 -16 13l-20 -13q-11 -8 -7 -24q21 -98 97 -170q73 -72 170 -74v0z" />
    <glyph glyph-name="Idotaccent" unicode="&#x2d9;" horiz-adv-x="661" 
d="M336 1286q-66 -2 -90 -37q-27 -37 -25 -65q2 -64 45 -86q19 -11 37 -17q21 -6 33 -6q45 0 74 29q28 28 30 71q-2 54 -30 82q-33 29 -74 29v0z" />
    <glyph glyph-name="Scedilla" unicode="&#x2da;" horiz-adv-x="661" 
d="M322 1055q208 2 210 161q0 60 -47 101q-49 39 -145 41q-92 0 -150 -45q-61 -45 -61 -117q0 -59 49 -98q49 -43 144 -43v0zM330 1108q-88 2 -90 96q2 94 98 98q80 -2 84 -92q-2 -102 -92 -102v0z" />
    <glyph glyph-name="cacute" unicode="&#x2db;" horiz-adv-x="661" 
d="M369 29q-62 -27 -136 -99q-34 -34 -57 -71q-24 -41 -24 -84q0 -49 28 -84q27 -37 68 -58q86 -43 176 -45q70 -4 70 33q-3 37 -80 33q-56 4 -95 43q-45 39 -45 88q0 88 52 143q22 31 53 56q29 24 59 45h-69z" />
    <glyph glyph-name="glyph130" unicode="&#x2dc;" horiz-adv-x="661" 
d="M575 1284q-12 0 -14 -12q-4 -29 -18 -49q-15 -25 -49 -25q-68 0 -140 29q-59 26 -151 30q-121 -2 -158 -170q-8 -36 6 -34h37q10 0 14 10q11 43 33 65q23 21 47 21q62 0 127 -23q33 -10 70 -20q37 -14 80 -14q67 2 108 49q37 45 49 106q9 39 -6 37h-35z" />
    <glyph glyph-name="Oacute" unicode="&#x2013;" 
d="M1024 565v115h-1024v-115h1024z" />
    <glyph glyph-name="Ocircumflex" unicode="&#x2014;" horiz-adv-x="2048" 
d="M2048 680h-2048v-115h2048v115z" />
    <glyph glyph-name="Uacute" unicode="&#x2018;" horiz-adv-x="389" 
d="M219 942q49 0 78 27q25 26 25 61q-3 66 -43 92q-19 13 -35 19q-17 6 -27 8q-29 14 -31 57q2 78 50 139q45 60 79 93q19 14 17 26q0 17 -21 17q-20 -2 -37 -17q-36 -16 -120 -106q-37 -43 -64 -105q-31 -61 -31 -135q2 -86 58 -129q53 -47 102 -47v0z" />
    <glyph glyph-name="Ucircumflex" unicode="&#x2019;" horiz-adv-x="389" 
d="M172 1481q-49 -2 -74 -25q-28 -25 -28 -63q2 -66 47 -89q18 -12 35 -18q16 -8 22 -12q29 -13 31 -58q-2 -73 -47 -137q-43 -61 -82 -94q-19 -14 -17 -27q0 -16 21 -16q22 2 37 16q16 11 51 39q35 29 72 72q39 45 65 106q27 60 27 129q-2 86 -53 134q-54 43 -107 43v0z
" />
    <glyph glyph-name="Lslash" unicode="&#x201a;" horiz-adv-x="389" 
d="M172 229q-49 -2 -74 -24q-28 -27 -28 -62q2 -65 47 -90q18 -12 35 -18q16 -8 22 -12q29 -13 31 -58q-2 -76 -47 -135q-47 -61 -84 -94q-17 -14 -15 -27q0 -16 19 -16q24 2 39 16q16 10 51 39t72 72q39 43 65 104q27 60 27 129q-2 86 -53 133q-54 43 -107 43v0z" />
    <glyph glyph-name="apple" unicode="&#x201c;" horiz-adv-x="737" 
d="M223 942q49 0 78 27q25 26 25 61q-2 66 -43 92q-19 13 -35 19q-17 6 -27 8q-29 14 -31 57q2 78 50 139q45 60 79 93q19 14 17 26q0 17 -21 17q-20 -2 -36 -17q-37 -16 -121 -106q-37 -43 -64 -105q-31 -61 -31 -135q3 -86 58 -129q53 -47 102 -47v0zM559 942q49 0 78 27
q27 26 27 61q-3 66 -46 92q-18 13 -34 19q-17 6 -27 8q-29 14 -31 57q2 78 49 139q45 60 82 93q19 14 17 26q0 17 -21 17q-24 -2 -39 -17q-37 -16 -120 -106q-37 -43 -64 -105q-31 -61 -31 -135q2 -86 58 -129q53 -47 102 -47v0z" />
    <glyph glyph-name="Ograve" unicode="&#x201d;" horiz-adv-x="737" 
d="M174 1481q-49 -2 -74 -25q-28 -25 -28 -63q2 -66 47 -89q18 -12 35 -18q16 -8 22 -12q29 -13 31 -58q-2 -73 -47 -137q-43 -61 -82 -94q-19 -14 -17 -27q0 -16 21 -16q22 2 37 16q16 11 51 39q35 29 72 72q39 45 65 106q27 60 27 129q-2 86 -53 134q-54 43 -107 43v0z
M514 1481q-45 -2 -74 -25q-28 -25 -28 -63q2 -66 47 -89q41 -26 57 -30q29 -13 31 -58q-2 -73 -47 -137q-43 -61 -82 -94q-19 -14 -17 -27q0 -16 21 -16q24 2 39 16q16 11 51 39q35 29 72 72q39 45 65 106q27 60 27 129q-2 86 -56 134q-53 43 -106 43v0z" />
    <glyph glyph-name="lslash" unicode="&#x201e;" horiz-adv-x="737" 
d="M174 229q-49 -2 -74 -24q-28 -27 -28 -62q2 -65 47 -90q18 -12 35 -18q16 -8 22 -12q29 -13 31 -58q-2 -76 -47 -135q-43 -61 -82 -94q-19 -14 -17 -27q0 -16 21 -16q22 2 37 16q16 10 51 39t72 72q39 43 65 104q27 60 27 129q-2 86 -53 133q-54 43 -107 43v0zM514 229
q-45 -2 -74 -24q-28 -27 -28 -62q2 -65 47 -90q41 -26 57 -30q29 -13 31 -58q-2 -76 -47 -135q-43 -61 -82 -94q-19 -14 -17 -27q0 -16 21 -16q24 2 39 16q16 10 51 39t72 72q39 43 65 104q27 60 27 129q-2 86 -56 133q-53 43 -106 43v0z" />
    <glyph glyph-name="ae" unicode="&#x2020;" 
d="M534 -276q15 0 15 18q4 213 28 500q13 135 27 239q14 101 27 137q-21 23 -45 80q-29 56 -31 185q98 -2 201 -29q49 -12 86 -23q34 -10 47 -10q28 0 47 10q16 11 24 23q15 29 15 49q0 31 -17 57q-18 27 -61 27q-43 -2 -143 -22q-101 -23 -199 -25q2 117 33 246
q12 61 22 110q6 47 6 74q0 47 -24 80q-25 29 -76 31q-41 -2 -70 -31q-30 -33 -30 -80q2 -57 28 -184q23 -129 25 -246q-96 2 -190 25q-46 10 -80 16q-35 6 -52 6q-47 0 -71 -22q-25 -27 -25 -62q0 -24 21 -51q16 -29 67 -31q39 2 140 33q47 12 96 22q24 5 49 7h45
q-2 -129 -29 -187q-12 -28 -24 -47q-13 -18 -23 -31q17 -36 31 -141q12 -104 24 -239q27 -291 29 -490q-2 -24 14 -24h43z" />
    <glyph glyph-name="ogonek" unicode="&#x2021;" 
d="M516 1481q-39 -2 -68 -31q-32 -33 -32 -80q2 -57 28 -184q25 -129 27 -246q-96 2 -190 25q-45 10 -80 16t-52 6q-47 0 -71 -22q-25 -27 -25 -62q0 -24 21 -51q16 -29 67 -31q39 2 140 33q47 12 96 22q24 5 49 7h45q0 -93 -16 -152q-17 -61 -41 -115q20 -32 39 -112
q16 -82 18 -182q-98 2 -197 32q-47 13 -82 23q-36 6 -53 6q-51 -2 -67 -29q-21 -28 -19 -53q0 -27 25 -53q22 -31 61 -31q35 2 135 25q99 20 197 22q-4 -115 -29 -241q-12 -60 -22 -109q-10 -51 -10 -80q0 -47 24 -78q25 -30 72 -32q45 2 74 32q28 31 30 78q-2 62 -26 189
q-27 126 -29 241q98 -2 195 -22q94 -23 126 -25q50 0 74 27q23 26 23 57q0 27 -17 53q-20 27 -71 29q-17 0 -52 -6q-36 -10 -83 -23q-101 -30 -195 -32q4 208 57 294q-28 56 -41 115q-16 59 -16 152q98 -2 203 -29q49 -12 86 -23q35 -10 51 -10q24 0 41 10q16 11 24 23
q13 29 13 49q0 31 -17 57q-20 27 -69 27q-31 -2 -131 -22q-103 -23 -201 -25q2 117 33 246q12 61 22 110q6 47 6 74q0 47 -24 80q-25 29 -76 31v0z" />
    <glyph glyph-name="radical" unicode="&#x2022;" horiz-adv-x="696" 
d="M592 737q-2 115 -68 178q-69 64 -180 64q-106 -2 -170 -68q-70 -67 -70 -174q2 -98 78 -162q72 -65 166 -67q107 0 176 65q66 62 68 164v0z" />
    <glyph glyph-name="Aacute" unicode="&#x2026;" horiz-adv-x="2048" 
d="M346 -25q51 2 86 33q33 29 33 80q-2 59 -35 92q-35 31 -84 31q-72 -2 -98 -43q-29 -41 -29 -72q2 -69 49 -96q43 -25 78 -25v0zM1716 -25q47 2 82 33q33 29 33 80q-2 59 -35 92q-35 31 -80 31q-76 -2 -102 -43q-29 -41 -29 -72q2 -69 49 -96q45 -25 82 -25v0zM1030 -25
q51 2 84 33q33 29 33 80q0 59 -33 92q-35 31 -84 31q-74 -2 -100 -43q-29 -41 -27 -72q2 -69 47 -96q43 -25 80 -25v0z" />
    <glyph glyph-name="Scaron" unicode="&#x2030;" horiz-adv-x="2253" 
d="M348 602q-26 0 -63 27q-39 24 -64 73q-37 88 -37 248q0 72 8 162q9 90 35 154q21 38 49 57q29 14 56 14q55 0 88 -35q31 -34 49 -92q29 -118 27 -250q0 -188 -29 -274q-21 -53 -53 -70q-35 -16 -66 -14v0zM338 1399q-152 -4 -225 -138q-72 -133 -72 -309q0 -45 12 -110
q10 -68 43 -138q33 -69 94 -114q62 -49 158 -49q279 4 297 430q-2 69 -16 143q-15 74 -49 139q-33 66 -93 107q-61 39 -149 39v0zM1225 1339q8 13 8 19q4 6 -35 28q-27 13 -33 13q-10 -2 -16 -17l-832 -1347q-10 -15 -10 -25q-2 -8 29 -24q33 -17 37 -17q8 0 20 27zM1198 43
q-27 0 -63 27q-39 24 -64 73q-37 88 -37 248q0 72 8 162q9 90 35 154q21 38 49 57q29 14 56 14q55 0 88 -35q30 -34 49 -92q28 -119 26 -250q0 -188 -28 -274q-21 -53 -53 -70q-35 -16 -66 -14v0zM1188 840q-152 -4 -226 -138q-71 -133 -71 -309q0 -45 12 -110
q10 -68 43 -138q33 -69 94 -114q62 -47 158 -49q279 6 297 430q-2 69 -16 143q-15 74 -50 139q-32 66 -92 107q-61 39 -149 39v0zM1915 43q-27 0 -64 27q-39 24 -63 73q-37 88 -37 248q0 72 8 162t35 154q20 38 49 57q29 14 55 14q56 0 88 -35q31 -34 50 -92
q28 -119 26 -250q0 -188 -28 -274q-21 -53 -54 -70q-35 -16 -65 -14v0zM1905 840q-152 -4 -226 -138q-71 -133 -71 -309q0 -45 12 -110q10 -68 43 -138q33 -69 94 -114q61 -47 158 -49q278 6 297 430q-2 69 -17 143q-14 74 -49 139q-33 66 -92 107q-61 39 -149 39v0z" />
    <glyph glyph-name="dotaccent" unicode="&#x2039;" horiz-adv-x="520" 
d="M379 102q8 -8 14 -8q4 0 8 4l31 29q6 6 6 10q0 6 -6 15l-188 282l186 281q8 8 8 14t-6 10l-29 29q-4 6 -10 6t-12 -8l-318 -318q-10 -8 -10 -14t8 -12z" />
    <glyph glyph-name="ring" unicode="&#x203a;" horiz-adv-x="520" 
d="M457 420q10 8 10 14t-8 12l-320 318q-8 10 -14 10q-4 0 -8 -4l-29 -31q-6 -4 -6 -10t6 -14l188 -281l-186 -282q-8 -7 -8 -15q0 -4 6 -10l27 -27q6 -6 10 -6q6 0 12 8z" />
    <glyph glyph-name="guillemotright" unicode="&#x2122;" horiz-adv-x="1859" 
d="M432 1390h86q62 -2 96 -18q29 -14 50 -47q20 -33 26 -51q2 -15 17 -10l16 6q6 2 6 10q-16 117 -25 184q-4 17 -10 17q-4 0 -10 -4l-20 -13q-25 -12 -58 -14q-106 -6 -237 -6q-125 0 -220 6q-36 0 -61 18l-14 9q-4 4 -11 4q-8 0 -12 -17q-14 -69 -41 -180q-2 -8 4 -8
l19 -8q16 -7 18 8q15 26 39 57q23 29 55 43q43 12 97 14h67v-165v-82v-166v-115t-2 -65q-2 -23 -37 -23h-57q-10 0 -10 -12v-37q-2 -10 12 -10q57 0 160 2q96 -2 149 -2q10 0 10 8v39q0 12 -10 12h-55q-33 0 -37 41v154v147v66v208zM1270 926v0l-203 507q-6 23 -39 21
q-45 -4 -109 -4q-81 2 -129 4q-8 0 -8 -12v-37q0 -10 6 -10h33q55 0 58 -58v-164q0 -32 -3 -151q-2 -119 -12 -189q-12 -57 -67 -59h-25q-8 -2 -8 -14v-33q0 -14 10 -12q51 0 135 2q76 -2 131 -2q11 0 11 12v33q0 14 -9 14h-24q-29 0 -45 16q-19 15 -25 58q-2 39 0 135v117
v276h12l254 -626q4 -19 21 -19q16 2 26 25l279 622h6v-311v-127v-80q0 -39 -2 -49q-2 -35 -47 -37h-41q-10 0 -10 -14v-33q0 -12 10 -12q51 0 152 2q96 -2 147 -2q10 0 10 12v35q0 12 -8 12h-49q-35 2 -35 55q-4 125 -4 252q2 140 4 271q0 20 8 32q8 11 37 11h21q8 -2 8 14
v35q0 10 -8 10q12 -2 -209 -2q-29 0 -37 -16z" />
    <glyph glyph-name="glyph153" unicode="&#x2212;" 
d="M115 549v-115h794v115h-794z" />
    <glyph glyph-name="macron" unicode="&#x2215;" horiz-adv-x="856" 
d="M848 1339q8 13 8 19q4 6 -37 28q-29 13 -35 13q-10 -2 -14 -17l-762 -1347q-8 -15 -8 -25q-2 -8 31 -24q32 -17 37 -17q8 0 18 27z" />
    <glyph glyph-name="caron" unicode="&#x2219;" horiz-adv-x="520" 
d="M266 608q51 0 82 33q33 29 33 80q0 59 -33 92q-35 31 -82 31q-74 -2 -100 -43q-29 -41 -27 -72q2 -70 47 -96q43 -27 80 -25v0z" />
    <glyph glyph-name="cedilla" unicode="&#xf001;" horiz-adv-x="1593" 
d="M408 403q47 2 157 -14q39 -6 55 -33q15 -28 17 -59q0 -12 12 -12l39 4q10 0 10 12q-6 49 -6 131q0 76 2 150q0 10 -8 10l-41 4q-10 0 -12 -19q-6 -34 -23 -63q-18 -29 -49 -37q-76 -8 -153 -8v387h126q97 -4 132 -10q45 -6 77 -45q37 -49 60 -82q22 -37 30 -58
q11 -18 17 -12l33 15q6 4 2 16q-4 31 -23 119q-20 90 -29 129q-43 -4 -260 -4q-215 -2 -262 -2q-123 4 -198 6q-13 0 -13 -15v-45q0 -14 11 -14h79q31 0 41 -21q13 -20 15 -36q2 -19 2 -93v-122v-93q0 -344 -4 -389q0 -30 -49 -32h-58q-12 -2 -12 -13v-45q-2 -16 12 -16
q45 4 174 6q66 0 127 -2q62 -4 74 -4q10 2 10 16v45q0 13 -10 13h-49q-25 0 -39 8q-16 8 -16 33v294zM1345 524q0 135 2 279q-2 53 76 51h35q12 0 12 14v49q0 11 -12 11q-57 -4 -180 -6q-76 0 -148 4q-73 2 -88 2q-12 0 -12 -13v-47q-2 -14 12 -14h37q64 0 86 -12
q19 -13 19 -31q2 -129 4 -266v-90v-193v-100q0 -45 -4 -56q-2 -26 -25 -30q-24 -8 -63 -8h-45q-13 -2 -13 -13v-45q0 -16 13 -16q57 4 200 6q74 0 137 -2q62 -4 78 -4q13 2 13 14v49q0 11 -13 11h-30q-86 0 -89 75v148q-2 108 -2 131v102z" />
    <glyph glyph-name="hungarumlaut" unicode="&#xf002;" horiz-adv-x="1894" 
d="M408 403q47 2 157 -14q39 -6 55 -33q15 -28 17 -59q0 -12 12 -12l39 4q10 0 10 12q-6 49 -6 131q0 76 2 150q0 10 -8 10l-41 4q-10 0 -12 -19q-6 -34 -23 -63q-18 -29 -49 -37q-76 -8 -153 -8v387h126q97 -4 132 -10q45 -6 77 -45q37 -49 60 -82q22 -37 30 -58
q11 -18 17 -12l33 15q6 4 2 16q-4 31 -23 119q-20 90 -29 129q-43 -4 -260 -4q-215 -2 -262 -2q-123 4 -198 6q-13 0 -13 -15v-45q0 -14 11 -14h79q31 0 41 -21q13 -20 15 -36q2 -19 2 -93v-122v-93q0 -344 -4 -389q0 -30 -49 -32h-58q-12 -2 -12 -13v-45q-2 -16 12 -16
q45 4 174 6q66 0 127 -2q62 -4 74 -4q10 2 10 16v45q0 13 -10 13h-49q-25 0 -39 8q-16 8 -16 33v294zM1188 510q-4 -236 -4 -406q-2 -34 -58 -36h-63q-14 0 -14 -13v-43q0 -18 12 -18q18 0 80 4q61 2 114 2q295 0 553 -4q37 145 64 254q4 16 -2 20l-33 15q-10 2 -19 -11
q-26 -43 -79 -112q-25 -33 -47 -56q-23 -24 -37 -30q-49 -2 -162 -2q-113 -2 -143 -2q-3 51 -3 178q-2 129 -2 158v112q2 201 5 289q-3 24 14 37q14 8 67 8h31q12 0 12 12v49q0 13 -10 13q-59 -4 -200 -6q-144 4 -195 6q-10 0 -10 -11v-49q0 -14 10 -14h31q53 0 69 -8
q15 -13 15 -39q4 -60 4 -223v-74z" />
    </font>
</defs>
</svg>
