<?xml version="1.0" standalone="no"?>
<!DOCTYPE svg PUBLIC "-//W3C//DTD SVG 1.1//EN" "http://www.w3.org/Graphics/SVG/1.1/DTD/svg11.dtd" >
<svg xmlns="http://www.w3.org/2000/svg" xmlns:xlink="http://www.w3.org/1999/xlink" version="1.1">
<metadata>
Created by FontForge 20170731 at Tue Jun  8 13:41:03 2021
 By Aleksey,,,
Copyright (c) 2009 by The Font Bureau, Inc.. All rights reserved.
</metadata>
<defs>
<font id="WilliamsCaslonText-Italic" horiz-adv-x="983" >
  <font-face 
    font-family="WilliamsCaslonText Regular"
    font-weight="400"
    font-style="italic"
    font-stretch="normal"
    units-per-em="2048"
    panose-1="2 0 5 3 6 0 0 9 0 3"
    ascent="1495"
    descent="-553"
    x-height="840"
    cap-height="1341"
    bbox="-452.2 -555 2471.27 1708"
    underline-thickness="102"
    underline-position="-307"
    slope="-12"
    unicode-range="U+0020-FB04"
  />
<missing-glyph horiz-adv-x="1017" 
d="M-90 4l358 1421h842l-358 -1421h-842zM330 1356l-324 -1284h682l324 1284h-682z" />
    <glyph glyph-name="f_f" unicode="ff" horiz-adv-x="958" 
d="M772 721l-141 -574q-150 -612 -434 -612q-71 0 -134.5 27t-74.5 78q-95 -132 -213 -132q-33 0 -68 10t-65.5 38t-30.5 69q0 31 21.5 54.5t50.5 23.5q41 0 69 -41q41 -68 80 -68q31 0 58 36t50.5 111.5t37 128t34.5 148.5q1 6 2 9l150 678l-150 -7q-13 0 -16 6t2 23l16 37
q9 21 52 24l112 3q44 168 92.5 280.5t103.5 173t111.5 85t128.5 24.5q41 0 85 -12t79 -39.5t35 -63.5q99 139 258 139q62 0 117 -33.5t55 -87.5q0 -31 -19 -53t-50 -22q-26 0 -41.5 8t-26.5 33q-40 77 -88 77q-117 0 -176 -225q-5 -22 -24 -111t-34 -153l177 8q14 0 18 -4
t0 -16l-23 -51q-9 -21 -38 -21zM653 809q55 233 115 352q-57 -12 -92 43q-45 72 -107 72q-25 0 -46 -7.5t-38.5 -25.5t-29.5 -33.5t-25.5 -47t-20.5 -49.5t-20 -56q-44 -129 -76 -264zM244 -387q39 0 77 42.5t69 112.5t54 141.5t41 147.5l152 660l-340 -12l-133 -558
q-73 -297 -131 -423q15 6 33 6q22 0 36 -10.5t29 -32.5q22 -36 47 -55t66 -19z" />
    <glyph glyph-name="f_i" unicode="fi" horiz-adv-x="954" 
d="M-223 -492q-33 0 -68 10t-65.5 38t-30.5 69q0 31 21.5 54.5t50.5 23.5q44 0 69 -41q24 -36 40.5 -52t39.5 -16q19 0 36 13.5t31.5 41t26 57.5t23.5 74.5t21 80t20.5 86t19.5 80.5q8 32 17 72.5t32.5 144t49.5 217.5l55 241l-154 -8q-27 0 -14 29l16 35q9 21 52 24l118 9
q30 133 70.5 236t84.5 168.5t95 107t99.5 58.5t101.5 17q64 0 138.5 -44.5t74.5 -98.5q0 -31 -18.5 -57.5t-47.5 -26.5q-57 0 -75 39q-26 50 -57.5 77t-80.5 27q-64 0 -115.5 -57.5t-74.5 -144.5q-8 -28 -28 -134.5t-34 -164.5l201 12q83 4 126.5 16.5t72.5 12.5
q36 0 59 -23q17 -17 23 -39.5t-1 -56.5t-14.5 -59.5t-25.5 -75.5l-123 -344q-3 -9 -12.5 -35t-15 -44t-5.5 -26q0 -25 19 -25q11 0 23 9t19.5 18t20.5 27q6 8 15.5 20.5t14 18.5t12 15t12 13t10.5 9t11 6.5t11 1.5q12 0 19.5 -7.5t7.5 -19.5q0 -10 -6.5 -23.5t-21.5 -35
t-19 -27.5q-50 -75 -100 -118.5t-111 -43.5q-37 0 -61.5 19.5t-24.5 54.5q0 14 4.5 33.5t9 34t16 47.5t17.5 51l121 354q36 112 36 129q0 25 -22 25q-57 0 -205 -8l-131 -7l-137 -555q-20 -81 -32.5 -128t-36 -123.5t-43.5 -123t-50.5 -102.5t-61.5 -87.5t-73 -53t-88 -21.5
z" />
    <glyph glyph-name="f_l" unicode="fl" horiz-adv-x="952" 
d="M-223 -492q-33 0 -68 10t-65.5 38t-30.5 69q0 31 21.5 54.5t50.5 23.5q44 0 69 -41q24 -36 40.5 -52t39.5 -16q19 0 36 13.5t32 41.5t26.5 57t24 75t20.5 79.5t20 86t19 80.5q70 316 99 434l57 239l-143 -6q-28 0 -15 29l17 35q11 24 51 24l106 4q36 138 76.5 241.5
t81 169.5t86.5 107t90 57.5t94 16.5q32 0 81.5 -14t74.5 -33q80 35 119 35q22 0 29.5 -10t7.5 -31q0 -9 -2 -16.5t-6 -20.5t-7 -24l-270 -1002q-29 -106 -29 -131t25 -25q16 0 33 18.5t53 68.5q29 40 40.5 51.5t24.5 11.5q12 0 20.5 -8t8.5 -23q0 -23 -51 -92
q-112 -164 -199 -164q-42 0 -66 26.5t-24 70.5q0 34 27 145l221 858q20 76 20 133q0 40 -47 70q-43 26 -98 26q-41 0 -75 -19t-58 -54t-40.5 -71t-31.5 -83q-18 -57 -76 -283l152 11q15 1 20 -4.5t0 -16.5l-22 -51q-8 -22 -41 -22l-125 -5l-139 -553q-20 -81 -32.5 -128
t-36 -123.5t-43.5 -123t-50.5 -102.5t-61.5 -87.5t-73 -53t-88 -21.5z" />
    <glyph glyph-name="f_f_i" unicode="ffi" horiz-adv-x="1423" 
d="M197 -465q-72 0 -135 27t-74 78q-95 -132 -215 -132q-33 0 -67.5 10t-64.5 38t-30 69q0 31 21.5 54.5t50.5 23.5q44 0 69 -41q24 -36 40.5 -52t39.5 -16q19 0 36 13.5t32 41.5t26.5 57t24 75t20.5 79.5t20 86t19 80.5q4 20 17.5 73t34 143t47.5 218l53 241l-150 -6
q-24 0 -14 29l16 37q9 21 52 24l112 5q32 132 73 232.5t84 162.5t94 100.5t98.5 53t101.5 14.5q70 0 132 -39.5t62 -95.5q53 75 137 117t162 42q66 0 137.5 -41.5t71.5 -95.5q0 -31 -19 -59.5t-48 -28.5q-55 0 -76 41q-44 100 -129 100q-79 0 -136 -63.5t-81 -155.5
q-5 -22 -24 -112t-34 -154l209 10q28 2 98 8.5t95 6.5q36 0 59 -23q17 -17 23 -39.5t-1 -56.5t-14.5 -59.5t-25.5 -75.5l-123 -344q-3 -9 -12.5 -35t-15 -44t-5.5 -26q0 -25 19 -25q11 0 23 9t19.5 18t20.5 27q6 8 15.5 20.5t14 18.5t12 15t12 13t10.5 9t11 6.5t11 1.5
q12 0 19.5 -7.5t7.5 -19.5q0 -10 -6.5 -23.5t-21.5 -35t-19 -27.5q-50 -75 -100 -118.5t-111 -43.5q-37 0 -61.5 19.5t-24.5 54.5q0 14 4.5 33.5t9 34t16 47.5t17.5 51l121 354q43 133 43 148q0 24 -23 24l-340 -14l-143 -574q-26 -108 -55.5 -195.5t-69 -167t-84 -133
t-101 -85t-120.5 -31.5zM651 807q42 185 131 354q-78 -16 -104 35q-41 80 -96 80q-69 0 -114.5 -59.5t-80.5 -159.5q-44 -129 -76 -264zM244 -387q45 0 87 56t74 141.5t68 216.5q33 133 102 434l60 256l-338 -15l-137 -555q-1 -6 -14.5 -60t-16.5 -67t-15 -58.5t-18.5 -66.5
t-18 -56.5t-22 -62t-22.5 -52.5q15 6 33 6q34 0 65 -43q51 -74 113 -74z" />
    <glyph glyph-name="f_f_l" unicode="ffl" horiz-adv-x="1417" 
d="M195 -465q-73 0 -134.5 27t-72.5 78q-95 -132 -215 -132q-33 0 -68 10t-65.5 38t-30.5 69q0 31 21.5 54.5t50.5 23.5q44 0 69 -41q41 -68 80 -68q19 0 36.5 13.5t32 41.5t26.5 57.5t24 74.5t20 79.5t20 86t19 80.5q50 200 101 434l55 250l-152 -6q-24 0 -12 28l14 37
q11 25 52 25l112 2q36 135 75 233.5t78.5 160.5t86 98.5t92 50.5t102.5 14q41 0 85 -12t79 -39.5t35 -63.5q54 76 116.5 107.5t147.5 31.5q26 0 78.5 -16t79.5 -29q78 33 115 33q41 0 41 -41q0 -9 -2 -16.5t-6 -20.5t-7 -24l-270 -1002q-29 -106 -29 -131t25 -25
q16 0 33 18.5t53 68.5q29 40 40.5 51.5t24.5 11.5t21 -8t8 -23q0 -23 -51 -92q-112 -164 -199 -164q-42 0 -66 26.5t-24 70.5q0 34 27 145l221 858q20 76 20 133q0 40 -47 70q-46 28 -104 28q-42 0 -75.5 -13.5t-54.5 -33t-38.5 -52t-27 -60t-19.5 -66.5q-8 -30 -26.5 -117
t-31.5 -141l177 8q14 0 18 -4t0 -16l-23 -51q-9 -21 -38 -21l-148 -6l-143 -580q-35 -138 -73 -241.5t-90 -191t-119.5 -133.5t-149.5 -46zM653 815q51 225 111 346q-61 -14 -92 43q-13 26 -40.5 49t-66.5 23q-25 0 -46 -7.5t-38 -25t-29.5 -34.5t-25.5 -47t-20.5 -49.5
t-20.5 -55.5q-43 -128 -74 -256zM240 -387q37 0 69.5 29.5t61 88.5t51.5 128.5t49 167.5q9 32 18.5 72.5t33 144.5t50.5 217l62 262l-338 -12l-139 -564q-71 -291 -125 -423q15 6 33 6q34 0 65 -43q51 -74 109 -74z" />
    <glyph glyph-name="f_b" unicode="fb" horiz-adv-x="1331" 
d="M-225 -492q-33 0 -68 10t-65.5 38t-30.5 69q0 31 22.5 54.5t51.5 23.5q45 0 67 -43q19 -35 37.5 -50.5t42.5 -15.5q15 0 29 8.5t26 26.5t22.5 37t21 50.5t18.5 56t17.5 63.5t15 64t14.5 66t14 61l156 680l-148 -11q-13 -2 -17 5t3 24l16 39q6 12 16.5 16t35.5 6l110 9
q60 222 128 353t138.5 180.5t161.5 49.5q30 0 74 -12.5t70 -26.5q14 6 31 15.5t29.5 14.5t27.5 5q37 0 37 -33q0 -17 -6.5 -39t-6.5 -24q0 -5 -28 -122t-68.5 -286.5t-62.5 -267.5q41 87 140.5 162.5t182.5 75.5q90 0 136 -56t46 -155q0 -122 -68.5 -263t-168.5 -241
q-150 -150 -287 -150q-79 0 -135.5 48t-56.5 127q0 45 24 163l195 895q-34 90 -117 90q-140 0 -207 -217q-38 -123 -76 -284l162 10q30 3 21 -21l-23 -49q-8 -19 -41 -22l-133 -8l-137 -560q-19 -77 -32.5 -127.5t-37 -124.5t-44 -122t-51 -103t-62.5 -87t-74 -53.5
t-88 -21.5zM829 664q-92 -92 -147 -230.5t-55 -249.5q0 -47 22 -85t68 -38q76 0 160 84q79 79 139.5 217.5t60.5 249.5q0 53 -25.5 90t-78.5 37q-69 0 -144 -75z" />
    <glyph glyph-name="f_j" unicode="fj" horiz-adv-x="905" 
d="M-227 -492q-33 0 -68 10t-65.5 38t-30.5 69q0 31 21.5 54.5t50.5 23.5q44 0 69 -41q24 -36 40.5 -52t39.5 -16q19 0 36.5 13.5t32 41.5t26.5 58t24.5 75t21.5 79.5t21.5 85.5t19.5 80q5 19 99 434l55 241l-154 -8q-13 0 -16 6t2 23l16 35q7 24 52 24l118 9
q30 133 70.5 236t84.5 168.5t95 107t99.5 58.5t101.5 17q64 0 138.5 -44.5t74.5 -98.5q0 -31 -18.5 -57.5t-47.5 -26.5q-57 0 -75 39q-26 50 -57.5 77t-80.5 27q-64 0 -115.5 -57.5t-74.5 -144.5q-8 -28 -28 -134.5t-34 -164.5l201 12q83 4 133 19.5t78 15.5q44 0 66 -30
t22 -77q0 -44 -70.5 -322t-117.5 -438q-53 -187 -93 -267q-92 -187 -247 -187q-24 0 -47 4t-50.5 14.5t-44 34.5t-16.5 59q0 31 20.5 51.5t49.5 20.5q44 0 67 -45q16 -33 27 -43t39 -10q34 0 58 29t54 119.5t72 269.5q18 77 40.5 169.5t42.5 172t37 145t28.5 109.5t11.5 45
q2 6 2 14q0 42 -57 39l-324 -15l-137 -555q-19 -77 -32.5 -127.5t-37 -124.5t-44 -122t-51 -103t-62.5 -87t-74 -53.5t-88 -21.5z" />
    <glyph glyph-name="f_h" unicode="fh" horiz-adv-x="1382" 
d="M911 1264q-8 -25 -97 -330t-134 -451l14 -2q11 15 34.5 50t35.5 52t32 44t39.5 49t41.5 43q121 121 235 121q56 0 92 -31q12 -11 19.5 -27t11 -30.5t2 -37.5t-3.5 -37t-9 -41t-10.5 -38t-12.5 -39t-11 -33l-92 -297q-2 -5 -11.5 -32.5t-14.5 -45.5t-5 -30q0 -13 8 -20
t19 -7q17 0 57 51q18 24 25.5 32.5t15.5 14.5t18 7q9 0 18 -7.5t9 -19.5q0 -23 -39 -76q-46 -64 -82 -92.5t-90 -28.5q-43 0 -69.5 19.5t-26.5 58.5q0 14 4.5 36t8.5 38t13 46.5t11 39.5l112 385q7 24 10.5 38.5t5 34t-3 31t-16.5 19.5t-33 8q-49 0 -129 -76
q-70 -69 -160 -187t-102 -161q-27 -90 -33 -121q-5 -25 -16 -67t-18 -70q-6 -28 -22.5 -40.5t-55.5 -12.5q-60 0 -60 31q1 13 28 114t70.5 260t67.5 252l111 418q20 76 20 133q0 40 -47 70q-43 26 -98 26q-41 0 -75 -19t-58 -54t-40.5 -71t-31.5 -83q-18 -57 -76 -283
l152 11q15 1 20 -4.5t0 -16.5l-22 -51q-8 -22 -41 -22l-125 -5l-139 -553q-20 -81 -32.5 -128t-36 -123.5t-43.5 -123t-50.5 -102.5t-61.5 -87.5t-73 -53t-88 -21.5q-33 0 -68 10t-65.5 38t-30.5 69q0 31 21.5 54.5t50.5 23.5q44 0 69 -41q24 -36 40.5 -52t39.5 -16
q19 0 36 13.5t32 41.5t26.5 57t24 75t20.5 79.5t20 86t19 80.5q70 316 99 434l57 239l-143 -6q-28 0 -15 29l17 35q11 24 51 24l106 4q36 138 76.5 241.5t81 169.5t86.5 107t90 57.5t94 16.5q32 0 81.5 -14t74.5 -33q80 35 119 35q22 0 29.5 -10t7.5 -31q0 -11 -13 -61z" />
    <glyph glyph-name="f_k" unicode="fk" horiz-adv-x="1306" 
d="M662 385q121 30 204.5 64t138 86.5t54.5 117.5q0 35 -21 67t-71 32q-74 0 -168 -104.5t-137 -262.5zM903 1270l-172 -627q56 83 135 140t160 57q69 0 112.5 -47t43.5 -111q0 -100 -80.5 -172.5t-241.5 -132.5q11 -26 33 -79.5t39 -93.5t26 -57q14 -27 20.5 -37t17 -18
t24.5 -8q27 0 76 29q43 24 55 24t20.5 -7t8.5 -19q0 -19 -25 -39q-46 -37 -99.5 -67t-88.5 -30t-52.5 16.5t-54.5 86.5q-12 23 -34 73t-49.5 114.5t-35.5 82.5l-92 -24l-20 -99q-7 -36 -22 -100.5t-21 -97.5q-5 -33 -60 -33q-31 0 -47 5.5t-19 11t-3 14.5q0 1 12 49
q7 33 14 61t16.5 64.5t16.5 66.5l234 930q8 36 -54 76q-43 26 -92 26q-139 0 -211 -227q-18 -57 -76 -283l152 11q15 1 20 -4.5t0 -16.5l-22 -51q-8 -22 -41 -22l-125 -5l-139 -553q-20 -81 -32.5 -128t-36 -123.5t-43.5 -123t-50.5 -102.5t-61.5 -87.5t-73 -53t-88 -21.5
q-33 0 -68 10t-65.5 38t-30.5 69q0 31 21.5 54.5t50.5 23.5q44 0 69 -41q24 -36 40.5 -52t39.5 -16q19 0 36 13.5t32 41.5t26.5 57t24 75t20.5 79.5t20 86t19 80.5q70 316 99 434l57 239l-143 -6q-28 0 -15 29l17 35q11 24 51 24l106 4q36 137 77 241t82.5 170t88.5 107.5
t91.5 57.5t94.5 16q41 0 87.5 -14.5t72.5 -34.5q84 37 101 37q22 0 29 -10t7 -31q0 -9 -12 -55z" />
    <glyph glyph-name="f_f_b" unicode="ffb" horiz-adv-x="1822" 
d="M1321 664q-92 -92 -147.5 -230.5t-55.5 -249.5q0 -47 22 -85t68 -38q76 0 160 84q80 80 140.5 218.5t60.5 248.5q0 53 -26 90t-79 37q-68 0 -143 -75zM1356 1266q0 -5 -28 -119t-68 -280t-62 -265q41 87 141 162.5t183 75.5q90 0 136 -56t46 -155q0 -122 -68.5 -262.5
t-169.5 -241.5q-150 -150 -286 -150q-79 0 -136 48t-57 127q0 21 3 45.5t5.5 39t8.5 42.5t8 36l198 889q0 38 -49 70q-46 28 -104 28q-42 0 -75.5 -13.5t-54.5 -33t-38.5 -52t-27 -60t-19.5 -66.5q-8 -30 -26.5 -117t-31.5 -141l177 8q14 0 18 -4t0 -16l-23 -51
q-9 -21 -38 -21l-148 -6l-143 -580q-35 -138 -73 -241.5t-90 -191t-119.5 -133.5t-149.5 -46q-73 0 -134.5 27t-72.5 78q-95 -132 -215 -132q-33 0 -68 10t-65.5 38t-30.5 69q0 31 21.5 54.5t50.5 23.5q44 0 69 -41q41 -68 80 -68q19 0 36.5 13.5t32 41.5t26.5 57.5t24 74.5
t20 79.5t20 86t19 80.5q50 200 101 434l55 250l-152 -6q-24 0 -12 28l14 37q11 25 52 25l112 2q36 135 75 233.5t78.5 160.5t86 98.5t92 50.5t102.5 14q41 0 85 -12t79 -39.5t35 -63.5q54 76 116.5 107.5t147.5 31.5q76 0 158 -45q72 41 96 41q41 0 41 -37q0 -17 -14 -71z
M653 815q51 225 111 346q-61 -14 -92 43q-13 26 -40.5 49t-66.5 23q-25 0 -46 -7.5t-38 -25t-29.5 -34.5t-25.5 -47t-20.5 -49.5t-20.5 -55.5q-43 -128 -74 -256zM240 -387q37 0 69.5 29.5t61 88.5t51.5 128.5t49 167.5q9 32 18.5 72.5t33 144.5t50.5 217l62 262l-338 -12
l-139 -564q-71 -291 -125 -423q15 6 33 6q34 0 65 -43q51 -74 109 -74z" />
    <glyph glyph-name="f_f_k" unicode="ffk" horiz-adv-x="1767" 
d="M1122 385q90 22 158 46.5t124.5 57t86 74t29.5 90.5q0 35 -21.5 67t-71.5 32q-74 0 -168 -104.5t-137 -262.5zM1364 1266l-172 -623q56 83 135 140t160 57q69 0 112 -47t43 -111q0 -101 -80 -173t-241 -132q11 -26 33 -79.5t39 -93.5t26 -57q14 -27 20.5 -37t17 -18
t24.5 -8q26 0 75 29q43 24 56 24q12 0 20 -7t8 -19q0 -20 -24 -39q-46 -37 -100 -67t-89 -30q-34 0 -51 16t-55 87q-12 23 -34 73t-49.5 114.5t-35.5 82.5l-92 -24l-20 -99q-7 -36 -22 -100.5t-21 -97.5q-5 -33 -60 -33q-31 0 -47 5.5t-19 11t-3 14.5q0 1 12 49q7 33 14 61
t16.5 64.5t16.5 66.5l233 936q0 38 -49 70q-46 28 -104 28q-42 0 -75.5 -13.5t-54.5 -33t-38.5 -52t-27 -60t-19.5 -66.5q-8 -30 -26.5 -117t-31.5 -141l177 8q14 0 18 -4t0 -16l-23 -51q-9 -21 -38 -21l-148 -6l-143 -580q-35 -138 -73 -241.5t-90 -191t-119.5 -133.5
t-149.5 -46q-73 0 -134.5 27t-72.5 78q-95 -132 -215 -132q-33 0 -68 10t-65.5 38t-30.5 69q0 31 21.5 54.5t50.5 23.5q44 0 69 -41q41 -68 80 -68q19 0 36.5 13.5t32 41.5t26.5 57.5t24 74.5t20 79.5t20 86t19 80.5q50 200 101 434l55 250l-152 -6q-24 0 -12 28l14 37
q11 25 52 25l112 2q36 135 75 233.5t78.5 160.5t86 98.5t92 50.5t102.5 14q41 0 85 -12t79 -39.5t35 -63.5q54 76 116.5 107.5t147.5 31.5q76 0 158 -45q72 41 102 41q43 0 43 -41q0 -13 -14 -67zM653 815q51 225 111 346q-61 -14 -92 43q-13 26 -40.5 49t-66.5 23
q-25 0 -46 -7.5t-38 -25t-29.5 -34.5t-25.5 -47t-20.5 -49.5t-20.5 -55.5q-43 -128 -74 -256zM240 -387q37 0 69.5 29.5t61 88.5t51.5 128.5t49 167.5q9 32 18.5 72.5t33 144.5t50.5 217l62 262l-338 -12l-139 -564q-71 -291 -125 -423q15 6 33 6q34 0 65 -43
q51 -74 109 -74z" />
    <glyph glyph-name="f_f_h" unicode="ffh" horiz-adv-x="1835" 
d="M1364 1266q-146 -510 -231 -783l14 -2q9 14 41.5 61t46 66t40.5 52t54 59q121 121 236 121q56 0 92 -31q14 -13 22.5 -29.5t9 -40t0 -40t-8.5 -47.5t-11 -42.5t-14.5 -46l-12.5 -37.5l-92 -297q-2 -7 -8.5 -25.5t-10.5 -30.5t-7.5 -27.5t-3.5 -24.5q0 -27 26 -27
q18 0 58 51q18 24 25.5 32.5t15.5 14.5t18 7q9 0 18 -7.5t9 -19.5q0 -23 -39 -76q-46 -64 -82 -92.5t-90 -28.5q-43 0 -70 19.5t-27 58.5q0 14 4.5 36t8.5 38t13 46.5t11 39.5l113 385q7 24 10.5 38.5t5 34t-3 31t-16.5 19.5t-33 8q-49 0 -129 -76q-70 -69 -160 -187
t-102 -161q-27 -90 -33 -121q-5 -23 -16 -64.5t-19 -72.5q-6 -28 -22.5 -40.5t-55.5 -12.5q-59 0 -59 31q1 13 28 114t70.5 260t67.5 252l145 551q0 38 -49 70q-46 28 -104 28q-42 0 -75.5 -13.5t-54.5 -33t-38.5 -52t-27 -60t-19.5 -66.5q-8 -30 -26.5 -117t-31.5 -141
l177 8q14 0 18 -4t0 -16l-23 -51q-9 -21 -38 -21l-148 -6l-143 -580q-35 -138 -73 -241.5t-90 -191t-119.5 -133.5t-149.5 -46q-73 0 -134.5 27t-72.5 78q-95 -132 -215 -132q-33 0 -68 10t-65.5 38t-30.5 69q0 31 21.5 54.5t50.5 23.5q44 0 69 -41q41 -68 80 -68
q19 0 36.5 13.5t32 41.5t26.5 57.5t24 74.5t20 79.5t20 86t19 80.5q50 200 101 434l55 250l-152 -6q-24 0 -12 28l14 37q11 25 52 25l112 2q36 135 75 233.5t78.5 160.5t86 98.5t92 50.5t102.5 14q41 0 85 -12t79 -39.5t35 -63.5q54 76 116.5 107.5t147.5 31.5q76 0 158 -45
q72 41 102 41q43 0 43 -41q0 -13 -14 -67zM653 815q51 225 111 346q-61 -14 -92 43q-13 26 -40.5 49t-66.5 23q-25 0 -46 -7.5t-38 -25t-29.5 -34.5t-25.5 -47t-20.5 -49.5t-20.5 -55.5q-43 -128 -74 -256zM240 -387q37 0 69.5 29.5t61 88.5t51.5 128.5t49 167.5
q9 32 18.5 72.5t33 144.5t50.5 217l62 262l-338 -12l-139 -564q-71 -291 -125 -423q15 6 33 6q34 0 65 -43q51 -74 109 -74z" />
    <glyph glyph-name=".notdef" horiz-adv-x="1017" 
d="M-90 4l358 1421h842l-358 -1421h-842zM330 1356l-324 -1284h682l324 1284h-682z" />
    <glyph glyph-name=".null" horiz-adv-x="0" 
 />
    <glyph glyph-name="nonmarkingreturn" horiz-adv-x="682" 
 />
    <glyph glyph-name="space" unicode=" " horiz-adv-x="499" 
 />
    <glyph glyph-name="exclam" unicode="!" horiz-adv-x="542" 
d="M412 1364q54 0 82 -35q13 -16 16.5 -35t0.5 -39.5t-13 -62.5q-17 -66 -51.5 -161t-91.5 -272.5t-126 -434.5q-6 -22 -11.5 -28.5t-18.5 -6.5l-41 2q-19 2 -13 33q54 269 84.5 473t42 304.5t23.5 149.5q13 58 37.5 85.5t79.5 27.5zM147 180q39 0 62.5 -28t23.5 -66
q0 -49 -30 -85t-80 -36q-34 0 -60 25t-26 76q0 47 31 80.5t79 33.5z" />
    <glyph glyph-name="quotedbl" unicode="&#x22;" horiz-adv-x="675" 
d="M487 891h-24q-12 0 -12 20l43 332q12 107 90 107q30 0 48.5 -17.5t18.5 -48.5q0 -28 -20 -78l-121 -295q-2 -6 -9 -13t-14 -7zM223 891h-24q-13 0 -13 20l43 332q12 107 90 107q30 0 49 -17.5t19 -48.5q0 -28 -20 -78l-121 -295q-10 -20 -23 -20z" />
    <glyph glyph-name="numbersign" unicode="#" 
d="M852 776h-150l-75 -295h131q30 0 36.5 -6t0.5 -29l-11 -40q-3 -15 -7.5 -22t-9 -8t-15.5 -1h-154l-92 -361q-4 -18 -31 -18h-41q-20 0 -23.5 5t1.5 30l88 344h-226l-90 -363q-3 -16 -24 -16h-56q-12 0 -16.5 3.5t-1.5 12.5l92 363h-125q-33 0 -43 4.5t-4 26.5l12 47
q4 19 14 23.5t36 4.5h139l76 295h-142q-23 0 -29.5 5t-2.5 22l14 57q5 23 45 23h141l88 346q6 20 23 20h55q17 0 21.5 -5.5t-0.5 -14.5l-88 -346h223l90 346q3 11 8 15.5t16 4.5h56q21 0 16 -20l-88 -346h133q26 0 34.5 -5t4.5 -20l-14 -55q-7 -27 -35 -27zM381 776
l-76 -295h223l76 295h-223z" />
    <glyph glyph-name="dollar" unicode="$" 
d="M784 387q0 -176 -118.5 -283.5t-309.5 -107.5l-30 -125q-2 -10 -47 -10q-43 0 -41 10l30 135q-103 16 -233 96q-27 17 -19 48l35 167q4 24 13 33.5t22 7.5q21 -3 28 -12.5t7 -26.5q5 -106 41 -154.5t131 -76.5l121 494q-99 47 -167.5 121t-68.5 171q0 158 111.5 272
t288.5 114l34 131q1 9 16.5 14.5t30.5 5.5q7 0 13.5 -0.5t14 -2t11 -5t2.5 -8.5l-38 -146q60 -7 186 -71q20 -10 16 -37l-24 -166q0 -23 -27 -23q-33 0 -37 35q-17 93 -44 133q-33 48 -87 58l-113 -463q48 -22 89.5 -51t79.5 -69t60.5 -94t22.5 -114zM455 748l106 442
q-53 0 -94.5 -19.5t-66.5 -48.5t-41.5 -66.5t-22.5 -70.5t-6 -63q0 -110 125 -174zM492 551l-115 -477q118 0 192 75t74 197q0 71 -38.5 119t-112.5 86z" />
    <glyph glyph-name="percent" unicode="%" horiz-adv-x="1409" 
d="M285 524q-99 0 -151 79t-52 192q0 84 34 181t103 163q97 94 193 94q33 0 57.5 -7t33.5 -13.5t27 -20.5q37 -29 105 -59.5t141 -30.5q96 0 195.5 28t152.5 91q17 20 35 39t21 22q13 17 21.5 18.5t31.5 -14.5q25 -19 27 -29.5t-15 -29.5l-1087 -1274q-18 -20 -27 -20.5
t-39 20.5q-14 10 -16.5 18t2 15.5t18.5 25.5q711 841 903 1065q-42 -23 -64.5 -33t-65 -18t-101.5 -8q-91 0 -174 67q20 -51 20 -124q0 -86 -37.5 -185t-99.5 -158q-97 -94 -192 -94zM270 610q58 0 103 45q67 65 99 165.5t32 195.5q0 131 -78 131q-54 0 -104 -47
q-65 -63 -98.5 -168t-33.5 -191q0 -51 17.5 -91t62.5 -40zM922 -35q-69 0 -116.5 40t-67 99.5t-19.5 131.5q0 84 34 181t103 163q97 94 193 94q99 0 150.5 -80t51.5 -193q0 -86 -37.5 -184.5t-99.5 -157.5q-97 -94 -192 -94zM907 51q58 0 103 45q67 65 99 165.5t32 195.5
q0 131 -78 131q-55 0 -105 -47q-65 -63 -98 -167.5t-33 -191.5q0 -51 17.5 -91t62.5 -40z" />
    <glyph glyph-name="ampersand" unicode="&#x26;" horiz-adv-x="1542" 
d="M698 121q124 0 227.5 37.5t167.5 97t99 129t35 137.5q0 65 -22 114t-59.5 76.5t-80.5 40.5t-92 13q-83 0 -135 -36t-52 -64q0 -9 5 -15t15.5 -9t20.5 -4t26 -2.5t26 -2.5q30 -5 50.5 -26.5t20.5 -57.5q0 -43 -31 -67.5t-65 -24.5q-69 0 -114.5 54t-45.5 116
q0 117 121 192.5t371 75.5q144 0 223.5 65t79.5 148q0 44 -26.5 87.5t-80.5 43.5q-36 0 -65.5 -22t-56 -44t-56.5 -22q-34 0 -58 17t-24 55q0 61 59.5 96t121.5 35q115 0 186.5 -73.5t71.5 -190.5q0 -90 -53.5 -160t-137 -108t-186.5 -50q66 -30 104.5 -108.5t38.5 -171.5
q0 -99 -50 -192t-138.5 -165.5t-221.5 -116t-288 -43.5q-117 0 -222.5 32.5t-188.5 93.5t-132 156.5t-49 213.5q0 204 201 332q-58 78 -58 192q0 119 95.5 216.5t226.5 97.5q62 0 107.5 -34.5t45.5 -76.5q0 -33 -19 -54.5t-54 -21.5q-26 0 -47.5 12t-34 26t-34 26t-48.5 12
q-76 0 -122 -62.5t-46 -127.5q0 -85 53 -158q42 20 92 20q54 0 89.5 -27t35.5 -69q0 -38 -29 -64t-73 -26q-69 0 -139 66q-52 -22 -88.5 -79.5t-36.5 -142.5q0 -127 76 -221.5t198 -140t270 -45.5z" />
    <glyph glyph-name="quotesingle" unicode="'" horiz-adv-x="409" 
d="M223 891h-24q-13 0 -13 20l43 332q12 107 90 107q30 0 49 -17.5t19 -48.5q0 -28 -20 -78l-121 -295q-10 -20 -23 -20z" />
    <glyph glyph-name="parenleft" unicode="(" horiz-adv-x="716" 
d="M352 -358l-39 -17q-17 -7 -25.5 -1.5t-17.5 22.5q-186 342 -186 667q0 277 132.5 541t393.5 475q1 0 97 72q29 21 45 -2l18 -27q15 -21 -8 -39q-49 -38 -123 -106q-114 -110 -197.5 -236.5t-128 -247.5t-64.5 -226.5t-20 -201.5q0 -343 129 -632q12 -32 -6 -41z" />
    <glyph glyph-name="parenright" unicode=")" horiz-adv-x="716" 
d="M305 1393l39 16q20 5 27 0.5t16 -20.5q186 -342 186 -668q0 -277 -132.5 -541t-393.5 -475q-12 -10 -96 -72q-29 -21 -45 2l-19 27q-15 21 9 39q43 33 122 106q114 110 197.5 236.5t128 247.5t64.5 226.5t20 201.5q0 344 -129 633q-12 32 6 41z" />
    <glyph glyph-name="asterisk" unicode="*" horiz-adv-x="788" 
d="M416 1102q0 37 -25 110q-22 64 -22 86q0 37 23 54.5t46 17.5q25 0 45.5 -18t20.5 -54q0 -20 -19 -79q-22 -77 -22 -117q50 31 84 80q20 26 30.5 38.5t28 23.5t35.5 11q34 0 52 -23t18 -48q0 -17 -6.5 -29t-14 -19.5t-26 -14t-30.5 -9t-40 -8.5q-61 -11 -109 -37
q53 -34 117 -41q30 -4 45 -7t33 -11t25.5 -22t7.5 -36q0 -29 -18 -50t-48 -21q-26 0 -47 16t-47 49q-39 49 -90 82q0 -46 29 -119q20 -58 20 -73q0 -37 -23.5 -53.5t-48.5 -16.5t-45 16t-20 51q0 24 18 76q23 80 23 119q-51 -29 -92 -84q-26 -33 -44.5 -48t-43.5 -15
q-32 0 -51 22t-19 47q0 16 5.5 27.5t11.5 18.5t22 12.5t26.5 8t34.5 7.5q82 17 129 45q-46 26 -133 39q-34 6 -51 11.5t-31 21t-14 41.5q0 28 17.5 49.5t45.5 21.5q16 0 32 -9t25 -18t27 -30q49 -61 103 -92zM406 1067q0 -15 9.5 -26t22.5 -11q14 0 24.5 11t10.5 26
q0 11 -11 21t-24 10t-22.5 -10t-9.5 -21z" />
    <glyph glyph-name="plus" unicode="+" 
d="M545 946v-276h260q23 0 32.5 -1.5t16 -8.5t6.5 -23v-39q0 -22 -11 -26.5t-44 -4.5h-260v-288q0 -23 -1 -32.5t-8.5 -17.5t-23.5 -8h-43q-23 0 -28 12.5t-5 45.5v288h-262q-23 0 -32 1t-16 8t-7 22v39q0 23 11.5 28t43.5 5h262v276q0 23 1 32.5t8.5 17.5t23.5 8h43
q23 0 28 -12.5t5 -45.5z" />
    <glyph glyph-name="comma" unicode="," horiz-adv-x="491" 
d="M131 209q53 0 90 -48t37 -118q0 -60 -27.5 -114t-69.5 -90t-93 -57.5t-99 -21.5q-10 0 -18 8t-8 19q0 25 34 33q72 16 116 59.5t44 108.5q0 28 -15 44t-33 22t-33 25t-15 52q0 32 26 55t64 23z" />
    <glyph glyph-name="hyphen" unicode="-" horiz-adv-x="745" 
d="M502 360h-447q-14 0 -18.5 6t0.5 25l10 37q7 22 18 26.5t48 4.5h446q29 0 19 -31l-11 -37q-7 -22 -18 -26.5t-47 -4.5z" />
    <glyph glyph-name="hyphen" unicode="&#xad;" horiz-adv-x="745" 
d="M502 360h-447q-14 0 -18.5 6t0.5 25l10 37q7 22 18 26.5t48 4.5h446q29 0 19 -31l-11 -37q-7 -22 -18 -26.5t-47 -4.5z" />
    <glyph glyph-name="period" unicode="." horiz-adv-x="512" 
d="M250 98q0 -51 -33 -92t-86 -41q-42 0 -69 29t-27 72q0 49 33 90t84 41q42 0 70 -28.5t28 -70.5z" />
    <glyph glyph-name="slash" unicode="/" horiz-adv-x="798" 
d="M707 1372h65q9 0 12.5 -6.5t-0.5 -15.5q-40 -79 -313 -637.5t-362 -735.5q-6 -12 -23 -12h-74q-6 0 -8.5 2t0 14t14.5 35l654 1330q8 17 15 21.5t20 4.5z" />
    <glyph glyph-name="zero" unicode="0" horiz-adv-x="962" 
d="M594 1233q82 0 143.5 -36.5t95.5 -98t50 -132.5t16 -151q0 -81 -17 -174.5t-48 -188.5t-79.5 -182t-107 -154.5t-135 -108t-158.5 -40.5t-143.5 37.5t-95.5 101t-50 135.5t-16 152q0 81 17 174t48 187t79.5 180t107 152.5t135 106.5t158.5 40zM598 1151
q-68 0 -132.5 -62.5t-110 -159t-80.5 -210t-52.5 -218.5t-17.5 -182q0 -35 5.5 -74.5t19.5 -87t45 -78t75 -30.5q68 0 132.5 63.5t110 161t80.5 212.5t52.5 220.5t17.5 182.5q0 35 -5.5 73.5t-19.5 84t-45 75t-75 29.5z" />
    <glyph glyph-name="one" unicode="1" horiz-adv-x="702" 
d="M233 0q-161 0 -241 -6q-20 -2 -25.5 3.5t0.5 35.5q7 24 15.5 30.5t29.5 8.5l103 10q22 2 34.5 12t17 22.5t13.5 43.5l185 690q16 58 19 86.5t-3 35.5t-21 7q-6 0 -17 -4t-19.5 -8.5t-26 -14t-27.5 -14.5l-67 -37q-24 -14 -45 23q-22 35 22 61q187 113 316 209
q50 39 69 39q16 0 27 -11.5t6 -33.5q-2 -9 -15 -55t-43 -157.5t-67 -252.5l-149 -578q-5 -20 -5 -24q0 -36 50 -39l118 -10q19 -2 23 -8t-2 -31q-9 -29 -15.5 -35t-25.5 -4q-74 6 -234 6z" />
    <glyph glyph-name="two" unicode="2" horiz-adv-x="878" 
d="M508 1233q128 0 214.5 -74.5t86.5 -218.5q0 -114 -59 -212t-177 -216q-94 -94 -214 -205t-197 -172h262q90 0 118 8.5t60 40.5q35 35 62 78q15 23 38 23q16 0 22.5 -9t-1.5 -34q-27 -55 -119 -254q-11 -22 -20.5 -30.5t-26.5 -8.5q-23 0 -31 26q-3 14 -16.5 19.5
t-54.5 5.5h-478q-35 0 -49.5 7t-11.5 26q5 32 45 61q5 4 63.5 48.5t74.5 57.5t68 54t79 65t69.5 61.5t77 72.5t66.5 71q180 199 180 379q0 99 -49 150t-131 51q-43 0 -77.5 -10.5t-65.5 -35t-54 -49.5t-57 -69q-23 -29 -43 -29q-22 0 -33.5 15t0.5 43q154 264 379 264z" />
    <glyph glyph-name="three" unicode="3" horiz-adv-x="847" 
d="M530 1233q99 0 163.5 -56.5t64.5 -156.5q0 -34 -8.5 -66.5t-21 -58t-36 -54.5t-43 -49t-53.5 -47.5t-56 -43.5t-61 -44q84 -54 131 -135.5t47 -165.5q0 -182 -151 -297q-111 -86 -291 -86q-72 0 -130.5 17t-91.5 42.5t-50 52t-17 48.5q0 33 23 58.5t59 25.5
q34 0 53.5 -19t36.5 -69q13 -38 52 -58t86 -20q120 0 196 76q70 70 70 178q0 90 -60.5 168.5t-136.5 112.5q-14 7 -14 22q0 18 28 37q9 6 42 27.5t52 35.5t51.5 39t52.5 48t41.5 52.5t31.5 62t10 67.5q0 57 -39.5 96t-99.5 39q-128 0 -232 -119q-33 -37 -51 -37
q-14 0 -23.5 10t-9.5 23t7 23q51 97 154 159t224 62z" />
    <glyph glyph-name="four" unicode="4" horiz-adv-x="931" 
d="M807 1155l-162 -670h172h2q12 0 16.5 -1t9 -6t-0.5 -17l-17 -66q-3 -14 -11 -17t-28 -3h-174l-82 -350q-4 -21 -13 -26t-34 -5h-77q-18 0 -23.5 2.5t-5.5 11.5q0 5 4 17l84 350h-412q-28 0 -42 7t-15 30q0 9 6 19t12 17t25 27l526 576q164 182 219 182q29 0 29 -29
q0 -21 -8 -49zM494 485l108 453q8 24 8 39l-426 -492h310z" />
    <glyph glyph-name="five" unicode="5" horiz-adv-x="843" 
d="M-29 80q0 29 20 52.5t52 23.5q38 0 68 -39q16 -22 25 -31t36 -19t68 -10q121 0 197.5 90t76.5 211q0 225 -293 252q-29 3 -36.5 26.5t3.5 49.5l138 397q27 78 49.5 97.5t77.5 19.5h227q38 0 55.5 8t30.5 33q12 24 19.5 32.5t21.5 8.5t21.5 -10.5t0.5 -30.5l-57 -178h-344
q-90 -260 -104 -311q176 -26 264 -119q80 -86 80 -211q0 -140 -68.5 -245.5t-175.5 -157.5t-234 -52q-30 0 -64.5 6t-70.5 18t-60 35.5t-24 53.5z" />
    <glyph glyph-name="six" unicode="6" horiz-adv-x="899" 
d="M782 444q0 -121 -59 -231.5t-160.5 -178t-216.5 -67.5q-142 0 -220.5 90.5t-78.5 223.5q0 126 36.5 249t94 220t132 183.5t144.5 145t138 97.5q98 57 158 57q41 0 41 -37q0 -28 -50 -51q-133 -62 -209 -131q-175 -153 -266 -379q71 60 123 83t115 23q124 0 201 -85
t77 -212zM457 645q-104 0 -186.5 -105.5t-82.5 -265.5q0 -90 45.5 -153.5t126.5 -63.5q77 0 142 56.5t100 141t35 171.5q0 93 -50.5 156t-129.5 63z" />
    <glyph glyph-name="seven" unicode="7" horiz-adv-x="759" 
d="M758 1141l-223 -506q-27 -61 -79.5 -177t-89 -202t-77.5 -195q-14 -37 -29.5 -52t-42.5 -15h-88q-33 0 -33 20q0 7 15 37l124 248t150 299l233 461h-356q-39 0 -58.5 -12.5t-58.5 -69.5q-15 -21 -24 -28t-21 -7q-13 0 -20.5 11.5t-3.5 27.5q12 26 59.5 139.5t52.5 124.5
q7 19 13 24t20 5q11 0 18 -9t7 -22q0 -24 9 -33.5t40 -9.5h453q28 0 22 -33q0 -2 -2 -6l-5 -10z" />
    <glyph glyph-name="eight" unicode="8" horiz-adv-x="964" 
d="M358 -33q-80 0 -142.5 24t-98.5 63.5t-54 84t-18 90.5q0 219 334 387q-154 141 -154 279q0 152 103.5 245t265.5 93q121 0 198.5 -62.5t77.5 -169.5q0 -199 -278 -360q174 -133 174 -285q0 -161 -100 -266q-115 -123 -308 -123zM522 686q92 54 154.5 129.5t62.5 167.5
q0 79 -42 125.5t-122 46.5q-91 0 -150.5 -57.5t-59.5 -165.5q0 -132 157 -246zM440 569q-128 -71 -186.5 -151t-58.5 -187q0 -80 41 -131t122 -51q111 0 182.5 75t71.5 181q0 145 -172 264z" />
    <glyph glyph-name="nine" unicode="9" horiz-adv-x="899" 
d="M119 768q0 118 56 225t154.5 173.5t213.5 66.5q133 0 216 -90t83 -232q0 -121 -33.5 -240t-88 -215.5t-126 -181.5t-145 -146t-146.5 -101q-107 -60 -160 -60q-41 0 -41 39q3 29 52 49q170 78 288.5 208.5t178.5 297.5q-70 -57 -118 -74.5t-114 -17.5q-116 0 -193 81
t-77 218zM442 567q104 0 181 99.5t77 257.5q0 107 -51.5 163t-122.5 56q-70 0 -132 -56t-96 -139t-34 -166q0 -103 53.5 -159t124.5 -56z" />
    <glyph glyph-name="colon" unicode=":" horiz-adv-x="563" 
d="M401 707q0 -51 -32.5 -91.5t-85.5 -40.5q-43 0 -70 28t-27 71q0 49 33 90t84 41q42 0 70 -28t28 -70zM268 121q0 -51 -32.5 -92t-85.5 -41q-42 0 -69.5 28.5t-27.5 71.5q0 49 33 89t84 40q43 0 70.5 -27.5t27.5 -68.5z" />
    <glyph glyph-name="semicolon" unicode=";" horiz-adv-x="563" 
d="M393 705q0 -51 -32.5 -92.5t-84.5 -41.5q-42 0 -69 29t-27 72q0 49 33 90t84 41q42 0 69 -28t27 -70zM162 219q53 0 90 -48t37 -118q0 -113 -94 -197.5t-195 -84.5q-11 0 -19 8t-8 18t9 19.5t26 13.5q72 16 116 59.5t44 108.5q0 28 -15 44t-33 22t-33 25t-15 52
q0 32 26 55t64 23z" />
    <glyph glyph-name="less" unicode="&#x3c;" 
d="M217 616l614 -221q21 -8 21 -33v-61q0 -23 -21 -16l-686 254q-22 9 -22 34v86q0 20 33 37l675 254q11 6 17 2t6 -16v-57q0 -29 -23 -39z" />
    <glyph glyph-name="equal" unicode="=" 
d="M805 680h-627q-33 0 -44 4.5t-11 26.5v41q0 10 2.5 16t5 9.5t11.5 5t14.5 1.5h21.5h627h21.5t14.5 -1.5t11.5 -5t5 -9.5t2.5 -16v-41q0 -22 -11 -26.5t-44 -4.5zM805 449h-627q-19 0 -25.5 0.5t-15.5 3t-11.5 9t-2.5 17.5v39q0 23 11 28t44 5h627q23 0 32.5 -1.5t16 -8.5
t6.5 -23v-39q0 -11 -2.5 -17.5t-11.5 -9t-15.5 -3t-25.5 -0.5z" />
    <glyph glyph-name="greater" unicode="&#x3e;" 
d="M762 604l-615 223q-22 10 -22 39v58q0 22 22 14l676 -254q33 -11 33 -37v-86q0 -26 -22 -35l-687 -254q-20 -7 -20 17v61q0 26 20 33z" />
    <glyph glyph-name="question" unicode="?" horiz-adv-x="804" 
d="M373 354q29 0 58 15t48 33.5t40 34t36 16.5q13 0 23 -10.5t10 -24.5q0 -36 -80 -94t-154 -58q-77 0 -127.5 41.5t-50.5 122.5q0 43 18 85t54.5 81.5t71.5 70t88 70.5q72 55 113 89t83 78.5t60 86.5t18 88q0 87 -48 142t-138 55q-72 0 -131.5 -48t-59.5 -118q0 -96 68 -96
q26 0 42.5 18t16.5 49t18 50.5t48 19.5q32 0 53.5 -20t21.5 -46q0 -67 -54.5 -121.5t-131.5 -54.5q-75 0 -125.5 50t-50.5 131q0 115 87.5 194.5t215.5 79.5q132 0 216.5 -78t84.5 -207q0 -55 -16.5 -105.5t-40 -89t-67 -83t-78 -73.5t-93.5 -75q-116 -91 -163.5 -140.5
t-47.5 -88.5q0 -26 18 -48t46 -22zM252 -31q-39 0 -63.5 28.5t-24.5 65.5q0 48 31 84.5t81 36.5q35 0 62 -24.5t27 -75.5q0 -47 -32.5 -81t-80.5 -34z" />
    <glyph glyph-name="at" unicode="@" horiz-adv-x="1579" 
d="M707 -274q-104 0 -194 22.5t-154.5 60.5t-117 88.5t-86 104.5t-55.5 111.5t-31.5 107t-9.5 92.5q0 230 99.5 419t286.5 301t427 112q129 0 237.5 -41.5t180.5 -113t112 -166t40 -199.5q0 -161 -80 -309t-219 -228q-88 -49 -187 -49q-43 0 -64.5 28.5t-21.5 77.5
q0 17 11.5 77t13.5 71h-6q-158 -254 -334 -254q-74 0 -121 60t-47 141q0 151 111 344q17 28 39.5 59.5t62 74.5t81.5 76t97.5 56.5t110.5 23.5q30 0 65.5 -12t55.5 -43q18 43 37.5 56.5t74.5 13.5q27 0 27 -23q0 -8 -3.5 -20.5t-13.5 -47t-20 -73.5l-104 -395
q-27 -118 -27 -156q0 -18 12.5 -30.5t32.5 -12.5q45 0 99 36t96 91q55 74 86.5 172t31.5 176q0 115 -40 204t-109.5 141.5t-154.5 79t-183 26.5q-142 0 -265 -59.5t-206 -158t-130.5 -228.5t-47.5 -269q0 -106 37 -202t101.5 -168t159.5 -115t204 -43q188 0 356 84
q20 12 39.5 2t19.5 -37q0 -30 -26 -43q-180 -94 -387 -94zM602 553q-72 -148 -72 -277q0 -39 26 -79.5t67 -40.5q37 0 76 23.5t72 60.5t56 69.5t41 63.5q97 166 97 313q0 39 -22.5 75t-65.5 36q-76 0 -152 -75.5t-123 -168.5z" />
    <glyph glyph-name="A" unicode="A" horiz-adv-x="1304" 
d="M88 2q-117 0 -205 -8q-21 -2 -25.5 4t1.5 37q6 24 13 32t28 11l39 6q49 7 95 45t122 131l725 877q25 30 40.5 56t27 52.5t12.5 28.5q5 9 13 16t20.5 12t20 7.5t22.5 6t16 3.5q30 10 73 29q58 28 80 28q25 0 25 -35q0 -23 -12 -65l-29 -105q-104 -375 -262 -1007
q-9 -39 1 -55.5t50 -20.5l102 -10q21 -1 26 -10.5t-1 -32.5q-7 -29 -15 -36t-28 -5q-88 8 -234 8q-178 0 -266 -8q-21 -2 -26 4t0 37q6 25 13 33.5t28 9.5l92 10q52 6 69 26.5t33 84.5l90 352h-342q-192 -240 -268 -334q-64 -80 -64 -100q0 -21 48 -29l77 -10
q22 -3 26.5 -11.5t-1.5 -31.5q-7 -29 -16 -36t-29 -5q-88 8 -205 8zM582 633h303q92 332 145 504q12 41 -2 41t-41 -37z" />
    <glyph glyph-name="B" unicode="B" horiz-adv-x="1167" 
d="M162 -2q-88 0 -174 -6q-23 -2 -33 6.5t0 36.5q8 24 16.5 33t26.5 10l61 6q26 2 41 7t24 18.5t12.5 24.5t10.5 40l234 1006q18 71 -53 73l-117 4q-21 0 -26 9t1 32q7 29 15.5 36t29.5 7q205 -6 383 -6q277 0 387 -110q78 -78 78 -191q0 -120 -90.5 -219.5t-230.5 -122.5
q106 -20 183 -105.5t77 -205.5q0 -151 -103 -254q-133 -133 -444 -133q-21 0 -135.5 2t-173.5 2zM440 721q41 -2 115 -2q159 0 259.5 88.5t100.5 226.5q0 101 -59 160q-61 61 -233 61q-35 0 -50 -14t-20 -39zM418 645l-107 -469q-6 -27 -8 -38.5t1 -27t13 -20t32.5 -10.5
t55 -7t84.5 -1q55 0 105.5 10t97 32.5t80.5 56t54 84.5t20 114q0 141 -96.5 208.5t-253.5 67.5h-78z" />
    <glyph glyph-name="C" unicode="C" horiz-adv-x="1269" 
d="M571 -35q-152 0 -264.5 75t-168.5 200t-56 282q0 175 53 331t146 270t227 180.5t289 66.5q196 0 338 -151l36 59q16 29 46 29q20 0 25.5 -8t0.5 -27q-29 -109 -72 -326q-4 -20 -11 -25.5t-25 -5.5q-20 0 -25.5 7.5t-9.5 27.5q-10 70 -31.5 127.5t-57 106t-91.5 75.5
t-127 27q-139 0 -262 -109.5t-195 -286t-72 -368.5q0 -129 40 -236t115 -171t171 -64q141 0 246.5 94.5t177.5 247.5q7 16 14.5 19.5t22.5 3.5q25 0 30 -9t-2 -34q-29 -105 -73 -326q-5 -20 -10.5 -26.5t-20.5 -6.5q-16 0 -24 8.5t-19 34.5l-14 33q-68 -54 -164 -89.5
t-183 -35.5z" />
    <glyph glyph-name="D" unicode="D" horiz-adv-x="1390" 
d="M145 164l232 993q13 46 4 70.5t-49 25.5l-123 4q-21 0 -26 9t1 32q7 29 15.5 36t29.5 7q203 -4 416 -4q355 0 512 -157q156 -156 156 -379q0 -353 -217 -570q-51 -51 -108.5 -88t-145.5 -72t-217 -53t-293 -18q-131 0 -352 -6q-21 0 -26.5 6.5t1.5 34.5q8 23 17 32.5
t28 10.5l72 8q31 3 47 18.5t26 59.5zM313 186q-6 -20 -8 -28t-3.5 -21.5t1 -18t8.5 -12.5t17 -10t28.5 -5.5t40.5 -4t56 -0.5q197 0 352 92t240 251.5t85 356.5q0 214 -122 339.5t-320 125.5q-122 0 -131 -39z" />
    <glyph glyph-name="E" unicode="E" horiz-adv-x="1247" 
d="M199 0q-158 0 -246 -8q-21 -2 -26 4t1 37q6 25 13 33.5t28 11.5l92 10q33 4 46 21.5t26 66.5l252 983q15 54 8 70.5t-51 19.5l-119 8q-21 1 -26 10.5t2 32.5q7 28 15.5 34.5t29.5 6.5q198 -6 243 -6q450 0 625 6q21 0 27 -10.5t8 -40.5q2 -34 15.5 -116.5t17.5 -126.5
q2 -18 -6 -27t-33 -12q-14 -2 -23.5 9.5t-23.5 51.5q-21 55 -55.5 98.5t-75.5 63.5q-63 29 -189 29h-196l-134 -533h172q104 0 142.5 13.5t60.5 64.5l37 80q11 25 21 34t28 9q27 0 35 -6.5t2 -26.5q-61 -213 -63 -221q-6 -28 -25 -109.5t-27 -118.5q-3 -18 -9 -24t-23 -6
q-41 0 -41 43l4 108q1 46 -37.5 60t-145.5 14h-155l-96 -377q-4 -15 -10.5 -39.5t-9.5 -38t-6 -28.5t-3 -25q0 -39 27.5 -50t123.5 -11h175q69 0 111.5 2t93.5 13.5t79 33.5q59 42 142 186l7.5 12.5t6.5 10.5t5.5 8t5.5 6.5t5.5 3.5t7 2h8.5t11 -2q22 -5 27 -15t-7 -44
q-60 -137 -88 -252q-6 -25 -16.5 -35t-34.5 -10q-162 0 -465 4t-321 4z" />
    <glyph glyph-name="F" unicode="F" horiz-adv-x="1114" 
d="M197 2q-134 0 -244 -10q-21 -2 -26 4t1 37q6 25 13 33.5t28 11.5l92 10q33 4 46 21.5t26 66.5l252 983q15 54 7.5 70.5t-52.5 19.5l-119 8q-21 1 -26 10.5t2 32.5q7 29 16 36t29 5q99 -6 243 -6q47 0 300 3t280 3q21 0 27 -10t8 -39q2 -35 15.5 -120.5t17.5 -129.5
q1 -17 -5.5 -25t-23.5 -11q-23 -4 -33 6.5t-24 52.5q-47 131 -125 168q-63 29 -201 29h-139l-144 -553h154q107 0 143 11.5t58 61.5l34 84q11 25 21 34t29 9q27 0 34.5 -6t1.5 -26q-32 -113 -59 -226q0 -1 -21 -83t-32 -136q-3 -18 -9.5 -24.5t-23.5 -6.5q-41 0 -41 43
l6 101q3 47 -31 62.5t-137 15.5h-147l-117 -445q-13 -53 -6 -70t39 -20l117 -10q21 -1 26 -10.5t-2 -32.5q-7 -29 -16 -36t-29 -5q-88 8 -233 8z" />
    <glyph glyph-name="G" unicode="G" horiz-adv-x="1390" 
d="M643 -35q-174 0 -303.5 77t-194.5 206t-65 291q0 119 32.5 238.5t96 225.5t149.5 188.5t201 130.5t242 48q135 0 242 -47t169 -135l48 69q18 23 43 23q14 0 22 -11t4 -30q-5 -18 -24.5 -86t-33.5 -126t-28 -130q-4 -20 -13 -25.5t-30 -3.5q-21 1 -28 8t-9 25
q-21 170 -116 278.5t-240 108.5q-148 0 -275 -109t-198.5 -285t-71.5 -372q0 -207 105 -338t274 -131q161 0 254 80l76 277q9 34 0 47t-41 16l-92 10q-22 2 -26.5 9t1.5 30q7 29 16 36t29 5q88 -8 219 -8q101 0 189 8q21 2 25.5 -4t-1.5 -37q-6 -23 -12.5 -29.5t-28.5 -9.5
l-61 -10q-27 -4 -36.5 -20t-25.5 -74l-82 -299q-78 -53 -193 -84t-208 -31z" />
    <glyph glyph-name="H" unicode="H" horiz-adv-x="1558" 
d="M199 0q-174 0 -240 -6q-21 -2 -26 4t1 37q6 24 13 32t28 11l86 10q33 4 46 22t26 68l252 979q15 54 8 70t-51 20l-102 10q-21 1 -26 10.5t1 32.5q7 29 16 36t29 5q66 -6 246 -6q194 0 260 6q21 2 27.5 -5t-0.5 -36q-6 -25 -13 -33.5t-28 -9.5l-125 -10q-29 -3 -45 -21
t-29 -69l-111 -430h705l113 430q14 52 7 69t-46 21l-117 10q-22 3 -26.5 11.5t1.5 31.5q7 29 16 36t29 5q66 -6 250 -6q162 0 228 6q21 2 25.5 -4t-1.5 -37q-6 -25 -13 -33.5t-28 -9.5l-86 -10q-33 -3 -46 -21t-26 -69l-251 -979q-14 -54 -6.5 -70t49.5 -20l102 -10
q21 -1 26 -10.5t-1 -32.5q-7 -29 -15 -36t-28 -5q-66 6 -234 6q-215 0 -281 -6q-21 -2 -26 4t0 37q6 25 13 33.5t28 9.5l110 10q49 5 63 13.5t23 41.5l127 498h-704l-123 -467q-12 -56 -4.5 -69.5t41.5 -16.5l117 -10q21 -1 26 -10.5t-2 -32.5q-7 -29 -16 -36t-29 -5
q-66 6 -233 6z" />
    <glyph glyph-name="I" unicode="I" horiz-adv-x="684" 
d="M199 2q-150 0 -238 -8q-21 -2 -25.5 4t1.5 37q6 25 12.5 32.5t27.5 10.5l74 10q35 4 52.5 24t29.5 66l252 979q15 54 8 70t-51 20l-100 10q-21 1 -26 10.5t1 32.5q7 29 16 36t29 5q66 -6 225 -6q172 0 238 6q21 2 27.5 -5t-0.5 -36q-6 -25 -13 -33.5t-28 -9.5l-84 -10
q-33 -3 -47 -20t-27 -70l-252 -979q-15 -47 -9.5 -67t44.5 -23l106 -10q22 -2 27 -10t-2 -33q-9 -29 -17 -36t-28 -5q-88 8 -223 8z" />
    <glyph glyph-name="J" unicode="J" horiz-adv-x="661" 
d="M496 1333q161 0 249 8q21 2 27.5 -5t-0.5 -36q-6 -25 -13 -33.5t-28 -9.5l-96 -10q-29 -3 -44 -20t-28 -68l-223 -878q-105 -417 -229 -584q-105 -139 -254 -139q-82 0 -132.5 41t-50.5 98q0 39 22 63.5t62 24.5q71 0 86 -68q1 -3 3 -14t3.5 -15t5 -13t7.5 -13t11 -9
t16.5 -7t21.5 -2q35 0 62 35.5t44 78.5q44 118 144 500l229 881q16 55 8.5 79.5t-49.5 28.5l-121 10q-21 1 -26 10.5t2 32.5q7 29 16 36t29 5q88 -8 246 -8z" />
    <glyph glyph-name="K" unicode="K" horiz-adv-x="1232" 
d="M195 0q-131 0 -215 -8q-21 -2 -26 4t1 37q6 24 13 32t28 11l76 10q33 4 46.5 22.5t24.5 67.5l230 979q14 54 7.5 70t-50.5 20l-94 10q-21 1 -26 10.5t1 32.5q7 29 16 36t29 5q66 -4 213 -4q145 0 211 6q21 2 27.5 -5t-0.5 -36q-6 -25 -13 -33.5t-28 -11.5l-70 -10
q-29 -5 -40.5 -20.5t-23.5 -67.5l-100 -442h33q38 0 78.5 29.5t93.5 82.5l262 252q15 16 37.5 38t34.5 33.5t24.5 26t17.5 25.5t5 21q0 20 -49 28l-49 6q-22 3 -26.5 11.5t1.5 31.5q7 29 16 36t29 5q66 -6 164 -6q147 0 213 6q21 2 26 -4t0 -37q-6 -25 -12.5 -32.5
t-27.5 -10.5l-48 -8q-14 -2 -27.5 -5.5t-28.5 -11.5t-26.5 -14.5t-29.5 -21.5l-30 -25t-35.5 -33t-37.5 -37t-44.5 -44t-49.5 -49l-311 -297l293 -523q33 -59 50 -76.5t52 -23.5l62 -10q21 -3 25.5 -11.5t-1.5 -31.5q-7 -29 -16 -36t-29 -5q-66 6 -174 6q-161 0 -227 -6
q-21 -2 -26 4t1 37q6 24 13 32t28 11l59 8q29 6 29 31q0 16 -31 80l-192 354q-29 58 -51.5 74t-85.5 16l-107 -463q-12 -52 -5.5 -70t40.5 -22l59 -8q22 -3 26.5 -11.5t-1.5 -31.5q-7 -29 -16.5 -36t-30.5 -5q-66 6 -184 6z" />
    <glyph glyph-name="L" unicode="L" horiz-adv-x="1179" 
d="M174 0q-152 0 -215 -6q-21 -2 -26 4t1 37q6 24 13 32t28 11l76 8q35 4 52.5 24t29.5 66l252 981q14 54 1 69.5t-56 20.5l-76 8q-21 3 -26 12.5t1 32.5q7 29 16 36t29 5q99 -6 207 -6q217 0 305 8q21 2 27.5 -5t-0.5 -35q-5 -18 -8 -26t-11 -13.5t-22 -6.5l-94 -8
q-63 -6 -87 -27t-38 -77l-229 -879q-27 -110 -27 -135q0 -38 31.5 -47.5t132.5 -9.5h82q69 0 110.5 2t91 13.5t78.5 33.5q33 23 80 86t78 129q12 28 21.5 35.5t31.5 7.5q44 0 31 -45l-107 -299q-8 -24 -20.5 -33.5t-36.5 -9.5q-234 6 -727 6z" />
    <glyph glyph-name="M" unicode="M" horiz-adv-x="1785" 
d="M139 0q-121 0 -184 -6q-21 -2 -26 4t1 37q6 24 13 32t28 11l49 8q35 4 52.5 23.5t31.5 66.5l287 981q14 48 -8.5 67.5t-75.5 24.5l-80 8q-21 1 -26 12t2 34q5 20 10.5 28.5t14 9.5t20.5 0q108 -6 327 -6q55 0 60 -35q6 -30 14 -86l148 -933l641 1013q17 25 35.5 33
t44.5 8q241 0 307 6q21 2 25.5 -4t-1.5 -37q-6 -25 -13 -33.5t-28 -9.5l-96 -10q-31 -3 -43.5 -21t-23.5 -67l-230 -981q-11 -52 2 -68.5t58 -21.5l98 -10q21 -1 26 -10.5t-2 -32.5q-7 -29 -15 -36t-28 -5q-66 6 -245 6q-147 0 -213 -6q-21 -2 -27.5 5t0.5 36q6 24 13 32
t28 11l66 10q34 6 49.5 26.5t25.5 63.5l215 916q13 57 4 57q-7 0 -38 -49l-457 -705q-22 -33 -60.5 -94.5t-67 -107t-59.5 -92t-52 -72t-29 -25.5q-25 0 -33 20.5t-23 113.5q-2 10 -2.5 16t-2.5 15.5t-3 18.5l-145 881q-8 57 -15 57q-5 0 -20 -57l-209 -745q-3 -10 -33 -146
q-4 -18 -4 -49q0 -23 8.5 -32t30.5 -11l84 -10q22 -3 26.5 -11.5t-1.5 -31.5q-7 -29 -16 -36t-30 -5q-66 6 -180 6z" />
    <glyph glyph-name="N" unicode="N" horiz-adv-x="1454" 
d="M139 0q-114 0 -188 -6q-19 0 -19 16l5 25q6 25 12.5 32.5t27.5 10.5l60 8q27 3 40.5 14.5t31 55t41.5 137.5l223 864q6 27 6 45q0 24 -15 33t-51 12l-98 10q-31 3 -31 23q0 4 4 20q7 24 16.5 32.5t24.5 8.5q114 -6 320 -6q37 0 53 -16q7 -7 12 -20t13 -39t18 -50
l311 -764q64 -157 70 -157q2 0 4 6t5 17.5t6 23.5t7 29.5t7 29.5l108 416q26 103 54 231.5t28 155.5q0 26 -10.5 36t-40.5 13l-98 10q-29 3 -29 21q0 6 4 22q6 25 13.5 33t21.5 8q114 -6 221 -6q145 0 223 6q21 0 21 -18q0 -7 -4 -23q-6 -23 -14.5 -31.5t-30.5 -11.5l-70 -8
q-32 -3 -50.5 -21.5t-41 -80t-57.5 -197.5l-185 -706q-41 -150 -53 -230q-3 -18 -8.5 -25t-16.5 -12q-27 -12 -51 -12q-10 0 -20 14t-15 31q-3 11 -40.5 105t-51.5 127l-350 839q-23 60 -35 60q-9 0 -21 -47q-2 -9 -3 -13l-117 -463q-29 -113 -96 -407q-11 -51 -11 -82
q0 -21 9.5 -30t31.5 -11l92 -10q29 -3 29 -21q0 -6 -4 -22q-6 -25 -13.5 -33t-21.5 -8q-114 6 -213 6z" />
    <glyph glyph-name="O" unicode="O" horiz-adv-x="1361" 
d="M569 -35q-144 0 -256.5 76.5t-172.5 206.5t-60 289q0 178 86 378q94 212 267.5 333.5t359.5 121.5q144 0 256.5 -76t172.5 -206t60 -289q0 -179 -86 -379q-94 -212 -267.5 -333.5t-359.5 -121.5zM555 51q139 0 275 129t210 342q64 186 64 367q0 70 -18.5 138t-54 126.5
t-94 94.5t-130.5 36q-139 0 -275 -129t-210 -342q-64 -186 -64 -367q0 -70 18.5 -138t54 -126.5t94 -94.5t130.5 -36z" />
    <glyph glyph-name="P" unicode="P" horiz-adv-x="1110" 
d="M195 0q-97 0 -211 -6q-27 0 -27 20q0 13 4 21q8 25 15.5 33.5t25.5 9.5l68 8q32 4 47 24t26 68l230 977q10 38 10 53q0 42 -57 45l-103 4q-28 0 -28 19q0 6 4 22q7 27 16.5 36t28.5 7q123 -6 350 -6q153 0 257 -22.5t165 -83.5q44 -44 68 -98t24 -136q0 -77 -29.5 -148.5
t-79.5 -121.5q-135 -135 -385 -135q-59 0 -200 24l-103 -436q-10 -42 -10 -55q0 -18 11 -25t40 -10l103 -10q28 -3 28 -21q0 -6 -4 -22q-6 -25 -13 -33t-20 -8q-114 6 -251 6zM432 690q66 -16 166 -16q151 0 244.5 88.5t93.5 236.5q0 117 -79.5 185.5t-215.5 68.5
q-52 0 -67.5 -11t-26.5 -54z" />
    <glyph glyph-name="Q" unicode="Q" horiz-adv-x="1359" 
d="M326 -129q-22 0 -79 -58.5t-79 -58.5q-72 0 -72 64q0 35 46.5 67t84.5 43q89 31 207 56q-69 21 -130.5 65.5t-112.5 111t-81 164t-30 212.5q0 174 88 378q94 212 266.5 333.5t358.5 121.5q144 0 256.5 -76t172.5 -206t60 -289q0 -175 -88 -379q-47 -106 -113.5 -189.5
t-142 -137t-154.5 -85t-161 -41.5q-66 -16 -108.5 -25.5t-52 -12t-16 -3.5t-16.5 -4q3 -1 45 -3.5t86 -12.5t86 -33q34 -17 87 -51.5t88 -48t81 -13.5q24 0 39 19.5t24 48t19 56.5t29.5 47.5t48.5 19.5q36 0 55 -19t19 -43q0 -44 -41 -92q-33 -40 -100 -74t-138 -34
q-52 0 -126 13.5t-128 43.5q-47 26 -101 58.5t-72 42t-45 17t-60 7.5zM555 51q139 0 275 129t210 342q64 186 64 367q0 70 -18.5 138t-54 126.5t-94 94.5t-130.5 36q-139 0 -275 -129t-210 -342q-64 -186 -64 -367q0 -70 18.5 -138t54 -126.5t94 -94.5t130.5 -36z" />
    <glyph glyph-name="R" unicode="R" horiz-adv-x="1216" 
d="M199 0q-102 0 -201 -6q-23 -2 -33 6.5t0 36.5q8 24 15.5 32t25.5 9l68 8q32 4 47 24.5t26 69.5l230 973q14 54 6 76.5t-49 23.5l-119 4q-21 1 -26 12t1 34q6 26 15 33t31 5q126 -6 395 -6q229 0 354 -84t125 -239q0 -76 -24.5 -140t-63 -105.5t-90.5 -73t-100.5 -48
t-100.5 -24.5q3 -4 60 -109q41 -75 97.5 -203t72.5 -162q18 -36 29.5 -45t39.5 -14l62 -10q16 -3 21.5 -11.5t10.5 -31.5q5 -28 -8 -35.5t-37 -5.5q-44 2 -95.5 3.5t-65.5 2.5q-27 1 -43.5 3.5t-35.5 12t-33 29t-26 51.5l-155 398q-41 108 -140 108q-34 0 -65 -4l-107 -420
q-14 -54 -6.5 -70t49.5 -20l80 -10q22 -3 26.5 -11.5t-1.5 -31.5q-7 -29 -15 -36t-28 -5q-66 6 -219 6zM940 1001q0 118 -78.5 186t-218.5 68q-45 0 -64.5 -17t-31.5 -73l-107 -477q59 -12 156 -12q63 0 122.5 19t110 56.5t81 102t30.5 147.5z" />
    <glyph glyph-name="S" unicode="S" horiz-adv-x="1009" 
d="M412 -35q-82 0 -170 39.5t-152 116.5l-39 -53q-19 -23 -39 -23q-22 4 -22 27q0 8 6 26q38 116 84 330q4 21 10.5 25t28.5 4q17 0 22.5 -8.5t5.5 -30.5q0 -161 77.5 -264t191.5 -103q106 0 177 83.5t71 203.5q0 81 -40.5 138t-144.5 145q-39 33 -53 45.5t-48 44.5t-48 50
t-37.5 51t-33 60t-18 62.5t-8.5 73.5q0 149 109.5 253.5t267.5 104.5q160 0 260 -119l23 35q21 31 43 31q34 -3 20 -49q-9 -30 -16.5 -65.5t-19.5 -99.5t-21 -110q-3 -20 -9.5 -25.5t-27.5 -5.5q-20 1 -25.5 7t-7.5 24q-11 131 -65 212t-150 81q-100 0 -160.5 -64
t-60.5 -157q0 -44 13 -84.5t27.5 -67t47.5 -61t50 -49t57 -47.5q63 -52 99 -85.5t73 -79t53 -91.5t16 -99q0 -184 -121.5 -308t-295.5 -124z" />
    <glyph glyph-name="T" unicode="T" horiz-adv-x="1230" 
d="M485 2q-178 0 -288 -10q-21 -2 -26 4t1 37q5 18 8 25.5t11 13t22 6.5l135 12q34 3 47.5 21t24.5 67l248 1079h-240q-57 0 -91.5 -18t-64.5 -59.5t-88 -143.5q-10 -18 -20 -22.5t-27 0.5q-36 8 -28 33q54 143 90 278q4 15 6.5 20.5t9.5 13t18 7.5q15 0 35 -12
q21 -13 111 -17q75 -6 221 -6h320q146 0 233 6q61 3 102 17q36 12 39 12q19 0 24 -11.5t-1 -39.5q-5 -21 -8 -39.5t-6.5 -50.5t-5 -47.5t-6.5 -70.5t-7 -81q-1 -18 -9 -22.5t-28 -4.5t-26 8.5t-9 34.5q-4 26 -18 72l-14 47q-24 96 -168 96h-176l-248 -1077q-11 -53 -4 -70
t39 -20l141 -12q21 -1 26 -10.5t-2 -32.5q-7 -29 -16 -36t-29 -5q-88 8 -258 8z" />
    <glyph glyph-name="U" unicode="U" horiz-adv-x="1390" 
d="M567 -41q-205 0 -309 87.5t-104 254.5q0 107 61 338l133 494q18 64 12.5 87t-43.5 27l-114 10q-22 3 -26.5 11.5t1.5 31.5q7 29 15 36t28 5q66 -6 246 -6q169 0 235 6q21 2 27.5 -5t-0.5 -36q-6 -24 -13 -32t-28 -11l-88 -10q-37 -4 -51.5 -20t-26.5 -64l-131 -487
q-72 -272 -72 -346q0 -124 74 -195.5t211 -71.5q89 0 147 27t107 74q56 61 93 139.5t91 276.5l111 405q35 141 39 164q8 51 -6.5 73t-48.5 25l-95 10q-21 3 -25.5 11.5t1.5 31.5q7 29 16 36t29 5q66 -6 209 -6q125 0 188 6q21 2 26 -4t-1 -37q-6 -24 -13 -32t-28 -11l-53 -8
q-33 -4 -50.5 -31t-31.5 -79l-129 -480q-70 -260 -120.5 -374t-127.5 -191q-65 -65 -150.5 -100t-214.5 -35z" />
    <glyph glyph-name="V" unicode="V" horiz-adv-x="1142" 
d="M418 1335q149 0 215 6q21 2 26 -4t0 -37q-6 -24 -13 -32t-28 -11l-79 -10q-34 -4 -45.5 -20.5t-14.5 -59.5l-86 -944l438 695q168 268 168 299q0 14 -9.5 20.5t-39.5 9.5l-96 10q-21 1 -26 10.5t1 32.5q7 29 16 36t29 5q66 -6 177 -6q137 0 200 6q21 2 26 -4t-1 -37
q-6 -24 -13 -31.5t-28 -11.5l-35 -8q-9 -2 -17 -5t-16 -9l-14 -10.5t-14 -14.5t-12.5 -15t-13.5 -18.5t-12.5 -18.5t-14 -21t-13.5 -21l-446 -682q-103 -157 -178 -276.5t-91 -143.5q-13 -20 -45 -34q-34 -15 -59 -15t-25 51q0 12 2 33.5t6 66t7 95.5l63 956q3 43 -6.5 60
t-38.5 20l-76 10q-21 1 -26 10.5t2 32.5q7 29 15 36t28 5q66 -6 213 -6z" />
    <glyph glyph-name="W" unicode="W" horiz-adv-x="1751" 
d="M416 1335q155 0 221 6q21 2 27.5 -5t-0.5 -36q-6 -24 -13 -32t-28 -11l-72 -10q-34 -4 -47.5 -30t-18.5 -74l-94 -891l471 721q64 101 64 201q0 44 -6 55.5t-35 17.5l-56 10q-22 4 -26 12t2 31q7 29 15 36t28 5q66 -6 199 -6q149 0 215 6q21 2 26 -4t0 -37
q-6 -24 -13 -32t-28 -11l-61 -10q-49 -7 -72 -32.5t-27 -100.5l-57 -893l428 723q71 120 104 183.5t33 91.5q0 13 -13.5 18.5t-41.5 9.5l-86 10q-21 3 -25.5 11.5t1.5 31.5q7 29 16 36t29 5q66 -6 174 -6q139 0 202 6q21 2 26 -4t-1 -37q-6 -24 -13 -31.5t-28 -11.5l-41 -8
q-28 -6 -58.5 -40.5t-70.5 -102.5l-381 -631q-41 -69 -146.5 -239t-129.5 -207q-29 -43 -43 -49q-30 -15 -62 -15q-29 0 -29 33q0 18 5 121l43 782l-355 -534q-38 -57 -80.5 -125.5t-80.5 -131t-48 -79.5q-2 -3 -8.5 -13.5t-10 -15.5t-10 -11t-12.5 -9q-38 -17 -63 -17
q-29 0 -29 31q0 13 2 32.5t5 46.5t4 44l81 1048q3 43 -6.5 60t-38.5 20l-82 10q-21 1 -26 10.5t2 32.5q7 31 12.5 37t24.5 4q66 -6 213 -6z" />
    <glyph glyph-name="X" unicode="X" horiz-adv-x="1220" 
d="M90 0q-148 0 -211 -6q-19 -2 -22 4t4 37q6 24 13 32t28 11l57 8q36 6 89 56t200 218l289 326l-193 490q-18 42 -30 55t-38 16l-57 10q-21 3 -25.5 11.5t1.5 31.5q7 29 15 36t28 5q66 -6 192 -6q139 0 205 6q21 2 27.5 -5t-0.5 -36q-6 -24 -13 -32t-28 -11l-58 -6
q-47 -5 -47 -45q0 -26 41 -129l111 -276l198 246l33 38.5t37.5 43.5t33 39.5t25.5 34t9 18.5q0 13 -8 20t-31 10l-70 6q-22 3 -26.5 11.5t1.5 31.5q7 28 18.5 35.5t33.5 5.5q66 -6 159 -6q126 0 189 6q21 2 25.5 -4t-1.5 -37q-6 -24 -13 -32t-28 -11l-51 -8q-49 -7 -115 -86
l-385 -448l216 -553q12 -31 19 -43t23.5 -21.5t47.5 -13.5l45 -6q21 -1 26 -10.5t-2 -32.5q-7 -29 -15 -36t-28 -5q-66 6 -243 6q-121 0 -187 -6q-21 -2 -26 4t0 37q6 25 12.5 32.5t27.5 10.5l66 8q38 4 51 12.5t13 22.5q0 37 -60 186l-113 289l-276 -317q-20 -24 -42 -49.5
t-36 -40.5t-26 -29.5t-17.5 -24t-5.5 -16.5q0 -25 47 -31l66 -10q21 -3 25.5 -11.5t-1.5 -31.5q-7 -29 -16 -36t-29 -5q-66 6 -174 6z" />
    <glyph glyph-name="Y" unicode="Y" horiz-adv-x="1116" 
d="M426 2q-171 0 -281 -10q-21 -2 -25.5 4t1.5 37q6 24 13 32t28 11l98 12q78 10 96 88l95 391l-175 598q-23 79 -88 86l-47 6q-21 1 -26 10.5t2 32.5q7 29 15 36t28 5q66 -6 182 -6q180 0 246 6q21 2 26 -4t0 -37q-6 -25 -13 -33.5t-28 -9.5l-67 -8q-55 -6 -55 -51
q0 -33 24 -121l115 -403l346 420q82 99 82 129q0 4 -0.5 7t-2.5 5t-3.5 4t-5 3t-6 2t-8 1.5t-8.5 1t-10 1.5t-11 1l-64 8q-21 1 -26 10.5t1 32.5q7 29 16 36t30 5q66 -6 159 -6q134 0 197 6q21 2 25.5 -4t-1.5 -37q-6 -25 -12.5 -32.5t-27.5 -10.5l-37 -8q-13 -2 -24.5 -7
t-23.5 -15.5t-18.5 -17.5t-21 -23.5t-19.5 -22.5l-489 -575l-99 -410q-11 -49 1 -68t46 -22l107 -10q21 -1 26 -10.5t-1 -32.5q-7 -29 -16 -36t-29 -5q-88 8 -236 8z" />
    <glyph glyph-name="Z" unicode="Z" horiz-adv-x="1120" 
d="M369 0q-37 0 -169.5 -6t-207.5 -6q-22 0 -29.5 4.5t-17.5 25.5q-1 9 -1.5 14t5.5 14.5t10.5 15t12.5 14.5t12 14l909 1163h-307q-119 0 -187 -45q-38 -26 -75.5 -64.5t-96.5 -121.5q-14 -20 -23.5 -23.5t-33.5 5.5q-16 8 -18.5 13t4.5 23q93 204 102 232q14 43 39.5 57
t75.5 12q187 -6 315 -6q109 0 391 6q13 0 18.5 -0.5t10 -4t8.5 -11.5q9 -13 8.5 -25.5t-14.5 -31.5l-928 -1186h340q86 0 129 8.5t86 36.5q37 25 84.5 74t89.5 112q23 34 34.5 41t35.5 -2q16 -8 19 -14t-5 -27q-88 -201 -108 -276q-12 -46 -56 -43q-258 8 -462 8z" />
    <glyph glyph-name="bracketleft" unicode="[" horiz-adv-x="716" 
d="M317 -373h-233q-42 0 -33 37l416 1710q9 37 55 37h236q18 0 22 -9t-2 -26q-7 -22 -15 -30.5t-30 -8.5h-147l-398 -1638h146q17 0 21 -8t-1 -25q-5 -21 -12.5 -30t-24.5 -9z" />
    <glyph glyph-name="backslash" unicode="\" horiz-adv-x="798" 
d="M141 1370h76q13 0 18 -4.5t11 -22.5l413 -1351q9 -27 -16 -27h-61q-20 0 -23 12l-430 1371q-7 22 12 22z" />
    <glyph glyph-name="bracketright" unicode="]" horiz-adv-x="716" 
d="M123 -373h-232q-18 0 -22 9t2 26q5 23 12 31t29 8h147l396 1640h-148q-15 0 -19 7t1 24q6 22 13.5 30.5t21.5 8.5h233q44 0 35 -37l-414 -1710q-9 -37 -55 -37z" />
    <glyph glyph-name="asciicircum" unicode="^" horiz-adv-x="962" 
d="M463 1249h67q16 0 24 -7t19 -25l275 -469q7 -10 4 -20.5t-14 -10.5h-60q-22 0 -30 6t-23 33l-227 395l-226 -395q-14 -27 -22.5 -33t-32.5 -6h-51q-30 0 -14 31l274 479q7 12 14 17t23 5z" />
    <glyph glyph-name="underscore" unicode="_" horiz-adv-x="950" 
d="M950 -254h-950q-10 0 -12 4t-2 17v53q0 15 2 19.5t12 4.5h950q10 0 12.5 -4t2.5 -20v-51q0 -13 -2.5 -18t-12.5 -5z" />
    <glyph glyph-name="grave" unicode="`" horiz-adv-x="1024" 
d="M354 1331q63 0 92 -16.5t48 -69.5t54.5 -139.5t43.5 -108.5q7 -25 0.5 -36t-21.5 -11q-21 0 -49 43q-93 132 -200 264q-30 41 -19.5 57.5t51.5 16.5z" />
    <glyph glyph-name="a" unicode="a" horiz-adv-x="903" 
d="M137 -25q-75 0 -119.5 58.5t-44.5 140.5q0 106 59.5 254.5t160.5 249.5q149 149 292 149q31 0 66.5 -12t54.5 -43q19 57 41.5 73.5t79.5 16.5q17 0 22 -4.5t5 -17.5q0 -8 -5 -25t-17 -57t-23 -80l-109 -414q-33 -115 -33 -125q0 -37 29 -37q26 0 53 39q59 79 69 87
q9 8 17 8q13 0 21 -8t8 -19q0 -14 -19.5 -49t-39.5 -62q-38 -51 -85 -87t-90 -36q-90 0 -90 88q0 21 7.5 51.5t19 66t14.5 46.5h-8q-156 -252 -336 -252zM199 90q71 0 155 84q94 91 150.5 227.5t56.5 237.5q0 46 -22 79.5t-66 33.5q-81 0 -176 -95q-88 -88 -136 -214
t-48 -232q0 -28 7 -53.5t27.5 -46.5t51.5 -21z" />
    <glyph glyph-name="b" unicode="b" horiz-adv-x="851" 
d="M209 -25q-79 0 -136 48t-57 127q0 21 3 45.5t5.5 39t8.5 42.5t8 36l197 904q10 40 10 49q0 20 -53 20h-70q-19 0 -26 7t-7 26q0 21 6 27t25 8q35 3 89 9t83.5 8.5t54.5 2.5q49 0 49 -33q0 -17 -6 -39.5t-6 -23.5q0 -5 -28.5 -122t-69 -286.5t-62.5 -267.5
q41 87 141 162.5t183 75.5q90 0 136 -56t46 -155q0 -122 -68.5 -263t-168.5 -241q-150 -150 -287 -150zM350 664q-92 -92 -147.5 -230.5t-55.5 -249.5q0 -46 22.5 -84.5t68.5 -38.5q75 0 159 84q80 80 140.5 218.5t60.5 248.5q0 53 -25.5 90t-78.5 37q-69 0 -144 -75z" />
    <glyph glyph-name="c" unicode="c" horiz-adv-x="679" 
d="M233 90q74 0 148 74q12 12 26.5 29.5t23 26.5t19.5 16.5t23 7.5q10 0 18.5 -7.5t8.5 -21.5q0 -20 -29 -60.5t-57 -68.5q-111 -111 -236 -111q-77 0 -129 52q-59 59 -59 163q0 133 57.5 282t157.5 249q119 119 252 119q62 0 109.5 -36.5t47.5 -96.5q0 -29 -19.5 -53.5
t-55.5 -24.5q-27 0 -45.5 15t-24.5 42q-4 16 -7.5 26.5t-11 22t-20.5 17.5t-31 6q-41 0 -84 -43q-66 -66 -124 -196.5t-58 -274.5q0 -68 24.5 -111t75.5 -43z" />
    <glyph glyph-name="d" unicode="d" horiz-adv-x="909" 
d="M152 -25q-75 0 -123.5 53.5t-48.5 147.5q0 124 67 271.5t172 252.5q140 140 285 140q67 0 100 -45l94 415q12 49 13 56q0 20 -52 20h-75q-27 0 -27 33q0 20 6 26.5t17 8.5q184 20 215 20q61 0 61 -39q0 -16 -10 -61l-240 -1022q-16 -75 -16 -102q0 -13 7.5 -26t20.5 -13
q20 0 33.5 11.5t38.5 43.5q44 56 53 62q7 3 15 3q13 0 19.5 -8t6.5 -18q0 -19 -24 -58q-49 -77 -101 -124.5t-118 -47.5q-35 0 -57.5 23t-22.5 72q0 18 4 38.5t14 57t15 59.5h-9q-162 -250 -333 -250zM219 82q57 0 133 76q78 78 144.5 223t66.5 244q0 137 -96 137
q-33 0 -76.5 -24t-85.5 -66q-85 -85 -136.5 -217t-51.5 -236q0 -53 26 -95t76 -42z" />
    <glyph glyph-name="e" unicode="e" horiz-adv-x="714" 
d="M190 -25q-69 0 -117 37t-68.5 91t-20.5 118q0 131 57.5 263t148.5 223q133 133 279 133q65 0 109.5 -39t44.5 -105q0 -120 -135.5 -197t-354.5 -98q-20 -66 -20 -127q0 -43 10.5 -80t43 -67.5t83.5 -30.5q58 0 102.5 28.5t96.5 80.5q20 20 28 25.5t19 5.5q10 0 18 -8.5
t8 -22.5q0 -24 -53 -86q-126 -144 -279 -144zM150 465q137 16 239.5 78.5t102.5 146.5q0 34 -18.5 56t-55.5 22q-61 0 -140.5 -79.5t-127.5 -223.5z" />
    <glyph glyph-name="f" unicode="f" horiz-adv-x="489" 
d="M-225 -492q-33 0 -68 10t-65.5 38t-30.5 69q0 31 22.5 54.5t51.5 23.5q45 0 67 -43q19 -35 37.5 -50.5t42.5 -15.5q15 0 29 8.5t26 26.5t22.5 37t21 50.5t18.5 56t17.5 63.5t15 64t14.5 66t14 61l156 680l-148 -11q-27 0 -14 29l16 39q10 22 52 22l110 9q38 167 84 283.5
t100 182.5t111 94.5t127 28.5q69 0 120.5 -34.5t51.5 -94.5q0 -29 -18.5 -50t-46.5 -21q-50 0 -68 43q-10 24 -19 38.5t-28 28t-45 13.5q-117 0 -176 -226q-8 -29 -27 -127.5t-33 -156.5l187 12q29 3 20 -21l-22 -49q-9 -20 -41 -20l-158 -12l-137 -560
q-19 -77 -32.5 -127.5t-37 -124.5t-44 -122t-51 -103t-62.5 -87t-74 -53.5t-88 -21.5z" />
    <glyph glyph-name="g" unicode="g" horiz-adv-x="735" 
d="M262 -492q-72 0 -148 12.5t-145.5 36.5t-114 66.5t-44.5 95.5q0 85 77.5 155.5t216.5 121.5q-61 61 -61 119q0 38 21 71t81 76q-55 30 -88.5 92t-33.5 138q0 69 31.5 142t82.5 124q82 82 207 82q97 0 178 -90q68 65 140 65q31 0 50 -15.5t19 -45.5q0 -32 -17.5 -50
t-39.5 -18t-40 16.5t-34 16.5q-31 0 -49 -21q20 -49 20 -114q0 -66 -29.5 -138.5t-68.5 -111.5q-96 -96 -207 -96q-33 0 -47 2q-61 -30 -61 -84q0 -65 129 -148q147 -97 214.5 -162t67.5 -133q0 -51 -28.5 -92t-74.5 -64.5t-98.5 -36t-105.5 -12.5zM248 309q53 0 102 49
q44 44 73.5 120.5t29.5 152.5q0 49 -24 93t-75 44q-59 0 -104 -45q-50 -50 -78.5 -126t-28.5 -142q0 -58 26 -102t79 -44zM262 -424q82 0 126 33.5t44 89.5q0 67 -143 151l-139 99q-71 -28 -116.5 -55.5t-65 -54t-25.5 -46t-6 -45.5q0 -74 98.5 -123t226.5 -49z" />
    <glyph glyph-name="h" unicode="h" horiz-adv-x="892" 
d="M16 -6q-59 0 -59 31q1 13 28 114t70.5 260t67.5 252l149 566q11 44 11 47q0 22 -54 22h-59q-23 0 -30 7t-7 26q1 21 7 27t22 8q205 20 227 20q28 0 37.5 -11.5t9.5 -33.5q0 -10 -2 -19t-6 -21t-6 -21q-8 -25 -97.5 -332t-134.5 -453l15 -2q9 14 41.5 61t46 66t40.5 52
t54 59q121 121 236 121q56 0 92 -31q14 -13 22.5 -29.5t9 -40t0 -40t-8.5 -47.5t-11 -42.5t-14.5 -46l-12.5 -37.5l-92 -297q-2 -7 -8.5 -25.5t-10.5 -30.5t-7.5 -27.5t-3.5 -24.5q0 -27 26 -27q18 0 58 51q18 24 25.5 32.5t15.5 14.5t18 7q9 0 18 -7.5t9 -19.5
q0 -23 -39 -76q-46 -64 -82 -92.5t-90 -28.5q-43 0 -70 19.5t-27 58.5q0 14 4.5 36t8.5 38t13 46.5t11 39.5l113 385q7 24 10.5 38.5t5 34t-3 31t-16.5 19.5t-33 8q-49 0 -129 -76q-70 -69 -160 -187t-102 -161q-27 -90 -33 -121q-5 -23 -16 -64.5t-19 -72.5
q-6 -28 -22.5 -40.5t-55.5 -12.5z" />
    <glyph glyph-name="i" unicode="i" horiz-adv-x="512" 
d="M244 1174q0 49 32.5 87.5t81.5 38.5q39 0 63.5 -28.5t24.5 -69.5q0 -49 -33 -87t-81 -38q-39 0 -63.5 27.5t-24.5 69.5zM276 840q37 0 60 -23q17 -17 22.5 -39t-1.5 -57t-14.5 -59.5t-25.5 -75.5l-122 -344q-3 -9 -12.5 -35.5t-15 -44.5t-5.5 -25q0 -24 18 -24
q25 0 64 53q6 8 15.5 20.5t14 18.5t12 15t12 13t10.5 9t11 6.5t11 1.5q26 0 26 -27q0 -10 -6.5 -23.5t-21.5 -35t-19 -27.5q-50 -75 -100 -118.5t-111 -43.5q-36 0 -61 19.5t-25 54.5q0 13 4.5 32.5t9 34t16 48.5t17.5 51l121 354q2 7 13 38t17.5 52.5t6.5 28.5q0 25 -22 25
q-11 0 -26.5 -14t-26.5 -28t-31 -40q-4 -6 -12 -17.5t-12 -16t-10 -11t-11 -9t-11 -2.5q-10 0 -19 7.5t-9 19.5q0 8 3 17t9 19t10.5 17t12.5 17.5t10 13.5q19 26 25.5 34.5t32 37.5t44 42.5t47 26.5t55.5 13z" />
    <glyph glyph-name="j" unicode="j" horiz-adv-x="454" 
d="M195 1176q0 49 32 86.5t80 37.5q39 0 64.5 -28t25.5 -68q0 -49 -32.5 -87t-81.5 -38q-39 0 -63.5 28t-24.5 69zM-197 -492q-23 0 -47.5 5t-52.5 17.5t-45.5 38t-17.5 60.5q0 31 20 51.5t49 20.5q45 0 68 -45q17 -35 30.5 -48.5t40.5 -13.5q34 0 58 29t54.5 120t72.5 269
q27 117 69 285.5t68.5 274.5t26.5 112q0 25 -23 25q-26 0 -76 -84q-4 -6 -12.5 -19.5t-11.5 -17.5t-9 -11t-11.5 -9.5t-12.5 -2.5q-25 0 -25 25q0 6 3 15t6.5 16.5t11 22.5t12.5 26q39 77 94.5 123.5t102.5 46.5q44 0 66 -30t22 -77q0 -44 -72 -326t-119 -444
q-53 -187 -92 -266q-93 -189 -248 -189z" />
    <glyph glyph-name="k" unicode="k" horiz-adv-x="819" 
d="M39 -6q-31 0 -47.5 5.5t-19.5 11t-3 14.5q0 4 2.5 14.5t6 21.5t4.5 13q7 33 14 61t16.5 64.5t16.5 66.5l233 936q1 4 5 17t6.5 24t2.5 21q0 22 -53 22h-59q-23 0 -30 7t-7 26q0 20 7 26.5t22 8.5q205 20 227 20q28 0 37.5 -11.5t9.5 -33.5q0 -12 -14 -59l-172 -627
q56 83 135 140t160 57q69 0 112 -47t43 -111q0 -101 -80 -173t-241 -132q11 -26 33 -79.5t39 -93.5t26 -57q15 -28 20.5 -37t16 -17.5t24.5 -8.5q27 0 76 29q43 24 56 24q12 0 20 -7t8 -19q0 -20 -24 -39q-46 -37 -100 -67t-89 -30q-34 0 -51 16t-55 87q-12 23 -34 73
t-49.5 114.5t-35.5 82.5l-92 -24l-21 -99q-7 -36 -22 -100.5t-21 -97.5q-5 -33 -59 -33zM174 385q121 30 204.5 64t138 86.5t54.5 117.5q0 35 -21 67t-71 32q-74 0 -168 -104.5t-137 -262.5z" />
    <glyph glyph-name="l" unicode="l" horiz-adv-x="471" 
d="M86 -25q-42 0 -66 26.5t-24 70.5q0 34 27 145l251 987q1 5 8 27t7 35q0 20 -49 20h-50q-30 0 -40.5 7t-10.5 28q0 13 5 20.5t9.5 9.5t14.5 3q26 2 79 8t87 9t57 3q22 0 33.5 -6t13.5 -14t2 -23q0 -7 -14 -61l-266 -1002q-29 -106 -29 -131q0 -24 25 -24q16 0 33.5 18.5
t52.5 67.5q29 40 40.5 51.5t24.5 11.5t21 -8t8 -23q0 -23 -51 -92q-112 -164 -199 -164z" />
    <glyph glyph-name="m" unicode="m" horiz-adv-x="1394" 
d="M55 -6q-59 0 -59 33q0 10 49 151q64 180 113 334t49 172q0 29 -25 29q-24 0 -76 -64q-9 -10 -24 -32t-25 -31.5t-20 -10.5q-13 0 -22 7t-9 18q0 9 7 21t40 63q43 67 97 111.5t104 44.5q36 0 57 -21q24 -24 24 -67.5t-15 -96t-56 -168.5l12 2q5 8 44.5 66.5t72 100
t68.5 77.5q107 107 221 107q43 0 70 -27q26 -26 27 -70t-13.5 -95.5t-52.5 -158.5q7 10 45 67t70.5 99t68.5 78q107 107 221 107q55 0 86 -31q21 -21 28.5 -49t0.5 -68t-18 -74t-33 -92l-109 -286q-29 -75 -29 -95q0 -26 23 -26q27 0 63 45q38 49 52 62.5t30 13.5
q9 0 17 -7.5t8 -19.5t-7.5 -27t-28.5 -43l-21 -28q-99 -140 -191 -140q-40 0 -63 23.5t-23 64.5q0 50 39 160l102 289q46 132 48 167q0 49 -50 50q-53 0 -118 -65q-24 -24 -48.5 -52.5t-45.5 -54.5t-42 -55t-37 -52t-32 -48.5t-25 -40t-19 -31t-11 -17.5q-19 -34 -60 -170
l-35 -110q-11 -39 -71 -39t-60 33q0 16 49 153l101 287q27 74 40.5 121.5t16.5 80.5t-6.5 46.5t-32.5 13.5q-54 0 -119 -65q-24 -24 -48.5 -52.5t-45.5 -54.5t-42 -55t-37 -52t-32 -48.5t-25 -40t-19 -31t-11 -17.5q-23 -38 -63 -172q-14 -49 -35 -110q-13 -37 -74 -37z" />
    <glyph glyph-name="n" unicode="n" horiz-adv-x="956" 
d="M53 -6q-59 0 -59 31q0 10 49 151q63 179 112.5 334.5t49.5 173.5q0 29 -25 29q-24 0 -76 -64q-9 -10 -24 -32t-25 -31.5t-20 -10.5q-13 0 -22 7t-9 18q0 9 7 21t40 63q43 67 97 111.5t104 44.5q36 0 57 -21q24 -24 24 -67.5t-15 -96t-56 -168.5l12 2q5 8 44.5 66.5
t72 100t68.5 77.5q107 107 221 107q55 0 86 -31q28 -28 30 -74t-10.5 -88t-42.5 -121l-108 -286q-2 -4 -9.5 -22.5t-10 -26.5t-6 -22t-3.5 -24q0 -26 23 -26q30 0 63 45q11 13 23.5 29.5t18 23t12.5 14t13 9.5t13 2q9 0 18 -7.5t9 -19.5q0 -10 -7 -24.5t-14 -25t-20 -27.5
t-17 -23q-99 -140 -190 -140q-40 0 -64 23.5t-24 64.5q0 44 41 160l102 289q46 132 48 167q0 49 -50 50q-54 0 -119 -65q-24 -24 -48.5 -52.5t-45.5 -54.5t-42 -55t-37 -52t-32 -48.5t-25 -40t-19 -31t-11 -17.5q-21 -36 -63 -174q-5 -19 -15.5 -48.5t-17.5 -55.5
q-12 -41 -76 -41z" />
    <glyph glyph-name="o" unicode="o" horiz-adv-x="784" 
d="M240 -25q-81 0 -139.5 51t-83.5 123.5t-25 155.5q0 101 42.5 220t125.5 202q54 54 116 83.5t119 29.5q81 0 139.5 -51.5t83.5 -124t25 -154.5q0 -105 -47 -226.5t-121 -195.5q-113 -113 -235 -113zM219 68q66 0 131 65q73 73 120.5 204.5t47.5 237.5q0 40 -6.5 74.5
t-30.5 65t-63 30.5q-66 0 -137 -71q-80 -80 -122 -209.5t-42 -228.5q0 -39 7 -73.5t31.5 -64.5t63.5 -30z" />
    <glyph glyph-name="p" unicode="p" horiz-adv-x="827" 
d="M-27 -485q-68 0 -157 -7q-9 -1 -15.5 -0.5t-10.5 3t-4 10.5t5 22q7 20 15 25.5t26 9.5l33 6q24 4 34 19.5t21 58.5l260 997q-59 -38 -112 -94q-36 -41 -58 -41q-9 0 -18.5 8t-9.5 23q0 5 2 11t7.5 14t9 12.5t11.5 15t11 13.5q35 38 87 79.5t97 63.5l26 102q3 14 5.5 22.5
t7.5 19.5t14 17.5t21 10.5l55 14q20 6 31 -4.5t4 -36.5l-27 -106q40 12 82 12q133 0 211 -72.5t78 -199.5q0 -82 -40 -168t-108 -154q-145 -145 -432 -231l-88 -336q-4 -16 -4 -27q0 -22 12.5 -31t38.5 -12l86 -8q22 -2 28.5 -8.5t0.5 -24.5q-8 -25 -17 -31t-28 -4
q-89 7 -191 7zM326 713l-172 -647q170 56 290 176q59 59 95 140t36 167q0 90 -50.5 136t-118.5 46q-44 0 -80 -18z" />
    <glyph glyph-name="q" unicode="q" horiz-adv-x="856" 
d="M371 -485q-92 0 -181 -7q-21 -2 -26 3t2 32q8 22 16 27.5t25 7.5l67 8q22 3 32 17.5t20 52.5l147 551q-56 -85 -119 -139t-114 -73.5t-101 -19.5q-74 0 -121 59t-47 140q0 109 59 253t156 241q157 157 318 157q85 0 119 -45q20 60 88 60q37 0 46 -3.5t9 -21.5
q0 -8 -12 -47.5t-33 -107t-35 -121.5l-233 -887q-7 -25 -7 -37q0 -16 13 -21.5t41 -9.5l57 -8q22 -2 28.5 -8.5t0.5 -24.5q-8 -25 -17 -31t-28 -4q-89 7 -170 7zM209 90q74 0 168 94q86 86 142 219t56 228q0 61 -25.5 91t-64.5 30q-91 0 -188 -97q-82 -82 -132 -208.5
t-50 -237.5q0 -53 26 -86t68 -33z" />
    <glyph glyph-name="r" unicode="r" horiz-adv-x="675" 
d="M250 481h8q101 207 174 283q42 42 71 59t64 17q41 0 68 -28.5t27 -70.5q0 -39 -22.5 -69.5t-61.5 -30.5q-46 0 -46 33q0 41 -30 41q-20 0 -53 -33q-57 -58 -135 -197t-103 -202q-10 -25 -16.5 -44.5t-14.5 -52.5t-12 -47l-27 -102q-5 -21 -19 -32t-48 -11q-41 0 -55.5 6
t-14.5 23q0 11 6 26q4 16 18 55t25 74q65 211 109 391q22 86 22 111q0 29 -22 29q-23 0 -78 -76q-3 -5 -9 -13.5t-8.5 -12.5t-7 -9.5t-7.5 -7.5t-7.5 -4t-9.5 -2q-11 0 -19 6.5t-8 15.5q0 21 41 88q83 146 184 146q39 0 58 -19q27 -29 19.5 -91.5t-60.5 -248.5z" />
    <glyph glyph-name="s" unicode="s" horiz-adv-x="571" 
d="M119 -25q-68 0 -121 43.5t-53 106.5q0 34 20 59t55 25q43 0 43 -31q0 -8 -1 -18t-1 -15q0 -42 21.5 -70t60.5 -28q44 0 74.5 28t30.5 75q0 29 -11.5 64t-22.5 57t-35 64l-32 56q-2 3 -14 24t-18.5 33t-18 34.5t-17.5 39t-11 36t-5 34.5q0 32 15 73t42.5 81t75 67
t103.5 27q82 0 126 -44t44 -94q0 -34 -20 -59t-54 -25q-43 0 -43 31q0 7 1 18t1 15q0 36 -19 62t-52 26q-50 0 -80.5 -32.5t-30.5 -73.5q0 -19 13 -47.5t25 -48t39 -59t34 -50.5q92 -141 92 -250q0 -81 -72.5 -157.5t-183.5 -76.5z" />
    <glyph glyph-name="t" unicode="t" horiz-adv-x="546" 
d="M303 707l-139 -490q-1 -3 -6 -19.5t-9 -34t-4 -26.5q0 -31 33 -31q46 0 129 121q20 29 41 29q12 0 20.5 -7.5t8.5 -21.5q0 -15 -35 -65q-63 -92 -125 -139.5t-113 -47.5q-43 0 -71.5 26.5t-28.5 68.5q0 17 7 47t21 80.5t19 68.5l121 439l-111 -7q-13 -1 -18 5t-2 16
l16 45q4 12 11 16t22 6l105 7l36 127q9 34 60 53q46 16 59 16q23 0 23 -20q0 -7 -4 -27l-43 -147l149 6q18 0 8 -25l-14 -43q-4 -11 -11.5 -14.5t-27.5 -5.5z" />
    <glyph glyph-name="u" unicode="u" horiz-adv-x="946" 
d="M131 -25q-52 0 -84.5 30.5t-32.5 86.5q0 15 3 33.5t6 33t10.5 37t11.5 33.5t13.5 36.5t11.5 31.5l100 276q37 96 37 111q0 29 -25 29q-7 0 -13.5 -3t-15 -12t-13 -14t-15.5 -19t-14 -18q-29 -38 -42 -48.5t-26 -10.5q-10 0 -18.5 7t-8.5 19q0 13 45 78q101 148 195 148
q38 0 63 -25q20 -21 22 -56.5t-7 -70.5t-31 -96l-98 -281q-47 -132 -47 -176q0 -47 47 -47q63 0 149 86q64 64 127 154.5t92 146.5q44 87 74 193q29 98 33 110q10 28 27 35.5t49 7.5q61 0 61 -33q0 -9 -7 -30t-22.5 -62t-23.5 -65q-160 -457 -160 -494q0 -26 27 -26
q28 0 76 65q39 52 50 59q7 4 15 5q11 0 20 -7.5t9 -19.5q0 -20 -37 -74q-25 -36 -44.5 -59.5t-46.5 -50.5t-56 -40.5t-60 -13.5q-80 0 -80 95q0 18 4.5 42t13.5 55.5t15.5 51t19.5 56.5t15 44h-10q-64 -102 -96.5 -147t-73.5 -86q-111 -111 -234 -111z" />
    <glyph glyph-name="v" unicode="v" horiz-adv-x="964" 
d="M430 -25q-66 0 -114 22.5t-72.5 61t-35.5 80t-11 88.5q0 112 66.5 263.5t131.5 230.5q-59 4 -211 4q-70 0 -108.5 -28.5t-38.5 -82.5q0 -23 14.5 -37.5t31.5 -21.5t31.5 -26t14.5 -50q0 -26 -17 -43.5t-42 -17.5q-44 0 -69.5 40.5t-25.5 88.5q0 134 75.5 207.5
t217.5 81.5q61 4 209 4q31 0 38.5 -24.5t-3.5 -39.5q-77 -126 -94 -164q-82 -182 -82 -333q0 -183 129 -183q57 0 115.5 47.5t99.5 115.5t66.5 140t25.5 123q0 43 -11.5 74.5t-28 49t-33.5 33t-28.5 36t-11.5 47.5t22 52.5t62 25.5q109 0 109 -236q0 -90 -31 -197
t-83.5 -204.5t-134.5 -162.5t-173 -65z" />
    <glyph glyph-name="w" unicode="w" horiz-adv-x="1347" 
d="M379 -25q-82 0 -143.5 63.5t-61.5 166.5q0 48 12.5 101t28 94t45 96t47 83t50 79t40.5 63q-18 -6 -88 -6q-19 0 -53.5 3t-54.5 3q-154 0 -154 -98q0 -41 55 -74q33 -20 33 -55q0 -30 -18 -53t-49 -23q-36 0 -60 39t-24 96q0 108 71.5 191.5t182.5 86.5q79 3 135.5 5
t76.5 3t37 1q30 0 39.5 -16.5t-2.5 -39.5q-6 -15 -41 -77.5t-45 -81.5q-3 -6 -19.5 -38t-24 -48.5t-23 -49.5t-24 -57.5t-18 -55.5t-14 -60t-4.5 -56q0 -63 32 -113.5t97 -50.5q56 0 107 48t78 102q6 12 11.5 24t9.5 21t8.5 23t6.5 20.5t6 23.5t5.5 21t6 24.5t5.5 24.5
q12 48 20 89.5t10 59.5t5 57t4 46q5 64 25.5 95.5t68.5 31.5q27 0 44.5 -13.5t17.5 -41.5t-10.5 -59t-35.5 -84t-38 -85q-66 -177 -66 -284q0 -61 38 -98.5t91 -37.5q60 0 109.5 32.5t80 80.5t51.5 106t29.5 106t8.5 83q0 57 -13.5 95.5t-52.5 74.5q-47 38 -47 78
q0 29 20.5 54.5t67.5 25.5q33 0 57 -22.5t36 -59.5t17 -75t5 -79q0 -76 -23 -182.5t-65 -196.5q-120 -250 -310 -250q-141 0 -165 191q-129 -191 -285 -191z" />
    <glyph glyph-name="x" unicode="x" horiz-adv-x="849" 
d="M313 313l-141 -192q-106 -146 -182 -146q-53 0 -53 64q0 22 3.5 47.5t12 65t10.5 51.5q7 30 31 30q13 0 21 -8.5t8 -19.5q0 -9 -4.5 -36t-4.5 -40q0 -10 6.5 -17.5t16.5 -7.5q18 0 69 64l179 240q-36 107 -55.5 163.5t-33.5 89t-21 40.5t-15 8q-23 0 -56 -88
q-10 -27 -17.5 -36.5t-18.5 -9.5q-13 0 -22 8t-9 21q0 10 20 72q13 37 29.5 69t49.5 62.5t71 30.5q14 0 26 -3t22.5 -12t18.5 -18t17.5 -27t16 -33t16 -43t17 -49.5t20 -59.5t22.5 -67l172 232q63 82 129 82q33 0 47 -24.5t14 -55.5q0 -42 -16 -107q-8 -29 -12 -42.5
t-13 -24.5t-22 -11q-11 0 -19 9t-8 18q0 12 5 46t6 48q3 27 -19 27q-11 0 -27.5 -18t-48.5 -60l-157 -215q18 -50 33.5 -98.5t24.5 -78t17.5 -56.5t13.5 -41t10 -25t10 -14.5t12 -3.5q12 0 21.5 13t27.5 50l9 18t7.5 15.5t5.5 12t5 9.5t5 7t5 6t5 3.5t6 2t7 0.5q11 0 19 -8
t8 -21q0 -19 -37 -102q-66 -144 -137 -144q-48 0 -77.5 58.5t-101.5 279.5z" />
    <glyph glyph-name="y" unicode="y" horiz-adv-x="774" 
d="M-180 -492q-67 0 -113.5 28t-46.5 79q0 28 19 53t63 25q25 0 42 -15.5t25 -34t25.5 -34t42.5 -15.5q34 0 65 20t78 67q88 88 144.5 180t56.5 162q0 112 -22 292q-29 223 -50 308.5t-51 85.5q-26 0 -57 -103q-10 -33 -33 -33q-28 0 -28 31q0 18 10 45q41 107 71 145
q36 45 78 46q46 0 72 -23q93 -87 125 -565l8 -125q84 158 140.5 294.5t56.5 190.5q0 47 -29 95q-18 36 -18 61q0 27 22.5 49.5t63.5 22.5q34 0 59 -28.5t25 -78.5q0 -205 -361 -801q-41 -66 -89.5 -131t-114 -135.5t-139.5 -114t-140 -43.5z" />
    <glyph glyph-name="z" unicode="z" horiz-adv-x="825" 
d="M506 -25q-116 0 -215 78q-95 76 -154 76q-16 0 -29 -6.5t-23.5 -20.5t-17 -26t-14.5 -31q-26 -57 -78 -57q-26 0 -44.5 18.5t-18.5 48.5q0 20 18.5 42.5t65.5 66.5q14 13 22 20l471 443q-12 -4 -36 -4q-56 0 -111 32q-25 15 -53 42t-50.5 42t-52.5 15q-48 0 -73 -28
t-25 -58q0 -17 15.5 -26t34.5 -12.5t34.5 -18.5t15.5 -42q0 -26 -19 -42.5t-44 -16.5q-43 0 -72.5 34t-29.5 95q0 74 65 139q27 27 65.5 44.5t75.5 17.5q49 0 77 -12t69 -50q8 -7 29 -27.5t32.5 -30.5t30.5 -20t35 -10q26 0 48.5 17t29.5 49q7 30 27.5 50.5t54.5 20.5
q28 0 43.5 -18t15.5 -43q0 -17 -9 -35.5t-27 -37.5t-32 -32t-36.5 -32t-28.5 -25l-428 -403h16q121 0 191 -41q27 -15 64.5 -42t62 -41t45.5 -14q31 0 52 23.5t21 58.5q0 20 -16.5 31.5t-36.5 16t-36.5 18.5t-16.5 39q0 26 16.5 43.5t46.5 17.5q45 0 78 -36.5t33 -102.5
q0 -86 -46 -141.5t-128 -55.5z" />
    <glyph glyph-name="braceleft" unicode="{" horiz-adv-x="655" 
d="M176 -401q-29 0 -52 2t-50 10t-44.5 21.5t-29.5 38t-12 57.5q0 65 34.5 146t76 146.5t76 148t34.5 150.5q0 103 -78 160q-10 7 -10 21q4 14 22 22q57 27 98.5 65t63.5 73t34.5 75.5t15.5 66.5t3 52q0 44 -11 130.5t-11 129.5q0 60 15 110.5t46.5 91.5t86 64t128.5 23h54
q6 0 13 -6t7 -15q0 -34 -35 -34q-36 0 -59 -2t-51.5 -11.5t-44.5 -27t-27.5 -51t-11.5 -80.5q0 -36 12 -121.5t12 -139.5q0 -61 -10.5 -111.5t-38 -106.5t-85.5 -106t-144 -91q112 -69 112 -203q0 -39 -8 -72q-18 -73 -56.5 -154t-73 -135.5t-61 -113t-26.5 -98.5
q0 -70 125 -70q35 0 35 -27q0 -15 -11 -21.5t-22 -6.5h-41z" />
    <glyph glyph-name="bar" unicode="|" horiz-adv-x="962" 
d="M389 -483v1851q0 21 2 28t12 7h80q19 0 19 -21v-1863q0 -21 -15 -21h-84q-14 0 -14 19z" />
    <glyph glyph-name="braceright" unicode="}" horiz-adv-x="655" 
d="M-33 -401h-53q-20 0 -20 20t8.5 26.5t25.5 8.5q31 2 43 3t38.5 5t38 10.5t29.5 19t25.5 30t14 44t6.5 60.5q0 36 -12.5 121t-12.5 139q0 61 10.5 111.5t38.5 107t86 106.5t144 91q-113 69 -113 203q0 38 8 71q18 73 56.5 154t73 136t61 113.5t26.5 98.5q0 30 -16.5 46
t-39.5 19t-46.5 3.5t-40 6.5t-16.5 21t10.5 22t21.5 7h41q37 0 66 -4.5t59 -16.5t47 -39.5t17 -68.5q0 -54 -23 -116t-55 -119.5t-64.5 -115.5t-55.5 -121.5t-23 -119.5q0 -103 78 -160q10 -8 10 -20q-4 -15 -23 -23q-57 -27 -98.5 -65t-63.5 -73t-34.5 -75.5t-15.5 -66.5
t-3 -52q0 -44 11.5 -130.5t11.5 -129.5q0 -60 -15 -110.5t-47 -91t-86.5 -63.5t-128.5 -23z" />
    <glyph glyph-name="asciitilde" unicode="~" 
d="M686 518q-70 0 -143 24t-143.5 48t-133.5 24q-44 0 -68.5 -19.5t-31.5 -39.5q-6 -23 -13.5 -28t-31.5 -5q-13 0 -17 5t-4 24q0 27 10.5 55t32 54.5t60.5 43.5t90 17q70 0 143.5 -24t144 -48t132.5 -24q31 0 54.5 13t32.5 24.5t13 23.5q6 22 13 26.5t32 4.5q13 0 17 -4
t4 -23q0 -27 -10.5 -55t-32 -55.5t-60.5 -44.5t-90 -17z" />
    <glyph glyph-name="exclamdown" unicode="&#xa1;" horiz-adv-x="516" 
d="M260 625q-39 0 -62.5 28t-23.5 66q0 49 30.5 85t80.5 36q34 0 60 -25t26 -76q0 -47 -31.5 -80.5t-79.5 -33.5zM18 -467q-51 0 -77 33q-13 16 -16 34.5t0.5 36.5t15.5 62q5 19 74 224.5t163 557.5q6 22 12 28.5t19 6.5l41 -2q18 -2 12 -33q-54 -269 -81 -456.5t-34 -266
t-18 -120.5q-15 -59 -36 -82t-75 -23z" />
    <glyph glyph-name="cent" unicode="&#xa2;" 
d="M408 -29l-33 -135q-5 -20 -45 -20q-13 0 -25.5 4.5t-9.5 13.5l33 135q-68 7 -119 34t-80.5 69.5t-44 93.5t-14.5 110q0 106 41 216t106.5 196.5t154 145t177.5 65.5l37 135q6 21 45 21q12 0 25 -5.5t10 -13.5l-33 -137q96 -6 152.5 -44.5t56.5 -90.5q0 -39 -17.5 -60.5
t-48.5 -21.5q-65 0 -78 51q-5 19 -8.5 27.5t-13 21.5t-26 20t-42.5 11l-176 -743h21q90 0 186 96q18 16 35 16q8 0 15 -8t7 -18q0 -19 -23.5 -48.5t-61 -58t-92.5 -51t-111 -27.5zM356 84l172 729q-84 -3 -155.5 -84t-109.5 -199t-38 -237q0 -77 33 -134t98 -75z" />
    <glyph glyph-name="sterling" unicode="&#xa3;" 
d="M602 -109q-52 0 -98.5 20.5t-68 39t-62.5 57.5q-7 7 -28.5 28t-28.5 27.5t-24.5 21.5t-28 20t-27.5 13t-33.5 10.5t-36.5 2.5q-9 -16 -24.5 -39.5t-42.5 -56.5t-63 -55.5t-71 -22.5q-36 0 -53.5 21t-17.5 40q0 24 16.5 56t38.5 53q71 65 141 80q45 168 76 266h-115
q-30 0 -42.5 2.5t-12.5 11.5q0 1 12 37q7 22 17 27.5t34 5.5h136q6 13 29 72t54.5 135t67.5 158q74 164 155 237.5t218 73.5q60 0 107.5 -28t47.5 -79q0 -39 -20 -61.5t-51 -22.5q-29 0 -43 8t-31 35q-1 1 -6.5 12.5t-8 16t-10 14.5t-13.5 14.5t-15.5 8.5t-20.5 4
q-29 0 -54.5 -19.5t-43.5 -47t-37.5 -74.5t-32 -85t-31 -95.5t-30.5 -90.5q-67 -182 -68 -186h246q33 0 45.5 -2t12.5 -12t-13 -41q-9 -20 -21.5 -24.5t-52.5 -4.5h-243q-25 -64 -56.5 -130t-49.5 -100l-19 -34q101 -1 162 -27t125 -90q5 -5 25 -25.5t27 -27t25.5 -21.5
t31.5 -21t32 -11.5t39 -5.5q44 0 75 27t31 63q0 30 -15 45t-56 22q-31 6 -53.5 27.5t-22.5 52.5q0 39 29 55.5t59 16.5q69 0 110 -46t41 -112q0 -110 -79 -178q-68 -62 -191 -62z" />
    <glyph glyph-name="currency" unicode="&#xa4;" horiz-adv-x="1024" 
d="M489 205q-79 0 -130.5 23.5t-110.5 72.5l-105 -100q-25 -21 -28 -21q-10 0 -23 13l-31 30q-12 15 -12 23q0 14 25 39l104 98q-29 53 -43 102t-14 119q0 117 59 223l-102 99q-25 25 -25 39q0 6 13 22l30 31q12 12 23 12q5 0 28 -20l105 -101q103 92 237 92q117 0 228 -79
l104 100q23 20 29 20q10 0 22 -12l31 -31q12 -15 12 -22q0 -15 -24 -39l-103 -98q24 -43 36 -69t22 -70t10 -97q0 -74 -17 -126t-51 -109l105 -99q25 -25 25 -39q0 -6 -13 -22l-31 -31q-12 -12 -22 -12q-6 0 -29 20l-104 101q-52 -38 -104 -60t-126 -22zM489 895
q-70 0 -124.5 -44t-81.5 -109.5t-27 -137.5q0 -116 64 -204.5t169 -88.5q104 0 170 89t66 204q0 72 -28 138t-83.5 109.5t-124.5 43.5z" />
    <glyph glyph-name="yen" unicode="&#xa5;" 
d="M317 0q-157 0 -223 -6q-20 -2 -25 4.5t1 32.5q6 19 13 24t28 8l79 13q30 4 42.5 22t25.5 66l53 198h-196q-38 0 -50 4.5t-8 22.5l11 33q4 13 14.5 16.5t40.5 3.5h209l35 127h-215q-31 0 -39 4.5t-2 22.5l8 29q6 17 14.5 20.5t38.5 3.5h184q-71 217 -133 391
q-18 53 -30 67t-37 17l-66 9q-22 3 -26 10t2 33q7 26 16 30t27 0q99 -6 176 -6q132 0 198 6q2 0 7.5 0.5t7 0.5h5.5t5 -1t3 -2t2 -3.5t0.5 -6.5t-0.5 -9t-3 -11q-6 -26 -12.5 -32t-28.5 -9l-57 -9q-17 -3 -24 -8t-7 -16q0 -18 16 -80l92 -322l267 299q5 6 16 18.5t16 18.5
t13.5 16t12.5 15.5t8.5 13t6.5 12.5t2 9q0 11 -6.5 15t-27.5 7l-60 11q-22 3 -26 10t2 33q7 26 16 30t27 0q66 -6 153 -6q80 0 146 6q3 0 9.5 1t8.5 1t5.5 -0.5t4.5 -2.5t1.5 -5.5t-0.5 -9.5t-3 -14q-6 -23 -12.5 -30t-28.5 -13l-43 -11q-35 -9 -69 -47l-379 -426h211
q32 0 39.5 -3t3.5 -21l-8 -29q-6 -19 -14 -23t-38 -4h-227l-33 -127h230q31 0 38 -4.5t1 -23.5l-11 -29q-5 -15 -13.5 -19t-37.5 -4h-229l-51 -196q-9 -40 -9 -47q0 -22 12 -31t36 -12l77 -10q21 -3 25.5 -9.5t-0.5 -23.5q-8 -29 -16 -35t-29 -4q-66 6 -189 6z" />
    <glyph glyph-name="brokenbar" unicode="&#xa6;" horiz-adv-x="952" 
d="M375 610v719q0 22 2 29.5t12 7.5h80q11 0 14.5 -5t3.5 -18v-729q0 -20 -14 -20h-84q-14 0 -14 16zM375 -446v718q0 21 2 28t12 7h80q12 0 15 -4t3 -16v-729q0 -21 -14 -21h-84q-14 0 -14 17z" />
    <glyph glyph-name="section" unicode="&#xa7;" 
d="M193 -344q-72 0 -126.5 50.5t-54.5 123.5q0 15 5 35t25 41.5t52 21.5q34 0 47 -14.5t13 -40.5q0 -10 -2 -32t-2 -34q0 -34 19 -53.5t71 -19.5q19 0 42.5 9t49.5 27t43.5 53.5t17.5 80.5q0 51 -25.5 106.5t-62.5 105t-74 99.5t-62.5 107.5t-25.5 111.5q0 50 14 99.5
t43.5 102t84.5 101.5t129 86q-68 107 -68 189q0 124 95 219.5t239 95.5q72 0 127 -50.5t55 -123.5q0 -15 -5 -35t-25 -41.5t-52 -21.5q-34 0 -46.5 14.5t-12.5 40.5q0 10 2 32t2 32q0 36 -19 55.5t-73 19.5q-19 0 -43 -9t-50 -27t-43.5 -53.5t-17.5 -80.5q0 -51 25.5 -106.5
t62.5 -105t74 -99.5t62.5 -107.5t25.5 -111.5q0 -49 -14 -99t-43.5 -102t-84 -101.5t-128.5 -86.5q67 -105 67 -189q0 -128 -95 -221.5t-238 -93.5zM418 219q94 56 134 126t40 134q0 40 -14.5 81.5t-30 67t-47.5 72t-45 66.5q-94 -56 -135 -126.5t-41 -135.5q0 -40 15 -81.5
t30 -66t48.5 -71.5t45.5 -66z" />
    <glyph glyph-name="dieresis" unicode="&#xa8;" horiz-adv-x="1024" 
d="M573 1075q0 49 30 85t75 36q36 0 60 -25.5t24 -62.5q0 -45 -31 -80t-76 -35q-36 0 -59 24t-23 58zM262 1075q0 49 30 85t75 36q36 0 60 -25.5t24 -62.5q0 -45 -32.5 -80t-74.5 -35q-38 0 -60 23.5t-22 58.5z" />
    <glyph glyph-name="copyright" unicode="&#xa9;" horiz-adv-x="1587" 
d="M43 664q0 144 57 274.5t153 224.5t228 149.5t275 55.5q144 0 275.5 -55.5t227.5 -149.5t152.5 -224.5t56.5 -274.5q0 -191 -96 -352t-259.5 -254t-356.5 -93q-192 0 -356 93t-260.5 254t-96.5 352zM150 664q0 -122 48 -235.5t129 -196t193.5 -132t235.5 -49.5t235.5 49.5
t194 132t130 196t48.5 235.5q0 165 -81.5 307.5t-222 227.5t-304.5 85t-304 -85t-221 -227.5t-81 -307.5zM760 260q-95 0 -173 36.5t-126.5 96t-74.5 131t-26 146.5q0 105 48.5 197t146.5 152t227 60q52 0 118.5 -21.5t125.5 -66.5l23 27q7 18 26 18q21 0 21 -28
q0 -62 8 -174q1 -19 -1 -24.5t-13 -10.5q-19 -7 -29 1.5t-37 49.5q-105 164 -242 164q-72 0 -127.5 -28t-86.5 -74.5t-46.5 -100.5t-15.5 -113q0 -147 78.5 -245.5t218.5 -98.5q68 0 127 30.5t98 82.5q21 29 33 35t35 -6q12 -8 12 -19.5t-5.5 -22t-19.5 -32.5
q-42 -65 -127 -113.5t-196 -48.5z" />
    <glyph glyph-name="ordfeminine" unicode="&#xaa;" horiz-adv-x="759" 
d="M467 786h-8q-60 -97 -124 -136.5t-122 -39.5t-92.5 42t-34.5 100q0 77 45 183.5t121 180.5q111 107 213 107q68 0 92 -39q13 39 30.5 51t57.5 12q21 0 21 -16q0 -5 -4 -17.5t-12.5 -40t-16.5 -57.5l-78 -299q-23 -72 -23 -82q0 -24 17 -24t31 18q32 40 46 54t25 14
t18 -6.5t7 -14.5q0 -13 -45 -78q-27 -37 -62 -62.5t-67 -25.5q-33 0 -49.5 18t-16.5 46q0 15 5.5 35.5t14.5 44t11 32.5zM264 705q39 0 98 55q63 63 102.5 156t39.5 163q0 28 -12 52t-39 24q-58 0 -121 -63q-61 -61 -95 -147.5t-34 -158.5q0 -28 16.5 -54.5t44.5 -26.5z
M127 535h487q32 0 21 -35q-11 -31 -17 -40t-16 -9h-496q-35 0 -22 41q9 27 17 35t26 8z" />
    <glyph glyph-name="guillemotleft" unicode="&#xab;" horiz-adv-x="800" 
d="M659 625q-116 -136 -178 -222q25 -56 56.5 -118t42.5 -86q22 -44 22 -68q0 -12 -8.5 -21.5t-22.5 -9.5q-18 0 -34 23q-60 84 -142 190q-6 8 -25.5 32t-28.5 37.5t-9 20.5q0 21 47 60q91 78 244 223q36 33 55 33q9 0 18 -8.5t9 -18.5q0 -7 -6 -17.5t-12 -17.5t-16.5 -19
t-11.5 -13zM358 625q-116 -136 -178 -222q25 -56 56.5 -118t42.5 -86q22 -44 22 -68q0 -12 -8.5 -21.5t-22.5 -9.5q-18 0 -34 23q-60 84 -142 190q-6 8 -25.5 32t-28.5 37.5t-9 20.5q0 21 47 60q91 78 244 223q36 33 55 33q9 0 17.5 -8.5t8.5 -18.5q0 -6 -3 -13t-9.5 -15.5
t-11 -14.5t-12.5 -14t-9 -10z" />
    <glyph glyph-name="logicalnot" unicode="&#xac;" 
d="M844 657v-256q0 -33 -4.5 -44t-26.5 -11h-39q-23 0 -28 11t-5 44v187h-581q-24 0 -33 1t-16 7.5t-7 21.5v39q0 23 11 28t45 5h653q31 0 31 -33z" />
    <glyph glyph-name="registered" unicode="&#xae;" horiz-adv-x="1032" 
d="M68 936q0 117 60 216.5t163 157.5t225 58t225.5 -58t163.5 -157.5t60 -216.5t-60 -216.5t-163.5 -157.5t-225.5 -58t-225 58t-163 157.5t-60 216.5zM516 582q149 0 253.5 104t104.5 252t-104.5 252t-253.5 104t-253.5 -104t-104.5 -252t104.5 -252t253.5 -104zM549 1178
q69 0 117.5 -30.5t48.5 -94.5q0 -42 -29 -73t-70 -36q18 -14 38 -41.5t28 -46.5l31 -63q6 -15 30 -15q31 0 31 -28q0 -21 -24 -21q-10 0 -41 1t-41 1q-20 0 -32 16t-30 56q-4 8 -12.5 30t-14 35t-14 27t-16.5 20q-12 12 -25.5 15.5t-52.5 3.5v-121q0 -25 6.5 -30t40.5 -5
q19 0 19 -22q0 -25 -17 -25h-188q-17 0 -17 25q0 22 17 22q34 0 41.5 5t7.5 30v270q0 32 -6.5 42t-32.5 10q-25 0 -25 22q0 23 21 23q2 0 30.5 -0.5t78 -1t102.5 -0.5zM469 979h78q76 0 76 84q0 29 -22 48t-60 19q-48 0 -60 -5t-12 -25v-121z" />
    <glyph glyph-name="macron" unicode="&#xaf;" horiz-adv-x="1024" 
d="M690 1044h-385q-32 0 -42.5 5.5t-4.5 25.5l14 45q6 20 18 24.5t46 4.5h385h17.5t13.5 -1t10.5 -2.5t5.5 -5t2.5 -8.5t-2.5 -12l-14 -45q-6 -20 -19 -25.5t-45 -5.5z" />
    <glyph glyph-name="macron" unicode="&#x304;" horiz-adv-x="1024" 
d="M690 1044h-385q-32 0 -42.5 5.5t-4.5 25.5l14 45q6 20 18 24.5t46 4.5h385h17.5t13.5 -1t10.5 -2.5t5.5 -5t2.5 -8.5t-2.5 -12l-14 -45q-6 -20 -19 -25.5t-45 -5.5z" />
    <glyph glyph-name="degree" unicode="&#xb0;" horiz-adv-x="571" 
d="M104 1028q0 88 62 146.5t151 58.5q90 0 152.5 -58.5t62.5 -146.5q0 -87 -62.5 -145t-152.5 -58q-89 0 -151 58t-62 145zM197 1030q0 -60 34 -100.5t86 -40.5q51 0 87 40.5t36 100.5q0 61 -35.5 100t-87.5 39q-53 0 -86.5 -39t-33.5 -100z" />
    <glyph glyph-name="plusminus" unicode="&#xb1;" 
d="M543 1061v-238h260h21.5t14.5 -1.5t11.5 -5t5 -9.5t2.5 -16v-39q0 -22 -11 -26.5t-44 -4.5h-260v-238q0 -24 -1 -33.5t-8.5 -16.5t-23.5 -7h-41q-24 0 -29.5 11.5t-5.5 45.5v238h-260q-33 0 -44 4.5t-11 26.5v39q0 10 2.5 16t5 9.5t11.5 5t14.5 1.5h21.5h260v238
q0 24 1.5 33.5t9 16.5t24.5 7h41q23 0 28 -11.5t5 -45.5zM803 229h-629q-33 0 -44 4.5t-11 26.5v39q0 23 11 28t44 5h629q23 0 32.5 -1.5t16 -8.5t6.5 -23v-39q0 -22 -11 -26.5t-44 -4.5z" />
    <glyph glyph-name="two.superior" unicode="&#xb2;" horiz-adv-x="675" 
d="M489 1374q83 0 142 -50.5t59 -139.5q0 -66 -35.5 -126t-107.5 -130q-42 -42 -80 -73.5t-101.5 -77.5t-86.5 -64h147q57 0 73 5t36 25q8 8 38 48q11 16 33 16q11 0 17.5 -8.5t1.5 -22.5q-13 -27 -37 -83t-39 -85q-11 -22 -31 -22q-15 0 -20 16q-3 14 -49 14h-314
q-20 0 -28.5 4.5t-8.5 16.5q0 16 27 39q15 11 94 67t132 100.5t95 94.5q55 67 80 113t25 104t-28.5 89.5t-78.5 31.5q-42 0 -69.5 -17.5t-65.5 -62.5q-17 -20 -37 -20q-22 0 -27 17t5 34q82 147 239 147z" />
    <glyph glyph-name="three.superior" unicode="&#xb3;" horiz-adv-x="600" 
d="M469 1372q69 0 111.5 -37t42.5 -100q0 -29 -10 -55.5t-22 -44.5t-39.5 -41.5t-44 -35.5t-54.5 -38q122 -79 122 -180q0 -121 -98 -189q-73 -53 -192 -53q-80 0 -133.5 39.5t-53.5 75.5q0 26 15.5 43.5t40.5 17.5q21 0 33.5 -11.5t21.5 -41.5q9 -29 33 -46.5t55 -17.5
q33 0 54.5 7.5t47.5 33.5q41 44 41 111q0 56 -34.5 100.5t-81.5 65.5q-9 5 -9 14q0 12 17 23q31 20 50 34t48 39.5t44 53.5t15 57q0 39 -21 63.5t-56 24.5q-36 0 -58 -11.5t-53 -45.5q-25 -25 -37 -25q-13 0 -22 8t-9 17q0 4 5 14q31 60 92 95.5t139 35.5z" />
    <glyph glyph-name="acute" unicode="&#xb4;" horiz-adv-x="1019" 
d="M672 1319q41 0 52.5 -15.5t-19.5 -52.5q-176 -184 -228 -247q-28 -39 -53 -39q-15 0 -20.5 12t4.5 37q16 33 55 108.5t61 122.5q20 42 53.5 58t94.5 16z" />
    <glyph glyph-name="mu" unicode="&#xb5;" horiz-adv-x="958" 
d="M-78 -207q102 337 160 504l98 276l70 205q10 28 27 35.5t49 7.5q61 0 61 -33q0 -9 -12.5 -41t-32 -79.5t-29.5 -75.5l-96 -281q-47 -132 -47 -176q0 -47 47 -47q64 0 150 86q64 64 127 154.5t92 146.5q42 82 73 193q29 98 33 110q10 28 27 35.5t49 7.5q61 0 61 -33
q0 -9 -7 -30t-22.5 -62t-23.5 -65q-160 -457 -160 -494q0 -26 27 -26q28 0 76 65q39 52 50 59q7 4 15 5q11 0 20 -7.5t9 -19.5q0 -20 -37 -74q-25 -36 -44.5 -59.5t-46.5 -50.5t-56 -40.5t-60 -13.5q-80 0 -80 95q0 18 4.5 42t13.5 55.5t15.5 51t19.5 56.5t15 44h-10
q-64 -102 -96.5 -147t-73.5 -86q-111 -111 -223 -111q-55 0 -76 37q-46 -208 -58.5 -283t-21.5 -204q-6 -64 -86 -64q-57 0 -57 37q2 82 67 295z" />
    <glyph glyph-name="mu" unicode="&#x3bc;" horiz-adv-x="958" 
d="M-78 -207q102 337 160 504l98 276l70 205q10 28 27 35.5t49 7.5q61 0 61 -33q0 -9 -12.5 -41t-32 -79.5t-29.5 -75.5l-96 -281q-47 -132 -47 -176q0 -47 47 -47q64 0 150 86q64 64 127 154.5t92 146.5q42 82 73 193q29 98 33 110q10 28 27 35.5t49 7.5q61 0 61 -33
q0 -9 -7 -30t-22.5 -62t-23.5 -65q-160 -457 -160 -494q0 -26 27 -26q28 0 76 65q39 52 50 59q7 4 15 5q11 0 20 -7.5t9 -19.5q0 -20 -37 -74q-25 -36 -44.5 -59.5t-46.5 -50.5t-56 -40.5t-60 -13.5q-80 0 -80 95q0 18 4.5 42t13.5 55.5t15.5 51t19.5 56.5t15 44h-10
q-64 -102 -96.5 -147t-73.5 -86q-111 -111 -223 -111q-55 0 -76 37q-46 -208 -58.5 -283t-21.5 -204q-6 -64 -86 -64q-57 0 -57 37q2 82 67 295z" />
    <glyph glyph-name="paragraph" unicode="&#xb6;" horiz-adv-x="1021" 
d="M168 -340l276 1108q7 33 -1 45.5t-35 15.5q-68 8 -116.5 31.5t-73.5 56.5t-35.5 67t-10.5 73q0 78 33 137t88 91t117 47.5t129 15.5q453 0 510 -2q8 0 11.5 -2.5t0.5 -8.5l-27 -57q-6 -14 -22 -14h-133l-379 -1518q-4 -19 -19 -22l-75 -21q-12 0 -9 12l387 1549h-120
l-392 -1571q-4 -18 -18 -21l-80 -24q-9 0 -6 12z" />
    <glyph glyph-name="periodcentered" unicode="&#xb7;" horiz-adv-x="512" 
d="M299 424q0 -51 -33 -92t-86 -41q-42 0 -69 28.5t-27 71.5q0 49 33 90t84 41q42 0 70 -28t28 -70z" />
    <glyph glyph-name="periodcentered" unicode="&#x2219;" horiz-adv-x="512" 
d="M299 424q0 -51 -33 -92t-86 -41q-42 0 -69 28.5t-27 71.5q0 49 33 90t84 41q42 0 70 -28t28 -70z" />
    <glyph glyph-name="cedilla" unicode="&#xb8;" horiz-adv-x="1024" 
d="M408 -14l-56 -76q60 -22 90.5 -52.5t30.5 -82.5q0 -75 -63 -129t-140 -54q-54 0 -80 11t-26 39q0 20 13 35.5t34 15.5q10 0 19.5 -5t19.5 -13.5t12 -10.5q26 -16 45 -16q26 0 50 26.5t24 61.5q0 79 -123 90q-28 3 -14 22l98 138h66z" />
    <glyph glyph-name="one.superior" unicode="&#xb9;" horiz-adv-x="516" 
d="M309 616q-81 0 -180 -6q-22 0 -10 39q5 14 10 20t16 7l68 6q19 1 26.5 11.5t14.5 37.5l106 395q9 34 10.5 51t-1.5 21t-11 4q-7 0 -57 -24l-47 -25q-12 -10 -27 16q-20 29 4 43q28 18 71.5 44.5t79 48t71.5 45.5q34 24 63 24q30 0 25 -26q0 -2 -10.5 -36t-29.5 -104
t-42 -159l-84 -326q-2 -6 -2 -16q0 -22 28 -25l86 -6q22 0 13 -27q-12 -39 -29 -39q-93 6 -162 6z" />
    <glyph glyph-name="ordmasculine" unicode="&#xba;" horiz-adv-x="665" 
d="M315 606q-46 0 -82.5 21.5t-58 57.5t-32.5 77.5t-11 85.5q0 74 31 159.5t92 143.5q82 82 172 82q61 0 104.5 -37.5t61.5 -89.5t18 -111q0 -76 -34 -162.5t-89 -140.5q-86 -86 -172 -86zM303 686q39 0 86 47q51 50 83 140.5t32 164.5q0 117 -66 117q-36 0 -88 -49
q-54 -54 -83 -144.5t-29 -158.5q0 -117 65 -117zM115 532h377q15 0 21 -6.5t-1 -27.5q-11 -31 -17 -40t-16 -9h-385q-18 0 -23.5 8.5t1.5 31.5q9 27 17 35t26 8z" />
    <glyph glyph-name="guillemotright" unicode="&#xbb;" horiz-adv-x="800" 
d="M324 182q121 141 178 221q-25 57 -57 120t-42 85q-22 44 -22 68q0 12 8.5 21.5t22.5 9.5q18 0 34 -23q60 -84 142 -190q6 -8 16 -20.5t17 -21.5t14.5 -19t11.5 -17.5t4 -12.5q0 -20 -47 -59q-91 -78 -244 -223q-36 -33 -55 -33q-9 0 -17.5 8.5t-8.5 18.5q0 6 3 13
t9.5 15.5t11 14.5t12.5 14t9 10zM23 182q121 141 178 221q-25 57 -57 120t-42 85q-22 44 -22 68q0 12 8.5 21.5t22.5 9.5q18 0 34 -23q60 -84 142 -190q6 -8 16 -20.5t17 -21.5t14.5 -19t11.5 -17.5t4 -12.5q0 -20 -47 -59q-91 -78 -244 -223q-36 -33 -55 -33q-9 0 -18 8.5
t-9 18.5q0 7 6 17.5t12 17.5t16.5 19t11.5 13z" />
    <glyph glyph-name="onequarter" unicode="&#xbc;" horiz-adv-x="1556" 
d="M231 12l1084 1270q13 14 20 15.5t27 -11.5q24 -18 25 -29.5t-17 -29.5l-1087 -1274q-17 -18 -26 -18.5t-32 14.5q-18 15 -16 26.5t22 36.5zM340 475q-81 0 -180 -6q-22 0 -10 39q5 14 10 20t16 7l68 6q19 1 26.5 11.5t14.5 37.5l106 395q9 34 10.5 51t-1.5 21t-11 4
q-5 0 -57 -25l-47 -24q-12 -10 -27 16q-20 29 4 43q17 11 95 58.5t126 78.5q35 25 64 25t24 -27q0 -2 -10.5 -36t-29.5 -104t-42 -159l-83 -325q-3 -9 -3 -17q0 -21 29 -24l86 -6q21 0 12 -27q-12 -39 -28 -39q-93 6 -162 6zM1323 707l-104 -414h102q12 0 15.5 -3t0.5 -14
l-12 -45q-3 -10 -7 -12t-15 -2h-103l-51 -205q-3 -11 -9.5 -14.5t-21.5 -3.5h-74q-18 0 -18 8q0 2 1 5.5t1 4.5l51 205h-264q-37 0 -37 23q0 15 27 45l360 366q62 62 89 84.5t46 22.5q11 0 19 -8.5t8 -16.5q0 -10 -4 -26zM1100 293l65 256q6 12 6 24l-270 -280h199z" />
    <glyph glyph-name="onehalf" unicode="&#xbd;" horiz-adv-x="1556" 
d="M178 12l1084 1270q13 14 20 15.5t27 -11.5q24 -18 25 -29.5t-17 -29.5l-1088 -1274q-17 -18 -25.5 -18.5t-31.5 14.5q-18 15 -16 26.5t22 36.5zM303 475q-81 0 -180 -6q-22 0 -10 39q5 14 10 20t16 7l68 6q19 1 26.5 11.5t14.5 37.5l106 395q9 34 10.5 51t-1.5 21t-11 4
q-5 0 -57 -25l-47 -24q-12 -10 -27 16q-20 29 4 43q17 11 95 58.5t126 78.5q35 25 64 25q30 0 25 -27q0 -2 -10.5 -36t-29.5 -104t-42 -159l-84 -325q-2 -6 -2 -17q0 -21 28 -24l86 -6q22 0 13 -27q-12 -39 -29 -39q-93 6 -162 6zM1169 758q83 0 142 -51t59 -140
q0 -66 -35.5 -126t-107.5 -130q-42 -42 -81 -74t-101 -77t-87 -64h148q40 0 59 3t26.5 8t22.5 20t39 47q11 16 33 16q11 0 17.5 -8t1.5 -22q-13 -27 -37 -83t-39 -85q-11 -23 -31 -23q-15 0 -20 17q-3 14 -50 14h-313q-21 0 -29 4t-8 16q0 16 27 39q13 10 93.5 67t133 101.5
t94.5 94.5q55 67 80 113t25 104t-28.5 89t-78.5 31q-42 0 -69.5 -17.5t-65.5 -61.5q-18 -21 -37 -21q-22 0 -27 17t5 34q83 148 239 148z" />
    <glyph glyph-name="threequarters" unicode="&#xbe;" horiz-adv-x="1556" 
d="M246 12l1083 1270q13 14 20 15.5t27 -11.5q24 -18 25 -29.5t-17 -29.5l-1087 -1274q-17 -18 -25.5 -18.5t-31.5 14.5q-18 15 -16 26.5t22 36.5zM512 1233q69 0 111.5 -37t42.5 -100q0 -29 -10 -55.5t-22 -44.5t-39.5 -41.5t-44 -35.5t-54.5 -38q122 -79 122 -181
q0 -120 -98 -188q-73 -53 -192 -53q-80 0 -133.5 39t-53.5 75q0 26 15.5 44t40.5 18q21 0 33.5 -11.5t21.5 -41.5q9 -29 33 -46.5t55 -17.5q33 0 54.5 7.5t47.5 33.5q41 44 41 111q0 56 -34.5 100.5t-81.5 65.5q-9 4 -9 14q0 11 17 22q30 20 50 34.5t48.5 40t43.5 53.5
t15 57q0 39 -21 63.5t-56 24.5q-36 0 -57.5 -11.5t-53.5 -46.5q-24 -24 -37 -24t-22 7.5t-9 16.5q0 5 5 15q31 60 92 95.5t139 35.5zM1323 707l-104 -414h102q12 0 15.5 -3t0.5 -14l-12 -45q-3 -10 -7 -12t-15 -2h-103l-51 -205q-3 -11 -9.5 -14.5t-21.5 -3.5h-74
q-18 0 -18 8q0 2 1 5.5t1 4.5l51 205h-264q-37 0 -37 23q0 15 27 45l360 366q62 62 89 84.5t46 22.5q11 0 19 -8.5t8 -16.5q0 -10 -4 -26zM1100 293l65 256q6 12 6 24l-270 -280h199z" />
    <glyph glyph-name="questiondown" unicode="&#xbf;" horiz-adv-x="817" 
d="M436 625q-39 0 -62.5 28t-23.5 66q0 49 30.5 85t80.5 36q34 0 60 -25t26 -76q0 -47 -31.5 -80.5t-79.5 -33.5zM342 455q-29 0 -58 -14.5t-48 -32t-40 -32.5t-36 -16q-13 0 -23 10.5t-10 24.5q0 36 79.5 92t153.5 56q79 0 129 -39t50 -123q0 -30 -12 -60t-26 -51
t-48 -52.5t-54 -47.5t-67 -53q-22 -18 -63 -49t-60.5 -46.5t-50 -41t-45 -43t-31 -40.5t-23 -45.5t-6.5 -46.5q0 -89 49 -148.5t138 -59.5q72 0 132 47.5t60 117.5q0 93 -70 93q-26 0 -42.5 -16.5t-16.5 -47.5t-17.5 -50.5t-47.5 -19.5q-33 0 -54.5 20t-21.5 46
q0 67 54.5 121.5t131.5 54.5q76 0 127 -49.5t51 -130.5q0 -115 -88.5 -195t-216.5 -80q-134 0 -217.5 83t-83.5 202q0 39 8 74t27 67.5t36 56.5t51 55.5t54 48.5t64 51.5t63 50.5q134 111 158.5 139.5t24.5 50.5q0 31 -17.5 49.5t-46.5 18.5z" />
    <glyph glyph-name="Agrave" unicode="&#xc0;" horiz-adv-x="1304" 
d="M811 1661q58 18 86 18q30 0 84 -39q134 -101 221 -161q24 -17 19 -34.5t-29 -17.5q-6 0 -12.5 2t-18 8t-18.5 9q-165 72 -355 139q-28 10 -37.5 15.5t-9.5 15.5q0 16 13 24t57 21zM88 2q-117 0 -205 -8q-21 -2 -25.5 4t1.5 37q6 24 13 32t28 11l39 6q49 7 95 45t122 131
l725 877q25 30 40.5 56t27 52.5t12.5 28.5q5 9 13 16t20.5 12t20 7.5t22.5 6t16 3.5q30 10 73 29q58 28 80 28q25 0 25 -35q0 -23 -12 -65l-29 -105q-104 -375 -262 -1007q-9 -39 1 -55.5t50 -20.5l102 -10q21 -1 26 -10.5t-1 -32.5q-7 -29 -15 -36t-28 -5q-88 8 -234 8
q-178 0 -266 -8q-21 -2 -26 4t0 37q6 25 13 33.5t28 9.5l92 10q52 6 69 26.5t33 84.5l90 352h-342q-192 -240 -268 -334q-64 -80 -64 -100q0 -21 48 -29l77 -10q22 -3 26.5 -11.5t-1.5 -31.5q-7 -29 -16 -36t-29 -5q-88 8 -205 8zM582 633h303q90 332 143 504q11 37 -2 37
q-14 0 -41 -37z" />
    <glyph glyph-name="Aacute" unicode="&#xc1;" horiz-adv-x="1304" 
d="M1438 1659q43 -13 56 -20.5t13 -24.5q0 -10 -9.5 -15.5t-37.5 -15.5q-184 -65 -354 -139q-7 -3 -15.5 -7t-13 -6.5t-10 -4t-10.5 -1.5q-24 0 -29 17.5t19 34.5q32 22 107 76.5t122 84.5q4 2 19.5 11.5t24 14t21 9t21.5 4.5q18 0 76 -18zM88 2q-117 0 -205 -8
q-21 -2 -25.5 4t1.5 37q6 24 13 32t28 11l39 6q49 7 95 45t122 131l725 877q25 30 40.5 56t27 52.5t12.5 28.5q5 9 13 16t20.5 12t20 7.5t22.5 6t16 3.5q30 10 73 29q58 28 80 28q25 0 25 -35q0 -23 -12 -65l-29 -105q-104 -375 -262 -1007q-9 -39 1 -55.5t50 -20.5l102 -10
q21 -1 26 -10.5t-1 -32.5q-7 -29 -15 -36t-28 -5q-88 8 -234 8q-178 0 -266 -8q-21 -2 -26 4t0 37q6 25 13 33.5t28 9.5l92 10q52 6 69 26.5t33 84.5l90 352h-342q-192 -240 -268 -334q-64 -80 -64 -100q0 -21 48 -29l77 -10q22 -3 26.5 -11.5t-1.5 -31.5q-7 -29 -16 -36
t-29 -5q-88 8 -205 8zM582 633h303q90 332 143 504q11 37 -2 37q-14 0 -41 -37z" />
    <glyph glyph-name="Acircumflex" unicode="&#xc2;" horiz-adv-x="1304" 
d="M1159 1538l-176 -88q-64 -31 -72 -31q-18 0 -25 16.5t9 28.5q57 43 105 78.5t70 52t36 27.5q71 55 88 55q4 0 8 -1t8 -4.5t6.5 -5.5t7.5 -8.5t7.5 -10t8.5 -12.5t9 -13q9 -14 44.5 -61t66.5 -91q13 -20 6 -35.5t-25 -15.5q-6 0 -18 6.5t-23 14.5t-27.5 20.5t-25.5 18.5z
M88 2q-117 0 -205 -8q-21 -2 -25.5 4t1.5 37q6 24 13 32t28 11l39 6q49 7 95 45t122 131l725 877q25 30 40.5 56t27 52.5t12.5 28.5q5 9 13 16t20.5 12t20 7.5t22.5 6t16 3.5q30 10 73 29q58 28 80 28q25 0 25 -35q0 -23 -12 -65l-29 -105q-104 -375 -262 -1007
q-9 -39 1 -55.5t50 -20.5l102 -10q21 -1 26 -10.5t-1 -32.5q-7 -29 -15 -36t-28 -5q-88 8 -234 8q-178 0 -266 -8q-21 -2 -26 4t0 37q6 25 13 33.5t28 9.5l92 10q52 6 69 26.5t33 84.5l90 352h-342q-192 -240 -268 -334q-64 -80 -64 -100q0 -21 48 -29l77 -10
q22 -3 26.5 -11.5t-1.5 -31.5q-7 -29 -16 -36t-29 -5q-88 8 -205 8zM582 633h303q90 332 143 504q11 37 -2 37q-14 0 -41 -37z" />
    <glyph glyph-name="Atilde" unicode="&#xc3;" horiz-adv-x="1304" 
d="M1239 1479q-51 0 -122 24.5t-118 24.5q-21 0 -34.5 -8.5t-18 -15.5t-8.5 -19q-6 -20 -12.5 -24.5t-26.5 -4.5q-13 0 -16.5 4.5t-3.5 22.5q0 54 35 102.5t108 48.5q52 0 122.5 -24.5t117.5 -24.5q21 0 34.5 8.5t18 15.5t8.5 19q6 19 12.5 23t26.5 4q13 0 16.5 -3.5
t3.5 -21.5q0 -54 -35 -102.5t-108 -48.5zM88 2q-117 0 -205 -8q-21 -2 -25.5 4t1.5 37q6 24 13 32t28 11l39 6q49 7 95 45t122 131l725 877q25 30 40.5 56t27 52.5t12.5 28.5q5 9 13 16t20.5 12t20 7.5t22.5 6t16 3.5q30 10 73 29q58 28 80 28q25 0 25 -35q0 -23 -12 -65
l-29 -105q-104 -375 -262 -1007q-9 -39 1 -55.5t50 -20.5l102 -10q21 -1 26 -10.5t-1 -32.5q-7 -29 -15 -36t-28 -5q-88 8 -234 8q-178 0 -266 -8q-21 -2 -26 4t0 37q6 25 13 33.5t28 9.5l92 10q52 6 69 26.5t33 84.5l90 352h-342q-192 -240 -268 -334q-64 -80 -64 -100
q0 -21 48 -29l77 -10q22 -3 26.5 -11.5t-1.5 -31.5q-7 -29 -16 -36t-29 -5q-88 8 -205 8zM582 633h303q90 332 143 504q11 37 -2 37q-14 0 -41 -37z" />
    <glyph glyph-name="Adieresis" unicode="&#xc4;" horiz-adv-x="1304" 
d="M1247 1536q0 49 29 85t74 36q36 0 60 -25.5t24 -62.5q0 -45 -31 -80t-76 -35q-36 0 -58 23.5t-22 58.5zM922 1536q0 49 29.5 85t74.5 36q36 0 59 -25.5t23 -62.5q0 -45 -31 -80t-73 -35q-38 0 -60 23.5t-22 58.5zM88 2q-117 0 -205 -8q-21 -2 -25.5 4t1.5 37q6 24 13 32
t28 11l39 6q49 7 95 45t122 131l725 877q25 30 40.5 56t27 52.5t12.5 28.5q5 9 13 16t20.5 12t20 7.5t22.5 6t16 3.5q30 10 73 29q58 28 80 28q25 0 25 -35q0 -23 -12 -65l-29 -105q-104 -375 -262 -1007q-9 -39 1 -55.5t50 -20.5l102 -10q21 -1 26 -10.5t-1 -32.5
q-7 -29 -15 -36t-28 -5q-88 8 -234 8q-178 0 -266 -8q-21 -2 -26 4t0 37q6 25 13 33.5t28 9.5l92 10q52 6 69 26.5t33 84.5l90 352h-342q-192 -240 -268 -334q-64 -80 -64 -100q0 -21 48 -29l77 -10q22 -3 26.5 -11.5t-1.5 -31.5q-7 -29 -16 -36t-29 -5q-88 8 -205 8z
M582 633h303q90 332 143 504q11 37 -2 37q-14 0 -41 -37z" />
    <glyph glyph-name="Aring" unicode="&#xc5;" horiz-adv-x="1306" 
d="M88 2q-117 0 -205 -8q-21 -2 -25.5 4t1.5 37q6 24 13 32t28 11l39 6q49 7 95 45t122 131l725 877q78 96 157 215q-51 47 -51 118q0 76 62.5 131.5t140.5 55.5q70 0 111.5 -43t41.5 -105q0 -64 -36.5 -107t-77.5 -56q-4 -16 -21 -85t-22 -90l-258 -1007q-9 -39 1 -55.5
t50 -20.5l102 -10q21 -1 26 -10.5t-1 -32.5q-7 -29 -15 -36t-28 -5q-88 8 -234 8q-178 0 -266 -8q-21 -2 -26 4t0 37q6 25 13 33.5t28 9.5l92 10q52 6 69 26.5t33 84.5l90 352h-342q-192 -242 -268 -334q-64 -75 -64 -102q0 -22 52 -27l73 -10q22 -3 26.5 -11.5t-1.5 -31.5
q-7 -29 -16 -36t-29 -5q-88 8 -205 8zM1073 1475q0 -33 21 -55.5t55 -22.5q43 0 75.5 31.5t32.5 80.5q0 33 -20 55.5t-53 22.5q-43 0 -77 -31.5t-34 -80.5zM582 633h303q90 332 143 504q11 37 -2 37t-43 -41q-109 -133 -209.5 -258t-145.5 -183z" />
    <glyph glyph-name="AE" unicode="&#xc6;" horiz-adv-x="1873" 
d="M88 2q-117 0 -205 -8q-21 -2 -25.5 4t1.5 37q6 24 13 32t28 11l39 6q49 7 95 45t122 131l725 877q51 64 51 94q0 8 -11 11.5t-45 9.5q-6 1 -10 1.5t-10 1.5l-12 2q-22 3 -26.5 11.5t1.5 31.5q7 28 15.5 34.5t29.5 6.5q198 -6 256 -6q450 0 625 6q21 0 27 -10.5t8 -40.5
q2 -35 15 -117t17 -126q2 -19 -5.5 -27.5t-32.5 -11.5q-14 -2 -24 9.5t-24 51.5q-21 55 -55.5 98.5t-75.5 63.5q-63 29 -188 29h-195l-149 -568h172q104 0 142.5 13.5t60.5 64.5l41 100q11 25 21 34t28 9q27 0 35 -6t2 -26q-61 -214 -68 -242q-4 -22 -12 -57.5t-19.5 -85.5
t-19.5 -84q-3 -18 -9.5 -24.5t-23.5 -6.5q-41 0 -41 43l4 108q1 46 -37 60t-145 14h-156l-82 -342q-28 -114 -28 -131q0 -39 27.5 -50t123.5 -11h174q69 0 111.5 2t94 13.5t79.5 33.5q57 40 141 186q3 4 7.5 12.5t6.5 11t5.5 7.5t5.5 6.5t6 3.5t7.5 2h8.5t11 -2
q22 -5 27 -15t-7 -44q-60 -137 -88 -252q-6 -25 -16.5 -35t-34.5 -10q-162 0 -465.5 4t-321.5 4q-157 0 -245 -8q-21 -2 -26 4t1 37q6 25 13 33.5t28 11.5l92 10q33 4 46 21.5t26 66.5l111 430h-314q-235 -295 -311 -389q-64 -81 -64 -102q0 -10 13.5 -17.5t31.5 -9.5
l80 -10q22 -3 26.5 -11.5t-1.5 -31.5q-7 -29 -16 -36t-29 -5q-88 8 -205 8zM629 692h272l127 445q11 37 -2 37q-14 0 -41 -37z" />
    <glyph glyph-name="Ccedilla" unicode="&#xc7;" horiz-adv-x="1269" 
d="M590 51q141 0 246.5 94.5t177.5 247.5q7 16 14.5 19.5t26.5 3.5q22 0 26.5 -9t-2.5 -34q-30 -110 -73 -324q-3 -20 -9 -27.5t-22 -7.5t-24.5 9t-18.5 34l-14 33q-129 -100 -291 -121l-76 -80q78 -26 110.5 -62.5t32.5 -96.5q0 -89 -71.5 -149t-176.5 -60q-118 0 -118 61
q0 23 15 38t34 15q27 0 53 -26q23 -23 64 -23q36 0 70 31.5t34 71.5q0 89 -158 110q-13 1 -17.5 13.5t3.5 21.5l119 131q-216 12 -339.5 164.5t-123.5 390.5q0 175 53 331t146 270t227 180.5t289 66.5q200 0 338 -147l36 59q8 11 12 16t12.5 9t21.5 4q37 0 26 -35
q-29 -109 -72 -326q-4 -20 -10.5 -25t-25.5 -5q-20 0 -26 7t-9 27q-10 70 -31.5 127t-57 104.5t-91.5 74t-127 26.5q-139 0 -262 -109.5t-195 -286t-72 -368.5q0 -129 40 -235.5t115 -170t171 -63.5z" />
    <glyph glyph-name="Egrave" unicode="&#xc8;" horiz-adv-x="1247" 
d="M571 1663q58 18 76 18q9 0 21.5 -4.5t21 -9t24 -14t19.5 -11.5q47 -30 123 -85t107 -76q24 -17 18.5 -34t-29.5 -17q-8 0 -49 18q-170 74 -354 139q-28 10 -37.5 15.5t-9.5 15.5q0 17 13 24.5t56 20.5zM199 0q-158 0 -246 -8q-21 -2 -26 4t1 37q6 25 13 33.5t28 11.5
l92 10q33 4 46 21.5t26 66.5l252 983q15 54 8 70.5t-51 19.5l-119 8q-21 1 -26 10.5t2 32.5q7 28 15.5 34.5t29.5 6.5q198 -6 243 -6q450 0 625 6q21 0 27 -10.5t8 -40.5q2 -34 15.5 -116.5t17.5 -126.5q2 -18 -6 -27t-33 -12q-14 -2 -23.5 9.5t-23.5 51.5
q-21 55 -55.5 98.5t-75.5 63.5q-63 29 -189 29h-196l-134 -533h172q104 0 142.5 13.5t60.5 64.5l37 80q11 25 21 34t28 9q27 0 35 -6.5t2 -26.5q-61 -213 -63 -221q-6 -28 -25 -109.5t-27 -118.5q-3 -18 -9 -24t-23 -6q-41 0 -41 43l4 108q1 46 -37.5 60t-145.5 14h-155
l-96 -377q-4 -15 -10.5 -39.5t-9.5 -38t-6 -28.5t-3 -25q0 -39 27.5 -50t123.5 -11h175q69 0 111.5 2t93.5 13.5t79 33.5q59 42 142 186l7.5 12.5t6.5 10.5t5.5 8t5.5 6.5t5.5 3.5t7 2h8.5t11 -2q22 -5 27 -15t-7 -44q-60 -137 -88 -252q-6 -25 -16.5 -35t-34.5 -10
q-162 0 -465 4t-321 4z" />
    <glyph glyph-name="Eacute" unicode="&#xc9;" horiz-adv-x="1247" 
d="M1022 1659q44 -13 57 -21t13 -24q0 -10 -9.5 -15.5t-38.5 -15.5q-184 -65 -354 -139q-7 -3 -15.5 -7t-13 -6.5t-10 -4t-10.5 -1.5q-24 0 -29 17.5t19 34.5q47 32 122.5 86t106.5 75q4 2 19.5 11.5t24 14t21 9t21.5 4.5q18 0 76 -18zM199 0q-158 0 -246 -8q-21 -2 -26 4
t1 37q6 25 13 33.5t28 11.5l92 10q33 4 46 21.5t26 66.5l252 983q15 54 8 70.5t-51 19.5l-119 8q-21 1 -26 10.5t2 32.5q7 28 15.5 34.5t29.5 6.5q198 -6 243 -6q450 0 625 6q21 0 27 -10.5t8 -40.5q2 -34 15.5 -116.5t17.5 -126.5q2 -18 -6 -27t-33 -12q-14 -2 -23.5 9.5
t-23.5 51.5q-21 55 -55.5 98.5t-75.5 63.5q-63 29 -189 29h-196l-134 -533h172q104 0 142.5 13.5t60.5 64.5l37 80q11 25 21 34t28 9q27 0 35 -6.5t2 -26.5q-61 -213 -63 -221q-6 -28 -25 -109.5t-27 -118.5q-3 -18 -9 -24t-23 -6q-41 0 -41 43l4 108q1 46 -37.5 60
t-145.5 14h-155l-96 -377q-4 -15 -10.5 -39.5t-9.5 -38t-6 -28.5t-3 -25q0 -39 27.5 -50t123.5 -11h175q69 0 111.5 2t93.5 13.5t79 33.5q59 42 142 186l7.5 12.5t6.5 10.5t5.5 8t5.5 6.5t5.5 3.5t7 2h8.5t11 -2q22 -5 27 -15t-7 -44q-60 -137 -88 -252q-6 -25 -16.5 -35
t-34.5 -10q-162 0 -465 4t-321 4z" />
    <glyph glyph-name="Ecircumflex" unicode="&#xca;" horiz-adv-x="1247" 
d="M858 1538l-176 -88q-64 -31 -72 -31q-18 0 -25 16.5t9 28.5q57 43 105 78.5t70 52t36 27.5q71 55 88 55q4 0 8 -1t8 -4.5t6.5 -5.5t7.5 -8.5t7.5 -10t8.5 -12.5t9 -13q9 -14 44.5 -61t66.5 -91q13 -20 6 -35.5t-25 -15.5q-6 0 -18 6.5t-23 14.5t-27.5 20.5t-25.5 18.5z
M199 0q-158 0 -246 -8q-21 -2 -26 4t1 37q6 25 13 33.5t28 11.5l92 10q33 4 46 21.5t26 66.5l252 983q15 54 8 70.5t-51 19.5l-119 8q-21 1 -26 10.5t2 32.5q7 28 15.5 34.5t29.5 6.5q198 -6 243 -6q450 0 625 6q21 0 27 -10.5t8 -40.5q2 -34 15.5 -116.5t17.5 -126.5
q2 -18 -6 -27t-33 -12q-14 -2 -23.5 9.5t-23.5 51.5q-21 55 -55.5 98.5t-75.5 63.5q-63 29 -189 29h-196l-134 -533h172q104 0 142.5 13.5t60.5 64.5l37 80q11 25 21 34t28 9q27 0 35 -6.5t2 -26.5q-61 -213 -63 -221q-6 -28 -25 -109.5t-27 -118.5q-3 -18 -9 -24t-23 -6
q-41 0 -41 43l4 108q1 46 -37.5 60t-145.5 14h-155l-96 -377q-4 -15 -10.5 -39.5t-9.5 -38t-6 -28.5t-3 -25q0 -39 27.5 -50t123.5 -11h175q69 0 111.5 2t93.5 13.5t79 33.5q59 42 142 186l7.5 12.5t6.5 10.5t5.5 8t5.5 6.5t5.5 3.5t7 2h8.5t11 -2q22 -5 27 -15t-7 -44
q-60 -137 -88 -252q-6 -25 -16.5 -35t-34.5 -10q-162 0 -465 4t-321 4z" />
    <glyph glyph-name="Edieresis" unicode="&#xcb;" horiz-adv-x="1247" 
d="M901 1536q0 49 30 85t75 36q36 0 60 -25.5t24 -62.5q0 -45 -32.5 -80t-74.5 -35q-38 0 -60 23.5t-22 58.5zM530 1536q0 49 30 85t75 36q36 0 60 -25.5t24 -62.5q0 -45 -32.5 -80t-74.5 -35q-38 0 -60 23.5t-22 58.5zM199 0q-158 0 -246 -8q-21 -2 -26 4t1 37
q6 25 13 33.5t28 11.5l92 10q33 4 46 21.5t26 66.5l252 983q15 54 8 70.5t-51 19.5l-119 8q-21 1 -26 10.5t2 32.5q7 28 15.5 34.5t29.5 6.5q198 -6 243 -6q450 0 625 6q21 0 27 -10.5t8 -40.5q2 -34 15.5 -116.5t17.5 -126.5q2 -18 -6 -27t-33 -12q-14 -2 -23.5 9.5
t-23.5 51.5q-21 55 -55.5 98.5t-75.5 63.5q-63 29 -189 29h-196l-134 -533h172q104 0 142.5 13.5t60.5 64.5l37 80q11 25 21 34t28 9q27 0 35 -6.5t2 -26.5q-61 -213 -63 -221q-6 -28 -25 -109.5t-27 -118.5q-3 -18 -9 -24t-23 -6q-41 0 -41 43l4 108q1 46 -37.5 60
t-145.5 14h-155l-96 -377q-4 -15 -10.5 -39.5t-9.5 -38t-6 -28.5t-3 -25q0 -39 27.5 -50t123.5 -11h175q69 0 111.5 2t93.5 13.5t79 33.5q59 42 142 186l7.5 12.5t6.5 10.5t5.5 8t5.5 6.5t5.5 3.5t7 2h8.5t11 -2q22 -5 27 -15t-7 -44q-60 -137 -88 -252q-6 -25 -16.5 -35
t-34.5 -10q-162 0 -465 4t-321 4z" />
    <glyph glyph-name="Igrave" unicode="&#xcc;" horiz-adv-x="684" 
d="M231 1661q58 18 76 18q9 0 21.5 -4.5t21 -9t24 -14t19.5 -11.5q47 -30 123 -85t107 -76q24 -17 18.5 -34.5t-29.5 -17.5q-6 0 -12.5 2t-18 8t-18.5 9q-170 74 -354 139q-28 10 -37.5 15.5t-9.5 15.5q0 17 13 24.5t56 20.5zM199 2q-150 0 -238 -8q-21 -2 -25.5 4t1.5 37
q6 25 12.5 32.5t27.5 10.5l74 10q35 4 52.5 24t29.5 66l252 979q15 54 8 70t-51 20l-100 10q-21 1 -26 10.5t1 32.5q7 29 16 36t29 5q66 -6 225 -6q172 0 238 6q21 2 27.5 -5t-0.5 -36q-6 -25 -13 -33.5t-28 -9.5l-84 -10q-33 -3 -47 -20t-27 -70l-252 -979
q-15 -47 -9.5 -67t44.5 -23l106 -10q22 -2 27 -10t-2 -33q-9 -29 -17 -36t-28 -5q-88 8 -223 8z" />
    <glyph glyph-name="Iacute" unicode="&#xcd;" horiz-adv-x="684" 
d="M850 1659q44 -13 57 -21t13 -24q0 -10 -9.5 -15.5t-38.5 -15.5q-184 -65 -354 -139q-7 -3 -15.5 -7t-13 -6.5t-10 -4t-10.5 -1.5q-24 0 -29 17.5t19 34.5q47 32 122.5 86t106.5 75q4 2 19.5 11.5t24 14t21 9t21.5 4.5q18 0 76 -18zM199 2q-150 0 -238 -8q-21 -2 -25.5 4
t1.5 37q6 25 12.5 32.5t27.5 10.5l74 10q35 4 52.5 24t29.5 66l252 979q15 54 8 70t-51 20l-100 10q-21 1 -26 10.5t1 32.5q7 29 16 36t29 5q66 -6 225 -6q172 0 238 6q21 2 27.5 -5t-0.5 -36q-6 -25 -13 -33.5t-28 -9.5l-84 -10q-33 -3 -47 -20t-27 -70l-252 -979
q-15 -47 -9.5 -67t44.5 -23l106 -10q22 -2 27 -10t-2 -33q-9 -29 -17 -36t-28 -5q-88 8 -223 8z" />
    <glyph glyph-name="Icircumflex" unicode="&#xce;" horiz-adv-x="684" 
d="M545 1538l-176 -88q-64 -31 -72 -31q-18 0 -25 16.5t9 28.5q57 43 105 78.5t70 52t36 27.5q71 55 88 55q4 0 8 -1t8 -4.5t6.5 -5.5t7.5 -8.5t7.5 -10t8.5 -12.5t9 -13q9 -14 44.5 -62t65.5 -90q13 -20 6.5 -35.5t-24.5 -15.5q-6 0 -18 6.5t-23 14.5t-27.5 20.5
t-25.5 18.5zM199 2q-150 0 -238 -8q-21 -2 -25.5 4t1.5 37q6 25 12.5 32.5t27.5 10.5l74 10q35 4 52.5 24t29.5 66l252 979q15 54 8 70t-51 20l-100 10q-21 1 -26 10.5t1 32.5q7 29 16 36t29 5q66 -6 225 -6q172 0 238 6q21 2 27.5 -5t-0.5 -36q-6 -25 -13 -33.5t-28 -9.5
l-84 -10q-33 -3 -47 -20t-27 -70l-252 -979q-15 -47 -9.5 -67t44.5 -23l106 -10q22 -2 27 -10t-2 -33q-9 -29 -17 -36t-28 -5q-88 8 -223 8z" />
    <glyph glyph-name="Idieresis" unicode="&#xcf;" horiz-adv-x="684" 
d="M614 1536q0 49 30 85t75 36q36 0 60 -25.5t24 -62.5q0 -45 -32.5 -80t-74.5 -35q-38 0 -60 23.5t-22 58.5zM260 1536q0 49 30 85t75 36q36 0 60 -25.5t24 -62.5q0 -45 -32.5 -80t-74.5 -35q-38 0 -60 23.5t-22 58.5zM199 2q-150 0 -238 -8q-21 -2 -25.5 4t1.5 37
q6 25 12.5 32.5t27.5 10.5l74 10q35 4 52.5 24t29.5 66l252 979q15 54 8 70t-51 20l-100 10q-21 1 -26 10.5t1 32.5q7 29 16 36t29 5q66 -6 225 -6q172 0 238 6q21 2 27.5 -5t-0.5 -36q-6 -25 -13 -33.5t-28 -9.5l-84 -10q-33 -3 -47 -20t-27 -70l-252 -979
q-15 -47 -9.5 -67t44.5 -23l106 -10q22 -2 27 -10t-2 -33q-9 -29 -17 -36t-28 -5q-88 8 -223 8z" />
    <glyph glyph-name="Eth" unicode="&#xd0;" horiz-adv-x="1390" 
d="M279 725l98 432q13 46 4 70.5t-49 25.5l-123 4q-21 0 -26 9t1 32q7 29 15.5 36t29.5 7q203 -4 416 -4q355 0 512 -157q156 -156 156 -379q0 -353 -217 -570q-51 -51 -108.5 -88t-145.5 -72t-217 -53t-293 -18q-131 0 -352 -6q-21 0 -26.5 6.5t1.5 34.5q8 23 17 32.5
t28 10.5l72 8q31 3 47 18.5t26 59.5l113 473h-164q-26 0 -26 35q0 13 6 26t12 20t8 7h185zM422 637l-109 -451q-6 -20 -8 -28t-3.5 -21.5t1 -18t8.5 -12.5t17 -10t28.5 -5.5t40.5 -4t56 -0.5q197 0 352 92t240 251.5t85 356.5q0 214 -122 339.5t-320 125.5q-122 0 -131 -39
l-115 -487h254q11 0 18 -7.5t7 -17.5q0 -28 -10 -53q-5 -10 -19 -10h-270z" />
    <glyph glyph-name="Ntilde" unicode="&#xd1;" horiz-adv-x="1456" 
d="M1053 1481q-51 0 -126 23.5t-122 23.5q-48 0 -64 -43q-6 -20 -12.5 -24.5t-26.5 -4.5q-13 0 -16.5 4.5t-3.5 22.5q0 54 35 101.5t108 47.5q52 0 126.5 -23.5t121.5 -23.5q48 0 64 43q6 19 12.5 23t26.5 4q13 0 16.5 -3.5t3.5 -21.5q0 -54 -35 -101.5t-108 -47.5zM139 0
q-115 0 -178 -6h-10q-19 0 -19 16l5 25q6 25 12.5 32.5t27.5 10.5l60 8q27 3 40.5 14.5t31 55t41.5 137.5l223 864q6 27 6 45q0 24 -15 33t-51 12l-98 10q-31 3 -31 23q0 4 4 20q7 24 16.5 32.5t24.5 8.5h11q99 -6 305 -6q37 0 53 -16q7 -7 12 -20t13 -39t18 -50l307 -747
q69 -169 76 -176q2 -2 4 -2q4 0 35 125l100 401q86 341 86 387q0 25 -12.5 35.5t-42.5 13.5l-98 10q-29 3 -29 21q0 6 4 22q6 25 13.5 33t21.5 8h10q66 -6 211 -6t211 6h12q21 0 21 -18q0 -7 -4 -23q-6 -24 -15 -33t-30 -10l-58 -6q-40 -3 -61.5 -23.5t-45.5 -87t-63 -220.5
l-211 -834q-17 -73 -29 -99t-36 -26q-27 0 -46.5 31.5t-62.5 136.5l-397 952q-23 60 -35 60q-9 0 -21 -47q-2 -9 -3 -13l-117 -463q-29 -113 -96 -407q-13 -60 -13 -82t8.5 -30.5t30.5 -10.5l96 -10q29 -3 29 -21q0 -6 -4 -22q-6 -25 -13.5 -33t-21.5 -8h-10q-66 6 -203 6z
" />
    <glyph glyph-name="Ograve" unicode="&#xd2;" horiz-adv-x="1361" 
d="M518 1665q58 18 76 18q7 0 15.5 -2.5t19 -7.5t17.5 -8.5t18.5 -10.5t15.5 -9q47 -29 121 -84t108 -78q24 -17 19 -34t-29 -17q-8 0 -49 18q-170 74 -354 139q-28 10 -37.5 15.5t-9.5 15.5q0 17 13 24.5t56 20.5zM569 -35q-144 0 -256.5 76.5t-172.5 206.5t-60 289
q0 178 86 378q94 212 267.5 333.5t359.5 121.5q144 0 256.5 -76t172.5 -206t60 -289q0 -179 -86 -379q-94 -212 -267.5 -333.5t-359.5 -121.5zM555 51q139 0 275 129t210 342q64 186 64 367q0 70 -18.5 138t-54 126.5t-94 94.5t-130.5 36q-139 0 -275 -129t-210 -342
q-64 -186 -64 -367q0 -70 18.5 -138t54 -126.5t94 -94.5t130.5 -36z" />
    <glyph glyph-name="Oacute" unicode="&#xd3;" horiz-adv-x="1361" 
d="M1186 1661q43 -13 56 -20.5t13 -24.5q0 -10 -9.5 -15.5t-37.5 -15.5q-184 -65 -354 -139q-7 -3 -15.5 -7t-13 -6.5t-10 -4t-10.5 -1.5q-24 0 -29 17.5t19 34.5q32 22 107 76.5t122 84.5q4 2 19.5 11.5t24 14t21 9t21.5 4.5q18 0 76 -18zM569 -35q-144 0 -256.5 76.5
t-172.5 206.5t-60 289q0 178 86 378q94 212 267.5 333.5t359.5 121.5q144 0 256.5 -76t172.5 -206t60 -289q0 -179 -86 -379q-94 -212 -267.5 -333.5t-359.5 -121.5zM555 51q139 0 275 129t210 342q64 186 64 367q0 70 -18.5 138t-54 126.5t-94 94.5t-130.5 36
q-139 0 -275 -129t-210 -342q-64 -186 -64 -367q0 -70 18.5 -138t54 -126.5t94 -94.5t130.5 -36z" />
    <glyph glyph-name="Ocircumflex" unicode="&#xd4;" horiz-adv-x="1361" 
d="M838 1538l-176 -88q-64 -31 -72 -31q-18 0 -25.5 16.5t8.5 28.5q57 43 105 78.5t70 52t36 27.5q71 55 88 55q3 0 6 -0.5t5.5 -1.5t5.5 -3.5t5 -4t5 -5.5t5 -6.5t5.5 -7.5t5.5 -7.5t6.5 -9t6.5 -9.5q9 -14 44.5 -62t65.5 -90q13 -20 6.5 -35.5t-24.5 -15.5q-6 0 -18 6.5
t-23 14.5t-27.5 20.5t-25.5 18.5zM569 -35q-144 0 -256.5 76.5t-172.5 206.5t-60 289q0 178 86 378q94 212 267.5 333.5t359.5 121.5q144 0 256.5 -76t172.5 -206t60 -289q0 -179 -86 -379q-94 -212 -267.5 -333.5t-359.5 -121.5zM555 51q139 0 275 129t210 342
q64 186 64 367q0 70 -18.5 138t-54 126.5t-94 94.5t-130.5 36q-139 0 -275 -129t-210 -342q-64 -186 -64 -367q0 -70 18.5 -138t54 -126.5t94 -94.5t130.5 -36z" />
    <glyph glyph-name="Otilde" unicode="&#xd5;" horiz-adv-x="1361" 
d="M942 1477q-50 0 -125 23.5t-123 23.5q-47 0 -63 -43q-6 -20 -12.5 -24.5t-26.5 -4.5q-13 0 -17 4.5t-4 22.5q0 54 35.5 101.5t108.5 47.5q52 0 126.5 -23.5t121.5 -23.5t63 43q6 19 12.5 23t26.5 4q13 0 16.5 -3.5t3.5 -21.5q0 -54 -35 -101.5t-108 -47.5zM569 -35
q-144 0 -256.5 76.5t-172.5 206.5t-60 289q0 178 86 378q94 212 267.5 333.5t359.5 121.5q144 0 256.5 -76t172.5 -206t60 -289q0 -179 -86 -379q-94 -212 -267.5 -333.5t-359.5 -121.5zM555 51q139 0 275 129t210 342q64 186 64 367q0 70 -18.5 138t-54 126.5t-94 94.5
t-130.5 36q-139 0 -275 -129t-210 -342q-64 -186 -64 -367q0 -70 18.5 -138t54 -126.5t94 -94.5t130.5 -36z" />
    <glyph glyph-name="Odieresis" unicode="&#xd6;" horiz-adv-x="1361" 
d="M569 -35q-144 0 -256.5 76.5t-172.5 206.5t-60 289q0 178 86 378q94 212 267.5 333.5t359.5 121.5q144 0 256.5 -76t172.5 -206t60 -289q0 -179 -86 -379q-94 -212 -267.5 -333.5t-359.5 -121.5zM555 51q139 0 275 129t210 342q64 186 64 367q0 70 -18.5 138t-54 126.5
t-94 94.5t-130.5 36q-139 0 -275 -129t-210 -342q-64 -186 -64 -367q0 -70 18.5 -138t54 -126.5t94 -94.5t130.5 -36zM936 1536q0 49 29.5 85t74.5 36q36 0 60 -25.5t24 -62.5q0 -45 -32 -80t-74 -35q-38 0 -60 23.5t-22 58.5zM537 1536q0 49 29.5 85t74.5 36q36 0 60 -25.5
t24 -62.5q0 -45 -32.5 -80t-74.5 -35q-38 0 -59.5 23.5t-21.5 58.5z" />
    <glyph glyph-name="multiply" unicode="&#xd7;" 
d="M489 543l-258 -256q-27 -27 -38 -27t-21 10l-29 27q-12 12 -12 22q0 13 29 39l256 258l-258 258q-27 27 -27 41q0 10 12 25l25 25q12 12 25 12q7 0 36 -29l260 -260l265 264q24 27 39 27q11 0 24 -10l29 -29q6 -9 6 -16q0 -19 -29 -45l-262 -263l258 -258q29 -29 29 -39
q0 -9 -6 -18l-31 -31q-15 -12 -25 -12q-3 0 -6.5 1.5t-8 4.5t-7.5 5.5t-9 8.5t-10 9z" />
    <glyph glyph-name="Oslash" unicode="&#xd8;" horiz-adv-x="1361" 
d="M578 -35q-145 0 -261 76l-90 -137q-3 -6 -10 -6q-16 0 -44 19t-28 32q0 5 5 10l92 141q-76 79 -119 194t-43 243q0 174 88 378q63 142 166 246.5t223 156.5t244 52q133 0 248 -76l104 144q2 4 12 4q16 0 40 -20t24 -36q0 -6 -6 -14l-97 -143q76 -77 116 -188.5t40 -241.5
q0 -175 -88 -379q-95 -213 -263 -334t-353 -121zM319 203l670 1001q-80 80 -176 80q-144 0 -280 -130.5t-209 -344.5q-34 -98 -49 -176t-15 -180q0 -61 15.5 -130.5t43.5 -119.5zM1051 1120l-670 -995q32 -35 82.5 -53.5t101.5 -18.5q138 0 271 130.5t206 344.5
q32 94 46 172t14 183q0 141 -51 237z" />
    <glyph glyph-name="Ugrave" unicode="&#xd9;" horiz-adv-x="1411" 
d="M557 1661q58 18 76 18q25 0 86 -39q45 -29 119.5 -83t109.5 -78q24 -17 19 -34.5t-29 -17.5q-6 0 -12.5 2t-18 8t-18.5 9q-170 74 -354 139q-29 10 -38.5 15.5t-9.5 15.5q0 16 13 24t57 21zM588 -41q-205 0 -309.5 87.5t-104.5 254.5q0 103 62 338l133 494q18 64 12.5 87
t-43.5 27l-115 10q-21 3 -25.5 11.5t1.5 31.5q7 29 15 36t28 5q66 -6 245 -6q170 0 236 6q21 2 27.5 -5t-0.5 -36q-6 -24 -13 -32t-28 -11l-88 -10q-37 -4 -51.5 -20t-26.5 -64l-131 -487q-72 -272 -72 -346q0 -124 74 -195.5t211 -71.5q89 0 147 27t107 74q56 61 93 139.5
t91 276.5l111 405q32 129 38 164q8 51 -6.5 73t-48.5 25l-94 10q-22 3 -26.5 11.5t1.5 31.5q7 29 16 36t29 5q66 -6 209 -6q126 0 189 6q21 2 25.5 -4t-1.5 -37q-6 -24 -13 -32t-28 -11l-53 -8q-33 -4 -50.5 -31t-31.5 -79l-129 -480q-70 -260 -120.5 -374t-127.5 -191
q-65 -65 -150 -100t-214 -35z" />
    <glyph glyph-name="Uacute" unicode="&#xda;" horiz-adv-x="1411" 
d="M1262 1659q43 -13 56 -20.5t13 -24.5q0 -10 -9.5 -15.5t-37.5 -15.5q-184 -65 -354 -139q-7 -3 -15.5 -7t-13 -6.5t-10 -4t-10.5 -1.5q-24 0 -29.5 17.5t18.5 34.5q31 21 107 76t123 85q4 2 19.5 11.5t24 14t21 9t21.5 4.5q18 0 76 -18zM588 -41q-205 0 -309.5 87.5
t-104.5 254.5q0 103 62 338l133 494q18 64 12.5 87t-43.5 27l-115 10q-21 3 -25.5 11.5t1.5 31.5q7 29 15 36t28 5q66 -6 245 -6q170 0 236 6q21 2 27.5 -5t-0.5 -36q-6 -24 -13 -32t-28 -11l-88 -10q-37 -4 -51.5 -20t-26.5 -64l-131 -487q-72 -272 -72 -346
q0 -124 74 -195.5t211 -71.5q89 0 147 27t107 74q56 61 93 139.5t91 276.5l111 405q32 129 38 164q8 51 -6.5 73t-48.5 25l-94 10q-22 3 -26.5 11.5t1.5 31.5q7 29 16 36t29 5q66 -6 209 -6q126 0 189 6q21 2 25.5 -4t-1.5 -37q-6 -24 -13 -32t-28 -11l-53 -8
q-33 -4 -50.5 -31t-31.5 -79l-129 -480q-70 -260 -120.5 -374t-127.5 -191q-65 -65 -150 -100t-214 -35z" />
    <glyph glyph-name="Ucircumflex" unicode="&#xdb;" horiz-adv-x="1411" 
d="M958 1538l-176 -88q-9 -4 -22.5 -11t-20.5 -10.5t-15 -6.5t-13 -3q-18 0 -25.5 16.5t8.5 28.5q57 43 105 78.5t70 52t36 27.5q71 55 88 55q3 0 6 -0.5t5.5 -1.5t5.5 -3.5t5 -4t5 -5.5t5 -6.5t5.5 -7.5t5.5 -7.5t6.5 -9t6.5 -9.5q9 -14 44.5 -62t65.5 -90
q13 -20 6.5 -35.5t-24.5 -15.5q-6 0 -18 6.5t-23 14.5t-27.5 20.5t-25.5 18.5zM588 -41q-205 0 -309.5 87.5t-104.5 254.5q0 103 62 338l133 494q18 64 12.5 87t-43.5 27l-115 10q-21 3 -25.5 11.5t1.5 31.5q7 29 15 36t28 5q66 -6 245 -6q170 0 236 6q21 2 27.5 -5
t-0.5 -36q-6 -24 -13 -32t-28 -11l-88 -10q-37 -4 -51.5 -20t-26.5 -64l-131 -487q-72 -272 -72 -346q0 -124 74 -195.5t211 -71.5q89 0 147 27t107 74q56 61 93 139.5t91 276.5l111 405q32 129 38 164q8 51 -6.5 73t-48.5 25l-94 10q-22 3 -26.5 11.5t1.5 31.5q7 29 16 36
t29 5q66 -6 209 -6q126 0 189 6q21 2 25.5 -4t-1.5 -37q-6 -24 -13 -32t-28 -11l-53 -8q-33 -4 -50.5 -31t-31.5 -79l-129 -480q-70 -260 -120.5 -374t-127.5 -191q-65 -65 -150 -100t-214 -35z" />
    <glyph glyph-name="Udieresis" unicode="&#xdc;" horiz-adv-x="1411" 
d="M1049 1536q0 49 29.5 85t74.5 36q36 0 60 -25.5t24 -62.5q0 -45 -32.5 -80t-74.5 -35q-38 0 -59.5 23.5t-21.5 58.5zM651 1536q0 49 30 85t75 36q36 0 60 -25.5t24 -62.5q0 -45 -32.5 -80t-74.5 -35q-38 0 -60 23.5t-22 58.5zM588 -41q-205 0 -309.5 87.5t-104.5 254.5
q0 103 62 338l133 494q18 64 12.5 87t-43.5 27l-115 10q-21 3 -25.5 11.5t1.5 31.5q7 29 15 36t28 5q66 -6 245 -6q170 0 236 6q21 2 27.5 -5t-0.5 -36q-6 -24 -13 -32t-28 -11l-88 -10q-37 -4 -51.5 -20t-26.5 -64l-131 -487q-72 -272 -72 -346q0 -124 74 -195.5t211 -71.5
q89 0 147 27t107 74q56 61 93 139.5t91 276.5l111 405q32 129 38 164q8 51 -6.5 73t-48.5 25l-94 10q-22 3 -26.5 11.5t1.5 31.5q7 29 16 36t29 5q66 -6 209 -6q126 0 189 6q21 2 25.5 -4t-1.5 -37q-6 -24 -13 -32t-28 -11l-53 -8q-33 -4 -50.5 -31t-31.5 -79l-129 -480
q-70 -260 -120.5 -374t-127.5 -191q-65 -65 -150 -100t-214 -35z" />
    <glyph glyph-name="Yacute" unicode="&#xdd;" horiz-adv-x="1116" 
d="M1057 1661q43 -13 56 -20.5t13 -24.5q0 -10 -9.5 -15.5t-37.5 -15.5q-184 -65 -354 -139q-7 -3 -15.5 -7t-13 -6.5t-10 -4t-10.5 -1.5q-24 0 -29 17.5t19 34.5q37 25 110 78t119 83q61 39 86 39q18 0 76 -18zM426 2q-171 0 -281 -10q-21 -2 -25.5 4t1.5 37q6 24 13 32
t28 11l98 12q78 10 96 88l95 391l-175 598q-23 79 -88 86l-47 6q-21 1 -26 10.5t2 32.5q7 29 15 36t28 5q66 -6 182 -6q180 0 246 6q21 2 26 -4t0 -37q-6 -25 -13 -33.5t-28 -9.5l-67 -8q-55 -6 -55 -51q0 -33 24 -121l115 -403l346 420q82 99 82 129q0 4 -0.5 7t-2.5 5
t-3.5 4t-5 3t-6 2t-8 1.5t-8.5 1t-10 1.5t-11 1l-64 8q-21 1 -26 10.5t1 32.5q7 29 16 36t30 5q66 -6 159 -6q134 0 197 6q21 2 25.5 -4t-1.5 -37q-6 -24 -12.5 -31.5t-27.5 -11.5l-37 -8q-11 -2 -21.5 -7.5t-18 -10t-18.5 -15t-15.5 -15.5t-17 -19.5t-16.5 -18.5l-489 -575
l-99 -410q-11 -49 1 -68t46 -22l107 -10q21 -1 26 -10.5t-1 -32.5q-7 -29 -16 -36t-29 -5q-88 8 -236 8z" />
    <glyph glyph-name="Thorn" unicode="&#xde;" horiz-adv-x="1091" 
d="M184 0q-101 0 -200 -6h-11q-26 0 -26 20q0 13 4 21q8 25 15.5 33.5t25.5 9.5l67 8q33 4 48 24t26 68l193 817l36 162q13 54 5.5 70t-52.5 20l-100 10q-21 1 -26 10.5t1 32.5q7 29 16 36t30 5q66 -6 225 -6q153 0 219 6q21 2 27.5 -5t-0.5 -36q-6 -25 -13 -33.5t-28 -9.5
l-84 -10q-34 -5 -54 -104l-34 -152q152 2 251 -21.5t162 -86.5q38 -38 54 -81.5t16 -105.5q0 -133 -100 -233q-56 -56 -159 -92.5t-224 -36.5q-58 0 -152 12l-41 -168q-10 -42 -10 -55q0 -18 11 -25t40 -10l102 -10q29 -3 29 -21q0 -6 -4 -22q-6 -25 -13 -33t-20 -8h-10
q-66 6 -242 6zM358 422q51 -10 109 -10q84 0 151 27.5t105.5 71.5t58 92.5t19.5 96.5q0 111 -60 160t-188 49q-52 0 -67.5 -11t-26.5 -54z" />
    <glyph glyph-name="germandbls" unicode="&#xdf;" horiz-adv-x="894" 
d="M459 -25q-24 0 -52.5 6t-57.5 19t-48.5 37t-19.5 55q0 26 17.5 47t45.5 21q51 0 68 -43q15 -40 30.5 -55t40.5 -15q44 0 74.5 28t30.5 75q0 29 -11.5 64t-22.5 57t-35 64l-32 56q-21 38 -42 98t-21 103q0 97 51 161.5t141 116.5q61 36 88 99t27 121q0 56 -15 103
t-55 80.5t-100 33.5q-70 0 -128.5 -68t-76.5 -158q-6 -27 -32.5 -155t-33.5 -160.5t-29 -134.5t-35.5 -159t-35.5 -146.5t-45 -178.5q-70 -265 -116 -376q-102 -244 -249 -262q-12 -1 -24 -1q-33 0 -68 10t-65.5 38t-30.5 69q0 31 22.5 54.5t51.5 23.5q46 0 68 -43
q19 -35 37.5 -50.5t42.5 -15.5q15 0 29 8t26.5 26.5t23 37t21.5 50t18.5 55t17.5 64t16 64t16 66.5t14 62q2 9 168 768q129 589 450 589q123 0 186.5 -69t63.5 -180q0 -106 -64 -187t-200 -162q-24 -15 -39 -30.5t-21 -35.5t-7 -33t-1 -38t16.5 -61.5t29.5 -58t45 -70.5
q92 -141 92 -250q0 -81 -72.5 -157.5t-183.5 -76.5z" />
    <glyph glyph-name="agrave" unicode="&#xe0;" horiz-adv-x="911" 
d="M338 1331q62 0 91 -14t44 -55q23 -64 60.5 -155t44.5 -110q8 -23 0 -35t-23 -12q-21 0 -49 43q-87 123 -201 264q-30 41 -19 57.5t52 16.5zM141 -25q-75 0 -121.5 59t-46.5 140q0 104 63 253t165 251q149 149 293 149q30 0 65.5 -12t54.5 -43q19 57 41.5 73.5t79.5 16.5
q17 0 22 -4.5t5 -17.5q0 -8 -5 -25t-17 -57t-23 -80l-109 -414q-33 -115 -33 -125q0 -37 29 -37q26 0 53 39q12 16 26 35.5t20 28t13.5 17t12.5 11.5t10 3q33 0 33 -27q0 -14 -19.5 -49t-39.5 -62q-38 -51 -85 -87t-89 -36q-48 0 -70.5 24.5t-22.5 63.5q0 21 7 51t18.5 67
t13.5 46h-6q-85 -137 -172 -194.5t-166 -57.5zM207 90q69 0 153 84q95 92 152 227t57 238q0 40 -22.5 76.5t-65.5 36.5q-81 0 -176 -95q-89 -89 -138.5 -215t-49.5 -231q0 -39 25 -80t65 -41z" />
    <glyph glyph-name="aacute" unicode="&#xe1;" horiz-adv-x="911" 
d="M782 1319q41 0 52.5 -15.5t-19.5 -52.5q-168 -176 -227 -247q-28 -39 -53 -39q-15 0 -21 12t4 37q16 33 55.5 109t61.5 122q20 42 53 58t94 16zM141 -25q-75 0 -121.5 59t-46.5 140q0 104 63 253t165 251q149 149 293 149q30 0 65.5 -12t54.5 -43q19 57 41.5 73.5
t79.5 16.5q17 0 22 -4.5t5 -17.5q0 -8 -5 -25t-17 -57t-23 -80l-109 -414q-33 -115 -33 -125q0 -37 29 -37q26 0 53 39q12 16 26 35.5t20 28t13.5 17t12.5 11.5t10 3q33 0 33 -27q0 -14 -19.5 -49t-39.5 -62q-38 -51 -85 -87t-89 -36q-48 0 -70.5 24.5t-22.5 63.5q0 21 7 51
t18.5 67t13.5 46h-6q-85 -137 -172 -194.5t-166 -57.5zM207 90q69 0 153 84q95 92 152 227t57 238q0 40 -22.5 76.5t-65.5 36.5q-81 0 -176 -95q-89 -89 -138.5 -215t-49.5 -231q0 -39 25 -80t65 -41z" />
    <glyph glyph-name="acircumflex" unicode="&#xe2;" horiz-adv-x="911" 
d="M608 1319q14 0 24 -16t23 -54l99 -264q4 -12 4 -20q0 -12 -8.5 -19.5t-20.5 -7.5q-14 0 -22 8t-23 33l-104 170l-199 -188q-26 -23 -41 -23q-11 0 -20 8.5t-9 18.5t8 20l213 264q32 40 47 55t29 15zM141 -25q-75 0 -121.5 59t-46.5 140q0 104 63 253t165 251
q149 149 293 149q30 0 65.5 -12t54.5 -43q19 57 41.5 73.5t79.5 16.5q17 0 22 -4.5t5 -17.5q0 -8 -5 -25t-17 -57t-23 -80l-109 -414q-33 -115 -33 -125q0 -37 29 -37q26 0 53 39q12 16 26 35.5t20 28t13.5 17t12.5 11.5t10 3q33 0 33 -27q0 -14 -19.5 -49t-39.5 -62
q-38 -51 -85 -87t-89 -36q-48 0 -70.5 24.5t-22.5 63.5q0 21 7 51t18.5 67t13.5 46h-6q-85 -137 -172 -194.5t-166 -57.5zM207 90q69 0 153 84q95 92 152 227t57 238q0 40 -22.5 76.5t-65.5 36.5q-81 0 -176 -95q-89 -89 -138.5 -215t-49.5 -231q0 -39 25 -80t65 -41z" />
    <glyph glyph-name="atilde" unicode="&#xe3;" horiz-adv-x="911" 
d="M637 1063q-51 0 -122 24.5t-118 24.5q-21 0 -34.5 -8.5t-18 -15.5t-8.5 -19q-6 -20 -12.5 -24.5t-26.5 -4.5q-13 0 -17 4.5t-4 22.5q0 54 35.5 103t108.5 49q52 0 122 -25t117 -25q46 0 62 43q6 19 12.5 23t26.5 4q13 0 16.5 -3.5t3.5 -21.5q0 -54 -35 -102.5t-108 -48.5
zM141 -25q-75 0 -121.5 59t-46.5 140q0 104 63 253t165 251q149 149 293 149q30 0 65.5 -12t54.5 -43q19 57 41.5 73.5t79.5 16.5q17 0 22 -4.5t5 -17.5q0 -8 -5.5 -25.5t-17.5 -56t-22 -80.5l-109 -414q-33 -115 -33 -125q0 -37 29 -37q26 0 53 39q12 16 26 35.5t20 28
t13.5 17t12.5 11.5t10 3q33 0 33 -27q0 -14 -19.5 -49t-39.5 -62q-38 -51 -85 -87t-89 -36q-48 0 -70.5 24.5t-22.5 63.5q0 21 7 51t18.5 67t13.5 46h-6q-85 -137 -172 -194.5t-166 -57.5zM207 90q69 0 153 84q95 92 152 227t57 238q0 40 -22.5 76.5t-65.5 36.5
q-81 0 -176 -95q-89 -89 -138.5 -215t-49.5 -231q0 -39 25 -80t65 -41z" />
    <glyph glyph-name="adieresis" unicode="&#xe4;" horiz-adv-x="911" 
d="M602 1075q0 49 30 85t75 36q36 0 60 -25.5t24 -62.5q0 -45 -31 -80t-76 -35q-36 0 -59 24t-23 58zM289 1075q0 49 29.5 85t74.5 36q36 0 60 -25.5t24 -62.5q0 -45 -32 -80t-74 -35q-38 0 -60 23.5t-22 58.5zM141 -25q-75 0 -121.5 59t-46.5 140q0 104 63 253t165 251
q149 149 293 149q30 0 65.5 -12t54.5 -43q19 57 41.5 73.5t79.5 16.5q17 0 22 -4.5t5 -17.5q0 -8 -5 -25t-17 -57t-23 -80l-109 -414q-33 -115 -33 -125q0 -37 29 -37q26 0 53 39q12 16 26 35.5t20 28t13.5 17t12.5 11.5t10 3q33 0 33 -27q0 -14 -19.5 -49t-39.5 -62
q-38 -51 -85 -87t-89 -36q-48 0 -70.5 24.5t-22.5 63.5q0 21 7 51t18.5 67t13.5 46h-6q-85 -137 -172 -194.5t-166 -57.5zM207 90q69 0 153 84q95 92 152 227t57 238q0 40 -22.5 76.5t-65.5 36.5q-81 0 -176 -95q-89 -89 -138.5 -215t-49.5 -231q0 -39 25 -80t65 -41z" />
    <glyph glyph-name="aring" unicode="&#xe5;" horiz-adv-x="911" 
d="M438 1139q0 66 45.5 110.5t108.5 44.5q64 0 111 -44.5t47 -110.5t-47 -110t-111 -44q-63 0 -108.5 44t-45.5 110zM512 1141q0 -35 23.5 -62.5t56.5 -27.5q34 0 57 27.5t23 62.5t-23 62.5t-57 27.5q-33 0 -56.5 -27.5t-23.5 -62.5zM141 -25q-75 0 -121.5 59t-46.5 140
q0 104 63 253t165 251q149 149 293 149q30 0 65.5 -12t54.5 -43q19 57 41.5 73.5t79.5 16.5q17 0 22 -4.5t5 -17.5q0 -8 -5 -25t-17 -57t-23 -80l-109 -414q-33 -115 -33 -125q0 -37 29 -37q26 0 53 39q12 16 26 35.5t20 28t13.5 17t12.5 11.5t10 3q33 0 33 -27
q0 -14 -19.5 -49t-39.5 -62q-38 -51 -85 -87t-89 -36q-48 0 -70.5 24.5t-22.5 63.5q0 21 7 51t18.5 67t13.5 46h-6q-85 -137 -172 -194.5t-166 -57.5zM207 90q69 0 153 84q95 92 152 227t57 238q0 40 -22.5 76.5t-65.5 36.5q-81 0 -176 -95q-89 -89 -138.5 -215t-49.5 -231
q0 -39 25 -80t65 -41z" />
    <glyph glyph-name="ae" unicode="&#xe6;" horiz-adv-x="1212" 
d="M647 465q137 16 239.5 78.5t102.5 146.5q0 34 -18.5 56t-55.5 22q-61 0 -140.5 -79.5t-127.5 -223.5zM717 741q127 99 250 99q65 0 109 -39t44 -105q0 -120 -135.5 -197t-353.5 -98q-21 -69 -21 -127q0 -31 6.5 -59.5t21 -56.5t43 -45t67.5 -17q40 0 79 18t62 37.5
t57 53.5q20 20 28 25.5t19 5.5q10 0 18.5 -8.5t8.5 -22.5q0 -24 -53 -86q-126 -144 -279 -144q-99 0 -153 70.5t-54 181.5h-8q-156 -252 -336 -252q-75 0 -119.5 58.5t-44.5 140.5q0 106 62.5 260.5t163.5 255.5q150 150 293 150q31 0 66 -11.5t52 -33.5q13 7 34 20.5t36 21
t29 7.5q16 0 20 -7t4 -22q0 -19 -16 -74zM199 90q71 0 155 84q94 91 153.5 233.5t59.5 243.5q0 46 -22 79.5t-66 33.5q-82 0 -176 -94q-88 -88 -139 -220.5t-51 -238.5q0 -28 7 -53.5t27.5 -46.5t51.5 -21z" />
    <glyph glyph-name="ccedilla" unicode="&#xe7;" horiz-adv-x="679" 
d="M233 90q74 0 148 74q12 12 26.5 29.5t23 26.5t19.5 16.5t23 7.5q10 0 18.5 -7.5t8.5 -21.5q0 -20 -29 -60.5t-57 -68.5q-98 -98 -211 -109l-47 -67q60 -22 90 -52.5t30 -82.5q0 -75 -62.5 -129t-139.5 -54q-54 0 -80.5 11t-26.5 39q0 20 13 35.5t34 15.5q10 0 19.5 -5
t20 -14t12.5 -10q26 -16 45 -16q26 0 49.5 26.5t23.5 61.5q0 79 -123 90q-28 3 -14 22l92 132q-55 9 -90 47q-59 59 -59 163q0 133 57.5 282t157.5 249q119 119 252 119q62 0 109.5 -36.5t47.5 -96.5q0 -29 -19.5 -53.5t-55.5 -24.5q-27 0 -45.5 15t-24.5 42
q-4 16 -7.5 26.5t-11 22t-20.5 17.5t-31 6q-41 0 -84 -43q-66 -66 -124 -196.5t-58 -274.5q0 -68 24.5 -111t75.5 -43z" />
    <glyph glyph-name="egrave" unicode="&#xe8;" horiz-adv-x="739" 
d="M270 1331q63 0 92 -16.5t48 -69.5t54.5 -139.5t43.5 -108.5q7 -25 0.5 -36t-21.5 -11q-21 0 -49 43q-93 132 -200 264q-30 41 -19.5 57.5t51.5 16.5zM133 401q-20 -66 -20 -127q0 -43 10.5 -80t43 -67.5t83.5 -30.5q58 0 102.5 28.5t96.5 80.5q20 20 28 25.5t19 5.5
q10 0 18 -8.5t8 -22.5q0 -24 -53 -86q-126 -144 -279 -144q-69 0 -117 37t-68.5 91t-20.5 118q0 131 57.5 263t148.5 223q133 133 279 133q65 0 109.5 -39t44.5 -105q0 -120 -135.5 -197t-354.5 -98zM150 465q137 16 239.5 78.5t102.5 146.5q0 34 -18.5 56t-55.5 22
q-61 0 -140.5 -79.5t-127.5 -223.5z" />
    <glyph glyph-name="eacute" unicode="&#xe9;" horiz-adv-x="739" 
d="M696 1319q41 0 52.5 -15.5t-19.5 -52.5q-168 -176 -227 -247q-28 -39 -53 -39q-15 0 -21 12t4 37q16 33 55.5 109t61.5 122q20 42 53 58t94 16zM133 401q-20 -66 -20 -127q0 -43 10.5 -80t43 -67.5t83.5 -30.5q58 0 102.5 28.5t96.5 80.5q20 20 28 25.5t19 5.5
q10 0 18 -8.5t8 -22.5q0 -24 -53 -86q-126 -144 -279 -144q-69 0 -117 37t-68.5 91t-20.5 118q0 131 57.5 263t148.5 223q133 133 279 133q65 0 109.5 -39t44.5 -105q0 -120 -135.5 -197t-354.5 -98zM150 465q137 16 239.5 78.5t102.5 146.5q0 34 -18.5 56t-55.5 22
q-61 0 -140.5 -79.5t-127.5 -223.5z" />
    <glyph glyph-name="ecircumflex" unicode="&#xea;" horiz-adv-x="739" 
d="M516 1319q14 0 24 -16t23 -54l99 -264q4 -12 4 -20q0 -12 -8.5 -19.5t-20.5 -7.5q-14 0 -22 8t-23 33l-105 170l-198 -188q-26 -23 -41 -23q-11 0 -20 8.5t-9 18.5t8 20l213 264q32 40 47 55t29 15zM133 401q-20 -66 -20 -127q0 -43 10.5 -80t43 -67.5t83.5 -30.5
q58 0 102.5 28.5t96.5 80.5q20 20 28 25.5t19 5.5q10 0 18 -8.5t8 -22.5q0 -24 -53 -86q-126 -144 -279 -144q-69 0 -117 37t-68.5 91t-20.5 118q0 131 57.5 263t148.5 223q133 133 279 133q65 0 109.5 -39t44.5 -105q0 -120 -135.5 -197t-354.5 -98zM150 465
q137 16 239.5 78.5t102.5 146.5q0 34 -18.5 56t-55.5 22q-61 0 -140.5 -79.5t-127.5 -223.5z" />
    <glyph glyph-name="edieresis" unicode="&#xeb;" horiz-adv-x="739" 
d="M551 1075q0 49 29.5 85t74.5 36q36 0 60 -25.5t24 -62.5q0 -46 -30.5 -80.5t-75.5 -34.5q-36 0 -59 24t-23 58zM240 1075q0 49 29.5 85t74.5 36q36 0 60 -25.5t24 -62.5q0 -45 -32 -80t-74 -35q-38 0 -60 23.5t-22 58.5zM133 401q-20 -66 -20 -127q0 -43 10.5 -80
t43 -67.5t83.5 -30.5q58 0 102.5 28.5t96.5 80.5q20 20 28 25.5t19 5.5q10 0 18 -8.5t8 -22.5q0 -24 -53 -86q-126 -144 -279 -144q-69 0 -117 37t-68.5 91t-20.5 118q0 131 57.5 263t148.5 223q133 133 279 133q65 0 109.5 -39t44.5 -105q0 -120 -135.5 -197t-354.5 -98z
M150 465q137 16 239.5 78.5t102.5 146.5q0 34 -18.5 56t-55.5 22q-61 0 -140.5 -79.5t-127.5 -223.5z" />
    <glyph glyph-name="igrave" unicode="&#xec;" horiz-adv-x="514" 
d="M162 1331q63 0 91 -16.5t48 -69.5q19 -53 54.5 -139.5t43.5 -108.5q7 -25 1 -36t-21 -11q-21 0 -49 43q-87 123 -201 264q-30 41 -19 57.5t52 16.5zM276 840q37 0 60 -23q17 -17 22.5 -39t-1.5 -57t-14.5 -59.5t-25.5 -75.5l-122 -344q-3 -9 -12.5 -35.5t-15 -44.5
t-5.5 -25q0 -24 18 -24q25 0 64 53q6 8 15.5 20.5t14 18.5t12 15t12 13t10.5 9t11 6.5t11 1.5q26 0 26 -27q0 -10 -6.5 -23.5t-21.5 -35t-19 -27.5q-50 -75 -100 -118.5t-111 -43.5q-36 0 -61 19.5t-25 54.5q0 13 4.5 32.5t9 34t16 48.5t17.5 51l121 354q2 7 13 38
t17.5 52.5t6.5 28.5q0 25 -22 25q-11 0 -26.5 -14t-26.5 -28t-31 -40q-4 -6 -12 -17.5t-12 -16t-10 -11t-11 -9t-11 -2.5q-10 0 -19 7.5t-9 19.5q0 8 3 17t9 19t10.5 17t12.5 17.5t10 13.5q19 26 25.5 34.5t32 37.5t44 42.5t47 26.5t55.5 13z" />
    <glyph glyph-name="iacute" unicode="&#xed;" horiz-adv-x="514" 
d="M528 1319q41 0 52.5 -15.5t-19.5 -52.5q-168 -176 -227 -247q-28 -39 -53 -39q-15 0 -21 12t4 37q16 33 55.5 109t61.5 122q20 42 53 58t94 16zM276 840q37 0 60 -23q17 -17 22.5 -39t-1.5 -57t-14.5 -59.5t-25.5 -75.5l-122 -344q-3 -9 -12.5 -35.5t-15 -44.5t-5.5 -25
q0 -24 18 -24q25 0 64 53q6 8 15.5 20.5t14 18.5t12 15t12 13t10.5 9t11 6.5t11 1.5q26 0 26 -27q0 -10 -6.5 -23.5t-21.5 -35t-19 -27.5q-50 -75 -100 -118.5t-111 -43.5q-36 0 -61 19.5t-25 54.5q0 13 4.5 32.5t9 34t16 48.5t17.5 51l121 354q2 7 13 38t17.5 52.5
t6.5 28.5q0 25 -22 25q-11 0 -26.5 -14t-26.5 -28t-31 -40q-4 -6 -12 -17.5t-12 -16t-10 -11t-11 -9t-11 -2.5q-10 0 -19 7.5t-9 19.5q0 8 3 17t9 19t10.5 17t12.5 17.5t10 13.5q19 26 25.5 34.5t32 37.5t44 42.5t47 26.5t55.5 13z" />
    <glyph glyph-name="icircumflex" unicode="&#xee;" horiz-adv-x="514" 
d="M348 1319q14 0 24 -16t23 -54l99 -264q4 -12 4 -20q0 -12 -8.5 -19.5t-20.5 -7.5q-14 0 -22 8t-23 33l-105 170l-198 -188q-26 -23 -41 -23q-11 0 -20 8.5t-9 18.5t8 20l213 264q32 40 47 55t29 15zM276 840q37 0 60 -23q17 -17 22.5 -39t-1.5 -57t-14.5 -59.5
t-25.5 -75.5l-122 -344q-3 -9 -12.5 -35.5t-15 -44.5t-5.5 -25q0 -24 18 -24q25 0 64 53q6 8 15.5 20.5t14 18.5t12 15t12 13t10.5 9t11 6.5t11 1.5q26 0 26 -27q0 -10 -6.5 -23.5t-21.5 -35t-19 -27.5q-50 -75 -100 -118.5t-111 -43.5q-36 0 -61 19.5t-25 54.5
q0 13 4.5 32.5t9 34t16 48.5t17.5 51l121 354q2 7 13 38t17.5 52.5t6.5 28.5q0 25 -22 25q-11 0 -26.5 -14t-26.5 -28t-31 -40q-4 -6 -12 -17.5t-12 -16t-10 -11t-11 -9t-11 -2.5q-10 0 -19 7.5t-9 19.5q0 8 3 17t9 19t10.5 17t12.5 17.5t10 13.5q19 26 25.5 34.5t32 37.5
t44 42.5t47 26.5t55.5 13z" />
    <glyph glyph-name="idieresis" unicode="&#xef;" horiz-adv-x="514" 
d="M379 1075q0 49 29.5 85t74.5 36q36 0 60 -25.5t24 -62.5q0 -46 -30.5 -80.5t-75.5 -34.5q-36 0 -59 24t-23 58zM76 1075q0 49 29.5 85t74.5 36q36 0 60 -25.5t24 -62.5q0 -45 -32 -80t-74 -35q-38 0 -60 23.5t-22 58.5zM276 840q37 0 60 -23q17 -17 22.5 -39t-1.5 -57
t-14.5 -59.5t-25.5 -75.5l-122 -344q-3 -9 -12.5 -35.5t-15 -44.5t-5.5 -25q0 -24 18 -24q25 0 64 53q6 8 15.5 20.5t14 18.5t12 15t12 13t10.5 9t11 6.5t11 1.5q26 0 26 -27q0 -10 -6.5 -23.5t-21.5 -35t-19 -27.5q-50 -75 -100 -118.5t-111 -43.5q-36 0 -61 19.5t-25 54.5
q0 13 4.5 32.5t9 34t16 48.5t17.5 51l121 354q2 7 13 38t17.5 52.5t6.5 28.5q0 25 -22 25q-11 0 -26.5 -14t-26.5 -28t-31 -40q-4 -6 -12 -17.5t-12 -16t-10 -11t-11 -9t-11 -2.5q-10 0 -19 7.5t-9 19.5q0 8 3 17t9 19t10.5 17t12.5 17.5t10 13.5q19 26 25.5 34.5t32 37.5
t44 42.5t47 26.5t55.5 13z" />
    <glyph glyph-name="eth" unicode="&#xf0;" horiz-adv-x="796" 
d="M403 840q40 0 65.5 -6t49.5 -27q-19 150 -100 274l-191 -110q-17 -9 -28 10l-23 39q-7 15 14 27l179 102q-71 83 -172 151q-13 10 -13 17q0 9 17 35q10 16 15 19t15 3q12 0 47 -16.5t91.5 -57.5t101.5 -94l191 111q21 10 27.5 8.5t12.5 -12.5l15 -27q14 -25 -10 -37
l-187 -108q49 -73 81 -148t45.5 -147.5t17.5 -122.5t4 -113q0 -160 -57 -301.5t-140 -224.5q-109 -109 -225 -109q-81 0 -139.5 51t-83.5 123.5t-25 155.5q0 101 42.5 220t125.5 202q113 113 237 113zM225 68q66 0 131 65q74 74 121 206.5t47 252.5q0 84 -18.5 118.5
t-81.5 34.5q-66 0 -137 -71q-80 -80 -122 -209.5t-42 -228.5q0 -39 7 -73.5t31.5 -64.5t63.5 -30z" />
    <glyph glyph-name="ntilde" unicode="&#xf1;" horiz-adv-x="956" 
d="M702 1016q-50 0 -121 24.5t-118 24.5q-46 0 -62 -43q-6 -20 -12.5 -24.5t-26.5 -4.5q-13 0 -16.5 4.5t-3.5 22.5q0 54 35 102.5t108 48.5q52 0 122.5 -24.5t117.5 -24.5q21 0 34.5 8.5t18 15.5t8.5 19q6 19 12.5 23t26.5 4q13 0 17 -3.5t4 -21.5q0 -54 -35.5 -102.5
t-108.5 -48.5zM53 -6q-59 0 -59 31q0 10 49 151q63 179 112.5 334.5t49.5 173.5q0 29 -25 29q-24 0 -76 -64q-9 -10 -24 -32t-25 -31.5t-20 -10.5q-13 0 -22 7t-9 18q0 9 7 21t40 63q43 67 97 111.5t104 44.5q36 0 57 -21q24 -24 24 -67.5t-15 -96t-56 -168.5l12 2
q5 8 44.5 66.5t72 100t68.5 77.5q107 107 221 107q55 0 86 -31q28 -28 30 -74t-10.5 -88t-42.5 -121l-108 -286q-2 -4 -9.5 -22.5t-10 -26.5t-6 -22t-3.5 -24q0 -26 23 -26q30 0 63 45q11 13 23.5 29.5t18 23t12.5 14t13 9.5t13 2q9 0 18 -7.5t9 -19.5q0 -10 -7 -24.5
t-14 -25t-20 -27.5t-17 -23q-99 -140 -190 -140q-40 0 -64 23.5t-24 64.5q0 44 41 160l102 289q46 132 48 167q0 49 -50 50q-54 0 -119 -65q-24 -24 -48.5 -52.5t-45.5 -54.5t-42 -55t-37 -52t-32 -48.5t-25 -40t-19 -31t-11 -17.5q-21 -36 -63 -174q-5 -19 -15.5 -48.5
t-17.5 -55.5q-12 -41 -76 -41z" />
    <glyph glyph-name="ograve" unicode="&#xf2;" horiz-adv-x="765" 
d="M287 1331q63 0 91 -16.5t48 -69.5q19 -53 54.5 -139.5t43.5 -108.5q7 -25 1 -36t-21 -11q-21 0 -49 43q-87 123 -201 264q-30 41 -19 57.5t52 16.5zM242 -25q-81 0 -139.5 51t-83.5 123.5t-25 155.5q0 101 42.5 220t125.5 202q54 54 116 83.5t119 29.5q81 0 139.5 -51.5
t83.5 -124t25 -154.5q0 -105 -47 -226.5t-121 -195.5q-113 -113 -235 -113zM221 68q66 0 131 65q73 73 120.5 204.5t47.5 237.5q0 40 -6.5 74.5t-30.5 65t-63 30.5q-66 0 -137 -71q-80 -80 -122 -209.5t-42 -228.5q0 -39 7 -73.5t31.5 -64.5t63.5 -30z" />
    <glyph glyph-name="oacute" unicode="&#xf3;" horiz-adv-x="765" 
d="M672 1319q41 0 52.5 -15.5t-19.5 -52.5q-176 -184 -228 -247q-28 -39 -53 -39q-15 0 -20.5 12t4.5 37q16 33 55 108.5t61 122.5q20 42 53.5 58t94.5 16zM242 -25q-81 0 -139.5 51t-83.5 123.5t-25 155.5q0 101 42.5 220t125.5 202q54 54 116 83.5t119 29.5
q81 0 139.5 -51.5t83.5 -124t25 -154.5q0 -105 -47 -226.5t-121 -195.5q-113 -113 -235 -113zM221 68q66 0 131 65q73 73 120.5 204.5t47.5 237.5q0 40 -6.5 74.5t-30.5 65t-63 30.5q-66 0 -137 -71q-80 -80 -122 -209.5t-42 -228.5q0 -39 7 -73.5t31.5 -64.5t63.5 -30z" />
    <glyph glyph-name="ocircumflex" unicode="&#xf4;" horiz-adv-x="765" 
d="M475 1319q14 0 24 -16t23 -54l99 -264q4 -12 4 -20q0 -12 -8.5 -19.5t-20.5 -7.5q-14 0 -22 8t-23 33l-105 170l-198 -188q-26 -23 -41 -23q-11 0 -20 8.5t-9 18.5t8 20l213 264q32 40 47 55t29 15zM242 -25q-81 0 -139.5 51t-83.5 123.5t-25 155.5q0 101 42.5 220
t125.5 202q54 54 116 83.5t119 29.5q81 0 139.5 -51.5t83.5 -124t25 -154.5q0 -105 -47 -226.5t-121 -195.5q-113 -113 -235 -113zM221 68q66 0 131 65q73 73 120.5 204.5t47.5 237.5q0 40 -6.5 74.5t-30.5 65t-63 30.5q-66 0 -137 -71q-80 -80 -122 -209.5t-42 -228.5
q0 -39 7 -73.5t31.5 -64.5t63.5 -30z" />
    <glyph glyph-name="otilde" unicode="&#xf5;" horiz-adv-x="765" 
d="M553 1016q-51 0 -122 24.5t-118 24.5q-21 0 -34.5 -8.5t-18 -15.5t-8.5 -19q-6 -20 -12.5 -24.5t-26.5 -4.5q-13 0 -16.5 4.5t-3.5 22.5q0 54 35 102.5t108 48.5q52 0 122 -24.5t117 -24.5q46 0 62 43q6 19 12.5 23t26.5 4q13 0 16.5 -3.5t3.5 -21.5q0 -54 -35 -102.5
t-108 -48.5zM242 -25q-81 0 -139.5 51t-83.5 123.5t-25 155.5q0 101 42.5 220t125.5 202q54 54 116 83.5t119 29.5q81 0 139.5 -51.5t83.5 -124t25 -154.5q0 -105 -47 -226.5t-121 -195.5q-113 -113 -235 -113zM221 68q66 0 131 65q73 73 120.5 204.5t47.5 237.5
q0 40 -6.5 74.5t-30.5 65t-63 30.5q-66 0 -137 -71q-80 -80 -122 -209.5t-42 -228.5q0 -39 7 -73.5t31.5 -64.5t63.5 -30z" />
    <glyph glyph-name="odieresis" unicode="&#xf6;" horiz-adv-x="765" 
d="M506 1075q0 49 29.5 85t74.5 36q36 0 60 -25.5t24 -62.5q0 -46 -30.5 -80.5t-75.5 -34.5q-36 0 -59 24t-23 58zM195 1075q0 49 29.5 85t74.5 36q36 0 60 -25.5t24 -62.5q0 -45 -32.5 -80t-74.5 -35q-38 0 -59.5 23.5t-21.5 58.5zM242 -25q-81 0 -139.5 51t-83.5 123.5
t-25 155.5q0 101 42.5 220t125.5 202q54 54 116 83.5t119 29.5q81 0 139.5 -51.5t83.5 -124t25 -154.5q0 -105 -47 -226.5t-121 -195.5q-113 -113 -235 -113zM221 68q66 0 131 65q73 73 120.5 204.5t47.5 237.5q0 40 -6.5 74.5t-30.5 65t-63 30.5q-66 0 -137 -71
q-80 -80 -122 -209.5t-42 -228.5q0 -39 7 -73.5t31.5 -64.5t63.5 -30z" />
    <glyph glyph-name="divide" unicode="&#xf7;" 
d="M403 862q0 36 24.5 62t59.5 26q38 0 63 -26t25 -62t-25 -62t-63 -26q-35 0 -59.5 26t-24.5 62zM803 567h-627q-33 0 -44 4.5t-11 26.5v39q0 23 11 28t44 5h627q23 0 32.5 -1.5t16 -8.5t6.5 -23v-39q0 -22 -11 -26.5t-44 -4.5zM403 371q0 37 24.5 63.5t59.5 26.5
q38 0 63 -26.5t25 -63.5q0 -36 -25 -62t-63 -26q-35 0 -59.5 26t-24.5 62z" />
    <glyph glyph-name="oslash" unicode="&#xf8;" horiz-adv-x="765" 
d="M242 -25q-79 0 -133 45l-50 -75q0 -5 -20 -2q-22 5 -31.5 19t-7.5 24l57 86q-63 84 -63 233q0 101 42.5 220t125.5 202q54 54 116 83.5t119 29.5q76 0 133 -47l52 77q1 5 8.5 7t11.5 0q41 -20 41 -43v-5l-61 -90q29 -43 46 -107t17 -122q0 -105 -47 -226.5t-121 -195.5
q-113 -113 -235 -113zM119 236q0 -52 4 -72l354 555q-23 26 -57 26q-66 0 -137 -71q-80 -80 -122 -209.5t-42 -228.5zM516 645l-356 -555q26 -22 61 -22q66 0 131 65q73 73 120.5 204.5t47.5 237.5q0 34 -4 70z" />
    <glyph glyph-name="ugrave" unicode="&#xf9;" horiz-adv-x="952" 
d="M389 1331q63 0 91 -16.5t48 -69.5q19 -53 54 -137.5t45 -110.5q7 -25 0.5 -36t-21.5 -11q-21 0 -49 43q-87 123 -201 264q-30 41 -19 57.5t52 16.5zM137 -25q-52 0 -84.5 30.5t-32.5 86.5q0 15 3 33.5t6 33t10.5 37t11.5 33.5t13.5 36.5t11.5 31.5l100 276q37 96 37 111
q0 29 -25 29q-7 0 -13.5 -3t-15 -12t-13 -14t-15.5 -19t-14 -18q-29 -38 -41 -47.5t-25 -9.5q-11 0 -21 7t-10 19q0 7 6 17t21 30.5t21 28.5q101 148 194 148q39 0 64 -25q20 -21 22 -57t-7.5 -70t-31.5 -96l-98 -281q-47 -132 -47 -176q0 -47 47 -47q63 0 149 86
q64 64 128 154.5t92 146.5q42 82 73 193q29 98 33 110q10 28 27 35.5t49 7.5q61 0 61 -33q0 -9 -7 -30t-22.5 -62t-23.5 -65q-162 -463 -162 -494q0 -26 29 -26q31 0 76 65q24 35 36.5 49t26.5 15q11 0 19 -7t8 -18q0 -28 -33 -76q-25 -36 -44.5 -59.5t-46.5 -50.5
t-56 -40.5t-60 -13.5q-80 0 -80 95q0 18 4.5 42t13.5 55.5t15.5 51t19.5 56.5t15 44h-10q-64 -102 -96.5 -147t-73.5 -86q-111 -111 -234 -111z" />
    <glyph glyph-name="uacute" unicode="&#xfa;" horiz-adv-x="952" 
d="M735 1319q41 0 52.5 -15.5t-19.5 -52.5q-168 -176 -227 -247q-28 -39 -54 -39q-15 0 -20.5 12t4.5 37q16 33 55.5 109t61.5 122q20 42 53 58t94 16zM137 -25q-52 0 -84.5 30.5t-32.5 86.5q0 15 3 33.5t6 33t10.5 37t11.5 33.5t13.5 36.5t11.5 31.5l100 276q37 96 37 111
q0 29 -25 29q-7 0 -13.5 -3t-15 -12t-13 -14t-15.5 -19t-14 -18q-29 -38 -41 -47.5t-25 -9.5q-11 0 -21 7t-10 19q0 7 6 17t21 30.5t21 28.5q101 148 194 148q39 0 64 -25q20 -21 22 -57t-7.5 -70t-31.5 -96l-98 -281q-47 -132 -47 -176q0 -47 47 -47q63 0 149 86
q64 64 128 154.5t92 146.5q42 82 73 193q29 98 33 110q10 28 27 35.5t49 7.5q61 0 61 -33q0 -9 -7 -30t-22.5 -62t-23.5 -65q-162 -463 -162 -494q0 -26 29 -26q31 0 76 65q24 35 36.5 49t26.5 15q11 0 19 -7t8 -18q0 -28 -33 -76q-25 -36 -44.5 -59.5t-46.5 -50.5
t-56 -40.5t-60 -13.5q-80 0 -80 95q0 18 4.5 42t13.5 55.5t15.5 51t19.5 56.5t15 44h-10q-64 -102 -96.5 -147t-73.5 -86q-111 -111 -234 -111z" />
    <glyph glyph-name="ucircumflex" unicode="&#xfb;" horiz-adv-x="952" 
d="M608 1319q14 0 24 -16t23 -54l99 -264q4 -12 4 -20q0 -12 -8.5 -19.5t-20.5 -7.5q-14 0 -22 8t-23 33l-104 170l-199 -188q-26 -23 -41 -23q-11 0 -20 8.5t-9 18.5t8 20l213 264q32 40 47 55t29 15zM137 -25q-52 0 -84.5 30.5t-32.5 86.5q0 15 3 33.5t6 33t10.5 37
t11.5 33.5t13.5 36.5t11.5 31.5l100 276q37 96 37 111q0 29 -25 29q-7 0 -13.5 -3t-15 -12t-13 -14t-15.5 -19t-14 -18q-29 -38 -41 -47.5t-25 -9.5q-11 0 -21 7t-10 19q0 7 6 17t21 30.5t21 28.5q101 148 194 148q39 0 64 -25q20 -21 22 -57t-7.5 -70t-31.5 -96l-98 -281
q-47 -132 -47 -176q0 -47 47 -47q63 0 149 86q64 64 128 154.5t92 146.5q42 82 73 193q29 98 33 110q10 28 27 35.5t49 7.5q61 0 61 -33q0 -9 -7 -30t-22.5 -62t-23.5 -65q-162 -463 -162 -494q0 -26 29 -26q31 0 76 65q24 35 36.5 49t26.5 15q11 0 19 -7t8 -18
q0 -28 -33 -76q-25 -36 -44.5 -59.5t-46.5 -50.5t-56 -40.5t-60 -13.5q-80 0 -80 95q0 18 4.5 42t13.5 55.5t15.5 51t19.5 56.5t15 44h-10q-64 -102 -96.5 -147t-73.5 -86q-111 -111 -234 -111z" />
    <glyph glyph-name="udieresis" unicode="&#xfc;" horiz-adv-x="952" 
d="M627 1075q0 49 29.5 85t74.5 36q36 0 60 -25.5t24 -62.5q0 -46 -30.5 -80.5t-75.5 -34.5q-36 0 -59 24t-23 58zM315 1075q0 49 30 85t75 36q36 0 60 -25.5t24 -62.5q0 -45 -32.5 -80t-74.5 -35q-38 0 -60 23.5t-22 58.5zM137 -25q-52 0 -84.5 30.5t-32.5 86.5
q0 15 3 33.5t6 33t10.5 37t11.5 33.5t13.5 36.5t11.5 31.5l100 276q37 96 37 111q0 29 -25 29q-7 0 -13.5 -3t-15 -12t-13 -14t-15.5 -19t-14 -18q-29 -38 -41 -47.5t-25 -9.5q-11 0 -21 7t-10 19q0 7 6 17t21 30.5t21 28.5q101 148 194 148q39 0 64 -25q20 -21 22 -57
t-7.5 -70t-31.5 -96l-98 -281q-47 -132 -47 -176q0 -47 47 -47q63 0 149 86q64 64 128 154.5t92 146.5q42 82 73 193q29 98 33 110q10 28 27 35.5t49 7.5q61 0 61 -33q0 -9 -7 -30t-22.5 -62t-23.5 -65q-162 -463 -162 -494q0 -26 29 -26q31 0 76 65q24 35 36.5 49t26.5 15
q11 0 19 -7t8 -18q0 -28 -33 -76q-25 -36 -44.5 -59.5t-46.5 -50.5t-56 -40.5t-60 -13.5q-80 0 -80 95q0 18 4.5 42t13.5 55.5t15.5 51t19.5 56.5t15 44h-10q-64 -102 -96.5 -147t-73.5 -86q-111 -111 -234 -111z" />
    <glyph glyph-name="yacute" unicode="&#xfd;" horiz-adv-x="774" 
d="M616 1319q41 0 52.5 -15.5t-19.5 -52.5q-168 -176 -227 -247q-28 -39 -53 -39q-15 0 -21 12t4 37q16 33 55.5 109t61.5 122q20 42 53 58t94 16zM-180 -492q-67 0 -113.5 28t-46.5 79q0 28 19 53t63 25q25 0 42 -15.5t25 -34t25.5 -34t42.5 -15.5q34 0 65 20t78 67
q88 88 144.5 180t56.5 162q0 112 -22 292q-29 223 -50 308.5t-51 85.5q-26 0 -57 -103q-10 -33 -33 -33q-28 0 -28 31q0 18 10 45q41 107 71 145q36 45 78 46q46 0 72 -23q93 -87 125 -565l8 -125q84 158 140.5 294.5t56.5 190.5q0 47 -29 95q-18 36 -18 61q0 27 22.5 49.5
t63.5 22.5q34 0 59 -28.5t25 -78.5q0 -205 -361 -801q-41 -66 -89.5 -131t-114 -135.5t-139.5 -114t-140 -43.5z" />
    <glyph glyph-name="thorn" unicode="&#xfe;" horiz-adv-x="825" 
d="M131 -10l-88 -336q-4 -20 -4 -27q0 -22 12.5 -31t38.5 -12l86 -8q22 -2 28.5 -8.5t0.5 -24.5q-8 -25 -17 -31t-28 -4q-89 7 -164 7q-91 0 -180 -7q-21 -2 -26.5 3t1.5 32q8 22 16 27.5t25 7.5l33 4q15 2 27 16t16.5 27t11.5 37l260 997q-59 -38 -112 -94q-36 -41 -58 -41
q-9 0 -18.5 8t-9.5 23q0 5 2 11t7.5 14t9 12.5t11.5 15t11 13.5q35 38 87 79.5t97 63.5l110 434q3 14 5.5 22.5t7.5 19.5t14 17.5t21 10.5l69 20q20 6 31 -4.5t4 -36.5l-125 -444q40 12 82 12q133 0 210 -72.5t77 -199.5q0 -82 -40 -168t-108 -154q-144 -144 -434 -231z
M326 713l-176 -647q81 27 160.5 73.5t135.5 102.5q60 60 96 140.5t36 166.5q0 90 -52 136t-120 46q-44 0 -80 -18z" />
    <glyph glyph-name="ydieresis" unicode="&#xff;" horiz-adv-x="774" 
d="M446 1075q0 49 30 85t75 36q36 0 60 -25.5t24 -62.5q0 -45 -31 -80t-76 -35q-36 0 -59 24t-23 58zM125 1075q0 49 29.5 85t74.5 36q36 0 60 -25.5t24 -62.5q0 -45 -32 -80t-74 -35q-38 0 -60 23.5t-22 58.5zM-180 -492q-67 0 -113.5 28t-46.5 79q0 28 19 53t63 25
q25 0 42 -15.5t25 -34t25.5 -34t42.5 -15.5q34 0 65 20t78 67q88 88 144.5 180t56.5 162q0 112 -22 292q-29 223 -50 308.5t-51 85.5q-26 0 -57 -103q-10 -33 -33 -33q-28 0 -28 31q0 18 10 45q41 107 71 145q36 45 78 46q46 0 72 -23q93 -87 125 -565l8 -125
q84 158 140.5 294.5t56.5 190.5q0 47 -29 95q-18 36 -18 61q0 27 22.5 49.5t63.5 22.5q34 0 59 -28.5t25 -78.5q0 -205 -361 -801q-41 -66 -89.5 -131t-114 -135.5t-139.5 -114t-140 -43.5z" />
    <glyph glyph-name="Amacron" unicode="&#x100;" horiz-adv-x="1304" 
d="M1315 1479h-406q-23 0 -31.5 1.5t-15.5 8t0 20.5l15 47q6 20 18 24.5t45 4.5h406h17.5t13.5 -1t10.5 -2.5t5.5 -5t2.5 -8.5t-2.5 -12l-15 -47q-6 -20 -18 -25t-45 -5zM88 2q-117 0 -205 -8q-21 -2 -25.5 4t1.5 37q6 24 13 32t28 11l39 6q49 7 95 45t122 131l725 877
q25 30 40.5 56t27 52.5t12.5 28.5q5 9 13 16t20.5 12t20 7.5t22.5 6t16 3.5q30 10 73 29q58 28 80 28q25 0 25 -35q0 -23 -12 -65l-29 -105q-104 -375 -262 -1007q-9 -39 1 -55.5t50 -20.5l102 -10q21 -1 26 -10.5t-1 -32.5q-7 -29 -15 -36t-28 -5q-88 8 -234 8
q-178 0 -266 -8q-21 -2 -26 4t0 37q6 25 13 33.5t28 9.5l92 10q52 6 69 26.5t33 84.5l90 352h-342q-192 -240 -268 -334q-64 -80 -64 -100q0 -21 48 -29l77 -10q22 -3 26.5 -11.5t-1.5 -31.5q-7 -29 -16 -36t-29 -5q-88 8 -205 8zM582 633h303q92 332 145 504q12 41 -2 41
t-41 -37z" />
    <glyph glyph-name="amacron" unicode="&#x101;" horiz-adv-x="903" 
d="M137 -25q-75 0 -119.5 58.5t-44.5 140.5q0 106 59.5 254.5t160.5 249.5q149 149 292 149q31 0 66.5 -12t54.5 -43q19 57 41.5 73.5t79.5 16.5q17 0 22 -4.5t5 -17.5q0 -8 -5 -25t-17 -57t-23 -80l-109 -414q-33 -115 -33 -125q0 -37 29 -37q26 0 53 39q59 79 69 87
q9 8 17 8q13 0 21 -8t8 -19q0 -14 -19.5 -49t-39.5 -62q-38 -51 -85 -87t-90 -36q-90 0 -90 88q0 21 7.5 51.5t19 66t14.5 46.5h-8q-156 -252 -336 -252zM199 90q71 0 155 84q94 91 150.5 227.5t56.5 237.5q0 46 -22 79.5t-66 33.5q-81 0 -176 -95q-88 -88 -136 -214
t-48 -232q0 -28 7 -53.5t27.5 -46.5t51.5 -21zM686 1044h-385q-32 0 -42.5 5.5t-4.5 25.5l14 45q6 20 18 24.5t46 4.5h385h17.5t13.5 -1t10.5 -2.5t5.5 -5t2.5 -8.5t-2.5 -12l-14 -45q-6 -20 -19 -25.5t-45 -5.5z" />
    <glyph glyph-name="Abreve" unicode="&#x102;" horiz-adv-x="1304" 
d="M999 1665q19 -106 140 -106q127 0 176 106q9 18 35 18q20 0 20 -14q0 -74 -63 -137q-72 -72 -191 -72q-79 0 -127.5 40.5t-48.5 123.5q0 19 1.5 30t8 20t19.5 9q17 0 22.5 -4t7.5 -14zM88 2q-117 0 -205 -8q-21 -2 -25.5 4t1.5 37q6 24 13 32t28 11l39 6q49 7 95 45
t122 131l725 877q25 30 40.5 56t27 52.5t12.5 28.5q5 9 13 16t20.5 12t20 7.5t22.5 6t16 3.5q30 10 73 29q58 28 80 28q25 0 25 -35q0 -23 -12 -65l-29 -105q-104 -375 -262 -1007q-9 -39 1 -55.5t50 -20.5l102 -10q21 -1 26 -10.5t-1 -32.5q-7 -29 -15 -36t-28 -5
q-88 8 -234 8q-178 0 -266 -8q-21 -2 -26 4t0 37q6 25 13 33.5t28 9.5l92 10q52 6 69 26.5t33 84.5l90 352h-342q-192 -240 -268 -334q-64 -80 -64 -100q0 -21 48 -29l77 -10q22 -3 26.5 -11.5t-1.5 -31.5q-7 -29 -16 -36t-29 -5q-88 8 -205 8zM582 633h303q92 332 145 504
q12 41 -2 41t-41 -37z" />
    <glyph glyph-name="abreve" unicode="&#x103;" horiz-adv-x="903" 
d="M137 -25q-75 0 -119.5 58.5t-44.5 140.5q0 106 59.5 254.5t160.5 249.5q149 149 292 149q31 0 66.5 -12t54.5 -43q19 57 41.5 73.5t79.5 16.5q17 0 22 -4.5t5 -17.5q0 -8 -5 -25t-17 -57t-23 -80l-109 -414q-33 -115 -33 -125q0 -37 29 -37q26 0 53 39q59 79 69 87
q9 8 17 8q13 0 21 -8t8 -19q0 -14 -19.5 -49t-39.5 -62q-38 -51 -85 -87t-90 -36q-90 0 -90 88q0 21 7.5 51.5t19 66t14.5 46.5h-8q-156 -252 -336 -252zM199 90q71 0 155 84q94 91 150.5 227.5t56.5 237.5q0 46 -22 79.5t-66 33.5q-81 0 -176 -95q-88 -88 -136 -214
t-48 -232q0 -28 7 -53.5t27.5 -46.5t51.5 -21zM324 1206q28 -135 141 -135q117 0 174 135q10 23 35 23q20 0 20 -17q0 -36 -17 -79t-44 -76q-75 -86 -193 -86q-70 0 -123 48.5t-53 139.5q0 70 29 70q12 0 18.5 -3t9 -7.5t3.5 -12.5z" />
    <glyph glyph-name="Aogonek" unicode="&#x104;" horiz-adv-x="1304" 
d="M88 2q-117 0 -205 -8q-21 -2 -25.5 4t1.5 37q6 24 13 32t28 11l39 6q49 7 95 45t122 131l725 877q25 30 40.5 56t27 52.5t12.5 28.5q5 9 13 16t20.5 12t20 7.5t22.5 6t16 3.5q30 10 73 29q58 28 80 28q25 0 25 -35q0 -23 -12 -65l-29 -105q-104 -375 -262 -1007
q-9 -39 1 -55.5t50 -20.5l102 -10q21 -1 26 -10.5t-1 -32.5q-7 -29 -15 -36t-28 -5q-81 8 -213 8q-51 -61 -81 -99t-62.5 -95.5t-32.5 -92.5q0 -61 59 -61q37 0 76 39q33 33 43 33t17.5 -7t7.5 -18q0 -8 -4.5 -17t-16.5 -24t-14 -18q-31 -42 -76 -69.5t-90 -27.5
q-52 0 -88.5 29.5t-36.5 85.5q0 125 217 342q-165 -5 -205 -8q-21 -2 -26 4t0 37q6 25 13 33.5t28 9.5l92 10q52 6 69 26.5t33 84.5l90 352h-342q-192 -240 -268 -334q-64 -80 -64 -100q0 -21 48 -29l77 -10q22 -3 26.5 -11.5t-1.5 -31.5q-7 -29 -16 -36t-29 -5
q-88 8 -205 8zM582 633h303q92 332 145 504q12 41 -2 41t-41 -37z" />
    <glyph glyph-name="aogonek" unicode="&#x105;" horiz-adv-x="903" 
d="M137 -25q-75 0 -119.5 58.5t-44.5 140.5q0 106 59.5 254.5t160.5 249.5q149 149 292 149q31 0 66.5 -12t54.5 -43q19 57 41.5 73.5t79.5 16.5q17 0 22 -4.5t5 -17.5q0 -8 -5 -25t-17 -57t-23 -80l-109 -414q-33 -115 -33 -125q0 -37 29 -37q26 0 53 39q59 79 69 87
q9 8 17 8q13 0 21 -8t8 -19q0 -14 -19.5 -49t-39.5 -62q-17 -23 -107 -131q-29 -34 -46.5 -56.5t-43.5 -61t-39.5 -73.5t-13.5 -65q0 -26 16.5 -41.5t42.5 -15.5q33 0 74 41q33 33 43 33t17 -7t7 -18q0 -17 -34 -59q-34 -46 -78.5 -72.5t-85.5 -26.5q-49 0 -86 33.5
t-37 83.5q0 67 47 141.5t139 171.5q-36 0 -58 22.5t-22 65.5q0 21 7.5 51.5t19 66t14.5 46.5h-8q-156 -252 -336 -252zM199 90q71 0 155 84q94 91 150.5 227.5t56.5 237.5q0 46 -22 79.5t-66 33.5q-81 0 -176 -95q-88 -88 -136 -214t-48 -232q0 -28 7 -53.5t27.5 -46.5
t51.5 -21z" />
    <glyph glyph-name="Cacute" unicode="&#x106;" horiz-adv-x="1269" 
d="M1071 1659q44 -13 57 -21t13 -24q0 -10 -9.5 -15.5t-37.5 -15.5q-190 -67 -355 -139q-7 -3 -15.5 -7t-13 -6.5t-10 -4t-10.5 -1.5q-24 0 -29 17.5t19 34.5q32 22 107 76.5t122 84.5q4 2 19.5 11.5t24 14t21 9t21.5 4.5q18 0 76 -18zM571 -35q-152 0 -264.5 75t-168.5 200
t-56 282q0 175 53 331t146 270t227 180.5t289 66.5q196 0 338 -151l36 59q16 29 46 29q20 0 25.5 -8t0.5 -27q-29 -109 -72 -326q-4 -20 -11 -25.5t-25 -5.5q-20 0 -25.5 7.5t-9.5 27.5q-10 70 -31.5 127.5t-57 106t-91.5 75.5t-127 27q-139 0 -262 -109.5t-195 -286
t-72 -368.5q0 -129 40 -236t115 -171t171 -64q141 0 246.5 94.5t177.5 247.5q7 16 14.5 19.5t22.5 3.5q25 0 30 -9t-2 -34q-29 -105 -73 -326q-5 -20 -10.5 -26.5t-20.5 -6.5q-16 0 -24 8.5t-19 34.5l-14 33q-68 -54 -164 -89.5t-183 -35.5z" />
    <glyph glyph-name="cacute" unicode="&#x107;" horiz-adv-x="679" 
d="M233 90q74 0 148 74q12 12 26.5 29.5t23 26.5t19.5 16.5t23 7.5q10 0 18.5 -7.5t8.5 -21.5q0 -20 -29 -60.5t-57 -68.5q-111 -111 -236 -111q-77 0 -129 52q-59 59 -59 163q0 133 57.5 282t157.5 249q119 119 252 119q62 0 109.5 -36.5t47.5 -96.5q0 -29 -19.5 -53.5
t-55.5 -24.5q-27 0 -45.5 15t-24.5 42q-4 16 -7.5 26.5t-11 22t-20.5 17.5t-31 6q-41 0 -84 -43q-66 -66 -124 -196.5t-58 -274.5q0 -68 24.5 -111t75.5 -43zM666 1319q41 0 52 -15.5t-20 -52.5q-168 -176 -227 -247q-28 -39 -53 -39q-15 0 -21 12t4 37q16 33 55.5 109
t61.5 122q20 42 53.5 58t94.5 16z" />
    <glyph glyph-name="Ccircumflex" unicode="&#x108;" horiz-adv-x="1269" 
d="M846 1538l-176 -88q-64 -31 -72 -31q-18 0 -25 16.5t9 28.5q57 43 105 78.5t70 52t36 27.5q71 55 88 55q4 0 8 -1t8 -4.5t6.5 -5.5t7.5 -8.5t7.5 -10t8.5 -12.5t9 -13q9 -14 44.5 -61t66.5 -91q13 -20 6 -35.5t-25 -15.5q-6 0 -18 6.5t-23 14.5t-27.5 20.5t-25.5 18.5z
M571 -35q-152 0 -264.5 75t-168.5 200t-56 282q0 175 53 331t146 270t227 180.5t289 66.5q196 0 338 -151l36 59q16 29 46 29q20 0 25.5 -8t0.5 -27q-29 -109 -72 -326q-4 -20 -11 -25.5t-25 -5.5q-20 0 -25.5 7.5t-9.5 27.5q-10 70 -31.5 127.5t-57 106t-91.5 75.5t-127 27
q-139 0 -262 -109.5t-195 -286t-72 -368.5q0 -129 40 -236t115 -171t171 -64q141 0 246.5 94.5t177.5 247.5q7 16 14.5 19.5t22.5 3.5q25 0 30 -9t-2 -34q-29 -105 -73 -326q-5 -20 -10.5 -26.5t-20.5 -6.5q-16 0 -24 8.5t-19 34.5l-14 33q-68 -54 -164 -89.5t-183 -35.5z
" />
    <glyph glyph-name="ccircumflex" unicode="&#x109;" horiz-adv-x="679" 
d="M516 1319q14 0 24 -16t23 -54l99 -264q4 -12 4 -20q0 -12 -8.5 -19.5t-20.5 -7.5q-14 0 -22 8t-23 33l-105 170l-198 -188q-26 -23 -41 -23q-11 0 -20 8.5t-9 18.5t8 20l213 264q32 40 47 55t29 15zM233 90q74 0 148 74q12 12 26.5 29.5t23 26.5t19.5 16.5t23 7.5
q10 0 18.5 -7.5t8.5 -21.5q0 -20 -29 -60.5t-57 -68.5q-111 -111 -236 -111q-77 0 -129 52q-59 59 -59 163q0 133 57.5 282t157.5 249q119 119 252 119q62 0 109.5 -36.5t47.5 -96.5q0 -29 -19.5 -53.5t-55.5 -24.5q-27 0 -45.5 15t-24.5 42q-4 16 -7.5 26.5t-11 22
t-20.5 17.5t-31 6q-41 0 -84 -43q-66 -66 -124 -196.5t-58 -274.5q0 -68 24.5 -111t75.5 -43z" />
    <glyph glyph-name="Cdotaccent" unicode="&#x10a;" horiz-adv-x="1269" 
d="M778 1548q0 52 33.5 91.5t83.5 39.5q41 0 68.5 -29t27.5 -73q0 -47 -36.5 -86t-82.5 -39t-70 26.5t-24 69.5zM571 -35q-152 0 -264.5 75t-168.5 200t-56 282q0 175 53 331t146 270t227 180.5t289 66.5q196 0 338 -151l36 59q16 29 46 29q20 0 25.5 -8t0.5 -27
q-29 -109 -72 -326q-4 -20 -11 -25.5t-25 -5.5q-20 0 -25.5 7.5t-9.5 27.5q-10 70 -31.5 127.5t-57 106t-91.5 75.5t-127 27q-139 0 -262 -109.5t-195 -286t-72 -368.5q0 -129 40 -236t115 -171t171 -64q141 0 246.5 94.5t177.5 247.5q7 16 14.5 19.5t22.5 3.5q25 0 30 -9
t-2 -34q-29 -105 -73 -326q-5 -20 -10.5 -26.5t-20.5 -6.5q-16 0 -24 8.5t-19 34.5l-14 33q-68 -54 -164 -89.5t-183 -35.5z" />
    <glyph glyph-name="cdotaccent" unicode="&#x10b;" horiz-adv-x="679" 
d="M373 1083q0 48 31 84.5t79 36.5q36 0 60 -27t24 -65q0 -47 -32 -83t-78 -36q-37 0 -60.5 25.5t-23.5 64.5zM233 90q74 0 148 74q12 12 26.5 29.5t23 26.5t19.5 16.5t23 7.5q10 0 18.5 -7.5t8.5 -21.5q0 -20 -29 -60.5t-57 -68.5q-111 -111 -236 -111q-77 0 -129 52
q-59 59 -59 163q0 133 57.5 282t157.5 249q119 119 252 119q62 0 109.5 -36.5t47.5 -96.5q0 -29 -19.5 -53.5t-55.5 -24.5q-27 0 -45.5 15t-24.5 42q-4 16 -7.5 26.5t-11 22t-20.5 17.5t-31 6q-41 0 -84 -43q-66 -66 -124 -196.5t-58 -274.5q0 -68 24.5 -111t75.5 -43z" />
    <glyph glyph-name="Ccaron" unicode="&#x10c;" horiz-adv-x="1269" 
d="M842 1559l176 88q62 30 72 30q18 0 25 -16.5t-9 -28.5q-58 -44 -105.5 -78.5t-70 -51t-35.5 -27.5q-72 -56 -88 -56q-4 0 -8 1t-8 4.5t-7 6t-7.5 8.5t-7 10t-8.5 12.5t-9 13.5q-8 13 -44 60t-67 91q-13 20 -6.5 35.5t24.5 15.5q5 0 13 -3.5t19 -10.5t20 -14t22.5 -16.5
t20.5 -14.5zM571 -35q-152 0 -264.5 75t-168.5 200t-56 282q0 175 53 331t146 270t227 180.5t289 66.5q196 0 338 -151l36 59q16 29 46 29q20 0 25.5 -8t0.5 -27q-29 -109 -72 -326q-4 -20 -11 -25.5t-25 -5.5q-20 0 -25.5 7.5t-9.5 27.5q-10 70 -31.5 127.5t-57 106
t-91.5 75.5t-127 27q-139 0 -262 -109.5t-195 -286t-72 -368.5q0 -129 40 -236t115 -171t171 -64q141 0 246.5 94.5t177.5 247.5q7 16 14.5 19.5t22.5 3.5q25 0 30 -9t-2 -34q-29 -105 -73 -326q-5 -20 -10.5 -26.5t-20.5 -6.5q-16 0 -24 8.5t-19 34.5l-14 33
q-68 -54 -164 -89.5t-183 -35.5z" />
    <glyph glyph-name="ccaron" unicode="&#x10d;" horiz-adv-x="679" 
d="M233 90q74 0 148 74q12 12 26.5 29.5t23 26.5t19.5 16.5t23 7.5q10 0 18.5 -7.5t8.5 -21.5q0 -20 -29 -60.5t-57 -68.5q-111 -111 -236 -111q-77 0 -129 52q-59 59 -59 163q0 133 57.5 282t157.5 249q119 119 252 119q62 0 109.5 -36.5t47.5 -96.5q0 -29 -19.5 -53.5
t-55.5 -24.5q-27 0 -45.5 15t-24.5 42q-4 16 -7.5 26.5t-11 22t-20.5 17.5t-31 6q-41 0 -84 -43q-66 -66 -124 -196.5t-58 -274.5q0 -68 24.5 -111t75.5 -43zM455 938q-14 0 -24 16t-23 54l-99 264q-4 12 -4 20q0 12 8.5 19.5t20.5 7.5q14 0 22 -8t23 -33l104 -172l199 190
q26 23 41 23q11 0 20 -8.5t9 -18.5q0 -9 -9 -20l-213 -264q-32 -41 -46.5 -55.5t-28.5 -14.5z" />
    <glyph glyph-name="Dcaron" unicode="&#x10e;" horiz-adv-x="1390" 
d="M774 1559l176 88q62 30 72 30q18 0 25 -16.5t-9 -28.5q-58 -44 -105.5 -78.5t-70 -51t-35.5 -27.5q-72 -56 -88 -56q-4 0 -8 1t-8 4.5t-7 6t-7.5 8.5t-7 10t-8.5 12.5t-9 13.5q-8 13 -44 60t-67 91q-13 20 -6 35.5t25 15.5q6 0 18 -6.5t22.5 -14l28 -20t25.5 -18.5z
M145 164l232 993q13 46 4 70.5t-49 25.5l-123 4q-21 0 -26 9t1 32q7 29 15.5 36t29.5 7q203 -4 416 -4q355 0 512 -157q156 -156 156 -379q0 -353 -217 -570q-51 -51 -108.5 -88t-145.5 -72t-217 -53t-293 -18q-131 0 -352 -6q-21 0 -26.5 6.5t1.5 34.5q8 23 17 32.5
t28 10.5l72 8q31 3 47 18.5t26 59.5zM313 186q-6 -20 -8 -28t-3.5 -21.5t1 -18t8.5 -12.5t17 -10t28.5 -5.5t40.5 -4t56 -0.5q197 0 352 92t240 251.5t85 356.5q0 214 -122 339.5t-320 125.5q-122 0 -131 -39z" />
    <glyph glyph-name="dcaron" unicode="&#x10f;" horiz-adv-x="909" 
d="M1061 1374q40 0 67 -42.5t27 -94.5q0 -83 -63 -142t-123 -59q-8 0 -15.5 6t-7.5 17q0 7 5 15.5t10 10.5q57 24 74.5 48.5t17.5 58.5q0 28 -34 56.5t-34 60.5q0 29 22.5 47t53.5 18zM152 -25q-75 0 -123.5 53.5t-48.5 147.5q0 124 67 271.5t172 252.5q140 140 285 140
q67 0 100 -45l94 415q12 49 13 56q0 20 -52 20h-75q-27 0 -27 33q0 20 6 26.5t17 8.5q184 20 215 20q61 0 61 -39q0 -16 -10 -61l-240 -1022q-16 -75 -16 -102q0 -13 7.5 -26t20.5 -13q20 0 33.5 11.5t38.5 43.5q44 56 53 62q7 3 15 3q13 0 19.5 -8t6.5 -18q0 -19 -24 -58
q-49 -77 -101 -124.5t-118 -47.5q-35 0 -57.5 23t-22.5 72q0 18 4 38.5t14 57t15 59.5h-9q-162 -250 -333 -250zM219 82q57 0 133 76q78 78 144.5 223t66.5 244q0 137 -96 137q-33 0 -76.5 -24t-85.5 -66q-85 -85 -136.5 -217t-51.5 -236q0 -53 26 -95t76 -42z" />
    <glyph glyph-name="Dcroat" unicode="&#x110;" horiz-adv-x="1390" 
d="M279 725l98 432q13 46 4 70.5t-49 25.5l-123 4q-21 0 -26 9t1 32q7 29 15.5 36t29.5 7q203 -4 416 -4q355 0 512 -157q156 -156 156 -379q0 -353 -217 -570q-51 -51 -108.5 -88t-145.5 -72t-217 -53t-293 -18q-131 0 -352 -6q-21 0 -26.5 6.5t1.5 34.5q8 23 17 32.5
t28 10.5l72 8q31 3 47 18.5t26 59.5l113 473h-164q-26 0 -26 35q0 13 6 26t12 20t8 7h185zM422 637l-109 -451q-6 -20 -8 -28t-3.5 -21.5t1 -18t8.5 -12.5t17 -10t28.5 -5.5t40.5 -4t56 -0.5q197 0 352 92t240 251.5t85 356.5q0 214 -122 339.5t-320 125.5q-122 0 -131 -39
l-115 -487h254q11 0 18 -7.5t7 -17.5q0 -17 -19 -55q-4 -8 -14 -8h-266z" />
    <glyph glyph-name="dcroat" unicode="&#x111;" horiz-adv-x="909" 
d="M881 1026h-95l-180 -774q-16 -75 -16 -102q0 -13 7.5 -26t20.5 -13q20 0 33.5 11.5t38.5 43.5q44 56 53 62q7 3 15 3q13 0 19.5 -8t6.5 -18q0 -19 -24 -58q-49 -77 -101 -124.5t-118 -47.5q-35 0 -57.5 23t-22.5 72q0 18 4 38.5t14 57t15 59.5h-9q-162 -250 -333 -250
q-75 0 -123.5 53.5t-48.5 147.5q0 124 67 271.5t172 252.5q140 140 285 140q67 0 100 -45l51 231h-198q-15 0 -19 5.5t2 25.5l11 30q10 25 38 25h187l22 98q12 49 13 56q0 20 -52 20h-75q-27 0 -27 33q0 20 6 26.5t17 8.5q184 20 215 20q61 0 61 -39q0 -16 -10 -61l-39 -162
h96q20 0 25.5 -6t1.5 -23l-8 -30q-9 -27 -41 -27zM219 82q57 0 133 76q78 78 144.5 223t66.5 244q0 137 -96 137q-33 0 -76.5 -24t-85.5 -66q-85 -85 -136.5 -217t-51.5 -236q0 -53 26 -95t76 -42z" />
    <glyph glyph-name="Emacron" unicode="&#x112;" horiz-adv-x="1247" 
d="M965 1479h-406q-23 0 -31.5 1.5t-15.5 8t0 20.5l14 47q6 20 18 24.5t46 4.5h405h17.5t13.5 -1t10.5 -2.5t5.5 -5t2.5 -8.5t-2.5 -12l-14 -47q-6 -20 -18 -25t-45 -5zM199 0q-158 0 -246 -8q-21 -2 -26 4t1 37q6 25 13 33.5t28 11.5l92 10q33 4 46 21.5t26 66.5l252 983
q15 54 8 70.5t-51 19.5l-119 8q-21 1 -26 10.5t2 32.5q7 28 15.5 34.5t29.5 6.5q198 -6 243 -6q450 0 625 6q21 0 27 -10.5t8 -40.5q2 -34 15.5 -116.5t17.5 -126.5q2 -18 -6 -27t-33 -12q-14 -2 -23.5 9.5t-23.5 51.5q-21 55 -55.5 98.5t-75.5 63.5q-63 29 -189 29h-196
l-134 -533h172q104 0 142.5 13.5t60.5 64.5l37 80q11 25 21 34t28 9q27 0 35 -6.5t2 -26.5q-61 -213 -63 -221q-6 -28 -25 -109.5t-27 -118.5q-3 -18 -9 -24t-23 -6q-41 0 -41 43l4 108q1 46 -37.5 60t-145.5 14h-155l-96 -377q-4 -15 -10.5 -39.5t-9.5 -38t-6 -28.5t-3 -25
q0 -39 27.5 -50t123.5 -11h175q69 0 111.5 2t93.5 13.5t79 33.5q59 42 142 186l7.5 12.5t6.5 10.5t5.5 8t5.5 6.5t5.5 3.5t7 2h8.5t11 -2q22 -5 27 -15t-7 -44q-60 -137 -88 -252q-6 -25 -16.5 -35t-34.5 -10q-162 0 -465 4t-321 4z" />
    <glyph glyph-name="emacron" unicode="&#x113;" horiz-adv-x="714" 
d="M190 -25q-69 0 -117 37t-68.5 91t-20.5 118q0 131 57.5 263t148.5 223q133 133 279 133q65 0 109.5 -39t44.5 -105q0 -120 -135.5 -197t-354.5 -98q-20 -66 -20 -127q0 -43 10.5 -80t43 -67.5t83.5 -30.5q58 0 102.5 28.5t96.5 80.5q20 20 28 25.5t19 5.5q10 0 18 -8.5
t8 -22.5q0 -24 -53 -86q-126 -144 -279 -144zM150 465q137 16 239.5 78.5t102.5 146.5q0 34 -18.5 56t-55.5 22q-61 0 -140.5 -79.5t-127.5 -223.5zM588 1044h-385q-32 0 -42.5 5.5t-4.5 25.5l14 45q6 20 18 24.5t45 4.5h385q24 0 33 -1t14 -7.5t1 -20.5l-15 -45
q-6 -20 -18.5 -25.5t-44.5 -5.5z" />
    <glyph glyph-name="Ebreve" unicode="&#x114;" horiz-adv-x="1247" 
d="M635 1665q19 -106 139 -106q127 0 176 106q9 18 35 18q21 0 21 -14q0 -73 -64 -137q-72 -72 -190 -72q-79 0 -128 40.5t-49 123.5q0 19 1.5 30t8 20t19.5 9q18 0 23.5 -4t7.5 -14zM199 0q-158 0 -246 -8q-21 -2 -26 4t1 37q6 25 13 33.5t28 11.5l92 10q33 4 46 21.5
t26 66.5l252 983q15 54 8 70.5t-51 19.5l-119 8q-21 1 -26 10.5t2 32.5q7 28 15.5 34.5t29.5 6.5q198 -6 243 -6q450 0 625 6q21 0 27 -10.5t8 -40.5q2 -34 15.5 -116.5t17.5 -126.5q2 -18 -6 -27t-33 -12q-14 -2 -23.5 9.5t-23.5 51.5q-21 55 -55.5 98.5t-75.5 63.5
q-63 29 -189 29h-196l-134 -533h172q104 0 142.5 13.5t60.5 64.5l37 80q11 25 21 34t28 9q27 0 35 -6.5t2 -26.5q-61 -213 -63 -221q-6 -28 -25 -109.5t-27 -118.5q-3 -18 -9 -24t-23 -6q-41 0 -41 43l4 108q1 46 -37.5 60t-145.5 14h-155l-96 -377q-4 -15 -10.5 -39.5
t-9.5 -38t-6 -28.5t-3 -25q0 -39 27.5 -50t123.5 -11h175q69 0 111.5 2t93.5 13.5t79 33.5q59 42 142 186l7.5 12.5t6.5 10.5t5.5 8t5.5 6.5t5.5 3.5t7 2h8.5t11 -2q22 -5 27 -15t-7 -44q-60 -137 -88 -252q-6 -25 -16.5 -35t-34.5 -10q-162 0 -465 4t-321 4z" />
    <glyph glyph-name="ebreve" unicode="&#x115;" horiz-adv-x="714" 
d="M289 1206q28 -135 141 -135q117 0 174 135q10 23 35 23q20 0 20 -17q0 -36 -17 -79t-44 -76q-75 -86 -192 -86q-71 0 -124 48.5t-53 139.5q0 70 29 70q12 0 18.5 -3t9 -7.5t3.5 -12.5zM190 -25q-69 0 -117 37t-68.5 91t-20.5 118q0 131 57.5 263t148.5 223
q133 133 279 133q65 0 109.5 -39t44.5 -105q0 -120 -135.5 -197t-354.5 -98q-20 -66 -20 -127q0 -43 10.5 -80t43 -67.5t83.5 -30.5q58 0 102.5 28.5t96.5 80.5q20 20 28 25.5t19 5.5q10 0 18 -8.5t8 -22.5q0 -24 -53 -86q-126 -144 -279 -144zM150 465q137 16 239.5 78.5
t102.5 146.5q0 34 -18.5 56t-55.5 22q-61 0 -140.5 -79.5t-127.5 -223.5z" />
    <glyph glyph-name="Edotaccent" unicode="&#x116;" horiz-adv-x="1247" 
d="M657 1548q0 52 33.5 91.5t83.5 39.5q41 0 68.5 -29t27.5 -73q0 -48 -36.5 -86.5t-81.5 -38.5q-46 0 -70.5 26.5t-24.5 69.5zM199 0q-158 0 -246 -8q-21 -2 -26 4t1 37q6 25 13 33.5t28 11.5l92 10q33 4 46 21.5t26 66.5l252 983q15 54 8 70.5t-51 19.5l-119 8
q-21 1 -26 10.5t2 32.5q7 28 15.5 34.5t29.5 6.5q198 -6 243 -6q450 0 625 6q21 0 27 -10.5t8 -40.5q2 -34 15.5 -116.5t17.5 -126.5q2 -18 -6 -27t-33 -12q-14 -2 -23.5 9.5t-23.5 51.5q-21 55 -55.5 98.5t-75.5 63.5q-63 29 -189 29h-196l-134 -533h172q104 0 142.5 13.5
t60.5 64.5l37 80q11 25 21 34t28 9q27 0 35 -6.5t2 -26.5q-61 -213 -63 -221q-6 -28 -25 -109.5t-27 -118.5q-3 -18 -9 -24t-23 -6q-41 0 -41 43l4 108q1 46 -37.5 60t-145.5 14h-155l-96 -377q-4 -15 -10.5 -39.5t-9.5 -38t-6 -28.5t-3 -25q0 -39 27.5 -50t123.5 -11h175
q69 0 111.5 2t93.5 13.5t79 33.5q59 42 142 186l7.5 12.5t6.5 10.5t5.5 8t5.5 6.5t5.5 3.5t7 2h8.5t11 -2q22 -5 27 -15t-7 -44q-60 -137 -88 -252q-6 -25 -16.5 -35t-34.5 -10q-162 0 -465 4t-321 4z" />
    <glyph glyph-name="edotaccent" unicode="&#x117;" horiz-adv-x="714" 
d="M414 1083q0 48 31 84.5t79 36.5q36 0 60 -27t24 -65q0 -47 -32 -83t-78 -36q-37 0 -60.5 25.5t-23.5 64.5zM190 -25q-69 0 -117 37t-68.5 91t-20.5 118q0 131 57.5 263t148.5 223q133 133 279 133q65 0 109.5 -39t44.5 -105q0 -120 -135.5 -197t-354.5 -98
q-20 -66 -20 -127q0 -43 10.5 -80t43 -67.5t83.5 -30.5q58 0 102.5 28.5t96.5 80.5q20 20 28 25.5t19 5.5q10 0 18 -8.5t8 -22.5q0 -24 -53 -86q-126 -144 -279 -144zM150 465q137 16 239.5 78.5t102.5 146.5q0 34 -18.5 56t-55.5 22q-61 0 -140.5 -79.5t-127.5 -223.5z" />
    <glyph glyph-name="Eogonek" unicode="&#x118;" horiz-adv-x="1247" 
d="M199 0q-158 0 -246 -8q-21 -2 -26 4t1 37q6 25 13 33.5t28 11.5l92 10q33 4 46 21.5t26 66.5l252 983q15 54 8 70.5t-51 19.5l-119 8q-21 1 -26 10.5t2 32.5q7 28 15.5 34.5t29.5 6.5q198 -6 243 -6q450 0 625 6q21 0 27 -10.5t8 -40.5q2 -34 15.5 -116.5t17.5 -126.5
q2 -18 -6 -27t-33 -12q-14 -2 -23.5 9.5t-23.5 51.5q-21 55 -55.5 98.5t-75.5 63.5q-63 29 -189 29h-196l-134 -533h172q104 0 142.5 13.5t60.5 64.5l37 80q11 25 21 34t28 9q27 0 35 -6.5t2 -26.5q-61 -213 -63 -221q-6 -28 -25 -109.5t-27 -118.5q-3 -18 -9 -24t-23 -6
q-41 0 -41 43l4 108q1 46 -37.5 60t-145.5 14h-155l-96 -377q-4 -15 -10.5 -39.5t-9.5 -38t-6 -28.5t-3 -25q0 -39 27.5 -50t123.5 -11h175q69 0 111.5 2t93.5 13.5t79 33.5q59 42 142 186l7.5 12.5t6.5 10.5t5.5 8t5.5 6.5t5.5 3.5t7 2h8.5t11 -2q22 -5 27 -15t-7 -44
q-60 -137 -88 -252q-7 -26 -15.5 -35.5t-31.5 -9.5h-59l-17 -19q-80 -87 -121.5 -147.5t-41.5 -110.5q0 -61 63 -61q37 0 76 39q33 33 43 33t17 -7t7 -18q0 -17 -34 -59q-73 -97 -166 -97q-51 0 -90 32t-39 89q0 64 71.5 159.5t157.5 166.5q-146 1 -387.5 4.5t-269.5 3.5z
" />
    <glyph glyph-name="eogonek" unicode="&#x119;" horiz-adv-x="714" 
d="M190 -25q-69 0 -117 37t-68.5 91t-20.5 118q0 131 57.5 263t148.5 223q133 133 279 133q65 0 109.5 -39t44.5 -105q0 -120 -135.5 -197t-354.5 -98q-20 -66 -20 -127q0 -43 10.5 -80t43 -67.5t83.5 -30.5q58 0 102.5 28.5t96.5 80.5q20 20 28 25.5t19 5.5q10 0 18 -8.5
t8 -22.5q0 -24 -53 -86l-33 -35q1 0 -17 -17.5t-42.5 -43.5t-36.5 -41q-8 -9 -28 -34l-28 -35t-25 -32t-24 -33.5t-18.5 -29.5t-16 -31t-8.5 -28t-4 -29q0 -33 16.5 -50.5t43.5 -17.5q33 0 74 41q33 33 43 33t17 -7t7 -18q0 -15 -35 -59q-74 -98 -164 -98q-50 0 -86 34.5
t-36 92.5q0 115 200 305q-46 -11 -78 -11zM150 465q137 16 239.5 78.5t102.5 146.5q0 34 -18.5 56t-55.5 22q-61 0 -140.5 -79.5t-127.5 -223.5z" />
    <glyph glyph-name="Ecaron" unicode="&#x11a;" horiz-adv-x="1247" 
d="M768 1559l176 88q62 30 72 30q18 0 25 -16.5t-9 -28.5q-58 -44 -105.5 -78.5t-70 -51t-35.5 -27.5q-72 -56 -88 -56q-4 0 -8 1t-8 4.5t-7 6t-7.5 8.5t-7 10t-8.5 12.5t-9 13.5q-8 13 -44 60t-67 91q-13 20 -6 35.5t25 15.5q6 0 18 -6.5t22.5 -14l28 -20t25.5 -18.5z
M199 0q-158 0 -246 -8q-21 -2 -26 4t1 37q6 25 13 33.5t28 11.5l92 10q33 4 46 21.5t26 66.5l252 983q15 54 8 70.5t-51 19.5l-119 8q-21 1 -26 10.5t2 32.5q7 28 15.5 34.5t29.5 6.5q198 -6 243 -6q450 0 625 6q21 0 27 -10.5t8 -40.5q2 -34 15.5 -116.5t17.5 -126.5
q2 -18 -6 -27t-33 -12q-14 -2 -23.5 9.5t-23.5 51.5q-21 55 -55.5 98.5t-75.5 63.5q-63 29 -189 29h-196l-134 -533h172q104 0 142.5 13.5t60.5 64.5l37 80q11 25 21 34t28 9q27 0 35 -6.5t2 -26.5q-61 -213 -63 -221q-6 -28 -25 -109.5t-27 -118.5q-3 -18 -9 -24t-23 -6
q-41 0 -41 43l4 108q1 46 -37.5 60t-145.5 14h-155l-96 -377q-4 -15 -10.5 -39.5t-9.5 -38t-6 -28.5t-3 -25q0 -39 27.5 -50t123.5 -11h175q69 0 111.5 2t93.5 13.5t79 33.5q59 42 142 186l7.5 12.5t6.5 10.5t5.5 8t5.5 6.5t5.5 3.5t7 2h8.5t11 -2q22 -5 27 -15t-7 -44
q-60 -137 -88 -252q-6 -25 -16.5 -35t-34.5 -10q-162 0 -465 4t-321 4z" />
    <glyph glyph-name="ecaron" unicode="&#x11b;" horiz-adv-x="714" 
d="M190 -25q-69 0 -117 37t-68.5 91t-20.5 118q0 131 57.5 263t148.5 223q133 133 279 133q65 0 109.5 -39t44.5 -105q0 -120 -135.5 -197t-354.5 -98q-20 -66 -20 -127q0 -43 10.5 -80t43 -67.5t83.5 -30.5q58 0 102.5 28.5t96.5 80.5q20 20 28 25.5t19 5.5q10 0 18 -8.5
t8 -22.5q0 -24 -53 -86q-126 -144 -279 -144zM150 465q137 16 239.5 78.5t102.5 146.5q0 34 -18.5 56t-55.5 22q-61 0 -140.5 -79.5t-127.5 -223.5zM471 938q-14 0 -24 16t-23 54l-98 264q-4 12 -4 20q0 12 8 19.5t20 7.5q14 0 22 -8t23 -33l105 -172l198 190q26 23 41 23
q11 0 20 -8.5t9 -18.5t-8 -20l-213 -264q-32 -40 -47 -55t-29 -15z" />
    <glyph glyph-name="Gcircumflex" unicode="&#x11c;" horiz-adv-x="1390" 
d="M856 1538l-176 -88q-64 -31 -72 -31q-18 0 -25 16.5t9 28.5q57 43 105 78.5t70 52t36 27.5q71 55 88 55q4 0 8 -1t8 -4.5t6.5 -5.5t7.5 -8.5t7.5 -10t8.5 -12.5t9 -13q9 -14 44.5 -61t66.5 -91q13 -20 6 -35.5t-25 -15.5q-6 0 -18 6.5t-23 14.5t-27.5 20.5t-25.5 18.5z
M643 -35q-174 0 -303.5 77t-194.5 206t-65 291q0 119 32.5 238.5t96 225.5t149.5 188.5t201 130.5t242 48q135 0 242 -47t169 -135l48 69q18 23 43 23q14 0 22 -11t4 -30q-5 -18 -24.5 -86t-33.5 -126t-28 -130q-4 -20 -13 -25.5t-30 -3.5q-21 1 -28 8t-9 25
q-21 170 -116 278.5t-240 108.5q-148 0 -275 -109t-198.5 -285t-71.5 -372q0 -207 105 -338t274 -131q161 0 254 80l76 277q9 34 0 47t-41 16l-92 10q-22 2 -26.5 9t1.5 30q7 29 16 36t29 5q88 -8 219 -8q101 0 189 8q21 2 25.5 -4t-1.5 -37q-6 -23 -12.5 -29.5t-28.5 -9.5
l-61 -10q-27 -4 -36.5 -20t-25.5 -74l-82 -299q-78 -53 -193 -84t-208 -31z" />
    <glyph glyph-name="gcircumflex" unicode="&#x11d;" horiz-adv-x="735" 
d="M262 -492q-72 0 -148 12.5t-145.5 36.5t-114 66.5t-44.5 95.5q0 85 77.5 155.5t216.5 121.5q-61 61 -61 119q0 38 21 71t81 76q-55 30 -88.5 92t-33.5 138q0 69 31.5 142t82.5 124q82 82 207 82q97 0 178 -90q68 65 140 65q31 0 50 -15.5t19 -45.5q0 -32 -17.5 -50
t-39.5 -18t-40 16.5t-34 16.5q-31 0 -49 -21q20 -49 20 -114q0 -66 -29.5 -138.5t-68.5 -111.5q-96 -96 -207 -96q-33 0 -47 2q-61 -30 -61 -84q0 -65 129 -148q147 -97 214.5 -162t67.5 -133q0 -51 -28.5 -92t-74.5 -64.5t-98.5 -36t-105.5 -12.5zM248 309q53 0 102 49
q44 44 73.5 120.5t29.5 152.5q0 49 -24 93t-75 44q-59 0 -104 -45q-50 -50 -78.5 -126t-28.5 -142q0 -58 26 -102t79 -44zM262 -424q82 0 126 33.5t44 89.5q0 67 -143 151l-139 99q-71 -28 -116.5 -55.5t-65 -54t-25.5 -46t-6 -45.5q0 -74 98.5 -123t226.5 -49zM442 1319
q14 0 24 -16t23 -54l99 -264q4 -12 4 -20q0 -12 -8.5 -19.5t-20.5 -7.5q-14 0 -22 8t-23 33l-104 172l-199 -190q-26 -23 -41 -23q-11 0 -20 8.5t-9 18.5q0 9 9 20l213 264q32 41 46.5 55.5t28.5 14.5z" />
    <glyph glyph-name="Gbreve" unicode="&#x11e;" horiz-adv-x="1390" 
d="M662 1665q19 -106 139 -106q127 0 176 106q9 18 35 18q20 0 20 -14q0 -74 -63 -137q-72 -72 -191 -72q-79 0 -127.5 40.5t-48.5 123.5q0 19 1.5 30t8 20t19.5 9q18 0 23.5 -4t7.5 -14zM643 -35q-174 0 -303.5 77t-194.5 206t-65 291q0 119 32.5 238.5t96 225.5
t149.5 188.5t201 130.5t242 48q135 0 242 -47t169 -135l48 69q18 23 43 23q14 0 22 -11t4 -30q-5 -18 -24.5 -86t-33.5 -126t-28 -130q-4 -20 -13 -25.5t-30 -3.5q-21 1 -28 8t-9 25q-21 170 -116 278.5t-240 108.5q-148 0 -275 -109t-198.5 -285t-71.5 -372
q0 -207 105 -338t274 -131q161 0 254 80l76 277q9 34 0 47t-41 16l-92 10q-22 2 -26.5 9t1.5 30q7 29 16 36t29 5q88 -8 219 -8q101 0 189 8q21 2 25.5 -4t-1.5 -37q-6 -23 -12.5 -29.5t-28.5 -9.5l-61 -10q-27 -4 -36.5 -20t-25.5 -74l-82 -299q-78 -53 -193 -84t-208 -31z
" />
    <glyph glyph-name="gbreve" unicode="&#x11f;" horiz-adv-x="735" 
d="M221 1206q28 -135 141 -135q118 0 175 135q5 12 11.5 17.5t22.5 5.5q21 0 21 -17q0 -35 -17 -78t-45 -77q-75 -86 -192 -86q-70 0 -123 48.5t-53 139.5q0 22 1 34.5t7.5 24t19.5 11.5q12 0 18.5 -3t9 -7.5t3.5 -12.5zM262 -492q-72 0 -148 12.5t-145.5 36.5t-114 66.5
t-44.5 95.5q0 85 77.5 155.5t216.5 121.5q-61 61 -61 119q0 38 21 71t81 76q-55 30 -88.5 92t-33.5 138q0 69 31.5 142t82.5 124q82 82 207 82q97 0 178 -90q68 65 140 65q31 0 50 -15.5t19 -45.5q0 -32 -17.5 -50t-39.5 -18t-40 16.5t-34 16.5q-31 0 -49 -21
q20 -49 20 -114q0 -66 -29.5 -138.5t-68.5 -111.5q-96 -96 -207 -96q-33 0 -47 2q-61 -30 -61 -84q0 -65 129 -148q147 -97 214.5 -162t67.5 -133q0 -51 -28.5 -92t-74.5 -64.5t-98.5 -36t-105.5 -12.5zM248 309q53 0 102 49q44 44 73.5 120.5t29.5 152.5q0 49 -24 93
t-75 44q-59 0 -104 -45q-50 -50 -78.5 -126t-28.5 -142q0 -58 26 -102t79 -44zM262 -424q82 0 126 33.5t44 89.5q0 67 -143 151l-139 99q-71 -28 -116.5 -55.5t-65 -54t-25.5 -46t-6 -45.5q0 -74 98.5 -123t226.5 -49z" />
    <glyph glyph-name="Gdotaccent" unicode="&#x120;" horiz-adv-x="1390" 
d="M756 1548q0 53 33 92t83 39q41 0 69 -29t28 -73q0 -47 -36.5 -86t-82.5 -39t-70 26.5t-24 69.5zM643 -35q-174 0 -303.5 77t-194.5 206t-65 291q0 119 32.5 238.5t96 225.5t149.5 188.5t201 130.5t242 48q135 0 242 -47t169 -135l48 69q18 23 43 23q14 0 22 -11t4 -30
q-5 -18 -24.5 -86t-33.5 -126t-28 -130q-4 -20 -13 -25.5t-30 -3.5q-21 1 -28 8t-9 25q-21 170 -116 278.5t-240 108.5q-148 0 -275 -109t-198.5 -285t-71.5 -372q0 -207 105 -338t274 -131q161 0 254 80l76 277q9 34 0 47t-41 16l-92 10q-22 2 -26.5 9t1.5 30q7 29 16 36
t29 5q88 -8 219 -8q101 0 189 8q21 2 25.5 -4t-1.5 -37q-6 -23 -12.5 -29.5t-28.5 -9.5l-61 -10q-27 -4 -36.5 -20t-25.5 -74l-82 -299q-78 -53 -193 -84t-208 -31z" />
    <glyph glyph-name="gdotaccent" unicode="&#x121;" horiz-adv-x="735" 
d="M258 1083q0 48 31.5 84.5t79.5 36.5q36 0 60 -27t24 -65q0 -47 -32.5 -83t-78.5 -36q-37 0 -60.5 25.5t-23.5 64.5zM262 -492q-72 0 -148 12.5t-145.5 36.5t-114 66.5t-44.5 95.5q0 85 77.5 155.5t216.5 121.5q-61 61 -61 119q0 38 21 71t81 76q-55 30 -88.5 92
t-33.5 138q0 69 31.5 142t82.5 124q82 82 207 82q97 0 178 -90q68 65 140 65q31 0 50 -15.5t19 -45.5q0 -32 -17.5 -50t-39.5 -18t-40 16.5t-34 16.5q-31 0 -49 -21q20 -49 20 -114q0 -66 -29.5 -138.5t-68.5 -111.5q-96 -96 -207 -96q-33 0 -47 2q-61 -30 -61 -84
q0 -65 129 -148q147 -97 214.5 -162t67.5 -133q0 -51 -28.5 -92t-74.5 -64.5t-98.5 -36t-105.5 -12.5zM248 309q53 0 102 49q44 44 73.5 120.5t29.5 152.5q0 49 -24 93t-75 44q-59 0 -104 -45q-50 -50 -78.5 -126t-28.5 -142q0 -58 26 -102t79 -44zM262 -424q82 0 126 33.5
t44 89.5q0 67 -143 151l-139 99q-71 -28 -116.5 -55.5t-65 -54t-25.5 -46t-6 -45.5q0 -74 98.5 -123t226.5 -49z" />
    <glyph glyph-name="Gcommaaccent" unicode="&#x122;" horiz-adv-x="1390" 
d="M643 -35q-174 0 -303.5 77t-194.5 206t-65 291q0 119 32.5 238.5t96 225.5t149.5 188.5t201 130.5t242 48q135 0 242 -47t169 -135l48 69q18 23 43 23q14 0 22 -11t4 -30q-5 -18 -24.5 -86t-33.5 -126t-28 -130q-4 -20 -13 -25.5t-30 -3.5q-21 1 -28 8t-9 25
q-21 170 -116 278.5t-240 108.5q-148 0 -275 -109t-198.5 -285t-71.5 -372q0 -207 105 -338t274 -131q161 0 254 80l76 277q9 34 0 47t-41 16l-92 10q-22 2 -26.5 9t1.5 30q7 29 16 36t29 5q88 -8 219 -8q101 0 189 8q21 2 25.5 -4t-1.5 -37q-6 -23 -12.5 -29.5t-28.5 -9.5
l-61 -10q-27 -4 -36.5 -20t-25.5 -74l-82 -299q-78 -53 -193 -84t-208 -31zM635 -125q39 0 65.5 -42.5t26.5 -94.5q0 -82 -71 -141.5t-132 -59.5q-9 0 -15.5 6t-6.5 17q0 20 18 28q107 44 107 111q0 19 -11 32.5t-24 20.5t-24 22t-11 36q0 29 23.5 47t54.5 18z" />
    <glyph glyph-name="gcommaaccent" unicode="&#x123;" horiz-adv-x="735" 
d="M375 928q-40 0 -67 42.5t-27 94.5q0 83 63 142t123 59q7 0 14.5 -6t7.5 -17q0 -7 -4.5 -15.5t-9.5 -10.5q-57 -24 -74.5 -48.5t-17.5 -58.5q0 -28 34 -56.5t34 -60.5q0 -29 -22.5 -47t-53.5 -18zM262 -492q-72 0 -148 12.5t-145.5 36.5t-114 66.5t-44.5 95.5
q0 85 77.5 155.5t216.5 121.5q-61 61 -61 119q0 38 21 71t81 76q-55 30 -88.5 92t-33.5 138q0 69 31.5 142t82.5 124q82 82 207 82q97 0 178 -90q68 65 140 65q31 0 50 -15.5t19 -45.5q0 -32 -17.5 -50t-39.5 -18t-40 16.5t-34 16.5q-31 0 -49 -21q20 -49 20 -114
q0 -66 -29.5 -138.5t-68.5 -111.5q-96 -96 -207 -96q-33 0 -47 2q-61 -30 -61 -84q0 -65 129 -148q147 -97 214.5 -162t67.5 -133q0 -51 -28.5 -92t-74.5 -64.5t-98.5 -36t-105.5 -12.5zM248 309q53 0 102 49q44 44 73.5 120.5t29.5 152.5q0 49 -24 93t-75 44
q-59 0 -104 -45q-50 -50 -78.5 -126t-28.5 -142q0 -58 26 -102t79 -44zM262 -424q82 0 126 33.5t44 89.5q0 67 -143 151l-139 99q-71 -28 -116.5 -55.5t-65 -54t-25.5 -46t-6 -45.5q0 -74 98.5 -123t226.5 -49z" />
    <glyph glyph-name="Hcircumflex" unicode="&#x124;" horiz-adv-x="1558" 
d="M991 1538l-176 -88q-64 -31 -72 -31q-18 0 -25 16.5t9 28.5q57 43 105 78.5t70 52t36 27.5q71 55 88 55q4 0 8 -1t8 -4.5t6.5 -5.5t7.5 -8.5t7.5 -10t8.5 -12.5t9 -13q9 -14 44.5 -61t66.5 -91q13 -20 6.5 -35.5t-24.5 -15.5q-6 0 -18.5 6.5t-23 14.5t-28 20.5
t-25.5 18.5zM199 0q-174 0 -240 -6q-21 -2 -26 4t1 37q6 24 13 32t28 11l86 10q33 4 46 22t26 68l252 979q15 54 8 70t-51 20l-102 10q-21 1 -26 10.5t1 32.5q7 29 16 36t29 5q66 -6 246 -6q194 0 260 6q21 2 27.5 -5t-0.5 -36q-6 -25 -13 -33.5t-28 -9.5l-125 -10
q-29 -3 -45 -21t-29 -69l-111 -430h705l113 430q14 52 7 69t-46 21l-117 10q-22 3 -26.5 11.5t1.5 31.5q7 29 16 36t29 5q66 -6 250 -6q162 0 228 6q21 2 25.5 -4t-1.5 -37q-6 -25 -13 -33.5t-28 -9.5l-86 -10q-33 -3 -46 -21t-26 -69l-251 -979q-14 -54 -6.5 -70t49.5 -20
l102 -10q21 -1 26 -10.5t-1 -32.5q-7 -29 -15 -36t-28 -5q-66 6 -234 6q-215 0 -281 -6q-21 -2 -26 4t0 37q6 25 13 33.5t28 9.5l110 10q49 5 63 13.5t23 41.5l127 498h-704l-123 -467q-12 -56 -4.5 -69.5t41.5 -16.5l117 -10q21 -1 26 -10.5t-2 -32.5q-7 -29 -16 -36
t-29 -5q-66 6 -233 6z" />
    <glyph glyph-name="hcircumflex" unicode="&#x125;" horiz-adv-x="892" 
d="M356 1536l-176 -86q-9 -4 -22.5 -11t-20.5 -10.5t-15 -6.5t-13 -3q-18 0 -25.5 16.5t8.5 28.5q54 41 104.5 79t71 53.5t35.5 27.5q71 55 88 55q4 0 8 -1t8 -4.5t6.5 -5.5t7.5 -8.5t7.5 -10t8.5 -12.5t9 -13q8 -12 22.5 -32t39.5 -53.5t49 -68.5q13 -20 6.5 -35.5
t-24.5 -15.5q-6 0 -18.5 6.5t-23 14.5t-28 20.5t-25.5 18.5zM16 -6q-59 0 -59 31q1 13 28 114t70.5 260t67.5 252l149 566q11 44 11 47q0 22 -54 22h-59q-23 0 -30 7t-7 26q1 21 7 27t22 8q205 20 227 20q28 0 37.5 -11.5t9.5 -33.5q0 -10 -2 -19t-6 -21t-6 -21
q-8 -25 -97.5 -332t-134.5 -453l15 -2q9 14 41.5 61t46 66t40.5 52t54 59q121 121 236 121q56 0 92 -31q14 -13 22.5 -29.5t9 -40t0 -40t-8.5 -47.5t-11 -42.5t-14.5 -46l-12.5 -37.5l-92 -297q-2 -7 -8.5 -25.5t-10.5 -30.5t-7.5 -27.5t-3.5 -24.5q0 -27 26 -27q18 0 58 51
q18 24 25.5 32.5t15.5 14.5t18 7q9 0 18 -7.5t9 -19.5q0 -23 -39 -76q-46 -64 -82 -92.5t-90 -28.5q-43 0 -70 19.5t-27 58.5q0 14 4.5 36t8.5 38t13 46.5t11 39.5l113 385q7 24 10.5 38.5t5 34t-3 31t-16.5 19.5t-33 8q-49 0 -129 -76q-70 -69 -160 -187t-102 -161
q-27 -90 -33 -121q-5 -23 -16 -64.5t-19 -72.5q-6 -28 -22.5 -40.5t-55.5 -12.5z" />
    <glyph glyph-name="Hbar" unicode="&#x126;" horiz-adv-x="1558" 
d="M199 0q-174 0 -240 -6q-21 -2 -26 4t1 37q6 24 13 32t28 11l86 10q33 4 46 22t26 68l203 787h-143q-23 0 -32.5 1.5t-14.5 8t-1 20.5l11 35q6 20 18 24.5t45 4.5h139l27 98q15 54 8 70t-51 20l-102 10q-21 1 -26 10.5t1 32.5q7 29 16 36t29 5q66 -6 246 -6q194 0 260 6
q21 2 27.5 -5t-0.5 -36q-6 -25 -13 -33.5t-28 -9.5l-125 -10q-29 -3 -45 -21t-29 -69l-27 -98h707l27 98q14 52 7 69t-46 21l-117 10q-22 3 -26.5 11.5t1.5 31.5q7 29 16 36t29 5q66 -6 250 -6q162 0 228 6q21 2 25.5 -4t-1.5 -37q-6 -25 -13 -33.5t-28 -9.5l-86 -10
q-33 -3 -46 -21t-26 -69l-26 -98h108h17.5t13.5 -1t10.5 -2.5t5.5 -5t2.5 -8.5t-2.5 -12l-10 -35q-6 -20 -18 -25t-45 -5h-107l-200 -787q-14 -54 -6.5 -70t49.5 -20l102 -10q21 -1 26 -10.5t-1 -32.5q-7 -29 -15 -36t-28 -5q-66 6 -234 6q-215 0 -281 -6q-21 -2 -26 4t0 37
q6 25 13 33.5t28 9.5l110 10q49 5 63 13.5t23 41.5l127 498h-704l-123 -467q-12 -56 -4.5 -69.5t41.5 -16.5l117 -10q21 -1 26 -10.5t-2 -32.5q-7 -29 -16 -36t-29 -5q-66 6 -233 6zM442 727h705l61 238h-704z" />
    <glyph glyph-name="hbar" unicode="&#x127;" horiz-adv-x="892" 
d="M16 -6q-59 0 -59 31q1 13 28 114t70.5 260t67.5 252l96 365h-139q-15 0 -19 5.5t2 25.5l11 30q10 25 39 25h129l30 115q11 44 11 47q0 22 -54 22h-59q-23 0 -30 7t-7 26q1 21 7 27t22 8q205 20 227 20q28 0 37.5 -11.5t9.5 -33.5q0 -10 -2 -19t-6 -21t-6 -21l-49 -166
h188q19 0 23 -4.5t-2 -24.5l-13 -31q-9 -26 -41 -26h-180q-47 -161 -158 -533l15 -2q9 14 41.5 61t46 66t40.5 52t54 59q121 121 236 121q56 0 92 -31q14 -13 22.5 -29.5t9 -40t0 -40t-8.5 -47.5t-11 -42.5t-14.5 -46l-12.5 -37.5l-92 -297q-2 -7 -8.5 -25.5t-10.5 -30.5
t-7.5 -27.5t-3.5 -24.5q0 -27 26 -27q18 0 58 51q18 24 25.5 32.5t15.5 14.5t18 7q9 0 18 -7.5t9 -19.5q0 -23 -39 -76q-46 -64 -82 -92.5t-90 -28.5q-43 0 -70 19.5t-27 58.5q0 14 4.5 36t8.5 38t13 46.5t11 39.5l113 385q7 24 10.5 38.5t5 34t-3 31t-16.5 19.5t-33 8
q-49 0 -129 -76q-70 -69 -160 -187t-102 -161q-27 -90 -33 -121q-5 -23 -16 -64.5t-19 -72.5q-6 -28 -22.5 -40.5t-55.5 -12.5z" />
    <glyph glyph-name="Itilde" unicode="&#x128;" horiz-adv-x="684" 
d="M639 1481q-51 0 -126 23.5t-122 23.5t-63 -43q-6 -20 -12.5 -24.5t-26.5 -4.5q-13 0 -17 4.5t-4 22.5q0 54 35.5 101.5t108.5 47.5q52 0 126 -23.5t121 -23.5q48 0 64 43q6 19 12.5 23t26.5 4q13 0 16.5 -3.5t3.5 -21.5q0 -54 -35 -101.5t-108 -47.5zM199 2
q-150 0 -238 -8q-21 -2 -25.5 4t1.5 37q6 25 12.5 32.5t27.5 10.5l74 10q35 4 52.5 24t29.5 66l252 979q15 54 8 70t-51 20l-100 10q-21 1 -26 10.5t1 32.5q7 29 16 36t29 5q66 -6 225 -6q172 0 238 6q21 2 27.5 -5t-0.5 -36q-6 -25 -13 -33.5t-28 -9.5l-84 -10
q-33 -3 -47 -20t-27 -70l-252 -979q-15 -47 -9.5 -67t44.5 -23l106 -10q22 -2 27 -10t-2 -33q-9 -29 -17 -36t-28 -5q-88 8 -223 8z" />
    <glyph glyph-name="itilde" unicode="&#x129;" horiz-adv-x="512" 
d="M276 840q37 0 60 -23q17 -17 22.5 -39t-1.5 -57t-14.5 -59.5t-25.5 -75.5l-122 -344q-3 -9 -12.5 -35.5t-15 -44.5t-5.5 -25q0 -24 18 -24q25 0 64 53q6 8 15.5 20.5t14 18.5t12 15t12 13t10.5 9t11 6.5t11 1.5q26 0 26 -27q0 -10 -6.5 -23.5t-21.5 -35t-19 -27.5
q-50 -75 -100 -118.5t-111 -43.5q-36 0 -61 19.5t-25 54.5q0 13 4.5 32.5t9 34t16 48.5t17.5 51l121 354q2 7 13 38t17.5 52.5t6.5 28.5q0 25 -22 25q-11 0 -26.5 -14t-26.5 -28t-31 -40q-4 -6 -12 -17.5t-12 -16t-10 -11t-11 -9t-11 -2.5q-10 0 -19 7.5t-9 19.5q0 8 3 17
t9 19t10.5 17t12.5 17.5t10 13.5q19 26 25.5 34.5t32 37.5t44 42.5t47 26.5t55.5 13zM410 1065q-50 0 -125 23.5t-123 23.5t-64 -43q-6 -20 -12.5 -24.5t-26.5 -4.5q-13 0 -16.5 4.5t-3.5 22.5q0 54 35 102t108 48q52 0 126.5 -24t121.5 -24q48 0 64 43q6 19 12 23t26 4
q13 0 17 -3.5t4 -21.5q0 -54 -35 -101.5t-108 -47.5z" />
    <glyph glyph-name="Imacron" unicode="&#x12a;" horiz-adv-x="684" 
d="M702 1479h-405q-23 0 -31.5 1.5t-15.5 8t0 20.5l14 47q6 20 18 24.5t46 4.5h405h17.5t13.5 -1t10.5 -2.5t5.5 -5t2.5 -8.5t-2.5 -12l-14 -47q-6 -20 -18.5 -25t-45.5 -5zM199 2q-150 0 -238 -8q-21 -2 -25.5 4t1.5 37q6 25 12.5 32.5t27.5 10.5l74 10q35 4 52.5 24
t29.5 66l252 979q15 54 8 70t-51 20l-100 10q-21 1 -26 10.5t1 32.5q7 29 16 36t29 5q66 -6 225 -6q172 0 238 6q21 2 27.5 -5t-0.5 -36q-6 -25 -13 -33.5t-28 -9.5l-84 -10q-33 -3 -47 -20t-27 -70l-252 -979q-15 -47 -9.5 -67t44.5 -23l106 -10q22 -2 27 -10t-2 -33
q-9 -29 -17 -36t-28 -5q-88 8 -223 8z" />
    <glyph glyph-name="imacron" unicode="&#x12b;" horiz-adv-x="512" 
d="M276 840q37 0 60 -23q17 -17 22.5 -39t-1.5 -57t-14.5 -59.5t-25.5 -75.5l-122 -344q-3 -9 -12.5 -35.5t-15 -44.5t-5.5 -25q0 -24 18 -24q25 0 64 53q6 8 15.5 20.5t14 18.5t12 15t12 13t10.5 9t11 6.5t11 1.5q26 0 26 -27q0 -10 -6.5 -23.5t-21.5 -35t-19 -27.5
q-50 -75 -100 -118.5t-111 -43.5q-36 0 -61 19.5t-25 54.5q0 13 4.5 32.5t9 34t16 48.5t17.5 51l121 354q2 7 13 38t17.5 52.5t6.5 28.5q0 25 -22 25q-11 0 -26.5 -14t-26.5 -28t-31 -40q-4 -6 -12 -17.5t-12 -16t-10 -11t-11 -9t-11 -2.5q-10 0 -19 7.5t-9 19.5q0 8 3 17
t9 19t10.5 17t12.5 17.5t10 13.5q19 26 25.5 34.5t32 37.5t44 42.5t47 26.5t55.5 13zM502 1044h-385q-32 0 -42.5 5.5t-4.5 25.5l14 45q6 20 18 24.5t45 4.5h385q24 0 33 -1t14 -7.5t1 -20.5l-15 -45q-6 -20 -18.5 -25.5t-44.5 -5.5z" />
    <glyph glyph-name="Ibreve" unicode="&#x12c;" horiz-adv-x="684" 
d="M383 1665q19 -106 139 -106q127 0 176 106q9 18 35 18q21 0 21 -14q0 -73 -64 -137q-72 -72 -190 -72q-79 0 -127.5 40.5t-48.5 123.5q0 19 1 29.5t7.5 20t19.5 9.5q18 0 23.5 -4t7.5 -14zM199 2q-150 0 -238 -8q-21 -2 -25.5 4t1.5 37q6 25 12.5 32.5t27.5 10.5l74 10
q35 4 52.5 24t29.5 66l252 979q15 54 8 70t-51 20l-100 10q-21 1 -26 10.5t1 32.5q7 29 16 36t29 5q66 -6 225 -6q172 0 238 6q21 2 27.5 -5t-0.5 -36q-6 -25 -13 -33.5t-28 -9.5l-84 -10q-33 -3 -47 -20t-27 -70l-252 -979q-15 -47 -9.5 -67t44.5 -23l106 -10q22 -2 27 -10
t-2 -33q-9 -29 -17 -36t-28 -5q-88 8 -223 8z" />
    <glyph glyph-name="ibreve" unicode="&#x12d;" horiz-adv-x="512" 
d="M145 1206q28 -135 142 -135q117 0 174 135q10 23 35 23q20 0 20 -17q0 -36 -17 -79t-44 -76q-75 -86 -193 -86q-70 0 -123 48.5t-53 139.5q0 70 29 70q17 0 22.5 -5.5t7.5 -17.5zM276 840q37 0 60 -23q17 -17 22.5 -39t-1.5 -57t-14.5 -59.5t-25.5 -75.5l-122 -344
q-3 -9 -12.5 -35.5t-15 -44.5t-5.5 -25q0 -24 18 -24q25 0 64 53q6 8 15.5 20.5t14 18.5t12 15t12 13t10.5 9t11 6.5t11 1.5q26 0 26 -27q0 -10 -6.5 -23.5t-21.5 -35t-19 -27.5q-50 -75 -100 -118.5t-111 -43.5q-36 0 -61 19.5t-25 54.5q0 13 4.5 32.5t9 34t16 48.5
t17.5 51l121 354q2 7 13 38t17.5 52.5t6.5 28.5q0 25 -22 25q-11 0 -26.5 -14t-26.5 -28t-31 -40q-4 -6 -12 -17.5t-12 -16t-10 -11t-11 -9t-11 -2.5q-10 0 -19 7.5t-9 19.5q0 8 3 17t9 19t10.5 17t12.5 17.5t10 13.5q19 26 25.5 34.5t32 37.5t44 42.5t47 26.5t55.5 13z" />
    <glyph glyph-name="Iogonek" unicode="&#x12e;" horiz-adv-x="684" 
d="M422 -6q-79 8 -201 8q-147 -188 -147 -281q0 -33 16 -50t43 -17q37 0 76 39q33 33 43 33t17 -7t7 -18q0 -8 -4 -16.5t-16.5 -25t-13.5 -17.5q-31 -42 -76 -69.5t-90 -27.5q-50 0 -87.5 35t-37.5 92q0 61 62 160.5t132 169.5q-162 -5 -184 -8q-21 -2 -25.5 4t1.5 37
q6 25 12.5 32.5t27.5 10.5l74 10q35 4 52.5 24t29.5 66l252 979q15 54 8 70t-51 20l-100 10q-21 1 -26 10.5t1 32.5q7 29 16 36t29 5q66 -6 225 -6q172 0 238 6q21 2 27.5 -5t-0.5 -36q-6 -25 -13 -33.5t-28 -9.5l-84 -10q-33 -3 -47 -20t-27 -70l-252 -979
q-15 -47 -9.5 -67t44.5 -23l106 -10q22 -2 27 -10t-2 -33q-9 -29 -17 -36t-28 -5z" />
    <glyph glyph-name="iogonek" unicode="&#x12f;" horiz-adv-x="512" 
d="M309 137q-18 -27 -40.5 -54.5t-57.5 -69t-39 -46.5q-29 -34 -46.5 -56.5t-43.5 -61t-39.5 -73.5t-13.5 -65q0 -26 16.5 -41.5t42.5 -15.5q33 0 74 41q33 33 43 33t17 -7t7 -18q0 -17 -34 -59q-34 -45 -78 -72t-86 -27q-49 0 -86 33.5t-37 83.5q0 67 46 138.5t142 174.5
q-39 0 -61.5 21.5t-22.5 52.5q0 13 4.5 32.5t9 34t16 48.5t17.5 51l121 354q2 7 13 38t17.5 52.5t6.5 28.5q0 25 -22 25q-11 0 -26.5 -14t-26.5 -28t-31 -40q-4 -6 -12 -17.5t-12 -16t-10 -11t-11 -9t-11 -2.5q-10 0 -19 7.5t-9 19.5q0 8 3 17t9 19t10.5 17t12.5 17.5
t10 13.5q19 26 25.5 34.5t32 37.5t44 42.5t47 26.5t55.5 13q37 0 60 -23q17 -17 22.5 -39t-1.5 -57t-14.5 -59.5t-25.5 -75.5l-122 -344q-3 -9 -12.5 -35.5t-15 -44.5t-5.5 -25q0 -24 18 -24q25 0 64 53q6 8 15.5 20.5t14 18.5t12 15t12 13t10.5 9t11 6.5t11 1.5
q26 0 26 -27q0 -10 -6.5 -23.5t-21.5 -35t-19 -27.5zM244 1174q0 49 32.5 87.5t81.5 38.5q39 0 63.5 -28.5t24.5 -69.5q0 -49 -33 -87t-81 -38q-39 0 -63.5 27.5t-24.5 69.5z" />
    <glyph glyph-name="Idotaccent" unicode="&#x130;" horiz-adv-x="684" 
d="M440 1548q0 52 33.5 91.5t83.5 39.5q41 0 68.5 -29t27.5 -73q0 -48 -36.5 -86.5t-81.5 -38.5q-46 0 -70.5 26.5t-24.5 69.5zM199 2q-150 0 -238 -8q-21 -2 -25.5 4t1.5 37q6 25 12.5 32.5t27.5 10.5l74 10q35 4 52.5 24t29.5 66l252 979q15 54 8 70t-51 20l-100 10
q-21 1 -26 10.5t1 32.5q7 29 16 36t29 5q66 -6 225 -6q172 0 238 6q21 2 27.5 -5t-0.5 -36q-6 -25 -13 -33.5t-28 -9.5l-84 -10q-33 -3 -47 -20t-27 -70l-252 -979q-15 -47 -9.5 -67t44.5 -23l106 -10q22 -2 27 -10t-2 -33q-9 -29 -17 -36t-28 -5q-88 8 -223 8z" />
    <glyph glyph-name="dotlessi" unicode="&#x131;" horiz-adv-x="512" 
d="M276 840q37 0 60 -23q17 -17 22.5 -39t-1.5 -57t-14.5 -59.5t-25.5 -75.5l-122 -344q-3 -9 -12.5 -35.5t-15 -44.5t-5.5 -25q0 -24 18 -24q25 0 64 53q6 8 15.5 20.5t14 18.5t12 15t12 13t10.5 9t11 6.5t11 1.5q26 0 26 -27q0 -10 -6.5 -23.5t-21.5 -35t-19 -27.5
q-50 -75 -100 -118.5t-111 -43.5q-36 0 -61 19.5t-25 54.5q0 13 4.5 32.5t9 34t16 48.5t17.5 51l121 354q2 7 13 38t17.5 52.5t6.5 28.5q0 25 -22 25q-11 0 -26.5 -14t-26.5 -28t-31 -40q-4 -6 -12 -17.5t-12 -16t-10 -11t-11 -9t-11 -2.5q-10 0 -19 7.5t-9 19.5q0 8 3 17
t9 19t10.5 17t12.5 17.5t10 13.5q19 26 25.5 34.5t32 37.5t44 42.5t47 26.5t55.5 13z" />
    <glyph glyph-name="IJ" unicode="&#x132;" horiz-adv-x="1345" 
d="M199 2q-150 0 -238 -8q-21 -2 -25.5 4t1.5 37q6 25 12.5 32.5t27.5 10.5l74 10q35 4 52.5 24t29.5 66l252 979q15 54 8 70t-51 20l-100 10q-21 1 -26 10.5t1 32.5q7 29 16 36t29 5q66 -6 225 -6q172 0 238 6q21 2 27.5 -5t-0.5 -36q-6 -25 -13 -33.5t-28 -9.5l-84 -10
q-33 -3 -47 -20t-27 -70l-252 -979q-15 -47 -9.5 -67t44.5 -23l106 -10q22 -2 27 -10t-2 -33q-9 -29 -17 -36t-28 -5q-88 8 -223 8zM1180 1333q162 0 250 8q21 2 26 -4t0 -37q-6 -25 -13 -33.5t-28 -9.5l-96 -10q-29 -3 -44 -20t-28 -68l-223 -878q-105 -417 -229 -584
q-105 -139 -254 -139q-82 0 -132.5 41t-50.5 98q0 39 22 63.5t62 24.5q71 0 86 -68q1 -3 3 -14t3.5 -15t5 -13t7.5 -13t11 -9t16.5 -7t21.5 -2q35 0 62 35.5t44 78.5q44 118 144 500l229 881q16 55 8.5 79.5t-49.5 28.5l-121 10q-21 1 -26 10.5t2 32.5q7 29 16 36t29 5
q88 -8 246 -8z" />
    <glyph glyph-name="ij" unicode="&#x133;" horiz-adv-x="966" 
d="M244 1174q0 49 32.5 87.5t81.5 38.5q39 0 63.5 -28.5t24.5 -69.5q0 -49 -33 -87t-81 -38q-39 0 -63.5 27.5t-24.5 69.5zM276 840q37 0 60 -23q17 -17 22.5 -39t-1.5 -57t-14.5 -59.5t-25.5 -75.5l-122 -344q-3 -9 -12.5 -35.5t-15 -44.5t-5.5 -25q0 -24 18 -24
q25 0 64 53q6 8 15.5 20.5t14 18.5t12 15t12 13t10.5 9t11 6.5t11 1.5q26 0 26 -27q0 -10 -6.5 -23.5t-21.5 -35t-19 -27.5q-50 -75 -100 -118.5t-111 -43.5q-36 0 -61 19.5t-25 54.5q0 13 4.5 32.5t9 34t16 48.5t17.5 51l121 354q2 7 13 38t17.5 52.5t6.5 28.5q0 25 -22 25
q-11 0 -26.5 -14t-26.5 -28t-31 -40q-4 -6 -12 -17.5t-12 -16t-10 -11t-11 -9t-11 -2.5q-10 0 -19 7.5t-9 19.5q0 8 3 17t9 19t10.5 17t12.5 17.5t10 13.5q19 26 25.5 34.5t32 37.5t44 42.5t47 26.5t55.5 13zM707 1176q0 49 32 86.5t80 37.5q39 0 64.5 -28t25.5 -68
q0 -49 -32.5 -87t-81.5 -38q-39 0 -63.5 28t-24.5 69zM315 -492q-23 0 -47.5 5t-52.5 17.5t-45.5 38t-17.5 60.5q0 31 20 51.5t49 20.5q45 0 68 -45q17 -35 30.5 -48.5t40.5 -13.5q34 0 58 29t54.5 120t72.5 269q27 117 69 285.5t68.5 274.5t26.5 112q0 25 -23 25
q-26 0 -76 -84q-4 -6 -12.5 -19.5t-11.5 -17.5t-9 -11t-11.5 -9.5t-12.5 -2.5q-25 0 -25 25q0 6 3 15t6.5 16.5t11 22.5t12.5 26q39 77 94.5 123.5t102.5 46.5q44 0 66 -30t22 -77q0 -44 -72 -326t-119 -444q-53 -187 -92 -266q-93 -189 -248 -189z" />
    <glyph glyph-name="Jcircumflex" unicode="&#x134;" horiz-adv-x="661" 
d="M543 1536l-176 -86q-64 -31 -72 -31q-18 0 -25 16.5t9 28.5q200 152 210 160q71 55 89 55q4 0 8 -1t8 -4.5t6.5 -5.5t7.5 -8.5t7.5 -10t8.5 -12.5t9 -13q8 -12 22 -31.5t39 -54t49 -68.5q13 -20 6.5 -35.5t-24.5 -15.5q-6 0 -18 6.5t-23 14.5t-27.5 20.5t-25.5 18.5z
M496 1333q161 0 249 8q21 2 27.5 -5t-0.5 -36q-6 -25 -13 -33.5t-28 -9.5l-96 -10q-29 -3 -44 -20t-28 -68l-223 -878q-105 -417 -229 -584q-105 -139 -254 -139q-82 0 -132.5 41t-50.5 98q0 39 22 63.5t62 24.5q71 0 86 -68q1 -3 3 -14t3.5 -15t5 -13t7.5 -13t11 -9
t16.5 -7t21.5 -2q35 0 62 35.5t44 78.5q44 118 144 500l229 881q16 55 8.5 79.5t-49.5 28.5l-121 10q-21 1 -26 10.5t2 32.5q7 29 16 36t29 5q88 -8 246 -8z" />
    <glyph glyph-name="jcircumflex" unicode="&#x135;" horiz-adv-x="454" 
d="M-197 -492q-23 0 -47.5 5t-52.5 17.5t-45.5 38t-17.5 60.5q0 31 20 51.5t49 20.5q45 0 68 -45q17 -35 30.5 -48.5t40.5 -13.5q34 0 58 29t54.5 120t72.5 269q27 117 69 285.5t68.5 274.5t26.5 112q0 25 -23 25q-26 0 -76 -84q-4 -6 -12.5 -19.5t-11.5 -17.5t-9 -11
t-11.5 -9.5t-12.5 -2.5q-25 0 -25 25q0 6 3 15t6.5 16.5t11 22.5t12.5 26q39 77 94.5 123.5t102.5 46.5q44 0 66 -30t22 -77q0 -44 -72 -326t-119 -444q-53 -187 -92 -266q-93 -189 -248 -189zM322 1319q14 0 24 -16t23 -54l98 -264q4 -12 4 -20q0 -12 -8.5 -19.5
t-20.5 -7.5q-14 0 -22 8t-23 33l-104 172l-199 -190q-26 -23 -41 -23q-11 0 -19.5 8.5t-8.5 18.5t8 20l213 264q32 40 47 55t29 15z" />
    <glyph glyph-name="Kcommaaccent" unicode="&#x136;" horiz-adv-x="1232" 
d="M487 -125q40 0 66.5 -42.5t26.5 -94.5q0 -82 -71 -141.5t-132 -59.5q-9 0 -16 6t-7 17q0 20 19 28q106 44 106 111q0 19 -11 32.5t-23.5 20.5t-23.5 22t-11 36q0 29 23 47t54 18zM195 0q-131 0 -215 -8q-21 -2 -26 4t1 37q6 24 13 32t28 11l76 10q33 4 46.5 22.5
t24.5 67.5l230 979q14 54 7.5 70t-50.5 20l-94 10q-21 1 -26 10.5t1 32.5q7 29 16 36t29 5q66 -4 213 -4q145 0 211 6q21 2 27.5 -5t-0.5 -36q-6 -25 -13 -33.5t-28 -11.5l-70 -10q-29 -5 -40.5 -20.5t-23.5 -67.5l-100 -442h33q38 0 78.5 29.5t93.5 82.5l262 252
q15 16 37.5 38t34.5 33.5t24.5 26t17.5 25.5t5 21q0 20 -49 28l-49 6q-22 3 -26.5 11.5t1.5 31.5q7 29 16 36t29 5q66 -6 164 -6q147 0 213 6q21 2 26 -4t0 -37q-6 -25 -12.5 -32.5t-27.5 -10.5l-48 -8q-14 -2 -27.5 -5.5t-28.5 -11.5t-26.5 -14.5t-29.5 -21.5l-30 -25
t-35.5 -33t-37.5 -37t-44.5 -44t-49.5 -49l-311 -297l293 -523q33 -59 50 -76.5t52 -23.5l62 -10q21 -3 25.5 -11.5t-1.5 -31.5q-7 -29 -16 -36t-29 -5q-66 6 -174 6q-161 0 -227 -6q-21 -2 -26 4t1 37q6 24 13 32t28 11l59 8q29 6 29 31q0 16 -31 80l-192 354
q-29 58 -51.5 74t-85.5 16l-107 -463q-12 -52 -5.5 -70t40.5 -22l59 -8q22 -3 26.5 -11.5t-1.5 -31.5q-7 -29 -16.5 -36t-30.5 -5q-66 6 -184 6z" />
    <glyph glyph-name="kcommaaccent" unicode="&#x137;" horiz-adv-x="819" 
d="M236 -125q39 0 65.5 -42.5t26.5 -94.5q0 -82 -71 -141.5t-132 -59.5q-9 0 -16 6t-7 17q0 20 19 28q106 44 106 111q0 19 -11 32.5t-23.5 20.5t-23.5 22t-11 36q0 29 23.5 47t54.5 18zM39 -6q-31 0 -47.5 5.5t-19.5 11t-3 14.5q0 4 2.5 14.5t6 21.5t4.5 13q7 33 14 61
t16.5 64.5t16.5 66.5l233 936q1 4 5 17t6.5 24t2.5 21q0 22 -53 22h-59q-23 0 -30 7t-7 26q0 20 7 26.5t22 8.5q205 20 227 20q28 0 37.5 -11.5t9.5 -33.5q0 -12 -14 -59l-172 -627q56 83 135 140t160 57q69 0 112 -47t43 -111q0 -101 -80 -173t-241 -132q11 -26 33 -79.5
t39 -93.5t26 -57q15 -28 20.5 -37t16 -17.5t24.5 -8.5q27 0 76 29q43 24 56 24q12 0 20 -7t8 -19q0 -20 -24 -39q-46 -37 -100 -67t-89 -30q-34 0 -51 16t-55 87q-12 23 -34 73t-49.5 114.5t-35.5 82.5l-92 -24l-21 -99q-7 -36 -22 -100.5t-21 -97.5q-5 -33 -59 -33z
M174 385q121 30 204.5 64t138 86.5t54.5 117.5q0 35 -21 67t-71 32q-74 0 -168 -104.5t-137 -262.5z" />
    <glyph glyph-name="Lacute" unicode="&#x139;" horiz-adv-x="1179" 
d="M874 1659q44 -13 57 -21t13 -24q0 -10 -9.5 -15.5t-37.5 -15.5q-184 -65 -354 -139q-7 -3 -15.5 -7t-13 -6.5t-10 -4t-10.5 -1.5q-24 0 -29.5 17.5t18.5 34.5q31 21 107 76t123 85q4 2 19.5 11.5t24 14t21 9t21.5 4.5q17 0 75 -18zM174 0q-152 0 -215 -6q-21 -2 -26 4
t1 37q6 24 13 32t28 11l76 8q35 4 52.5 24t29.5 66l252 981q14 54 1 69.5t-56 20.5l-76 8q-21 3 -26 12.5t1 32.5q7 29 16 36t29 5q99 -6 207 -6q217 0 305 8q21 2 27.5 -5t-0.5 -35q-5 -18 -8 -26t-11 -13.5t-22 -6.5l-94 -8q-63 -6 -87 -27t-38 -77l-229 -879
q-27 -110 -27 -135q0 -38 31.5 -47.5t132.5 -9.5h82q69 0 110.5 2t91 13.5t78.5 33.5q33 23 80 86t78 129q12 28 21.5 35.5t31.5 7.5q44 0 31 -45l-107 -299q-8 -24 -20.5 -33.5t-36.5 -9.5q-234 6 -727 6z" />
    <glyph glyph-name="lacute" unicode="&#x13a;" horiz-adv-x="471" 
d="M584 1659q43 -13 56 -20.5t13 -24.5q0 -10 -9.5 -15.5t-37.5 -15.5q-184 -65 -354 -139q-7 -3 -15.5 -7t-13 -6.5t-10 -4t-10.5 -1.5q-24 0 -29 17.5t19 34.5q32 22 107 76.5t122 84.5q4 2 19.5 11.5t24 14t21 9t21.5 4.5q18 0 76 -18zM86 -25q-42 0 -66 26.5t-24 70.5
q0 34 27 145l251 987q1 5 8 27t7 35q0 20 -49 20h-50q-30 0 -40.5 7t-10.5 28q0 13 5 20.5t9.5 9.5t14.5 3q26 2 79 8t87 9t57 3q22 0 33.5 -6t13.5 -14t2 -23q0 -7 -14 -61l-266 -1002q-29 -106 -29 -131q0 -24 25 -24q16 0 33.5 18.5t52.5 67.5q29 40 40.5 51.5t24.5 11.5
t21 -8t8 -23q0 -23 -51 -92q-112 -164 -199 -164z" />
    <glyph glyph-name="Lcommaaccent" unicode="&#x13b;" horiz-adv-x="1179" 
d="M475 -125q39 0 65.5 -42.5t26.5 -94.5q0 -82 -70.5 -141.5t-131.5 -59.5q-9 0 -16 6t-7 17q0 20 18 28q107 44 107 111q0 19 -11 32.5t-24 20.5t-24 22t-11 36q0 29 23.5 47t54.5 18zM174 0q-152 0 -215 -6q-21 -2 -26 4t1 37q6 24 13 32t28 11l76 8q35 4 52.5 24
t29.5 66l252 981q14 54 1 69.5t-56 20.5l-76 8q-21 3 -26 12.5t1 32.5q7 29 16 36t29 5q99 -6 207 -6q217 0 305 8q21 2 27.5 -5t-0.5 -35q-5 -18 -8 -26t-11 -13.5t-22 -6.5l-94 -8q-63 -6 -87 -27t-38 -77l-229 -879q-27 -110 -27 -135q0 -38 31.5 -47.5t132.5 -9.5h82
q69 0 110.5 2t91 13.5t78.5 33.5q33 23 80 86t78 129q12 28 21.5 35.5t31.5 7.5q44 0 31 -45l-107 -299q-8 -24 -20.5 -33.5t-36.5 -9.5q-234 6 -727 6z" />
    <glyph glyph-name="lcommaaccent" unicode="&#x13c;" horiz-adv-x="471" 
d="M86 -25q-42 0 -66 26.5t-24 70.5q0 34 27 145l251 987q1 5 8 27t7 35q0 20 -49 20h-50q-30 0 -40.5 7t-10.5 28q0 13 5 20.5t9.5 9.5t14.5 3q26 2 79 8t87 9t57 3q22 0 33.5 -6t13.5 -14t2 -23q0 -7 -14 -61l-266 -1002q-29 -106 -29 -131q0 -24 25 -24q16 0 33.5 18.5
t52.5 67.5q29 40 40.5 51.5t24.5 11.5t21 -8t8 -23q0 -23 -51 -92q-112 -164 -199 -164zM49 -125q39 0 65.5 -42.5t26.5 -94.5q0 -82 -70.5 -141.5t-131.5 -59.5q-9 0 -16 6t-7 17q0 20 18 28q107 44 107 111q0 19 -11 32.5t-24 20.5t-24 22t-11 36q0 29 23.5 47t54.5 18z
" />
    <glyph glyph-name="Lcaron" unicode="&#x13d;" horiz-adv-x="1179" 
d="M174 0q-152 0 -215 -6q-21 -2 -26 4t1 37q6 24 13 32t28 11l76 8q35 4 52.5 24t29.5 66l252 981q14 54 1 69.5t-56 20.5l-76 8q-21 3 -26 12.5t1 32.5q7 29 16 36t29 5q99 -6 207 -6q217 0 305 8q21 2 27.5 -5t-0.5 -35q-5 -18 -8 -26t-11 -13.5t-22 -6.5l-94 -8
q-63 -6 -87 -27t-38 -77l-229 -879q-27 -110 -27 -135q0 -38 31.5 -47.5t132.5 -9.5h82q69 0 110.5 2t91 13.5t78.5 33.5q33 23 80 86t78 129q12 28 21.5 35.5t31.5 7.5q44 0 31 -45l-107 -299q-8 -24 -20.5 -33.5t-36.5 -9.5q-234 6 -727 6zM1020 1339q39 0 65.5 -42.5
t26.5 -94.5q0 -82 -71 -141.5t-132 -59.5q-9 0 -15.5 6t-6.5 17q0 21 18 29q107 44 107 110q0 19 -11 32.5t-24 20.5t-24 22t-11 36q0 29 23.5 47t54.5 18z" />
    <glyph glyph-name="lcaron" unicode="&#x13e;" horiz-adv-x="471" 
d="M625 1374q40 0 67 -42.5t27 -94.5q0 -83 -63.5 -142t-123.5 -59q-7 0 -14.5 6t-7.5 17q0 7 4.5 15.5t9.5 10.5q57 24 74.5 48.5t17.5 58.5q0 28 -33.5 56.5t-33.5 60.5q0 29 22.5 47t53.5 18zM86 -25q-42 0 -66 26.5t-24 70.5q0 34 27 145l251 987q1 5 8 27t7 35
q0 20 -49 20h-50q-30 0 -40.5 7t-10.5 28q0 13 5 20.5t9.5 9.5t14.5 3q26 2 79 8t87 9t57 3q22 0 33.5 -6t13.5 -14t2 -23q0 -7 -14 -61l-266 -1002q-29 -106 -29 -131q0 -24 25 -24q16 0 33.5 18.5t52.5 67.5q29 40 40.5 51.5t24.5 11.5t21 -8t8 -23q0 -23 -51 -92
q-112 -164 -199 -164z" />
    <glyph glyph-name="Ldot" unicode="&#x13f;" horiz-adv-x="1179" 
d="M174 0q-152 0 -215 -6q-21 -2 -26 4t1 37q6 24 13 32t28 11l76 8q35 4 52.5 24t29.5 66l252 981q14 54 1 69.5t-56 20.5l-76 8q-21 3 -26 12.5t1 32.5q7 29 16 36t29 5q99 -6 207 -6q217 0 305 8q21 2 27.5 -5t-0.5 -35q-5 -18 -8 -26t-11 -13.5t-22 -6.5l-94 -8
q-63 -6 -87 -27t-38 -77l-229 -879q-27 -110 -27 -135q0 -38 31.5 -47.5t132.5 -9.5h82q69 0 110.5 2t91 13.5t78.5 33.5q33 23 80 86t78 129q12 28 21.5 35.5t31.5 7.5q44 0 31 -45l-107 -299q-8 -24 -20.5 -33.5t-36.5 -9.5q-234 6 -727 6zM858 674q0 52 33.5 91.5
t83.5 39.5q41 0 68.5 -29.5t27.5 -73.5q0 -47 -36.5 -85.5t-82.5 -38.5t-70 26.5t-24 69.5z" />
    <glyph glyph-name="ldot" unicode="&#x140;" horiz-adv-x="552" 
d="M379 653q0 48 31 84.5t79 36.5q36 0 60 -27t24 -65q0 -47 -32 -83t-78 -36q-37 0 -60.5 25.5t-23.5 64.5zM86 -25q-42 0 -66 26.5t-24 70.5q0 34 27 145l251 987q1 5 8 27t7 35q0 20 -49 20h-50q-30 0 -40.5 7t-10.5 28q0 13 5 20.5t9.5 9.5t14.5 3q26 2 79 8t87 9t57 3
q22 0 33.5 -6t13.5 -14t2 -23q0 -7 -14 -61l-266 -1002q-29 -106 -29 -131q0 -24 25 -24q16 0 33.5 18.5t52.5 67.5q29 40 40.5 51.5t24.5 11.5t21 -8t8 -23q0 -23 -51 -92q-112 -164 -199 -164z" />
    <glyph glyph-name="Lslash" unicode="&#x141;" horiz-adv-x="1169" 
d="M168 0q-152 0 -215 -6q-21 -2 -26 4t1 37q6 24 13 32t28 11l76 8q35 4 52.5 24t29.5 66l78 307l-92 -57q-70 -42 -72 -11q-1 7 2 17l16 41q6 21 11.5 28t23.5 17l144 88l141 551q14 54 1 69.5t-56 20.5l-76 8q-21 3 -26 12.5t1 32.5q7 29 16 36t29 5q99 -6 207 -6
q217 0 305 8q21 2 27.5 -5t-0.5 -35q-5 -18 -8 -26t-11 -13.5t-22 -6.5l-94 -8q-63 -6 -87 -27t-38 -77l-117 -447l412 250q23 13 35 8.5t6 -26.5l-17 -43q-10 -34 -43 -51l-426 -258l-80 -312q-26 -106 -26 -135q0 -38 31.5 -47.5t132.5 -9.5h82q69 0 110.5 2t91 13.5
t78.5 33.5q33 23 80 86t78 129q12 28 21.5 35.5t31.5 7.5q44 0 31 -45l-107 -299q-8 -24 -20.5 -33.5t-36.5 -9.5q-234 6 -727 6z" />
    <glyph glyph-name="lslash" unicode="&#x142;" horiz-adv-x="479" 
d="M94 -25q-42 0 -66 26.5t-24 70.5q0 34 27 145l98 379l-86 -55q-22 -14 -29 -4t0 34l9 25q5 14 14.5 22.5t42.5 30.5l74 47l129 508q1 4 7.5 26t6.5 36q0 20 -49 20h-49q-30 0 -41 7t-11 28q0 13 5 20.5t9.5 9.5t14.5 3q210 20 225 20q32 0 41 -10.5t9 -32.5
q0 -9 -2 -16.5t-6 -20.5t-7 -24l-133 -500l98 61q22 13 29 8t2 -26l-12 -33q-6 -24 -35 -41l-111 -69l-106 -402q-29 -106 -29 -131q0 -24 25 -24q16 0 33.5 18.5t52.5 67.5q29 40 40.5 51.5t24.5 11.5t21 -8t8 -23q0 -23 -51 -92q-112 -164 -199 -164z" />
    <glyph glyph-name="Nacute" unicode="&#x143;" horiz-adv-x="1454" 
d="M1163 1659q44 -13 57 -21t13 -24q0 -10 -9.5 -15.5t-37.5 -15.5q-190 -67 -355 -139q-7 -3 -15.5 -7t-13 -6.5t-10 -4t-10.5 -1.5q-24 0 -29 17.5t19 34.5q32 22 107 76.5t122 84.5q4 2 19.5 11.5t24 14t21 9t21.5 4.5q18 0 76 -18zM139 0q-114 0 -188 -6q-19 0 -19 16
l5 25q6 25 12.5 32.5t27.5 10.5l60 8q27 3 40.5 14.5t31 55t41.5 137.5l223 864q6 27 6 45q0 24 -15 33t-51 12l-98 10q-31 3 -31 23q0 4 4 20q7 24 16.5 32.5t24.5 8.5q114 -6 320 -6q37 0 53 -16q7 -7 12 -20t13 -39t18 -50l311 -764q64 -157 70 -157q2 0 4 6t5 17.5
t6 23.5t7 29.5t7 29.5l108 416q26 103 54 231.5t28 155.5q0 26 -10.5 36t-40.5 13l-98 10q-29 3 -29 21q0 6 4 22q6 25 13.5 33t21.5 8q114 -6 221 -6q145 0 223 6q21 0 21 -18q0 -7 -4 -23q-6 -23 -14.5 -31.5t-30.5 -11.5l-70 -8q-32 -3 -50.5 -21.5t-41 -80t-57.5 -197.5
l-185 -706q-41 -150 -53 -230q-3 -18 -8.5 -25t-16.5 -12q-27 -12 -51 -12q-10 0 -20 14t-15 31q-3 11 -40.5 105t-51.5 127l-350 839q-23 60 -35 60q-9 0 -21 -47q-2 -9 -3 -13l-117 -463q-29 -113 -96 -407q-11 -51 -11 -82q0 -21 9.5 -30t31.5 -11l92 -10q29 -3 29 -21
q0 -6 -4 -22q-6 -25 -13.5 -33t-21.5 -8q-114 6 -213 6z" />
    <glyph glyph-name="nacute" unicode="&#x144;" horiz-adv-x="956" 
d="M53 -6q-59 0 -59 31q0 10 49 151q63 179 112.5 334.5t49.5 173.5q0 29 -25 29q-24 0 -76 -64q-9 -10 -24 -32t-25 -31.5t-20 -10.5q-13 0 -22 7t-9 18q0 9 7 21t40 63q43 67 97 111.5t104 44.5q36 0 57 -21q24 -24 24 -67.5t-15 -96t-56 -168.5l12 2q5 8 44.5 66.5
t72 100t68.5 77.5q107 107 221 107q55 0 86 -31q28 -28 30 -74t-10.5 -88t-42.5 -121l-108 -286q-2 -4 -9.5 -22.5t-10 -26.5t-6 -22t-3.5 -24q0 -26 23 -26q30 0 63 45q11 13 23.5 29.5t18 23t12.5 14t13 9.5t13 2q9 0 18 -7.5t9 -19.5q0 -10 -7 -24.5t-14 -25t-20 -27.5
t-17 -23q-99 -140 -190 -140q-40 0 -64 23.5t-24 64.5q0 44 41 160l102 289q46 132 48 167q0 49 -50 50q-54 0 -119 -65q-24 -24 -48.5 -52.5t-45.5 -54.5t-42 -55t-37 -52t-32 -48.5t-25 -40t-19 -31t-11 -17.5q-21 -36 -63 -174q-5 -19 -15.5 -48.5t-17.5 -55.5
q-12 -41 -76 -41zM715 1319q41 0 52.5 -15.5t-19.5 -52.5q-176 -184 -228 -247q-28 -39 -53 -39q-15 0 -20.5 12t4.5 37q16 33 55 108.5t61 122.5q20 42 53.5 58t94.5 16z" />
    <glyph glyph-name="Ncommaaccent" unicode="&#x145;" horiz-adv-x="1454" 
d="M573 -125q40 0 66.5 -42.5t26.5 -94.5q0 -82 -71 -141.5t-132 -59.5q-9 0 -16 6t-7 17q0 20 19 28q106 44 106 111q0 19 -11 32.5t-23.5 20.5t-23.5 22t-11 36q0 29 23 47t54 18zM139 0q-114 0 -188 -6q-19 0 -19 16l5 25q6 25 12.5 32.5t27.5 10.5l60 8q27 3 40.5 14.5
t31 55t41.5 137.5l223 864q6 27 6 45q0 24 -15 33t-51 12l-98 10q-31 3 -31 23q0 4 4 20q7 24 16.5 32.5t24.5 8.5q114 -6 320 -6q37 0 53 -16q7 -7 12 -20t13 -39t18 -50l311 -764q64 -157 70 -157q2 0 4 6t5 17.5t6 23.5t7 29.5t7 29.5l108 416q26 103 54 231.5t28 155.5
q0 26 -10.5 36t-40.5 13l-98 10q-29 3 -29 21q0 6 4 22q6 25 13.5 33t21.5 8q114 -6 221 -6q145 0 223 6q21 0 21 -18q0 -7 -4 -23q-6 -23 -14.5 -31.5t-30.5 -11.5l-70 -8q-32 -3 -50.5 -21.5t-41 -80t-57.5 -197.5l-185 -706q-41 -150 -53 -230q-3 -18 -8.5 -25t-16.5 -12
q-27 -12 -51 -12q-10 0 -20 14t-15 31q-3 11 -40.5 105t-51.5 127l-350 839q-23 60 -35 60q-9 0 -21 -47q-2 -9 -3 -13l-117 -463q-29 -113 -96 -407q-11 -51 -11 -82q0 -21 9.5 -30t31.5 -11l92 -10q29 -3 29 -21q0 -6 -4 -22q-6 -25 -13.5 -33t-21.5 -8q-114 6 -213 6z
" />
    <glyph glyph-name="ncommaaccent" unicode="&#x146;" horiz-adv-x="956" 
d="M248 -125q39 0 65.5 -42.5t26.5 -94.5q0 -82 -71 -141.5t-132 -59.5q-9 0 -15.5 6t-6.5 17q0 20 18 28q107 44 107 111q0 19 -11 32.5t-24 20.5t-24 22t-11 36q0 29 23.5 47t54.5 18zM53 -6q-59 0 -59 31q0 10 49 151q63 179 112.5 334.5t49.5 173.5q0 29 -25 29
q-24 0 -76 -64q-9 -10 -24 -32t-25 -31.5t-20 -10.5q-13 0 -22 7t-9 18q0 9 7 21t40 63q43 67 97 111.5t104 44.5q36 0 57 -21q24 -24 24 -67.5t-15 -96t-56 -168.5l12 2q5 8 44.5 66.5t72 100t68.5 77.5q107 107 221 107q55 0 86 -31q28 -28 30 -74t-10.5 -88t-42.5 -121
l-108 -286q-2 -4 -9.5 -22.5t-10 -26.5t-6 -22t-3.5 -24q0 -26 23 -26q30 0 63 45q11 13 23.5 29.5t18 23t12.5 14t13 9.5t13 2q9 0 18 -7.5t9 -19.5q0 -10 -7 -24.5t-14 -25t-20 -27.5t-17 -23q-99 -140 -190 -140q-40 0 -64 23.5t-24 64.5q0 44 41 160l102 289
q46 132 48 167q0 49 -50 50q-54 0 -119 -65q-24 -24 -48.5 -52.5t-45.5 -54.5t-42 -55t-37 -52t-32 -48.5t-25 -40t-19 -31t-11 -17.5q-21 -36 -63 -174q-5 -19 -15.5 -48.5t-17.5 -55.5q-12 -41 -76 -41z" />
    <glyph glyph-name="Ncaron" unicode="&#x147;" horiz-adv-x="1454" 
d="M913 1559l177 88q62 30 71 30q18 0 25.5 -16.5t-8.5 -28.5q-58 -44 -105.5 -78.5t-70 -51t-35.5 -27.5q-72 -56 -88 -56q-4 0 -7.5 1t-6.5 2.5t-6.5 5.5t-6 6.5t-7 8.5t-7 9.5t-7.5 11t-8 11.5q-9 14 -44.5 61t-65.5 90q-13 20 -6.5 35.5t24.5 15.5q6 0 18 -6.5t22.5 -14
l28 -20t25.5 -18.5zM139 0q-114 0 -188 -6q-19 0 -19 16l5 25q6 25 12.5 32.5t27.5 10.5l60 8q27 3 40.5 14.5t31 55t41.5 137.5l223 864q6 27 6 45q0 24 -15 33t-51 12l-98 10q-31 3 -31 23q0 4 4 20q7 24 16.5 32.5t24.5 8.5q114 -6 320 -6q37 0 53 -16q7 -7 12 -20
t13 -39t18 -50l311 -764q64 -157 70 -157q2 0 4 6t5 17.5t6 23.5t7 29.5t7 29.5l108 416q26 103 54 231.5t28 155.5q0 26 -10.5 36t-40.5 13l-98 10q-29 3 -29 21q0 6 4 22q6 25 13.5 33t21.5 8q114 -6 221 -6q145 0 223 6q21 0 21 -18q0 -7 -4 -23q-6 -23 -14.5 -31.5
t-30.5 -11.5l-70 -8q-32 -3 -50.5 -21.5t-41 -80t-57.5 -197.5l-185 -706q-41 -150 -53 -230q-3 -18 -8.5 -25t-16.5 -12q-27 -12 -51 -12q-10 0 -20 14t-15 31q-3 11 -40.5 105t-51.5 127l-350 839q-23 60 -35 60q-9 0 -21 -47q-2 -9 -3 -13l-117 -463q-29 -113 -96 -407
q-11 -51 -11 -82q0 -21 9.5 -30t31.5 -11l92 -10q29 -3 29 -21q0 -6 -4 -22q-6 -25 -13.5 -33t-21.5 -8q-114 6 -213 6z" />
    <glyph glyph-name="ncaron" unicode="&#x148;" horiz-adv-x="956" 
d="M53 -6q-59 0 -59 31q0 10 49 151q63 179 112.5 334.5t49.5 173.5q0 29 -25 29q-24 0 -76 -64q-9 -10 -24 -32t-25 -31.5t-20 -10.5q-13 0 -22 7t-9 18q0 9 7 21t40 63q43 67 97 111.5t104 44.5q36 0 57 -21q24 -24 24 -67.5t-15 -96t-56 -168.5l12 2q5 8 44.5 66.5
t72 100t68.5 77.5q107 107 221 107q55 0 86 -31q28 -28 30 -74t-10.5 -88t-42.5 -121l-108 -286q-2 -4 -9.5 -22.5t-10 -26.5t-6 -22t-3.5 -24q0 -26 23 -26q30 0 63 45q11 13 23.5 29.5t18 23t12.5 14t13 9.5t13 2q9 0 18 -7.5t9 -19.5q0 -10 -7 -24.5t-14 -25t-20 -27.5
t-17 -23q-99 -140 -190 -140q-40 0 -64 23.5t-24 64.5q0 44 41 160l102 289q46 132 48 167q0 49 -50 50q-54 0 -119 -65q-24 -24 -48.5 -52.5t-45.5 -54.5t-42 -55t-37 -52t-32 -48.5t-25 -40t-19 -31t-11 -17.5q-21 -36 -63 -174q-5 -19 -15.5 -48.5t-17.5 -55.5
q-12 -41 -76 -41zM535 938q-14 0 -24.5 16.5t-23.5 53.5l-98 264q-4 12 -4 20q0 12 8.5 19.5t20.5 7.5q14 0 22 -8t23 -33l104 -172l199 190q26 23 41 23q11 0 19.5 -8.5t8.5 -18.5t-8 -20l-213 -264q-32 -41 -46.5 -55.5t-28.5 -14.5z" />
    <glyph glyph-name="Eng" unicode="&#x14a;" horiz-adv-x="1454" 
d="M950 25q-6 23 -88 217l-350 839q-23 60 -35 60q-9 0 -21 -47q-2 -9 -3 -13l-117 -463q-29 -113 -96 -407q-11 -51 -11 -82q0 -21 9.5 -30t31.5 -11l92 -10q29 -3 29 -21q0 -6 -4 -22q-6 -25 -13.5 -33t-21.5 -8q-114 6 -213 6q-114 0 -188 -6q-19 0 -19 16l5 25
q6 25 12.5 32.5t27.5 10.5l60 8q27 3 40.5 14.5t31 55t41.5 137.5l223 864q6 27 6 45q0 24 -15 33t-51 12l-98 10q-31 3 -31 23q0 4 4 20q7 24 16.5 32.5t24.5 8.5q114 -6 320 -6q37 0 53 -16q7 -7 12 -20t13 -39t18 -50l311 -764q64 -157 70 -157q2 0 4 6t5 17.5t6 23.5
t7 29.5t7 29.5l108 416q26 103 54 231.5t28 155.5q0 26 -10.5 36t-40.5 13l-98 10q-29 3 -29 21q0 6 4 22q6 25 13.5 33t21.5 8q114 -6 221 -6q145 0 223 6q21 0 21 -18q0 -7 -4 -23q-6 -23 -14.5 -31.5t-30.5 -11.5l-70 -8q-32 -3 -50.5 -21.5t-41 -80t-57.5 -197.5
l-175 -669q-83 -324 -122 -432q-73 -199 -170 -259q-53 -32 -121 -32q-76 0 -130.5 44.5t-54.5 100.5q0 38 24.5 60t66.5 22q55 0 79 -68q6 -18 10 -26.5t12 -20.5t20 -17t30 -5q45 0 83 84t95 293z" />
    <glyph glyph-name="eng" unicode="&#x14b;" horiz-adv-x="956" 
d="M758 520q-25 -92 -137 -434q-14 -43 -20 -61t-21 -61t-24.5 -64.5t-26.5 -60.5t-31 -60t-33.5 -50.5t-38.5 -46t-42 -33t-49 -23.5t-54 -7q-50 0 -100 28.5t-50 84.5q0 30 19.5 49.5t48.5 19.5q45 0 65 -45q4 -8 9 -21.5t7.5 -18.5t7.5 -12t12 -9t17 -2q26 0 49.5 36
t57.5 130.5t86 275.5q82 284 110.5 393.5t28.5 145.5q0 55 -45 55q-54 0 -119 -65q-24 -24 -48.5 -52.5t-45.5 -54.5t-42 -55t-37 -52t-32 -48.5t-25 -40t-19 -31t-11 -17.5q-21 -36 -63 -174q-5 -19 -15.5 -48.5t-17.5 -55.5q-12 -41 -76 -41q-59 0 -59 31q0 10 49 151
q63 179 112.5 334.5t49.5 173.5q0 29 -25 29q-24 0 -76 -64q-9 -10 -24 -32t-25 -31.5t-20 -10.5q-13 0 -22 7t-9 18q0 9 7 21t40 63q43 67 97 111.5t104 44.5q36 0 57 -21q24 -24 24 -67.5t-15 -96t-56 -168.5l12 2q5 8 44.5 66.5t72 100t68.5 77.5q107 107 221 107
q55 0 86 -31q14 -14 23 -29t11.5 -35.5t3.5 -33.5t-5.5 -42.5t-9.5 -42t-15 -52t-16 -54.5z" />
    <glyph glyph-name="Omacron" unicode="&#x14c;" horiz-adv-x="1361" 
d="M1022 1479h-406q-23 0 -31.5 1.5t-15.5 8t0 20.5l15 47q6 20 18 24.5t45 4.5h406h17.5t13.5 -1t10.5 -2.5t5.5 -5t2.5 -8.5t-2.5 -12l-15 -47q-6 -20 -18 -25t-45 -5zM569 -35q-144 0 -256.5 76.5t-172.5 206.5t-60 289q0 178 86 378q94 212 267.5 333.5t359.5 121.5
q144 0 256.5 -76t172.5 -206t60 -289q0 -179 -86 -379q-94 -212 -267.5 -333.5t-359.5 -121.5zM555 51q139 0 275 129t210 342q64 186 64 367q0 70 -18.5 138t-54 126.5t-94 94.5t-130.5 36q-139 0 -275 -129t-210 -342q-64 -186 -64 -367q0 -70 18.5 -138t54 -126.5
t94 -94.5t130.5 -36z" />
    <glyph glyph-name="omacron" unicode="&#x14d;" horiz-adv-x="774" 
d="M623 1044h-385q-33 0 -43.5 5.5t-4.5 25.5l15 45q6 20 18 24.5t45 4.5h385h17.5t13.5 -1t10.5 -2.5t5.5 -5t2.5 -8.5t-2.5 -12l-14 -45q-6 -20 -18.5 -25.5t-44.5 -5.5zM242 -25q-81 0 -139.5 51t-83.5 123.5t-25 155.5q0 101 42.5 220t125.5 202q54 54 116 83.5
t119 29.5q81 0 139.5 -51.5t83.5 -124t25 -154.5q0 -105 -47 -226.5t-121 -195.5q-113 -113 -235 -113zM221 68q66 0 131 65q73 73 120.5 204.5t47.5 237.5q0 40 -6.5 74.5t-30.5 65t-63 30.5q-66 0 -137 -71q-80 -80 -122 -209.5t-42 -228.5q0 -39 7 -73.5t31.5 -64.5
t63.5 -30z" />
    </font>
</defs>
</svg>
