<?xml version="1.0" standalone="no"?>
<!DOCTYPE svg PUBLIC "-//W3C//DTD SVG 1.1//EN" "http://www.w3.org/Graphics/SVG/1.1/DTD/svg11.dtd" >
<svg xmlns="http://www.w3.org/2000/svg" xmlns:xlink="http://www.w3.org/1999/xlink" version="1.1">
<metadata>
Created by FontForge 20170731 at Tue Jun  8 13:41:06 2021
 By Aleksey,,,
[c] Copyright 2009, The Font Bureau, Inc. Designed by William Berkson. All rights reserved.
</metadata>
<defs>
<font id="WilliamsCaslonText-Regular" horiz-adv-x="983" >
  <font-face 
    font-family="WilliamsCaslonText Regular"
    font-weight="400"
    font-stretch="normal"
    units-per-em="2048"
    panose-1="2 0 5 3 7 0 0 2 0 3"
    ascent="1495"
    descent="-553"
    x-height="811"
    cap-height="1346"
    bbox="-311.167 -543 2386.64 1726"
    underline-thickness="102"
    underline-position="-307"
    unicode-range="U+0020-FB04"
  />
<missing-glyph horiz-adv-x="952" 
d="M49 0v1434h842v-1434h-842zM127 1364v-1296h686v1296h-686z" />
    <glyph glyph-name="f_f" unicode="ff" horiz-adv-x="1185" 
d="M362 799h400q0 241 76 389q-6 -2 -17 -2q-56 0 -96 43q-60 67 -135 67q-38 0 -81.5 -18.5t-70.5 -54.5q-76 -98 -76 -269v-155zM295 0q-119 0 -195 -6q-18 -2 -24 4.5t-6 32.5q0 22 7.5 29.5t24.5 9.5l80 6q24 1 32.5 16.5t8.5 46.5l-6 563h-102q-23 0 -23 27v47
q0 25 39 25h86q0 168 44 284.5t108 182.5q117 123 299 123q79 0 153.5 -35.5t77.5 -79.5q55 60 131.5 92.5t161.5 32.5q68 0 121 -33t53 -78q0 -34 -20.5 -56t-49.5 -22t-50.5 9.5t-51.5 33.5q-26 21 -47.5 27t-56.5 6q-90 0 -140 -78q-43 -65 -43 -262v-149h217
q11 0 16 -6.5t-1 -28.5l-21 -45q-6 -11 -14 -14t-27 -3h-170l6 -563q0 -31 10 -46.5t38 -16.5l83 -6q17 -2 25 -9.5t8 -29.5q0 -26 -6 -32.5t-24 -4.5q-77 6 -187 6q-98 0 -174 -6q-19 -2 -25 4.5t-6 32.5q0 22 8 29.5t25 9.5l39 6q24 1 32.5 16.5t8.5 46.5l-6 561h-400
l7 -561q0 -32 9.5 -47t37.5 -16l43 -6q17 -2 25 -9.5t8 -29.5q0 -26 -6 -32.5t-25 -4.5q-77 6 -166 6z" />
    <glyph glyph-name="f_i" unicode="fi" horiz-adv-x="1099" 
d="M315 0q-139 0 -215 -6q-18 -2 -24 4.5t-6 32.5q0 22 7.5 29.5t24.5 9.5l80 6q24 1 32.5 16.5t8.5 46.5l-6 563h-102q-23 0 -23 29v45q0 25 39 25h84q0 332 147 483q47 50 126.5 83.5t168.5 33.5q61 0 123 -22.5t105 -65.5q49 -49 49 -103q0 -36 -20.5 -61t-65.5 -25
q-64 0 -107 84q-49 95 -155 95q-101 0 -162 -72q-64 -73 -64 -260v-174h242q65 0 164 22q22 5 50.5 14.5t47.5 16t27 6.5q14 0 21.5 -9.5t8.5 -19t1 -28.5q0 -38 -5.5 -155t-5.5 -136l2 -381q0 -27 8.5 -37.5t36.5 -13.5l52 -6q32 -3 32 -39q0 -26 -6 -32.5t-24 -4.5
q-76 6 -150 6q-108 0 -184 -6q-19 -2 -25 4.5t-6 32.5q0 36 33 39l49 6q25 3 34 14t9 37l4 303q2 152 -2 187t-26 57q-14 14 -37.5 20t-43.5 7t-73 1h-232l7 -563q0 -32 9.5 -47t37.5 -16l84 -6q17 -2 24.5 -9.5t7.5 -29.5q0 -26 -6 -32.5t-24 -4.5q-76 6 -187 6z" />
    <glyph glyph-name="f_l" unicode="fl" horiz-adv-x="1107" 
d="M301 0q-125 0 -201 -6q-18 -2 -24 4.5t-6 32.5q0 22 7.5 29.5t24.5 9.5l80 6q24 1 32.5 16.5t8.5 46.5l-4 563h-102q-25 0 -25 23v49q0 15 9.5 21t35.5 6h80q0 179 37 279.5t102 168.5q102 110 289 133q144 19 250 19q31 0 31 -37q0 -45 -2 -163t-2 -134q0 -51 -1 -150.5
t-1 -171.5q0 -36 -1 -207.5t-1 -396.5q0 -31 10.5 -46.5t38.5 -18.5l53 -6q17 -2 25 -9.5t8 -29.5q0 -26 -6 -32.5t-25 -4.5q-76 6 -174 6q-96 0 -172 -6q-19 -2 -27 4.5t-8 32.5q0 22 8 29.5t25 9.5l61 6q24 1 32.5 16.5t8.5 46.5q0 9 -1 270.5t-1 333.5q0 252 -2 324
q0 11 -0.5 32t-0.5 29.5t-0.5 23.5t-1.5 21.5t-2.5 17.5t-3.5 17.5t-4.5 14t-6.5 14.5q-32 57 -129 57q-70 0 -128 -32t-89 -80q-24 -36 -34 -87.5t-10 -148.5v-147h216q26 0 12 -35l-19 -45q-4 -11 -13.5 -14t-37.5 -3h-155l4 -563q0 -32 9.5 -47t37.5 -16l63 -6
q17 -2 25 -9.5t8 -29.5q0 -26 -6 -32.5t-25 -4.5q-77 6 -180 6z" />
    <glyph glyph-name="f_f_i" unicode="ffi" horiz-adv-x="1644" 
d="M362 799h400q0 241 76 389q-6 -2 -17 -2q-45 0 -88 43q-53 53 -143 53q-38 0 -84.5 -19.5t-73.5 -54.5q-70 -90 -70 -254v-155zM299 0q-123 0 -199 -6q-18 -2 -24 4.5t-6 32.5q0 22 7.5 29.5t24.5 9.5l80 6q24 1 32.5 16.5t8.5 46.5l-6 563h-100q-25 0 -25 21v51
q0 16 10 21.5t33 5.5h82q0 167 46 283.5t112 183.5q117 123 293 123q79 0 153.5 -35.5t77.5 -79.5q45 55 128 90t175 35q115 0 211 -74q66 -52 66 -117q0 -36 -20.5 -61t-65.5 -25q-64 0 -107 84q-49 95 -156 95q-104 0 -165 -72q-60 -68 -60 -258v-176h242q65 0 164 22
q22 5 50.5 14.5t47.5 16t27 6.5q11 0 17.5 -4t9 -14.5t3 -16.5t0.5 -22q0 -38 -5 -155t-5 -136l2 -373q0 -31 8.5 -43.5t36.5 -15.5l51 -6q33 -3 33 -39q0 -26 -6 -32.5t-25 -4.5q-76 6 -149 6q-107 0 -184 -6q-19 -2 -25 4.5t-6 32.5q0 36 33 39l49 6q24 3 33.5 16t9.5 43
l4 295q2 175 -6 212t-33 48q-34 15 -143 15h-232l4 -566q0 -31 11 -46.5t39 -16.5l88 -6q17 -2 24.5 -9.5t7.5 -29.5q0 -26 -6 -32.5t-24 -4.5q-76 6 -191 6q-142 0 -219 -6q-19 -2 -25 4.5t-6 32.5q0 22 8 29.5t25 9.5l84 6q24 1 32.5 16.5t8.5 46.5l-4 563h-402l7 -563
q0 -31 9.5 -45t37.5 -18l43 -6q17 -2 25 -9.5t8 -29.5q0 -26 -6 -32.5t-25 -4.5q-77 6 -162 6z" />
    <glyph glyph-name="f_f_l" unicode="ffl" horiz-adv-x="1642" 
d="M309 0q-133 0 -209 -6q-18 -2 -24 4.5t-6 32.5q0 22 7.5 29.5t24.5 9.5l80 6q24 1 32.5 16.5t8.5 46.5l-6 563h-98q-27 0 -27 25v47q0 27 45 27h80q0 168 45.5 284t110.5 183q117 123 293 123q54 0 107 -15t90.5 -46t37.5 -70q50 53 114 78t165 38q189 25 250 25
q30 0 30 -37q0 -45 -2 -168t-2 -139q0 -51 -1 -145.5t-1 -166.5q0 -36 -1 -207.5t-1 -396.5q0 -31 10.5 -46.5t38.5 -18.5l53 -6q17 -2 25 -9.5t8 -29.5q0 -26 -6 -32.5t-25 -4.5q-76 6 -174 6q-96 0 -172 -6q-19 -2 -26.5 4.5t-7.5 32.5q0 22 7.5 29.5t24.5 9.5l62 6
q24 1 32.5 16.5t8.5 46.5q0 9 -1 270.5t-1 333.5q0 242 -2 314v23q-2 100 -13 129l-8 18q-32 57 -129 57q-72 0 -129.5 -27.5t-87.5 -74.5q-22 -33 -28.5 -85.5t-6.5 -160.5v-137h215q24 0 10 -35l-10 -27q-8 -22 -16 -28.5t-21 -6.5h-176l4 -563q0 -32 9.5 -47t37.5 -16
l64 -6q17 -2 25 -9.5t8 -29.5q0 -26 -6 -32.5t-25 -4.5q-76 6 -166 6q-138 0 -215 -6q-19 -2 -25 4.5t-6 32.5q0 22 8 29.5t25 9.5l80 6q24 1 32.5 16.5t8.5 46.5l-4 563h-400l7 -563q0 -32 9.5 -47t37.5 -16l84 -6q17 -2 24.5 -9.5t7.5 -29.5q0 -26 -6 -32.5t-24 -4.5
q-76 6 -193 6zM362 799h398q0 251 82 391q-12 -4 -23 -4q-45 0 -88 43q-53 53 -143 53q-38 0 -84.5 -19.5t-73.5 -54.5q-68 -87 -68 -264v-145z" />
    <glyph glyph-name="f_b" unicode="fb" horiz-adv-x="1624" 
d="M315 0q-139 0 -215 -6q-18 -2 -24 4.5t-6 32.5q0 22 7.5 29.5t24.5 9.5l80 6q24 1 32.5 16.5t8.5 46.5l-4 563h-102q-25 0 -25 23v49q0 11 2 15.5t11.5 8t29.5 3.5h82q0 179 37 279.5t102 168.5q102 110 289 133q144 19 250 19q31 0 31 -39q0 -24 -1 -211t-1 -418
q102 105 260 105q71 0 137.5 -30t117 -82t81 -129.5t30.5 -166.5q0 -112 -36 -202.5t-95 -145.5t-128.5 -84t-141.5 -29q-166 0 -250 94q-11 -11 -27.5 -28.5t-24.5 -26t-18.5 -15.5t-19.5 -7q-18 0 -23.5 12.5t-5.5 40.5q6 256 6 510v412q0 142 -6.5 191.5t-27.5 84.5
q-33 57 -129 57q-70 0 -128 -32t-89 -80q-24 -36 -34 -87.5t-10 -148.5v-147h218q24 0 10 -35l-12 -33q-11 -29 -41 -29h-172l4 -563q0 -32 9.5 -47t37.5 -16l63 -6q17 -2 25 -9.5t8 -29.5q0 -26 -6 -32.5t-25 -4.5q-77 6 -166 6zM1139 55q116 0 180.5 72.5t64.5 245.5
q0 180 -75 277.5t-183 97.5q-86 0 -146 -52.5t-60 -122.5v-317q0 -95 68.5 -148t150.5 -53z" />
    <glyph glyph-name="f_j" unicode="fj" horiz-adv-x="1075" 
d="M315 0q-139 0 -215 -6q-18 -2 -24 4.5t-6 32.5q0 22 7.5 29.5t24.5 9.5l80 6q24 1 32.5 16.5t8.5 46.5l-6 563h-102q-23 0 -23 27v39q0 33 33 33h90q0 332 147 483q47 50 126.5 83.5t168.5 33.5q115 0 211 -74q66 -52 66 -117q0 -36 -20.5 -61t-65.5 -25q-64 0 -107 84
q-49 95 -155 95q-103 0 -166 -74q-60 -68 -60 -258v-172h256q70 0 131 14.5t97 28.5t45 14q15 0 22 -10.5t8 -22t1 -37.5q0 -23 -1.5 -97t-3 -173t-2.5 -151l-4 -422q-1 -137 -31.5 -242.5t-99 -172.5t-168.5 -67q-86 0 -131 32t-45 81q0 31 22.5 56.5t59.5 25.5
q53 0 76 -55q2 -4 5 -12t4.5 -11.5t5 -10t6 -9t6.5 -7t8.5 -6t10.5 -3t13 -1.5q121 0 121 262l-2 764q0 84 -23 109.5t-104 25.5h-281l7 -563q0 -32 9.5 -47t37.5 -16l84 -6q17 -2 24.5 -9.5t7.5 -29.5q0 -26 -6 -32.5t-24 -4.5q-76 6 -187 6z" />
    <glyph glyph-name="f_igrave" unicode="f&#xec;" horiz-adv-x="1200" 
d="M963 0q-117 0 -193 -6q-19 -2 -25 4.5t-6 32.5q0 36 33 39l57 6q27 3 35 13.5t8 37.5l5 307q2 134 -16 179.5t-81 70.5q-30 10 -30 33q0 13 10 20.5t49 28.5q16 8 86 47q11 7 26 16l22.5 13.5t16 9t14.5 6.5t11 2q14 0 21.5 -9.5t8.5 -19t1 -28.5q0 -38 -2 -155t-2 -136
l2 -385q0 -28 8 -38t37 -13l49 -6q33 -3 33 -39q0 -26 -6 -32.5t-25 -4.5q-76 6 -147 6zM801 1231q72 0 93 -11t38 -57q15 -40 30 -89t27 -83q8 -26 2.5 -38.5t-20.5 -12.5q-13 0 -24 9t-29 32q-42 55 -64.5 82t-89.5 98q-32 38 -19 54t56 16zM303 0q-127 0 -203 -6
q-18 -2 -24 4.5t-6 32.5q0 22 7.5 29.5t24.5 9.5l80 6q24 1 32.5 16.5t8.5 46.5l-6 557h-94q-20 0 -25.5 7.5t-5.5 25.5v45q0 27 43 27h82q3 369 123 489q56 56 109.5 83.5t119.5 27.5q60 0 97 -37q24 -24 24 -61q0 -30 -23 -53t-51 -23q-34 0 -77 24q-1 1 -7.5 4.5
t-7.5 4.5t-6.5 4t-7 3.5t-6.5 3t-7.5 3t-7 1.5t-8 1.5t-7.5 1t-9 0.5q-48 0 -75.5 -53t-27.5 -156v-270h213q18 0 21.5 -9t-4.5 -28l-10 -27q-7 -15 -13 -22.5t-10.5 -9t-11.5 -1.5h-185l7 -563q0 -32 9.5 -47t37.5 -16l84 -6q17 -2 24.5 -9.5t7.5 -29.5q0 -26 -6 -32.5
t-24 -4.5q-76 6 -199 6z" />
    <glyph glyph-name="f_idieresis" unicode="f&#xef;" horiz-adv-x="1222" 
d="M686 1069q0 44 31.5 76.5t73.5 32.5t71 -28t29 -67q0 -45 -31.5 -77.5t-73.5 -32.5t-71 28t-29 68zM1008 1069q0 44 31.5 76.5t72.5 32.5q42 0 71 -28t29 -67q0 -45 -31 -77.5t-73 -32.5t-71 28t-29 68zM985 0q-116 0 -192 -6q-19 -2 -25 4.5t-6 32.5q0 36 33 39l57 6
q27 3 35 13.5t8 37.5l4 307q2 134 -15.5 179.5t-80.5 70.5q-31 11 -31 33q0 13 10 20.5t49 28.5q23 11 87 47q11 7 26 16l22.5 13.5t16 9t14.5 6.5t11 2q11 0 17.5 -4t9 -14.5t3 -16.5t0.5 -22q0 -38 -2 -155t-2 -136l2 -385q0 -28 8 -38t37 -13l49 -6q33 -3 33 -39
q0 -26 -6 -32.5t-24 -4.5q-77 6 -148 6zM303 0q-127 0 -203 -6q-18 -2 -24 4.5t-6 32.5q0 22 7.5 29.5t24.5 9.5l80 6q24 1 32.5 16.5t8.5 46.5l-6 557h-94q-20 0 -25.5 7.5t-5.5 25.5v45q0 27 43 27h82q3 369 123 489q56 56 109.5 83.5t119.5 27.5q60 0 97 -37
q24 -24 24 -61q0 -30 -23 -53t-51 -23q-34 0 -77 24q-1 1 -7.5 4.5t-7.5 4.5t-6.5 4t-7 3.5t-6.5 3t-7.5 3t-7 1.5t-8 1.5t-7.5 1t-9 0.5q-48 0 -75.5 -53t-27.5 -156v-270h213q18 0 21.5 -9t-4.5 -28l-10 -27q-7 -15 -13 -22.5t-10.5 -9t-11.5 -1.5h-185l7 -563
q0 -32 9.5 -47t37.5 -16l84 -6q17 -2 24.5 -9.5t7.5 -29.5q0 -26 -6 -32.5t-24 -4.5q-76 6 -199 6z" />
    <glyph glyph-name="f_h" unicode="fh" horiz-adv-x="1613" 
d="M924 670q39 84 110 126t164 42q84 0 142.5 -39.5t82.5 -122.5q19 -68 19 -252v-297q0 -51 47 -53l41 -4q17 -2 25 -9.5t8 -29.5q0 -26 -6 -32.5t-25 -4.5q-76 6 -139 6q-109 0 -185 -6q-18 -2 -24 4.5t-6 32.5q0 21 8 29t24 10l54 4q23 1 29.5 14t6.5 39v262
q0 173 -20 232q-38 104 -156 104q-88 0 -146.5 -70t-57.5 -200l4 -328q0 -19 1.5 -27.5t8.5 -16t22 -9.5l45 -4q31 -3 31 -37q0 -26 -6 -33.5t-22 -5.5q-80 6 -156 6q-62 0 -141 -6q-17 -2 -24 5.5t-7 37.5t31 33l34 4q41 5 41 53q0 175 2 292.5t2 131.5v410
q0 142 -6.5 191.5t-27.5 84.5q-33 57 -129 57q-70 0 -128 -32t-89 -80q-24 -36 -34 -87.5t-10 -148.5v-147h218q26 0 12 -35l-23 -45q-11 -17 -49 -17h-155l4 -563q0 -32 9.5 -47t37.5 -16l63 -6q17 -2 25 -9.5t8 -29.5q0 -26 -6 -32.5t-25 -4.5q-77 6 -166 6
q-139 0 -215 -6q-18 -2 -24 4.5t-6 32.5q0 22 7.5 29.5t24.5 9.5l80 6q24 1 32.5 16.5t8.5 46.5l-4 563h-117q-9 0 -12.5 6t-3.5 25v47q0 21 16 21h115q0 179 37 279.5t102 168.5q102 110 289 133q144 19 250 19q31 0 31 -39q0 -24 -1 -242.5t-1 -449.5z" />
    <glyph glyph-name="f_k" unicode="fk" horiz-adv-x="1533" 
d="M786 520v441q0 142 -6.5 191.5t-27.5 84.5q-33 57 -129 57q-70 0 -128 -32t-89 -80q-24 -36 -34 -87.5t-10 -148.5v-147h218q26 0 12 -35l-23 -45q-11 -17 -49 -17h-155l4 -563q0 -32 9.5 -47t37.5 -16l63 -6q17 -2 25 -9.5t8 -29.5q0 -26 -6 -32.5t-25 -4.5
q-77 6 -166 6q-139 0 -215 -6q-18 -2 -24 4.5t-6 32.5q0 22 7.5 29.5t24.5 9.5l80 6q24 1 32.5 16.5t8.5 46.5l-4 563h-117q-9 0 -12.5 6t-3.5 25v47q0 21 16 21h115q0 179 37 279.5t102 168.5q102 110 289 133q144 19 250 19q31 0 31 -39q0 -24 -1 -186.5t-1 -393.5v-315
q24 1 48 12.5t38.5 23t40.5 34.5q31 27 90 86q57 57 57 82q0 23 -33 26l-39 4q-17 2 -24.5 9.5t-7.5 29.5q0 26 6 32.5t24 4.5q76 -6 207 -6q43 0 119 6q19 2 25 -4.5t6 -32.5q0 -22 -8 -29.5t-25 -9.5l-43 -6q-30 -4 -52.5 -19t-82.5 -69l-197 -176l313 -315
q70 -73 103 -76l47 -4q16 -2 23.5 -9.5t7.5 -29.5q0 -27 -5.5 -33t-23.5 -4q-76 6 -170 6q-90 0 -166 -6q-19 -2 -27 4.5t-8 32.5q0 22 7.5 29.5t23.5 9.5l35 4q27 0 27 20q0 16 -64 79q-4 5 -7 7.5t-7 6.5l-8 8l-177 174q-32 32 -73 34v-264q0 -22 1.5 -33t8.5 -20.5
t22 -11.5l41 -4q16 -2 23.5 -9.5t7.5 -27.5q0 -26 -6.5 -33.5t-22.5 -5.5q-80 6 -151 6q-78 0 -158 -6q-17 -2 -24 5.5t-7 37.5t31 33l51 4q41 5 41 69q4 162 4 377z" />
    <glyph glyph-name="f_f_b" unicode="ffb" horiz-adv-x="2146" 
d="M1907 373q0 179 -76 277t-182 98q-86 0 -146.5 -52.5t-60.5 -122.5v-317q0 -95 68.5 -148t150.5 -53q116 0 181 72.5t65 245.5zM1446 733q102 105 260 105q150 0 258.5 -112t108.5 -296q0 -112 -36.5 -202.5t-95.5 -145.5t-128.5 -84t-141.5 -29q-166 0 -250 94
q-11 -11 -27.5 -28.5t-24.5 -26t-18.5 -15.5t-19.5 -7q-13 0 -19.5 7.5t-7.5 17t-1 28.5q6 256 6 510v412q0 143 -4 190.5t-19 75.5q-32 57 -129 57q-72 0 -129.5 -27.5t-87.5 -74.5q-22 -33 -28.5 -85.5t-6.5 -160.5v-137h215q24 0 10 -35l-10 -27q-8 -22 -16 -28.5
t-21 -6.5h-176l4 -563q0 -32 9.5 -47t37.5 -16l64 -6q17 -2 25 -9.5t8 -29.5q0 -26 -6 -32.5t-25 -4.5q-76 6 -166 6q-138 0 -215 -6q-19 -2 -25 4.5t-6 32.5q0 22 8 29.5t25 9.5l80 6q24 1 32.5 16.5t8.5 46.5l-4 563h-400l7 -563q0 -32 9.5 -47t37.5 -16l84 -6
q17 -2 24.5 -9.5t7.5 -29.5q0 -26 -6 -32.5t-24 -4.5q-76 6 -193 6q-133 0 -209 -6q-18 -2 -24 4.5t-6 32.5q0 22 7.5 29.5t24.5 9.5l80 6q24 1 32.5 16.5t8.5 46.5l-6 563h-98q-27 0 -27 25v47q0 27 45 27h80q0 168 45.5 284t110.5 183q117 123 293 123q54 0 107 -15
t90.5 -46t37.5 -70q50 53 114 78t165 38q189 25 241 25q31 0 31 -37q0 -45 -2 -168t-2 -139q0 -51 -1 -151.5t-1 -172.5zM362 799h398q0 251 82 391q-12 -4 -23 -4q-45 0 -88 43q-53 53 -143 53q-38 0 -84.5 -19.5t-73.5 -54.5q-68 -87 -68 -264v-145z" />
    <glyph glyph-name="f_f_k" unicode="ffk" horiz-adv-x="2056" 
d="M1309 520v441q0 143 -4 190.5t-19 75.5q-32 57 -129 57q-72 0 -129.5 -27.5t-87.5 -74.5q-22 -33 -28.5 -85.5t-6.5 -160.5v-137h215q24 0 10 -35l-10 -27q-8 -22 -16 -28.5t-21 -6.5h-176l4 -563q0 -32 9.5 -47t37.5 -16l64 -6q17 -2 25 -9.5t8 -29.5q0 -26 -6 -32.5
t-25 -4.5q-76 6 -166 6q-138 0 -215 -6q-19 -2 -25 4.5t-6 32.5q0 22 8 29.5t25 9.5l80 6q24 1 32.5 16.5t8.5 46.5l-4 563h-400l7 -563q0 -32 9.5 -47t37.5 -16l84 -6q17 -2 24.5 -9.5t7.5 -29.5q0 -26 -6 -32.5t-24 -4.5q-76 6 -193 6q-133 0 -209 -6q-18 -2 -24 4.5
t-6 32.5q0 22 7.5 29.5t24.5 9.5l80 6q24 1 32.5 16.5t8.5 46.5l-6 563h-98q-27 0 -27 25v47q0 27 45 27h80q0 168 45.5 284t110.5 183q117 123 293 123q54 0 107 -15t90.5 -46t37.5 -70q50 53 114 78t165 38q189 25 241 25q31 0 31 -37q0 -31 -3 -177t-3 -231v-489
q24 1 48 12.5t38.5 23t40.5 34.5q31 27 90 86q57 57 57 82q0 23 -32 26l-39 4q-17 2 -25 9.5t-8 29.5q0 26 6 32.5t25 4.5q77 -6 206 -6q43 0 119 6q19 2 25 -4.5t6 -32.5q0 -22 -8 -29.5t-25 -9.5l-43 -6q-30 -4 -52.5 -19t-82.5 -69l-197 -176l314 -315q70 -73 102 -76
l47 -4q16 -2 23.5 -9.5t7.5 -29.5q0 -27 -5.5 -33t-23.5 -4q-76 6 -170 6q-90 0 -166 -6q-19 -2 -26.5 4.5t-7.5 32.5q0 22 7 29.5t23 9.5l35 4q27 0 27 20q0 16 -64 79q-4 5 -7 7.5t-7 6.5l-8 8l-176 174q-32 32 -74 34v-264q0 -22 1.5 -33.5t9 -20.5t22.5 -11l41 -4
q16 -2 23 -9t7 -28q0 -26 -6 -33.5t-22 -5.5q-80 6 -152 6q-78 0 -158 -6q-17 -2 -23.5 5.5t-6.5 37.5t30 33l52 4q41 5 41 69q4 162 4 377zM362 799h398q0 251 82 391q-12 -4 -23 -4q-45 0 -88 43q-53 53 -143 53q-38 0 -84.5 -19.5t-73.5 -54.5q-68 -87 -68 -264v-145z
" />
    <glyph glyph-name="f_f_h" unicode="ffh" horiz-adv-x="2136" 
d="M1446 668q39 84 110 127t164 43q84 0 143 -39.5t83 -122.5q18 -64 18 -252v-297q0 -51 47 -53l41 -4q17 -2 25 -9.5t8 -29.5q0 -26 -6 -32.5t-25 -4.5q-76 6 -139 6q-108 0 -184 -6q-19 -2 -25 4.5t-6 32.5q0 21 8.5 29t24.5 10l53 4q23 1 30 14.5t7 38.5v262
q0 170 -21 232q-38 104 -155 104q-88 0 -147 -70t-58 -200l4 -328q0 -18 1.5 -27t9 -16.5t22.5 -9.5l45 -4q15 -2 22.5 -9.5t7.5 -27.5q0 -26 -6 -33.5t-22 -5.5q-80 6 -156 6q-62 0 -141 -6q-17 -2 -24 5.5t-7 37.5t31 33l35 4q41 5 41 53q0 175 2 292.5t2 131.5v407
q0 144 -4 193t-19 76q-32 57 -129 57q-72 0 -129.5 -27.5t-87.5 -74.5q-22 -33 -28.5 -85.5t-6.5 -160.5v-137h215q24 0 10 -35l-10 -27q-8 -22 -16 -28.5t-21 -6.5h-176l4 -563q0 -32 9.5 -47t37.5 -16l64 -6q17 -2 25 -9.5t8 -29.5q0 -26 -6 -32.5t-25 -4.5q-76 6 -166 6
q-138 0 -215 -6q-19 -2 -25 4.5t-6 32.5q0 22 8 29.5t25 9.5l80 6q24 1 32.5 16.5t8.5 46.5l-4 563h-400l7 -563q0 -32 9.5 -47t37.5 -16l84 -6q17 -2 24.5 -9.5t7.5 -29.5q0 -26 -6 -32.5t-24 -4.5q-76 6 -193 6q-133 0 -209 -6q-18 -2 -24 4.5t-6 32.5q0 22 7.5 29.5
t24.5 9.5l80 6q24 1 32.5 16.5t8.5 46.5l-6 563h-98q-27 0 -27 25v47q0 27 45 27h80q0 168 45.5 284t110.5 183q117 123 293 123q54 0 107 -15t90.5 -46t37.5 -70q50 53 114 78t165 38q189 25 241 25q31 0 31 -37q0 -45 -2 -168t-2 -139q0 -51 -1 -184t-1 -205zM362 799h398
q0 251 82 391q-12 -4 -23 -4q-45 0 -88 43q-53 53 -143 53q-38 0 -84.5 -19.5t-73.5 -54.5q-68 -87 -68 -264v-145z" />
    <glyph glyph-name=".notdef" horiz-adv-x="952" 
d="M49 0v1434h842v-1434h-842zM127 1364v-1296h686v1296h-686z" />
    <glyph glyph-name=".null" horiz-adv-x="0" 
 />
    <glyph glyph-name="nonmarkingreturn" horiz-adv-x="682" 
 />
    <glyph glyph-name="space" unicode=" " horiz-adv-x="512" 
 />
    <glyph glyph-name="exclam" unicode="!" horiz-adv-x="565" 
d="M283 1278q61 0 86.5 -36t25.5 -91q0 -21 -15 -120.5t-31.5 -286t-20.5 -412.5q0 -14 -8.5 -22.5t-18.5 -8.5h-41q-24 0 -24 31q-4 226 -20.5 412.5t-31 286t-14.5 120.5q0 55 26 91t87 36zM281 -29q-48 0 -79.5 33.5t-31.5 79.5q0 50 33 82.5t82 32.5q50 0 80 -32.5
t30 -82.5q0 -46 -32 -79.5t-82 -33.5z" />
    <glyph glyph-name="quotedbl" unicode="&#x22;" horiz-adv-x="622" 
d="M434 1403q49 0 68 -31t12 -76l-51 -331q-4 -21 -14 -21h-27q-12 0 -16 21l-52 331q-7 44 12.5 75.5t67.5 31.5zM188 1403q49 0 67 -31t11 -76l-49 -331q-5 -21 -16 -21h-25q-13 0 -18 21l-49 331q-7 45 11 76t68 31z" />
    <glyph glyph-name="numbersign" unicode="#" 
d="M514 2h-37q-20 0 -23.5 5t1.5 30l73 344h-225l-78 -363q-3 -16 -24 -16h-54q-12 0 -16 3.5t-2 12.5l78 363h-125q-24 0 -33 1t-14.5 8t-1.5 22l10 45q6 22 13.5 26t33.5 4h139l64 295h-141q-24 0 -31.5 4.5t-3.5 20.5l12 59q5 23 45 23h141l72 346q6 20 23 20h55
q17 0 20 -5.5t0 -14.5l-73 -346h225l74 346q1 9 2 12t4.5 5.5t11.5 2.5h62q21 0 16 -20l-72 -346h133q19 0 25.5 -1t12 -8.5t-0.5 -23.5l-8 -43q-3 -15 -8.5 -22t-10.5 -8t-16 -1h-151l-62 -295h135h20.5t12 -1.5t8 -4.5t0.5 -8.5t-2 -15.5l-10 -45q-3 -15 -8 -22t-9.5 -8
t-15.5 -1h-153l-82 -361q-3 -11 -9.5 -14.5t-21.5 -3.5zM389 782l-61 -295h223l63 295h-225z" />
    <glyph glyph-name="dollar" unicode="$" 
d="M489 -209q-25 0 -31.5 5.5t-6.5 19.5v184q-129 3 -267 80q-24 -31 -43 -31q-25 0 -28 27q-6 82 -15 254q-2 41 33 41q19 0 41 -54q38 -92 104 -153q76 -76 175 -84v493q-58 21 -97 38.5t-84.5 48t-72.5 65.5t-45.5 88t-18.5 119q0 58 19.5 110.5t57 97t100 73t141.5 34.5
v146q0 12 1 16.5t9.5 8t27.5 3.5q32 0 40 -4.5t8 -19.5v-150q98 -23 174 -69q8 6 17 14l13.5 12t12 7t16.5 3q5 0 13.5 -6.5t9.5 -19.5l16 -244q2 -11 -6.5 -20t-22.5 -9q-13 0 -21 8.5t-18 28.5q-99 185 -204 217v-448q36 -14 53.5 -20.5t58 -26t64 -36.5t56 -46.5
t50.5 -60.5t31.5 -75t13.5 -94q0 -144 -90.5 -242.5t-236.5 -115.5v-188q0 -25 -48 -25zM537 80q77 13 132.5 73.5t55.5 149.5q0 174 -188 242v-465zM451 748v428q-51 -4 -90 -26t-59.5 -52.5t-30 -59t-9.5 -51.5q0 -180 189 -239z" />
    <glyph glyph-name="percent" unicode="%" horiz-adv-x="1343" 
d="M606 1008q0 -86 -37.5 -184.5t-99.5 -157.5q-98 -95 -193 -95q-69 0 -116 40t-66.5 99t-19.5 132q0 84 34 181t103 163q97 94 192 94q90 0 148 -74q23 -19 79.5 -38t108.5 -19q78 0 171 37.5t134 97.5q12 17 21 19.5t33 -9.5q26 -15 29.5 -25t-9.5 -32
q-29 -48 -380.5 -600t-430.5 -674q-14 -23 -23 -24.5t-42 16.5q-15 8 -18.5 15.5t-0.5 15t15 28.5q596 949 714 1127q-51 -43 -98 -60.5t-111 -17.5q-77 0 -151 51q14 -48 14 -106zM940 -35q-69 0 -116.5 40t-67 99.5t-19.5 131.5q0 84 34 181t103 163q97 94 193 94
q99 0 151 -80t52 -193q0 -86 -37.5 -184.5t-99.5 -157.5q-97 -94 -193 -94zM926 51q57 0 102 45q67 65 99 165.5t32 195.5q0 131 -78 131q-54 0 -104 -47q-65 -63 -98 -167.5t-33 -191.5q0 -51 17.5 -91t62.5 -40zM262 657q58 0 103 45q67 65 99 165.5t32 195.5
q0 131 -78 131q-55 0 -105 -47q-65 -63 -98 -167.5t-33 -191.5q0 -51 17.5 -91t62.5 -40z" />
    <glyph glyph-name="ampersand" unicode="&#x26;" horiz-adv-x="1556" 
d="M520 -37q-97 0 -176.5 33.5t-128 86.5t-74.5 113.5t-26 118.5q0 50 13 97.5t40.5 90t54.5 76.5t70.5 71.5t73 60.5t75.5 57q-52 45 -75.5 67t-51.5 54.5t-38.5 61.5t-10.5 63q0 86 56 164.5t137.5 123t158.5 44.5q93 0 164.5 -76.5t71.5 -167.5q0 -73 -52 -147t-169 -160
q111 -85 190.5 -172.5t177.5 -235.5q83 112 131 226.5t48 179.5q0 34 -33 41l-76 14q-10 2 -15 3.5t-11.5 6t-9.5 12t-3 19.5q0 28 10.5 34.5t36.5 6.5q39 0 101 -4t114 -4q42 0 107.5 4t85.5 4q12 0 17.5 -2t9.5 -11.5t4 -29.5q0 -13 -7 -20.5t-13.5 -9.5t-20.5 -5l-84 -12
q-36 -5 -56 -25t-37 -53q-23 -41 -71 -139.5t-92.5 -178t-89.5 -139.5q51 -89 115 -145t122 -56q46 0 90.5 27.5t98.5 97.5q15 20 33 14.5t18 -26.5q0 -11 -13 -43q-29 -70 -106 -137.5t-168 -67.5q-89 0 -156.5 48t-144.5 169q-33 -36 -52 -56t-63 -56.5t-83 -57t-97.5 -37
t-120.5 -16.5zM561 848q39 29 53.5 40t44 37t41 43t22.5 43.5t11 53.5q0 67 -50.5 128.5t-119.5 61.5q-66 0 -126 -58t-60 -118q0 -61 35.5 -107.5t148.5 -123.5zM569 88q92 0 175 51.5t147 120.5q-125 190 -203 280t-180 173q-14 -13 -55.5 -49.5t-65 -60t-53 -60.5
t-44 -77t-14.5 -83q0 -127 88 -211t205 -84z" />
    <glyph glyph-name="quotesingle" unicode="'" horiz-adv-x="370" 
d="M186 1403q48 0 65.5 -31t10.5 -76l-47 -331q-4 -21 -16 -21h-25q-14 0 -18 21l-47 331q-7 45 10.5 76t66.5 31z" />
    <glyph glyph-name="parenleft" unicode="(" horiz-adv-x="706" 
d="M289 512q0 -228 83 -445t216 -380q8 -9 8.5 -21t-6.5 -18l-27 -21q-21 -16 -45 11q-167 191 -269 420t-102 454q0 228 97 457t262 415q24 27 45 11l27 -21q8 -6 8 -16t-8 -19q-130 -162 -209.5 -381t-79.5 -446z" />
    <glyph glyph-name="parenright" unicode=")" horiz-adv-x="706" 
d="M418 512q0 226 -80.5 445.5t-210.5 381.5q-17 21 0 35l25 21q21 16 45 -11q166 -187 264 -415.5t98 -456.5q0 -224 -103.5 -452.5t-271.5 -421.5q-24 -27 -45 -11l-24 21q-7 6 -6.5 18t8.5 21q134 163 217.5 380.5t83.5 444.5z" />
    <glyph glyph-name="asterisk" unicode="*" horiz-adv-x="747" 
d="M379 788q-28 0 -48 19t-20 51q0 20 19 81t20 105l-4 5q-33 -19 -65 -55t-57 -59.5t-54 -23.5q-32 0 -50 21.5t-18 46.5q0 31 20 46t48 18t73.5 14.5t82.5 32.5v4q-33 18 -78.5 28t-74.5 14t-50 20t-21 48q0 27 17.5 48.5t46.5 21.5q28 0 52 -23.5t57.5 -62t72.5 -60.5
l2 2q-1 42 -21 108.5t-20 82.5q0 36 23.5 55t44.5 19q25 0 46 -19t21 -55q0 -17 -24 -82.5t-25 -108.5l4 -2q29 18 55 46.5t40.5 50.5t35.5 38.5t43 16.5q34 0 52 -23.5t18 -48.5q0 -38 -28 -53t-89 -27.5t-102 -33.5v-4q33 -20 77.5 -31t73 -14.5t49.5 -20t21 -49.5
q0 -29 -17.5 -49.5t-45.5 -20.5q-29 0 -54.5 23t-59.5 61t-69 60l-4 -5q2 -39 26.5 -102t24.5 -82q0 -34 -18.5 -53t-48.5 -19z" />
    <glyph glyph-name="plus" unicode="+" 
d="M545 967v-279h262q23 0 32.5 -1.5t16 -8.5t6.5 -23v-34q0 -22 -11 -26.5t-44 -4.5h-262v-291q0 -23 -1 -32.5t-8.5 -17t-23.5 -7.5h-39q-23 0 -28 12t-5 45v291h-264q-23 0 -32 1t-16 8t-7 22v34q0 23 11.5 28t43.5 5h264v279q0 23 1 32.5t8.5 17t23.5 7.5h39
q23 0 28 -12t5 -45z" />
    <glyph glyph-name="comma" unicode="," horiz-adv-x="475" 
d="M391 33q0 -64 -29.5 -130t-69.5 -112t-77.5 -75t-56.5 -29q-13 0 -22 7.5t-9 18.5q0 18 18 31q119 94 119 209q0 31 -11 54t-26.5 36t-31 24.5t-26.5 28.5t-11 39q0 40 25.5 69t72.5 29q61 0 98 -56.5t37 -143.5z" />
    <glyph glyph-name="hyphen" unicode="-" horiz-adv-x="669" 
d="M109 373q-15 0 -21 5.5t-2 22.5l10 37q7 23 15.5 28t35.5 5h418q14 0 18.5 -6.5t0.5 -24.5l-11 -37q-7 -22 -17.5 -26t-47.5 -4h-399z" />
    <glyph glyph-name="hyphen" unicode="&#xad;" horiz-adv-x="669" 
d="M109 373q-15 0 -21 5.5t-2 22.5l10 37q7 23 15.5 28t35.5 5h418q14 0 18.5 -6.5t0.5 -24.5l-11 -37q-7 -22 -17.5 -26t-47.5 -4h-399z" />
    <glyph glyph-name="period" unicode="." horiz-adv-x="528" 
d="M150 82q0 53 34.5 90t79.5 37q47 0 80 -33.5t33 -79.5q0 -55 -33.5 -92t-83.5 -37q-46 0 -78 34t-32 81z" />
    <glyph glyph-name="slash" unicode="/" horiz-adv-x="665" 
d="M158 -39h-76q-9 0 -12 7t0 16l417 1364q6 18 12 24t17 6h68q12 0 14.5 -6.5t-2.5 -23.5l-420 -1371q-5 -16 -18 -16z" />
    <glyph glyph-name="zero" unicode="0" horiz-adv-x="962" 
d="M481 -31q-84 0 -153.5 40t-115.5 106t-78 154t-46 181t-14 191q0 91 13 178t44 171.5t76.5 148t116 102.5t157.5 39t157.5 -39t116.5 -102.5t77 -148t44 -171.5t13 -178q0 -123 -23.5 -238.5t-70.5 -214.5t-128.5 -159t-185.5 -60zM481 53q52 0 94 37.5t68.5 97
t44.5 138.5t25.5 157.5t7.5 157.5q0 103 -12.5 196.5t-39.5 176.5t-75.5 132.5t-112.5 49.5t-112.5 -49.5t-75 -132.5t-39 -176.5t-12.5 -196.5q0 -101 12.5 -198.5t39 -188t75 -146t112.5 -55.5z" />
    <glyph glyph-name="one" unicode="1" horiz-adv-x="772" 
d="M430 4q-152 0 -262 -10q-21 -2 -29 6t-8 35q0 23 8.5 33.5t30.5 11.5l115 10q45 3 59 16t14 52v739q0 89 -3 111t-21 22q-9 0 -29 -9.5t-46.5 -25t-37.5 -20.5l-65 -35q-28 -14 -47 8q-17 26 -14.5 38.5t22.5 25.5q75 49 305 229q46 39 59 39q33 0 33 -37
q-6 -462 -6 -514v-565q0 -41 14 -55t56 -19l94 -10q22 -3 30.5 -12.5t8.5 -32.5q0 -27 -8 -35t-29 -6q-110 10 -244 10z" />
    <glyph glyph-name="two" unicode="2" horiz-adv-x="966" 
d="M418 0q-195 0 -322 -8q-43 -2 -43 33q0 32 47 69q149 134 234 225q65 69 115 132.5t96 137.5t71 151t25 151q0 136 -63.5 200t-159.5 64q-75 0 -134 -42.5t-120 -121.5q-18 -26 -45 -26q-22 0 -35.5 17t0.5 42q61 109 163.5 182.5t225.5 73.5q162 0 250 -92t88 -258
q0 -75 -26 -152.5t-73.5 -149t-89 -123.5t-96.5 -110q-125 -136 -262 -262h344q56 0 85 10.5t57 40.5q12 14 27 46t16 34q17 23 36 23q14 0 22.5 -10.5t4.5 -24.5q-27 -77 -84 -264q-6 -21 -14.5 -28t-22.5 -7q-18 0 -37 29q-7 12 -21.5 15t-58.5 3h-200z" />
    <glyph glyph-name="three" unicode="3" 
d="M674 303q0 45 -12 84.5t-27.5 67.5t-42.5 54.5t-46.5 41t-50.5 30t-41.5 20t-33.5 13.5q-31 14 -31 33q0 13 25 35q109 90 156.5 154.5t47.5 150.5q0 77 -44 124.5t-128 47.5q-120 0 -204 -129q-15 -26 -26.5 -34.5t-29.5 -8.5q-15 0 -27.5 14.5t-6.5 34.5
q29 84 125.5 164t211.5 80q129 0 206 -63t77 -185q0 -80 -48 -148t-163 -165q135 -66 206 -155.5t71 -213.5q0 -157 -103 -260q-56 -56 -143.5 -88.5t-183.5 -32.5q-81 0 -151 24.5t-110 59.5q-59 53 -59 101q0 26 22 50.5t60 24.5q26 0 48 -18t50 -61q62 -97 148 -97
q112 0 185 69.5t73 180.5z" />
    <glyph glyph-name="four" unicode="4" 
d="M692 0h-74q-23 0 -27.5 5t-4.5 26v313h-502q-49 0 -49 33q0 18 76 127l495 684q56 79 82 92q7 4 14 4q20 0 25.5 -14t5.5 -49v-756h156q18 0 23.5 -7.5t5.5 -23.5v-69q0 -13 -5.5 -17t-23.5 -4h-156v-313q0 -21 -8 -26t-33 -5zM586 461v477q0 59 -6 59q-5 0 -41 -49
l-320 -438q-22 -28 -22 -37q0 -12 43 -12h346z" />
    <glyph glyph-name="five" unicode="5" horiz-adv-x="866" 
d="M311 -31q-40 0 -81 6t-81.5 18.5t-66 36.5t-25.5 56q0 30 23 53t57 23q33 0 78 -45q21 -21 35.5 -32.5t40 -20.5t57.5 -9q36 0 79 18.5t84.5 53t69 95t27.5 134.5q0 130 -71 201q-95 98 -314 98q-18 0 -27.5 1t-19.5 9.5t-10 24.5q0 19 4 43l68 402q9 58 20 82t28 31
t58 7h291q45 0 61 5t25 26q16 39 45 39q11 0 17.5 -9.5t2.5 -29.5l-32 -160q-1 -13 -8.5 -16.5t-24.5 -3.5h-389l-49 -305q125 0 217.5 -35t142.5 -84q117 -110 117 -281q0 -98 -39 -181t-103.5 -137t-144 -84t-162.5 -30z" />
    <glyph glyph-name="six" unicode="6" 
d="M498 -31q-122 0 -208.5 66t-125.5 170.5t-39 236.5q0 204 77 371t199 287q90 88 181.5 136t150.5 48q39 0 39 -39q0 -27 -41 -45q-135 -66 -225 -156q-159 -159 -209 -432q110 136 262 136q147 0 238.5 -97.5t91.5 -279.5q0 -103 -49.5 -194.5t-140.5 -149.5t-201 -58z
M733 369q0 51 -10.5 98.5t-33.5 90.5t-65.5 69t-99.5 26q-111 0 -174 -73.5t-63 -206.5q0 -51 12 -103.5t36.5 -101.5t69 -80t101.5 -31q104 0 165.5 94t61.5 218z" />
    <glyph glyph-name="seven" unicode="7" horiz-adv-x="858" 
d="M289 -12h-58q-17 0 -25.5 1t-15 7.5t-6.5 19.5q0 8 27 74q34 80 135.5 290t221 453t137.5 281h-474q-43 0 -62.5 -11.5t-51.5 -62.5q-20 -34 -49 -34q-18 0 -25.5 16t2.5 39q90 185 102 225q17 39 41 39q11 0 19 -9t8 -22q0 -18 2.5 -24t18 -10.5t51.5 -4.5h520
q35 0 35 -28q0 -19 -8 -35q-319 -707 -463 -1139q-12 -39 -28 -52t-54 -13z" />
    <glyph glyph-name="eight" unicode="8" 
d="M504 -31q-161 0 -267 79t-106 220q0 59 21 111.5t67.5 100t72 68.5t81.5 61q5 4 8.5 6.5t7.5 5.5q-120 91 -165.5 156.5t-45.5 162.5q0 148 102 244t257 96q139 0 226 -77.5t87 -198.5q0 -180 -242 -332q256 -151 256 -359q0 -150 -102.5 -247t-257.5 -97zM537 713
q98 72 136 136.5t38 143.5t-50 140t-137 61q-92 0 -145 -53q-64 -64 -64 -164q0 -73 51.5 -133t170.5 -131zM465 584q-83 -55 -133.5 -133.5t-50.5 -157.5q0 -105 63 -170.5t162 -65.5q95 0 154 61.5t59 157.5t-64.5 169t-189.5 139z" />
    <glyph glyph-name="nine" unicode="9" 
d="M487 1280q94 0 167.5 -38.5t119 -105.5t69 -152.5t23.5 -184.5q0 -111 -25.5 -215.5t-67.5 -185.5t-96.5 -151.5t-113 -120.5t-115.5 -86t-105 -53.5t-81 -17.5q-39 0 -39 39q0 25 49 49q105 54 180.5 118.5t123 140t75 152t45.5 173.5q-96 -111 -254 -111
q-61 0 -119.5 21t-109.5 61.5t-82 110.5t-31 158q0 160 110 279.5t277 119.5zM256 881q0 -57 20 -112.5t71 -98.5t124 -43q43 0 83.5 14.5t76 43t57 79t21.5 115.5q0 51 -13.5 103.5t-39.5 100.5t-71.5 78.5t-103.5 30.5q-106 0 -165.5 -92t-59.5 -219z" />
    <glyph glyph-name="colon" unicode=":" horiz-adv-x="563" 
d="M172 96q0 53 35 90t80 37q47 0 79.5 -33t32.5 -79q0 -55 -33 -92t-83 -37q-46 0 -78.5 33.5t-32.5 80.5zM168 678q0 53 35 90t80 37q47 0 79.5 -33.5t32.5 -79.5q0 -55 -33 -92t-83 -37q-46 0 -78.5 34t-32.5 81z" />
    <glyph glyph-name="semicolon" unicode=";" horiz-adv-x="563" 
d="M399 45q0 -64 -29.5 -130t-69.5 -112t-77.5 -75t-56.5 -29q-13 0 -22 8t-9 19q0 16 19 30q58 50 88 98.5t30 110.5q0 31 -11 54t-26.5 36t-31 24.5t-26.5 28.5t-11 39q0 40 25.5 69.5t72.5 29.5q61 0 98 -56.5t37 -144.5zM160 678q0 53 34.5 90t79.5 37q47 0 80 -33.5
t33 -79.5q0 -55 -33.5 -92t-83.5 -37q-46 0 -78 34t-32 81z" />
    <glyph glyph-name="less" unicode="&#x3c;" 
d="M217 645l617 -223q20 -8 20 -33v-57q0 -24 -20 -17l-687 254q-22 9 -22 35v82q0 20 33 37l676 254q22 13 22 -14v-54q0 -29 -22 -39z" />
    <glyph glyph-name="equal" unicode="=" 
d="M805 479h-629q-33 0 -44 4.5t-11 26.5v35q0 23 11 28t44 5h629q23 0 32.5 -1.5t16 -8.5t6.5 -23v-35q0 -22 -11 -26.5t-44 -4.5zM805 711h-629q-19 0 -25.5 0.5t-15.5 3t-11.5 9t-2.5 17.5v37q0 23 11 28t44 5h629q23 0 32.5 -1.5t16 -8.5t6.5 -23v-37q0 -11 -2.5 -17.5
t-11.5 -9t-15.5 -3t-25.5 -0.5z" />
    <glyph glyph-name="greater" unicode="&#x3e;" 
d="M147 422l617 223l-617 225q-22 10 -22 39v54q0 27 22 14l676 -254q33 -17 33 -37v-82q0 -26 -22 -35l-687 -254q-20 -7 -20 17v57q0 25 20 33z" />
    <glyph glyph-name="question" unicode="?" horiz-adv-x="727" 
d="M395 571h-28q-25 0 -36.5 -23.5t-11.5 -49.5v-179q0 -43 -22 -43h-43q-27 0 -27 43v347q0 15 2.5 25.5t12.5 20t28 7.5l62 -6q36 -4 57 -4q19 0 51 4q74 13 110 52t36 87q0 64 -55 120t-126 87.5t-145 46.5q-86 16 -86 90q0 34 30 58t83 24q63 0 136.5 -40.5t123.5 -96.5
q49 -56 83 -134.5t34 -146.5q0 -59 -12.5 -107t-41.5 -91t-83.5 -67t-131.5 -24zM272 -31q-45 0 -75.5 32.5t-30.5 76.5q0 47 32 79.5t78 32.5q49 0 78 -31t29 -79q0 -44 -31.5 -77.5t-79.5 -33.5z" />
    <glyph glyph-name="at" unicode="@" horiz-adv-x="1579" 
d="M754 -274q-104 0 -194 22.5t-154.5 60.5t-117 88.5t-86 104.5t-55.5 111.5t-31.5 107t-9.5 92.5q0 172 58.5 324.5t163 264.5t258.5 177.5t334 65.5q129 0 237.5 -41.5t180.5 -113t111.5 -166t39.5 -199.5q0 -161 -80 -309t-219 -228q-88 -49 -186 -49q-43 0 -64.5 28.5
t-21.5 77.5q0 13 4.5 40t11 60t8.5 48h-6q-158 -254 -334 -254q-74 0 -121 60t-47 141q0 151 111 344q17 28 39.5 59.5t62 74.5t81.5 76t97.5 56.5t110.5 23.5q30 0 65.5 -12t55.5 -43q18 43 37.5 56.5t74.5 13.5q27 0 27 -23q0 -8 -3.5 -20.5t-13.5 -47t-20 -73.5
l-104 -395q-27 -118 -27 -156q0 -18 12.5 -30.5t32.5 -12.5q45 0 99 36t96 91q55 74 86.5 172t31.5 176q0 115 -40 204t-109.5 141.5t-154.5 79t-183 26.5q-142 0 -265 -59.5t-206 -158t-130.5 -228.5t-47.5 -269q0 -106 37 -202t101.5 -168t159.5 -115t204 -43
q188 0 356 84q12 6 25 6q14 0 24 -11t10 -30q0 -30 -26 -43q-180 -94 -387 -94zM649 553q-71 -145 -71 -277q0 -40 26 -80t66 -40q37 0 76 23.5t72 60.5t56 69.5t41 63.5q97 166 97 313q0 39 -22.5 75t-65.5 36q-76 0 -152 -75.5t-123 -168.5z" />
    <glyph glyph-name="A" unicode="A" horiz-adv-x="1361" 
d="M219 2q-88 0 -176 -8q-21 -2 -28 5t-7 34q0 23 7.5 31.5t29.5 13.5l57 10q35 6 57.5 40.5t55.5 129.5l297 846q28 77 14 117q-13 34 31 55q86 46 127 84q29 29 53 29q16 0 23 -9t18 -41l367 -1048q44 -129 63 -164t54 -39l57 -10q22 -3 30.5 -12.5t8.5 -32.5
q0 -27 -8 -34t-29 -5q-88 8 -203 8q-172 0 -260 -8q-21 -2 -29 5t-8 34q0 23 8.5 32.5t30.5 12.5l103 12q36 4 36 39q0 13 -4 33t-8.5 34.5t-11.5 35.5t-8 26l-93 272h-452l-92 -274q-35 -109 -35 -129q0 -15 10 -26.5t25 -12.5l86 -10q22 -3 30.5 -12.5t8.5 -32.5
q0 -27 -8 -34t-29 -5q-88 8 -199 8zM453 618h389l-176 525q-13 35 -19 37q-9 0 -18 -31z" />
    <glyph glyph-name="B" unicode="B" horiz-adv-x="1239" 
d="M629 74q87 0 151.5 21.5t100.5 60t52.5 84t16.5 100.5q0 168 -105 240.5t-296 72.5q-77 0 -100 -4v-444q0 -81 35.5 -106t144.5 -25zM547 735q155 0 255.5 68t100.5 198q0 117 -69 191t-216 74q-86 0 -137 -13q-21 -6 -26.5 -17t-5.5 -36v-461q27 -4 98 -4zM360 2
q-150 0 -260 -10q-21 -2 -29 6t-8 35q0 23 8.5 32.5t30.5 12.5l91 12q45 6 61 20.5t16 49.5v1011q0 38 -15 57t-50 23l-96 11q-22 1 -30.5 11.5t-8.5 33.5q0 27 7.5 34t28.5 5q118 -5 252 -5q29 0 134.5 2.5t171.5 2.5q191 0 306 -86t115 -248q0 -119 -89.5 -203
t-215.5 -100q64 -5 127.5 -30.5t119 -68t90 -109t34.5 -145.5q0 -55 -15 -105.5t-50 -98t-88.5 -82t-136 -55.5t-185.5 -21q-79 0 -184.5 4t-131.5 4z" />
    <glyph glyph-name="C" unicode="C" horiz-adv-x="1409" 
d="M776 -39q-158 0 -288.5 57t-216 156t-132.5 232t-47 286q0 137 51.5 261.5t143 218t226.5 149t292 55.5q117 0 212 -34.5t187 -102.5l39 39q20 20 39 20q25 0 25 -34q-2 -49 -0.5 -90t6 -98.5t6.5 -86.5q2 -20 -3.5 -26.5t-31.5 -12.5q-13 -3 -22 1.5t-13.5 11.5
t-11.5 22l-47 80q-138 227 -385 227q-106 0 -193.5 -37.5t-144.5 -97.5t-96.5 -138t-56.5 -156.5t-17 -155.5q0 -123 36.5 -235.5t101.5 -199t164.5 -137.5t217.5 -51q136 0 242 53.5t207 165.5q15 14 24.5 13.5t28.5 -13.5q20 -14 23.5 -22.5t-7.5 -26.5
q-223 -293 -559 -293z" />
    <glyph glyph-name="D" unicode="D" horiz-adv-x="1509" 
d="M680 74q246 0 389 167t143 433q0 95 -20 181t-63 161.5t-105.5 130.5t-152.5 87t-199 32q-116 0 -166 -15q-32 -9 -43.5 -31t-11.5 -67v-950q0 -78 46 -103.5t183 -25.5zM360 2q-176 0 -264 -8q-21 -2 -29 5t-8 34q0 23 8.5 32.5t30.5 12.5l101 12q37 5 54 19.5t17 48.5
v1013q0 39 -15.5 57t-51.5 23l-105 11q-22 3 -30.5 11.5t-8.5 31.5q0 29 8 36t29 5q110 -5 264 -5q19 0 128.5 2.5t226.5 2.5q147 0 266.5 -37t199.5 -100t134 -150t78 -183t24 -202q0 -300 -184 -484q-196 -196 -531 -196q-109 0 -215.5 4t-126.5 4z" />
    <glyph glyph-name="E" unicode="E" horiz-adv-x="1308" 
d="M887 2q-124 0 -436 -3t-355 -7q-21 -2 -29 6t-8 37q0 23 8.5 31.5t30.5 11.5l101 12q35 3 53 18t18 52v1003q0 29 -4 45.5t-18.5 25t-26.5 11t-43 6.5l-80 11q-22 1 -30.5 11.5t-8.5 33.5q0 27 8 34t29 5q99 -9 715 -9q113 0 266 13q16 2 31 -9t16 -34q12 -148 39 -269
q5 -20 -2 -29.5t-35 -13.5q-22 -3 -31.5 4t-17.5 29l-28 76q-12 31 -23 51t-31.5 42t-48 34.5t-71 20.5t-101.5 8h-323v-525h184q72 0 110.5 6.5t52.5 17.5t19 32l23 118q5 23 13.5 31t31.5 8q29 0 36 -8t5 -29q-8 -88 -8 -247q0 -127 8 -215q2 -19 -11.5 -28t-44.5 -9
q-9 0 -14.5 0.5t-8.5 5.5t-3.5 6.5t-1.5 12t-2 14.5l-23 116q-6 28 -19 44.5t-53 28t-110 11.5h-184v-385q0 -45 3 -74t14.5 -51t25.5 -33.5t44.5 -18t62 -8t87.5 -1.5h164q59 0 98.5 6.5t66.5 18t46.5 36.5t31.5 53t27 76l25 78q8 23 16.5 30.5t30.5 4.5q28 -3 35 -12
t4 -29q-26 -158 -39 -303q-1 -23 -18 -35t-33 -10q-109 8 -256 8z" />
    <glyph glyph-name="F" unicode="F" horiz-adv-x="1218" 
d="M367 2q-162 0 -250 -8q-21 -2 -29 5t-8 34q0 23 8.5 32.5t30.5 12.5l86 12q37 5 51 21t14 65v987q0 53 -17.5 67t-74.5 21l-76 11q-22 1 -30.5 11.5t-8.5 33.5q0 27 8 34t29 5q99 -9 410 -9q394 0 575 13q16 2 31.5 -9t18.5 -34q18 -179 39 -267q5 -19 -1 -28.5
t-32 -16.5q-39 -11 -54 31l-24 66q-19 48 -33 72.5t-45.5 50t-84.5 35.5t-136 10h-313v-539h186q104 0 139 12.5t41 44.5l25 119q5 23 13.5 31t31.5 8q29 0 36 -8t5 -29q-8 -88 -8 -229q0 -131 8 -219q2 -21 -5 -29t-36 -8q-23 0 -31.5 8t-13.5 31l-25 102q-7 40 -44 61
t-136 21h-186v-459q0 -52 18 -67.5t66 -20.5l98 -12q22 -3 30.5 -12.5t8.5 -32.5q0 -28 -8 -34.5t-29 -4.5q-88 8 -268 8z" />
    <glyph glyph-name="G" unicode="G" horiz-adv-x="1531" 
d="M801 -39q-142 0 -260 39t-200 107t-139 160.5t-83.5 197.5t-26.5 221q0 135 46.5 258t133.5 220t224 154.5t305 57.5q233 0 411 -114l50 36l12 8t15.5 8.5t13.5 2.5q13 0 17.5 -9t4.5 -30q0 -29 1 -72.5t1 -62.5q0 -127 6 -207q2 -20 -4.5 -27.5t-32.5 -11.5
q-20 -3 -28.5 4.5t-18.5 30.5l-35 78q-63 141 -161.5 212.5t-257.5 71.5q-94 0 -182.5 -42t-159 -117.5t-113.5 -192.5t-43 -256q0 -177 67 -323.5t184 -230t259 -83.5q113 0 208 41t136 98v238q0 60 -57 66l-86 12q-23 3 -31 10t-8 29q0 30 8 38.5t29 6.5q110 -10 235 -10
q87 0 197 10q20 2 28.5 -7t8.5 -40q0 -22 -7.5 -28t-31.5 -9l-54 -8q-33 -4 -44 -20t-11 -50v-244q0 -35 -7 -48.5t-38 -33.5q-102 -65 -230 -102t-251 -37z" />
    <glyph glyph-name="H" unicode="H" horiz-adv-x="1679" 
d="M360 2q-153 0 -241 -8q-21 -2 -29 5t-8 36q0 23 8.5 31.5t30.5 11.5l84 10q41 6 53 16t12 41v1047q0 30 -14.5 42t-50.5 17l-84 11q-22 3 -30.5 11.5t-8.5 31.5q0 29 8 36t29 5q99 -9 241 -9q157 0 256 9q21 2 29 -5t8 -36q0 -23 -8.5 -31.5t-30.5 -11.5l-106 -13
q-32 -5 -44.5 -15.5t-12.5 -39.5v-436q0 -10 1 -14.5t7.5 -8.5t19.5 -4h719q19 0 25 6.5t6 20.5v436q0 29 -13 39.5t-45 15.5l-106 13q-22 3 -30.5 12.5t-8.5 32.5q0 28 8 34.5t29 4.5q99 -9 256 -9q143 0 242 9q15 1 21 0t10.5 -10t4.5 -29q0 -23 -8 -32.5t-30 -12.5
l-84 -11q-37 -5 -51.5 -16t-14.5 -41v-1049q0 -30 12 -40.5t54 -16.5l84 -10q22 -3 30 -11.5t8 -31.5q0 -29 -7.5 -36t-28.5 -5q-88 8 -242 8q-168 0 -256 -8q-21 -2 -29 5t-8 36q0 23 8.5 31.5t30.5 11.5l106 12q32 5 45 15.5t13 39.5v471q0 14 -6 20.5t-25 6.5h-719
q-17 0 -22.5 -6.5t-5.5 -20.5v-471q0 -29 12.5 -39.5t44.5 -15.5l106 -12q22 -3 30.5 -11.5t8.5 -31.5q0 -29 -8 -36t-29 -5q-88 8 -256 8z" />
    <glyph glyph-name="I" unicode="I" horiz-adv-x="731" 
d="M365 2q-158 0 -246 -8q-21 -2 -29 5t-8 34q0 23 8.5 32.5t30.5 12.5l90 10q32 3 47.5 13t15.5 36v1055q0 30 -13.5 42t-49.5 17l-90 11q-22 3 -30.5 11.5t-8.5 31.5q0 29 8 36t29 5q99 -9 264 -9q130 0 229 9q21 2 29 -5t8 -36q0 -23 -8.5 -31.5t-30.5 -11.5l-98 -13
q-31 -3 -43 -14t-12 -41v-1047q0 -29 12 -40.5t43 -16.5l98 -12q22 -3 30.5 -12.5t8.5 -32.5q0 -27 -8 -34t-29 -5q-88 8 -247 8z" />
    <glyph glyph-name="J" unicode="J" horiz-adv-x="688" 
d="M78 -481q-189 0 -189 121q0 43 29 69.5t72 26.5q32 0 55 -13t47 -47q27 -39 42.5 -51t47.5 -12t50 24t28 89q4 29 6 67.5t2.5 69.5t0.5 122t1 158q0 25 1 118t1 188v743q0 30 -14.5 42t-50.5 17l-90 11q-22 3 -30.5 11.5t-8.5 31.5q0 29 8 36t29 5q99 -9 268 -9
q112 0 211 9q21 2 29 -5t8 -36q0 -23 -8.5 -31.5t-30.5 -11.5l-80 -11q-31 -3 -44 -15t-13 -42v-305q0 -555 -18 -813t-56 -355q-38 -99 -120 -150.5t-183 -51.5z" />
    <glyph glyph-name="K" unicode="K" horiz-adv-x="1331" 
d="M362 2q-163 0 -251 -8q-15 -1 -21.5 0t-11 10t-4.5 29q0 23 8.5 32.5t30.5 12.5l92 12q37 5 51 16t14 41v1047q0 30 -14 41t-51 16l-88 11q-22 3 -30.5 11.5t-8.5 31.5q0 29 8 36t29 5q99 -9 250 -9q136 0 235 9q15 1 21.5 0t11 -10t4.5 -29q0 -23 -8.5 -32.5
t-30.5 -12.5l-90 -11q-32 -5 -44.5 -15.5t-12.5 -39.5v-481q83 0 143 63l317 348q31 33 41.5 49t10.5 37q0 35 -39 41l-62 9q-22 3 -30.5 12.5t-8.5 32.5q0 28 8 34.5t29 4.5q99 -9 225 -9q78 0 177 9q15 1 21 0t10.5 -10t4.5 -29q0 -24 -7 -32t-31 -13l-48 -7
q-40 -6 -85 -43.5t-134 -130.5l-329 -350l491 -561q44 -50 68 -66.5t53 -19.5l45 -6q23 -3 31 -12.5t8 -32.5q0 -28 -8 -34.5t-29 -4.5q-180 8 -219 8q-144 0 -232 -8q-15 -1 -21 0t-10.5 10t-4.5 29q0 24 8 34t30 11l68 4q29 3 29 31q0 12 -35 52q-7 7 -10 11l-340 402
q-28 33 -54 42t-81 9v-479q0 -31 12.5 -46t44.5 -18l94 -8q21 -3 28 -12t7 -33q0 -29 -6 -35t-27 -4q-88 8 -242 8z" />
    <glyph glyph-name="L" unicode="L" horiz-adv-x="1232" 
d="M377 2q-162 0 -250 -8q-15 -1 -21.5 0t-11 10t-4.5 29q0 23 8.5 32.5t30.5 12.5l84 10q16 2 27 7.5t20.5 23.5t9.5 47v1001q0 49 -13 65t-50 21l-78 9q-22 3 -30.5 11.5t-8.5 31.5q0 29 8 36t29 5q99 -9 252 -9q132 0 231 9q21 2 29 -6t8 -37q0 -23 -8.5 -31.5
t-30.5 -11.5l-90 -11q-34 -3 -50.5 -19.5t-16.5 -62.5v-999q0 -39 7.5 -55t42.5 -25.5t113 -9.5h168q62 0 106 4t76.5 15t53 23.5t37 38t26.5 49.5t23 66l33 107q8 23 18.5 30t32.5 3q27 -6 32.5 -15t2.5 -30q-21 -108 -45 -326q-6 -49 -54 -49q-110 0 -413.5 4t-333.5 4z
" />
    <glyph glyph-name="M" unicode="M" horiz-adv-x="1867" 
d="M330 0q-153 0 -219 -6q-21 -2 -29 5t-8 34q0 23 8.5 32.5t30.5 12.5l86 10q41 6 53 49t12 150v909q0 29 -14 39.5t-51 15.5l-84 11q-24 3 -31.5 12t-7.5 33q0 27 8 34t29 5q143 -9 209 -9q15 0 60 2t62 2q23 0 35 -9t19 -34q10 -35 53 -131l385 -882l381 880
q46 116 53 135q7 23 21.5 32t42.5 7q27 -2 84 -2q118 0 217 9q21 2 29 -5t8 -34q0 -24 -8.5 -33t-30.5 -12l-70 -9q-44 -7 -55 -18t-11 -43v-1032q0 -37 11.5 -50.5t52.5 -19.5l92 -12q22 -3 30.5 -12.5t8.5 -32.5q0 -27 -8 -34t-29 -5q-88 8 -229 8q-178 0 -266 -8
q-21 -2 -29 5t-8 34q0 23 8.5 32.5t30.5 12.5l98 12q57 6 57 64v936q0 43 -8 43q-7 0 -29 -48l-250 -567q-39 -88 -96 -221q-96 -220 -118 -251q-16 -23 -31 -23q-10 0 -18 7t-18.5 27.5t-19.5 40.5t-28.5 65t-36.5 83l-367 805q-26 57 -35 57q-8 0 -8 -33v-448
q0 -326 8 -416q5 -65 21.5 -88t73.5 -35l59 -10q21 -3 31 -13t10 -32q0 -27 -8 -34t-29 -5q-66 6 -190 6z" />
    <glyph glyph-name="N" unicode="N" horiz-adv-x="1525" 
d="M313 2q-104 0 -192 -8q-22 -2 -32.5 5t-10.5 34q0 24 8.5 33t30.5 12l73 10q60 7 64 135q2 45 2 404v483q0 119 -100 139l-70 13q-23 5 -31 13.5t-8 31.5q0 27 8 34t29 5q143 -9 238 -9q59 0 77 -22q18 -18 164 -211q35 -48 233.5 -294.5t237.5 -291.5q23 -27 43.5 -52
t35 -42.5t27.5 -33.5t21 -26t14.5 -18.5t10.5 -13t7.5 -8t5 -4.5t3.5 -1q7 0 8.5 11.5t1.5 44.5v543q0 194 -17.5 259t-78.5 72l-84 13q-22 3 -30.5 12t-8.5 33q0 27 8 34t29 5q99 -9 244 -9q71 0 170 9q22 2 32.5 -5t10.5 -34q0 -24 -8.5 -33t-30.5 -12l-74 -11
q-59 -7 -63 -135q-2 -45 -2 -403v-658q0 -49 -7 -71.5t-26 -22.5q-18 0 -30 10.5t-42 51.5q-28 39 -121 155q-9 11 -295 359.5t-342 420.5q-22 28 -49 63q-32 40 -37 40q-8 0 -8 -47v-682q0 -100 9.5 -150.5t30 -69.5t61.5 -24l79 -10q23 -5 31 -13t8 -32q0 -27 -7.5 -34
t-28.5 -5q-88 8 -222 8z" />
    <glyph glyph-name="O" unicode="O" horiz-adv-x="1558" 
d="M778 -39q-159 0 -290.5 59t-217 159t-132 231t-46.5 278q0 129 46 251t130.5 220t217 157.5t292.5 59.5t293 -59.5t217.5 -157.5t131 -220t46.5 -251q0 -147 -47 -278t-133 -231t-217.5 -159t-290.5 -59zM778 45q90 0 168.5 36t135.5 98.5t98 144.5t61.5 175t20.5 189
q0 90 -20.5 177.5t-62 164.5t-99 135.5t-135.5 92.5t-167 34t-167 -34t-134.5 -92.5t-97.5 -135.5t-61.5 -164.5t-20.5 -177.5q0 -121 32.5 -235t91.5 -205.5t152 -147t205 -55.5z" />
    <glyph glyph-name="P" unicode="P" horiz-adv-x="1177" 
d="M629 1266q-70 0 -133 -13q-25 -4 -35 -16t-10 -35v-500q0 -16 12 -18q32 -4 67 -4q133 0 209 18.5t129 71.5q72 72 72 205q0 77 -28 135.5t-74.5 91t-99 48.5t-109.5 16zM342 2q-135 0 -223 -8q-21 -2 -29 5t-8 34q0 23 8.5 32.5t30.5 12.5l84 10q35 4 50 19.5t15 46.5
v1017q0 43 -14 59.5t-55 20.5l-99 11q-22 2 -30.5 11t-8.5 32q0 29 8 36t29 5q82 -5 260 -5q40 0 135 2.5t150 2.5q268 0 391 -123q94 -94 94 -244q0 -156 -98 -254q-75 -75 -182 -101t-250 -26q-34 0 -149 14v-450q0 -38 14.5 -51t64.5 -19l115 -14q22 -3 30.5 -12.5
t8.5 -32.5q0 -27 -8 -34t-29 -5q-88 8 -305 8z" />
    <glyph glyph-name="Q" unicode="Q" horiz-adv-x="1519" 
d="M760 1294q-136 0 -247 -81.5t-172.5 -219.5t-61.5 -303q0 -177 59 -323.5t170 -234t252 -87.5q140 0 251 87.5t170.5 234t59.5 323.5q0 165 -61 303t-172 219.5t-248 81.5zM932 -18q214 -76 366 -76q86 0 162 12q66 11 66 -27q0 -14 -9 -23t-32 -18q-40 -17 -180 -83
q-41 -19 -93 -19q-44 0 -254 86q-155 64 -290 135q-133 13 -246.5 77t-189 162t-118 222.5t-42.5 259.5q0 129 46.5 251t131.5 220t218 157.5t292 59.5q160 0 293 -59.5t217.5 -157.5t131 -220t46.5 -251q0 -264 -147 -463t-369 -245z" />
    <glyph glyph-name="R" unicode="R" horiz-adv-x="1345" 
d="M449 1204v-489q49 -6 106 -6q169 0 269 73.5t100 212.5q0 120 -79 194.5t-237 74.5q-77 0 -127 -13q-22 -6 -27 -15t-5 -32zM342 2q-137 0 -225 -8q-21 -2 -29 5t-8 34q0 23 8.5 32.5t30.5 12.5l86 10q35 5 50 19t15 45v972q0 76 -13.5 98.5t-66.5 28.5l-86 11
q-22 3 -30 11.5t-8 31.5q0 28 7 34.5t29 6.5q156 -5 258 -5q33 0 139 2.5t150 2.5q219 0 345 -92t126 -259q0 -74 -27 -135t-73 -100t-98.5 -63t-110.5 -35q43 -33 109 -140q154 -254 231 -368q34 -51 96 -62l74 -12q30 -4 39.5 -13t9.5 -30q0 -28 -7 -36.5t-26 -6.5
q-35 2 -128.5 4t-135.5 4q-38 1 -67.5 40t-137.5 228q-114 201 -190 299q-49 62 -160 62q-46 0 -69 -4v-473q0 -35 16.5 -48t50.5 -18l84 -10q22 -3 30.5 -12.5t8.5 -32.5q0 -27 -8 -34t-29 -5q-88 8 -260 8z" />
    <glyph glyph-name="S" unicode="S" horiz-adv-x="1114" 
d="M573 -39q-197 0 -329 123q-7 -6 -30 -31t-26 -28q-13 -13 -26 -13q-25 0 -25 25q4 287 -4 369q-2 16 4 22.5t31 9.5q19 2 29 -1.5t13.5 -8.5t8.5 -18l19 -52q45 -123 106 -194q44 -50 108.5 -83.5t131.5 -33.5q101 0 169 68.5t68 179.5q0 86 -37 146t-112 104
q-24 14 -70.5 39t-110.5 58t-102 54q-104 55 -166.5 127.5t-62.5 182.5q0 173 115.5 272.5t291.5 99.5q93 0 159 -25.5t132 -80.5q17 13 33 28q19 19 35 19q20 0 20 -35q-4 -171 4 -293q0 -14 -7 -20t-32 -10q-26 -8 -41 26l-26 74q-23 55 -46 93t-57 72.5t-81 52t-107 17.5
q-99 0 -158 -61.5t-59 -155.5q0 -91 47.5 -145.5t146.5 -106.5q19 -10 107.5 -56t136.5 -73q232 -130 232 -336q0 -120 -64 -213.5t-161.5 -140.5t-207.5 -47z" />
    <glyph glyph-name="T" unicode="T" horiz-adv-x="1337" 
d="M670 2q-164 0 -252 -8q-21 -2 -29 5t-8 34q0 23 8.5 32.5t30.5 12.5l90 10q47 6 58.5 21.5t11.5 58.5v1092h-82q-127 0 -197.5 -15.5t-107 -48t-62.5 -96.5l-37 -96q-10 -24 -22 -29.5t-37 2.5q-22 6 -26.5 16t1.5 25q52 178 70 268q12 62 19 78t22 16q6 0 15 -3.5
t19.5 -8.5t12.5 -6q35 -16 80 -21q50 -4 229 -4h393q182 0 232 4q48 5 82 21q3 1 12.5 6t18 8.5t14.5 3.5q15 0 22 -16t19 -78q19 -100 69 -268q6 -18 2 -26t-26 -15q-26 -9 -38.5 -4t-21.5 31l-36 96q-27 65 -63.5 97.5t-106.5 47.5t-197 15h-92v-1090q0 -43 12 -60.5
t53 -21.5l95 -10q22 -3 30 -12.5t8 -32.5q0 -27 -7.5 -34t-28.5 -5q-88 8 -252 8z" />
    <glyph glyph-name="U" unicode="U" horiz-adv-x="1474" 
d="M764 -39q-251 0 -392 119t-141 377v729q0 36 -14.5 49t-56.5 18l-84 9q-22 1 -30.5 11.5t-8.5 33.5q0 27 8 34t29 5q99 -9 248 -9q146 0 245 9q21 2 29 -5t8 -34q0 -23 -8.5 -33.5t-30.5 -11.5l-76 -11q-48 -6 -62.5 -17t-14.5 -46v-694q0 -228 97 -328t294 -100
q143 0 229 86q62 62 87.5 150.5t25.5 268.5v148q0 139 -10 414q-2 48 -24 80t-64 38l-74 11q-22 3 -30.5 12.5t-8.5 32.5q0 27 8 34t29 5q99 -9 235 -9q98 0 197 9q21 2 29 -5t8 -34q0 -23 -8.5 -33.5t-30.5 -11.5l-62 -9q-43 -4 -58 -31t-17 -89q-1 -36 -5 -143.5
t-4 -160.5v-272q0 -199 -31 -301.5t-94 -165.5q-129 -129 -366 -129z" />
    <glyph glyph-name="V" unicode="V" horiz-adv-x="1353" 
d="M291 1337q159 0 258 9q21 2 29 -5t8 -36q0 -23 -8.5 -31.5t-30.5 -11.5l-94 -13q-34 -5 -46 -12.5t-12 -30.5q0 -11 8 -35l314 -919l272 725q72 197 72 225q0 27 -16 35.5t-56 13.5l-88 11q-22 3 -30.5 11.5t-8.5 31.5q0 29 8 36t29 5q99 -9 225 -9q92 0 191 9
q21 2 28 -5t7 -36q0 -20 -7.5 -28.5t-29.5 -14.5l-66 -13q-17 -3 -31.5 -17.5t-27.5 -40.5t-22 -49t-22.5 -60t-21.5 -58l-352 -885q-55 -138 -63 -152q-16 -27 -35 -28q-19 0 -36 34t-65 163l-372 1015q-25 72 -84 80l-72 11q-22 3 -30.5 11.5t-8.5 31.5q0 29 8 36t29 5
q99 -9 250 -9z" />
    <glyph glyph-name="W" unicode="W" horiz-adv-x="1978" 
d="M289 1337q132 0 231 9q21 2 29 -4.5t8 -32.5q0 -25 -8.5 -35t-30.5 -12l-69 -9q-20 -3 -32.5 -6.5t-24 -15.5t-11.5 -31q0 -40 10 -74l266 -862l263 746q24 72 24 108q0 27 -6 51q-18 72 -94 84l-58 9q-22 3 -30 12t-8 35t7.5 32.5t28.5 4.5q99 -9 265 -9q130 0 229 9
q21 2 29 -4.5t8 -32.5q0 -25 -8 -34.5t-31 -12.5l-78 -9q-68 -11 -68 -82q0 -32 31 -137l219 -762l193 543q19 55 41 118.5t35 100.5t25 73t17 55.5t5 29.5q0 32 -17.5 43t-58.5 16l-76 11q-22 3 -30.5 12.5t-8.5 32.5q0 27 8 34t29 5q99 -9 211 -9q83 0 182 9q21 2 29 -5
t8 -34q0 -25 -7.5 -32.5t-31.5 -12.5l-45 -11q-33 -7 -49 -35t-59 -143l-350 -938q-7 -18 -20 -53.5t-19 -51t-16 -36t-19 -28t-19 -7.5q-27 0 -48 49.5t-66 198.5l-219 729l-281 -729q-10 -27 -21 -57t-18 -49t-15 -40t-13 -33.5t-11 -25.5t-10.5 -20t-10.5 -13t-11.5 -8
t-12.5 -2q-10 0 -18.5 9t-18.5 33t-17.5 47t-22.5 71t-27 84l-324 971q-12 34 -29.5 53.5t-50.5 25.5l-49 9q-22 3 -30.5 13.5t-8.5 33.5q0 26 8 32.5t29 4.5q99 -9 248 -9z" />
    <glyph glyph-name="X" unicode="X" horiz-adv-x="1353" 
d="M260 2q-129 0 -217 -8q-21 -2 -29 5t-8 34q0 23 8.5 32.5t30.5 12.5l70 8q22 3 32.5 5.5t26.5 12.5t32 28.5t42 53.5l350 484l-358 534q-18 25 -40 34.5t-61 14.5l-71 9q-23 3 -31 11t-8 30q0 30 8 37.5t29 5.5q99 -9 245 -9q170 0 269 9q21 2 28.5 -5.5t7.5 -37.5
q0 -22 -10 -30.5t-33 -10.5l-65 -9q-19 -3 -27 -5t-15 -10.5t-7 -25.5q0 -10 7 -26t14 -27.5t21 -31.5t17 -25l195 -287l176 242q60 80 77 108t17 47q0 20 -15 28t-57 13l-69 9q-23 3 -32 11t-9 30q0 30 8 37.5t29 5.5q99 -9 233 -9q114 0 213 9q21 2 29 -5.5t8 -37.5
q0 -22 -10 -30.5t-33 -10.5l-74 -11q-32 -3 -57.5 -22t-73.5 -84l-301 -418l379 -567q27 -39 48.5 -54.5t57.5 -19.5l64 -8q20 -3 28.5 -13t8.5 -32q0 -27 -8 -34t-29 -5q-88 8 -250 8q-160 0 -248 -8q-21 -2 -29 5t-8 34q0 23 9.5 32.5t31.5 12.5l72 8q27 3 37 11t10 26
q0 25 -67 129l-224 332l-239 -334q-70 -97 -70 -121q0 -18 11.5 -27.5t43.5 -13.5l80 -10q22 -3 30.5 -12.5t8.5 -32.5q0 -27 -8 -34t-29 -5q-88 8 -223 8z" />
    <glyph glyph-name="Y" unicode="Y" horiz-adv-x="1275" 
d="M639 2q-176 0 -264 -8q-21 -2 -29 5t-8 34q0 23 8.5 32.5t30.5 12.5l106 12q40 4 53 19.5t13 46.5v428l-332 551q-41 68 -62.5 92t-54.5 28l-47 7q-22 3 -30.5 12.5t-8.5 32.5q0 28 8 34.5t29 4.5q99 -9 221 -9q159 0 258 9q15 1 21.5 0t11 -10t4.5 -29q0 -23 -8.5 -33.5
t-30.5 -11.5l-77 -11q-39 -5 -53.5 -13t-14.5 -30q0 -21 41 -90l250 -422l248 371q50 73 66 103.5t16 48.5q0 17 -14 23.5t-40 10.5l-69 9q-22 3 -30.5 11.5t-8.5 31.5q0 30 8 36.5t29 4.5q99 -9 194 -9q75 0 174 9q12 1 19 0t12.5 -10.5t5.5 -28.5q0 -23 -7 -32t-32 -13
l-31 -7q-46 -10 -90 -73l-393 -574v-452q0 -32 16 -46t62 -20l90 -12q22 -3 30.5 -12.5t8.5 -32.5q0 -27 -8 -34t-29 -5q-88 8 -262 8z" />
    <glyph glyph-name="Z" unicode="Z" horiz-adv-x="1236" 
d="M705 2q-335 0 -578 -8q-49 -2 -66.5 7t-17.5 42q0 15 32 59t112.5 147.5t142.5 188.5l233 320q224 309 282 392t58 101q0 9 -16 9h-375q-116 0 -181.5 -39.5t-115.5 -118.5l-43 -66q-8 -12 -13.5 -16.5t-17 -7t-26.5 7.5q-22 11 -26 21t3 24q11 26 88 256q11 34 56 29
q102 -13 323 -13q84 0 498 9q60 2 80 -7t20 -43q0 -5 -2 -11t-8 -16t-15 -22.5t-26 -35.5t-37 -49.5t-52 -69.5t-67.5 -90.5t-87 -118t-106.5 -146.5l-213 -295q-91 -127 -136.5 -190t-70.5 -100.5t-29 -45.5t-4 -14q0 -8 16 -8h404q46 0 84.5 4.5t66 10t53 19.5t39.5 22.5
t33 31t26.5 32.5t26.5 40t27 41l43 63q12 17 22 20.5t36 -6.5q21 -10 25 -19t-3 -24q-14 -34 -102 -294q-10 -31 -56 -31q-316 8 -339 8z" />
    <glyph glyph-name="bracketleft" unicode="[" horiz-adv-x="655" 
d="M213 -377q-45 0 -45 35v1712q0 35 45 35h332q18 0 18 -35q0 -37 -18 -37h-191q-46 0 -54.5 -17.5t-8.5 -103.5v-1396q0 -86 8.5 -103.5t54.5 -17.5h191q18 0 18 -37q0 -35 -18 -35h-332z" />
    <glyph glyph-name="backslash" unicode="\" horiz-adv-x="665" 
d="M213 1348l377 -1364q3 -9 0 -16t-12 -7h-76q-14 0 -19 16l-379 1371q-9 30 13 30h71q11 0 16 -6t9 -24z" />
    <glyph glyph-name="bracketright" unicode="]" horiz-adv-x="655" 
d="M442 -377h-331q-19 0 -19 35q0 37 19 37h190q46 0 55 18t9 103v1396q0 85 -9 103t-55 18h-190q-19 0 -19 37q0 35 19 35h331q45 0 45 -35v-1712q0 -35 -45 -35z" />
    <glyph glyph-name="asciicircum" unicode="^" horiz-adv-x="962" 
d="M444 1255h68q16 0 24 -7t19 -25l274 -469q7 -10 4 -20.5t-14 -10.5h-59q-22 0 -30 6t-23 33l-228 395l-225 -395q-14 -27 -22.5 -33t-32.5 -6h-52q-29 0 -14 31l275 479q7 12 13.5 17t22.5 5z" />
    <glyph glyph-name="underscore" unicode="_" horiz-adv-x="950" 
d="M950 -248h-950q-10 0 -12 4t-2 17v53q0 15 2 19.5t12 4.5h950q10 0 12.5 -4t2.5 -20v-51q0 -13 -2.5 -18t-12.5 -5z" />
    <glyph glyph-name="grave" unicode="`" horiz-adv-x="1024" 
d="M293 1333q60 0 87 -16.5t48 -61.5q71 -156 121 -251q11 -26 4 -39t-23 -13q-23 0 -53 41q-21 26 -69 87.5t-81 101.5t-71 82q-22 25 -22 41t15.5 22t43.5 6z" />
    <glyph glyph-name="a" unicode="a" horiz-adv-x="821" 
d="M262 -29q-90 0 -137 47t-47 123q0 98 102 175.5t334 136.5q6 117 6 149q0 84 -35 113.5t-92 29.5q-64 0 -98.5 -26t-46.5 -82q-20 -86 -86 -86q-28 0 -49 17t-21 48q0 40 25 68q47 57 148.5 104.5t193.5 47.5q107 0 155 -59t48 -152q0 -46 -5.5 -153t-5.5 -179
q0 -114 11 -161.5t53 -47.5q12 0 22 3.5t15.5 7t14 11t11.5 9.5q11 8 21 8t17 -7t7 -18q0 -9 -6 -18q-14 -27 -58.5 -68t-96.5 -41q-55 0 -85 27.5t-53 101.5q-42 -39 -73.5 -63t-83 -45t-105.5 -21zM227 178q0 -45 29.5 -73.5t75.5 -28.5q29 0 60 13t48 24.5t44.5 34.5
t29.5 24q-4 59 -4 141q0 45 2 78q-155 -52 -220 -98t-65 -115z" />
    <glyph glyph-name="b" unicode="b" horiz-adv-x="976" 
d="M737 373q0 179 -76 277t-182 98q-86 0 -146.5 -52.5t-60.5 -122.5v-317q0 -95 69 -148t151 -53q116 0 180.5 72.5t64.5 245.5zM502 -31q-166 0 -250 94q-11 -11 -27.5 -28.5t-24.5 -26t-18.5 -15.5t-19.5 -7q-18 0 -23.5 12.5t-5.5 40.5q6 256 6 510v412q0 150 -12.5 199
t-58.5 69q-26 11 -34.5 15t-14 11.5t-5.5 18.5q0 16 25 26q95 38 162 70q44 21 53 21q8 0 17.5 -7t9.5 -20q0 -25 -2.5 -212.5t-2.5 -418.5q102 105 261 105q72 0 137.5 -28t116.5 -79.5t81.5 -129.5t30.5 -171q0 -112 -36 -202.5t-95 -145.5t-128.5 -84t-141.5 -29z" />
    <glyph glyph-name="c" unicode="c" horiz-adv-x="792" 
d="M457 -31q-168 0 -275.5 122t-107.5 298q0 193 110 321t285 128q152 0 233 -99q33 -39 33 -86q0 -30 -21.5 -51.5t-54.5 -21.5q-54 0 -73 45q-3 6 -10 24t-13.5 32.5t-13.5 25.5q-33 51 -115 51q-94 0 -145 -75.5t-51 -207.5q0 -104 23.5 -183.5t63.5 -125t86 -68
t97 -22.5q55 0 106 27.5t78 58.5q15 20 31 20q11 0 19 -8t8 -18q0 -13 -15 -39q-41 -63 -118 -105.5t-160 -42.5z" />
    <glyph glyph-name="d" unicode="d" horiz-adv-x="1017" 
d="M449 -31q-168 0 -271.5 116t-103.5 292q0 207 117 334t294 127q146 0 228 -72l-2 297q0 101 -14.5 135.5t-78.5 56.5q-33 11 -44 18.5t-11 22.5q0 30 60 43q53 11 98.5 24.5t68.5 20.5t39 7t21.5 -10t5.5 -33q0 -5 -0.5 -17t-1.5 -43t-2 -84.5t-1.5 -164t-0.5 -259.5
v-542q0 -70 11 -100.5t44 -26.5l41 4q23 3 32 0.5t15 -17.5q9 -24 -16 -39q-113 -63 -186 -86q-12 -4 -23 -4q-27 0 -35.5 21t-11.5 104q-43 -53 -117.5 -89t-154.5 -36zM508 59q81 0 145 56.5t64 154.5v219q0 65 -16.5 114.5t-41.5 77t-59 44.5t-62 22t-59 5
q-239 0 -239 -318q0 -157 73 -266t195 -109z" />
    <glyph glyph-name="e" unicode="e" horiz-adv-x="851" 
d="M469 -31q-125 0 -216.5 58.5t-136 152.5t-44.5 209q0 123 46.5 224t138.5 163t214 62q73 0 134 -29.5t98 -75t57 -95.5t20 -95t-19.5 -58.5t-70.5 -13.5h-454q0 -201 76.5 -296t201.5 -95q47 0 90 17.5t61.5 32t43.5 38.5q44 41 61 41q13 0 22 -8.5t9 -22.5
q0 -36 -56 -92q-47 -49 -119 -83t-157 -34zM238 543l333 8q39 0 39 45q0 55 -47 107.5t-125 52.5q-167 0 -200 -213z" />
    <glyph glyph-name="f" unicode="f" horiz-adv-x="641" 
d="M303 0q-127 0 -203 -6q-18 -2 -24 4.5t-6 32.5q0 22 7.5 29.5t24.5 9.5l80 6q24 1 32.5 16.5t8.5 46.5l-6 563h-96q-20 0 -24.5 7.5t-4.5 25.5v39q0 27 37 27h88q3 340 148 485q115 115 282 115q97 0 144 -47q30 -30 30 -68q0 -31 -20.5 -53.5t-48.5 -22.5
q-29 0 -50.5 10.5t-52.5 34.5q-27 22 -49 29.5t-55 7.5q-67 0 -117 -53q-39 -39 -52.5 -108t-13.5 -179v-153h211q18 0 21.5 -9t-4.5 -28l-10 -27q-7 -15 -13 -22.5t-10.5 -9t-11.5 -1.5h-183l7 -563q0 -32 9.5 -47t37.5 -16l84 -6q17 -2 24.5 -9.5t7.5 -29.5
q0 -26 -6 -32.5t-24 -4.5q-76 6 -199 6z" />
    <glyph glyph-name="g" unicode="g" horiz-adv-x="940" 
d="M436 838q90 0 147 -23.5t113 -79.5q53 44 90.5 64t75.5 20q27 0 49.5 -20t22.5 -58q0 -40 -18.5 -57.5t-43.5 -17.5q-23 0 -44.5 18t-41.5 18q-35 0 -55 -10q47 -86 47 -170q0 -121 -92.5 -213t-245.5 -92q-67 0 -133 16q-9 -5 -23.5 -15t-32.5 -33.5t-18 -47.5
q0 -44 73 -59.5t292 -26.5q287 -13 287 -244q0 -103 -66 -182.5t-179 -121.5t-253 -42q-69 0 -126.5 10t-108 32.5t-79 65t-28.5 101.5q0 53 18.5 102t48 83.5t55.5 57t52 38.5q-108 50 -108 139q0 32 19.5 64t48 55t45.5 34.5t28 16.5q-78 52 -114 118t-36 154
q0 134 99.5 220t234.5 86zM440 762q-85 0 -134.5 -67t-49.5 -167q0 -96 46.5 -165.5t137.5 -69.5q86 0 135.5 63.5t49.5 175.5q0 40 -10.5 78.5t-31 73.5t-58 56.5t-85.5 21.5zM426 -465q132 0 229 59t97 166q0 26 -6.5 47t-23.5 44t-55 38.5t-94 20.5q-69 6 -171 11t-128 9
q-36 -32 -65 -81.5t-29 -110.5q0 -101 67 -152t179 -51z" />
    <glyph glyph-name="h" unicode="h" horiz-adv-x="1013" 
d="M248 0q-62 0 -142 -6q-17 -2 -23.5 5.5t-6.5 37.5t30 33l35 4q41 5 41 53q0 175 2 292.5t2 131.5v410q0 150 -12.5 199t-58.5 69q-26 11 -34.5 15t-14 11.5t-5.5 18.5q0 16 25 26q95 38 162 70q44 21 53 21q8 0 17.5 -7t9.5 -20v-64q0 -28 -2 -237t-2 -393q39 84 110 126
t164 42q84 0 142.5 -39.5t82.5 -122.5q19 -68 19 -252v-297q0 -51 47 -53l41 -4q17 -2 25 -9.5t8 -29.5q0 -26 -6 -32.5t-25 -4.5q-76 6 -139 6q-109 0 -185 -6q-18 -2 -24 4.5t-6 32.5q0 21 8 29t24 10l54 4q23 1 29.5 14t6.5 39v262q0 173 -20 232q-38 104 -156 104
q-88 0 -147 -70t-58 -200l5 -328q0 -19 1.5 -27.5t8.5 -16t22 -9.5l45 -4q31 -3 31 -37q0 -26 -6.5 -33.5t-22.5 -5.5q-79 6 -155 6z" />
    <glyph glyph-name="i" unicode="i" horiz-adv-x="540" 
d="M147 1223q0 42 32.5 75t82.5 33q49 0 80 -31.5t31 -76.5q0 -51 -32.5 -83t-82.5 -32q-52 0 -81.5 31.5t-29.5 83.5zM303 0q-115 0 -192 -6q-19 -2 -25 4.5t-6 32.5q0 36 33 39l57 6q27 3 35 13.5t8 37.5l4 307q2 134 -15.5 179.5t-80.5 70.5q-31 11 -31 33q0 13 10 20.5
t50 28.5q16 8 86 47q11 7 26 16l22.5 13.5t16 9t14.5 6.5t11 2q11 0 17.5 -4t9 -14.5t3 -16.5t0.5 -22q0 -38 -2 -155t-2 -136l2 -385q0 -28 8 -38t37 -13l50 -6q32 -3 32 -39q0 -26 -6 -32.5t-24 -4.5q-76 6 -148 6z" />
    <glyph glyph-name="j" unicode="j" horiz-adv-x="514" 
d="M49 -539q-86 0 -131 32t-45 81q0 31 22.5 56.5t59.5 25.5q53 0 76 -55q2 -4 5 -12t4.5 -11.5t5 -10t6 -9t6.5 -7t8.5 -6t10.5 -3t13 -1.5q121 0 121 262l-2 631q0 44 -0.5 67.5t-4.5 61.5t-11 59.5t-22 42.5t-36 29q-33 14 -43 23t-10 20q0 14 12.5 23.5t46.5 21.5
q51 18 93.5 38.5t61.5 30t32 9.5q11 0 17.5 -4t9 -16t3 -20t0.5 -29q0 -17 -6 -422l-4 -426q-1 -137 -31.5 -242.5t-99 -172.5t-168.5 -67zM133 1225q0 44 32.5 77t84.5 33q50 0 81 -31.5t31 -78.5q0 -52 -32.5 -84.5t-83.5 -32.5q-53 0 -83 32t-30 85z" />
    <glyph glyph-name="k" unicode="k" horiz-adv-x="931" 
d="M246 0q-78 0 -158 -6q-17 -2 -24 5.5t-7 37.5t31 33l51 4q41 5 41 69q4 162 4 377v441q0 149 -12.5 197t-58.5 69q-41 19 -49.5 25.5t-8.5 19.5q0 10 9 18t40 19q48 18 92.5 39.5t67 32t33.5 10.5q29 0 29 -41v-54q0 -23 -2 -181t-2 -333v-315q24 1 48 12.5t38.5 23
t40.5 34.5q31 27 90 86q57 57 57 82q0 23 -33 26l-39 4q-17 2 -24.5 9.5t-7.5 29.5q0 26 6 32.5t24 4.5q77 -6 207 -6q43 0 119 6q19 2 25 -4.5t6 -32.5q0 -22 -8 -29.5t-25 -9.5l-43 -6q-30 -4 -52.5 -19t-82.5 -69l-197 -176l313 -315q70 -73 103 -76l47 -4
q16 -2 23.5 -9.5t7.5 -29.5q0 -27 -5.5 -33t-23.5 -4q-76 6 -170 6q-90 0 -166 -6q-19 -2 -27 4.5t-8 32.5q0 22 7.5 29.5t23.5 9.5l35 4q26 0 26 20q0 16 -64 79l-22 22l-176 174q-32 32 -73 34v-264q0 -22 1.5 -33t8.5 -20.5t22 -11.5l41 -4q16 -2 23.5 -9.5t7.5 -27.5
q0 -26 -6.5 -33.5t-22.5 -5.5q-79 6 -151 6z" />
    <glyph glyph-name="l" unicode="l" horiz-adv-x="524" 
d="M264 0q-92 0 -168 -6q-19 -2 -27 4.5t-8 32.5q0 22 8 29.5t25 9.5l58 6q24 1 32.5 14t8.5 43q0 9 -1.5 273.5t-1.5 336.5q0 244 -2 316q-2 66 -11 101.5t-20.5 47.5t-35.5 21q-25 11 -34 15.5t-14 11t-5 18.5q0 16 24 26q44 18 154 68q8 3 19.5 8.5t17.5 8t14 4.5t14 2
q31 0 31 -37q0 -45 -2 -162t-2 -133q0 -51 -1 -146.5t-1 -167.5q0 -36 -1 -210.5t-1 -399.5q0 -30 10 -43t39 -16l53 -6q17 -2 25 -9.5t8 -29.5q0 -26 -6 -32.5t-25 -4.5q-76 6 -174 6z" />
    <glyph glyph-name="m" unicode="m" horiz-adv-x="1546" 
d="M266 0q-62 0 -141 -6q-17 -2 -24 5.5t-7 37.5t31 33l35 4q41 5 41 69l4 320q1 97 -4 139.5t-19 63.5t-49 36q-18 8 -23.5 13.5t-5.5 17.5q0 14 46 39l59 35q12 7 28.5 17t25 15.5t18.5 10.5t17 7.5t13 2.5q16 0 21.5 -11.5t5.5 -37.5l2 -145q44 81 119 127q72 45 157 45
q179 0 226 -172h14q38 75 119 127q73 45 153 45q182 0 226 -162q18 -64 18 -252v-285q0 -63 47 -65l49 -4q17 -2 25 -9.5t8 -29.5q0 -26 -6 -32.5t-25 -4.5q-76 6 -145 6q-107 0 -184 -6q-19 -2 -25 4.5t-6 32.5q0 22 8 29.5t25 9.5l51 4q37 2 37 65v250q0 164 -23 232
q-38 104 -149 104q-81 0 -143 -72t-62 -209v-305q0 -63 47 -65l43 -4q17 -2 25 -9.5t8 -29.5q0 -26 -6 -32.5t-25 -4.5q-77 6 -139 6q-103 0 -180 -6q-19 -2 -25 4.5t-6 32.5q0 22 8 29.5t25 9.5l53 4q37 2 37 65v250q0 158 -25 232q-38 104 -151 104q-88 0 -147 -72
t-58 -209l4 -305q0 -22 1.5 -33.5t9 -20.5t22.5 -11l57 -4q16 -2 23.5 -9.5t7.5 -27.5q0 -26 -6.5 -33.5t-22.5 -5.5q-79 6 -168 6z" />
    <glyph glyph-name="n" unicode="n" horiz-adv-x="1034" 
d="M266 0q-62 0 -141 -6q-17 -2 -24 5.5t-7 37.5t31 33l35 4q23 3 32 14t9 39l4 336q1 97 -4 139.5t-19 63.5t-49 36q-18 8 -23.5 13.5t-5.5 17.5q0 14 46 39l59 35q12 7 28.5 17t25 15.5t18.5 10.5t17 7.5t13 2.5q16 0 21.5 -11.5t5.5 -37.5l2 -145q46 87 133 135
q66 37 143 37q178 0 224 -160q20 -71 20 -275v-276q0 -27 9.5 -38.5t37.5 -14.5l41 -4q17 -2 25 -9.5t8 -29.5q0 -26 -6 -32.5t-25 -4.5q-76 6 -139 6q-103 0 -180 -6q-19 -2 -25 4.5t-6 32.5q0 22 8 29.5t25 9.5l49 4q23 1 30 14.5t7 38.5v242q0 189 -23 252
q-38 104 -153 104q-88 0 -147 -72t-58 -209l4 -309q0 -21 1.5 -32t9 -19t22.5 -10l41 -4q16 -2 23 -9t7 -28q0 -26 -6 -33.5t-22 -5.5q-80 6 -152 6z" />
    <glyph glyph-name="o" unicode="o" horiz-adv-x="952" 
d="M477 -31q-181 0 -293 126.5t-112 322.5q0 180 112 300t293 120t292.5 -119.5t111.5 -300.5q0 -195 -112 -322t-292 -127zM477 53q97 0 168.5 94t71.5 271q0 162 -71.5 250t-168.5 88t-169 -88t-72 -250q0 -177 72 -271t169 -94z" />
    <glyph glyph-name="p" unicode="p" horiz-adv-x="1024" 
d="M264 -532q-93 0 -182 -7q-19 -2 -25 4.5t-6 32.5q0 22 8 29.5t25 9.5l51 4q23 1 30 17.5t7 48.5v825q0 151 -12 196t-70 66q-22 7 -30.5 13t-8.5 20q0 12 9 20t40 23q19 9 103 55q7 4 18.5 10.5t17.5 10t15 7.5t15.5 5.5t13.5 1.5q18 0 24 -10.5t6 -34.5v-92
q88 115 267 115q153 0 261.5 -111.5t108.5 -296.5q0 -111 -38.5 -201.5t-99.5 -145.5t-132.5 -84.5t-142.5 -29.5q-63 0 -111.5 11t-114.5 49l2 -422q0 -34 9.5 -48.5t37.5 -15.5l82 -6q17 -2 25 -9.5t8 -29.5q0 -26 -6 -32.5t-25 -4.5q-89 7 -180 7zM305 575v-315
q0 -89 61 -146t160 -57q129 0 193.5 76.5t64.5 235.5q0 185 -75 282t-195 97q-73 0 -141 -50.5t-68 -122.5z" />
    <glyph glyph-name="q" unicode="q" horiz-adv-x="974" 
d="M743 -532q-85 0 -174 -7q-18 -2 -24 4.5t-6 32.5q0 22 7.5 29.5t24.5 9.5l76 8q29 3 38 15t9 47l2 467q-101 -105 -245 -105q-184 0 -281.5 119.5t-97.5 300.5q0 192 115 320.5t300 128.5q142 0 232 -88q27 41 39 57.5t26.5 28.5t28.5 12q18 0 23.5 -10.5t5.5 -36.5
q-6 -222 -6 -385v-809q0 -33 6.5 -49t29.5 -17l46 -4q17 -2 24.5 -9.5t7.5 -29.5q0 -26 -6 -32.5t-24 -4.5q-89 7 -177 7zM238 459q0 -197 75.5 -298.5t190.5 -101.5q35 0 78.5 17t81.5 58.5t38 96.5v258q0 144 -61 202.5t-166 58.5q-121 0 -179 -79t-58 -212z" />
    <glyph glyph-name="r" unicode="r" horiz-adv-x="704" 
d="M293 0q-107 0 -184 -6q-19 -2 -25 4.5t-6 32.5q0 22 8 29.5t25 9.5l59 6q23 3 30 14.5t7 36.5l4 344q1 58 -0.5 88t-5 55t-15 37t-25.5 20.5t-42 18.5q-21 9 -30 15.5t-9 17.5q0 9 8.5 18t16.5 14t30 17q72 39 86 47q6 4 21 13t20.5 12t15.5 8t17.5 6.5t15.5 1.5
q16 0 21.5 -13t5.5 -46q0 -11 1 -63t1 -85l8 2q103 183 244 183q44 0 73 -21t29 -63q0 -38 -20 -65t-53 -27q-34 0 -80 22q-20 10 -56 10q-56 0 -99.5 -58.5t-43.5 -143.5l2 -363q0 -27 9.5 -38t45.5 -15l52 -6q17 -2 24.5 -9.5t7.5 -29.5q0 -26 -6 -32.5t-24 -4.5
q-77 6 -164 6z" />
    <glyph glyph-name="s" unicode="s" horiz-adv-x="712" 
d="M322 -31q-136 0 -230 70q-15 10 -18.5 17t-5.5 24l-9 123q-3 37 35 37q21 0 35 -35q62 -154 201 -154q67 0 108 37t41 96q0 55 -38 92.5t-152 81.5q-207 82 -207 240q1 107 80 173.5t190 66.5q114 0 205 -60q19 -12 25 -20t6 -23l4 -104q0 -22 -6.5 -30.5t-20.5 -8.5
q-19 0 -41 35q-38 66 -77 99.5t-105 33.5q-59 0 -94 -32.5t-35 -80.5q0 -28 11.5 -52.5t26.5 -40.5t44.5 -33t49.5 -26t58 -24q103 -42 159 -100.5t56 -155.5q0 -112 -83 -179t-213 -67z" />
    <glyph glyph-name="t" unicode="t" horiz-adv-x="643" 
d="M385 -31q-89 0 -151.5 55t-61.5 175l8 503h-86q-19 0 -26 11t-7 22q0 8 7.5 18t26 29t30.5 33q51 58 141 184q18 25 35 25q11 0 18 -7t7 -18l-7 -202q27 0 128 3t128 3q36 0 27 -39l-10 -29q-6 -15 -12.5 -23t-10.5 -9t-12 -1h-240v-405q0 -123 34 -178.5t118 -55.5
q30 0 64.5 15.5t44.5 15.5q8 0 16 -7t8 -19q0 -9 -5 -16.5t-11.5 -12.5t-18.5 -14q-81 -56 -182 -56z" />
    <glyph glyph-name="u" unicode="u" horiz-adv-x="1001" 
d="M424 -31q-89 0 -151 40.5t-83 123.5q-16 65 -16 250v248q0 22 -0.5 32t-3 23.5t-7.5 19.5t-15 11.5t-25 7.5l-37 4q-31 3 -31 33q0 27 7.5 35t23.5 8q58 0 141 6q32 4 43 4q29 0 39 -15.5t10 -54.5q0 -10 -2 -40.5t-2 -55.5v-231q0 -164 25 -238q36 -98 158 -98
q33 0 75.5 15.5t78.5 51.5t36 82l-4 400q0 49 -7.5 69t-31.5 23l-51 6q-31 3 -31 33q0 27 7.5 35t23.5 8q48 0 131 6q32 4 49 4q31 0 42 -16t11 -54q0 -10 -1 -40.5t-1 -55.5v-362q0 -65 1.5 -102.5t6.5 -60t12.5 -29.5t20.5 -7h49q10 0 18.5 -8t8.5 -19q0 -22 -29 -32
q-39 -14 -71.5 -30.5t-44.5 -21.5q-19 -8 -39 -8q-57 0 -74 137h-4q-101 -137 -256 -137z" />
    <glyph glyph-name="v" unicode="v" horiz-adv-x="952" 
d="M457 -37q-20 0 -38 33t-63 149l-184 465q-28 71 -43.5 94.5t-42.5 26.5l-43 4q-17 2 -25 9.5t-8 29.5q0 24 8 31.5t23 5.5q99 -6 190 -6q105 0 181 6q15 2 22.5 -5.5t7.5 -31.5q0 -22 -7.5 -29.5t-24.5 -9.5l-74 -4q-29 0 -29 -26q0 -21 31 -105q5 -13 35 -102.5
t63.5 -187.5t52.5 -148l201 438q33 72 33 105q0 22 -37 26l-72 4q-16 2 -23 9t-7 28q0 24 7 32.5t21 6.5q56 -6 168 -6q74 0 142 6q14 2 22 -6.5t8 -36.5q0 -30 -30 -33l-35 -4q-22 -3 -39.5 -27t-48.5 -90l-205 -424q-71 -148 -94.5 -187.5t-42.5 -39.5z" />
    <glyph glyph-name="w" unicode="w" horiz-adv-x="1337" 
d="M446 -35q-31 0 -55 64l-219 581q-29 75 -42.5 96.5t-39.5 24.5l-35 4q-17 2 -24.5 9.5t-7.5 29.5q0 24 7 31.5t23 5.5q76 -6 178 -6q89 0 166 6q16 2 23.5 -6t7.5 -31q0 -22 -8 -29.5t-25 -9.5l-59 -4q-29 0 -29 -26t29 -105q29 -83 77.5 -235.5t65.5 -204.5
q70 173 137 358q37 94 37 144q0 62 -65 69l-35 4q-17 2 -25 9.5t-8 29.5q0 23 7.5 31t23.5 6q77 -6 172 -6q75 0 151 6q16 2 23.5 -6t7.5 -31q0 -22 -8 -29.5t-25 -9.5l-65 -4q-33 -2 -33 -43q0 -34 23 -104l141 -408q137 347 162 424q24 79 24 105q0 23 -32 26l-64 4
q-16 2 -23.5 9.5t-7.5 27.5q0 24 7.5 32.5t21.5 6.5q53 -6 160 -6q80 0 133 6q15 2 23 -7t8 -36q0 -30 -31 -33l-35 -4q-22 -3 -36 -26.5t-44 -94.5q-203 -493 -237 -571q-30 -74 -56 -74q-11 0 -19 6.5t-23.5 36.5t-37.5 90l-145 387q-16 -33 -87.5 -220t-88.5 -226
q-30 -74 -64 -74z" />
    <glyph glyph-name="x" unicode="x" horiz-adv-x="876" 
d="M186 0q-62 0 -139 -6q-15 -2 -23 7t-8 36q0 30 31 33l45 4q4 1 12 1.5t11 1t9 2t9 3.5t8 5t9.5 7.5t9.5 11.5l215 281l-176 246q-43 59 -63.5 77t-47.5 21l-39 4q-20 2 -26.5 8.5t-6.5 30.5t7.5 31.5t25.5 5.5q77 -6 164 -6q69 0 145 6q18 2 25.5 -5.5t7.5 -31.5
t-6.5 -30.5t-26.5 -8.5l-26 -4q-15 -2 -15 -16q0 -5 3.5 -12.5t11.5 -19t14 -20.5t18.5 -26t18.5 -25l84 -116l88 114q40 53 50.5 72t10.5 31q0 9 -4 13t-18 5l-31 4q-19 2 -25 8t-6 29q0 24 7.5 32.5t23.5 6.5q79 -6 148 -6q17 0 96 6q17 2 25 -7t8 -36q0 -19 -6.5 -25
t-24.5 -8l-35 -4q-21 -3 -38.5 -19t-59.5 -71l-160 -213l205 -285q31 -45 45 -55.5t41 -13.5l43 -4q17 -2 25 -9.5t8 -29.5q0 -24 -7.5 -31.5t-25.5 -5.5q-76 6 -168 6q-80 0 -156 -6q-18 -2 -25 5.5t-7 31.5q0 22 7 29.5t23 9.5l33 2q29 2 29 14q0 7 -41 66l-121 167
l-133 -174q-33 -47 -33 -55q0 -16 21 -16l43 -4q15 -2 22.5 -9.5t7.5 -27.5q0 -24 -7 -32.5t-23 -6.5q-86 6 -136 6z" />
    <glyph glyph-name="y" unicode="y" horiz-adv-x="962" 
d="M238 805q100 0 176 6q18 2 25 -5.5t7 -31.5q0 -21 -7 -29t-25 -10l-62 -4q-20 -1 -28.5 -12t-8.5 -19q0 -21 25 -92l170 -475l172 402q37 88 47 117t10 48q0 28 -30 31l-74 4q-18 2 -24.5 9.5t-6.5 27.5q0 24 7.5 32.5t23.5 6.5q79 -6 147 -6q78 0 158 6q17 2 25 -7
t8 -36q0 -30 -31 -33l-35 -4q-21 -2 -34.5 -12.5t-36 -51t-58.5 -126.5q-38 -90 -195.5 -448.5t-189.5 -426.5q-30 -66 -58.5 -110t-53.5 -63t-43.5 -25.5t-40.5 -6.5q-48 0 -80.5 29t-32.5 66q0 36 23 61t59 25q16 0 42.5 -18.5t39.5 -18.5q26 0 61 76q64 136 87.5 196
t23.5 90q0 11 -2.5 23.5t-5 19.5t-9 24.5t-8.5 22.5l-213 553q-28 76 -44.5 97t-45.5 24l-39 4q-18 2 -25.5 10t-7.5 29q0 24 7.5 31.5t25.5 5.5q76 -6 185 -6z" />
    <glyph glyph-name="z" unicode="z" horiz-adv-x="808" 
d="M322 0q-138 0 -211 -4q-30 -1 -39.5 5.5t-16.5 25.5v12t6 13.5t10.5 15.5l13.5 18l15 20q230 316 453 629h-199q-28 0 -44 -2.5t-43.5 -15t-57.5 -44t-66 -83.5l-20 -31q-11 -16 -39 -2q-15 7 -18 14t2 19l22 51q37 89 60 152q6 14 16 17t33 1q135 -6 256 -6q88 0 235 6
q22 2 30 -4.5t17 -32.5q4 -13 -9 -36.5t-64 -92.5q-261 -358 -414 -573h151q121 0 174 22.5t113 110.5l27 39q18 27 47 12q28 -14 18 -35q-17 -38 -28 -63.5t-23 -56.5t-22 -54q-14 -34 -27.5 -44.5t-32.5 -8.5q-131 6 -325 6z" />
    <glyph glyph-name="braceleft" unicode="{" horiz-adv-x="655" 
d="M276 500q86 -47 127 -120.5t41 -154.5q0 -73 -18 -145t-39 -120t-39 -104t-18 -100q0 -28 8 -47t18.5 -29t32.5 -15t38.5 -6t47.5 -1q11 0 20 -9t9 -22t-8.5 -20.5t-18.5 -7.5h-41q-43 0 -77 6.5t-70.5 24.5t-57 58.5t-20.5 100.5q0 75 55.5 225t55.5 228q0 160 -129 237
q-15 11 -15 21q0 11 15 22q129 77 129 238q0 78 -56.5 227.5t-56.5 222.5q0 49 14.5 85.5t36.5 57t54.5 32t60.5 15t63 3.5h39q9 0 18 -8.5t9 -20.5q0 -15 -9.5 -23t-19.5 -8q-33 -1 -47.5 -2t-38 -6t-33 -14.5t-18 -28.5t-8.5 -47q0 -44 18 -100.5t39 -104.5t39 -121
t18 -145q0 -80 -41 -153t-127 -121z" />
    <glyph glyph-name="bar" unicode="|" horiz-adv-x="952" 
d="M420 -483v1851q0 21 2 28t12 7h80q11 0 14.5 -4.5t3.5 -16.5v-1863q0 -21 -14 -21h-84q-14 0 -14 19z" />
    <glyph glyph-name="braceright" unicode="}" horiz-adv-x="655" 
d="M379 500q-86 48 -127 121t-41 153q0 72 18 145t39.5 121t39.5 104.5t18 100.5q0 28 -8.5 47t-18.5 28.5t-33.5 14.5t-38 6t-47.5 2q-10 0 -19 8t-9 23q0 12 8.5 20.5t17.5 8.5h39q35 0 63 -3.5t60.5 -15t54.5 -32t36.5 -57t14.5 -85.5q0 -73 -56 -222.5t-56 -227.5
q0 -161 129 -238q14 -10 14 -22q0 -10 -14 -21q-129 -77 -129 -237q0 -78 55 -228t55 -225q0 -60 -20.5 -100.5t-57 -58.5t-70.5 -24.5t-77 -6.5h-41q-10 0 -18 7.5t-8 20.5t8.5 22t19.5 9q31 0 47.5 1t38.5 6t33 15t19 29t8 47q0 44 -18 100t-39.5 104t-39.5 120t-18 145
q0 81 41 154.5t127 120.5z" />
    <glyph glyph-name="asciitilde" unicode="~" horiz-adv-x="962" 
d="M680 537q-70 0 -143 24t-143.5 48t-133.5 24q-31 0 -54.5 -12.5t-32.5 -24.5t-13 -23q-6 -22 -13.5 -27t-31.5 -5q-13 0 -17 4.5t-4 23.5q0 27 10.5 55t32 54.5t60.5 43.5t90 17q70 0 143.5 -24t144 -48t132.5 -24q31 0 54.5 13t32.5 25t13 24q6 22 13 26t32 4h8.5t5 -1
t4 -4t1.5 -8t1 -13q0 -27 -10.5 -55t-31.5 -55.5t-60 -44.5t-90 -17z" />
    <glyph glyph-name="exclamdown" unicode="&#xa1;" horiz-adv-x="579" 
d="M289 -461q-61 0 -87 37t-26 92q0 21 15 120.5t32 286t21 412.5q0 14 8 22.5t18 8.5h41q25 0 25 -31q4 -226 20 -412.5t30.5 -286t14.5 -120.5q0 -55 -26 -92t-86 -37zM291 848q48 0 79 -33.5t31 -79.5q0 -49 -32.5 -81.5t-81.5 -32.5q-50 0 -80.5 32t-30.5 82
q0 46 32.5 79.5t82.5 33.5z" />
    <glyph glyph-name="cent" unicode="&#xa2;" 
d="M485 301v651q-79 -13 -131.5 -83.5t-52.5 -194.5q0 -313 184 -373zM569 1210v-172q112 -6 199 -69q26 -20 44.5 -49t18.5 -56q0 -30 -17.5 -48.5t-45.5 -18.5q-30 0 -48 14.5t-30 46.5q-18 45 -45 67.5t-76 26.5v-673q12 -3 29 -3q45 0 92 22.5t80 55.5q16 21 31 21
q11 0 17.5 -7.5t6.5 -19.5q0 -20 -14 -37q-78 -120 -242 -137v-139q0 -25 -6.5 -33t-21.5 -8h-29q-14 0 -20.5 8.5t-6.5 32.5v143q-160 21 -247.5 137.5t-87.5 278.5q0 111 37 203t113.5 156t184.5 83v174q0 24 6.5 32.5t20.5 8.5h29q15 0 21.5 -8t6.5 -33z" />
    <glyph glyph-name="sterling" unicode="&#xa3;" 
d="M657 -109q-38 0 -70 9t-64 31.5t-46 34t-47 42.5q-14 13 -38 38.5t-35.5 36t-31.5 24.5t-41 19t-48 5q-9 -16 -24.5 -39.5t-42.5 -56.5t-63 -55.5t-71 -22.5q-36 0 -53 20.5t-17 40.5q0 24 17.5 55t40.5 52q72 66 137 80q30 154 61 252h-119q-16 0 -23.5 0.5t-17 1.5
t-13 4t-3.5 8q0 4 2.5 10t6.5 14.5t5 12.5q7 22 17.5 27.5t34.5 5.5h141q4 11 19.5 55.5t30 86t41 109t54.5 134.5q29 68 54 116.5t59.5 97t70.5 78t84.5 48t104.5 18.5q60 0 108 -27.5t48 -78.5q0 -34 -19 -56t-49 -22q-27 0 -43.5 11t-34.5 40q-8 15 -14.5 23.5t-22 17
t-36.5 8.5q-19 0 -37.5 -9t-35 -28.5t-30.5 -40t-29 -53.5t-25.5 -59.5t-24 -66.5t-21.5 -66t-20.5 -67.5t-18.5 -61.5q-37 -115 -62 -207h234q32 0 45.5 -2.5t13.5 -12.5q0 -7 -14 -41q-9 -19 -21.5 -23.5t-52.5 -4.5h-231l-101 -252q99 -1 153 -26t120 -91q6 -6 25 -25.5
t27 -27t26 -22.5t31 -21t32 -11.5t39 -5.5q43 0 74 29.5t31 65.5q0 30 -16 46t-60 25q-29 5 -50.5 25.5t-21.5 50.5q0 39 27.5 55.5t56.5 16.5q69 0 110.5 -46t41.5 -112q0 -112 -76 -178q-68 -62 -189 -62z" />
    <glyph glyph-name="currency" unicode="&#xa4;" horiz-adv-x="962" 
d="M479 913q-105 0 -169 -88.5t-64 -201.5q0 -116 64 -204.5t169 -88.5q104 0 170 89t66 204q0 112 -66 201t-170 89zM778 387l105 -98q24 -24 24 -39q0 -8 -12 -23l-31 -30q-13 -13 -22 -13q-4 0 -29 21l-104 100q-52 -38 -104 -60t-126 -22q-79 0 -130.5 23.5t-110.5 72.5
l-105 -100q-23 -20 -29 -20q-10 0 -22 12l-31 31q-12 15 -12 22q0 15 24 39l105 98q-57 105 -57 222t59 223l-102 98q-25 25 -25 39q0 8 12 23l31 30q13 13 23 13q3 0 28 -21l105 -100q103 92 237 92q71 0 123 -21.5t105 -58.5l104 100q25 21 29 21q10 0 22 -12l31 -31
q12 -15 12 -23q0 -15 -24 -39l-103 -98q24 -44 36 -69.5t22 -69.5t10 -96q0 -74 -17.5 -126.5t-50.5 -109.5z" />
    <glyph glyph-name="yen" unicode="&#xa5;" 
d="M770 362h-201v-233q0 -33 3.5 -42t17.5 -11l98 -10q16 -2 22.5 -9.5t6.5 -25.5q0 -26 -10 -32.5t-37 -4.5q-135 6 -178 6q-66 0 -189 -6q-26 -2 -32.5 4t-6.5 33q0 19 6 26t21 9l102 10q13 1 17 12.5t4 40.5v233h-203q-23 0 -31.5 1t-14 6t-5.5 16v29q0 20 9 24t42 4h203
v127h-203q-32 0 -41.5 4t-9.5 23v29q0 17 8.5 20.5t38.5 3.5h4h186q-16 30 -91 194.5t-126 246.5q-17 27 -27 41.5t-25 28t-30 16.5l-55 8q-16 3 -22.5 10t-6.5 25q0 26 8 32t35 4q135 -6 199 -6q43 0 166 6q26 2 32.5 -3.5t6.5 -32.5q0 -19 -6 -26t-21 -9l-76 -10
q-24 -3 -24 -25q0 -34 20 -80l166 -367l164 345q37 78 37 102q0 23 -37 27l-53 8q-16 3 -22.5 10t-6.5 25q0 26 10.5 32t38.5 4q13 0 55 -3t82 -3q17 0 140 6q26 2 32.5 -3.5t6.5 -32.5q0 -18 -5.5 -25t-21.5 -10l-53 -8q-48 -10 -70 -52l-246 -475h199q24 0 31.5 -0.5
t13.5 -6t6 -17.5v-29q0 -19 -9.5 -23t-41.5 -4h-201v-127h201q24 0 32 -1t13.5 -7t5.5 -20v-29q0 -16 -9.5 -19.5t-41.5 -3.5z" />
    <glyph glyph-name="brokenbar" unicode="&#xa6;" horiz-adv-x="952" 
d="M420 610v719q0 22 2 29.5t12 7.5h80q11 0 14.5 -5t3.5 -18v-729q0 -20 -14 -20h-84q-14 0 -14 16zM420 -446v718q0 21 2 28t12 7h80q12 0 15 -4t3 -16v-729q0 -21 -14 -21h-84q-14 0 -14 17z" />
    <glyph glyph-name="section" unicode="&#xa7;" 
d="M455 -344q-87 0 -172.5 57t-85.5 137q0 25 16 47.5t45 22.5q38 0 58.5 -19t29 -46t19 -54t39.5 -46t79 -19q45 0 81 32.5t36 102.5q0 32 -15 67t-47 75t-55 65.5t-68 71t-57 57.5q-32 32 -48.5 49.5t-42 51t-38 61.5t-22.5 69t-10 86q0 84 46.5 163t143.5 136
q-59 68 -91 134t-32 112q0 61 18.5 108.5t47 75t65.5 45t69 23.5t64 6q54 0 113 -23.5t103 -69.5t44 -101q0 -24 -17 -46t-46 -22q-38 0 -58.5 19t-28.5 46t-18.5 54t-39.5 46t-80 19q-44 0 -79.5 -33t-35.5 -102q0 -32 14.5 -67t47 -76t54.5 -66t68.5 -71t57.5 -58
q40 -41 59.5 -63.5t47.5 -64t40 -87t12 -100.5q0 -85 -45.5 -164.5t-142.5 -136.5q59 -68 90 -133t31 -113q0 -60 -18.5 -107.5t-46.5 -75t-65 -45t-69.5 -24t-64.5 -6.5zM543 219q58 40 87 94t29 103q0 35 -10 70t-23.5 61t-38.5 58.5t-43.5 52.5t-51.5 54.5t-50 53.5
q-58 -40 -88 -94.5t-30 -104.5q0 -42 11.5 -80t38 -76t47.5 -62t62.5 -67t59.5 -63z" />
    <glyph glyph-name="dieresis" unicode="&#xa8;" horiz-adv-x="952" 
d="M207 1090q0 44 31 76t73 32t71.5 -27.5t29.5 -66.5q0 -45 -31.5 -78t-73.5 -33t-71 28.5t-29 68.5zM541 1090q0 44 31 76t73 32t71 -27.5t29 -66.5q0 -45 -31 -78t-73 -33t-71 28.5t-29 68.5z" />
    <glyph glyph-name="copyright" unicode="&#xa9;" horiz-adv-x="1617" 
d="M813 260q-95 0 -173 36.5t-126 96t-74 131t-26 146.5q0 105 48.5 197t146.5 152t227 60q52 0 118 -21.5t125 -66.5l23 27q7 18 26 18q21 0 21 -28q0 -99 8 -181q1 -13 -7.5 -21.5t-19.5 -8.5q-13 0 -22 9.5t-31 43.5q-100 164 -241 164q-72 0 -127.5 -28t-87 -74.5
t-47 -100.5t-15.5 -113q0 -147 78.5 -245.5t218.5 -98.5q67 0 124 29t95 78q32 41 60 41q26 0 26 -25q0 -26 -39 -74q-46 -60 -125.5 -101.5t-183.5 -41.5zM96 664q0 144 57 274.5t153 224.5t228 149.5t275 55.5q144 0 276 -55.5t227.5 -149.5t152.5 -224.5t57 -274.5
q0 -191 -96 -352t-260 -254t-357 -93q-192 0 -356 93t-260.5 254t-96.5 352zM203 664q0 -122 48 -235.5t129 -196t193.5 -132t235.5 -49.5t235.5 49.5t194 132t130 196t48.5 235.5q0 165 -81.5 307.5t-222 227.5t-304.5 85t-304 -85t-221 -227.5t-81 -307.5z" />
    <glyph glyph-name="ordfeminine" unicode="&#xaa;" horiz-adv-x="622" 
d="M340 1280q72 0 108.5 -41.5t36.5 -108.5q0 -22 -5 -89t-5 -115q0 -76 6 -107t33 -31q6 0 10.5 1t8 2.5t7 4t5 4.5t4.5 5l4 4q6 6 14 6q17 0 17 -18q0 -5 -4 -13q-14 -22 -45 -45.5t-66 -23.5t-56 17t-38 63l-8 -4q-72 -76 -160 -76q-44 0 -82.5 33t-38.5 77
q0 75 59.5 116t219.5 89q6 76 6 92q0 57 -16.5 79t-45.5 22q-92 0 -110 -97q-11 -43 -56 -43q-18 0 -34.5 10.5t-16.5 28.5q0 22 17 45q33 47 98.5 80t132.5 33zM188 852q0 -28 16 -43.5t44 -15.5q25 0 47.5 10.5t45.5 28.5t26 20q-7 68 -7 74q0 35 2 55
q-105 -36 -139.5 -62.5t-34.5 -66.5zM537 545h-424q-16 0 -20.5 5t-4.5 25v23q0 21 4 27t21 6h426q15 0 22.5 -6t7.5 -25v-18q0 -20 -7.5 -28.5t-24.5 -8.5z" />
    <glyph glyph-name="guillemotleft" unicode="&#xab;" horiz-adv-x="780" 
d="M231 403l148 -223q35 -47 35 -63q0 -11 -8 -20t-21 -9q-11 0 -20 6.5t-27 28.5q-45 50 -119 123t-104 98q-49 41 -49 59q0 20 49 60q26 22 120 116.5t115 118.5q16 19 33 19q13 0 22 -8t9 -19q0 -16 -35 -63zM537 403l147 -223q2 -3 12.5 -17.5t16.5 -25.5t6 -20
q0 -11 -8 -20t-21 -9q-19 0 -49 35q-49 53 -121.5 126t-99.5 95q-51 42 -51 59q0 18 51 60q26 22 120 116.5t115 118.5q14 19 33 19q13 0 22 -8t9 -19q0 -9 -6 -20t-16.5 -25.5t-12.5 -17.5z" />
    <glyph glyph-name="logicalnot" unicode="&#xac;" horiz-adv-x="962" 
d="M850 655v-254q0 -33 -4.5 -44t-26.5 -11h-41q-23 0 -28 11t-5 44v189h-579q-33 0 -44 4.5t-11 26.5v34q0 23 11 28t44 5h653q15 0 21 -6q10 -7 10 -27z" />
    <glyph glyph-name="registered" unicode="&#xae;" horiz-adv-x="1032" 
d="M66 934q0 180 131.5 307t318.5 127t319 -127t132 -307t-132 -307t-319 -127t-318.5 127t-131.5 307zM549 1176q69 0 117.5 -30.5t48.5 -94.5q0 -42 -29 -73t-70 -36q18 -14 38 -41.5t28 -46.5l31 -63q6 -15 30 -15q31 0 31 -28q0 -21 -24 -21q-10 0 -41 1t-41 1
q-20 0 -32 16t-30 56q-4 8 -12.5 30t-14 35t-14 27t-16.5 20q-12 12 -25.5 15.5t-52.5 3.5v-121q0 -25 6.5 -30t40.5 -5q19 0 19 -22q0 -25 -17 -25h-188q-17 0 -17 25q0 22 17 22q34 0 41.5 5t7.5 30v270q0 32 -6.5 42t-32.5 10q-25 0 -25 22q0 23 21 23q2 0 30.5 -0.5
t78 -1t102.5 -0.5zM469 977h78q76 0 76 84q0 29 -22 48t-60 19q-48 0 -60 -5t-12 -25v-121zM516 580q149 0 253.5 104t104.5 252t-104.5 252t-253.5 104t-253.5 -104t-104.5 -252t104.5 -252t253.5 -104z" />
    <glyph glyph-name="macron" unicode="&#xaf;" horiz-adv-x="1024" 
d="M672 1047h-316q-19 0 -25.5 0.5t-15.5 3t-11.5 9t-2.5 17.5v43q0 23 11 28t44 5h316q23 0 32.5 -1.5t16 -8.5t6.5 -23v-43q0 -11 -2.5 -17.5t-11.5 -9t-15.5 -3t-25.5 -0.5z" />
    <glyph glyph-name="macron" unicode="&#x304;" horiz-adv-x="1024" 
d="M672 1047h-316q-19 0 -25.5 0.5t-15.5 3t-11.5 9t-2.5 17.5v43q0 23 11 28t44 5h316q23 0 32.5 -1.5t16 -8.5t6.5 -23v-43q0 -11 -2.5 -17.5t-11.5 -9t-15.5 -3t-25.5 -0.5z" />
    <glyph glyph-name="degree" unicode="&#xb0;" horiz-adv-x="571" 
d="M164 1077q0 -60 34.5 -100.5t86.5 -40.5q51 0 87 40.5t36 100.5q0 61 -35.5 100.5t-87.5 39.5q-53 0 -87 -39.5t-34 -100.5zM72 1075q0 88 62 146.5t151 58.5q90 0 152.5 -58.5t62.5 -146.5q0 -87 -62.5 -145t-152.5 -58q-89 0 -151 58t-62 145z" />
    <glyph glyph-name="plusminus" unicode="&#xb1;" horiz-adv-x="962" 
d="M532 1114v-240h263h21.5t14.5 -1.5t11.5 -5t5 -9.5t2.5 -16v-35q0 -22 -11 -26.5t-44 -4.5h-263v-239q0 -25 -1 -34t-8 -16.5t-23 -7.5h-37q-24 0 -29.5 12t-5.5 46v239h-262q-33 0 -44 4.5t-11 26.5v35q0 10 2.5 16t5 9.5t11.5 5t14.5 1.5h21.5h262v240q0 24 1.5 33.5
t9 16.5t24.5 7h37q16 0 23 -7.5t8 -16t1 -33.5zM795 276h-629q-33 0 -44 4.5t-11 26.5v35q0 23 11 28t44 5h629q23 0 32.5 -1.5t16 -8.5t6.5 -23v-35q0 -22 -11 -26.5t-44 -4.5z" />
    <glyph glyph-name="two.superior" unicode="&#xb2;" horiz-adv-x="655" 
d="M315 1391q86 0 151.5 -53t65.5 -158q0 -74 -47.5 -148.5t-126.5 -159.5q-65 -69 -143 -141h147q59 0 84 8.5t37 26.5l25 37q11 16 31 16q9 0 14.5 -8t1.5 -20l-49 -164q-10 -29 -31 -29q-20 0 -29 18q-7 10 -15.5 13.5t-33.5 3.5h-305q-35 0 -35 22q0 15 21 33
q178 166 250 266q38 51 54.5 92.5t16.5 100.5q0 65 -35.5 105t-99.5 40q-78 0 -129 -75q-14 -19 -33 -19q-14 0 -23 13t-3 26q27 66 93 110t146 44z" />
    <glyph glyph-name="three.superior" unicode="&#xb3;" horiz-adv-x="604" 
d="M385 827q0 64 -50 109.5t-104 56.5q-16 3 -16 17q0 10 12 18q65 49 95 91.5t30 90.5q0 45 -25.5 74t-64.5 29q-61 0 -117 -74q-24 -29 -41 -29q-18 0 -26 16t0 31q76 134 229 134q70 0 121 -38t51 -104q0 -53 -31.5 -93t-105.5 -95q68 -23 120 -81.5t52 -135.5
q0 -99 -73.5 -163.5t-190.5 -64.5q-118 0 -180 56q-35 32 -35 65q0 24 16.5 40t42.5 16q36 0 68 -56q17 -32 39 -44.5t57 -12.5q55 0 91 44t36 103z" />
    <glyph glyph-name="acute" unicode="&#xb4;" horiz-adv-x="952" 
d="M659 1333q28 0 43.5 -6t15.5 -22t-22 -41q-38 -42 -71 -82t-81 -101.5t-69 -87.5q-30 -41 -53 -41q-16 0 -23 13t4 39q50 95 121 251q21 45 48 61.5t87 16.5z" />
    <glyph glyph-name="mu" unicode="&#xb5;" horiz-adv-x="962" 
d="M147 -401l-6 1093q0 23 -3 51.5t-3 34.5q0 37 84 37q68 0 68 -35q0 -19 -1 -89t-1 -99v-281q0 -123 47.5 -176t134.5 -53q32 0 73.5 15t78 51t36.5 83q0 79 -2 240.5t-2 196.5q0 21 -2 64.5t-2 62.5q0 22 84 22q35 0 51.5 -7.5t16.5 -31.5q0 -7 -1.5 -41.5t-3 -111.5
t-1.5 -185q0 -29 1 -159t1 -136q0 -18 8.5 -45.5t19.5 -27.5q26 0 40 19.5t32 19.5q16 0 21.5 -6t5.5 -21q0 -28 -42 -71.5t-85 -43.5q-54 0 -80.5 24.5t-48.5 94.5h-11q-99 -119 -247 -119q-34 0 -77 15.5t-63 42.5v-170q0 -85 13.5 -176t13.5 -121q0 -32 -14.5 -50
t-51.5 -38q-40 -21 -61 9t-21 118z" />
    <glyph glyph-name="mu" unicode="&#x3bc;" horiz-adv-x="962" 
d="M147 -401l-6 1093q0 23 -3 51.5t-3 34.5q0 37 84 37q68 0 68 -35q0 -19 -1 -89t-1 -99v-281q0 -123 47.5 -176t134.5 -53q32 0 73.5 15t78 51t36.5 83q0 79 -2 240.5t-2 196.5q0 21 -2 64.5t-2 62.5q0 22 84 22q35 0 51.5 -7.5t16.5 -31.5q0 -7 -1.5 -41.5t-3 -111.5
t-1.5 -185q0 -29 1 -159t1 -136q0 -18 8.5 -45.5t19.5 -27.5q26 0 40 19.5t32 19.5q16 0 21.5 -6t5.5 -21q0 -28 -42 -71.5t-85 -43.5q-54 0 -80.5 24.5t-48.5 94.5h-11q-99 -119 -247 -119q-34 0 -77 15.5t-63 42.5v-170q0 -85 13.5 -176t13.5 -121q0 -32 -14.5 -50
t-51.5 -38q-40 -21 -61 9t-21 118z" />
    <glyph glyph-name="paragraph" unicode="&#xb6;" horiz-adv-x="1056" 
d="M137 1100q0 22 5 47.5t25.5 63t54.5 66.5t100 50t153 21h430q17 0 17 -11l-25 -59q-6 -14 -20 -14h-101v-1514q0 -13 -14 -18l-66 -21q-7 -3 -9.5 1.5t-2.5 11.5v1540h-109v-1575q0 -15 -12 -17l-71 -22q-11 -3 -11 8v1126q0 40 -43 45q-73 5 -129 26t-88 48.5t-51.5 64
t-26 68t-6.5 64.5z" />
    <glyph glyph-name="periodcentered" unicode="&#xb7;" horiz-adv-x="475" 
d="M123 426q0 49 33.5 84t79.5 35q49 0 82.5 -34.5t33.5 -84.5t-33 -84.5t-83 -34.5q-47 0 -80 34.5t-33 84.5z" />
    <glyph glyph-name="periodcentered" unicode="&#x2219;" horiz-adv-x="475" 
d="M123 426q0 49 33.5 84t79.5 35q49 0 82.5 -34.5t33.5 -84.5t-33 -84.5t-83 -34.5q-47 0 -80 34.5t-33 84.5z" />
    <glyph glyph-name="cedilla" unicode="&#xb8;" horiz-adv-x="952" 
d="M506 -29l-49 -73q66 -24 100.5 -59t34.5 -93q0 -76 -60.5 -125t-134.5 -49q-58 0 -86 12t-28 43q0 21 14 34t33 13q10 0 20 -5t20.5 -14.5t12.5 -10.5q23 -17 49 -17t48 24.5t22 55.5q0 40 -33 68.5t-102 34.5q-29 3 -17 24l88 137h68z" />
    <glyph glyph-name="one.superior" unicode="&#xb9;" horiz-adv-x="540" 
d="M88 1237q102 62 207 129q39 25 53 25q17 0 17 -33q-3 -182 -3 -389v-205q0 -37 11.5 -50t42.5 -16l55 -4q17 -2 24 -8t7 -24q0 -23 -7.5 -30t-21.5 -5q-70 6 -184 6q-87 0 -172 -6q-14 -2 -20.5 5t-6.5 30q0 18 6.5 24t22.5 8l57 4q32 3 48 15.5t16 44.5v344
q0 70 -4 93.5t-17 23.5q-19 0 -67 -27l-37 -18q-20 -9 -33 6q-28 34 6 57z" />
    <glyph glyph-name="ordmasculine" unicode="&#xba;" horiz-adv-x="671" 
d="M338 715q-117 0 -197 84t-80 209q0 115 79 193.5t198 78.5q116 0 194 -78.5t78 -193.5q0 -126 -78 -209.5t-194 -83.5zM338 782q61 0 103 58t42 170q0 99 -42 150.5t-103 51.5q-62 0 -106 -51t-44 -151q0 -111 44.5 -169.5t105.5 -58.5zM569 545h-477q-15 0 -18.5 5
t-3.5 25v23q0 16 0.5 21t5 8.5t16.5 3.5h479q15 0 23 -6t8 -25v-22q0 -19 -7.5 -26t-25.5 -7z" />
    <glyph glyph-name="guillemotright" unicode="&#xbb;" horiz-adv-x="729" 
d="M557 403l-147 224q-2 4 -9 13.5t-11.5 16.5t-8.5 16.5t-4 16.5q0 11 8 19t21 8q18 0 32 -19q22 -25 116.5 -119.5t121.5 -115.5q49 -43 49 -60q0 -16 -49 -59q-28 -22 -100 -94t-123 -127q-30 -35 -47 -35q-14 0 -21.5 8.5t-7.5 20.5q0 9 5 19.5t16 26.5t12 17zM242 403
l-146 224q-2 3 -12.5 17.5t-16.5 25.5t-6 20q0 11 9 19t22 8q17 0 33 -19q21 -24 115 -118.5t120 -116.5q50 -41 50 -60q0 -18 -50 -59q-27 -22 -99 -94t-124 -127l-7 -7l-6 -6l-5.5 -5.5l-5 -5t-4 -3.5t-4 -3t-3.5 -2t-4 -1.5l-4 -1t-4 -0.5q-13 0 -21 9t-8 20q0 16 35 63z
" />
    <glyph glyph-name="onequarter" unicode="&#xbc;" horiz-adv-x="1556" 
d="M1298 616v-344h113q16 0 16 -12v-53q0 -12 -16 -12h-113v-185q0 -8 -3 -11.5t-7 -4t-14 -0.5h-70q-17 0 -20.5 2.5t-3.5 13.5v185h-281q-23 0 -32 1.5t-15 8t-6 20.5q0 20 37 66l321 416q41 51 66 51q21 0 24.5 -22t3.5 -120zM1180 272l2 267l2 36l-234 -303h230z
M176 1126q102 62 207 129q39 25 53 25q17 0 17 -33q-2 -121 -2 -389v-205q0 -37 11 -49.5t42 -15.5l55 -4q16 -2 23.5 -8.5t7.5 -24.5q0 -23 -7.5 -30t-21.5 -5q-71 6 -184 6q-87 0 -172 -6q-14 -2 -20.5 5t-6.5 30q0 18 6.5 24.5t22.5 8.5l57 4q33 3 48.5 15.5t15.5 43.5
v344q0 70 -4 93.5t-17 23.5q-19 0 -67 -27l-37 -18q-20 -9 -33 6q-28 34 6 57zM401 37q80 128 424 670.5t379 595.5q12 17 20.5 19.5t32.5 -9.5q26 -15 29.5 -25.5t-10.5 -32.5q-29 -49 -380 -600t-427 -669q-14 -23 -22 -24.5t-41 15.5q-21 11 -21 22.5t16 37.5z" />
    <glyph glyph-name="onehalf" unicode="&#xbd;" horiz-adv-x="1556" 
d="M127 1126q102 62 207 129q39 25 53 25q16 0 16 -33q-2 -121 -2 -389v-205q0 -37 11.5 -49.5t42.5 -15.5l55 -4q16 -2 23.5 -8.5t7.5 -24.5q0 -23 -7.5 -30t-21.5 -5q-71 6 -184 6q-86 0 -172 -6q-14 -2 -20.5 5t-6.5 30q0 18 6.5 24.5t22.5 8.5l57 4q33 3 48.5 15.5
t15.5 43.5v344q0 70 -4 93.5t-17 23.5q-20 0 -68 -27l-36 -18q-20 -9 -33 6q-28 34 6 57zM1200 758q86 0 151.5 -53t65.5 -158q0 -74 -47 -147.5t-127 -159.5q-71 -76 -143 -142h147q59 0 84 8.5t37 26.5l25 37q11 16 30 16q9 0 15 -8t2 -20l-49 -164q-10 -29 -31 -29
q-7 0 -16 5.5t-13 13.5q-6 10 -15 13t-34 3h-305q-35 0 -35 23q0 14 21 32q173 161 249 267q39 52 55.5 92.5t16.5 99.5q0 65 -35.5 105t-99.5 40q-78 0 -129 -75q-14 -19 -33 -19q-14 0 -23 13t-3 26q27 66 93 110t146 44zM352 37q80 128 424 670.5t379 595.5
q12 17 20.5 19.5t32.5 -9.5q26 -15 29.5 -25.5t-10.5 -32.5q-29 -49 -380 -600t-427 -669q-14 -23 -22.5 -24.5t-41.5 15.5q-11 6 -16 10.5t-4 12.5t4 14.5t12 22.5z" />
    <glyph glyph-name="threequarters" unicode="&#xbe;" horiz-adv-x="1556" 
d="M506 717q0 64 -50 109.5t-104 56.5q-16 3 -16 16q0 11 12 19q65 49 95 91.5t30 90.5q0 44 -25 73t-65 29q-61 0 -117 -74q-23 -28 -41 -28t-26 16t0 31q75 133 229 133q70 0 121 -37.5t51 -103.5q0 -53 -32 -93.5t-105 -95.5q68 -23 120 -81.5t52 -135.5q0 -99 -73 -163
t-191 -64q-120 0 -181 55q-34 31 -34 66q0 24 16.5 39.5t42.5 15.5q36 0 68 -55q17 -33 39 -45.5t57 -12.5q55 0 91 44.5t36 103.5zM1284 616v-344h113q16 0 16 -12v-53q0 -12 -16 -12h-113v-185q0 -8 -3 -11.5t-7 -4t-14 -0.5h-70q-17 0 -21 2.5t-4 13.5v185h-280
q-23 0 -32.5 1.5t-15.5 8t-6 20.5q0 20 37 66l322 416q41 51 65 51q21 0 25 -22.5t4 -119.5zM1165 272l2 267l2 36l-233 -303h229zM389 37q80 128 424 670.5t379 595.5q12 17 20.5 19.5t32.5 -9.5q26 -15 29.5 -25.5t-10.5 -32.5q-29 -49 -380 -600t-427 -669
q-14 -23 -22.5 -24.5t-41.5 15.5q-11 6 -16 10.5t-4 12.5t4 14.5t12 22.5z" />
    <glyph glyph-name="questiondown" unicode="&#xbf;" horiz-adv-x="727" 
d="M334 246h28q25 0 36.5 23.5t11.5 49.5v179q0 43 22 43h43q27 0 27 -43v-346q0 -15 -2.5 -26t-12.5 -20.5t-28 -7.5l-62 6q-45 5 -57 5q-11 0 -51 -5q-74 -13 -110 -52t-36 -87q0 -64 55 -120t126 -87.5t145 -46.5q86 -16 86 -90q0 -34 -30 -58t-83 -24q-63 0 -136.5 40.5
t-123.5 96.5q-49 56 -82.5 134.5t-33.5 146.5q0 59 12.5 107t41 91t83 67t131.5 24zM457 848q45 0 75.5 -32.5t30.5 -76.5q0 -47 -32 -79.5t-78 -32.5q-49 0 -78 31t-29 79q0 44 31.5 77.5t79.5 33.5z" />
    <glyph glyph-name="Agrave" unicode="&#xc0;" horiz-adv-x="1361" 
d="M428 1679q67 17 82 17q26 0 90 -41q37 -26 108.5 -78.5t116.5 -83.5q22 -17 17 -35t-29 -18q-8 0 -49 18q-225 101 -363 144q-27 8 -37 14t-10 16q0 18 14 26t60 21zM219 2q-88 0 -176 -8q-21 -2 -28 5t-7 34q0 23 7.5 31.5t29.5 13.5l57 10q35 6 57.5 40.5t55.5 129.5
l297 846q28 77 14 117q-13 34 31 55q86 46 127 84q29 29 53 29q16 0 23 -9t18 -41l367 -1048q44 -129 63 -164t54 -39l57 -10q22 -3 30.5 -12.5t8.5 -32.5q0 -27 -8 -34t-29 -5q-88 8 -203 8q-172 0 -260 -8q-21 -2 -29 5t-8 34q0 23 8.5 32.5t30.5 12.5l103 12q36 4 36 39
q0 13 -4 33t-8.5 34.5t-11.5 35.5t-8 26l-93 272h-452l-92 -274q-35 -109 -35 -129q0 -15 10 -26.5t25 -12.5l86 -10q22 -3 30.5 -12.5t8.5 -32.5q0 -27 -8 -34t-29 -5q-88 8 -199 8zM453 618h389l-176 525q-13 35 -19 37q-9 0 -18 -31z" />
    <glyph glyph-name="Aacute" unicode="&#xc1;" horiz-adv-x="1361" 
d="M950 1679q46 -13 60 -21t14 -26q0 -10 -9 -15t-38 -15q-178 -62 -363 -144q-41 -18 -49 -18q-24 0 -29 18t19 35q45 30 115 83t108 79q64 41 90 41q15 0 82 -17zM219 2q-88 0 -176 -8q-21 -2 -28 5t-7 34q0 23 7.5 31.5t29.5 13.5l57 10q35 6 57.5 40.5t55.5 129.5
l297 846q28 77 14 117q-13 34 31 55q86 46 127 84q29 29 53 29q16 0 23 -9t18 -41l367 -1048q44 -129 63 -164t54 -39l57 -10q22 -3 30.5 -12.5t8.5 -32.5q0 -27 -8 -34t-29 -5q-88 8 -203 8q-172 0 -260 -8q-21 -2 -29 5t-8 34q0 23 8.5 32.5t30.5 12.5l103 12q36 4 36 39
q0 13 -4 33t-8.5 34.5t-11.5 35.5t-8 26l-93 272h-452l-92 -274q-35 -109 -35 -129q0 -15 10 -26.5t25 -12.5l86 -10q22 -3 30.5 -12.5t8.5 -32.5q0 -27 -8 -34t-29 -5q-88 8 -199 8zM453 618h389l-176 525q-13 35 -19 37q-9 0 -18 -31z" />
    <glyph glyph-name="Acircumflex" unicode="&#xc2;" horiz-adv-x="1361" 
d="M686 1567l-180 -99q-51 -28 -72 -28q-18 0 -23.5 18t11.5 33q165 142 186 162q47 47 78 47t78 -47q21 -20 186 -162q17 -15 11.5 -33t-23.5 -18q-21 0 -72 28zM219 2q-88 0 -176 -8q-21 -2 -28 5t-7 34q0 23 7.5 31.5t29.5 13.5l57 10q35 6 57.5 40.5t55.5 129.5l297 846
q28 77 14 117q-13 34 31 55q86 46 127 84q29 29 53 29q16 0 23 -9t18 -41l367 -1048q44 -129 63 -164t54 -39l57 -10q22 -3 30.5 -12.5t8.5 -32.5q0 -27 -8 -34t-29 -5q-88 8 -203 8q-172 0 -260 -8q-21 -2 -29 5t-8 34q0 23 8.5 32.5t30.5 12.5l103 12q36 4 36 39
q0 13 -4 33t-8.5 34.5t-11.5 35.5t-8 26l-93 272h-452l-92 -274q-35 -109 -35 -129q0 -15 10 -26.5t25 -12.5l86 -10q22 -3 30.5 -12.5t8.5 -32.5q0 -27 -8 -34t-29 -5q-88 8 -199 8zM453 618h389l-176 525q-13 35 -19 37q-9 0 -18 -31z" />
    <glyph glyph-name="Atilde" unicode="&#xc3;" horiz-adv-x="1361" 
d="M815 1479q-57 0 -140.5 29.5t-135.5 29.5q-13 0 -23.5 -3t-16.5 -6.5t-10.5 -10.5t-6.5 -10.5t-4.5 -11.5t-2.5 -9q-6 -20 -13 -24.5t-28 -4.5q-16 0 -20 4.5t-4 22.5q0 60 37 113t114 53q59 0 142 -30t135 -30q16 0 27 3t17.5 11t9.5 11.5t6 14.5l3 11q6 20 13 24.5
t28 4.5q16 0 20.5 -4t4.5 -22q0 -60 -37.5 -113t-114.5 -53zM219 2q-88 0 -176 -8q-21 -2 -28 5t-7 34q0 23 7.5 31.5t29.5 13.5l57 10q35 6 57.5 40.5t55.5 129.5l297 846q28 77 14 117q-13 34 31 55q86 46 127 84q29 29 53 29q16 0 23 -9t18 -41l367 -1048
q44 -129 63 -164t54 -39l57 -10q22 -3 30.5 -12.5t8.5 -32.5q0 -27 -8 -34t-29 -5q-88 8 -203 8q-172 0 -260 -8q-21 -2 -29 5t-8 34q0 23 8.5 32.5t30.5 12.5l103 12q36 4 36 39q0 13 -4 33t-8.5 34.5t-11.5 35.5t-8 26l-93 272h-452l-92 -274q-35 -109 -35 -129
q0 -15 10 -26.5t25 -12.5l86 -10q22 -3 30.5 -12.5t8.5 -32.5q0 -27 -8 -34t-29 -5q-88 8 -199 8zM453 618h389l-176 525q-13 35 -19 37q-9 0 -18 -31z" />
    <glyph glyph-name="Adieresis" unicode="&#xc4;" horiz-adv-x="1361" 
d="M401 1556q0 44 31.5 75.5t73.5 31.5t71 -27.5t29 -66.5q0 -45 -31 -77t-73 -32q-43 0 -72 28t-29 68zM784 1556q0 44 31.5 75.5t73.5 31.5t71 -27.5t29 -66.5q0 -45 -31 -77t-73 -32q-43 0 -72 28t-29 68zM219 2q-88 0 -176 -8q-21 -2 -28 5t-7 34q0 23 7.5 31.5
t29.5 13.5l57 10q35 6 57.5 40.5t55.5 129.5l297 846q28 77 14 117q-13 34 31 55q86 46 127 84q29 29 53 29q16 0 23 -9t18 -41l367 -1048q44 -128 63 -162.5t54 -40.5l57 -10q22 -3 30.5 -12.5t8.5 -32.5q0 -27 -8 -34t-29 -5q-88 8 -203 8q-172 0 -260 -8q-21 -2 -29 5
t-8 34q0 23 8.5 32.5t30.5 12.5l103 12q36 4 36 39q0 13 -4 33t-8.5 34.5t-11.5 35.5t-8 26l-93 272h-452l-92 -274q-35 -109 -35 -129q0 -15 10 -26.5t25 -12.5l86 -10q22 -3 30.5 -12.5t8.5 -32.5q0 -27 -8 -34t-29 -5q-88 8 -199 8zM453 618h389l-176 525q-13 35 -19 37
q-9 0 -18 -31z" />
    <glyph glyph-name="Aring" unicode="&#xc5;" horiz-adv-x="1349" 
d="M580 1481q0 -49 26 -81t74 -32t73 31.5t25 81.5q0 43 -25.5 73.5t-72.5 30.5t-73.5 -30.5t-26.5 -73.5zM221 2q-88 0 -176 -8q-21 -2 -28 5t-7 34q0 23 7.5 31.5t29.5 13.5l57 10q34 6 56 40.5t55 129.5l371 1055q-92 56 -92 168q0 75 54 128.5t132 53.5t131 -52.5
t53 -129.5q0 -53 -24.5 -94t-57.5 -62l365 -1034q44 -129 63 -164t54 -39l55 -10q22 -3 30.5 -12.5t8.5 -32.5q0 -27 -8 -34t-29 -5q-88 8 -201 8q-174 0 -262 -8q-21 -2 -29 5t-8 34q0 23 8.5 32.5t30.5 12.5l105 14q34 4 34 39q0 26 -30 127l-92 272h-453l-94 -274
q-2 -9 -12 -36.5t-16.5 -51t-6.5 -37.5q0 -16 9.5 -29t27.5 -14l86 -10q22 -3 30.5 -12.5t8.5 -32.5q0 -27 -8 -34t-29 -5q-88 8 -199 8zM453 618h389l-176 525q-13 35 -19 37q-9 0 -18 -31z" />
    <glyph glyph-name="AE" unicode="&#xc6;" horiz-adv-x="1916" 
d="M940 713l-2 506l-287 -506h289zM217 2q-88 0 -194 -8q-31 -3 -38.5 3.5t-7.5 37.5q0 25 9.5 31.5t42.5 11.5l65 10q81 12 164 160l518 907q25 45 25 64q0 12 -10 21.5t-25 10.5l-72 4q-21 1 -25.5 8.5t-4.5 36.5q0 26 8 32.5t30 6.5h334q46 0 214.5 -1t201.5 -1
q143 0 266 9q17 2 31.5 -7.5t15.5 -31.5q12 -148 39 -269q5 -20 -2 -29.5t-35 -13.5q-22 -3 -31.5 4t-17.5 29l-28 76q-12 31 -23 51t-31.5 42t-48 34.5t-71 20.5t-101.5 8h-295v-547h156q72 0 111 6.5t53 18t18 32.5l23 119q5 23 13.5 31t31.5 8q29 0 36 -8t5 -29
q-8 -88 -8 -248q0 -127 8 -215q2 -19 -11.5 -28t-44.5 -9q-9 0 -14.5 0.5t-8.5 5.5t-3.5 6.5t-1.5 12t-2 14.5l-23 117q-14 82 -182 82h-156v-363q0 -49 1 -74.5t9.5 -50.5t19 -34.5t37.5 -17.5t57 -9.5t85 -1.5h164q73 0 117 8.5t73.5 34t45 57t34.5 92.5l25 78
q8 23 16.5 30.5t30.5 4.5q28 -3 35 -12t4 -29q-26 -158 -39 -303q-1 -23 -18 -35t-33 -10q-109 8 -256 8h-254q-85 0 -282 -3.5t-226 -6.5q-21 -2 -29 6t-8 37q0 23 8.5 31.5t30.5 11.5l100 12q35 3 53.5 18t18.5 52v467h-338l-233 -406q-39 -68 -39 -100t30 -37l46 -6
q19 -3 25.5 -11t6.5 -30q0 -31 -8 -38t-37 -5q-114 8 -176 8z" />
    <glyph glyph-name="Ccedilla" unicode="&#xc7;" horiz-adv-x="1406" 
d="M672 -190l98 151q-207 1 -362.5 100.5t-235.5 267.5t-80 378q0 132 52.5 254t145 214.5t228.5 147.5t293 55q118 0 209.5 -34.5t185.5 -102.5l39 39q20 20 39 20q25 0 25 -34q-2 -49 -0.5 -90t6 -98.5t6.5 -86.5q2 -20 -3.5 -26.5t-31.5 -12.5q-13 -3 -22 1.5t-13.5 11.5
t-11.5 22l-47 80q-138 227 -387 227q-106 0 -193.5 -37.5t-145 -97.5t-97 -138t-57 -156.5t-17.5 -155.5q0 -144 48 -270t130 -208q145 -145 346 -145q223 0 387 164q4 4 15 14t22.5 21.5t20.5 21.5q17 16 24.5 15.5t20.5 -9.5q25 -19 29 -25.5t-5 -25.5q-14 -22 -55 -69
q-186 -205 -432 -228l-47 -76q82 -30 118.5 -70t36.5 -104q0 -87 -70 -147t-163 -60q-46 0 -86.5 18.5t-40.5 47.5q0 25 17 41t40 16q7 0 13.5 -2t13.5 -7t10 -7.5t10 -10.5l7 -7q23 -23 63 -23q33 0 58.5 32.5t25.5 69.5q0 44 -40.5 66t-125.5 33q-13 1 -17 13t3 22z" />
    <glyph glyph-name="Egrave" unicode="&#xc8;" horiz-adv-x="1275" 
d="M395 1679q67 17 82 17q7 0 15.5 -2t14.5 -4.5t16 -8t14.5 -8.5l15 -10t12.5 -8q36 -25 108.5 -78t117.5 -84q24 -17 18.5 -35t-29.5 -18q-6 0 -51 18q-227 102 -360 144q-27 8 -37 14t-10 16q0 18 14 26t59 21zM887 2q-124 0 -436 -3t-355 -7q-21 -2 -29 6t-8 37
q0 23 8.5 31.5t30.5 11.5l101 12q35 3 53 18t18 52v1003q0 29 -4 45.5t-18.5 25t-26.5 11t-43 6.5l-80 11q-22 1 -30.5 11.5t-8.5 33.5q0 27 8 34t29 5q99 -9 715 -9q113 0 266 13q16 2 31 -9t16 -34q12 -148 39 -269q5 -20 -2 -29.5t-35 -13.5q-22 -3 -31.5 4t-17.5 29
l-28 76q-12 31 -23 51t-31.5 42t-48 34.5t-71 20.5t-101.5 8h-323v-525h184q72 0 110.5 6.5t52.5 17.5t19 32l23 118q5 23 13.5 31t31.5 8q29 0 36 -8t5 -29q-8 -88 -8 -247q0 -127 8 -215q2 -19 -11.5 -28t-44.5 -9q-9 0 -14.5 0.5t-8.5 5.5t-3.5 6.5t-1.5 12t-2 14.5
l-23 116q-6 28 -19 44.5t-53 28t-110 11.5h-184v-385q0 -45 3 -74t14.5 -51t25.5 -33.5t44.5 -18t62 -8t87.5 -1.5h164q59 0 98.5 6.5t66.5 18t46.5 36.5t31.5 53t27 76l25 78q8 23 16.5 30.5t30.5 4.5q28 -3 35 -12t4 -29q-26 -158 -39 -303q-1 -23 -18 -35t-33 -10
q-109 8 -256 8z" />
    <glyph glyph-name="Eacute" unicode="&#xc9;" horiz-adv-x="1275" 
d="M948 1679q46 -13 60 -21t14 -26q0 -10 -10 -16t-37 -14q-191 -67 -363 -144q-41 -18 -49 -18q-24 0 -30 18t18 35q45 31 116.5 83.5t108.5 78.5q64 41 90 41q15 0 82 -17zM887 2q-124 0 -436 -3t-355 -7q-21 -2 -29 6t-8 37q0 23 8.5 31.5t30.5 11.5l101 12q35 3 53 18
t18 52v1003q0 54 -20 69.5t-72 20.5l-80 9q-22 1 -30.5 11.5t-8.5 33.5q0 27 8 34t29 5q99 -9 715 -9q143 0 266 9q17 2 31.5 -7.5t15.5 -31.5q12 -148 39 -269q5 -20 -2 -29.5t-35 -13.5q-22 -3 -31.5 4t-17.5 29l-28 76q-12 31 -23 51t-31.5 42t-48 34.5t-71 20.5
t-101.5 8h-323v-529h184q105 0 140.5 12t41.5 43l23 119q5 23 13.5 31t31.5 8q29 0 36 -8t5 -29q-8 -88 -8 -248q0 -127 8 -215q2 -19 -11.5 -27.5t-44.5 -8.5q-8 0 -13 1t-8 2t-4.5 5.5t-2 6.5t-1 10t-1.5 13l-23 117q-8 45 -43.5 64.5t-138.5 19.5h-184v-381q0 -45 3 -74
t14.5 -51t25.5 -33.5t44.5 -18.5t62 -8.5t87.5 -2.5q31 0 83 1t81 1q59 0 98.5 6.5t66.5 18t46.5 36.5t31.5 53t27 76l25 78q8 23 16.5 30.5t30.5 4.5q28 -3 35 -12t4 -29q-26 -158 -39 -303q-1 -23 -18 -35t-33 -10q-109 8 -256 8z" />
    <glyph glyph-name="Ecircumflex" unicode="&#xca;" horiz-adv-x="1275" 
d="M887 2q-124 0 -436 -3t-355 -7q-21 -2 -29 6t-8 37q0 23 8.5 31.5t30.5 11.5l101 12q35 3 53 18t18 52v1003q0 54 -20 69.5t-72 20.5l-80 9q-22 1 -30.5 11.5t-8.5 33.5q0 27 8 34t29 5q99 -9 715 -9q143 0 266 9q17 2 31.5 -7.5t15.5 -31.5q12 -148 39 -269
q5 -20 -2 -29.5t-35 -13.5q-22 -3 -30.5 4t-18.5 29l-28 76q-12 31 -23 51t-31.5 42t-48 34.5t-71 20.5t-101.5 8h-323v-529h184q105 0 140.5 12t41.5 43l23 119q5 23 13.5 31t31.5 8q29 0 36 -8t5 -29q-8 -88 -8 -248q0 -127 8 -215q2 -19 -11.5 -27.5t-44.5 -8.5
q-8 0 -13 1t-8 2t-4.5 5.5t-2 6.5t-1 10t-1.5 13l-23 117q-8 45 -43.5 64.5t-138.5 19.5h-184v-381q0 -45 3 -74t14.5 -51t25.5 -33.5t44.5 -18t62 -8t87.5 -1.5h164q59 0 98.5 6.5t66.5 18t46.5 36.5t31.5 53t27 76l25 78q8 23 16.5 30.5t30.5 4.5q28 -3 35 -12t4 -29
q-26 -158 -39 -303q-1 -23 -18 -35t-33 -10q-109 8 -256 8zM670 1567l-181 -99q-51 -28 -71 -28q-18 0 -23.5 18t11.5 33q165 142 186 162q47 47 78 47t78 -47q21 -20 186 -162q17 -15 11.5 -33t-23.5 -18q-21 0 -72 28z" />
    <glyph glyph-name="Edieresis" unicode="&#xcb;" horiz-adv-x="1275" 
d="M887 2q-124 0 -436 -3t-355 -7q-21 -2 -29 6t-8 37q0 23 8.5 31.5t30.5 11.5l101 12q35 3 53 18t18 52v1003q0 54 -20 69.5t-72 20.5l-80 9q-22 1 -30.5 11.5t-8.5 33.5q0 27 8 34t29 5q99 -9 715 -9q143 0 266 9q17 2 31.5 -7.5t15.5 -31.5q12 -148 39 -269
q5 -20 -2 -29.5t-35 -13.5q-22 -3 -30.5 4t-18.5 29l-28 76q-12 31 -23 51t-31.5 42t-48 34.5t-71 20.5t-101.5 8h-323v-529h184q105 0 140.5 12t41.5 43l23 119q5 23 13.5 31t31.5 8q29 0 36 -8t5 -29q-8 -88 -8 -248q0 -127 8 -215q2 -19 -11.5 -27.5t-44.5 -8.5
q-8 0 -13 1t-8 2t-4.5 5.5t-2 6.5t-1 10t-1.5 13l-23 117q-8 45 -43.5 64.5t-138.5 19.5h-184v-381q0 -45 3 -74t14.5 -51t25.5 -33.5t44.5 -18t62 -8t87.5 -1.5h164q59 0 98.5 6.5t66.5 18t46.5 36.5t31.5 53t27 76l25 78q8 23 16.5 30.5t30.5 4.5q28 -3 35 -12t4 -29
q-26 -158 -39 -303q-1 -23 -18 -35t-33 -10q-109 8 -256 8zM362 1538q0 44 32.5 75.5t74.5 31.5t71 -28t29 -67q0 -45 -32 -76.5t-74 -31.5q-43 0 -72 28t-29 68zM778 1538q0 44 31.5 75.5t73.5 31.5t71 -28t29 -67q0 -45 -31 -76.5t-73 -31.5q-43 0 -72 28t-29 68z" />
    <glyph glyph-name="Igrave" unicode="&#xcc;" horiz-adv-x="731" 
d="M47 1663q63 16 82 16q10 0 23.5 -5t21 -8.5t25.5 -15t20 -12.5q25 -18 100 -73t123 -88q24 -17 19 -35.5t-29 -18.5q-6 0 -12.5 2.5t-18.5 8t-20 8.5q-157 71 -361 143q-47 13 -47 31t14 26t60 21zM365 2q-158 0 -246 -8q-21 -2 -29 5t-8 34q0 23 8.5 32.5t30.5 12.5
l90 10q36 5 49.5 17t13.5 42v1045q0 30 -13.5 42t-49.5 17l-90 11q-22 3 -30.5 11.5t-8.5 31.5q0 29 8 36t29 5q99 -9 264 -9q130 0 229 9q21 2 29 -5t8 -36q0 -23 -8.5 -31.5t-30.5 -11.5l-98 -13q-31 -3 -43 -14t-12 -41v-1047q0 -29 12 -40.5t43 -16.5l98 -12
q22 -3 30.5 -12.5t8.5 -32.5q0 -27 -8 -34t-29 -5q-88 8 -247 8z" />
    <glyph glyph-name="Iacute" unicode="&#xcd;" horiz-adv-x="731" 
d="M666 1679q45 -13 59 -21t14 -26q0 -10 -10 -16t-37 -14q-186 -65 -362 -144q-41 -18 -49 -18q-24 0 -30.5 18t17.5 35q45 31 117.5 84t108.5 78q64 41 90 41q15 0 82 -17zM365 2q-158 0 -246 -8q-21 -2 -29 5t-8 34q0 23 8.5 32.5t30.5 12.5l90 10q36 5 49.5 17t13.5 42
v1045q0 30 -13.5 42t-49.5 17l-90 11q-22 3 -30.5 11.5t-8.5 31.5q0 29 8 36t29 5q99 -9 264 -9q130 0 229 9q21 2 29 -5t8 -36q0 -23 -8.5 -31.5t-30.5 -11.5l-98 -13q-31 -3 -43 -14t-12 -41v-1047q0 -29 12 -40.5t43 -16.5l98 -12q22 -3 30.5 -12.5t8.5 -32.5
q0 -27 -8 -34t-29 -5q-88 8 -247 8z" />
    <glyph glyph-name="Icircumflex" unicode="&#xce;" horiz-adv-x="731" 
d="M365 1567l-181 -99q-51 -28 -71 -28q-18 0 -23.5 18t10.5 33q177 153 187 162q47 47 78 47q30 0 77 -47q10 -9 187 -162q16 -15 10.5 -33t-23.5 -18q-20 0 -71 28zM365 2q-158 0 -246 -8q-21 -2 -29 5t-8 34q0 23 8.5 32.5t30.5 12.5l90 10q36 5 49.5 17t13.5 42v1045
q0 30 -13.5 42t-49.5 17l-90 11q-22 3 -30.5 11.5t-8.5 31.5q0 29 8 36t29 5q99 -9 264 -9q130 0 229 9q21 2 29 -5t8 -36q0 -23 -8.5 -31.5t-30.5 -11.5l-98 -13q-31 -3 -43 -14t-12 -41v-1047q0 -29 12 -40.5t43 -16.5l98 -12q22 -3 30.5 -12.5t8.5 -32.5q0 -27 -8 -34
t-29 -5q-88 8 -247 8z" />
    <glyph glyph-name="Idieresis" unicode="&#xcf;" horiz-adv-x="731" 
d="M72 1552q0 39 27 66t69 27t70 -28t28 -67q0 -44 -27.5 -71t-70.5 -27t-69.5 28t-26.5 72zM461 1552q0 39 27.5 66t70.5 27q41 0 69.5 -28t28.5 -67q0 -44 -28 -71t-70 -27q-44 0 -71 28t-27 72zM365 2q-158 0 -246 -8q-21 -2 -29 5t-8 34q0 23 8.5 32.5t30.5 12.5l90 10
q36 5 49.5 17t13.5 42v1045q0 30 -13.5 42t-49.5 17l-90 11q-22 3 -30.5 11.5t-8.5 31.5q0 29 8 36t29 5q99 -9 264 -9q130 0 229 9q21 2 29 -5t8 -36q0 -23 -8.5 -31.5t-30.5 -11.5l-98 -13q-31 -3 -43 -14t-12 -41v-1047q0 -29 12 -40.5t43 -16.5l98 -12q22 -3 30.5 -12.5
t8.5 -32.5q0 -27 -8 -34t-29 -5q-88 8 -247 8z" />
    <glyph glyph-name="Eth" unicode="&#xd0;" horiz-adv-x="1509" 
d="M360 2q-176 0 -264 -8q-21 -2 -29 5t-8 34q0 23 8.5 32.5t30.5 12.5l101 12q37 5 54 19.5t17 48.5v483h-190q-17 0 -22 5.5t-5 21.5v39q0 16 6 20t21 4h190v440q0 39 -15.5 57t-51.5 23l-105 11q-22 3 -30.5 11.5t-8.5 31.5q0 29 8 36t29 5q110 -5 264 -5q19 0 128.5 2.5
t226.5 2.5q147 0 266.5 -37t199.5 -100t134 -150t78 -183t24 -202q0 -300 -184 -484q-196 -196 -531 -196q-109 0 -215.5 4t-126.5 4zM680 74q246 0 389 167t143 433q0 95 -20 181t-63 161.5t-105.5 130.5t-152.5 87t-199 32q-118 0 -168 -15q-30 -9 -41.5 -31t-11.5 -65
v-424h278q15 0 21 -4t6 -20v-39q0 -16 -5 -21.5t-22 -5.5h-278v-438q0 -78 46 -103.5t183 -25.5z" />
    <glyph glyph-name="Ntilde" unicode="&#xd1;" horiz-adv-x="1525" 
d="M907 1473q-57 0 -140.5 29.5t-135.5 29.5q-13 0 -23.5 -3t-16.5 -6.5t-10.5 -10.5t-6.5 -10.5t-4.5 -11.5t-2.5 -9q-6 -20 -13 -24.5t-28 -4.5q-16 0 -20 4.5t-4 22.5q0 60 37 113t114 53q59 0 142 -30t135 -30q16 0 27 3t17.5 11t9.5 11.5t6 14.5l3 11q6 20 13 24.5
t28 4.5q16 0 20.5 -4.5t4.5 -22.5q0 -60 -37.5 -112.5t-114.5 -52.5zM313 2q-104 0 -192 -8q-22 -2 -32.5 5t-10.5 34q0 24 8.5 33t30.5 12l73 10q60 7 64 135q2 45 2 404v483q0 119 -100 139l-70 13q-23 5 -31 13.5t-8 31.5q0 27 8 34t29 5q143 -9 238 -9q59 0 77 -22
q18 -18 164 -211q35 -48 233.5 -294.5t237.5 -291.5q23 -27 43.5 -52t35 -42.5t27.5 -33.5t21 -26t14.5 -18.5t10.5 -13t7.5 -8t5 -4.5t3.5 -1q7 0 8.5 11.5t1.5 44.5v543q0 194 -17.5 259t-78.5 72l-84 13q-22 3 -30.5 12t-8.5 33q0 27 8 34t29 5q99 -9 244 -9q71 0 170 9
q22 2 32.5 -5t10.5 -34q0 -24 -8.5 -33t-30.5 -12l-74 -11q-59 -7 -63 -135q-2 -45 -2 -403v-658q0 -49 -7 -71.5t-26 -22.5q-18 0 -30 10.5t-42 51.5q-28 39 -121 155q-9 11 -295 359.5t-342 420.5q-22 28 -49 63q-32 40 -37 40q-8 0 -8 -47v-639q0 -122 8.5 -179t28.5 -80
t64 -28l79 -10q23 -5 31 -13t8 -32q0 -27 -7.5 -34t-28.5 -5q-88 8 -222 8z" />
    <glyph glyph-name="Ograve" unicode="&#xd2;" horiz-adv-x="1558" 
d="M446 1686q63 16 82 16q26 0 90 -41q41 -29 112 -81.5t112 -80.5q18 -13 18 -29q0 -10 -8 -17t-21 -7q-8 0 -49 18q-239 106 -362 144q-27 8 -37 14t-10 16q0 18 14.5 26.5t58.5 21.5zM778 -39q-159 0 -290.5 59t-217 159t-132 231t-46.5 278q0 129 46 251t130.5 220
t217 157.5t292.5 59.5t293 -59.5t217.5 -157.5t131 -220t46.5 -251q0 -147 -47 -278t-133 -231t-217.5 -159t-290.5 -59zM778 45q90 0 168.5 36t135.5 98.5t98 144.5t61.5 175t20.5 189q0 90 -20.5 177.5t-62 164.5t-99 135.5t-135.5 92.5t-167 34t-167 -34t-134.5 -92.5
t-97.5 -135.5t-61.5 -164.5t-20.5 -177.5q0 -121 32.5 -235t91.5 -205.5t152 -147t205 -55.5z" />
    <glyph glyph-name="Oacute" unicode="&#xd3;" horiz-adv-x="1550" 
d="M1057 1686q44 -13 58.5 -21.5t14.5 -26.5q0 -10 -10 -16t-37 -14q-186 -65 -362 -144q-41 -18 -49 -18q-14 0 -22.5 7t-8.5 17q0 17 18 29q45 31 117.5 84t108.5 78q64 41 90 41q19 0 82 -16zM778 -39q-159 0 -290.5 59t-217 159t-132 231t-46.5 278q0 129 46 251
t130.5 220t217 157.5t292.5 59.5t293 -59.5t217.5 -157.5t131 -220t46.5 -251q0 -147 -47 -278t-133 -231t-217.5 -159t-290.5 -59zM778 45q90 0 168.5 36t135.5 98.5t98 144.5t61.5 175t20.5 189q0 90 -20.5 177.5t-62 164.5t-99 135.5t-135.5 92.5t-167 34t-167 -34
t-134.5 -92.5t-97.5 -135.5t-61.5 -164.5t-20.5 -177.5q0 -121 32.5 -235t91.5 -205.5t152 -147t205 -55.5z" />
    <glyph glyph-name="Ocircumflex" unicode="&#xd4;" horiz-adv-x="1558" 
d="M778 1567l-180 -99q-51 -28 -72 -28q-18 0 -23.5 18t11.5 33q165 142 186 162q47 47 78 47t78 -47q21 -20 186 -162q17 -15 11.5 -33t-23.5 -18q-21 0 -72 28zM778 -39q-159 0 -290.5 59t-217 159t-132 231t-46.5 278q0 129 46 251t130.5 220t217 157.5t292.5 59.5
t293 -59.5t217.5 -157.5t131 -220t46.5 -251q0 -147 -47 -278t-133 -231t-217.5 -159t-290.5 -59zM778 45q90 0 168.5 36t135.5 98.5t98 144.5t61.5 175t20.5 189q0 90 -20.5 177.5t-62 164.5t-99 135.5t-135.5 92.5t-167 34t-167 -34t-134.5 -92.5t-97.5 -135.5
t-61.5 -164.5t-20.5 -177.5q0 -121 32.5 -235t91.5 -205.5t152 -147t205 -55.5z" />
    <glyph glyph-name="Otilde" unicode="&#xd5;" horiz-adv-x="1558" 
d="M893 1491q-57 0 -141 29.5t-136 29.5q-16 0 -27 -3t-17.5 -11t-9.5 -11.5t-6 -14.5l-3 -11q-6 -20 -13 -24.5t-28 -4.5q-16 0 -20.5 4.5t-4.5 22.5q0 60 37.5 113t114.5 53q59 0 141.5 -29.5t134.5 -29.5q13 0 23.5 3t16.5 6.5t10.5 10.5t6.5 10.5t4.5 11.5t2.5 9
q6 19 13 23.5t28 4.5q16 0 20 -4t4 -22q0 -60 -37 -113t-114 -53zM778 -39q-159 0 -290.5 59t-217 159t-132 231t-46.5 278q0 129 46 251t130.5 220t217 157.5t292.5 59.5t293 -59.5t217.5 -157.5t131 -220t46.5 -251q0 -147 -47 -278t-133 -231t-217.5 -159t-290.5 -59z
M778 45q90 0 168.5 36t135.5 98.5t98 144.5t61.5 175t20.5 189q0 90 -20.5 177.5t-62 164.5t-99 135.5t-135.5 92.5t-167 34t-167 -34t-134.5 -92.5t-97.5 -135.5t-61.5 -164.5t-20.5 -177.5q0 -121 32.5 -235t91.5 -205.5t152 -147t205 -55.5z" />
    <glyph glyph-name="Odieresis" unicode="&#xd6;" horiz-adv-x="1558" 
d="M467 1556q0 44 31 75.5t73 31.5t71.5 -27.5t29.5 -66.5q0 -45 -31.5 -77t-73.5 -32t-71 28t-29 68zM889 1556q0 44 31 75.5t73 31.5t71.5 -27.5t29.5 -66.5q0 -45 -31.5 -77t-73.5 -32t-71 28t-29 68zM778 -39q-159 0 -290.5 59t-217 159t-132 231t-46.5 278
q0 129 46 251t130.5 220t217 157.5t292.5 59.5t293 -59.5t217.5 -157.5t131 -220t46.5 -251q0 -147 -47 -278t-133 -231t-217.5 -159t-290.5 -59zM778 45q90 0 168.5 36t135.5 98.5t98 144.5t61.5 175t20.5 189q0 90 -20.5 177.5t-62 164.5t-99 135.5t-135.5 92.5t-167 34
t-167 -34t-134.5 -92.5t-97.5 -135.5t-61.5 -164.5t-20.5 -177.5q0 -121 32.5 -235t91.5 -205.5t152 -147t205 -55.5z" />
    <glyph glyph-name="multiply" unicode="&#xd7;" 
d="M492 571l-263 -262q-28 -28 -39 -28q-8 0 -20 12l-25 22q-14 14 -14 23q0 5 3.5 9.5t13 14.5t14.5 15l262 262l-258 258q-31 31 -31 41t12 25l23 22q12 12 25 12q6 0 34 -28l263 -262l264 264q26 26 39 26q11 0 24 -10l25 -24q8 -12 8 -17q0 -14 -29 -43l-264 -264
l262 -262q29 -29 29 -39t-6 -19l-25 -26q-15 -12 -24 -12q-16 0 -41 28z" />
    <glyph glyph-name="Oslash" unicode="&#xd8;" horiz-adv-x="1566" 
d="M782 -39q-262 0 -434 145l-176 -192q-10 -14 -22 -14q-13 0 -35.5 19.5t-22.5 33.5q0 10 6 16l183 201q-92 101 -140.5 235t-48.5 279q0 102 27.5 201t84.5 188t137 156.5t194 107t247 39.5q260 0 443 -155l164 178q16 16 28 16q11 0 34.5 -17.5t23.5 -29.5
q0 -15 -11 -22l-174 -189q84 -90 130 -215.5t46 -257.5q0 -142 -46.5 -271.5t-131.5 -230.5t-216.5 -161t-289.5 -60zM782 1292q-141 0 -253 -82.5t-172 -220.5t-60 -305q0 -214 98 -395l729 827q-62 81 -151.5 128.5t-190.5 47.5zM782 45q105 0 196 52.5t152.5 141
t96.5 204t35 241.5q0 188 -84 350l-727 -825q133 -164 331 -164z" />
    <glyph glyph-name="Ugrave" unicode="&#xd9;" horiz-adv-x="1474" 
d="M532 1679q67 17 82 17q31 0 88 -41q147 -108 226 -162q24 -17 19 -35t-29 -18q-7 0 -52 18q-183 82 -360 144q-29 10 -39 16t-10 16q0 16 14.5 24t60.5 21zM764 -39q-251 0 -392 119t-141 377v729q0 36 -14.5 49t-56.5 18l-84 9q-22 1 -30.5 11.5t-8.5 33.5q0 27 8 34
t29 5q99 -9 248 -9q146 0 245 9q21 2 29 -5t8 -34q0 -23 -8.5 -33.5t-30.5 -11.5l-76 -11q-48 -6 -62.5 -17t-14.5 -46v-694q0 -228 97 -328t294 -100q143 0 229 86q62 62 87.5 150.5t25.5 268.5v148q0 139 -10 414q-2 48 -24 80t-64 38l-74 11q-22 3 -30.5 12.5t-8.5 32.5
q0 27 8 34t29 5q99 -9 235 -9q98 0 197 9q21 2 29 -5t8 -34q0 -23 -8.5 -33.5t-30.5 -11.5l-62 -9q-43 -4 -58 -31t-17 -89q-1 -36 -5 -143.5t-4 -160.5v-272q0 -199 -31 -301.5t-94 -165.5q-129 -129 -366 -129z" />
    <glyph glyph-name="Uacute" unicode="&#xda;" horiz-adv-x="1474" 
d="M1040 1679q46 -13 60 -21t14 -24q0 -10 -9.5 -16.5t-37.5 -15.5q-153 -50 -362 -144q-41 -18 -50 -18q-24 0 -29 18t17 35q45 31 116.5 83.5t108.5 78.5q64 41 90 41q15 0 82 -17zM764 -39q-251 0 -392 119t-141 377v729q0 36 -14.5 49t-56.5 18l-84 9q-22 1 -30.5 11.5
t-8.5 33.5q0 27 8 34t29 5q99 -9 248 -9q146 0 245 9q21 2 29 -5t8 -34q0 -23 -8.5 -33.5t-30.5 -11.5l-76 -11q-48 -6 -62.5 -17t-14.5 -46v-694q0 -228 97 -328t294 -100q143 0 229 86q62 62 87.5 150.5t25.5 268.5v148q0 139 -10 414q-2 48 -24 80t-64 38l-74 11
q-22 3 -30.5 12.5t-8.5 32.5q0 27 8 34t29 5q99 -9 235 -9q98 0 197 9q21 2 29 -5t8 -34q0 -23 -8.5 -33.5t-30.5 -11.5l-62 -9q-43 -4 -58 -31t-17 -89q-1 -36 -5 -143.5t-4 -160.5v-272q0 -199 -31 -301.5t-94 -165.5q-129 -129 -366 -129z" />
    <glyph glyph-name="Ucircumflex" unicode="&#xdb;" horiz-adv-x="1474" 
d="M780 1567l-180 -99q-51 -28 -72 -28q-18 0 -23.5 18t11.5 33q165 142 186 162q47 47 78 47t78 -47q21 -20 186 -162q17 -15 11.5 -33t-23.5 -18q-20 0 -71 28zM764 -39q-251 0 -392 119t-141 377v729q0 36 -14.5 49t-56.5 18l-84 9q-22 1 -30.5 11.5t-8.5 33.5q0 27 8 34
t29 5q99 -9 248 -9q146 0 245 9q21 2 29 -5t8 -34q0 -23 -8.5 -33.5t-30.5 -11.5l-76 -11q-48 -6 -62.5 -17t-14.5 -46v-694q0 -228 97 -328t294 -100q143 0 229 86q62 62 87.5 150.5t25.5 268.5v148q0 139 -10 414q-2 48 -24 80t-64 38l-74 11q-22 3 -30.5 12.5t-8.5 32.5
q0 27 8 34t29 5q99 -9 235 -9q98 0 197 9q21 2 29 -5t8 -34q0 -23 -8.5 -33.5t-30.5 -11.5l-62 -9q-43 -4 -58 -31t-17 -89q-1 -36 -5 -143.5t-4 -160.5v-272q0 -199 -31 -301.5t-94 -165.5q-129 -129 -366 -129z" />
    <glyph glyph-name="Udieresis" unicode="&#xdc;" horiz-adv-x="1474" 
d="M455 1546q0 44 31 75.5t73 31.5t71 -27.5t29 -66.5q0 -45 -31 -77t-73 -32t-71 28t-29 68zM879 1546q0 44 31 75.5t73 31.5t71 -27.5t29 -66.5q0 -45 -31 -77t-73 -32t-71 28t-29 68zM764 -39q-251 0 -392 119t-141 377v729q0 36 -14.5 49t-56.5 18l-84 9
q-22 1 -30.5 11.5t-8.5 33.5q0 27 8 34t29 5q99 -9 248 -9q146 0 245 9q21 2 29 -5t8 -34q0 -23 -8.5 -33.5t-30.5 -11.5l-76 -11q-48 -6 -62.5 -17t-14.5 -46v-694q0 -228 97 -328t294 -100q143 0 229 86q62 62 87.5 150.5t25.5 268.5v148q0 139 -10 414q-2 48 -24 80
t-64 38l-74 11q-22 3 -30.5 12.5t-8.5 32.5q0 27 8 34t29 5q99 -9 235 -9q98 0 197 9q21 2 29 -5t8 -34q0 -23 -8.5 -33.5t-30.5 -11.5l-62 -9q-43 -4 -58 -31t-17 -89q-1 -36 -5 -143.5t-4 -160.5v-272q0 -199 -31 -301.5t-94 -165.5q-129 -129 -366 -129z" />
    <glyph glyph-name="Yacute" unicode="&#xdd;" horiz-adv-x="1275" 
d="M999 1679q46 -13 60 -21t14 -26q0 -10 -10 -16t-37 -14q-186 -65 -362 -144q-41 -18 -50 -18q-24 0 -30 18t18 35q45 31 116.5 83.5t108.5 78.5q64 41 91 41q14 0 81 -17zM639 2q-176 0 -264 -8q-21 -2 -29 5t-8 34q0 23 8.5 32.5t30.5 12.5l106 12q40 4 53 19.5t13 46.5
v428l-332 551q-41 68 -62.5 92t-54.5 28l-47 7q-22 3 -30.5 12.5t-8.5 32.5q0 28 8 34.5t29 4.5q99 -9 221 -9q159 0 258 9q15 1 21.5 0t11 -10t4.5 -29q0 -23 -8.5 -33.5t-30.5 -11.5l-77 -11q-39 -5 -53.5 -13t-14.5 -30q0 -21 41 -90l250 -422l248 371q50 73 66 103.5
t16 48.5q0 17 -14 23.5t-40 10.5l-69 9q-22 3 -30.5 11.5t-8.5 31.5q0 30 8 36.5t29 4.5q99 -9 194 -9q75 0 174 9q12 1 19 0t12.5 -10.5t5.5 -28.5q0 -23 -7 -32t-32 -13l-31 -7q-46 -10 -90 -73l-393 -574v-452q0 -32 16 -46t62 -20l90 -12q22 -3 30.5 -12.5t8.5 -32.5
q0 -27 -8 -34t-29 -5q-88 8 -262 8z" />
    <glyph glyph-name="Thorn" unicode="&#xde;" horiz-adv-x="1179" 
d="M874 684q0 71 -23 121t-66.5 77.5t-97.5 39.5t-124 12q-39 0 -76 -6q-27 -4 -34 -22.5t-7 -74.5v-415q92 -8 99 -8q184 0 262 84q67 74 67 192zM387 0q-180 0 -268 -8q-21 -2 -29 5t-8 34q0 23 8.5 32.5t30.5 12.5l84 12q35 4 50 20.5t15 49.5v1020q0 36 -13.5 50
t-49.5 19l-90 13q-22 2 -30.5 11t-8.5 32q0 28 8 35t29 5q88 -8 264 -8q145 0 233 8q21 2 29 -5t8 -35q0 -23 -8.5 -31.5t-30.5 -11.5l-106 -15q-31 -3 -43 -15.5t-12 -49.5v-164h174q90 0 166 -18t138.5 -55.5t98 -102.5t35.5 -152q0 -148 -96 -244q-65 -65 -154 -92.5
t-215 -27.5q-62 0 -150 8v-162q0 -38 18 -55t62 -23l115 -16q22 -3 30.5 -12.5t8.5 -32.5q0 -27 -8 -34t-29 -5q-88 8 -256 8z" />
    <glyph glyph-name="germandbls" unicode="&#xdf;" horiz-adv-x="1091" 
d="M317 0q-131 0 -208 -6q-19 -2 -25 4.5t-6 32.5q0 22 8 29.5t25 9.5l79 6q24 1 33.5 17t9.5 48v572h-106q-15 0 -19 4t5 26l24 52q10 16 35 16h61q0 100 15.5 184t41 142.5t60.5 105t72 74.5t78 46t76 25t69 7q139 0 222 -75t83 -198q0 -141 -149 -270q-19 -16 -49 -38.5
t-43.5 -34t-25 -28.5t-11.5 -36q0 -27 33 -62.5t106 -91t80 -61.5q69 -60 100 -118.5t31 -131.5q0 -123 -78 -202t-213 -79q-144 0 -246 86v138q0 26 31 26q18 0 39 -41q63 -127 197 -127q72 0 110.5 46.5t38.5 109.5q0 40 -31.5 89.5t-83.5 92.5q-16 13 -55 41.5
t-62.5 48.5t-51.5 49t-42 62t-14 69q0 35 10 66t33 60t39.5 46t51 47.5t46.5 41.5q76 70 76 176q0 82 -55 148.5t-146 66.5q-133 0 -196 -115q-47 -84 -47 -334v-794q0 -68 -56 -68z" />
    <glyph glyph-name="agrave" unicode="&#xe0;" horiz-adv-x="821" 
d="M225 1333q69 0 97 -16t49 -62q96 -221 110 -251q10 -26 3.5 -39t-21.5 -13q-23 0 -53 41q-21 26 -55.5 70t-55 70t-51.5 62.5t-60 68.5q-22 25 -22 41t15.5 22t43.5 6zM262 -29q-90 0 -137 47t-47 123q0 98 102 175.5t334 136.5q6 117 6 149q0 84 -35 113.5t-92 29.5
q-64 0 -98.5 -26t-46.5 -82q-20 -86 -86 -86q-28 0 -49 17t-21 48q0 40 25 68q47 57 148.5 104.5t193.5 47.5q107 0 155 -59t48 -152q0 -46 -5.5 -153t-5.5 -179q0 -114 11 -161.5t53 -47.5q12 0 22 3.5t15.5 7t14 11t11.5 9.5q11 8 21 8t17 -7t7 -18q0 -9 -6 -18
q-14 -27 -58.5 -68t-96.5 -41q-55 0 -85 27.5t-53 101.5q-42 -39 -73.5 -63t-83 -45t-105.5 -21zM227 178q0 -45 29.5 -73.5t75.5 -28.5q29 0 60 13t48 24.5t44.5 34.5t29.5 24q-4 59 -4 141q0 45 2 78q-155 -52 -220 -98t-65 -115z" />
    <glyph glyph-name="aacute" unicode="&#xe1;" horiz-adv-x="821" 
d="M262 -29q-90 0 -137 47t-47 123q0 98 102 175.5t334 136.5q6 117 6 149q0 84 -35 113.5t-92 29.5q-64 0 -98.5 -26t-46.5 -82q-20 -86 -86 -86q-28 0 -49 17t-21 48q0 40 25 68q47 57 148.5 104.5t193.5 47.5q107 0 155 -59t48 -152q0 -46 -5.5 -153t-5.5 -179
q0 -114 11 -161.5t53 -47.5q12 0 22 3.5t15.5 7t14 11t11.5 9.5q11 8 21 8t17 -7t7 -18q0 -9 -6 -18q-14 -27 -58.5 -68t-96.5 -41q-55 0 -85 27.5t-53 101.5q-42 -39 -73.5 -63t-83 -45t-105.5 -21zM227 178q0 -45 29.5 -73.5t75.5 -28.5q29 0 60 13t48 24.5t44.5 34.5
t29.5 24q-4 59 -4 141q0 45 2 78q-155 -52 -220 -98t-65 -115zM604 1333q28 0 43.5 -6t15.5 -22t-22 -41q-38 -42 -71 -82t-81 -101.5t-69 -87.5q-30 -41 -53 -41q-16 0 -22.5 13t3.5 39q26 54 111 251q21 46 48.5 62t96.5 16z" />
    <glyph glyph-name="acircumflex" unicode="&#xe2;" horiz-adv-x="821" 
d="M412 1346q13 0 26.5 -15.5t36.5 -58.5l154 -283q8 -16 -1 -29.5t-22 -13.5q-12 0 -23 10t-32 37l-139 170l-142 -170q-35 -47 -55 -47q-14 0 -22 13t0 30l155 283q23 43 36.5 58.5t27.5 15.5zM262 -29q-90 0 -137 47t-47 123q0 98 102 175.5t334 136.5q6 117 6 149
q0 84 -35 113.5t-92 29.5q-64 0 -98.5 -26t-46.5 -82q-20 -86 -86 -86q-28 0 -49 17t-21 48q0 40 25 68q47 57 148.5 104.5t193.5 47.5q107 0 155 -59t48 -152q0 -46 -5.5 -153t-5.5 -179q0 -114 11 -161.5t53 -47.5q12 0 22 3.5t15.5 7t14 11t11.5 9.5q11 8 21 8t17 -7
t7 -18q0 -9 -6 -18q-14 -27 -58.5 -68t-96.5 -41q-55 0 -85 27.5t-53 101.5q-42 -39 -73.5 -63t-83 -45t-105.5 -21zM227 178q0 -45 29.5 -73.5t75.5 -28.5q29 0 60 13t48 24.5t44.5 34.5t29.5 24q-4 59 -4 141q0 45 2 78q-155 -52 -220 -98t-65 -115z" />
    <glyph glyph-name="atilde" unicode="&#xe3;" horiz-adv-x="821" 
d="M518 1012q-54 0 -134.5 27.5t-129.5 27.5q-12 0 -21.5 -2.5t-15 -6t-10 -9.5t-6 -9.5t-3.5 -10.5t-3 -9q-6 -20 -13 -24.5t-28 -4.5q-13 0 -17 4.5t-4 22.5q0 25 7 51.5t22.5 53.5t45 44t68.5 17q56 0 136 -28t129 -28q12 0 21.5 2.5t15 6t10 9.5t6 10t3.5 11t3 9
q4 13 9 18.5t10.5 6.5t21.5 1q10 0 13 -0.5t5.5 -6t2.5 -17.5q0 -19 -4 -40t-14.5 -44t-26.5 -41t-41.5 -29.5t-57.5 -11.5zM262 -29q-90 0 -137 47t-47 123q0 98 102 175.5t334 136.5q6 117 6 149q0 84 -35 113.5t-92 29.5q-64 0 -98.5 -26t-46.5 -82q-20 -86 -86 -86
q-28 0 -49 17t-21 48q0 40 25 68q47 57 148.5 104.5t193.5 47.5q107 0 155 -59t48 -152q0 -46 -5.5 -153t-5.5 -179q0 -114 11 -161.5t53 -47.5q12 0 22 3.5t15.5 7t14 11t11.5 9.5q11 8 21 8t17 -7t7 -18q0 -9 -6 -18q-14 -27 -58.5 -68t-96.5 -41q-55 0 -85 27.5
t-53 101.5q-42 -39 -73.5 -63t-83 -45t-105.5 -21zM227 178q0 -45 29.5 -73.5t75.5 -28.5q29 0 60 13t48 24.5t44.5 34.5t29.5 24q-4 59 -4 141q0 45 2 78q-155 -52 -220 -98t-65 -115z" />
    <glyph glyph-name="adieresis" unicode="&#xe4;" horiz-adv-x="821" 
d="M113 1090q0 44 31 76t73 32t71 -27.5t29 -66.5q0 -45 -31 -78t-73 -33t-71 28.5t-29 68.5zM446 1090q0 44 31.5 76t73.5 32t71 -27.5t29 -66.5q0 -45 -31 -78t-73 -33t-71.5 28.5t-29.5 68.5zM262 -29q-90 0 -137 47t-47 123q0 98 102 175.5t334 136.5q6 117 6 149
q0 84 -35 113.5t-92 29.5q-64 0 -98.5 -26t-46.5 -82q-20 -86 -86 -86q-28 0 -49 17t-21 48q0 40 25 68q47 57 148.5 104.5t193.5 47.5q107 0 155 -59t48 -152q0 -46 -5.5 -153t-5.5 -179q0 -114 11 -161.5t53 -47.5q12 0 22 3.5t15.5 7t14 11t11.5 9.5q11 8 21 8t17 -7
t7 -18q0 -9 -6 -18q-14 -27 -58.5 -68t-96.5 -41q-55 0 -85 27.5t-53 101.5q-42 -39 -73.5 -63t-83 -45t-105.5 -21zM227 178q0 -45 29.5 -73.5t75.5 -28.5q29 0 60 13t48 24.5t44.5 34.5t29.5 24q-4 59 -4 141q0 45 2 78q-155 -52 -220 -98t-65 -115z" />
    <glyph glyph-name="aring" unicode="&#xe5;" horiz-adv-x="821" 
d="M336 1096q0 -35 24.5 -62.5t57.5 -27.5q34 0 57 27.5t23 62.5t-23 62.5t-57 27.5q-33 0 -57.5 -27.5t-24.5 -62.5zM264 1094q0 67 45 111t109 44t110.5 -44.5t46.5 -110.5t-46.5 -110t-110.5 -44t-109 44t-45 110zM262 -29q-90 0 -137 47t-47 123q0 98 102 175.5
t334 136.5q6 117 6 149q0 84 -35 113.5t-92 29.5q-64 0 -98.5 -26t-46.5 -82q-20 -86 -86 -86q-28 0 -49 17t-21 48q0 40 25 68q47 57 148.5 104.5t193.5 47.5q107 0 155 -59t48 -152q0 -46 -5.5 -153t-5.5 -179q0 -114 11 -161.5t53 -47.5q12 0 22 3.5t15.5 7t14 11
t11.5 9.5q11 8 21 8t17 -7t7 -18q0 -9 -6 -18q-14 -27 -58.5 -68t-96.5 -41q-55 0 -85 27.5t-53 101.5q-42 -39 -73.5 -63t-83 -45t-105.5 -21zM227 178q0 -45 29.5 -73.5t75.5 -28.5q29 0 60 13t48 24.5t44.5 34.5t29.5 24q-4 59 -4 141q0 45 2 78q-155 -52 -220 -98
t-65 -115z" />
    <glyph glyph-name="ae" unicode="&#xe6;" horiz-adv-x="1249" 
d="M225 178q0 -48 22 -75t66 -27q62 0 128.5 43.5t97.5 79.5q-22 69 -25 118q-2 27 -2 82q-162 -59 -224.5 -108t-62.5 -113zM655 543l332 8q39 0 39 45q0 35 -15.5 70t-53 62.5t-89.5 27.5q-177 0 -213 -213zM872 -31q-84 0 -161 42.5t-133 129.5l-54 -53
q-48 -48 -122.5 -82.5t-139.5 -34.5q-184 0 -184 172q0 111 100 182.5t338 135.5q1 40 3.5 80t2.5 53q0 48 -11.5 79.5t-33 46t-43.5 20t-51 5.5q-70 0 -99.5 -29.5t-39.5 -86.5q-6 -33 -28.5 -55.5t-55.5 -22.5q-27 0 -47.5 13.5t-20.5 41.5q0 41 19 72q49 72 150 115
t188 43q72 0 122 -28t72 -77q107 107 256 107q74 0 132.5 -29.5t91.5 -75.5t50 -95t17 -95q0 -45 -19 -58.5t-71 -13.5h-447q0 -102 24 -180.5t63.5 -122.5t84.5 -66t93 -22q47 0 90 17.5t60.5 32t43.5 38.5q44 41 62 41q13 0 21.5 -8.5t8.5 -22.5q0 -37 -55 -92
q-47 -49 -119.5 -83t-157.5 -34z" />
    <glyph glyph-name="ccedilla" unicode="&#xe7;" horiz-adv-x="792" 
d="M469 838q152 0 233 -99q33 -39 33 -86q0 -30 -21.5 -51.5t-54.5 -21.5q-54 0 -73 45q-3 6 -10 24t-13.5 32.5t-13.5 25.5q-33 51 -115 51q-94 0 -145 -75.5t-51 -207.5q0 -104 24 -183.5t64.5 -125t89 -68t102.5 -22.5q98 0 174 86q15 20 31 20q11 0 19 -8t8 -18
q0 -13 -15 -39q-78 -120 -227 -146l-53 -69q135 -49 135 -156q0 -77 -64 -138t-135 -61q-56 0 -88.5 16.5t-32.5 47.5q0 25 15.5 39t38.5 14q10 0 20 -6t20 -15.5t13 -11.5q27 -20 49 -20q26 0 48 22.5t22 53.5q0 97 -142 106q-28 3 -16 25l102 153q-157 4 -261.5 124.5
t-104.5 293.5q0 193 110 321t285 128z" />
    <glyph glyph-name="egrave" unicode="&#xe8;" horiz-adv-x="843" 
d="M471 -31q-125 0 -216.5 58.5t-136 152.5t-44.5 209q0 123 46.5 224t138.5 163t214 62q73 0 134 -29.5t98 -75t57 -95.5t20 -95t-19.5 -58.5t-70.5 -13.5h-454q0 -201 76.5 -296t201.5 -95q47 0 90 17.5t61.5 32t43.5 38.5q44 41 61 41q13 0 22 -8.5t9 -22.5
q0 -37 -55 -92q-47 -49 -119.5 -83t-157.5 -34zM240 543l333 8q39 0 39 45q0 55 -47 107.5t-125 52.5q-167 0 -200 -213zM270 1333q69 0 97 -16t49 -62q96 -221 110 -251q10 -26 3.5 -39t-21.5 -13q-23 0 -53 41q-21 26 -55.5 70t-55 70t-51.5 62.5t-60 68.5q-22 25 -22 41
t15.5 22t43.5 6z" />
    <glyph glyph-name="eacute" unicode="&#xe9;" horiz-adv-x="843" 
d="M471 -31q-125 0 -216.5 58.5t-136 152.5t-44.5 209q0 123 46.5 224t138.5 163t214 62q73 0 134 -29.5t98 -75t57 -95.5t20 -95t-19.5 -58.5t-70.5 -13.5h-454q0 -201 76.5 -296t201.5 -95q47 0 90 17.5t61.5 32t43.5 38.5q44 41 61 41q13 0 22 -8.5t9 -22.5
q0 -37 -55 -92q-47 -49 -119.5 -83t-157.5 -34zM240 543l333 8q39 0 39 45q0 55 -47 107.5t-125 52.5q-167 0 -200 -213zM657 1333q28 0 43.5 -6t15.5 -22t-22 -41q-38 -42 -71 -82t-81 -101.5t-69 -87.5q-30 -41 -53 -41q-16 0 -22.5 13t3.5 39q26 54 111 251
q21 46 48.5 62t96.5 16z" />
    <glyph glyph-name="ecircumflex" unicode="&#xea;" horiz-adv-x="843" 
d="M455 1346q13 0 26.5 -15.5t36.5 -58.5l154 -283q8 -16 -1 -29.5t-22 -13.5q-12 0 -23 10t-32 37l-139 170l-142 -170q-35 -47 -55 -47q-14 0 -22 13t0 30l155 283q23 43 36.5 58.5t27.5 15.5zM471 -31q-125 0 -216.5 58.5t-136 152.5t-44.5 209q0 123 46.5 224t138.5 163
t214 62q73 0 134 -29.5t98 -75t57 -95.5t20 -95t-19.5 -58.5t-70.5 -13.5h-454q0 -201 76.5 -296t201.5 -95q47 0 90 17.5t61.5 32t43.5 38.5q44 41 61 41q13 0 22 -8.5t9 -22.5q0 -37 -55 -92q-47 -49 -119.5 -83t-157.5 -34zM240 543l333 8q39 0 39 45q0 55 -47 107.5
t-125 52.5q-167 0 -200 -213z" />
    <glyph glyph-name="edieresis" unicode="&#xeb;" horiz-adv-x="843" 
d="M176 1090q0 44 31.5 76t73.5 32t71 -27.5t29 -66.5q0 -45 -31.5 -78t-73.5 -33t-71 28.5t-29 68.5zM510 1090q0 44 31 76t73 32t71.5 -27.5t29.5 -66.5q0 -45 -31.5 -78t-73.5 -33t-71 28.5t-29 68.5zM471 -31q-125 0 -216.5 58.5t-136 152.5t-44.5 209q0 123 46.5 224
t138.5 163t214 62q73 0 134 -29.5t98 -75t57 -95.5t20 -95t-19.5 -58.5t-70.5 -13.5h-454q0 -201 76.5 -296t201.5 -95q47 0 90 17.5t61.5 32t43.5 38.5q44 41 61 41q13 0 22 -8.5t9 -22.5q0 -37 -55 -92q-47 -49 -119.5 -83t-157.5 -34zM240 543l333 8q39 0 39 45
q0 55 -47 107.5t-125 52.5q-167 0 -200 -213z" />
    <glyph glyph-name="igrave" unicode="&#xec;" horiz-adv-x="540" 
d="M303 0q-115 0 -192 -6q-19 -2 -25 4.5t-6 32.5q0 36 33 39l57 6q27 3 35 13.5t8 37.5l4 307q2 134 -15.5 179.5t-80.5 70.5q-31 11 -31 33q0 13 10 20.5t50 28.5q16 8 86 47q11 7 26 16l22.5 13.5t16 9t14.5 6.5t11 2q11 0 17.5 -4t9 -14.5t3 -16.5t0.5 -22
q0 -38 -2 -155t-2 -136l2 -385q0 -28 8 -38t37 -13l50 -6q32 -3 32 -39q0 -26 -6 -32.5t-24 -4.5q-76 6 -148 6zM80 1333q69 0 96.5 -16t48.5 -62q85 -197 111 -251q10 -26 3.5 -39t-22.5 -13q-23 0 -53 41q-21 26 -69 87.5t-81 101.5t-71 82q-22 25 -22 41t15.5 22t43.5 6z
" />
    <glyph glyph-name="iacute" unicode="&#xed;" horiz-adv-x="540" 
d="M303 0q-115 0 -192 -6q-19 -2 -25 4.5t-6 32.5q0 36 33 39l57 6q27 3 35 13.5t8 37.5l4 307q2 134 -15.5 179.5t-80.5 70.5q-31 11 -31 33q0 13 10 20.5t50 28.5q16 8 86 47q11 7 26 16l22.5 13.5t16 9t14.5 6.5t11 2q11 0 17.5 -4t9 -14.5t3 -16.5t0.5 -22
q0 -38 -2 -155t-2 -136l2 -385q0 -28 8 -38t37 -13l50 -6q32 -3 32 -39q0 -26 -6 -32.5t-24 -4.5q-76 6 -148 6zM461 1333q28 0 43.5 -6t15.5 -22t-22 -41q-38 -42 -70 -80.5t-84 -105t-68 -85.5q-30 -41 -53 -41q-15 0 -21.5 13t3.5 39q14 30 110 251q21 46 49 62t97 16z
" />
    <glyph glyph-name="icircumflex" unicode="&#xee;" horiz-adv-x="540" 
d="M272 1346q14 0 27.5 -15.5t36.5 -58.5l153 -283q8 -16 -0.5 -29.5t-21.5 -13.5q-12 0 -23 10t-32 37l-140 170l-141 -170q-35 -47 -55 -47q-15 0 -23.5 13.5t0.5 29.5l156 283q23 43 36.5 58.5t26.5 15.5zM303 0q-115 0 -192 -6q-19 -2 -25 4.5t-6 32.5q0 36 33 39l57 6
q27 3 35 13.5t8 37.5l4 307q2 134 -15.5 179.5t-80.5 70.5q-31 11 -31 33q0 13 10 20.5t50 28.5q16 8 86 47q11 7 26 16l22.5 13.5t16 9t14.5 6.5t11 2q11 0 17.5 -4t9 -14.5t3 -16.5t0.5 -22q0 -38 -2 -155t-2 -136l2 -385q0 -28 8 -38t37 -13l50 -6q32 -3 32 -39
q0 -26 -6 -32.5t-24 -4.5q-76 6 -148 6z" />
    <glyph glyph-name="idieresis" unicode="&#xef;" horiz-adv-x="540" 
d="M4 1090q0 44 31.5 76t73.5 32t71 -27.5t29 -66.5q0 -45 -31.5 -78t-73.5 -33t-71 28.5t-29 68.5zM326 1090q0 44 31 76t73 32t71 -27.5t29 -66.5q0 -45 -31 -78t-73 -33t-71 28.5t-29 68.5zM303 0q-115 0 -192 -6q-19 -2 -25 4.5t-6 32.5q0 36 33 39l57 6q27 3 35 13.5
t8 37.5l4 307q2 134 -15.5 179.5t-80.5 70.5q-31 11 -31 33q0 13 10 20.5t50 28.5q16 8 86 47q11 7 26 16l22.5 13.5t16 9t14.5 6.5t11 2q11 0 17.5 -4t9 -14.5t3 -16.5t0.5 -22q0 -38 -2 -155t-2 -136l2 -385q0 -28 8 -38t37 -13l50 -6q32 -3 32 -39q0 -26 -6 -32.5
t-24 -4.5q-76 6 -148 6z" />
    <glyph glyph-name="eth" unicode="&#xf0;" horiz-adv-x="968" 
d="M479 -31q-181 0 -293 126.5t-112 322.5q0 180 112 300t293 120q114 0 213 -60q-43 206 -164 348l-223 -122q-15 -7 -26 12l-23 43q-7 14 14 26l195 107q-87 78 -201 129q-10 5 -10 16q0 15 10 33q15 25 35 25q31 0 111.5 -40t156.5 -106l224 123q21 11 27 9.5t13 -13.5
l19 -35q13 -23 -10 -35l-207 -114q258 -281 258 -697q0 -256 -135 -399q-111 -119 -277 -119zM479 53q97 0 168.5 94t71.5 271q0 162 -71.5 250t-168.5 88t-169 -88t-72 -250q0 -177 72 -271t169 -94z" />
    <glyph glyph-name="ntilde" unicode="&#xf1;" horiz-adv-x="1036" 
d="M266 0q-62 0 -141 -6q-17 -2 -24 5.5t-7 37.5t31 33l35 4q23 3 32 14t9 39l4 336q1 97 -4 139.5t-19 63.5t-49 36q-18 8 -23.5 13.5t-5.5 17.5q0 14 46 39l59 35q12 7 28.5 17t25 15.5t18.5 10.5t17 7.5t13 2.5q16 0 21.5 -11.5t5.5 -37.5l2 -145q46 87 133 135
q66 37 143 37q182 0 228 -160q18 -64 18 -254v-297q0 -28 8.5 -39t36.5 -14l41 -4q17 -2 25 -9.5t8 -29.5q0 -26 -6 -32.5t-25 -4.5q-76 6 -139 6q-103 0 -180 -6q-19 -2 -25 4.5t-6 32.5q0 22 8 29.5t25 9.5l49 4q22 1 28.5 14t6.5 39v262q0 164 -23 232q-38 104 -151 104
q-88 0 -147 -72t-58 -209l4 -309q0 -21 1.5 -32t9 -19t22.5 -10l41 -4q16 -2 23 -9t7 -28q0 -26 -6 -33.5t-22 -5.5q-80 6 -152 6zM662 1014q-54 0 -135 27.5t-130 27.5q-12 0 -21.5 -2.5t-15 -6t-10 -9.5t-6 -9.5t-3.5 -10.5t-3 -9q-6 -20 -13 -24.5t-28 -4.5
q-13 0 -17 4.5t-4 22.5q0 19 4 40t14.5 44t26.5 41t41.5 29.5t57.5 11.5q56 0 135.5 -28t128.5 -28q12 0 21.5 2.5t15 6t10 9.5t6 10t3.5 11t3 9q4 13 9 18.5t10.5 6.5t21.5 1q10 0 13 -0.5t5.5 -6t2.5 -17.5q0 -25 -7 -51.5t-22.5 -53.5t-45 -44t-68.5 -17z" />
    <glyph glyph-name="ograve" unicode="&#xf2;" horiz-adv-x="952" 
d="M477 -31q-181 0 -293 126.5t-112 322.5q0 180 112 300t293 120t292.5 -119.5t111.5 -300.5q0 -195 -112 -322t-292 -127zM477 53q97 0 168.5 94t71.5 271q0 162 -71.5 250t-168.5 88t-169 -88t-72 -250q0 -177 72 -271t169 -94zM287 1333q69 0 96.5 -16t48.5 -62
q85 -197 111 -251q10 -26 3.5 -39t-22.5 -13q-23 0 -53 41q-21 26 -69 87.5t-81 101.5t-71 82q-22 25 -22 41t15.5 22t43.5 6z" />
    <glyph glyph-name="oacute" unicode="&#xf3;" horiz-adv-x="952" 
d="M477 -31q-181 0 -293 126.5t-112 322.5q0 180 112 300t293 120t292.5 -119.5t111.5 -300.5q0 -195 -112 -322t-292 -127zM477 53q97 0 168.5 94t71.5 271q0 162 -71.5 250t-168.5 88t-169 -88t-72 -250q0 -177 72 -271t169 -94zM678 1333q28 0 43.5 -6t15.5 -22t-22 -41
q-38 -42 -71 -82t-81 -101.5t-69 -87.5q-30 -41 -54 -41q-15 0 -21.5 13t3.5 39q14 30 110 251q21 46 49 62t97 16z" />
    <glyph glyph-name="ocircumflex" unicode="&#xf4;" horiz-adv-x="952" 
d="M477 -31q-181 0 -293 126.5t-112 322.5q0 180 112 300t293 120t292.5 -119.5t111.5 -300.5q0 -195 -112 -322t-292 -127zM477 53q97 0 168.5 94t71.5 271q0 162 -71.5 250t-168.5 88t-169 -88t-72 -250q0 -177 72 -271t169 -94zM477 1163l-168 -190q-19 -23 -41 -23
q-15 0 -23 13t1 28l168 275q16 26 22 35t14.5 20.5t14 14.5t12.5 3q13 0 25 -14.5t39 -58.5l168 -275q8 -15 0.5 -28t-23.5 -13q-22 0 -41 23z" />
    <glyph glyph-name="otilde" unicode="&#xf5;" horiz-adv-x="952" 
d="M477 -31q-181 0 -293 126.5t-112 322.5q0 180 112 300t293 120t292.5 -119.5t111.5 -300.5q0 -195 -112 -322t-292 -127zM477 53q97 0 168.5 94t71.5 271q0 162 -71.5 250t-168.5 88t-169 -88t-72 -250q0 -177 72 -271t169 -94zM580 1012q-54 0 -135 27.5t-130 27.5
q-12 0 -21.5 -2.5t-15 -6t-10 -9.5t-6 -9.5t-3.5 -10.5t-3 -9q-6 -20 -13 -24.5t-28 -4.5q-13 0 -16.5 4.5t-3.5 22.5q0 25 7 51.5t22.5 53.5t45 44t68.5 17q56 0 135.5 -28t128.5 -28q12 0 21.5 2.5t15 6t10.5 10t6.5 10t4 11t2.5 8.5q4 14 8.5 19t10 6t21.5 1
q10 0 13 -0.5t5.5 -6t2.5 -17.5q0 -25 -7 -51.5t-22.5 -53.5t-45 -44t-68.5 -17z" />
    <glyph glyph-name="odieresis" unicode="&#xf6;" horiz-adv-x="952" 
d="M477 -31q-181 0 -293 126.5t-112 322.5q0 180 112 300t293 120t292.5 -119.5t111.5 -300.5q0 -195 -112 -322t-292 -127zM477 53q97 0 168.5 94t71.5 271q0 162 -71.5 250t-168.5 88t-169 -88t-72 -250q0 -177 72 -271t169 -94zM207 1090q0 44 31 76t73 32t71.5 -27.5
t29.5 -66.5q0 -45 -31.5 -78t-73.5 -33t-71 28.5t-29 68.5zM541 1090q0 44 31 76t73 32t71 -27.5t29 -66.5q0 -45 -31 -78t-73 -33t-71 28.5t-29 68.5z" />
    <glyph glyph-name="divide" unicode="&#xf7;" 
d="M805 590h-627q-33 0 -44 4.5t-11 26.5v34q0 23 11 28t44 5h627q23 0 32.5 -1.5t16 -8.5t6.5 -23v-34q0 -22 -11 -26.5t-44 -4.5zM406 887q0 36 24 61t59 25q38 0 63.5 -25t25.5 -61t-25.5 -62t-63.5 -26q-35 0 -59 26t-24 62zM406 389q0 37 24 63.5t59 26.5
q38 0 63.5 -26.5t25.5 -63.5q0 -36 -25.5 -61t-63.5 -25q-35 0 -59 25t-24 61z" />
    <glyph glyph-name="oslash" unicode="&#xf8;" horiz-adv-x="948" 
d="M475 -29q-71 0 -120 17t-107 53l-74 -98q-10 -13 -20 -13q-11 0 -27 13t-16 24q0 9 12 21l72 100q-54 46 -89.5 136.5t-35.5 193.5q0 179 111.5 298.5t293.5 119.5q72 0 124 -16.5t106 -51.5l65 92q14 17 25 17q10 0 27.5 -15.5t17.5 -25.5q0 -3 -2.5 -6.5t-6.5 -9
t-6 -9.5l-67 -90q59 -51 90 -134.5t31 -168.5q0 -196 -111 -321.5t-293 -125.5zM279 193l354 485q-69 72 -158 72q-102 0 -175 -85.5t-73 -244.5q0 -63 14.5 -128.5t37.5 -98.5zM475 57q100 0 173 93.5t73 269.5q0 129 -45 194l-357 -485q78 -72 156 -72z" />
    <glyph glyph-name="ugrave" unicode="&#xf9;" horiz-adv-x="1001" 
d="M424 -31q-89 0 -151 40.5t-83 123.5q-16 65 -16 250v248q0 22 -0.5 32t-3 23.5t-7.5 19.5t-15 11.5t-25 7.5l-37 4q-31 3 -31 33q0 27 7.5 35t23.5 8q58 0 141 6q32 4 43 4q29 0 39 -15.5t10 -54.5q0 -10 -2 -40.5t-2 -55.5v-231q0 -164 25 -238q36 -98 158 -98
q33 0 75.5 15.5t78.5 51.5t36 82l-4 400q0 49 -7.5 69t-31.5 23l-51 6q-31 3 -31 33q0 27 7.5 35t23.5 8q48 0 131 6q32 4 49 4q31 0 42 -16t11 -54q0 -10 -1 -40.5t-1 -55.5v-362q0 -65 1.5 -102.5t6.5 -60t12.5 -29.5t20.5 -7h49q10 0 18.5 -8t8.5 -19q0 -22 -29 -32
q-39 -14 -71.5 -30.5t-44.5 -21.5q-19 -8 -39 -8q-57 0 -74 137h-4q-101 -137 -256 -137zM291 1333q69 0 96.5 -16t48.5 -62q85 -197 111 -251q10 -26 3.5 -39t-22.5 -13q-23 0 -53 41q-21 26 -69 87.5t-81 101.5t-71 82q-22 25 -22 41t15.5 22t43.5 6z" />
    <glyph glyph-name="uacute" unicode="&#xfa;" horiz-adv-x="1001" 
d="M424 -31q-89 0 -151 40.5t-83 123.5q-16 65 -16 250v248q0 22 -0.5 32t-3 23.5t-7.5 19.5t-15 11.5t-25 7.5l-37 4q-31 3 -31 33q0 27 7.5 35t23.5 8q58 0 141 6q32 4 43 4q29 0 39 -15.5t10 -54.5q0 -10 -2 -40.5t-2 -55.5v-231q0 -164 25 -238q36 -98 158 -98
q33 0 75.5 15.5t78.5 51.5t36 82l-4 400q0 49 -7.5 69t-31.5 23l-51 6q-31 3 -31 33q0 27 7.5 35t23.5 8q48 0 131 6q32 4 49 4q31 0 42 -16t11 -54q0 -10 -1 -40.5t-1 -55.5v-362q0 -65 1.5 -102.5t6.5 -60t12.5 -29.5t20.5 -7h49q10 0 18.5 -8t8.5 -19q0 -22 -29 -32
q-39 -14 -71.5 -30.5t-44.5 -21.5q-19 -8 -39 -8q-57 0 -74 137h-4q-101 -137 -256 -137zM682 1333q28 0 43.5 -6t15.5 -22t-22 -41q-38 -42 -71 -82t-81 -101.5t-69 -87.5q-30 -41 -54 -41q-15 0 -21.5 13t3.5 39q26 54 111 251q21 46 48.5 62t96.5 16z" />
    <glyph glyph-name="ucircumflex" unicode="&#xfb;" horiz-adv-x="1001" 
d="M485 1346q14 0 27.5 -15.5t36.5 -58.5l153 -283q8 -16 -0.5 -29.5t-21.5 -13.5q-12 0 -23 10t-32 37l-140 170l-141 -170q-35 -47 -55 -47q-15 0 -23.5 13.5t0.5 29.5l156 283q23 43 36.5 58.5t26.5 15.5zM424 -31q-89 0 -151 40.5t-83 123.5q-16 65 -16 250v248
q0 22 -0.5 32t-3 23.5t-7.5 19.5t-15 11.5t-25 7.5l-37 4q-31 3 -31 33q0 27 7.5 35t23.5 8q58 0 141 6q32 4 43 4q29 0 39 -15.5t10 -54.5q0 -10 -2 -40.5t-2 -55.5v-231q0 -164 25 -238q36 -98 158 -98q33 0 75.5 15.5t78.5 51.5t36 82l-4 400q0 49 -7.5 69t-31.5 23
l-51 6q-31 3 -31 33q0 27 7.5 35t23.5 8q48 0 131 6q32 4 49 4q31 0 42 -16t11 -54q0 -10 -1 -40.5t-1 -55.5v-362q0 -65 1.5 -102.5t6.5 -60t12.5 -29.5t20.5 -7h49q10 0 18.5 -8t8.5 -19q0 -22 -29 -32q-39 -14 -71.5 -30.5t-44.5 -21.5q-19 -8 -39 -8q-57 0 -74 137h-4
q-101 -137 -256 -137z" />
    <glyph glyph-name="udieresis" unicode="&#xfc;" horiz-adv-x="1001" 
d="M197 1087q0 44 31.5 76.5t72.5 32.5q42 0 71 -27.5t29 -66.5q0 -45 -31 -78t-73 -33t-71 28t-29 68zM530 1087q0 44 31.5 76.5t73.5 32.5t71 -27.5t29 -66.5q0 -45 -31 -78t-73 -33q-43 0 -72 28t-29 68zM424 -31q-89 0 -151 40.5t-83 123.5q-16 65 -16 250v248
q0 22 -0.5 32t-3 23.5t-7.5 19.5t-15 11.5t-25 7.5l-37 4q-31 3 -31 33q0 27 7.5 35t23.5 8q58 0 141 6q32 4 43 4q29 0 39 -15.5t10 -54.5q0 -10 -2 -40.5t-2 -55.5v-231q0 -164 25 -238q36 -98 158 -98q33 0 75.5 15.5t78.5 51.5t36 82l-4 400q0 49 -7.5 69t-31.5 23
l-51 6q-31 3 -31 33q0 27 7.5 35t23.5 8q48 0 131 6q32 4 49 4q31 0 42 -16t11 -54q0 -10 -1 -40.5t-1 -55.5v-362q0 -65 1.5 -102.5t6.5 -60t12.5 -29.5t20.5 -7h49q10 0 18.5 -8t8.5 -19q0 -22 -29 -32q-39 -14 -71.5 -30.5t-44.5 -21.5q-19 -8 -39 -8q-57 0 -74 137h-4
q-101 -137 -256 -137z" />
    <glyph glyph-name="yacute" unicode="&#xfd;" horiz-adv-x="966" 
d="M238 805q100 0 176 6q18 2 25 -5.5t7 -31.5q0 -21 -7 -29t-25 -10l-62 -4q-20 -1 -28.5 -12t-8.5 -19q0 -21 25 -92l170 -475l172 402q37 88 47 117t10 48q0 28 -30 31l-74 4q-18 2 -24.5 9.5t-6.5 27.5q0 24 7.5 32.5t23.5 6.5q79 -6 147 -6q78 0 158 6q17 2 25 -7
t8 -36q0 -30 -31 -33l-35 -4q-21 -2 -34.5 -12.5t-36 -51t-58.5 -126.5q-38 -90 -195.5 -448.5t-189.5 -426.5q-30 -66 -58.5 -110t-53.5 -63t-43.5 -25.5t-40.5 -6.5q-48 0 -80.5 29t-32.5 66q0 36 23 61t59 25q16 0 42.5 -18.5t39.5 -18.5q26 0 61 76q64 136 87.5 196
t23.5 90q0 11 -2.5 23.5t-5 19.5t-9 24.5t-8.5 22.5l-213 553q-28 76 -44.5 97t-45.5 24l-39 4q-18 2 -25.5 10t-7.5 29q0 24 7.5 31.5t25.5 5.5q76 -6 185 -6zM696 1333q28 0 43.5 -6t15.5 -22t-22 -41q-38 -42 -71 -82t-81 -101.5t-69 -87.5q-30 -41 -53 -41
q-16 0 -22.5 13t3.5 39q26 54 111 251q21 46 48.5 62t96.5 16z" />
    <glyph glyph-name="thorn" unicode="&#xfe;" horiz-adv-x="1007" 
d="M520 -31q-120 0 -225 60l2 -422q0 -34 9.5 -48.5t37.5 -15.5l82 -6q17 -2 25 -9.5t8 -29.5q0 -26 -6 -32.5t-25 -4.5q-89 7 -180 7q-93 0 -182 -7q-19 -2 -25 4.5t-6 32.5q0 22 8 29.5t25 9.5l51 4q23 1 30 17.5t7 48.5v1298q0 149 -13 199t-59 70q-25 11 -34 15.5
t-14 11t-5 18.5q0 16 24 26q95 38 162 70q42 20 53 20q9 0 18 -6.5t9 -19.5q0 -25 -2 -190t-2 -396q91 115 270 115q151 0 261 -114.5t110 -293.5q0 -111 -38.5 -201.5t-100 -145.5t-133 -84.5t-142.5 -29.5zM510 57q129 0 193.5 76.5t64.5 235.5q0 185 -75 282t-195 97
q-73 0 -141 -50.5t-68 -122.5v-315q0 -89 61 -146t160 -57z" />
    <glyph glyph-name="ydieresis" unicode="&#xff;" horiz-adv-x="966" 
d="M248 1090q0 44 31 76t73 32t71.5 -27.5t29.5 -66.5q0 -45 -31.5 -78t-73.5 -33t-71 28.5t-29 68.5zM616 1090q0 44 31.5 76t73.5 32t71 -27.5t29 -66.5q0 -45 -31 -78t-73 -33t-71.5 28.5t-29.5 68.5zM238 805q100 0 176 6q18 2 25 -5.5t7 -31.5q0 -21 -7 -29t-25 -10
l-62 -4q-20 -1 -28.5 -12t-8.5 -19q0 -21 25 -92l170 -475l172 402q37 88 47 117t10 48q0 28 -30 31l-74 4q-18 2 -24.5 9.5t-6.5 27.5q0 24 7.5 32.5t23.5 6.5q79 -6 147 -6q78 0 158 6q17 2 25 -7t8 -36q0 -30 -31 -33l-35 -4q-21 -2 -34.5 -12.5t-36 -51t-58.5 -126.5
q-38 -90 -195.5 -448.5t-189.5 -426.5q-30 -66 -58.5 -110t-53.5 -63t-43.5 -25.5t-40.5 -6.5q-48 0 -80.5 29t-32.5 66q0 36 23 61t59 25q16 0 42.5 -18.5t39.5 -18.5q26 0 61 76q64 136 87.5 196t23.5 90q0 11 -2.5 23.5t-5 19.5t-9 24.5t-8.5 22.5l-213 553
q-28 76 -44.5 97t-45.5 24l-39 4q-18 2 -25.5 10t-7.5 29q0 24 7.5 31.5t25.5 5.5q76 -6 185 -6z" />
    <glyph glyph-name="Amacron" unicode="&#x100;" horiz-adv-x="1361" 
d="M858 1511h-371q-33 0 -44 4.5t-11 26.5v49q0 23 11 28t44 5h371q23 0 32.5 -1.5t16 -8.5t6.5 -23v-49q0 -22 -11 -26.5t-44 -4.5zM219 2q-88 0 -176 -8q-21 -2 -28 5t-7 34q0 23 7.5 31.5t29.5 13.5l57 10q35 6 57.5 40.5t55.5 129.5l297 846q28 77 14 117q-13 34 31 55
q86 46 127 84q29 29 53 29q16 0 23 -9t18 -41l367 -1048q44 -129 63 -164t54 -39l57 -10q22 -3 30.5 -12.5t8.5 -32.5q0 -27 -8 -34t-29 -5q-88 8 -203 8q-172 0 -260 -8q-21 -2 -29 5t-8 34q0 23 8.5 32.5t30.5 12.5l103 12q36 4 36 39q0 13 -4 33t-8.5 34.5t-11.5 35.5
t-8 26l-93 272h-452l-92 -274q-35 -109 -35 -129q0 -15 10 -26.5t25 -12.5l86 -10q22 -3 30.5 -12.5t8.5 -32.5q0 -27 -8 -34t-29 -5q-88 8 -199 8zM453 618h389l-176 525q-13 35 -19 37q-9 0 -18 -31z" />
    <glyph glyph-name="amacron" unicode="&#x101;" horiz-adv-x="821" 
d="M262 -29q-90 0 -137 47t-47 123q0 98 102 175.5t334 136.5q6 117 6 149q0 84 -35 113.5t-92 29.5q-64 0 -98.5 -26t-46.5 -82q-20 -86 -86 -86q-28 0 -49 17t-21 48q0 40 25 68q47 57 148.5 104.5t193.5 47.5q107 0 155 -59t48 -152q0 -46 -5.5 -153t-5.5 -179
q0 -114 11 -161.5t53 -47.5q12 0 22 3.5t15.5 7t14 11t11.5 9.5q11 8 21 8t17 -7t7 -18q0 -9 -6 -18q-14 -27 -58.5 -68t-96.5 -41q-55 0 -85 27.5t-53 101.5q-42 -39 -73.5 -63t-83 -45t-105.5 -21zM227 178q0 -45 29.5 -73.5t75.5 -28.5q29 0 60 13t48 24.5t44.5 34.5
t29.5 24q-4 59 -4 141q0 45 2 78q-155 -52 -220 -98t-65 -115zM553 1047h-315q-24 0 -33 1t-16 7.5t-7 21.5v43q0 23 11.5 28t44.5 5h315q23 0 32.5 -1.5t16 -8.5t6.5 -23v-43q0 -11 -2.5 -17.5t-11.5 -9t-15.5 -3t-25.5 -0.5z" />
    <glyph glyph-name="Abreve" unicode="&#x102;" horiz-adv-x="1361" 
d="M496 1669q23 -108 161 -108q64 0 107 27t55 81q4 19 31 19q14 0 20.5 -6t6.5 -29q0 -93 -64 -144t-156 -51q-93 0 -156 50.5t-63 144.5q0 23 6.5 29t20.5 6q27 0 31 -19zM219 2q-88 0 -176 -8q-21 -2 -28 5t-7 34q0 23 7.5 31.5t29.5 13.5l57 10q35 6 57.5 40.5
t55.5 129.5l297 846q28 77 14 117q-13 34 31 55q86 46 127 84q29 29 53 29q16 0 23 -9t18 -41l367 -1048q44 -129 63 -164t54 -39l57 -10q22 -3 30.5 -12.5t8.5 -32.5q0 -27 -8 -34t-29 -5q-88 8 -203 8q-172 0 -260 -8q-21 -2 -29 5t-8 34q0 23 8.5 32.5t30.5 12.5l103 12
q36 4 36 39q0 13 -4 33t-8.5 34.5t-11.5 35.5t-8 26l-93 272h-452l-92 -274q-35 -109 -35 -129q0 -15 10 -26.5t25 -12.5l86 -10q22 -3 30.5 -12.5t8.5 -32.5q0 -27 -8 -34t-29 -5q-88 8 -199 8zM453 618h389l-176 525q-13 35 -19 37q-9 0 -18 -31z" />
    <glyph glyph-name="abreve" unicode="&#x103;" horiz-adv-x="821" 
d="M250 1217q13 -60 54.5 -102t103.5 -42q59 0 101.5 42.5t55.5 101.5q4 18 31 18q14 0 20.5 -6t6.5 -29q0 -97 -64 -164t-151 -67q-89 0 -152 67t-63 164q0 23 6 29t20 6q27 0 31 -18zM262 -29q-90 0 -137 47t-47 123q0 98 102 175.5t334 136.5q6 117 6 149q0 84 -35 113.5
t-92 29.5q-64 0 -98.5 -26t-46.5 -82q-20 -86 -86 -86q-28 0 -49 17t-21 48q0 40 25 68q47 57 148.5 104.5t193.5 47.5q107 0 155 -59t48 -152q0 -46 -5.5 -153t-5.5 -179q0 -114 11 -161.5t53 -47.5q12 0 22 3.5t15.5 7t14 11t11.5 9.5q11 8 21 8t17 -7t7 -18q0 -9 -6 -18
q-14 -27 -58.5 -68t-96.5 -41q-55 0 -85 27.5t-53 101.5q-42 -39 -73.5 -63t-83 -45t-105.5 -21zM227 178q0 -45 29.5 -73.5t75.5 -28.5q29 0 60 13t48 24.5t44.5 34.5t29.5 24q-4 59 -4 141q0 45 2 78q-155 -52 -220 -98t-65 -115z" />
    <glyph glyph-name="Aogonek" unicode="&#x104;" horiz-adv-x="1361" 
d="M1128 -45q-86 -145 -86 -231q0 -37 24.5 -61.5t55.5 -24.5q33 0 70 32q25 25 39 25q11 0 18.5 -9t7.5 -20q0 -17 -32 -55q-68 -76 -154 -76q-61 0 -109.5 42t-48.5 112q0 44 26 99.5t51 91t75 100.5l20 24q-117 0 -227 -10q-21 -2 -29 5t-8 34q0 23 8.5 32.5t30.5 12.5
l103 12q36 4 36 39q0 13 -4 33t-8.5 34.5t-11.5 35.5t-8 26l-93 272h-452l-92 -274q-35 -109 -35 -129q0 -15 10 -26.5t25 -12.5l86 -10q22 -3 30.5 -12.5t8.5 -32.5q0 -27 -8 -34t-29 -5q-88 8 -199 8q-88 0 -176 -8q-21 -2 -28 5t-7 34q0 23 7.5 31.5t29.5 13.5l57 10
q35 6 57.5 40.5t55.5 129.5l297 846q28 77 14 117q-13 34 31 55q86 46 127 84q29 29 53 29q16 0 23 -9t18 -41l367 -1048q44 -129 63 -164t54 -39l57 -10q22 -3 30.5 -12.5t8.5 -32.5q0 -27 -8 -34t-29 -5q-88 8 -164 8q-3 -3 -4.5 -6t-8.5 -14.5t-16 -26.5zM453 618h389
l-176 525q-13 35 -19 37q-9 0 -18 -31z" />
    <glyph glyph-name="aogonek" unicode="&#x105;" horiz-adv-x="821" 
d="M637 -27q-39 3 -65.5 29t-47.5 98q-42 -39 -73.5 -63t-83 -45t-105.5 -21q-90 0 -137 47t-47 123q0 98 102 175.5t334 136.5q6 117 6 149q0 84 -35 113.5t-92 29.5q-64 0 -98.5 -26t-46.5 -82q-20 -86 -86 -86q-28 0 -49 17t-21 48q0 40 25 68q47 57 148.5 104.5
t193.5 47.5q107 0 155 -59t48 -152q0 -46 -5.5 -153t-5.5 -179q0 -114 11 -161.5t53 -47.5q12 0 22 3.5t15.5 7t14 11t11.5 9.5q11 8 21 8t17 -7t7 -18q0 -12 -4 -18q-13 -21 -59 -66t-60 -61q-83 -90 -109 -136t-26 -85q0 -37 21 -60.5t51 -23.5q32 0 70 33q24 24 38 24
q12 0 19.5 -9t7.5 -20q0 -16 -33 -55q-68 -76 -153 -76q-64 0 -108 38t-44 116q0 59 52.5 125t150.5 149zM227 178q0 -45 29.5 -73.5t75.5 -28.5q29 0 60 13t48 24.5t44.5 34.5t29.5 24q-4 59 -4 141q0 45 2 78q-155 -52 -220 -98t-65 -115z" />
    <glyph glyph-name="Cacute" unicode="&#x106;" horiz-adv-x="1409" 
d="M1092 1679q45 -13 59 -21t14 -26q0 -10 -10 -16t-37 -14q-186 -65 -362 -144q-41 -18 -49 -18q-24 0 -30.5 18t17.5 35q45 31 117.5 84t108.5 78q64 41 90 41q15 0 82 -17zM776 -39q-158 0 -288.5 57t-216 156t-132.5 232t-47 286q0 137 51.5 261.5t143 218t226.5 149
t292 55.5q117 0 212 -34.5t187 -102.5l39 39q20 20 39 20q25 0 25 -34q-2 -49 -0.5 -90t6 -98.5t6.5 -86.5q2 -20 -3.5 -26.5t-31.5 -12.5q-13 -3 -22 1.5t-13.5 11.5t-11.5 22l-47 80q-138 227 -385 227q-106 0 -193.5 -37.5t-144.5 -97.5t-96.5 -138t-56.5 -156.5
t-17 -155.5q0 -123 36.5 -235.5t101.5 -199t164.5 -137.5t217.5 -51q136 0 242 53.5t207 165.5q15 14 24.5 13.5t28.5 -13.5q20 -14 23.5 -22.5t-7.5 -26.5q-223 -293 -559 -293z" />
    <glyph glyph-name="cacute" unicode="&#x107;" horiz-adv-x="792" 
d="M457 -31q-168 0 -275.5 122t-107.5 298q0 193 110 321t285 128q152 0 233 -99q33 -39 33 -86q0 -30 -21.5 -51.5t-54.5 -21.5q-54 0 -73 45q-3 6 -10 24t-13.5 32.5t-13.5 25.5q-33 51 -115 51q-94 0 -145 -75.5t-51 -207.5q0 -104 23.5 -183.5t63.5 -125t86 -68
t97 -22.5q55 0 106 27.5t78 58.5q15 20 31 20q11 0 19 -8t8 -18q0 -13 -15 -39q-41 -63 -118 -105.5t-160 -42.5zM657 1333q28 0 43.5 -6t15.5 -22t-22 -41q-38 -42 -71 -82t-81 -101.5t-69 -87.5q-30 -41 -53 -41q-16 0 -22.5 13t3.5 39q26 54 111 251q21 46 48.5 62
t96.5 16z" />
    <glyph glyph-name="Ccircumflex" unicode="&#x108;" horiz-adv-x="1409" 
d="M776 -39q-158 0 -288.5 57t-216 156t-132.5 232t-47 286q0 137 51.5 261.5t143 218t226.5 149t292 55.5q117 0 212 -34.5t187 -102.5l39 39q20 20 39 20q25 0 25 -34q-2 -49 -0.5 -90t6 -98.5t6.5 -86.5q2 -20 -3.5 -26.5t-31.5 -12.5q-13 -3 -22 1.5t-13.5 11.5
t-11.5 22l-47 80q-138 227 -385 227q-106 0 -193.5 -37.5t-144.5 -97.5t-96.5 -138t-56.5 -156.5t-17 -155.5q0 -123 36.5 -235.5t101.5 -199t164.5 -137.5t217.5 -51q136 0 242 53.5t207 165.5q15 14 24.5 13.5t28.5 -13.5q20 -14 23.5 -22.5t-7.5 -26.5
q-223 -293 -559 -293zM805 1567l-180 -99q-51 -28 -72 -28q-18 0 -23.5 18t11.5 33q165 142 186 162q47 47 78 47t78 -47q21 -20 186 -162q17 -15 11.5 -33t-23.5 -18q-21 0 -72 28z" />
    <glyph glyph-name="ccircumflex" unicode="&#x109;" horiz-adv-x="792" 
d="M442 1346q14 0 27.5 -15.5t36.5 -58.5l153 -283q8 -16 -0.5 -29.5t-21.5 -13.5q-12 0 -23 10t-32 37l-140 170l-141 -170q-35 -47 -55 -47q-15 0 -23.5 13.5t0.5 29.5l156 283q23 43 36.5 58.5t26.5 15.5zM457 -31q-168 0 -275.5 122t-107.5 298q0 193 110 321t285 128
q152 0 233 -99q33 -39 33 -86q0 -30 -21.5 -51.5t-54.5 -21.5q-54 0 -73 45q-3 6 -10 24t-13.5 32.5t-13.5 25.5q-33 51 -115 51q-94 0 -145 -75.5t-51 -207.5q0 -104 23.5 -183.5t63.5 -125t86 -68t97 -22.5q55 0 106 27.5t78 58.5q15 20 31 20q11 0 19 -8t8 -18
q0 -13 -15 -39q-41 -63 -118 -105.5t-160 -42.5z" />
    <glyph glyph-name="Cdotaccent" unicode="&#x10a;" horiz-adv-x="1409" 
d="M688 1575q0 42 33.5 76.5t83.5 34.5q48 0 80.5 -33t32.5 -78q0 -51 -33.5 -84t-83.5 -33q-52 0 -82.5 32.5t-30.5 84.5zM776 -39q-158 0 -288.5 57t-216 156t-132.5 232t-47 286q0 137 51.5 261.5t143 218t226.5 149t292 55.5q117 0 212 -34.5t187 -102.5l39 39
q20 20 39 20q25 0 25 -34q-2 -49 -0.5 -90t6 -98.5t6.5 -86.5q2 -20 -3.5 -26.5t-31.5 -12.5q-13 -3 -22 1.5t-13.5 11.5t-11.5 22l-47 80q-138 227 -385 227q-106 0 -193.5 -37.5t-144.5 -97.5t-96.5 -138t-56.5 -156.5t-17 -155.5q0 -123 36.5 -235.5t101.5 -199
t164.5 -137.5t217.5 -51q136 0 242 53.5t207 165.5q15 14 24.5 13.5t28.5 -13.5q20 -14 23.5 -22.5t-7.5 -26.5q-223 -293 -559 -293z" />
    <glyph glyph-name="cdotaccent" unicode="&#x10b;" horiz-adv-x="792" 
d="M328 1106q0 40 30.5 71t79.5 31q46 0 75.5 -30t29.5 -74q0 -49 -31.5 -79t-79.5 -30q-50 0 -77 30t-27 81zM457 -31q-168 0 -275.5 122t-107.5 298q0 193 110 321t285 128q152 0 233 -99q33 -39 33 -86q0 -30 -21.5 -51.5t-54.5 -21.5q-54 0 -73 45q-3 6 -10 24
t-13.5 32.5t-13.5 25.5q-33 51 -115 51q-94 0 -145 -75.5t-51 -207.5q0 -104 23.5 -183.5t63.5 -125t86 -68t97 -22.5q55 0 106 27.5t78 58.5q15 20 31 20q11 0 19 -8t8 -18q0 -13 -15 -39q-41 -63 -118 -105.5t-160 -42.5z" />
    <glyph glyph-name="Ccaron" unicode="&#x10c;" horiz-adv-x="1409" 
d="M805 1427q-23 0 -70 41l-190 168q-13 10 -13 23q0 11 9.5 20t21.5 9t70 -35q13 -8 176 -97q83 46 168 97q58 35 70 35t21 -9t9 -20q0 -14 -12 -23l-191 -168q-47 -41 -69 -41zM776 -39q-158 0 -288.5 57t-216 156t-132.5 232t-47 286q0 137 51.5 261.5t143 218t226.5 149
t292 55.5q117 0 212 -34.5t187 -102.5l39 39q20 20 39 20q25 0 25 -34q-2 -49 -0.5 -90t6 -98.5t6.5 -86.5q2 -20 -3.5 -26.5t-31.5 -12.5q-13 -3 -22 1.5t-13.5 11.5t-11.5 22l-47 80q-138 227 -385 227q-106 0 -193.5 -37.5t-144.5 -97.5t-96.5 -138t-56.5 -156.5
t-17 -155.5q0 -123 36.5 -235.5t101.5 -199t164.5 -137.5t217.5 -51q136 0 242 53.5t207 165.5q15 14 24.5 13.5t28.5 -13.5q20 -14 23.5 -22.5t-7.5 -26.5q-223 -293 -559 -293z" />
    <glyph glyph-name="ccaron" unicode="&#x10d;" horiz-adv-x="792" 
d="M457 -31q-168 0 -275.5 122t-107.5 298q0 193 110 321t285 128q152 0 233 -99q33 -39 33 -86q0 -30 -21.5 -51.5t-54.5 -21.5q-54 0 -73 45q-3 6 -10 24t-13.5 32.5t-13.5 25.5q-33 51 -115 51q-94 0 -145 -75.5t-51 -207.5q0 -104 23.5 -183.5t63.5 -125t86 -68
t97 -22.5q55 0 106 27.5t78 58.5q15 20 31 20q11 0 19 -8t8 -18q0 -13 -15 -39q-41 -63 -118 -105.5t-160 -42.5zM473 950q-13 0 -23.5 13t-39.5 61l-168 274q-9 14 0.5 27.5t25.5 13.5q15 0 37 -22l168 -191l145 172q35 41 58 41q17 0 23.5 -13.5t-1.5 -27.5l-161 -274
q-26 -44 -38.5 -59t-25.5 -15z" />
    <glyph glyph-name="Dcaron" unicode="&#x10e;" horiz-adv-x="1509" 
d="M709 1427q-23 0 -70 41l-190 168q-13 10 -13 23q0 11 9.5 20t21.5 9t70 -35q13 -8 176 -97q83 46 168 97q58 35 69 35q12 0 21.5 -9t9.5 -20q0 -14 -12 -23l-191 -168q-47 -41 -69 -41zM680 74q246 0 389 167t143 433q0 95 -20 181t-63 161.5t-105.5 130.5t-152.5 87
t-199 32q-116 0 -166 -15q-32 -9 -43.5 -31t-11.5 -67v-950q0 -78 46 -103.5t183 -25.5zM360 2q-176 0 -264 -8q-21 -2 -29 5t-8 34q0 23 8.5 32.5t30.5 12.5l101 12q37 5 54 19.5t17 48.5v1013q0 39 -15.5 57t-51.5 23l-105 11q-22 3 -30.5 11.5t-8.5 31.5q0 29 8 36t29 5
q110 -5 264 -5q19 0 128.5 2.5t226.5 2.5q147 0 266.5 -37t199.5 -100t134 -150t78 -183t24 -202q0 -300 -184 -484q-196 -196 -531 -196q-109 0 -215.5 4t-126.5 4z" />
    <glyph glyph-name="dcaron" unicode="&#x10f;" horiz-adv-x="1017" 
d="M1151 1249q0 -85 -57 -154t-97 -69q-10 0 -17 7t-7 16q0 14 14 26q66 59 66 111q0 25 -12.5 40.5t-27.5 21.5t-27.5 21t-12.5 38q0 34 20 58t54 24q50 0 77 -40.5t27 -99.5zM449 -31q-168 0 -271.5 116t-103.5 292q0 207 117 334t294 127q146 0 228 -72l-2 297
q0 101 -14.5 135.5t-78.5 56.5q-33 11 -44 18.5t-11 22.5q0 30 60 43q53 11 98.5 24.5t68.5 20.5t39 7t21.5 -10t5.5 -33q0 -5 -0.5 -17t-1.5 -43t-2 -84.5t-1.5 -164t-0.5 -259.5v-542q0 -70 11 -100.5t44 -26.5l41 4q23 3 32 0.5t15 -17.5q9 -24 -16 -39
q-113 -63 -186 -86q-12 -4 -23 -4q-27 0 -35.5 21t-11.5 104q-43 -53 -117.5 -89t-154.5 -36zM508 59q81 0 145 56.5t64 154.5v219q0 65 -16.5 114.5t-41.5 77t-59 44.5t-62 22t-59 5q-239 0 -239 -318q0 -157 73 -266t195 -109z" />
    <glyph glyph-name="Dcroat" unicode="&#x110;" horiz-adv-x="1509" 
d="M360 2q-176 0 -264 -8q-21 -2 -29 5t-8 34q0 23 8.5 32.5t30.5 12.5l101 12q37 5 54 19.5t17 48.5v483h-190q-17 0 -22 5.5t-5 21.5v39q0 16 6 20t21 4h190v440q0 39 -15.5 57t-51.5 23l-105 11q-22 3 -30.5 11.5t-8.5 31.5q0 29 8 36t29 5q110 -5 264 -5q19 0 128.5 2.5
t226.5 2.5q147 0 266.5 -37t199.5 -100t134 -150t78 -183t24 -202q0 -300 -184 -484q-196 -196 -531 -196q-109 0 -215.5 4t-126.5 4zM680 74q246 0 389 167t143 433q0 95 -20 181t-63 161.5t-105.5 130.5t-152.5 87t-199 32q-118 0 -168 -15q-30 -9 -41.5 -31t-11.5 -65
v-424h278q15 0 21 -4t6 -20v-39q0 -16 -5 -21.5t-22 -5.5h-278v-438q0 -78 46 -103.5t183 -25.5z" />
    <glyph glyph-name="dcroat" unicode="&#x111;" horiz-adv-x="1017" 
d="M850 993v-213v-542q0 -70 11 -100.5t44 -26.5l41 4q23 3 32 0.5t15 -17.5q9 -24 -16 -39q-113 -63 -186 -86q-12 -4 -23 -4q-27 0 -35.5 21t-11.5 104q-43 -53 -117.5 -89t-154.5 -36q-168 0 -271.5 116t-103.5 292q0 207 117 334t294 127q146 0 228 -72v227h-285
q-17 0 -22 5.5t-5 21.5v33q0 16 6 20t21 4h283q0 87 -15 121.5t-78 56.5q-33 11 -44 18.5t-11 22.5q0 30 60 43q53 11 98.5 24.5t68.5 20.5t39 7t21.5 -10t5.5 -33q0 -4 -0.5 -8t-1 -9.5t-1 -22.5t-1 -42.5t-1.5 -74.5t-1 -114h117q15 0 20.5 -4t5.5 -20v-33
q0 -16 -4.5 -21.5t-21.5 -5.5h-117zM508 59q81 0 145 56.5t64 154.5v219q0 65 -16.5 114.5t-41.5 77t-59 44.5t-62 22t-59 5q-239 0 -239 -318q0 -157 73 -266t195 -109z" />
    <glyph glyph-name="Emacron" unicode="&#x112;" horiz-adv-x="1308" 
d="M887 2q-124 0 -436 -3t-355 -7q-21 -2 -29 6t-8 37q0 23 8.5 31.5t30.5 11.5l101 12q35 3 53 18t18 52v1003q0 29 -4 45.5t-18.5 25t-26.5 11t-43 6.5l-80 11q-22 1 -30.5 11.5t-8.5 33.5q0 27 8 34t29 5q99 -9 715 -9q113 0 266 13q16 2 31 -9t16 -34q12 -148 39 -269
q5 -20 -2 -29.5t-35 -13.5q-22 -3 -31.5 4t-17.5 29l-28 76q-12 31 -23 51t-31.5 42t-48 34.5t-71 20.5t-101.5 8h-323v-525h184q72 0 110.5 6.5t52.5 17.5t19 32l23 118q5 23 13.5 31t31.5 8q29 0 36 -8t5 -29q-8 -88 -8 -247q0 -127 8 -215q2 -19 -11.5 -28t-44.5 -9
q-9 0 -14.5 0.5t-8.5 5.5t-3.5 6.5t-1.5 12t-2 14.5l-23 116q-6 28 -19 44.5t-53 28t-110 11.5h-184v-385q0 -45 3 -74t14.5 -51t25.5 -33.5t44.5 -18t62 -8t87.5 -1.5h164q59 0 98.5 6.5t66.5 18t46.5 36.5t31.5 53t27 76l25 78q8 23 16.5 30.5t30.5 4.5q28 -3 35 -12
t4 -29q-26 -158 -39 -303q-1 -23 -18 -35t-33 -10q-109 8 -256 8zM872 1511h-370q-24 0 -33 1t-16 8t-7 22v49q0 23 11 28t45 5h370q15 0 21.5 -0.5t15 -2t11.5 -5t5.5 -9.5t2.5 -16v-49q0 -15 -7 -22t-16 -8t-33 -1z" />
    <glyph glyph-name="emacron" unicode="&#x113;" horiz-adv-x="851" 
d="M469 -31q-125 0 -216.5 58.5t-136 152.5t-44.5 209q0 123 46.5 224t138.5 163t214 62q73 0 134 -29.5t98 -75t57 -95.5t20 -95t-19.5 -58.5t-70.5 -13.5h-454q0 -201 76.5 -296t201.5 -95q47 0 90 17.5t61.5 32t43.5 38.5q44 41 61 41q13 0 22 -8.5t9 -22.5
q0 -36 -56 -92q-47 -49 -119 -83t-157 -34zM238 543l333 8q39 0 39 45q0 55 -47 107.5t-125 52.5q-167 0 -200 -213zM596 1047h-315q-24 0 -33 1t-16 7.5t-7 21.5v43q0 23 11.5 28t44.5 5h315q23 0 32.5 -1.5t16 -8.5t6.5 -23v-43q0 -11 -2.5 -17.5t-11.5 -9t-15.5 -3
t-25.5 -0.5z" />
    <glyph glyph-name="Ebreve" unicode="&#x114;" horiz-adv-x="1308" 
d="M498 1669q23 -108 161 -108q64 0 107 27t55 81q4 19 31 19q14 0 20.5 -6t6.5 -29q0 -93 -64 -144t-156 -51q-93 0 -156 50.5t-63 144.5q0 23 6.5 29t20.5 6q27 0 31 -19zM887 2q-124 0 -436 -3t-355 -7q-21 -2 -29 6t-8 37q0 23 8.5 31.5t30.5 11.5l101 12q35 3 53 18
t18 52v1003q0 29 -4 45.5t-18.5 25t-26.5 11t-43 6.5l-80 11q-22 1 -30.5 11.5t-8.5 33.5q0 27 8 34t29 5q99 -9 715 -9q113 0 266 13q16 2 31 -9t16 -34q12 -148 39 -269q5 -20 -2 -29.5t-35 -13.5q-22 -3 -31.5 4t-17.5 29l-28 76q-12 31 -23 51t-31.5 42t-48 34.5
t-71 20.5t-101.5 8h-323v-525h184q72 0 110.5 6.5t52.5 17.5t19 32l23 118q5 23 13.5 31t31.5 8q29 0 36 -8t5 -29q-8 -88 -8 -247q0 -127 8 -215q2 -19 -11.5 -28t-44.5 -9q-9 0 -14.5 0.5t-8.5 5.5t-3.5 6.5t-1.5 12t-2 14.5l-23 116q-6 28 -19 44.5t-53 28t-110 11.5
h-184v-385q0 -45 3 -74t14.5 -51t25.5 -33.5t44.5 -18t62 -8t87.5 -1.5h164q59 0 98.5 6.5t66.5 18t46.5 36.5t31.5 53t27 76l25 78q8 23 16.5 30.5t30.5 4.5q28 -3 35 -12t4 -29q-26 -158 -39 -303q-1 -23 -18 -35t-33 -10q-109 8 -256 8z" />
    <glyph glyph-name="ebreve" unicode="&#x115;" horiz-adv-x="851" 
d="M307 1217q13 -60 54.5 -102t103.5 -42q59 0 102 42.5t56 101.5q4 18 30 18q14 0 20.5 -6t6.5 -29q0 -97 -64 -164t-151 -67q-89 0 -152 67t-63 164q0 23 6 29t20 6q27 0 31 -18zM469 -31q-125 0 -216.5 58.5t-136 152.5t-44.5 209q0 123 46.5 224t138.5 163t214 62
q73 0 134 -29.5t98 -75t57 -95.5t20 -95t-19.5 -58.5t-70.5 -13.5h-454q0 -201 76.5 -296t201.5 -95q47 0 90 17.5t61.5 32t43.5 38.5q44 41 61 41q13 0 22 -8.5t9 -22.5q0 -36 -56 -92q-47 -49 -119 -83t-157 -34zM238 543l333 8q39 0 39 45q0 55 -47 107.5t-125 52.5
q-167 0 -200 -213z" />
    <glyph glyph-name="Edotaccent" unicode="&#x116;" horiz-adv-x="1308" 
d="M573 1571q0 42 33.5 76t83.5 34q49 0 81 -32.5t32 -77.5q0 -51 -33.5 -84t-83.5 -33q-52 0 -82.5 32.5t-30.5 84.5zM887 2q-124 0 -436 -3t-355 -7q-21 -2 -29 6t-8 37q0 23 8.5 31.5t30.5 11.5l101 12q35 3 53 18t18 52v1003q0 29 -4 45.5t-18.5 25t-26.5 11t-43 6.5
l-80 11q-22 1 -30.5 11.5t-8.5 33.5q0 27 8 34t29 5q99 -9 715 -9q113 0 266 13q16 2 31 -9t16 -34q12 -148 39 -269q5 -20 -2 -29.5t-35 -13.5q-22 -3 -31.5 4t-17.5 29l-28 76q-12 31 -23 51t-31.5 42t-48 34.5t-71 20.5t-101.5 8h-323v-525h184q72 0 110.5 6.5t52.5 17.5
t19 32l23 118q5 23 13.5 31t31.5 8q29 0 36 -8t5 -29q-8 -88 -8 -247q0 -127 8 -215q2 -19 -11.5 -28t-44.5 -9q-9 0 -14.5 0.5t-8.5 5.5t-3.5 6.5t-1.5 12t-2 14.5l-23 116q-6 28 -19 44.5t-53 28t-110 11.5h-184v-385q0 -45 3 -74t14.5 -51t25.5 -33.5t44.5 -18t62 -8
t87.5 -1.5h164q59 0 98.5 6.5t66.5 18t46.5 36.5t31.5 53t27 76l25 78q8 23 16.5 30.5t30.5 4.5q28 -3 35 -12t4 -29q-26 -158 -39 -303q-1 -23 -18 -35t-33 -10q-109 8 -256 8z" />
    <glyph glyph-name="edotaccent" unicode="&#x117;" horiz-adv-x="851" 
d="M342 1106q0 40 31 71t80 31q46 0 75 -30t29 -74q0 -49 -31.5 -79t-79.5 -30q-50 0 -77 30t-27 81zM469 -31q-125 0 -216.5 58.5t-136 152.5t-44.5 209q0 123 46.5 224t138.5 163t214 62q73 0 134 -29.5t98 -75t57 -95.5t20 -95t-19.5 -58.5t-70.5 -13.5h-454
q0 -201 76.5 -296t201.5 -95q47 0 90 17.5t61.5 32t43.5 38.5q44 41 61 41q13 0 22 -8.5t9 -22.5q0 -36 -56 -92q-47 -49 -119 -83t-157 -34zM238 543l333 8q39 0 39 45q0 55 -47 107.5t-125 52.5q-167 0 -200 -213z" />
    <glyph glyph-name="Eogonek" unicode="&#x118;" horiz-adv-x="1308" 
d="M1040 -47q-63 -80 -83.5 -132t-20.5 -97q0 -37 23.5 -61.5t54.5 -24.5q32 0 69 32q25 25 39 25q12 0 19.5 -9t7.5 -20q0 -16 -33 -55q-68 -76 -153 -76q-61 0 -109.5 42t-48.5 112q0 30 10.5 62t23 55.5t40 58.5t44 53.5t52.5 58.5l22 23q-813 0 -901 -8q-21 -2 -29 6
t-8 37q0 23 8.5 31.5t30.5 11.5l101 12q35 3 53 18t18 52v1003q0 29 -4 45.5t-18.5 25t-26.5 11t-43 6.5l-80 11q-22 1 -30.5 11.5t-8.5 33.5q0 27 8 34t29 5q99 -9 715 -9q113 0 266 13q16 2 31 -9t16 -34q12 -148 39 -269q5 -20 -2 -29.5t-35 -13.5q-22 -3 -31.5 4
t-17.5 29l-28 76q-12 31 -23 51t-31.5 42t-48 34.5t-71 20.5t-101.5 8h-323v-525h184q72 0 110.5 6.5t52.5 17.5t19 32l23 118q5 23 13.5 31t31.5 8q29 0 36 -8t5 -29q-8 -88 -8 -247q0 -127 8 -215q2 -19 -11.5 -28t-44.5 -9q-9 0 -14.5 0.5t-8.5 5.5t-3.5 6.5t-1.5 12
t-2 14.5l-23 116q-6 28 -19 44.5t-53 28t-110 11.5h-184v-385q0 -45 3 -74t14.5 -51t25.5 -33.5t44.5 -18t62 -8t87.5 -1.5h164q59 0 98.5 6.5t66.5 18t46.5 36.5t31.5 53t27 76l25 78q8 23 16.5 30.5t30.5 4.5q28 -3 35 -12t4 -29q-26 -158 -39 -303q-1 -23 -18 -35
t-33 -10q-54 4 -60 4q-1 -1 -5.5 -4.5t-13.5 -13t-24 -27.5z" />
    <glyph glyph-name="eogonek" unicode="&#x119;" horiz-adv-x="851" 
d="M614 -45q-73 -88 -94.5 -134.5t-21.5 -88.5q0 -37 21.5 -60.5t51.5 -23.5q35 0 70 30q25 25 39 25q12 0 19.5 -9t7.5 -20q0 -16 -33 -55q-66 -74 -154 -74q-63 0 -107 38t-44 116q0 95 127 225l59 56q-46 -11 -86 -11q-125 0 -216.5 58.5t-136 152.5t-44.5 209
q0 123 46.5 224t138.5 163t214 62q73 0 134 -29.5t98 -75t57 -95.5t20 -95t-19.5 -58.5t-70.5 -13.5h-454q0 -201 76.5 -296t201.5 -95q47 0 90 17.5t61.5 32t43.5 38.5q44 41 61 41q13 0 22 -8.5t9 -22.5q0 -20 -24 -54.5t-64 -70.5q-69 -60 -99 -98zM238 543l333 8
q39 0 39 45q0 55 -47 107.5t-125 52.5q-167 0 -200 -213z" />
    <glyph glyph-name="Ecaron" unicode="&#x11a;" horiz-adv-x="1308" 
d="M686 1427q-23 0 -70 41l-190 168q-12 9 -12 23q0 11 9 20t21 9t70 -35q13 -8 176 -97q83 46 168 97q58 35 70 35t21 -9t9 -20q0 -14 -12 -23l-190 -168q-47 -41 -70 -41zM887 2q-124 0 -436 -3t-355 -7q-21 -2 -29 6t-8 37q0 23 8.5 31.5t30.5 11.5l101 12q35 3 53 18
t18 52v1003q0 29 -4 45.5t-18.5 25t-26.5 11t-43 6.5l-80 11q-22 1 -30.5 11.5t-8.5 33.5q0 27 8 34t29 5q99 -9 715 -9q113 0 266 13q16 2 31 -9t16 -34q12 -148 39 -269q5 -20 -2 -29.5t-35 -13.5q-22 -3 -31.5 4t-17.5 29l-28 76q-12 31 -23 51t-31.5 42t-48 34.5
t-71 20.5t-101.5 8h-323v-525h184q72 0 110.5 6.5t52.5 17.5t19 32l23 118q5 23 13.5 31t31.5 8q29 0 36 -8t5 -29q-8 -88 -8 -247q0 -127 8 -215q2 -19 -11.5 -28t-44.5 -9q-9 0 -14.5 0.5t-8.5 5.5t-3.5 6.5t-1.5 12t-2 14.5l-23 116q-6 28 -19 44.5t-53 28t-110 11.5
h-184v-385q0 -45 3 -74t14.5 -51t25.5 -33.5t44.5 -18t62 -8t87.5 -1.5h164q59 0 98.5 6.5t66.5 18t46.5 36.5t31.5 53t27 76l25 78q8 23 16.5 30.5t30.5 4.5q28 -3 35 -12t4 -29q-26 -158 -39 -303q-1 -23 -18 -35t-33 -10q-109 8 -256 8z" />
    <glyph glyph-name="ecaron" unicode="&#x11b;" horiz-adv-x="851" 
d="M469 -31q-125 0 -216.5 58.5t-136 152.5t-44.5 209q0 123 46.5 224t138.5 163t214 62q73 0 134 -29.5t98 -75t57 -95.5t20 -95t-19.5 -58.5t-70.5 -13.5h-454q0 -201 76.5 -296t201.5 -95q47 0 90 17.5t61.5 32t43.5 38.5q44 41 61 41q13 0 22 -8.5t9 -22.5
q0 -36 -56 -92q-47 -49 -119 -83t-157 -34zM238 543l333 8q39 0 39 45q0 55 -47 107.5t-125 52.5q-167 0 -200 -213zM475 950q-13 0 -23.5 13t-39.5 61l-168 274q-9 14 0.5 27.5t25.5 13.5q15 0 37 -22l168 -191l146 172q35 41 57 41q17 0 23.5 -13.5t-1.5 -27.5l-161 -274
q-26 -44 -38.5 -59t-25.5 -15z" />
    <glyph glyph-name="Gcircumflex" unicode="&#x11c;" horiz-adv-x="1531" 
d="M803 1567l-180 -99q-51 -28 -72 -28q-18 0 -23.5 18t11.5 33q165 142 186 162q47 47 78 47t78 -47q21 -20 186 -162q17 -15 11.5 -33t-23.5 -18q-21 0 -72 28zM801 -39q-142 0 -260 39t-200 107t-139 160.5t-83.5 197.5t-26.5 221q0 135 46.5 258t133.5 220t224 154.5
t305 57.5q233 0 411 -114l50 36l12 8t15.5 8.5t13.5 2.5q13 0 17.5 -9t4.5 -30q0 -29 1 -72.5t1 -62.5q0 -127 6 -207q2 -20 -4.5 -27.5t-32.5 -11.5q-20 -3 -28.5 4.5t-18.5 30.5l-35 78q-63 141 -161.5 212.5t-257.5 71.5q-94 0 -182.5 -42t-159 -117.5t-113.5 -192.5
t-43 -256q0 -177 67 -323.5t184 -230t259 -83.5q113 0 208 41t136 98v238q0 60 -57 66l-86 12q-23 3 -31 10t-8 29q0 30 8 38.5t29 6.5q110 -10 235 -10q87 0 197 10q20 2 28.5 -7t8.5 -40q0 -22 -7.5 -28t-31.5 -9l-54 -8q-33 -4 -44 -20t-11 -50v-244q0 -35 -7 -48.5
t-38 -33.5q-102 -65 -230 -102t-251 -37z" />
    <glyph glyph-name="gcircumflex" unicode="&#x11d;" horiz-adv-x="940" 
d="M436 838q90 0 147 -23.5t113 -79.5q53 44 90.5 64t75.5 20q27 0 49.5 -20t22.5 -58q0 -40 -18.5 -57.5t-43.5 -17.5q-23 0 -44.5 18t-41.5 18q-35 0 -55 -10q47 -86 47 -170q0 -121 -92.5 -213t-245.5 -92q-67 0 -133 16q-9 -5 -23.5 -15t-32.5 -33.5t-18 -47.5
q0 -44 73 -59.5t292 -26.5q287 -13 287 -244q0 -103 -66 -182.5t-179 -121.5t-253 -42q-69 0 -126.5 10t-108 32.5t-79 65t-28.5 101.5q0 53 18.5 102t48 83.5t55.5 57t52 38.5q-108 50 -108 139q0 32 19.5 64t48 55t45.5 34.5t28 16.5q-78 52 -114 118t-36 154
q0 134 99.5 220t234.5 86zM440 762q-85 0 -134.5 -67t-49.5 -167q0 -96 46.5 -165.5t137.5 -69.5q86 0 135.5 63.5t49.5 175.5q0 40 -10.5 78.5t-31 73.5t-58 56.5t-85.5 21.5zM426 -465q132 0 229 59t97 166q0 26 -6.5 47t-23.5 44t-55 38.5t-94 20.5q-69 6 -171 11t-128 9
q-36 -32 -65 -81.5t-29 -110.5q0 -101 67 -152t179 -51zM459 1161l-168 -190q-19 -23 -41 -23q-16 0 -23.5 13t0.5 28l168 275q27 44 39 58.5t25 14.5q12 0 23.5 -14t39.5 -59l168 -275q9 -15 1 -28t-23 -13q-22 0 -41 23z" />
    <glyph glyph-name="Gbreve" unicode="&#x11e;" horiz-adv-x="1531" 
d="M639 1669q23 -108 162 -108q64 0 107 27t55 81q4 19 30 19q14 0 20.5 -6t6.5 -29q0 -93 -63.5 -144t-155.5 -51q-93 0 -156 50.5t-63 144.5q0 23 6 29t20 6q27 0 31 -19zM801 -39q-142 0 -260 39t-200 107t-139 160.5t-83.5 197.5t-26.5 221q0 135 46.5 258t133.5 220
t224 154.5t305 57.5q233 0 411 -114l50 36l12 8t15.5 8.5t13.5 2.5q13 0 17.5 -9t4.5 -30q0 -29 1 -72.5t1 -62.5q0 -127 6 -207q2 -20 -4.5 -27.5t-32.5 -11.5q-20 -3 -28.5 4.5t-18.5 30.5l-35 78q-63 141 -161.5 212.5t-257.5 71.5q-94 0 -182.5 -42t-159 -117.5
t-113.5 -192.5t-43 -256q0 -177 67 -323.5t184 -230t259 -83.5q113 0 208 41t136 98v238q0 60 -57 66l-86 12q-23 3 -31 10t-8 29q0 30 8 38.5t29 6.5q110 -10 235 -10q87 0 197 10q20 2 28.5 -7t8.5 -40q0 -22 -7.5 -28t-31.5 -9l-54 -8q-33 -4 -44 -20t-11 -50v-244
q0 -35 -7 -48.5t-38 -33.5q-102 -65 -230 -102t-251 -37z" />
    <glyph glyph-name="gbreve" unicode="&#x11f;" horiz-adv-x="940" 
d="M274 1217q13 -60 54.5 -102t103.5 -42q59 0 102 42.5t56 101.5q4 18 31 18q14 0 20 -6t6 -29q0 -97 -64 -164t-151 -67q-89 0 -152 67t-63 164q0 23 6.5 29t20.5 6q26 0 30 -18zM436 838q90 0 147 -23.5t113 -79.5q53 44 90.5 64t75.5 20q27 0 49.5 -20t22.5 -58
q0 -40 -18.5 -57.5t-43.5 -17.5q-23 0 -44.5 18t-41.5 18q-35 0 -55 -10q47 -86 47 -170q0 -121 -92.5 -213t-245.5 -92q-67 0 -133 16q-9 -5 -23.5 -15t-32.5 -33.5t-18 -47.5q0 -44 73 -59.5t292 -26.5q287 -13 287 -244q0 -103 -66 -182.5t-179 -121.5t-253 -42
q-69 0 -126.5 10t-108 32.5t-79 65t-28.5 101.5q0 53 18.5 102t48 83.5t55.5 57t52 38.5q-108 50 -108 139q0 32 19.5 64t48 55t45.5 34.5t28 16.5q-78 52 -114 118t-36 154q0 134 99.5 220t234.5 86zM440 762q-85 0 -134.5 -67t-49.5 -167q0 -96 46.5 -165.5t137.5 -69.5
q86 0 135.5 63.5t49.5 175.5q0 40 -10.5 78.5t-31 73.5t-58 56.5t-85.5 21.5zM426 -465q132 0 229 59t97 166q0 26 -6.5 47t-23.5 44t-55 38.5t-94 20.5q-69 6 -171 11t-128 9q-36 -32 -65 -81.5t-29 -110.5q0 -101 67 -152t179 -51z" />
    <glyph glyph-name="Gdotaccent" unicode="&#x120;" horiz-adv-x="1531" 
d="M686 1577q0 42 33.5 76.5t83.5 34.5q48 0 80 -33t32 -78q0 -51 -33 -84t-83 -33q-52 0 -82.5 32.5t-30.5 84.5zM801 -39q-142 0 -260 39t-200 107t-139 160.5t-83.5 197.5t-26.5 221q0 135 46.5 258t133.5 220t224 154.5t305 57.5q233 0 411 -114l50 36l12 8t15.5 8.5
t13.5 2.5q13 0 17.5 -9t4.5 -30q0 -29 1 -72.5t1 -62.5q0 -127 6 -207q2 -20 -4.5 -27.5t-32.5 -11.5q-20 -3 -28.5 4.5t-18.5 30.5l-35 78q-63 141 -161.5 212.5t-257.5 71.5q-94 0 -182.5 -42t-159 -117.5t-113.5 -192.5t-43 -256q0 -177 67 -323.5t184 -230t259 -83.5
q113 0 208 41t136 98v238q0 60 -57 66l-86 12q-23 3 -31 10t-8 29q0 30 8 38.5t29 6.5q110 -10 235 -10q87 0 197 10q20 2 28.5 -7t8.5 -40q0 -22 -7.5 -28t-31.5 -9l-54 -8q-33 -4 -44 -20t-11 -50v-244q0 -35 -7 -48.5t-38 -33.5q-102 -65 -230 -102t-251 -37z" />
    <glyph glyph-name="gdotaccent" unicode="&#x121;" horiz-adv-x="940" 
d="M436 838q90 0 147 -23.5t113 -79.5q53 44 90.5 64t75.5 20q27 0 49.5 -20t22.5 -58q0 -40 -18.5 -57.5t-43.5 -17.5q-23 0 -44.5 18t-41.5 18q-35 0 -55 -10q47 -86 47 -170q0 -121 -92.5 -213t-245.5 -92q-67 0 -133 16q-9 -5 -23.5 -15t-32.5 -33.5t-18 -47.5
q0 -44 73 -59.5t292 -26.5q287 -13 287 -244q0 -103 -66 -182.5t-179 -121.5t-253 -42q-69 0 -126.5 10t-108 32.5t-79 65t-28.5 101.5q0 53 18.5 102t48 83.5t55.5 57t52 38.5q-108 50 -108 139q0 32 19.5 64t48 55t45.5 34.5t28 16.5q-78 52 -114 118t-36 154
q0 134 99.5 220t234.5 86zM440 762q-85 0 -134.5 -67t-49.5 -167q0 -96 46.5 -165.5t137.5 -69.5q86 0 135.5 63.5t49.5 175.5q0 40 -10.5 78.5t-31 73.5t-58 56.5t-85.5 21.5zM426 -465q132 0 229 59t97 166q0 26 -6.5 47t-23.5 44t-55 38.5t-94 20.5q-69 6 -171 11t-128 9
q-36 -32 -65 -81.5t-29 -110.5q0 -101 67 -152t179 -51zM330 1106q0 40 30.5 71t79.5 31q46 0 75.5 -30t29.5 -74q0 -49 -31.5 -79t-79.5 -30q-50 0 -77 30t-27 81z" />
    <glyph glyph-name="Gcommaaccent" unicode="&#x122;" horiz-adv-x="1531" 
d="M801 -39q-142 0 -260 39t-200 107t-139 160.5t-83.5 197.5t-26.5 221q0 135 46.5 258t133.5 220t224 154.5t305 57.5q233 0 411 -114l50 36l12 8t15.5 8.5t13.5 2.5q13 0 17.5 -9t4.5 -30q0 -29 1 -72.5t1 -62.5q0 -127 6 -207q2 -20 -4.5 -27.5t-32.5 -11.5
q-20 -3 -28.5 4.5t-18.5 30.5l-35 78q-63 141 -161.5 212.5t-257.5 71.5q-94 0 -182.5 -42t-159 -117.5t-113.5 -192.5t-43 -256q0 -177 67 -323.5t184 -230t259 -83.5q113 0 208 41t136 98v238q0 60 -57 66l-86 12q-23 3 -31 10t-8 29q0 30 8 38.5t29 6.5q110 -10 235 -10
q87 0 197 10q20 2 28.5 -7t8.5 -40q0 -22 -7.5 -28t-31.5 -9l-54 -8q-33 -4 -44 -20t-11 -50v-244q0 -35 -7 -48.5t-38 -33.5q-102 -65 -230 -102t-251 -37zM938 -242q0 -81 -61.5 -152t-98.5 -71q-10 0 -17 7t-7 16q0 14 14 26q66 59 66 113q0 25 -12.5 40t-27.5 21
t-27.5 20.5t-12.5 37.5q0 34 19.5 58t53.5 24q51 0 81 -41t30 -99z" />
    <glyph glyph-name="gcommaaccent" unicode="&#x123;" horiz-adv-x="940" 
d="M334 1110q0 81 61.5 152t98.5 71q10 0 17 -6.5t7 -15.5q0 -15 -14 -27q-66 -59 -66 -110q0 -25 12.5 -40.5t27.5 -21.5t27.5 -21t12.5 -38q0 -34 -20 -58t-54 -24q-51 0 -80.5 40.5t-29.5 98.5zM436 838q90 0 147 -23.5t113 -79.5q53 44 90.5 64t75.5 20q27 0 49.5 -20
t22.5 -58q0 -40 -18.5 -57.5t-43.5 -17.5q-23 0 -44.5 18t-41.5 18q-35 0 -55 -10q47 -86 47 -170q0 -121 -92.5 -213t-245.5 -92q-67 0 -133 16q-9 -5 -23.5 -15t-32.5 -33.5t-18 -47.5q0 -44 73 -59.5t292 -26.5q287 -13 287 -244q0 -103 -66 -182.5t-179 -121.5t-253 -42
q-69 0 -126.5 10t-108 32.5t-79 65t-28.5 101.5q0 53 18.5 102t48 83.5t55.5 57t52 38.5q-108 50 -108 139q0 32 19.5 64t48 55t45.5 34.5t28 16.5q-78 52 -114 118t-36 154q0 134 99.5 220t234.5 86zM440 762q-85 0 -134.5 -67t-49.5 -167q0 -96 46.5 -165.5t137.5 -69.5
q86 0 135.5 63.5t49.5 175.5q0 40 -10.5 78.5t-31 73.5t-58 56.5t-85.5 21.5zM426 -465q132 0 229 59t97 166q0 26 -6.5 47t-23.5 44t-55 38.5t-94 20.5q-69 6 -171 11t-128 9q-36 -32 -65 -81.5t-29 -110.5q0 -101 67 -152t179 -51z" />
    <glyph glyph-name="Hcircumflex" unicode="&#x124;" horiz-adv-x="1679" 
d="M840 1567l-181 -99q-51 -28 -71 -28q-18 0 -23.5 18t10.5 33q177 153 187 162q47 47 78 47t78 -47q21 -20 186 -162q17 -15 11.5 -33t-23.5 -18q-21 0 -72 28zM360 2q-153 0 -241 -8q-21 -2 -29 5t-8 36q0 23 8.5 31.5t30.5 11.5l84 10q41 6 53 16t12 41v1047
q0 30 -14.5 42t-50.5 17l-84 11q-22 3 -30.5 11.5t-8.5 31.5q0 29 8 36t29 5q99 -9 241 -9q157 0 256 9q21 2 29 -5t8 -36q0 -23 -8.5 -31.5t-30.5 -11.5l-106 -13q-32 -5 -44.5 -15.5t-12.5 -39.5v-436q0 -10 1 -14.5t7.5 -8.5t19.5 -4h719q19 0 25 6.5t6 20.5v436
q0 29 -13 39.5t-45 15.5l-106 13q-22 3 -30.5 12.5t-8.5 32.5q0 28 8 34.5t29 4.5q99 -9 256 -9q143 0 242 9q15 1 21 0t10.5 -10t4.5 -29q0 -23 -8 -32.5t-30 -12.5l-84 -11q-37 -5 -51.5 -16t-14.5 -41v-1049q0 -30 12 -40.5t54 -16.5l84 -10q22 -3 30 -11.5t8 -31.5
q0 -29 -7.5 -36t-28.5 -5q-88 8 -242 8q-168 0 -256 -8q-21 -2 -29 5t-8 36q0 23 8.5 31.5t30.5 11.5l106 12q32 5 45 15.5t13 39.5v471q0 14 -6 20.5t-25 6.5h-719q-17 0 -22.5 -6.5t-5.5 -20.5v-471q0 -29 12.5 -39.5t44.5 -15.5l106 -12q22 -3 30.5 -11.5t8.5 -31.5
q0 -29 -8 -36t-29 -5q-88 8 -256 8z" />
    <glyph glyph-name="hcircumflex" unicode="&#x125;" horiz-adv-x="1013" 
d="M258 1567l-180 -99q-51 -28 -72 -28q-18 0 -23.5 18t11.5 33q165 142 186 162q47 47 78 47t78 -47q21 -20 186 -162q17 -15 11.5 -33t-23.5 -18q-21 0 -72 28zM248 0q-62 0 -142 -6q-17 -2 -23.5 5.5t-6.5 37.5t30 33l35 4q41 5 41 53q0 175 2 292.5t2 131.5v410
q0 150 -12.5 199t-58.5 69q-26 11 -34.5 15t-14 11.5t-5.5 18.5q0 16 25 26q95 38 162 70q44 21 53 21q8 0 17.5 -7t9.5 -20v-64q0 -28 -2 -237t-2 -393q39 84 110 126t164 42q84 0 142.5 -39.5t82.5 -122.5q19 -68 19 -252v-297q0 -51 47 -53l41 -4q17 -2 25 -9.5t8 -29.5
q0 -26 -6 -32.5t-25 -4.5q-76 6 -139 6q-109 0 -185 -6q-18 -2 -24 4.5t-6 32.5q0 21 8 29t24 10l54 4q23 1 29.5 14t6.5 39v262q0 173 -20 232q-38 104 -156 104q-88 0 -147 -70t-58 -200l5 -328q0 -19 1.5 -27.5t8.5 -16t22 -9.5l45 -4q31 -3 31 -37q0 -26 -6.5 -33.5
t-22.5 -5.5q-79 6 -155 6z" />
    <glyph glyph-name="Hbar" unicode="&#x126;" horiz-adv-x="1679" 
d="M360 2q-153 0 -241 -8q-21 -2 -29 5t-8 36q0 23 8.5 31.5t30.5 11.5l84 10q41 6 53 16t12 41v840h-151q-31 0 -31 19v38q0 21 31 21h151v129q0 30 -14.5 42t-50.5 17l-84 11q-22 3 -30.5 11.5t-8.5 31.5q0 29 8 36t29 5q99 -9 241 -9q157 0 256 9q21 2 29 -5t8 -36
q0 -23 -8.5 -31.5t-30.5 -11.5l-106 -13q-32 -5 -44.5 -15.5t-12.5 -39.5v-131h778v131q0 29 -13 39.5t-45 15.5l-106 13q-22 3 -30.5 12.5t-8.5 32.5q0 28 8 34.5t29 4.5q99 -9 256 -9q143 0 242 9q15 1 21 0t10.5 -10t4.5 -29q0 -23 -8 -32.5t-30 -12.5l-84 -11
q-37 -5 -51.5 -16t-14.5 -41v-131h150q20 0 26 -3.5t6 -17.5v-38q0 -19 -32 -19h-150v-840q0 -30 12 -40.5t54 -16.5l84 -10q22 -3 30 -11.5t8 -31.5q0 -29 -7.5 -36t-28.5 -5q-88 8 -242 8q-168 0 -256 -8q-21 -2 -29 5t-8 36q0 23 8.5 31.5t30.5 11.5l106 12q32 5 45 15.5
t13 39.5v471q0 14 -6 20.5t-25 6.5h-719q-17 0 -22.5 -6.5t-5.5 -20.5v-471q0 -29 12.5 -39.5t44.5 -15.5l106 -12q22 -3 30.5 -11.5t8.5 -31.5q0 -29 -8 -36t-29 -5q-88 8 -256 8zM1198 731q19 0 25 6.5t6 20.5v227h-778v-227q0 -10 1 -14.5t7.5 -8.5t19.5 -4h719z" />
    <glyph glyph-name="hbar" unicode="&#x127;" horiz-adv-x="1013" 
d="M608 993h-282l-1 -119q-1 -118 -1 -204q39 84 110 126t164 42q84 0 142.5 -39.5t82.5 -122.5q19 -68 19 -252v-297q0 -51 47 -53l41 -4q17 -2 25 -9.5t8 -29.5q0 -26 -6 -32.5t-25 -4.5q-76 6 -139 6q-109 0 -185 -6q-18 -2 -24 4.5t-6 32.5q0 21 8 29t24 10l54 4
q23 1 29.5 14t6.5 39v262q0 173 -20 232q-38 104 -156 104q-88 0 -147 -70t-58 -200l5 -328q0 -19 1.5 -27.5t8.5 -16t22 -9.5l45 -4q31 -3 31 -37q0 -26 -6.5 -33.5t-22.5 -5.5q-79 6 -155 6q-62 0 -142 -6q-17 -2 -23.5 5.5t-6.5 37.5t30 33l35 4q41 5 41 53
q0 175 2 292.5t2 131.5v442h-116q-17 0 -22 5.5t-5 21.5v33q0 16 6 20t21 4h114q-2 34 -4 51.5t-9 40t-20.5 36.5t-35.5 24q-26 11 -34.5 15t-14 11.5t-5.5 18.5q0 16 25 26q95 38 162 70q44 21 53 21q8 0 17.5 -7t9.5 -20v-64q0 -102 -2 -223h282q15 0 21 -4t6 -20v-33
q0 -16 -5 -21.5t-22 -5.5z" />
    <glyph glyph-name="Itilde" unicode="&#x128;" horiz-adv-x="731" 
d="M494 1473q-57 0 -141 29.5t-136 29.5q-16 0 -27 -3t-17.5 -11t-9.5 -11.5t-6 -14.5l-3 -11q-6 -20 -13 -24.5t-28 -4.5q-16 0 -20.5 4.5t-4.5 22.5q0 60 37.5 113t114.5 53q59 0 141.5 -30t134.5 -30q13 0 23.5 3t16.5 6.5t10.5 10.5t6.5 10.5t4.5 11.5t2.5 9
q6 20 13 24.5t28 4.5q16 0 20 -4.5t4 -22.5q0 -60 -37 -112.5t-114 -52.5zM365 2q-158 0 -246 -8q-21 -2 -29 5t-8 34q0 23 8.5 32.5t30.5 12.5l90 10q32 3 47.5 13t15.5 36v1055q0 30 -13.5 42t-49.5 17l-90 11q-22 3 -30.5 11.5t-8.5 31.5q0 29 8 36t29 5q99 -9 264 -9
q130 0 229 9q21 2 29 -5t8 -36q0 -23 -8.5 -31.5t-30.5 -11.5l-98 -13q-31 -3 -43 -14t-12 -41v-1047q0 -29 12 -40.5t43 -16.5l98 -12q22 -3 30.5 -12.5t8.5 -32.5q0 -27 -8 -34t-29 -5q-88 8 -247 8z" />
    <glyph glyph-name="itilde" unicode="&#x129;" horiz-adv-x="540" 
d="M303 0q-115 0 -192 -6q-19 -2 -25 4.5t-6 32.5q0 36 33 39l57 6q27 3 35 13.5t8 37.5l4 307q2 134 -15.5 179.5t-80.5 70.5q-31 11 -31 33q0 13 10 20.5t50 28.5q16 8 86 47q11 7 26 16l22.5 13.5t16 9t14.5 6.5t11 2q11 0 17.5 -4t9 -14.5t3 -16.5t0.5 -22
q0 -38 -2 -155t-2 -136l2 -385q0 -28 8 -38t37 -13l50 -6q32 -3 32 -39q0 -26 -6 -32.5t-24 -4.5q-76 6 -148 6zM391 1014q-54 0 -134.5 27.5t-129.5 27.5q-12 0 -21.5 -2.5t-15 -6t-10 -9.5t-6 -9.5t-3.5 -10.5t-3 -9q-6 -20 -13 -24.5t-28 -4.5q-13 0 -17 4.5t-4 22.5
q0 19 4 40t14.5 44t26.5 41t41.5 29.5t57.5 11.5q56 0 135.5 -28t128.5 -28q12 0 21.5 2.5t15 6t10 9.5t6 10t3.5 11t3 9q4 13 9 18.5t10.5 6.5t21.5 1q10 0 13 -0.5t5.5 -6t2.5 -17.5q0 -19 -4 -40t-14.5 -44t-26.5 -41t-41.5 -29.5t-57.5 -11.5z" />
    <glyph glyph-name="Imacron" unicode="&#x12a;" horiz-adv-x="727" 
d="M365 2q-158 0 -246 -8q-21 -2 -29 5t-8 34q0 23 8.5 32.5t30.5 12.5l90 10q32 3 47.5 13t15.5 36v1055q0 30 -13.5 42t-49.5 17l-90 11q-22 3 -30.5 11.5t-8.5 31.5q0 29 8 36t29 5q99 -9 264 -9q130 0 229 9q21 2 29 -5t8 -36q0 -23 -8.5 -31.5t-30.5 -11.5l-98 -13
q-31 -3 -43 -14t-12 -41v-1047q0 -29 12 -40.5t43 -16.5l98 -12q22 -3 30.5 -12.5t8.5 -32.5q0 -27 -8 -34t-29 -5q-88 8 -247 8zM549 1511h-371q-33 0 -44 4.5t-11 26.5v49q0 23 11 28t44 5h371q23 0 32.5 -1.5t16 -8.5t6.5 -23v-49q0 -22 -11 -26.5t-44 -4.5z" />
    <glyph glyph-name="imacron" unicode="&#x12b;" horiz-adv-x="540" 
d="M303 0q-115 0 -192 -6q-19 -2 -25 4.5t-6 32.5q0 36 33 39l57 6q27 3 35 13.5t8 37.5l4 307q2 134 -15.5 179.5t-80.5 70.5q-31 11 -31 33q0 13 10 20.5t50 28.5q16 8 86 47q11 7 26 16l22.5 13.5t16 9t14.5 6.5t11 2q11 0 17.5 -4t9 -14.5t3 -16.5t0.5 -22
q0 -38 -2 -155t-2 -136l2 -385q0 -28 8 -38t37 -13l50 -6q32 -3 32 -39q0 -26 -6 -32.5t-24 -4.5q-76 6 -148 6zM406 1047h-316q-19 0 -25.5 0.5t-15.5 3t-11.5 9t-2.5 17.5v43q0 23 11 28t44 5h316q23 0 32.5 -1.5t16 -8.5t6.5 -23v-43q0 -11 -2.5 -17.5t-11.5 -9t-15.5 -3
t-25.5 -0.5z" />
    <glyph glyph-name="Ibreve" unicode="&#x12c;" horiz-adv-x="731" 
d="M205 1669q23 -108 162 -108q64 0 106.5 27t54.5 81q4 19 31 19q14 0 20.5 -6t6.5 -29q0 -93 -63.5 -144t-155.5 -51q-94 0 -157 50.5t-63 144.5q0 23 6.5 29t20.5 6q27 0 31 -19zM365 2q-158 0 -246 -8q-21 -2 -29 5t-8 34q0 23 8.5 32.5t30.5 12.5l90 10q32 3 47.5 13
t15.5 36v1055q0 30 -13.5 42t-49.5 17l-90 11q-22 3 -30.5 11.5t-8.5 31.5q0 29 8 36t29 5q99 -9 264 -9q130 0 229 9q21 2 29 -5t8 -36q0 -23 -8.5 -31.5t-30.5 -11.5l-98 -13q-31 -3 -43 -14t-12 -41v-1047q0 -29 12 -40.5t43 -16.5l98 -12q22 -3 30.5 -12.5t8.5 -32.5
q0 -27 -8 -34t-29 -5q-88 8 -247 8z" />
    <glyph glyph-name="ibreve" unicode="&#x12d;" horiz-adv-x="540" 
d="M98 1217q13 -60 54.5 -102t103.5 -42q59 0 102 42.5t56 101.5q4 18 30 18q14 0 20.5 -6t6.5 -29q0 -97 -64 -164t-151 -67q-89 0 -152 67t-63 164q0 23 6.5 29t20.5 6q26 0 30 -18zM303 0q-115 0 -192 -6q-19 -2 -25 4.5t-6 32.5q0 36 33 39l57 6q27 3 35 13.5t8 37.5
l4 307q2 134 -15.5 179.5t-80.5 70.5q-31 11 -31 33q0 13 10 20.5t50 28.5q16 8 86 47q11 7 26 16l22.5 13.5t16 9t14.5 6.5t11 2q11 0 17.5 -4t9 -14.5t3 -16.5t0.5 -22q0 -38 -2 -155t-2 -136l2 -385q0 -28 8 -38t37 -13l50 -6q32 -3 32 -39q0 -26 -6 -32.5t-24 -4.5
q-76 6 -148 6z" />
    <glyph glyph-name="Iogonek" unicode="&#x12e;" horiz-adv-x="731" 
d="M338 2q-131 0 -219 -8q-21 -2 -29 5t-8 34q0 23 8.5 32.5t30.5 12.5l90 10q32 3 47.5 13t15.5 36v1055q0 30 -13.5 42t-49.5 17l-90 11q-22 3 -30.5 11.5t-8.5 31.5q0 29 8 36t29 5q99 -9 264 -9q130 0 229 9q21 2 29 -5t8 -36q0 -23 -8.5 -31.5t-30.5 -11.5l-98 -13
q-31 -3 -43 -14t-12 -41v-1047q0 -29 12 -40.5t43 -16.5l98 -12q22 -3 30.5 -12.5t8.5 -32.5q0 -27 -8 -34t-29 -5q-88 8 -198 8q-40 -50 -68.5 -129.5t-28.5 -144.5q0 -44 23 -67t55 -23q33 0 70 32q25 25 39 25q11 0 18.5 -9t7.5 -20q0 -17 -32 -55q-68 -76 -154 -76
q-61 0 -108.5 42t-47.5 112q0 116 150 313z" />
    <glyph glyph-name="iogonek" unicode="&#x12f;" horiz-adv-x="540" 
d="M147 1223q0 42 32.5 75t82.5 33q49 0 80 -31.5t31 -76.5q0 -51 -32.5 -83t-82.5 -32q-52 0 -81.5 31.5t-29.5 83.5zM106 -301q0 58 36 127.5t100 159.5l10 14q-64 0 -141 -6q-19 -2 -25 4.5t-6 32.5q0 36 33 39l57 6q27 3 35 13.5t8 37.5l4 307q2 134 -15.5 179.5
t-80.5 70.5q-31 11 -31 33q0 13 10 20.5t50 28.5q16 8 86 47q11 7 26 16l22.5 13.5t16 9t14.5 6.5t11 2q11 0 17.5 -4t9 -14.5t3 -16.5t0.5 -22q0 -38 -2 -155t-2 -136l2 -385q0 -28 8 -38t37 -13l50 -6q32 -3 32 -39q0 -26 -6 -32.5t-24 -4.5q-76 6 -125 6q-17 -31 -21 -39
q-74 -129 -74 -229q0 -37 22.5 -60.5t53.5 -23.5q35 0 70 30q25 25 39 25q11 0 18.5 -9t7.5 -20q0 -17 -32 -55q-66 -74 -154 -74q-63 0 -106.5 38t-43.5 116z" />
    <glyph glyph-name="Idotaccent" unicode="&#x130;" horiz-adv-x="731" 
d="M252 1575q0 42 33.5 76.5t83.5 34.5q48 0 80 -33t32 -78q0 -51 -33 -84t-83 -33q-52 0 -82.5 32.5t-30.5 84.5zM365 2q-158 0 -246 -8q-21 -2 -29 5t-8 34q0 23 8.5 32.5t30.5 12.5l90 10q32 3 47.5 13t15.5 36v1055q0 30 -13.5 42t-49.5 17l-90 11q-22 3 -30.5 11.5
t-8.5 31.5q0 29 8 36t29 5q99 -9 264 -9q130 0 229 9q21 2 29 -5t8 -36q0 -23 -8.5 -31.5t-30.5 -11.5l-98 -13q-31 -3 -43 -14t-12 -41v-1047q0 -29 12 -40.5t43 -16.5l98 -12q22 -3 30.5 -12.5t8.5 -32.5q0 -27 -8 -34t-29 -5q-88 8 -247 8z" />
    <glyph glyph-name="dotlessi" unicode="&#x131;" horiz-adv-x="540" 
d="M303 0q-115 0 -192 -6q-19 -2 -25 4.5t-6 32.5q0 36 33 39l57 6q27 3 35 13.5t8 37.5l4 307q2 134 -15.5 179.5t-80.5 70.5q-31 11 -31 33q0 13 10 20.5t50 28.5q16 8 86 47q11 7 26 16l22.5 13.5t16 9t14.5 6.5t11 2q11 0 17.5 -4t9 -14.5t3 -16.5t0.5 -22
q0 -38 -2 -155t-2 -136l2 -385q0 -28 8 -38t37 -13l50 -6q32 -3 32 -39q0 -26 -6 -32.5t-24 -4.5q-76 6 -148 6z" />
    <glyph glyph-name="IJ" unicode="&#x132;" horiz-adv-x="1419" 
d="M365 2q-158 0 -246 -8q-21 -2 -29 5t-8 34q0 23 8.5 32.5t30.5 12.5l90 10q32 3 47.5 13t15.5 36v1055q0 30 -13.5 42t-49.5 17l-90 11q-22 3 -30.5 11.5t-8.5 31.5q0 29 8 36t29 5q99 -9 264 -9q130 0 229 9q21 2 29 -5t8 -36q0 -23 -8.5 -31.5t-30.5 -11.5l-98 -13
q-31 -3 -43 -14t-12 -41v-1047q0 -29 12 -40.5t43 -16.5l98 -12q22 -3 30.5 -12.5t8.5 -32.5q0 -27 -8 -34t-29 -5q-88 8 -247 8zM809 -481q-188 0 -188 121q0 43 29 69.5t71 26.5q32 0 55 -13t47 -47q27 -39 42.5 -51t47.5 -12t50 24t28 89q4 29 6 67.5t2.5 69.5t0.5 122
t1 158q0 25 1.5 118t1.5 188v743q0 30 -14.5 42t-51.5 17l-90 11q-22 3 -30.5 11.5t-8.5 31.5q0 29 8 36t29 5q99 -9 268 -9q112 0 211 9q21 2 29 -5t8 -36q0 -23 -8.5 -31.5t-30.5 -11.5l-80 -11q-31 -3 -44 -15t-13 -42v-305q0 -555 -18 -813t-56 -355
q-38 -99 -120 -150.5t-183 -51.5z" />
    <glyph glyph-name="ij" unicode="&#x133;" horiz-adv-x="1054" 
d="M147 1223q0 42 32.5 75t82.5 33q49 0 80 -31.5t31 -76.5q0 -51 -32.5 -83t-82.5 -32q-52 0 -81.5 31.5t-29.5 83.5zM303 0q-115 0 -192 -6q-19 -2 -25 4.5t-6 32.5q0 36 33 39l57 6q27 3 35 13.5t8 37.5l4 307q2 134 -15.5 179.5t-80.5 70.5q-31 11 -31 33q0 13 10 20.5
t50 28.5q16 8 86 47q11 7 26 16l22.5 13.5t16 9t14.5 6.5t11 2q11 0 17.5 -4t9 -14.5t3 -16.5t0.5 -22q0 -38 -2 -155t-2 -136l2 -385q0 -28 8 -38t37 -13l50 -6q32 -3 32 -39q0 -26 -6 -32.5t-24 -4.5q-76 6 -148 6zM590 -539q-86 0 -131 32t-45 81q0 31 22.5 56.5
t59.5 25.5q52 0 75 -55q1 -3 4.5 -10.5t4.5 -10.5t4 -9t5 -8.5t5.5 -7t7 -6.5t8 -4t10 -3t11.5 -1q121 0 121 262l-2 631q0 44 -0.5 67.5t-4.5 61.5t-11 59.5t-22 42.5t-36 29q-33 14 -43 23t-10 20q0 14 12.5 23.5t46.5 21.5q51 18 93 38.5t61 30t32 9.5q15 0 22 -10
t8 -21.5t1 -37.5q0 -17 -6 -422l-4 -426q-1 -137 -31.5 -242.5t-99 -172.5t-168.5 -67zM674 1225q0 44 32.5 77t84.5 33q50 0 81 -31.5t31 -78.5q0 -52 -33 -84.5t-84 -32.5q-53 0 -82.5 32t-29.5 85z" />
    <glyph glyph-name="Jcircumflex" unicode="&#x134;" horiz-adv-x="688" 
d="M354 1567l-180 -99q-51 -28 -72 -28q-18 0 -23.5 18t11.5 33q165 142 186 162q47 47 78 47t78 -47q21 -20 186 -162q17 -15 11.5 -33t-23.5 -18q-20 0 -71 28zM78 -481q-189 0 -189 121q0 43 29 69.5t72 26.5q32 0 55 -13t47 -47q27 -39 42.5 -51t47.5 -12t50 24t28 89
q4 29 6 67.5t2.5 69.5t0.5 122t1 158q0 25 1 118t1 188v743q0 30 -14.5 42t-50.5 17l-90 11q-22 3 -30.5 11.5t-8.5 31.5q0 29 8 36t29 5q99 -9 268 -9q112 0 211 9q21 2 29 -5t8 -36q0 -23 -8.5 -31.5t-30.5 -11.5l-80 -11q-31 -3 -44 -15t-13 -42v-305q0 -555 -18 -813
t-56 -355q-38 -99 -120 -150.5t-183 -51.5z" />
    <glyph glyph-name="jcircumflex" unicode="&#x135;" horiz-adv-x="514" 
d="M49 -539q-86 0 -131 32t-45 81q0 31 22.5 56.5t59.5 25.5q53 0 76 -55q2 -4 5 -12t4.5 -11.5t5 -10t6 -9t6.5 -7t8.5 -6t10.5 -3t13 -1.5q121 0 121 262l-2 631q0 44 -0.5 67.5t-4.5 61.5t-11 59.5t-22 42.5t-36 29q-33 14 -43 23t-10 20q0 14 12.5 23.5t46.5 21.5
q51 18 93.5 38.5t61.5 30t32 9.5q11 0 17.5 -4t9 -16t3 -20t0.5 -29q0 -17 -6 -422l-4 -426q-1 -137 -31.5 -242.5t-99 -172.5t-168.5 -67zM258 1169l-168 -196q-19 -23 -41 -23q-15 0 -23 13t1 28l168 275q16 26 22 35t14.5 20.5t14 14.5t12.5 3q13 0 25 -14.5t39 -58.5
l167 -275q9 -15 1 -28t-23 -13q-22 0 -41 23z" />
    <glyph glyph-name="Kcommaaccent" unicode="&#x136;" horiz-adv-x="1331" 
d="M846 -231q0 -81 -61.5 -152.5t-98.5 -71.5q-10 0 -17 7t-7 16q0 14 14 26q65 58 65 113q0 25 -12.5 40t-27 21t-27 20.5t-12.5 37.5q0 34 19.5 58t53.5 24q51 0 81 -40.5t30 -98.5zM362 2q-163 0 -251 -8q-15 -1 -21.5 0t-11 10t-4.5 29q0 23 8.5 32.5t30.5 12.5l92 12
q37 5 51 16t14 41v1047q0 30 -14 41t-51 16l-88 11q-22 3 -30.5 11.5t-8.5 31.5q0 29 8 36t29 5q99 -9 250 -9q136 0 235 9q15 1 21.5 0t11 -10t4.5 -29q0 -23 -8.5 -32.5t-30.5 -12.5l-90 -11q-32 -5 -44.5 -15.5t-12.5 -39.5v-481q83 0 143 63l317 348q31 33 41.5 49
t10.5 37q0 35 -39 41l-62 9q-22 3 -30.5 12.5t-8.5 32.5q0 28 8 34.5t29 4.5q99 -9 225 -9q78 0 177 9q15 1 21 0t10.5 -10t4.5 -29q0 -24 -7 -32t-31 -13l-48 -7q-40 -6 -85 -43.5t-134 -130.5l-329 -350l491 -561q44 -50 68 -66.5t53 -19.5l45 -6q23 -3 31 -12.5t8 -32.5
q0 -28 -8 -34.5t-29 -4.5q-180 8 -219 8q-144 0 -232 -8q-15 -1 -21 0t-10.5 10t-4.5 29q0 24 8 34t30 11l68 4q29 3 29 31q0 12 -35 52q-7 7 -10 11l-340 402q-28 33 -54 42t-81 9v-479q0 -31 12.5 -46t44.5 -18l94 -8q21 -3 28 -12t7 -33q0 -29 -6 -35t-27 -4
q-88 8 -242 8z" />
    <glyph glyph-name="kcommaaccent" unicode="&#x137;" horiz-adv-x="931" 
d="M598 -240q0 -81 -61.5 -152t-98.5 -71q-10 0 -17 7t-7 16q0 14 14 26q66 59 66 113q0 25 -12.5 40t-27.5 21t-27.5 20.5t-12.5 37.5q0 34 19.5 58t53.5 24q51 0 81 -41t30 -99zM246 0q-78 0 -158 -6q-17 -2 -24 5.5t-7 37.5t31 33l51 4q41 5 41 69q4 162 4 377v441
q0 149 -12.5 197t-58.5 69q-41 19 -49.5 25.5t-8.5 19.5q0 10 9 18t40 19q48 18 92.5 39.5t67 32t33.5 10.5q29 0 29 -41v-54q0 -23 -2 -181t-2 -333v-315q24 1 48 12.5t38.5 23t40.5 34.5q31 27 90 86q57 57 57 82q0 23 -33 26l-39 4q-17 2 -24.5 9.5t-7.5 29.5
q0 26 6 32.5t24 4.5q77 -6 207 -6q43 0 119 6q19 2 25 -4.5t6 -32.5q0 -22 -8 -29.5t-25 -9.5l-43 -6q-30 -4 -52.5 -19t-82.5 -69l-197 -176l313 -315q70 -73 103 -76l47 -4q16 -2 23.5 -9.5t7.5 -29.5q0 -27 -5.5 -33t-23.5 -4q-76 6 -170 6q-90 0 -166 -6q-19 -2 -27 4.5
t-8 32.5q0 22 7.5 29.5t23.5 9.5l35 4q26 0 26 20q0 16 -64 79l-22 22l-176 174q-32 32 -73 34v-264q0 -22 1.5 -33t8.5 -20.5t22 -11.5l41 -4q16 -2 23.5 -9.5t7.5 -27.5q0 -26 -6.5 -33.5t-22.5 -5.5q-79 6 -151 6z" />
    <glyph glyph-name="Lacute" unicode="&#x139;" horiz-adv-x="1232" 
d="M727 1679q46 -13 60 -21t14 -26q0 -10 -10 -16t-37 -14q-191 -67 -363 -144q-41 -18 -49 -18q-24 0 -30 18t18 35q45 31 116.5 83.5t108.5 78.5q64 41 90 41q15 0 82 -17zM377 2q-162 0 -250 -8q-15 -1 -21.5 0t-11 10t-4.5 29q0 23 8.5 32.5t30.5 12.5l84 10
q16 2 27 7.5t20.5 23.5t9.5 47v1001q0 49 -13 65t-50 21l-78 9q-22 3 -30.5 11.5t-8.5 31.5q0 29 8 36t29 5q99 -9 252 -9q132 0 231 9q21 2 29 -6t8 -37q0 -23 -8.5 -31.5t-30.5 -11.5l-90 -11q-34 -3 -50.5 -19.5t-16.5 -62.5v-999q0 -39 7.5 -55t42.5 -25.5t113 -9.5h168
q62 0 106 4t76.5 15t53 23.5t37 38t26.5 49.5t23 66l33 107q8 23 18.5 30t32.5 3q27 -6 32.5 -15t2.5 -30q-21 -108 -45 -326q-6 -49 -54 -49q-110 0 -413.5 4t-333.5 4z" />
    <glyph glyph-name="lacute" unicode="&#x13a;" horiz-adv-x="524" 
d="M506 1686q45 -13 59.5 -21.5t14.5 -26.5q0 -10 -10.5 -16t-37.5 -14q-186 -65 -362 -144q-41 -18 -49 -18q-24 0 -30 18t18 35q45 31 116.5 83.5t108.5 78.5q64 41 90 41q19 0 82 -16zM264 0q-92 0 -168 -6q-19 -2 -27 4.5t-8 32.5q0 22 8 29.5t25 9.5l58 6q24 1 32.5 14
t8.5 43q0 9 -1.5 273.5t-1.5 336.5q0 244 -2 316q-2 66 -11 101.5t-20.5 47.5t-35.5 21q-25 11 -34 15.5t-14 11t-5 18.5q0 16 24 26q44 18 154 68q8 3 19.5 8.5t17.5 8t14 4.5t14 2q31 0 31 -37q0 -45 -2 -162t-2 -133q0 -51 -1 -146.5t-1 -167.5q0 -36 -1 -210.5
t-1 -399.5q0 -30 10 -43t39 -16l53 -6q17 -2 25 -9.5t8 -29.5q0 -26 -6 -32.5t-25 -4.5q-76 6 -174 6z" />
    <glyph glyph-name="Lcommaaccent" unicode="&#x13b;" horiz-adv-x="1232" 
d="M776 -231q0 -81 -61.5 -152.5t-98.5 -71.5q-10 0 -17 7t-7 16q0 14 14 26q66 59 66 113q0 25 -12.5 40t-27.5 21t-27.5 20.5t-12.5 37.5q0 34 20 58t54 24q51 0 80.5 -40.5t29.5 -98.5zM377 2q-162 0 -250 -8q-15 -1 -21.5 0t-11 10t-4.5 29q0 23 8.5 32.5t30.5 12.5
l84 10q16 2 27 7.5t20.5 23.5t9.5 47v1001q0 49 -13 65t-50 21l-78 9q-22 3 -30.5 11.5t-8.5 31.5q0 29 8 36t29 5q99 -9 252 -9q132 0 231 9q21 2 29 -6t8 -37q0 -23 -8.5 -31.5t-30.5 -11.5l-90 -11q-34 -3 -50.5 -19.5t-16.5 -62.5v-999q0 -39 7.5 -55t42.5 -25.5
t113 -9.5h168q62 0 106 4t76.5 15t53 23.5t37 38t26.5 49.5t23 66l33 107q8 23 18.5 30t32.5 3q27 -6 32.5 -15t2.5 -30q-21 -108 -45 -326q-6 -49 -54 -49q-110 0 -413.5 4t-333.5 4z" />
    <glyph glyph-name="lcommaaccent" unicode="&#x13c;" horiz-adv-x="524" 
d="M358 -236q0 -81 -61 -152t-98 -71q-10 0 -17.5 7t-7.5 16q0 14 14 26q66 59 66 113q0 25 -12.5 40t-27.5 21t-27.5 20.5t-12.5 37.5q0 34 20 58t54 24q50 0 80 -41t30 -99zM264 0q-92 0 -168 -6q-19 -2 -27 4.5t-8 32.5q0 22 8 29.5t25 9.5l58 6q24 1 32.5 14t8.5 43
q0 9 -1.5 273.5t-1.5 336.5q0 244 -2 316q-2 66 -11 101.5t-20.5 47.5t-35.5 21q-25 11 -34 15.5t-14 11t-5 18.5q0 16 24 26q44 18 154 68q8 3 19.5 8.5t17.5 8t14 4.5t14 2q31 0 31 -37q0 -45 -2 -162t-2 -133q0 -51 -1 -146.5t-1 -167.5q0 -36 -1 -210.5t-1 -399.5
q0 -30 10 -43t39 -16l53 -6q17 -2 25 -9.5t8 -29.5q0 -26 -6 -32.5t-25 -4.5q-76 6 -174 6z" />
    <glyph glyph-name="Lcaron" unicode="&#x13d;" horiz-adv-x="1232" 
d="M961 1219q0 -58 -25 -110.5t-59 -84t-65.5 -50t-49.5 -18.5q-10 0 -17.5 7t-7.5 16q0 17 15 27q53 40 76.5 73t23.5 76q0 32 -13.5 52t-29.5 27.5t-29.5 23t-13.5 38.5q0 34 22 58t60 24q52 0 82.5 -44t30.5 -115zM377 2q-162 0 -250 -8q-15 -1 -21.5 0t-11 10t-4.5 29
q0 23 8.5 32.5t30.5 12.5l84 10q16 2 27 7.5t20.5 23.5t9.5 47v1001q0 49 -13 65t-50 21l-78 9q-22 3 -30.5 11.5t-8.5 31.5q0 29 8 36t29 5q99 -9 252 -9q132 0 231 9q21 2 29 -6t8 -37q0 -23 -8.5 -31.5t-30.5 -11.5l-90 -11q-34 -3 -50.5 -19.5t-16.5 -62.5v-999
q0 -39 7.5 -55t42.5 -25.5t113 -9.5h168q62 0 106 4t76.5 15t53 23.5t37 38t26.5 49.5t23 66l33 107q8 23 18.5 30t32.5 3q27 -6 32.5 -15t2.5 -30q-21 -108 -45 -326q-6 -49 -54 -49q-110 0 -413.5 4t-333.5 4z" />
    <glyph glyph-name="lcaron" unicode="&#x13e;" horiz-adv-x="524" 
d="M629 1249q0 -85 -57 -154t-97 -69q-10 0 -17 7t-7 16q0 14 14 26q65 58 65 111q0 25 -12.5 40.5t-27 21.5t-27 21t-12.5 38q0 34 19.5 58t53.5 24q50 0 77.5 -40.5t27.5 -99.5zM264 0q-92 0 -168 -6q-19 -2 -27 4.5t-8 32.5q0 22 8 29.5t25 9.5l58 6q24 1 32.5 14t8.5 43
q0 9 -1.5 273.5t-1.5 336.5q0 244 -2 316q-2 66 -11 101.5t-20.5 47.5t-35.5 21q-25 11 -34 15.5t-14 11t-5 18.5q0 16 24 26q44 18 154 68q8 3 19.5 8.5t17.5 8t14 4.5t14 2q31 0 31 -37q0 -45 -2 -162t-2 -133q0 -51 -1 -146.5t-1 -167.5q0 -36 -1 -210.5t-1 -399.5
q0 -30 10 -43t39 -16l53 -6q17 -2 25 -9.5t8 -29.5q0 -26 -6 -32.5t-25 -4.5q-76 6 -174 6z" />
    <glyph glyph-name="Ldot" unicode="&#x13f;" horiz-adv-x="1232" 
d="M881 719q0 42 33 76t83 34q49 0 81 -32.5t32 -77.5q0 -51 -33.5 -84t-83.5 -33q-52 0 -82 32.5t-30 84.5zM377 2q-162 0 -250 -8q-15 -1 -21.5 0t-11 10t-4.5 29q0 23 8.5 32.5t30.5 12.5l84 10q16 2 27 7.5t20.5 23.5t9.5 47v1001q0 49 -13 65t-50 21l-78 9
q-22 3 -30.5 11.5t-8.5 31.5q0 29 8 36t29 5q99 -9 252 -9q132 0 231 9q21 2 29 -6t8 -37q0 -23 -8.5 -31.5t-30.5 -11.5l-90 -11q-34 -3 -50.5 -19.5t-16.5 -62.5v-999q0 -39 7.5 -55t42.5 -25.5t113 -9.5h168q62 0 106 4t76.5 15t53 23.5t37 38t26.5 49.5t23 66l33 107
q8 23 18.5 30t32.5 3q27 -6 32.5 -15t2.5 -30q-21 -108 -45 -326q-6 -49 -54 -49q-110 0 -413.5 4t-333.5 4z" />
    <glyph glyph-name="ldot" unicode="&#x140;" horiz-adv-x="571" 
d="M446 643q0 40 31 71t80 31q46 0 75.5 -30t29.5 -74q0 -49 -31.5 -79t-79.5 -30q-50 0 -77.5 30t-27.5 81zM264 0q-92 0 -168 -6q-19 -2 -27 4.5t-8 32.5q0 22 8 29.5t25 9.5l58 6q24 1 32.5 14t8.5 43q0 9 -1.5 273.5t-1.5 336.5q0 244 -2 316q-2 66 -11 101.5
t-20.5 47.5t-35.5 21q-25 11 -34 15.5t-14 11t-5 18.5q0 16 24 26q44 18 154 68q8 3 19.5 8.5t17.5 8t14 4.5t14 2q31 0 31 -37q0 -45 -2 -162t-2 -133q0 -51 -1 -146.5t-1 -167.5q0 -36 -1 -210.5t-1 -399.5q0 -30 10 -43t39 -16l53 -6q17 -2 25 -9.5t8 -29.5
q0 -26 -6 -32.5t-25 -4.5q-76 6 -174 6z" />
    <glyph glyph-name="Lslash" unicode="&#x141;" horiz-adv-x="1220" 
d="M377 2q-162 0 -250 -8q-15 -1 -21.5 0t-11 10t-4.5 29q0 23 8.5 32.5t30.5 12.5l84 10q16 2 27 7.5t20.5 23.5t9.5 47v338l-94 -60q-37 -26 -50 -23.5t-13 36.5l-2 28q0 23 6 31.5t39 30.5l114 71v547q0 49 -13 66t-50 22l-78 9q-22 3 -30.5 11.5t-8.5 31.5q0 29 8 36
t29 5q99 -9 252 -9q132 0 231 9q21 2 29 -6t8 -37q0 -23 -8.5 -31.5t-30.5 -11.5l-90 -11q-34 -3 -50.5 -19.5t-16.5 -62.5v-2v-442l417 262q22 15 31.5 11t9.5 -27v-39q0 -16 -5 -26.5t-25 -24.5l-428 -273v-440q0 -39 7.5 -54.5t42 -24.5t113.5 -9h168q62 0 106 4t76.5 15
t53 23.5t37 38t26.5 49.5t23 66l33 107q8 23 18.5 30t32.5 3q27 -6 32.5 -15t2.5 -30q-21 -108 -45 -326q-6 -49 -54 -49q-110 0 -413.5 4t-333.5 4z" />
    <glyph glyph-name="lslash" unicode="&#x142;" horiz-adv-x="528" 
d="M268 0q-92 0 -168 -6q-19 -2 -26.5 4.5t-7.5 32.5q0 22 7.5 29.5t24.5 9.5l58 6q45 3 45 63q0 8 -0.5 85t-1 182t-0.5 182l-86 -56q-47 -28 -47 7v43q0 18 26 34l107 68v49q0 37 1 163.5t1 162.5q0 49 -5.5 81.5t-18 49.5t-23 24t-29.5 15q-25 11 -34 15.5t-14 11
t-5 18.5q0 16 24 26q44 18 154 68q8 3 19.5 8.5t17.5 8t14 4.5t14 2q31 0 31 -37q0 -45 -2 -162t-2 -133q0 -44 -1 -142t-1 -155l88 55q12 8 20.5 12t14.5 4.5t9 -4t3 -14.5v-45q0 -23 -24 -37l-111 -69q0 -24 -1 -174t-1 -349q0 -31 10.5 -46.5t38.5 -18.5l53 -6
q17 -2 25 -9.5t8 -29.5q0 -26 -6 -32.5t-25 -4.5q-76 6 -174 6z" />
    <glyph glyph-name="Nacute" unicode="&#x143;" horiz-adv-x="1525" 
d="M1014 1679q45 -13 59 -21t14 -26q0 -10 -9 -15t-38 -15q-173 -60 -362 -144q-41 -18 -49 -18q-24 0 -29.5 18t18.5 35q45 30 116 83t108 79q64 41 90 41q15 0 82 -17zM313 2q-104 0 -192 -8q-22 -2 -32.5 5t-10.5 34q0 24 8.5 33t30.5 12l73 10q60 7 64 135q2 45 2 404
v483q0 119 -100 139l-70 13q-23 5 -31 13.5t-8 31.5q0 27 8 34t29 5q143 -9 238 -9q59 0 77 -22q18 -18 164 -211q35 -48 233.5 -294.5t237.5 -291.5q23 -27 43.5 -52t35 -42.5t27.5 -33.5t21 -26t14.5 -18.5t10.5 -13t7.5 -8t5 -4.5t3.5 -1q7 0 8.5 11.5t1.5 44.5v543
q0 194 -17.5 259t-78.5 72l-84 13q-22 3 -30.5 12t-8.5 33q0 27 8 34t29 5q99 -9 244 -9q71 0 170 9q22 2 32.5 -5t10.5 -34q0 -24 -8.5 -33t-30.5 -12l-74 -11q-59 -7 -63 -135q-2 -45 -2 -403v-658q0 -49 -7 -71.5t-26 -22.5q-18 0 -30 10.5t-42 51.5q-28 39 -121 155
q-9 11 -295 359.5t-342 420.5q-22 28 -49 63q-32 40 -37 40q-8 0 -8 -47v-682q0 -100 9.5 -150.5t30 -69.5t61.5 -24l79 -10q23 -5 31 -13t8 -32q0 -27 -7.5 -34t-28.5 -5q-88 8 -222 8z" />
    <glyph glyph-name="nacute" unicode="&#x144;" horiz-adv-x="1034" 
d="M266 0q-62 0 -141 -6q-17 -2 -24 5.5t-7 37.5t31 33l35 4q23 3 32 14t9 39l4 336q1 97 -4 139.5t-19 63.5t-49 36q-18 8 -23.5 13.5t-5.5 17.5q0 14 46 39l59 35q12 7 28.5 17t25 15.5t18.5 10.5t17 7.5t13 2.5q16 0 21.5 -11.5t5.5 -37.5l2 -145q46 87 133 135
q66 37 143 37q178 0 224 -160q20 -71 20 -275v-276q0 -27 9.5 -38.5t37.5 -14.5l41 -4q17 -2 25 -9.5t8 -29.5q0 -26 -6 -32.5t-25 -4.5q-76 6 -139 6q-103 0 -180 -6q-19 -2 -25 4.5t-6 32.5q0 22 8 29.5t25 9.5l49 4q23 1 30 14.5t7 38.5v242q0 189 -23 252
q-38 104 -153 104q-88 0 -147 -72t-58 -209l4 -309q0 -21 1.5 -32t9 -19t22.5 -10l41 -4q16 -2 23 -9t7 -28q0 -26 -6 -33.5t-22 -5.5q-80 6 -152 6zM725 1333q28 0 43.5 -6t15.5 -22t-22 -41q-38 -42 -71 -82t-81 -101.5t-69 -87.5q-30 -41 -54 -41q-15 0 -21.5 13t3.5 39
q26 54 111 251q21 46 48.5 62t96.5 16z" />
    <glyph glyph-name="Ncommaaccent" unicode="&#x145;" horiz-adv-x="1525" 
d="M930 -219q0 -81 -61.5 -152t-98.5 -71q-10 0 -17.5 6.5t-7.5 15.5q0 14 15 27q65 58 65 112q0 25 -12.5 40t-27.5 21t-27.5 20.5t-12.5 37.5q0 34 20 58t54 24q51 0 81 -40.5t30 -98.5zM313 2q-104 0 -192 -8q-22 -2 -32.5 5t-10.5 34q0 24 8.5 33t30.5 12l73 10
q60 7 64 135q2 45 2 404v483q0 119 -100 139l-70 13q-23 5 -31 13.5t-8 31.5q0 27 8 34t29 5q143 -9 238 -9q59 0 77 -22q18 -18 164 -211q35 -48 233.5 -294.5t237.5 -291.5q23 -27 43.5 -52t35 -42.5t27.5 -33.5t21 -26t14.5 -18.5t10.5 -13t7.5 -8t5 -4.5t3.5 -1
q7 0 8.5 11.5t1.5 44.5v543q0 194 -17.5 259t-78.5 72l-84 13q-22 3 -30.5 12t-8.5 33q0 27 8 34t29 5q99 -9 244 -9q71 0 170 9q22 2 32.5 -5t10.5 -34q0 -24 -8.5 -33t-30.5 -12l-74 -11q-59 -7 -63 -135q-2 -45 -2 -403v-658q0 -49 -7 -71.5t-26 -22.5q-18 0 -30 10.5
t-42 51.5q-28 39 -121 155q-9 11 -295 359.5t-342 420.5q-22 28 -49 63q-32 40 -37 40q-8 0 -8 -47v-682q0 -100 9.5 -150.5t30 -69.5t61.5 -24l79 -10q23 -5 31 -13t8 -32q0 -27 -7.5 -34t-28.5 -5q-88 8 -222 8z" />
    <glyph glyph-name="ncommaaccent" unicode="&#x146;" horiz-adv-x="1034" 
d="M631 -238q0 -81 -61.5 -152t-98.5 -71q-10 0 -17.5 7t-7.5 16q0 14 15 26q65 58 65 113q0 25 -12.5 40t-27.5 21t-27.5 20.5t-12.5 37.5q0 34 20 58t54 24q51 0 81 -41t30 -99zM266 0q-62 0 -141 -6q-17 -2 -24 5.5t-7 37.5t31 33l35 4q23 3 32 14t9 39l4 336
q1 97 -4 139.5t-19 63.5t-49 36q-18 8 -23.5 13.5t-5.5 17.5q0 14 46 39l59 35q12 7 28.5 17t25 15.5t18.5 10.5t17 7.5t13 2.5q16 0 21.5 -11.5t5.5 -37.5l2 -145q46 87 133 135q66 37 143 37q178 0 224 -160q20 -71 20 -275v-276q0 -27 9.5 -38.5t37.5 -14.5l41 -4
q17 -2 25 -9.5t8 -29.5q0 -26 -6 -32.5t-25 -4.5q-76 6 -139 6q-103 0 -180 -6q-19 -2 -25 4.5t-6 32.5q0 22 8 29.5t25 9.5l49 4q23 1 30 14.5t7 38.5v242q0 189 -23 252q-38 104 -153 104q-88 0 -147 -72t-58 -209l4 -309q0 -21 1.5 -32t9 -19t22.5 -10l41 -4q16 -2 23 -9
t7 -28q0 -26 -6 -33.5t-22 -5.5q-80 6 -152 6z" />
    <glyph glyph-name="Ncaron" unicode="&#x147;" horiz-adv-x="1525" 
d="M809 1427q-23 0 -70 41l-190 168q-12 9 -12 23q0 11 9 20t21 9t70 -35q13 -8 176 -97q83 46 168 97q58 35 70 35t21 -9t9 -20q0 -14 -12 -23l-190 -168q-47 -41 -70 -41zM313 2q-104 0 -192 -8q-22 -2 -32.5 5t-10.5 34q0 24 8.5 33t30.5 12l73 10q60 7 64 135
q2 45 2 404v483q0 119 -100 139l-70 13q-23 5 -31 13.5t-8 31.5q0 27 8 34t29 5q143 -9 238 -9q59 0 77 -22q18 -18 164 -211q35 -48 233.5 -294.5t237.5 -291.5q23 -27 43.5 -52t35 -42.5t27.5 -33.5t21 -26t14.5 -18.5t10.5 -13t7.5 -8t5 -4.5t3.5 -1q7 0 8.5 11.5
t1.5 44.5v543q0 194 -17.5 259t-78.5 72l-84 13q-22 3 -30.5 12t-8.5 33q0 27 8 34t29 5q99 -9 244 -9q71 0 170 9q22 2 32.5 -5t10.5 -34q0 -24 -8.5 -33t-30.5 -12l-74 -11q-59 -7 -63 -135q-2 -45 -2 -403v-658q0 -49 -7 -71.5t-26 -22.5q-18 0 -30 10.5t-42 51.5
q-28 39 -121 155q-9 11 -295 359.5t-342 420.5q-22 28 -49 63q-32 40 -37 40q-8 0 -8 -47v-682q0 -100 9.5 -150.5t30 -69.5t61.5 -24l79 -10q23 -5 31 -13t8 -32q0 -27 -7.5 -34t-28.5 -5q-88 8 -222 8z" />
    <glyph glyph-name="ncaron" unicode="&#x148;" horiz-adv-x="1034" 
d="M266 0q-62 0 -141 -6q-17 -2 -24 5.5t-7 37.5t31 33l35 4q23 3 32 14t9 39l4 336q1 97 -4 139.5t-19 63.5t-49 36q-18 8 -23.5 13.5t-5.5 17.5q0 14 46 39l59 35q12 7 28.5 17t25 15.5t18.5 10.5t17 7.5t13 2.5q16 0 21.5 -11.5t5.5 -37.5l2 -145q46 87 133 135
q66 37 143 37q178 0 224 -160q20 -71 20 -275v-276q0 -27 9.5 -38.5t37.5 -14.5l41 -4q17 -2 25 -9.5t8 -29.5q0 -26 -6 -32.5t-25 -4.5q-76 6 -139 6q-103 0 -180 -6q-19 -2 -25 4.5t-6 32.5q0 22 8 29.5t25 9.5l49 4q23 1 30 14.5t7 38.5v242q0 189 -23 252
q-38 104 -153 104q-88 0 -147 -72t-58 -209l4 -309q0 -21 1.5 -32t9 -19t22.5 -10l41 -4q16 -2 23 -9t7 -28q0 -26 -6 -33.5t-22 -5.5q-80 6 -152 6zM547 950q-13 0 -24.5 14t-39.5 60l-168 274q-9 14 1 27.5t26 13.5q15 0 37 -22l168 -191l145 172q35 41 58 41
q17 0 23.5 -13.5t-1.5 -27.5l-162 -274q-26 -45 -38 -59.5t-25 -14.5z" />
    <glyph glyph-name="Eng" unicode="&#x14a;" horiz-adv-x="1525" 
d="M1208 16q-41 57 -125 162q-9 11 -295 359.5t-342 420.5q-22 28 -49 63q-32 40 -37 40q-8 0 -8 -47v-682q0 -100 9.5 -150.5t30 -69.5t61.5 -24l79 -10q23 -5 31 -13t8 -32q0 -27 -7.5 -34t-28.5 -5q-88 8 -222 8q-104 0 -192 -8q-22 -2 -32.5 5t-10.5 34q0 24 8.5 33
t30.5 12l73 10q60 7 64 135q2 45 2 404v483q0 119 -100 139l-70 13q-23 5 -31 13.5t-8 31.5q0 27 8 34t29 5q143 -9 238 -9q59 0 77 -22q18 -18 164 -211q35 -48 233.5 -294.5t237.5 -291.5q23 -27 43.5 -52t35 -42.5t27.5 -33.5t21 -26t14.5 -18.5t10.5 -13t7.5 -8t5 -4.5
t3.5 -1q7 0 8.5 11.5t1.5 44.5v543q0 194 -17.5 259t-78.5 72l-84 13q-22 3 -30.5 12t-8.5 33q0 27 8 34t29 5q99 -9 244 -9q71 0 170 9q22 2 32.5 -5t10.5 -34q0 -24 -8.5 -33t-30.5 -12l-74 -11q-59 -7 -63 -135q-2 -45 -2 -403v-889q0 -74 -13 -127.5t-33.5 -83.5
t-52 -48t-60.5 -23t-67 -5q-63 0 -105 30.5t-42 84.5q0 35 26.5 58.5t53.5 23.5q56 0 78 -70q5 -17 18.5 -31t30.5 -14q12 0 21.5 5t20.5 21t17 53t6 93v225z" />
    <glyph glyph-name="eng" unicode="&#x14b;" horiz-adv-x="1034" 
d="M860 403l-2 -342q0 -72 -2.5 -126t-9 -111.5t-18 -98t-30 -78.5t-44 -60.5t-62 -36t-82.5 -13.5q-59 0 -108 33t-49 78q0 30 19.5 51.5t53.5 21.5q20 0 32.5 -7.5t19 -17.5t14.5 -30q12 -27 24 -39t35 -12q47 0 57.5 52.5t10.5 211.5v490q0 189 -23 252q-38 104 -153 104
q-88 0 -147 -72t-58 -209l4 -309q0 -21 1.5 -32t9 -19t22.5 -10l41 -4q16 -2 23 -9t7 -28q0 -26 -6 -33.5t-22 -5.5q-80 6 -152 6q-62 0 -141 -6q-17 -2 -24 5.5t-7 37.5t31 33l35 4q23 3 32 14t9 39l4 336q1 97 -4 139.5t-19 63.5t-49 36q-18 8 -23.5 13.5t-5.5 17.5
q0 14 46 39l59 35q12 7 28.5 17t25 15.5t18.5 10.5t17 7.5t13 2.5q16 0 21.5 -11.5t5.5 -37.5l2 -145q46 87 133 135q66 37 143 37q178 0 224 -160q20 -71 20 -275z" />
    <glyph glyph-name="Omacron" unicode="&#x14c;" horiz-adv-x="1558" 
d="M778 -39q-159 0 -290.5 59t-217 159t-132 231t-46.5 278q0 129 46 251t130.5 220t217 157.5t292.5 59.5t293 -59.5t217.5 -157.5t131 -220t46.5 -251q0 -147 -47 -278t-133 -231t-217.5 -159t-290.5 -59zM778 45q90 0 168.5 36t135.5 98.5t98 144.5t61.5 175t20.5 189
q0 90 -20.5 177.5t-62 164.5t-99 135.5t-135.5 92.5t-167 34t-167 -34t-134.5 -92.5t-97.5 -135.5t-61.5 -164.5t-20.5 -177.5q0 -121 32.5 -235t91.5 -205.5t152 -147t205 -55.5zM963 1511h-371q-33 0 -44 4.5t-11 26.5v49q0 23 11 28t44 5h371q23 0 32.5 -1.5t16 -8.5
t6.5 -23v-49q0 -22 -11 -26.5t-44 -4.5z" />
    <glyph glyph-name="omacron" unicode="&#x14d;" horiz-adv-x="952" 
d="M477 -31q-181 0 -293 126.5t-112 322.5q0 180 112 300t293 120t292.5 -119.5t111.5 -300.5q0 -195 -112 -322t-292 -127zM477 53q97 0 168.5 94t71.5 271q0 162 -71.5 250t-168.5 88t-169 -88t-72 -250q0 -177 72 -271t169 -94zM629 1047h-316q-19 0 -25.5 0.5t-15.5 3
t-11.5 9t-2.5 17.5v43q0 23 11 28t44 5h316q23 0 32.5 -1.5t16 -8.5t6.5 -23v-43q0 -11 -2.5 -17.5t-11.5 -9t-15.5 -3t-25.5 -0.5z" />
    <glyph glyph-name="Obreve" unicode="&#x14e;" horiz-adv-x="1558" 
d="M616 1669q23 -108 162 -108q64 0 107 27t55 81q4 19 31 19q14 0 20 -6t6 -29q0 -93 -63.5 -144t-155.5 -51q-93 0 -156 50.5t-63 144.5q0 23 6.5 29t20.5 6q26 0 30 -19zM778 -39q-159 0 -290.5 59t-217 159t-132 231t-46.5 278q0 129 46 251t130.5 220t217 157.5
t292.5 59.5t293 -59.5t217.5 -157.5t131 -220t46.5 -251q0 -147 -47 -278t-133 -231t-217.5 -159t-290.5 -59zM778 45q90 0 168.5 36t135.5 98.5t98 144.5t61.5 175t20.5 189q0 90 -20.5 177.5t-62 164.5t-99 135.5t-135.5 92.5t-167 34t-167 -34t-134.5 -92.5t-97.5 -135.5
t-61.5 -164.5t-20.5 -177.5q0 -121 32.5 -235t91.5 -205.5t152 -147t205 -55.5z" />
    <glyph glyph-name="obreve" unicode="&#x14f;" horiz-adv-x="952" 
d="M317 1217q13 -61 54.5 -103.5t103.5 -42.5q59 0 102 43.5t56 102.5q4 18 31 18q14 0 20 -6t6 -29q0 -97 -64 -164t-151 -67q-89 0 -152 67t-63 164q0 23 6.5 29t20.5 6q26 0 30 -18zM477 -31q-181 0 -293 126.5t-112 322.5q0 180 112 300t293 120t292.5 -119.5
t111.5 -300.5q0 -195 -112 -322t-292 -127zM477 53q97 0 168.5 94t71.5 271q0 162 -71.5 250t-168.5 88t-169 -88t-72 -250q0 -177 72 -271t169 -94z" />
    <glyph glyph-name="Ohungarumlaut" unicode="&#x150;" horiz-adv-x="1558" 
d="M1133 1690q61 0 61 -25q0 -15 -27 -39q-38 -30 -73 -59.5t-56.5 -47t-56.5 -42.5q-51 -37 -68 -37q-16 0 -23 11t7 36l98 139q28 41 50.5 52.5t87.5 11.5zM778 -39q-159 0 -290.5 59t-217 159t-132 231t-46.5 278q0 129 46 251t130.5 220t217 157.5t292.5 59.5t293 -59.5
t217.5 -157.5t131 -220t46.5 -251q0 -147 -47 -278t-133 -231t-217.5 -159t-290.5 -59zM778 45q90 0 168.5 36t135.5 98.5t98 144.5t61.5 175t20.5 189q0 90 -20.5 177.5t-62 164.5t-99 135.5t-135.5 92.5t-167 34t-167 -34t-134.5 -92.5t-97.5 -135.5t-61.5 -164.5
t-20.5 -177.5q0 -121 32.5 -235t91.5 -205.5t152 -147t205 -55.5zM848 1690q61 0 61 -25q0 -16 -26 -39q-36 -29 -72.5 -59t-58 -47t-56.5 -43q-51 -37 -67 -37t-23.5 11t6.5 36l99 139q20 29 31.5 40t35.5 17.5t70 6.5z" />
    <glyph glyph-name="ohungarumlaut" unicode="&#x151;" horiz-adv-x="952" 
d="M477 -31q-181 0 -293 126.5t-112 322.5q0 180 112 300t293 120t292.5 -119.5t111.5 -300.5q0 -195 -112 -322t-292 -127zM477 53q97 0 168.5 94t71.5 271q0 162 -71.5 250t-168.5 88t-169 -88t-72 -250q0 -177 72 -271t169 -94zM752 1331q39 0 49.5 -12.5t-13.5 -50.5
q-26 -37 -52.5 -79.5t-63.5 -105t-51 -84.5q-22 -36 -43 -36q-13 0 -18 11t1 36q24 72 76 254q12 41 35.5 54t79.5 13zM494 1331q39 0 49.5 -12.5t-13.5 -50.5q-30 -43 -168 -269q-22 -36 -43 -36q-30 0 -16 47q24 72 76 254q12 41 35.5 54t79.5 13z" />
    <glyph glyph-name="OE" unicode="&#x152;" horiz-adv-x="2033" 
d="M1645 2q-48 0 -263 -4t-245 -4q-83 0 -182 -10.5t-140 -10.5q-133 0 -247 39.5t-194.5 107.5t-138 158.5t-85 194t-27.5 213.5q0 128 48 248t134.5 214.5t221 152t294.5 57.5q20 0 117.5 -7.5t187.5 -7.5q31 0 219 -3t224 -3q143 0 266 9q17 2 31.5 -7.5t15.5 -31.5
q12 -148 39 -269q5 -20 -2 -29.5t-35 -13.5q-22 -3 -30.5 4t-18.5 29l-29 76q-15 40 -30 63.5t-44.5 47.5t-78.5 34.5t-121 10.5h-311v-527h172q72 0 111 7t53 18.5t18 32.5l22 118q5 23 13.5 31t31.5 8q29 0 36 -8t5 -29q-8 -88 -8 -247q0 -127 8 -215q2 -19 -11.5 -28
t-43.5 -9q-8 0 -13 1t-8 2t-4.5 6t-2.5 7t-1.5 10.5t-1.5 12.5l-22 116q-14 82 -182 82h-172v-383q0 -46 2.5 -74.5t12.5 -51t22.5 -33t41.5 -18t59.5 -9t86.5 -2.5q31 0 83 1t81 1q59 0 98.5 6.5t66.5 18t46.5 36.5t31.5 53t27 76l25 78q8 23 16.5 30.5t30.5 4.5
q28 -3 35 -12t4 -29q-26 -158 -39 -303q-1 -23 -18 -35t-33 -10q-109 8 -256 8zM815 57q98 0 154 21q37 14 54 41.5t17 79.5v948q0 43 -18 66t-53 38q-56 23 -154 23q-137 0 -249 -78t-175 -212.5t-63 -297.5q0 -131 36 -246.5t99.5 -200t154.5 -133.5t197 -49z" />
    <glyph glyph-name="oe" unicode="&#x153;" horiz-adv-x="1495" 
d="M475 -31q-182 0 -293.5 126.5t-111.5 322.5q0 175 111 297.5t294 122.5q54 0 101.5 -12t76.5 -26t60 -41t42 -40.5l33 -40.5q61 82 133.5 120t190.5 38q74 0 135 -29.5t97.5 -74.5t56.5 -94.5t20 -94.5t-19 -58.5t-71 -13.5h-469q0 -80 8 -119q52 -276 281 -276
q53 0 99.5 21t72 45.5t49.5 45.5t39 21q12 0 21.5 -9.5t9.5 -21.5q0 -21 -24 -54.5t-65 -69t-107 -60.5t-138 -25q-103 0 -194 47t-132 123q-118 -170 -307 -170zM473 53q110 0 177 102.5t67 264.5q0 150 -68 242t-174 92q-101 0 -172.5 -87.5t-71.5 -246.5q0 -177 73 -272
t169 -95zM870 543l344 8q39 0 39 45q0 55 -48 107.5t-126 52.5q-174 0 -209 -213z" />
    <glyph glyph-name="Racute" unicode="&#x154;" horiz-adv-x="1345" 
d="M836 1679q45 -13 59 -21t14 -26q0 -10 -10 -16t-37 -14q-186 -65 -362 -144q-41 -18 -49 -18q-24 0 -30.5 18t17.5 35q45 31 117.5 84t108.5 78q64 41 90 41q15 0 82 -17zM449 1204v-489q49 -6 106 -6q169 0 269 73.5t100 212.5q0 120 -79 194.5t-237 74.5
q-77 0 -127 -13q-22 -6 -27 -15t-5 -32zM342 2q-137 0 -225 -8q-21 -2 -29 5t-8 34q0 23 8.5 32.5t30.5 12.5l86 10q35 5 50 19t15 45v972q0 76 -13.5 98.5t-66.5 28.5l-86 11q-22 3 -30 11.5t-8 31.5q0 28 7 34.5t29 6.5q156 -5 258 -5q33 0 139 2.5t150 2.5q219 0 345 -92
t126 -259q0 -74 -27 -135t-73 -100t-98.5 -63t-110.5 -35q43 -33 109 -140q154 -254 231 -368q34 -51 96 -62l74 -12q30 -4 39.5 -13t9.5 -30q0 -28 -7 -36.5t-26 -6.5q-35 2 -128.5 4t-135.5 4q-38 1 -67.5 40t-137.5 228q-114 201 -190 299q-49 62 -160 62q-46 0 -69 -4
v-473q0 -35 16.5 -48t50.5 -18l84 -10q22 -3 30.5 -12.5t8.5 -32.5q0 -27 -8 -34t-29 -5q-88 8 -260 8z" />
    <glyph glyph-name="racute" unicode="&#x155;" horiz-adv-x="704" 
d="M293 0q-107 0 -184 -6q-19 -2 -25 4.5t-6 32.5q0 22 8 29.5t25 9.5l59 6q23 3 30 14.5t7 36.5l4 344q1 58 -0.5 88t-5 55t-15 37t-25.5 20.5t-42 18.5q-21 9 -30 15.5t-9 17.5q0 9 8.5 18t16.5 14t30 17q72 39 86 47q6 4 21 13t20.5 12t15.5 8t17.5 6.5t15.5 1.5
q16 0 21.5 -13t5.5 -46q0 -11 1 -63t1 -85l8 2q103 183 244 183q44 0 73 -21t29 -63q0 -38 -20 -65t-53 -27q-34 0 -80 22q-20 10 -56 10q-56 0 -99.5 -58.5t-43.5 -143.5l2 -363q0 -27 9.5 -38t45.5 -15l52 -6q17 -2 24.5 -9.5t7.5 -29.5q0 -26 -6 -32.5t-24 -4.5
q-77 6 -164 6zM567 1333q28 0 43.5 -6t15.5 -22t-22 -41q-38 -42 -71 -82t-81 -101.5t-69 -87.5q-30 -41 -53 -41q-16 0 -22.5 13t3.5 39q26 54 111 251q21 46 48.5 62t96.5 16z" />
    <glyph glyph-name="Rcommaaccent" unicode="&#x156;" horiz-adv-x="1345" 
d="M846 -231q0 -81 -61.5 -152.5t-98.5 -71.5q-10 0 -17 7t-7 16q0 14 14 26q65 58 65 113q0 25 -12.5 40t-27 21t-27 20.5t-12.5 37.5q0 34 19.5 58t53.5 24q51 0 81 -40.5t30 -98.5zM449 1204v-489q49 -6 106 -6q169 0 269 73.5t100 212.5q0 120 -79 194.5t-237 74.5
q-77 0 -127 -13q-22 -6 -27 -15t-5 -32zM342 2q-137 0 -225 -8q-21 -2 -29 5t-8 34q0 23 8.5 32.5t30.5 12.5l86 10q35 5 50 19t15 45v972q0 76 -13.5 98.5t-66.5 28.5l-86 11q-22 3 -30 11.5t-8 31.5q0 28 7 34.5t29 6.5q156 -5 258 -5q33 0 139 2.5t150 2.5q219 0 345 -92
t126 -259q0 -74 -27 -135t-73 -100t-98.5 -63t-110.5 -35q43 -33 109 -140q154 -254 231 -368q34 -51 96 -62l74 -12q30 -4 39.5 -13t9.5 -30q0 -28 -7 -36.5t-26 -6.5q-35 2 -128.5 4t-135.5 4q-38 1 -67.5 40t-137.5 228q-114 201 -190 299q-49 62 -160 62q-46 0 -69 -4
v-473q0 -35 16.5 -48t50.5 -18l84 -10q22 -3 30.5 -12.5t8.5 -32.5q0 -27 -8 -34t-29 -5q-88 8 -260 8z" />
    <glyph glyph-name="rcommaaccent" unicode="&#x157;" horiz-adv-x="704" 
d="M293 0q-107 0 -184 -6q-19 -2 -25 4.5t-6 32.5q0 22 8 29.5t25 9.5l59 6q23 3 30 14.5t7 36.5l4 344q1 58 -0.5 88t-5 55t-15 37t-25.5 20.5t-42 18.5q-21 9 -30 15.5t-9 17.5q0 9 8.5 18t16.5 14t30 17q72 39 86 47q6 4 21 13t20.5 12t15.5 8t17.5 6.5t15.5 1.5
q16 0 21.5 -13t5.5 -46q0 -11 1 -63t1 -85l8 2q103 183 244 183q44 0 73 -21t29 -63q0 -38 -20 -65t-53 -27q-34 0 -80 22q-20 10 -56 10q-56 0 -99.5 -58.5t-43.5 -143.5l2 -363q0 -27 9.5 -38t45.5 -15l52 -6q17 -2 24.5 -9.5t7.5 -29.5q0 -26 -6 -32.5t-24 -4.5
q-77 6 -164 6zM375 -231q0 -81 -61.5 -152.5t-98.5 -71.5q-10 0 -17.5 7t-7.5 16q0 14 15 26q65 58 65 113q0 25 -12.5 40t-27.5 21t-27.5 20.5t-12.5 37.5q0 34 20 58t54 24q51 0 81 -40.5t30 -98.5z" />
    <glyph glyph-name="Rcaron" unicode="&#x158;" horiz-adv-x="1345" 
d="M637 1427q-23 0 -70 41l-190 168q-12 9 -12 23q0 11 9 20t21 9t70 -35q13 -8 176 -97q83 46 168 97q58 35 70 35t21 -9t9 -20q0 -14 -12 -23l-190 -168q-47 -41 -70 -41zM449 1204v-489q49 -6 106 -6q169 0 269 73.5t100 212.5q0 120 -79 194.5t-237 74.5q-77 0 -127 -13
q-22 -6 -27 -15t-5 -32zM342 2q-137 0 -225 -8q-21 -2 -29 5t-8 34q0 23 8.5 32.5t30.5 12.5l86 10q35 5 50 19t15 45v972q0 76 -13.5 98.5t-66.5 28.5l-86 11q-22 3 -30 11.5t-8 31.5q0 28 7 34.5t29 6.5q156 -5 258 -5q33 0 139 2.5t150 2.5q219 0 345 -92t126 -259
q0 -74 -27 -135t-73 -100t-98.5 -63t-110.5 -35q43 -33 109 -140q154 -254 231 -368q34 -51 96 -62l74 -12q30 -4 39.5 -13t9.5 -30q0 -28 -7 -36.5t-26 -6.5q-35 2 -128.5 4t-135.5 4q-38 1 -67.5 40t-137.5 228q-114 201 -190 299q-49 62 -160 62q-46 0 -69 -4v-473
q0 -35 16.5 -48t50.5 -18l84 -10q22 -3 30.5 -12.5t8.5 -32.5q0 -27 -8 -34t-29 -5q-88 8 -260 8z" />
    </font>
</defs>
</svg>
